<?xml version="1.0" encoding="utf-8"?>
<!-- Generator: Adobe Illustrator 21.0.2, SVG Export Plug-In . SVG Version: 6.00 Build 0)  -->
<svg version="1.1" id="圖層_1" xmlns="http://www.w3.org/2000/svg" xmlns:xlink="http://www.w3.org/1999/xlink" x="0px" y="0px"
	 viewBox="0 0 302 1085" style="enable-background:new 0 0 302 1085;" xml:space="preserve">
<style type="text/css">
	.st0{opacity:0.68;fill:#EFEFEF;}
	.st1{opacity:0.84;}
	.st2{fill:#9FA0A0;}
	.st3{fill:#E16E6E;}
	.st4{fill:#D03233;}
	.st5{fill:#EDD986;}
	.st6{fill:#E9504E;stroke:#070404;stroke-width:2.1556;stroke-miterlimit:10;}
	.st7{fill:#040000;}
	.st8{fill:#EBC673;}
	.st9{fill:#E69A41;}
	.st10{fill:#FFFFFF;stroke:#080606;stroke-width:0.5513;stroke-miterlimit:10;}
	.st11{fill:#F39A5E;}
	.st12{fill:#F7D370;}
	.st13{fill:none;}
	.st14{fill:#DCDDDD;}
	.st15{fill:none;stroke:#9FA0A0;stroke-width:0.976;stroke-miterlimit:10;stroke-dasharray:1.6267;}
	.st16{fill:none;stroke:#9FA0A0;stroke-width:0.976;stroke-miterlimit:10;}
	.st17{fill:none;stroke:#9FA0A0;stroke-width:0.976;stroke-miterlimit:10;stroke-dasharray:1.5209,1.5209;}
	.st18{fill:none;stroke:#9FA0A0;stroke-width:0.976;stroke-miterlimit:10;stroke-dasharray:1.5326,1.5326;}
	.st19{fill:none;stroke:#9FA0A0;stroke-width:0.976;stroke-miterlimit:10;stroke-dasharray:1.8066,1.8066;}
	.st20{fill:none;stroke:#9FA0A0;stroke-width:0.976;stroke-miterlimit:10;stroke-dasharray:1.7894,1.7894;}
	.st21{fill:none;stroke:#9FA0A0;stroke-width:0.976;stroke-miterlimit:10;stroke-dasharray:1.4873,1.4873;}
	.st22{fill:#727171;}
	.st23{fill:#FFFFFF;}
	.st24{clip-path:url(#SVGID_2_);}
	.st25{opacity:0.75;}
	.st26{fill:#DC7953;}
	.st27{fill:#F3D3C0;}
	.st28{fill:#F4CF5A;}
	.st29{fill:#242F43;}
	.st30{fill:#B28E76;}
	.st31{clip-path:url(#SVGID_4_);}
	.st32{fill:#277238;}
	.st33{clip-path:url(#SVGID_6_);}
	.st34{opacity:0.76;}
	.st35{fill:#6EB8B2;}
	.st36{fill:#595757;}
	.st37{fill-rule:evenodd;clip-rule:evenodd;fill:#595757;}
	.st38{opacity:0.95;}
	.st39{clip-path:url(#SVGID_8_);}
	.st40{fill:#75C7CB;}
	.st41{fill:#F0CDB7;}
	.st42{fill:#A3C2E6;}
	.st43{fill:#3E3A39;}
	.st44{fill:#446CB4;}
	.st45{fill:#385EAB;}
	.st46{opacity:0.77;}
	.st47{fill:#F6DA58;}
	.st48{fill:#F5B91B;}
	.st49{fill:#EE9414;}
	.st50{fill:#FFFFFF;stroke:#080606;stroke-width:0.1391;stroke-miterlimit:10;}
	.st51{fill:#E9504E;}
	.st52{fill:none;stroke:#FFFFFF;stroke-width:0.403;stroke-miterlimit:10;}
	.st53{fill:#E83828;}
	.st54{fill:#E83828;stroke:#070404;stroke-width:0.539;stroke-miterlimit:10;}
	.st55{fill:#E9504E;stroke:#070404;stroke-width:0.9083;stroke-miterlimit:10;}
	.st56{fill:#FFFFFF;stroke:#080606;stroke-width:3.790480e-02;stroke-miterlimit:10;}
	.st57{fill:#F8B62D;}
	.st58{fill:none;stroke:#FFFFFF;stroke-width:0.2595;stroke-miterlimit:10;}
	.st59{opacity:0.68;}
	.st60{fill:#C9CACA;}
</style>
<g>
	<path class="st0" d="M234.7,116.3c0,8.2-1.2,16.1-3.4,23.6c-2.1,7.3-5.2,14.1-9.2,20.4c-14.7,23.6-40.9,39.3-70.7,39.3
		c-46,0-83.3-37.3-83.3-83.3c0-1.6,0-3.3,0.1-4.9c1.6-27.1,16.1-50.7,37.4-64.7C118.9,38,134.6,33,151.5,33
		C197.5,33,234.7,70.3,234.7,116.3L234.7,116.3z M234.7,116.3"/>
	<g class="st1">
		<path class="st2" d="M144.9,104.8v53.6h18.4l26,14.8l-6.2-14.8h25.6c3.2-5.2,5.8-10.9,7.6-16.9v-36.7H144.9z M144.9,104.8"/>
		<path class="st2" d="M159.1,64.3v53.6h-18.4l-26,14.8l6.2-14.8H89.3c1.3-22.4,13.3-42,31-53.6H159.1z M159.1,64.3"/>
		<rect x="93.7" y="64.3" class="st3" width="71.3" height="53.6"/>
		<path class="st3" d="M128.3,114.5l-7.7,18.2l33.5-19.1L128.3,114.5z M128.3,114.5"/>
		<rect x="148.8" y="104.8" class="st4" width="16.2" height="13.1"/>
		<path class="st5" d="M224.3,104.8v36.7c-1.8,6-4.3,11.7-7.6,16.9H153v-53.6H224.3z M224.3,104.8"/>
		<path class="st5" d="M189.7,155l7.7,18.2l-33.5-19.1L189.7,155z M189.7,155"/>
		<g>
			<path class="st6" d="M146.5,91.1c0,9.8-7.9,17.7-17.7,17.7c-9.8,0-17.7-7.9-17.7-17.7c0-9.8,7.9-17.7,17.7-17.7h0
				c7.3,0,13.5,4.4,16.2,10.7C145.9,86.2,146.5,88.6,146.5,91.1z"/>
			<path class="st7" d="M122.8,100c0.1,0.2,0.4,0.3,0.6,0.3c0.1,0,0.3,0,0.4-0.1c3.1-2.1,6.9-2.1,9.9,0c0.3,0.2,0.8,0.1,1-0.2
				c0.2-0.3,0.1-0.8-0.2-1c-1.7-1.2-3.7-1.8-5.8-1.8c-2,0-4,0.6-5.8,1.8C122.7,99.2,122.6,99.6,122.8,100z"/>
			<path class="st7" d="M123.4,89.1c0.4,0,0.7-0.3,0.7-0.7v-0.5c0-0.4-0.3-0.7-0.7-0.7s-0.7,0.3-0.7,0.7v0.5
				C122.7,88.8,123,89.1,123.4,89.1z"/>
			<path class="st7" d="M134.8,88.4v-0.5c0-0.4-0.3-0.7-0.7-0.7c-0.4,0-0.7,0.3-0.7,0.7v0.5c0,0.4,0.3,0.7,0.7,0.7
				C134.5,89.1,134.8,88.8,134.8,88.4z"/>
		</g>
		<g>
			<rect x="204" y="115.8" class="st8" width="7.3" height="18.2"/>
			<rect x="204" y="115.8" class="st9" width="4.7" height="18.2"/>
			<path class="st10" d="M169.3,135.6V134c0-1.3,1-2.3,2.3-2.3h1.3c-1.1-0.1-2-1-2-2.1v-1.8c0-1.2,1-2.2,2.2-2.2h1.8
				c-1.1,0-1.9-0.9-1.9-1.9v-1.5c0-1.1,0.9-1.9,1.9-1.9h1.8c-1.1,0-1.9-0.9-1.9-1.9v-1.2c0-1.1,0.9-1.9,1.9-1.9h26.1v18.8
				c-3,0-5.4,0.3-7.4,0.8c-6.2,1.7-7.5,5.6-7.5,9.1c0,1.8,0,6.3,0,6.3c0,0.4-0.2,0.8-0.4,1.1c-0.3,0.3-0.6,0.4-1.1,0.4
				c-2.7,0-4.8-2.2-4.8-4.8v-6.2c0-1.5-1.2-2.7-2.7-2.7h-7.3C170.3,138,169.3,136.9,169.3,135.6z"/>
			<path class="st11" d="M195.9,134.8c1.9-0.4,4.1-0.7,6.9-0.7v-18.8h-6.9V134.8z"/>
			<rect x="197.6" y="113.6" class="st12" width="9.3" height="22.5"/>
			<path class="st7" d="M202.2,117.3c0.5,0,1-0.4,1-1v-0.2c0-0.5-0.4-1-1-1s-1,0.4-1,1v0.2C201.3,116.9,201.7,117.3,202.2,117.3z"/>
			<path class="st7" d="M202.2,119.7c0.5,0,1-0.4,1-1v-0.2c0-0.5-0.4-1-1-1s-1,0.4-1,1v0.2C201.3,119.3,201.7,119.7,202.2,119.7z"/>
			<rect x="198.6" y="114.6" class="st13" width="7.4" height="20.6"/>
			<rect x="198.6" y="114.6" class="st13" width="7.4" height="20.6"/>
			<polygon class="st13" points="191.8,137.6 191.7,137.6 191.8,137.6 			"/>
			<path class="st7" d="M211.4,121.5c0.5,0,1-0.4,1-1v-4.8c0-0.5-0.4-1-1-1h-3.5v-1.2c0-0.5-0.4-1-1-1h-9.3c-0.5,0-1,0.4-1,1v0.7
				h-3.4c-0.5,0-1,0.4-1,1c0,0.5,0.4,1,1,1h3.4v17.4c-6.4,1.2-9.7,4.7-9.7,10.3v6.3c0,0.1-0.1,0.3-0.2,0.4c-0.1,0.1-0.2,0.2-0.4,0.2
				c-2.1,0-3.8-1.7-3.8-3.8v-6.2c0-2-1.6-3.6-3.6-3.6h-7.3c-0.7,0-1.3-0.6-1.3-1.3v-1.6c0-0.7,0.6-1.4,1.3-1.4h1.3c0,0,0,0,0,0h2
				c0.5,0,1-0.4,1-1s-0.4-1-1-1H173c-0.6-0.1-1.1-0.6-1.1-1.2v-1.8c0-0.7,0.5-1.2,1.2-1.2h1.7c0,0,0,0,0,0h2c0.5,0,1-0.4,1-1
				c0-0.5-0.4-1-1-1h-1.8c0,0,0,0,0,0c-0.5,0-1-0.4-1-1v-1.5c0-0.5,0.4-1,1-1h1.5c0,0,0,0,0,0h2c0.5,0,1-0.4,1-1s-0.4-1-1-1h-1.6
				c0,0,0,0,0,0c-0.5,0-1-0.4-1-1v-1.2c0-0.5,0.4-1,1-1h12.6c0.5,0,1-0.4,1-1c0-0.5-0.4-1-1-1h-12.6c-1.6,0-2.9,1.3-2.9,2.9v1.2
				c0,0.4,0.1,0.8,0.2,1.1c-1.2,0.4-2,1.5-2,2.8v0.3c0,0,0,0,0,0c0,0.4,0,1.7,0.1,2l0,0c0,0.1,0.1,0.2,0.1,0.3
				c-1.3,0.4-2.3,1.6-2.3,3v1.8c0,0.5,0.1,1,0.4,1.4c-1.2,0.5-2,1.7-2,3v1.6c0,1.8,1.5,3.3,3.3,3.3h7.3c0.9,0,1.7,0.8,1.7,1.7v6.2
				c0,3.2,2.6,5.8,5.8,5.8c0.7,0,1.3-0.3,1.7-0.7c0.5-0.5,0.7-1.1,0.7-1.7V144c0-2,0.4-4.5,2.8-6.3l0,0c0,0,0,0,0,0c0,0,0,0,0,0
				c0,0,0,0,0,0c0.3-0.2,1.5-0.9,1.7-1c0.9-0.4,1.9-0.7,3.1-1v0.5c0,0.5,0.4,1,1,1h9.3c0.5,0,1-0.4,1-1v-1.2h3.5c0.5,0,1-0.4,1-1
				v-9.5c0-0.5-0.4-1-1-1c-0.5,0-1,0.4-1,1v8.5h-2.5v-16.2h2.5v3.8C210.4,121.1,210.8,121.5,211.4,121.5z M205.9,135.2h-7.4v-20.6
				h7.4V135.2z"/>
			<path class="st7" d="M191.7,137.7L191.7,137.7C191.7,137.7,191.7,137.7,191.7,137.7C191.7,137.7,191.7,137.7,191.7,137.7z"/>
		</g>
	</g>
</g>
<g>
	<path class="st14" d="M105.6,217.3c-0.4,0.3-0.7,0.5-1.1,0.8c-0.2-0.2-0.6-0.6-0.9-0.8c2-1.2,3.5-2.9,4.3-4.3l1.3,0.2
		c-0.2,0.3-0.4,0.6-0.6,0.9h3.7l0.2,0l0.8,0.5c-0.3,0.6-0.9,1.3-1.4,1.9h4v8h-10.3V217.3z M109.3,225.2c-1.2,0.8-3.2,1.6-4.7,2
		c-0.2-0.2-0.6-0.7-0.9-0.9c1.5-0.3,3.4-1,4.5-1.6L109.3,225.2z M107.9,215c-0.4,0.5-0.9,1-1.4,1.5h4c0.4-0.4,0.8-1,1.1-1.5H107.9z
		 M114.7,217.5h-7.9v1.4h7.9V217.5z M114.7,219.8h-7.9v1.5h7.9V219.8z M114.7,222.1h-7.9v1.5h7.9V222.1z M112.9,224.8
		c1.7,0.6,3.5,1.3,4.6,1.8l-1.2,0.6c-1-0.5-2.6-1.2-4.3-1.8L112.9,224.8z"/>
	<path class="st14" d="M126.7,215.1c-0.2,0.7-0.4,1.4-0.6,2h6.3v10.2h-1.2v-0.8h-10v0.8h-1.1v-10.2h4.8c0.2-0.6,0.3-1.3,0.5-2h-6
		V214h13.7v1.1H126.7z M121.2,225.3h2.2v-7.2h-2.2V225.3z M127.8,218.1h-3.3v1.7h3.3V218.1z M127.8,220.8h-3.3v1.7h3.3V220.8z
		 M124.5,225.3h3.3v-1.8h-3.3V225.3z M131.2,218.1h-2.3v7.2h2.3V218.1z"/>
	<path class="st14" d="M143.5,215.2c-0.3,0.6-0.7,1.1-1.1,1.7v10.2h-1.2v-8.7c-1.6,1.8-3.5,3.4-5.7,4.5c-0.2-0.3-0.5-0.7-0.8-1
		c3.1-1.5,5.7-4.1,7.3-6.8h-6.9v-1.2h13.3v1.2H143.5z M143.6,217.8c1.8,1.2,4.2,2.9,5.3,4.1l-0.9,0.9c-1.1-1.2-3.4-3-5.3-4.2
		L143.6,217.8z"/>
	<path class="st14" d="M164.5,217.3v0.9h-2.6l-0.1,1.4h-9l0.2-1.4h-2.5v-0.9h2.6l0.2-1.3h8.9l-0.1,1.3H164.5z M159.1,225.1
		c1.8,0.5,3.7,1,4.9,1.4l-0.8,0.7c-1.1-0.4-2.9-1-4.7-1.5L159.1,225.1h-3.5l0.9,0.6c-1.3,0.7-3.4,1.3-5.1,1.6
		c-0.1-0.2-0.4-0.6-0.6-0.8c1.7-0.2,3.7-0.8,4.7-1.4h-3v-4.9h9.9v4.9H159.1z M152,216.8H151v-2.5h6c-0.2-0.4-0.5-0.8-0.7-1.2l1-0.3
		c0.4,0.4,0.7,1,0.9,1.5h5.8v2.5h-1.1v-1.5H152V216.8z M153.7,221.6h7.6v-0.7h-7.6V221.6z M153.7,223h7.6v-0.7h-7.6V223z
		 M153.7,224.4h7.6v-0.7h-7.6V224.4z M153.9,218.9h2.9c0-0.2,0.1-0.5,0.1-0.8H154L153.9,218.9z M154.2,216.7l-0.1,0.7h2.9l0-0.7
		H154.2z M160.7,218.9l0.1-0.8h-2.9c0,0.3-0.1,0.5-0.1,0.8H160.7z M160.9,216.7H158l-0.1,0.7h2.9L160.9,216.7z"/>
	<path class="st14" d="M171.6,216.6H166v-1h5.6V216.6z M171.1,226.3h-3.5v0.7h-0.9v-5.2h4.4V226.3z M166.7,218.6v-0.9h4.4v0.9H166.7
		z M166.7,219.7h4.4v0.9h-4.4V219.7z M167.6,222.7v2.6h2.5v-2.6H167.6z M168.8,215.4c-0.2-0.6-0.7-1.4-1.1-2.1l0.8-0.5
		c0.4,0.6,0.9,1.5,1.1,2L168.8,215.4z M178.6,213.8c-0.1,6.3-0.1,11.7,0.7,11.9c0.1,0,0.2-1,0.3-2.1c0.2,0.3,0.5,0.7,0.7,0.8
		c-0.2,2.2-0.7,2.7-1.4,2.4c-1.5-0.5-1.5-5.6-1.5-12h-2.6v4.6h2.1v1.1h-2.1v6.6h-1.1v-6.6h-2.1v-1.1h2.1v-4.6h-1.9v-1.1H178.6z"/>
	<path class="st14" d="M181.6,226c0.6-0.9,1.2-2.2,1.6-3.2l1,0.4c-0.4,1-1,2.3-1.5,3.2L181.6,226z M188.2,221.8h-4.3v-7.4h3.6
		c0.2-0.5,0.5-1.2,0.6-1.6l1.3,0.2c-0.2,0.5-0.5,1-0.7,1.4h4.7v7.4H188.2c0.9,0.7,1.8,1.7,2.2,2.3l-0.9,0.6
		c-0.4-0.7-1.3-1.7-2.1-2.5L188.2,221.8z M190.7,225.9c0.8,0,1-0.2,1-1.8c0.3,0.2,0.7,0.4,1.1,0.4c-0.2,2-0.5,2.5-2,2.5h-3.6
		c-1.8,0-2.3-0.3-2.3-1.6v-2.5h1.2v2.5c0,0.4,0.2,0.5,1.2,0.5H190.7z M185,216.6h7.2v-1.2H185V216.6z M185,218.7h7.2v-1.2H185V218.7
		z M185,220.8h7.2v-1.2H185V220.8z M193.8,222.6c0.7,0.9,1.5,2.2,1.8,3.1l-1.1,0.5c-0.3-0.9-1-2.2-1.7-3.2L193.8,222.6z"/>
</g>
<g>
	<path class="st0" d="M234.7,386.9c0,8.2-1.2,16.1-3.4,23.6c-2.1,7.3-5.2,14.1-9.2,20.4c-14.7,23.6-40.9,39.3-70.7,39.3
		c-46,0-83.3-37.3-83.3-83.3c0-1.6,0-3.3,0.1-4.9c1.6-27.1,16.1-50.7,37.4-64.7c13.1-8.6,28.8-13.7,45.7-13.7
		C197.5,303.6,234.7,340.9,234.7,386.9L234.7,386.9z M234.7,386.9"/>
	<polyline class="st15" points="101,376.5 101,357.2 204.2,357.2 204.2,381.6 	"/>
	<g>
		<g>
			<line class="st16" x1="194.4" y1="391" x2="193.6" y2="391"/>
			<line class="st17" x1="192.1" y1="391" x2="189.8" y2="391"/>
			<polyline class="st16" points="189,391 188.2,391 188.2,391.8 			"/>
			<line class="st18" x1="188.2" y1="393.4" x2="188.2" y2="404.9"/>
			<polyline class="st16" points="188.2,405.6 188.2,406.5 187.4,406.5 			"/>
			<line class="st19" x1="185.6" y1="406.5" x2="182.9" y2="406.5"/>
			<line class="st16" x1="182" y1="406.5" x2="181.2" y2="406.5"/>
		</g>
	</g>
	<g>
		<g>
			<line class="st16" x1="106.7" y1="391" x2="107.6" y2="391"/>
			<line class="st20" x1="109.3" y1="391" x2="115.6" y2="391"/>
			<polyline class="st16" points="116.5,391 117.3,391 117.3,391.8 			"/>
			<line class="st18" x1="117.3" y1="393.4" x2="117.3" y2="404.9"/>
			<polyline class="st16" points="117.3,405.6 117.3,406.5 118.1,406.5 			"/>
			<line class="st21" x1="119.6" y1="406.5" x2="127.8" y2="406.5"/>
			<line class="st16" x1="128.5" y1="406.5" x2="129.3" y2="406.5"/>
		</g>
	</g>
	<g>
		<path class="st22" d="M138.4,353.5c-0.8,0.8-0.8,2.1,0,2.9c0.8,0.8,2.1,0.8,2.9,0c5.4-5.4,14.3-5.4,19.7,0
			c0.4,0.4,0.9,0.6,1.4,0.6s1-0.2,1.4-0.6c0.8-0.8,0.8-2.1,0-2.9C156.9,346.5,145.4,346.5,138.4,353.5L138.4,353.5z M138.4,353.5"/>
		<path class="st22" d="M143.9,359c-0.8,0.8-0.8,2.1,0,2.9c0.8,0.8,2.1,0.8,2.9,0c2.4-2.4,6.4-2.4,8.8,0c0.4,0.4,0.9,0.6,1.4,0.6
			c0.5,0,1-0.2,1.4-0.6c0.8-0.8,0.8-2.1,0-2.9C154.4,355,147.9,355,143.9,359L143.9,359z M143.9,359"/>
		<path class="st22" d="M153.8,366.2c0,1.5-1.2,2.7-2.7,2.7c-1.5,0-2.7-1.2-2.7-2.7c0-1.5,1.2-2.7,2.7-2.7
			C152.6,363.5,153.8,364.7,153.8,366.2L153.8,366.2z M153.8,366.2"/>
		<path class="st22" d="M169.4,348c-10.1-10.1-26.5-10.1-36.5,0c-0.8,0.8-0.8,2.1,0,2.9c0.8,0.8,2.1,0.8,2.9,0
			c8.5-8.5,22.3-8.5,30.8,0c0.4,0.4,0.9,0.6,1.4,0.6c0.5,0,1-0.2,1.4-0.6C170.2,350,170.2,348.8,169.4,348L169.4,348z M169.4,348"/>
	</g>
	<g>
		<rect x="85" y="371.5" class="st23" width="29.2" height="35.7"/>
		<path class="st22" d="M112.3,368.1H87.2c-1.3,0-2.3,1-2.3,2.3v38.3c0,1.3,1,2.3,2.3,2.3h25.1c1.3,0,2.3-1,2.3-2.3v-38.3
			C114.6,369.1,113.6,368.1,112.3,368.1 M102.9,370c0.3,0,0.5,0.2,0.5,0.5c0,0.3-0.2,0.5-0.5,0.5c-0.3,0-0.5-0.2-0.5-0.5
			C102.5,370.2,102.7,370,102.9,370 M96.2,370.2h5.1v0.6h-5.1V370.2z M99.8,410.1c-0.8,0-1.5-0.7-1.5-1.5c0-0.8,0.7-1.5,1.5-1.5
			c0.8,0,1.5,0.7,1.5,1.5C101.3,409.4,100.6,410.1,99.8,410.1 M113.2,406.1H86.4v-33.2h26.8V406.1z"/>
	</g>
	<g>
		<rect x="194.4" y="377.1" class="st23" width="17.9" height="25.7"/>
		<path class="st22" d="M210.7,373.6H196c-1.4,0-2.5,1.1-2.5,2.5v29.8c0,1.4,1.1,2.5,2.5,2.5h14.7c1.4,0,2.5-1.1,2.5-2.5v-29.8
			C213.2,374.7,212.1,373.6,210.7,373.6 M209,375.2c0.4,0,0.7,0.3,0.7,0.6c0,0.4-0.3,0.6-0.7,0.6c-0.4,0-0.7-0.3-0.7-0.6
			C208.4,375.5,208.7,375.2,209,375.2 M200,375.4h6.8v0.7H200V375.4z M203.4,406.9c-0.9,0-1.7-0.8-1.7-1.7c0-0.9,0.8-1.7,1.7-1.7
			c0.9,0,1.7,0.8,1.7,1.7C205.1,406.2,204.3,406.9,203.4,406.9 M211.3,401.9h-15.9v-24h15.9V401.9z"/>
	</g>
	<g>
		<rect x="123.2" y="388.4" class="st23" width="56" height="34.5"/>
		<g>
			<path class="st22" d="M178.5,386h-53.1c-2.3,0-4.7,1.4-4.7,3.7v37.7c0,2.3,2.4,5.3,4.7,5.3h20.4c0,0,0.9,7-6.7,7v1.7h24.6v-1.7
				c-7.5,0-5.6-7-5.6-7h20.4c2.3,0,3.6-3.1,3.6-5.3v-37.7C182.1,387.4,180.8,386,178.5,386z M152,430.4c-1.6,0-2.9-1.3-2.9-2.9
				c0-1.6,1.3-2.9,2.9-2.9c1.6,0,2.9,1.3,2.9,2.9C154.9,429.1,153.6,430.4,152,430.4z M178,421.5h-53.5v-31.7H178V421.5z"/>
		</g>
	</g>
</g>
<g>
	<g>
		<path class="st14" d="M93.8,496.4c0,0,0,0.3,0,0.5c-0.2,2.2-0.4,3.1-0.8,3.5c-0.3,0.3-0.6,0.4-1,0.4c-0.4,0-1.2,0-2.1,0
			c0-0.3-0.2-0.7-0.3-1c0.8,0.1,1.7,0.1,2,0.1c0.3,0,0.4,0,0.6-0.1c0.2-0.2,0.4-0.8,0.5-2.3h-3.6c0.2-0.9,0.4-2.3,0.5-3.4h3.1v-1.6
			h-2.6v-0.2c-0.6,0.3-1.1,0.5-1.7,0.7c-0.1-0.2-0.4-0.7-0.6-0.9c1-0.3,2.1-0.8,3.1-1.5c-0.5-0.4-1.2-1-1.8-1.3l0.7-0.6
			c0.6,0.4,1.4,0.9,1.9,1.4c0.6-0.5,1.1-1.1,1.5-1.7h-3.6v-1h4.2l0.2,0l0.7,0.4c-0.7,1.6-1.9,2.8-3.3,3.7h2.4v3.5h-3.3
			c-0.1,0.5-0.2,1.1-0.2,1.6H93.8z M100.7,496c-0.4,1.1-1.1,2.1-2,2.8c0.8,0.5,1.6,1,2.1,1.4l-0.6,0.7c-0.6-0.4-1.4-1-2.3-1.5
			c-1.1,0.7-2.3,1.2-3.6,1.5c-0.1-0.3-0.3-0.7-0.5-0.9c1.1-0.3,2.2-0.7,3.2-1.2c-0.8-0.5-1.7-1-2.5-1.4l0.6-0.6
			c0.8,0.5,1.8,1,2.7,1.5c0.6-0.5,1.1-1,1.5-1.7h-4.8v-0.8h5.3l0.2,0L100.7,496z M101.9,488.9c-0.6,0.6-1.5,1.2-2.2,1.7
			c0.8,0.5,1.7,0.9,2.7,1.1c-0.2,0.2-0.5,0.6-0.7,0.9c-0.8-0.2-1.5-0.6-2.2-0.9v2.1c0,0.4,0,0.5,0.3,0.5h1.2c0.2,0,0.5,0,0.7,0
			c0,0.2,0,0.6,0.1,0.8c-0.2,0.1-0.5,0.1-0.8,0.1h-1.3c-1,0-1.1-0.4-1.1-1.3v-1.5h-2.1v0.3c0,1-0.3,2.2-1.7,3
			c-0.2-0.2-0.5-0.6-0.7-0.7c1.2-0.7,1.5-1.5,1.5-2.3v-1.2h3.5c-1.6-1.1-2.9-2.6-3.7-4.3l0.9-0.3c0.3,0.7,0.7,1.3,1.2,1.9
			c0.7-0.5,1.5-1.3,2-1.8l0.9,0.6c-0.7,0.6-1.5,1.3-2.2,1.8c0.3,0.3,0.7,0.7,1.1,1c0.7-0.5,1.6-1.3,2.1-1.8L101.9,488.9z"/>
		<path class="st14" d="M117.7,499.3v1.1h-13.8v-1.1h6.3v-4h-4.6v-1.1h4.6v-3.4h-3.7c-0.5,1-1,1.8-1.6,2.5c-0.2-0.2-0.7-0.5-1-0.7
			c1.3-1.4,2.3-3.5,2.9-5.7l1.2,0.2c-0.2,0.9-0.5,1.7-0.9,2.5h3.2v-3h1.2v3h5.6v1.1h-5.6v3.4h5v1.1h-5v4H117.7z"/>
		<path class="st14" d="M133.1,489.1v1.1h-8.5c-0.5,1.1-1.2,2.2-1.9,3.2v7.5h-1.1v-6.1c-0.5,0.6-1.2,1.1-1.8,1.6
			c-0.1-0.3-0.4-0.8-0.6-1c1.8-1.3,3.2-3.1,4.1-5.1h-3.7v-1.1h4.3c0.3-0.8,0.6-1.6,0.8-2.4l1.2,0.3c-0.2,0.7-0.5,1.4-0.7,2.1H133.1z
			 M129,499.5h4.1v1.1h-9.4v-1.1h4.1v-4.4h-3.5V494h3.5v-3h1.2v3h3.5v1.1H129V499.5z"/>
		<path class="st14" d="M141.8,496.9c-0.1,0.7-0.5,1.4-1.3,2.1c0.7,0.3,1.3,0.6,1.8,0.9l-0.8,0.7c-0.5-0.3-1.2-0.7-1.9-1
			c-1,0.5-2.4,1-4.4,1.3c-0.1-0.2-0.3-0.6-0.5-0.8c1.7-0.3,2.9-0.6,3.8-1c-0.8-0.3-1.6-0.6-2.4-0.9c0.2-0.3,0.5-0.7,0.8-1l-1.8,0.1
			l-0.1-0.9c0.7,0,1.6-0.1,2.5-0.1c0.2-0.4,0.5-0.8,0.7-1.2h-2.5v-2.5h3v-0.6H136v-1.7h-1v-0.9h1v-1.6h2.5v-1.1h0.9v1.1h2.7v1.6h1.1
			v0.9h-1.1v1.7h-2.7v0.6h3v2.5h-3.3c-0.2,0.4-0.4,0.8-0.7,1.2c0.8,0,1.6-0.1,2.4-0.1V496v-0.6h1v0.6v0.1l0.8,0l0,0.8L141.8,496.9z
			 M136.6,494.3h2v-1h-2V494.3z M137,488.6v0.8h1.5v-0.8H137z M138.5,491.1v-0.9H137v0.9H138.5z M138,497.1
			c-0.2,0.2-0.3,0.5-0.5,0.7c0.6,0.2,1.3,0.5,2,0.7c0.8-0.5,1.1-1.1,1.3-1.6L138,497.1z M139.4,488.6v0.8h1.6v-0.8H139.4z
			 M141.1,491.1v-0.9h-1.6v0.9H141.1z M139.4,493.3v1h2v-1H139.4z M147.9,490.7c-0.3,2.3-0.7,4.3-1.4,6c0.7,1.4,1.5,2.5,2.6,3.2
			c-0.2,0.2-0.5,0.5-0.7,0.8c-1-0.7-1.8-1.7-2.5-3c-0.7,1.3-1.6,2.4-2.8,3.2c-0.1-0.2-0.4-0.7-0.6-0.9c1.3-0.9,2.3-2,2.9-3.5
			c-0.5-1.2-0.9-2.6-1.1-4.1c-0.2,0.6-0.5,1.2-0.8,1.7c-0.2-0.2-0.6-0.5-0.8-0.7c1-1.6,1.6-4.2,2-6.7l1,0.2
			c-0.1,0.9-0.3,1.8-0.5,2.7h3.8v1H147.9z M144.9,490.7c0.2,1.7,0.6,3.2,1,4.6c0.5-1.3,0.7-2.9,0.9-4.6H144.9z"/>
		<path class="st14" d="M155.4,487c-0.4,1.1-1,2.2-1.6,3.3v10.5h-1.2v-8.7c-0.5,0.7-1,1.3-1.5,1.9c-0.1-0.3-0.4-0.9-0.7-1.1
			c1.5-1.5,3-3.8,3.8-6.2L155.4,487z M164.6,499.2v1.1h-9.7v-1.1h5.5c0.6-2.1,1.2-5.4,1.5-7.7l1.2,0.2c-0.4,2.4-1,5.4-1.6,7.5H164.6
			z M164,490.6h-8.4v-1.1h8.4V490.6z M157.6,498.4c-0.1-1.6-0.6-4.5-1.1-6.7l1-0.2c0.5,2.2,1,5,1.2,6.6L157.6,498.4z M159.4,489.3
			c-0.1-0.7-0.4-1.7-0.7-2.5l1.1-0.3c0.3,0.8,0.6,1.8,0.8,2.4L159.4,489.3z"/>
		<path class="st14" d="M168.5,493v2.3c0,1.8-0.3,4.2-1.7,5.8c-0.2-0.2-0.6-0.6-0.9-0.7c1.3-1.5,1.4-3.5,1.4-5V492h2
			c-0.2-0.2-0.4-0.4-0.6-0.6c1.2-0.2,2.7-0.5,4-0.9c-1.2-0.3-2.4-0.7-3.5-0.9l0.7-0.6h-2.5v-1h5.8c-0.3-0.4-0.6-0.8-0.8-1.2l0.8-0.4
			c0.4,0.5,0.9,1.1,1.2,1.6h5.2v1h-2.4l0.6,0.4c-0.7,0.4-1.5,0.7-2.4,1c1.1,0.3,2.2,0.7,3,1l-0.6,0.6h2.3v1H168.5z M180.3,499.4v1
			h-11.6v-1h5.1v-1.6h-3.6v-0.9h3.6v-1.4h-3.3c-0.4,0.7-1,1.4-1.5,1.9c-0.1-0.2-0.4-0.7-0.6-1c0.9-0.8,1.6-2,2.1-3.3l1,0.3
			c-0.1,0.4-0.3,0.7-0.4,1.1h2.7v-1.3h1.1v1.3h4.2v1H175v1.4h3.9v0.9H175v1.6H180.3z M177.4,492c-0.9-0.3-2-0.7-3.3-1.1
			c-1.4,0.5-2.9,0.8-4.2,1.1H177.4z M170.3,489c1.2,0.3,2.6,0.7,3.9,1c1-0.3,1.9-0.7,2.6-1H170.3z"/>
		<path class="st14" d="M182.3,494.1h5.5v6.7h-1.1v-0.7h-3.3v0.8h-1.1V494.1z M183.4,495.3v3.7h3.3v-3.7H183.4z M193.1,492.5h-8.5
			v-5.2h8.5V492.5z M191.9,488.4h-6.2v3h6.2V488.4z M195.4,494.1v6.7h-1.1v-0.7h-3.5v0.8h-1.1v-6.8H195.4z M194.2,499v-3.7h-3.5v3.7
			H194.2z"/>
		<path class="st14" d="M211.4,499v1.2h-13.9V499h5.8v-12.1h1.2v4.8h5.8v1.2h-5.8v6.2H211.4z"/>
	</g>
</g>
<g>
	<path class="st0" d="M234.7,657.5c0,8.2-1.2,16.1-3.4,23.6c-2.1,7.3-5.2,14.1-9.2,20.4c-14.7,23.6-40.9,39.3-70.7,39.3
		c-46,0-83.3-37.3-83.3-83.3c0-1.6,0-3.3,0.1-4.9c1.6-27.1,16.1-50.7,37.4-64.7c13.1-8.6,28.8-13.7,45.7-13.7
		C197.5,574.3,234.7,611.6,234.7,657.5L234.7,657.5z M234.7,657.5"/>
	<path class="st15" d="M210.3,657.5c0,5.8-0.8,11.4-2.4,16.7c-1.5,5.1-3.7,10-6.5,14.4c-10.4,16.7-28.9,27.8-50,27.8
		c-32.5,0-58.9-26.4-58.9-58.9c0-1.2,0-2.3,0.1-3.5c1.1-19.1,11.4-35.8,26.5-45.8c9.3-6.1,20.4-9.7,32.3-9.7
		C184,598.7,210.3,625,210.3,657.5L210.3,657.5z M210.3,657.5"/>
	<g>
		<defs>
			<circle id="SVGID_1_" cx="97.5" cy="677.6" r="23"/>
		</defs>
		<clipPath id="SVGID_2_">
			<use xlink:href="#SVGID_1_"  style="overflow:visible;"/>
		</clipPath>
		<g class="st24">
			<circle class="st23" cx="97.5" cy="677.6" r="23"/>
			<g class="st25">
				<path class="st26" d="M81.4,701.8c-0.2-3.7,0.1-7.5,0.7-11.1c0-0.1,0-0.2,0.1-0.2c0,0,0.1-0.1,0.2-0.1c2-0.5,4.2-0.3,6.1,0.5
					c0.1,0,0.2,0.1,0.3,0.2c0.1,0.1,0.1,0.2,0.1,0.3c0.1,3-0.6,6-0.6,9c0,0.1,0,0.2-0.1,0.3c-0.1,0.1-0.2,0.2-0.3,0.2
					c-2,0.9-4.3,1.2-6.4,0.8"/>
				<path class="st26" d="M102.9,681.3c0-0.1,0.2-0.1,0.1-0.2c-0.3-0.3-1-0.5-1.4-0.7c-0.2-0.1-0.3-0.2-0.4-0.3
					c-0.1-0.1-0.1-0.3-0.1-0.5c-0.1-1-0.2-1.9-0.3-2.9c0-0.1,0-0.2-0.1-0.3c-0.1-0.2-0.4-0.2-0.6-0.2c-1.8,0.2-3.5,0.3-5.3,0.5
					l-0.1-0.1c0,0.6,0,1.3,0,1.9c0,0.5,0,1.1-0.4,1.4c-0.3,0.2-1.8,0.8-2.2,1c0,0-0.1,0.1-0.1,0.1c0,0.1,0,0.1,0,0.2
					c0.4,0.7,1.1,1.3,1.8,1.7c1.4,0.8,3.1,1.3,4.7,1.2c1.7-0.1,3.3-0.9,4.2-2.3C102.9,681.7,103,681.5,102.9,681.3z"/>
				<g>
					<path class="st27" d="M94.9,679.3c1.4,0.7,3,0.8,4.5,0.4c0.5-0.2,1.1-0.4,1.5-0.7c-0.1-0.7-0.2-1.5-0.2-2.2
						c0-0.1,0-0.2-0.1-0.3c-0.1-0.2-0.4-0.2-0.6-0.2c-1.8,0.2-3.5,0.3-5.3,0.5l-0.1-0.1l0,1.9c0,0.2,0,0.4,0,0.6
						C94.7,679.1,94.8,679.2,94.9,679.3z"/>
				</g>
				<path class="st26" d="M106.2,692.1c1.8-0.9,3.8-1.4,5.8-1.3c0.2,1.7,0.6,3.3,0.6,5c0,1.7-0.3,3.4-1.4,4.7
					c-0.5,0.7-1.4,1.2-2.1,0.9c-0.6-0.2-0.9-0.8-1.2-1.3c-1.2-2.5-1.6-5.2-1.7-8"/>
				<g>
					<path class="st27" d="M106.2,692.1c1.8-0.9,3.8-1.4,5.8-1.3c0.2,1.7,0.6,3.3,0.6,5c0,1.7-0.3,3.4-1.4,4.7
						c-0.5,0.7-1.4,1.2-2.1,0.9c-0.6-0.2-0.9-0.8-1.2-1.3c-1.2-2.5-1.6-5.2-1.7-8"/>
				</g>
				<path class="st28" d="M92.4,680.5c0,0,1.8,2.3,5.5,2.4c3.7,0.1,4.8-2,4.8-2s4,1.5,6,2.9s2.1,2,2.4,2.9c0.3,0.9,0.8,2.6,1,3.5
					c0.3,0.9,0.5,2.1,0.5,2.1s-0.9,0-2.4,0.5c-1.5,0.5-3.8,1.9-3.8,1.9l0.8,4.7c0,0-3.8,0.7-8.8,1c-5,0.3-10.1-0.7-10.1-0.7l0.5-6.7
					c0,0-1.1-0.7-3.5-1c-2.4-0.4-3.4-0.4-3.4-0.4s0.3-5.8,1.6-7.1C84.8,683.1,92.4,680.5,92.4,680.5z"/>
				<path class="st26" d="M92.5,671.2c-0.1-0.2-0.2-0.3-0.3-0.5c-0.4-0.6-0.8-1.2-1.5-1.3c-0.1,0-0.3,0-0.4,0
					c-0.1,0-0.2,0.1-0.3,0.3c-0.2,0.4-0.2,0.9-0.1,1.4c0.1,0.3,0.1,0.7,0.3,1c0.2,0.3,0.5,0.5,0.8,0.6c0.3,0,0.6-0.1,0.8-0.2
					c0.5-0.3,0.8-0.7,1-1.2L92.5,671.2z"/>
				<path class="st26" d="M105.3,670.2c0-0.3-0.1-0.6-0.1-0.9c0-0.2-0.1-0.3-0.3-0.4c-0.1-0.1-0.4-0.2-0.5-0.1
					c-0.1,0-0.1,0.1-0.2,0.2c-0.5,0.5-0.8,1.2-1,1.8l-0.5,0.8c0.1,0.2,0.2,0.4,0.3,0.6c0.1,0.1,0.1,0.2,0.2,0.3
					c0.2,0.2,0.5,0.2,0.8,0.2c0.5-0.1,1-0.5,1.2-0.9S105.3,670.6,105.3,670.2z"/>
				<path class="st29" d="M94.9,689.9c-0.2-2.4-0.3-4.8-0.5-7.3c0-0.2,0-0.4,0.1-0.5c0.1-0.1,0.3-0.1,0.4-0.2
					c1.6-0.2,3.3-0.3,4.9-0.3c0.2,0,0.5,0,0.6,0.1c0.4,0.2,0.5,0.7,0.5,1.1c0.2,2.4,0.3,4.8,0.2,7.1c0,0.2,0,0.5-0.1,0.7
					c-0.2,0.5-0.8,0.8-1.4,1c-1.8,0.4-3.8-0.4-4.8-1.9"/>
				<path class="st26" d="M102.9,664.8c-0.3-1-0.9-1.7-1.8-2.2c-0.6-0.4-1.4-0.4-2.1-0.4c-0.7,0-1.4,0.2-2.1,0.3
					c-1.2,0.1-2.5,0-3.6,0.5c-0.2,0-0.4,0.1-0.5,0.2c-0.2,0.2-0.3,0.4-0.4,0.7c-0.5,1.4-0.5,3-0.4,4.5c0.1,1.5,0.1,3,0.2,4.4
					c0,1,0.1,2.1,0.7,3c0.3,0.5,0.7,0.9,1.2,1.2c1.1,0.9,2.5,1.6,3.9,1.6c0.6,0,1.5-0.3,2.1-0.6c0.8-0.4,1.5-1,2.2-1.6
					c0.3-0.3,0.7-0.7,0.8-1.2c0.1-0.4,0.2-0.8,0.2-1.2C103.6,671,103.8,667.8,102.9,664.8z"/>
				<path class="st26" d="M109.9,698.2c-0.7-0.9-1.5-1.6-2.3-2.4c-0.8-0.8-1.6-1.7-2.4-2.5c-0.8-0.8-1.5-1.5-2.3-2.2
					c0-0.3,0.1-0.6,0.1-0.9c0-0.6,0-1.1-0.1-1.7c-0.1-0.5-0.2-1-0.3-1.6c-0.1-0.5-0.2-1.1-0.5-1.5c-0.1-0.2-0.4-0.5-0.7-0.3
					c-0.3,0.2-0.2,0.8-0.3,1c-0.1,0.6-0.1,1.2-0.3,1.7c-0.1,0.3-0.1,0.5-0.2,0.8c0,0,0,0,0,0c-2.1,0.4-4.1,0-6.1-0.5
					c-0.5-0.1-2.2-0.8-2,0.3c0.1,0.4,0.4,0.7,0.8,0.9c0,0.3,0.1,0.7,0.3,1c0.3,0.3,0.6,0.6,0.9,0.8c0,0.3,0.2,0.6,0.4,0.9
					c0.3,0.5,0.8,0.8,1.3,1.1c0.6,0.3,1.2,0.5,1.8,0.6c0.5,0.1,1.1,0.2,1.6,0.1c0.3,1.2,0.7,2.3,1.3,3.4c0.6,1.3,1.4,2.9,2.5,3.8
					c1.1,0.9,2.5,0.9,3.8,0.6c1.1-0.3,3.6,0.4,4-0.6C111.7,700.6,110.8,699.3,109.9,698.2z"/>
				<g>
					<path class="st30" d="M96.4,690.6c0.4,0.1,0.8,0.2,1.2,0.2c0.3,0.1,0.7,0.2,1.1,0.1c0.1,0-3.1-0.8-3.7-0.9
						c-0.5-0.1-1.1-0.3-1.6-0.6c0,0,0,0,0,0c0,0.1,0,0.1,0,0.2c0.4,0.2,0.8,0.4,1.3,0.5C95.2,690.3,95.8,690.5,96.4,690.6z"/>
					<path class="st30" d="M96.2,691.9c-0.5-0.1-1.1-0.3-1.5-0.6c0,0.1,0,0.1,0,0.2c0.4,0.3,0.9,0.5,1.4,0.6c0.3,0.1,0.7,0.2,1,0.3
						c0.2,0,0.3,0.1,0.5,0.1c0.1,0,0.3,0.1,0.4,0C98.1,692.4,96.5,692,96.2,691.9z"/>
				</g>
				<path class="st29" d="M103.8,664.9c-0.6-1.7-1.4-3.3-3.1-4c-0.6-0.3-1.3-0.4-2-0.4c-0.7-0.1-1.5-0.1-2.2,0
					c-0.5,0.1-1.1,0.2-1.6,0.3c-1.8,0.6-3.1,2.1-3.6,3.7c-0.3,1-0.3,2-0.2,3.1c0,0.7,0,1.3,0.1,2c0,0.1,0,0.2,0,0.3
					c0.2,0.4,1,1,1,1.5l0.1-0.1c0.5-1.6-0.1-2.6,0.2-4.2c0.1-0.4,0.2-0.9,0.7-1c0.2-0.1,0.3-0.1,0.5,0c0.8,0.1,1.1,0.3,1.9,0.5
					c1.1,0.3,2.3,0.4,3.4,0.1c0.9-0.2,1.7-0.7,2.6-0.7c0.3,0,0.6,0.1,0.7,0.3c0.1,0.1,0.1,0.2,0.1,0.4c0.3,1.6,0.2,2.7,0.8,4.3
					c0.7-0.7,0.7-2,0.7-3S104.1,665.8,103.8,664.9z"/>
			</g>
		</g>
	</g>
	<g>
		<defs>
			<circle id="SVGID_3_" cx="202.6" cy="684.4" r="23"/>
		</defs>
		<clipPath id="SVGID_4_">
			<use xlink:href="#SVGID_3_"  style="overflow:visible;"/>
		</clipPath>
		<g class="st31">
			<circle class="st23" cx="202.6" cy="684.4" r="23"/>
			<g class="st25">
				<path class="st26" d="M186.5,708.6c-0.2-3.7,0.1-7.5,0.7-11.1c0-0.1,0-0.2,0.1-0.2c0,0,0.1-0.1,0.2-0.1c2-0.5,4.2-0.3,6.1,0.5
					c0.1,0,0.2,0.1,0.3,0.2c0.1,0.1,0.1,0.2,0.1,0.3c0.1,3-0.6,6-0.6,9c0,0.1,0,0.2-0.1,0.3c-0.1,0.1-0.2,0.2-0.3,0.2
					c-2,0.9-4.3,1.2-6.4,0.8"/>
				<path class="st26" d="M208,688.1c0-0.1,0.2-0.1,0.1-0.2c-0.3-0.3-1-0.5-1.4-0.7c-0.2-0.1-0.3-0.2-0.4-0.3
					c-0.1-0.1-0.1-0.3-0.1-0.5c-0.1-1-0.2-1.9-0.3-2.9c0-0.1,0-0.2-0.1-0.3c-0.1-0.2-0.4-0.2-0.6-0.2c-1.8,0.2-3.5,0.3-5.3,0.5
					l-0.1-0.1c0,0.6,0,1.3,0,1.9c0,0.5,0,1.1-0.4,1.4c-0.3,0.2-1.8,0.8-2.2,1c0,0-0.1,0.1-0.1,0.1c0,0.1,0,0.1,0,0.2
					c0.4,0.7,1.1,1.3,1.8,1.7c1.4,0.8,3.1,1.3,4.7,1.2c1.7-0.1,3.3-0.9,4.2-2.3C208,688.4,208.1,688.3,208,688.1z"/>
				<g>
					<path class="st27" d="M200,686c1.4,0.7,3,0.8,4.5,0.4c0.5-0.2,1.1-0.4,1.5-0.7c-0.1-0.7-0.2-1.5-0.2-2.2c0-0.1,0-0.2-0.1-0.3
						c-0.1-0.2-0.4-0.2-0.6-0.2c-1.8,0.2-3.5,0.3-5.3,0.5l-0.1-0.1l0,1.9c0,0.2,0,0.4,0,0.6C199.8,685.9,199.9,685.9,200,686z"/>
				</g>
				<path class="st26" d="M211.3,698.8c1.8-0.9,3.8-1.4,5.8-1.3c0.2,1.7,0.6,3.3,0.6,5c0,1.7-0.3,3.4-1.4,4.7
					c-0.5,0.7-1.4,1.2-2.1,0.9c-0.6-0.2-0.9-0.8-1.2-1.3c-1.2-2.5-1.6-5.2-1.7-8"/>
				<g>
					<path class="st27" d="M211.3,698.8c1.8-0.9,3.8-1.4,5.8-1.3c0.2,1.7,0.6,3.3,0.6,5c0,1.7-0.3,3.4-1.4,4.7
						c-0.5,0.7-1.4,1.2-2.1,0.9c-0.6-0.2-0.9-0.8-1.2-1.3c-1.2-2.5-1.6-5.2-1.7-8"/>
				</g>
				<path class="st32" d="M197.5,687.2c0,0,1.8,2.3,5.5,2.4c3.7,0.1,4.8-2,4.8-2s4,1.5,6,2.9c2,1.4,2.1,2,2.4,2.9
					c0.3,0.9,0.8,2.6,1,3.5c0.3,0.9,0.5,2.1,0.5,2.1s-0.9,0-2.4,0.5c-1.5,0.5-3.8,1.9-3.8,1.9l0.8,4.7c0,0-3.8,0.7-8.8,1
					s-10.1-0.7-10.1-0.7l0.5-6.7c0,0-1.1-0.7-3.5-1s-3.4-0.4-3.4-0.4s0.3-5.8,1.6-7.1C189.9,689.9,197.5,687.2,197.5,687.2z"/>
				<path class="st26" d="M197.6,677.9c-0.1-0.2-0.2-0.3-0.3-0.5c-0.4-0.6-0.8-1.2-1.5-1.3c-0.1,0-0.3,0-0.4,0
					c-0.1,0-0.2,0.1-0.3,0.3c-0.2,0.4-0.2,0.9-0.1,1.4c0.1,0.3,0.1,0.7,0.3,1c0.2,0.3,0.5,0.5,0.8,0.6c0.3,0,0.6-0.1,0.8-0.2
					c0.5-0.3,0.8-0.7,1-1.2L197.6,677.9z"/>
				<path class="st26" d="M210.4,676.9c0-0.3-0.1-0.6-0.1-0.9c0-0.2-0.1-0.3-0.3-0.4c-0.1-0.1-0.4-0.2-0.5-0.1
					c-0.1,0-0.1,0.1-0.2,0.2c-0.5,0.5-0.8,1.2-1,1.8l-0.5,0.8c0.1,0.2,0.2,0.4,0.3,0.6c0.1,0.1,0.1,0.2,0.2,0.3
					c0.2,0.2,0.5,0.2,0.8,0.2c0.5-0.1,1-0.5,1.2-0.9C210.4,677.9,210.4,677.4,210.4,676.9z"/>
				<path class="st29" d="M200,696.7c-0.2-2.4-0.3-4.8-0.5-7.3c0-0.2,0-0.4,0.1-0.5c0.1-0.1,0.3-0.1,0.4-0.2
					c1.6-0.2,3.3-0.3,4.9-0.3c0.2,0,0.5,0,0.6,0.1c0.4,0.2,0.5,0.7,0.5,1.1c0.2,2.4,0.3,4.8,0.2,7.1c0,0.2,0,0.5-0.1,0.7
					c-0.2,0.5-0.8,0.8-1.4,1c-1.8,0.4-3.8-0.4-4.8-1.9"/>
				<path class="st26" d="M208,671.6c-0.3-1-0.9-1.7-1.8-2.2c-0.6-0.4-1.4-0.4-2.1-0.4c-0.7,0-1.4,0.2-2.1,0.3
					c-1.2,0.1-2.5,0-3.6,0.5c-0.2,0-0.4,0.1-0.5,0.2c-0.2,0.2-0.3,0.4-0.4,0.7c-0.5,1.4-0.5,3-0.4,4.5c0.1,1.5,0.1,3,0.2,4.4
					c0,1,0.1,2.1,0.7,3c0.3,0.5,0.7,0.9,1.2,1.2c1.1,0.9,2.5,1.6,3.9,1.6c0.6,0,1.5-0.3,2.1-0.6c0.8-0.4,1.5-1,2.2-1.6
					c0.3-0.3,0.7-0.7,0.8-1.2c0.1-0.4,0.2-0.8,0.2-1.2C208.7,677.7,208.9,674.5,208,671.6z"/>
				<path class="st26" d="M215,704.9c-0.7-0.9-1.5-1.6-2.3-2.4c-0.8-0.8-1.6-1.7-2.4-2.5c-0.8-0.8-1.5-1.5-2.3-2.2
					c0-0.3,0.1-0.6,0.1-0.9c0-0.6,0-1.1-0.1-1.7c-0.1-0.5-0.2-1-0.3-1.6c-0.1-0.5-0.2-1.1-0.5-1.5c-0.1-0.2-0.4-0.5-0.7-0.3
					c-0.3,0.2-0.2,0.8-0.3,1c-0.1,0.6-0.1,1.2-0.3,1.7c-0.1,0.3-0.1,0.5-0.2,0.8c0,0,0,0,0,0c-2.1,0.4-4.1,0-6.1-0.5
					c-0.5-0.1-2.2-0.8-2,0.3c0.1,0.4,0.4,0.7,0.8,0.9c0,0.3,0.1,0.7,0.3,1c0.3,0.3,0.6,0.6,0.9,0.8c0,0.3,0.2,0.6,0.4,0.9
					c0.3,0.5,0.8,0.8,1.3,1.1c0.6,0.3,1.2,0.5,1.8,0.6c0.5,0.1,1.1,0.2,1.6,0.1c0.3,1.2,0.7,2.3,1.3,3.4c0.6,1.3,1.4,2.9,2.5,3.8
					c1.1,0.9,2.5,0.9,3.8,0.6c1.1-0.3,3.6,0.4,4-0.6C216.7,707.3,215.9,706,215,704.9z"/>
				<g>
					<path class="st30" d="M201.5,697.4c0.4,0.1,0.8,0.2,1.2,0.2c0.3,0.1,0.7,0.2,1.1,0.1c0.1,0-3.1-0.8-3.7-0.9
						c-0.5-0.1-1.1-0.3-1.6-0.6c0,0,0,0,0,0c0,0.1,0,0.1,0,0.2c0.4,0.2,0.8,0.4,1.3,0.5C200.3,697.1,200.9,697.2,201.5,697.4z"/>
					<path class="st30" d="M201.3,698.6c-0.5-0.1-1.1-0.3-1.5-0.6c0,0.1,0,0.1,0,0.2c0.4,0.3,0.9,0.5,1.4,0.6c0.3,0.1,0.7,0.2,1,0.3
						c0.2,0,0.3,0.1,0.5,0.1c0.1,0,0.3,0.1,0.4,0C203.2,699.1,201.6,698.7,201.3,698.6z"/>
				</g>
				<path class="st29" d="M208.9,671.6c-0.6-1.7-1.4-3.3-3.1-4c-0.6-0.3-1.3-0.4-2-0.4c-0.7-0.1-1.5-0.1-2.2,0
					c-0.5,0.1-1.1,0.2-1.6,0.3c-1.8,0.6-3.1,2.1-3.6,3.7c-0.3,1-0.3,2-0.2,3.1c0,0.7,0,1.3,0.1,2c0,0.1,0,0.2,0,0.3
					c0.2,0.4,1,1,1,1.5l0.1-0.1c0.5-1.6-0.1-2.6,0.2-4.2c0.1-0.4,0.2-0.9,0.7-1c0.2-0.1,0.3-0.1,0.5,0c0.8,0.1,1.1,0.3,1.9,0.5
					c1.1,0.3,2.3,0.4,3.4,0.1c0.9-0.2,1.7-0.7,2.6-0.7c0.3,0,0.6,0.1,0.7,0.3c0.1,0.1,0.1,0.2,0.1,0.4c0.3,1.6,0.2,2.7,0.8,4.3
					c0.7-0.7,0.7-2,0.7-3C209.2,673.6,209.2,672.5,208.9,671.6z"/>
			</g>
		</g>
	</g>
	<g>
		<defs>
			<circle id="SVGID_5_" cx="153.9" cy="598.7" r="23"/>
		</defs>
		<clipPath id="SVGID_6_">
			<use xlink:href="#SVGID_5_"  style="overflow:visible;"/>
		</clipPath>
		<g class="st33">
			<circle class="st23" cx="153.9" cy="598.7" r="23"/>
			<g class="st34">
				<path class="st26" d="M137.8,622.9c-0.2-3.7,0.1-7.5,0.7-11.1c0-0.1,0-0.2,0.1-0.2c0,0,0.1-0.1,0.2-0.1c2-0.5,4.2-0.3,6.1,0.5
					c0.1,0,0.2,0.1,0.3,0.2c0.1,0.1,0.1,0.2,0.1,0.3c0.1,3-0.6,6-0.6,9c0,0.1,0,0.2-0.1,0.3c-0.1,0.1-0.2,0.2-0.3,0.2
					c-2,0.9-4.3,1.2-6.4,0.8"/>
				<path class="st26" d="M159.3,602.4c0-0.1,0.2-0.1,0.1-0.2c-0.3-0.3-1-0.5-1.4-0.7c-0.2-0.1-0.3-0.2-0.4-0.3
					c-0.1-0.1-0.1-0.3-0.1-0.5c-0.1-1-0.2-1.9-0.3-2.9c0-0.1,0-0.2-0.1-0.3c-0.1-0.2-0.4-0.2-0.6-0.2c-1.8,0.2-3.5,0.3-5.3,0.5
					l-0.1-0.1c0,0.6,0,1.3,0,1.9c0,0.5,0,1.1-0.4,1.4c-0.3,0.2-1.8,0.8-2.2,1c0,0-0.1,0.1-0.1,0.1c0,0.1,0,0.1,0,0.2
					c0.4,0.7,1.1,1.3,1.8,1.7c1.4,0.8,3.1,1.3,4.7,1.2c1.7-0.1,3.3-0.9,4.2-2.3C159.3,602.8,159.4,602.6,159.3,602.4z"/>
				<g>
					<path class="st27" d="M151.3,600.3c1.4,0.7,3,0.8,4.5,0.4c0.5-0.2,1.1-0.4,1.5-0.7c-0.1-0.7-0.2-1.5-0.2-2.2
						c0-0.1,0-0.2-0.1-0.3c-0.1-0.2-0.4-0.2-0.6-0.2c-1.8,0.2-3.5,0.3-5.3,0.5l-0.1-0.1l0,1.9c0,0.2,0,0.4,0,0.6
						C151.1,600.2,151.2,600.3,151.3,600.3z"/>
				</g>
				<path class="st26" d="M162.6,613.2c1.8-0.9,3.8-1.4,5.8-1.3c0.2,1.7,0.6,3.3,0.6,5c0,1.7-0.3,3.4-1.4,4.7
					c-0.5,0.7-1.4,1.2-2.1,0.9c-0.6-0.2-0.9-0.8-1.2-1.3c-1.2-2.5-1.6-5.2-1.7-8"/>
				<g>
					<path class="st27" d="M162.6,613.2c1.8-0.9,3.8-1.4,5.8-1.3c0.2,1.7,0.6,3.3,0.6,5c0,1.7-0.3,3.4-1.4,4.7
						c-0.5,0.7-1.4,1.2-2.1,0.9c-0.6-0.2-0.9-0.8-1.2-1.3c-1.2-2.5-1.6-5.2-1.7-8"/>
				</g>
				<path class="st35" d="M148.8,601.6c0,0,1.8,2.3,5.5,2.4c3.7,0.1,4.8-2,4.8-2s4,1.5,6,2.9c2,1.4,2.1,2,2.4,2.9
					c0.3,0.9,0.8,2.6,1,3.5c0.3,0.9,0.5,2.1,0.5,2.1s-0.9,0-2.4,0.5c-1.5,0.5-3.8,1.9-3.8,1.9l0.8,4.7c0,0-3.8,0.7-8.8,1
					s-10.1-0.7-10.1-0.7l0.5-6.7c0,0-1.1-0.7-3.5-1s-3.4-0.4-3.4-0.4s0.3-5.8,1.6-7.1C141.2,604.2,148.8,601.6,148.8,601.6z"/>
				<path class="st26" d="M148.9,592.3c-0.1-0.2-0.2-0.3-0.3-0.5c-0.4-0.6-0.8-1.2-1.5-1.3c-0.1,0-0.3,0-0.4,0
					c-0.1,0-0.2,0.1-0.3,0.3c-0.2,0.4-0.2,0.9-0.1,1.4c0.1,0.3,0.1,0.7,0.3,1c0.2,0.3,0.5,0.5,0.8,0.6c0.3,0,0.6-0.1,0.8-0.2
					c0.5-0.3,0.8-0.7,1-1.2L148.9,592.3z"/>
				<path class="st26" d="M161.7,591.3c0-0.3-0.1-0.6-0.1-0.9c0-0.2-0.1-0.3-0.3-0.4c-0.1-0.1-0.4-0.2-0.5-0.1
					c-0.1,0-0.1,0.1-0.2,0.2c-0.5,0.5-0.8,1.2-1,1.8l-0.5,0.8c0.1,0.2,0.2,0.4,0.3,0.6c0.1,0.1,0.1,0.2,0.2,0.3
					c0.2,0.2,0.5,0.2,0.8,0.2c0.5-0.1,1-0.5,1.2-0.9C161.7,592.2,161.7,591.7,161.7,591.3z"/>
				<path class="st29" d="M151.3,611c-0.2-2.4-0.3-4.8-0.5-7.3c0-0.2,0-0.4,0.1-0.5c0.1-0.1,0.3-0.1,0.4-0.2
					c1.6-0.2,3.3-0.3,4.9-0.3c0.2,0,0.5,0,0.6,0.1c0.4,0.2,0.5,0.7,0.5,1.1c0.2,2.4,0.3,4.8,0.2,7.1c0,0.2,0,0.5-0.1,0.7
					c-0.2,0.5-0.8,0.8-1.4,1c-1.8,0.4-3.8-0.4-4.8-1.9"/>
				<path class="st26" d="M159.3,585.9c-0.3-1-0.9-1.7-1.8-2.2c-0.6-0.4-1.4-0.4-2.1-0.4c-0.7,0-1.4,0.2-2.1,0.3
					c-1.2,0.1-2.5,0-3.6,0.5c-0.2,0-0.4,0.1-0.5,0.2c-0.2,0.2-0.3,0.4-0.4,0.7c-0.5,1.4-0.5,3-0.4,4.5c0.1,1.5,0.1,3,0.2,4.4
					c0,1,0.1,2.1,0.7,3c0.3,0.5,0.7,0.9,1.2,1.2c1.1,0.9,2.5,1.6,3.9,1.6c0.6,0,1.5-0.3,2.1-0.6c0.8-0.4,1.5-1,2.2-1.6
					c0.3-0.3,0.7-0.7,0.8-1.2c0.1-0.4,0.2-0.8,0.2-1.2C160,592,160.2,588.9,159.3,585.9z"/>
				<path class="st26" d="M166.3,619.3c-0.7-0.9-1.5-1.6-2.3-2.4c-0.8-0.8-1.6-1.7-2.4-2.5c-0.8-0.8-1.5-1.5-2.3-2.2
					c0-0.3,0.1-0.6,0.1-0.9c0-0.6,0-1.1-0.1-1.7c-0.1-0.5-0.2-1-0.3-1.6c-0.1-0.5-0.2-1.1-0.5-1.5c-0.1-0.2-0.4-0.5-0.7-0.3
					c-0.3,0.2-0.2,0.8-0.3,1c-0.1,0.6-0.1,1.2-0.3,1.7c-0.1,0.3-0.1,0.5-0.2,0.8c0,0,0,0,0,0c-2.1,0.4-4.1,0-6.1-0.5
					c-0.5-0.1-2.2-0.8-2,0.3c0.1,0.4,0.4,0.7,0.8,0.9c0,0.3,0.1,0.7,0.3,1c0.3,0.3,0.6,0.6,0.9,0.8c0,0.3,0.2,0.6,0.4,0.9
					c0.3,0.5,0.8,0.8,1.3,1.1c0.6,0.3,1.2,0.5,1.8,0.6c0.5,0.1,1.1,0.2,1.6,0.1c0.3,1.2,0.7,2.3,1.3,3.4c0.6,1.3,1.4,2.9,2.5,3.8
					c1.1,0.9,2.5,0.9,3.8,0.6c1.1-0.3,3.6,0.4,4-0.6C168.1,621.7,167.2,620.4,166.3,619.3z"/>
				<g>
					<path class="st30" d="M152.8,611.7c0.4,0.1,0.8,0.2,1.2,0.2c0.3,0.1,0.7,0.2,1.1,0.1c0.1,0-3.1-0.8-3.7-0.9
						c-0.5-0.1-1.1-0.3-1.6-0.6c0,0,0,0,0,0c0,0.1,0,0.1,0,0.2c0.4,0.2,0.8,0.4,1.3,0.5C151.6,611.4,152.2,611.6,152.8,611.7z"/>
					<path class="st30" d="M152.6,613c-0.5-0.1-1.1-0.3-1.5-0.6c0,0.1,0,0.1,0,0.2c0.4,0.3,0.9,0.5,1.4,0.6c0.3,0.1,0.7,0.2,1,0.3
						c0.2,0,0.3,0.1,0.5,0.1c0.1,0,0.3,0.1,0.4,0C154.5,613.4,152.9,613,152.6,613z"/>
				</g>
				<path class="st29" d="M160.2,586c-0.6-1.7-1.4-3.3-3.1-4c-0.6-0.3-1.3-0.4-2-0.4c-0.7-0.1-1.5-0.1-2.2,0
					c-0.5,0.1-1.1,0.2-1.6,0.3c-1.8,0.6-3.1,2.1-3.6,3.7c-0.3,1-0.3,2-0.2,3.1c0,0.7,0,1.3,0.1,2c0,0.1,0,0.2,0,0.3
					c0.2,0.4,1,1,1,1.5l0.1-0.1c0.5-1.6-0.1-2.6,0.2-4.2c0.1-0.4,0.2-0.9,0.7-1c0.2-0.1,0.3-0.1,0.5,0c0.8,0.1,1.1,0.3,1.9,0.5
					c1.1,0.3,2.3,0.4,3.4,0.1c0.9-0.2,1.7-0.7,2.6-0.7c0.3,0,0.6,0.1,0.7,0.3c0.1,0.1,0.1,0.2,0.1,0.4c0.3,1.6,0.2,2.7,0.8,4.3
					c0.7-0.7,0.7-2,0.7-3C160.5,587.9,160.5,586.9,160.2,586z"/>
			</g>
		</g>
	</g>
	<g>
		<g>
			<path class="st36" d="M194.7,626.7c-4.9,0-8.9-4-8.9-8.9c0-4.9,4-8.9,8.9-8.9c4.9,0,8.9,4,8.9,8.9
				C203.6,622.7,199.6,626.7,194.7,626.7z M194.7,609.9c-4.4,0-7.9,3.6-7.9,7.9c0,4.4,3.6,7.9,7.9,7.9c4.4,0,7.9-3.6,7.9-7.9
				C202.6,613.5,199.1,609.9,194.7,609.9z"/>
		</g>
		<g>
			<g>
				<path class="st36" d="M199.8,614.6c-0.3,0.1-0.7,0.2-1,0.3c0.2,0,0.4-0.3,0.5-0.5c0.2-0.2,0.3-0.4,0.3-0.6c0,0,0,0,0-0.1
					c0,0,0,0-0.1,0c-0.4,0.2-0.8,0.4-1.2,0.5c0,0-0.1,0-0.1,0c0,0-0.1-0.1-0.1-0.1c-0.2-0.2-0.4-0.3-0.6-0.4
					c-0.3-0.1-0.6-0.2-0.9-0.1c-0.3,0-0.6,0.1-0.9,0.2c-0.3,0.1-0.5,0.3-0.7,0.6c-0.2,0.2-0.3,0.5-0.4,0.8c-0.1,0.3-0.1,0.6,0,0.9
					c0,0,0,0.1,0,0c-1.7-0.3-3.1-0.9-4.3-2.2c0-0.1-0.1-0.1-0.1,0c-0.5,0.8-0.3,2,0.4,2.6c0.1,0.1,0.2,0.2,0.3,0.2
					c0,0-0.5,0-0.8-0.2c0,0-0.1,0-0.1,0c0,0.1,0,0.2,0,0.2c0.1,0.8,0.6,1.5,1.3,1.7c0.1,0,0.2,0.1,0.3,0.1c-0.2,0-0.3,0.1-0.8,0
					c-0.1,0-0.1,0-0.1,0.1c0.4,1,1.1,1.3,1.7,1.4c0.1,0,0.2,0,0.2,0c0,0,0,0,0,0c-0.2,0.3-0.9,0.5-1.2,0.6c-0.6,0.2-1.2,0.3-1.8,0.2
					c-0.1,0-0.1,0-0.1,0c0,0,0,0,0,0.1c0.1,0.1,0.2,0.1,0.4,0.2c0.4,0.2,0.8,0.4,1.2,0.5c2.1,0.6,4.5,0.2,6.1-1.4
					c1.2-1.2,1.7-2.9,1.7-4.7c0-0.1,0.1-0.1,0.1-0.1c0.3-0.2,0.6-0.5,0.8-0.9C199.8,614.7,199.8,614.6,199.8,614.6
					C199.8,614.6,199.8,614.6,199.8,614.6C199.8,614.6,199.8,614.6,199.8,614.6z"/>
			</g>
			<g>
				<path class="st37" d="M192.6,622.1C192.5,622.1,192.4,622.1,192.6,622.1C192.6,622.1,192.5,622.1,192.6,622.1z"/>
			</g>
			<g>
				<path class="st37" d="M192.9,622.1C192.9,622.1,193.1,622.1,192.9,622.1C192.9,622.1,192.9,622.1,192.9,622.1z"/>
			</g>
			<g>
				<path class="st37" d="M196.6,613.6C196.6,613.6,196.5,613.6,196.6,613.6C196.5,613.6,196.6,613.6,196.6,613.6z"/>
			</g>
		</g>
	</g>
	<g>
		<g>
			<path class="st36" d="M208.7,650.5c-4.9,0-8.9-4-8.9-8.9c0-4.9,4-8.9,8.9-8.9c4.9,0,8.9,4,8.9,8.9
				C217.6,646.5,213.6,650.5,208.7,650.5z M208.7,633.7c-4.4,0-7.9,3.6-7.9,7.9c0,4.4,3.6,7.9,7.9,7.9c4.4,0,7.9-3.6,7.9-7.9
				C216.6,637.3,213.1,633.7,208.7,633.7z"/>
		</g>
		<g>
			<path class="st37" d="M207.3,641.7v5.1c0,0.1,0.1,0.1,0.1,0.1h1.9c0.1,0,0.1-0.1,0.1-0.1v-5.2h1.4c0.1,0,0.1-0.1,0.1-0.1l0.1-1.6
				c0-0.1-0.1-0.1-0.1-0.1h-1.5v-1.1c0-0.3,0.2-0.5,0.5-0.5h1.1c0.1,0,0.1-0.1,0.1-0.1v-1.6c0-0.1-0.1-0.1-0.1-0.1h-1.8
				c-1.1,0-1.9,0.9-1.9,1.9v1.5h-1c-0.1,0-0.1,0.1-0.1,0.1v1.6c0,0.1,0.1,0.1,0.1,0.1L207.3,641.7L207.3,641.7z"/>
		</g>
	</g>
	<g>
		<g>
			<path class="st36" d="M166,722.7c-4.9,0-8.9-4-8.9-8.9s4-8.9,8.9-8.9c4.9,0,8.9,4,8.9,8.9S170.9,722.7,166,722.7z M166,705.9
				c-4.4,0-7.9,3.6-7.9,7.9c0,4.4,3.6,7.9,7.9,7.9c4.4,0,7.9-3.6,7.9-7.9C173.9,709.5,170.3,705.9,166,705.9z"/>
		</g>
		<g>
			<g>
				<path class="st37" d="M166.4,708.1c-3,0-5.4,2.4-5.4,5.4c0,1,0.3,2,0.9,2.9l-0.8,1.8c-0.1,0.2,0,0.4,0.1,0.5
					c0.1,0.1,0.2,0.2,0.4,0.2c0,0,0.1,0,0.1,0l2.2-0.6c0.8,0.4,1.6,0.6,2.5,0.6c3,0,5.4-2.4,5.4-5.4
					C171.8,710.5,169.4,708.1,166.4,708.1z M166.4,717.9c-0.8,0-1.6-0.2-2.2-0.6c-0.1,0-0.2-0.1-0.2-0.1c0,0-0.1,0-0.1,0l-1.5,0.4
					l0.5-1.1c0.1-0.2,0.1-0.3,0-0.5c-0.5-0.8-0.8-1.7-0.8-2.6c0-2.4,2-4.4,4.4-4.4c2.4,0,4.4,2,4.4,4.4S168.8,717.9,166.4,717.9z"/>
			</g>
			<g>
				<path class="st37" d="M168.5,714.2c-0.2-0.1-0.5-0.3-0.8-0.2c-0.2,0.1-0.3,0.4-0.5,0.6c-0.1,0.1-0.1,0.1-0.3,0.1
					c-0.8-0.3-1.3-0.8-1.8-1.5c-0.1-0.1-0.1-0.2,0-0.3c0.1-0.1,0.3-0.3,0.3-0.5c0-0.2-0.1-0.4-0.1-0.6c-0.1-0.2-0.2-0.6-0.5-0.7
					c-0.2-0.1-0.5-0.1-0.7,0.1c-0.3,0.3-0.5,0.7-0.5,1.1c0,0.1,0,0.2,0,0.3c0.1,0.3,0.2,0.5,0.3,0.8c0.1,0.2,0.2,0.4,0.3,0.5
					c0.4,0.6,0.9,1,1.5,1.4c0.3,0.2,0.6,0.3,0.9,0.4c0.4,0.1,0.7,0.2,1.1,0.2c0.4-0.1,0.8-0.3,1-0.7c0-0.1,0.1-0.3,0-0.4
					C169,714.5,168.7,714.4,168.5,714.2z"/>
			</g>
		</g>
	</g>
	<g>
		<path class="st36" d="M132.3,721.8c-4.9,0-8.8-4-8.8-8.8s4-8.8,8.8-8.8c4.9,0,8.8,4,8.8,8.8S137.1,721.8,132.3,721.8z M132.3,705
			c-4.4,0-8,3.6-8,8s3.6,8,8,8s8-3.6,8-8S136.7,705,132.3,705z M135.2,709.4c-0.4,0-0.7,0.3-0.7,0.7c0,0.4,0.3,0.7,0.7,0.7
			s0.7-0.3,0.7-0.7C135.9,709.7,135.6,709.4,135.2,709.4z M132.3,710.3c-1.5,0-2.7,1.2-2.7,2.7c0,1.5,1.2,2.7,2.7,2.7
			c1.5,0,2.7-1.2,2.7-2.7C135.1,711.5,133.8,710.3,132.3,710.3z M132.3,714.8c-1,0-1.8-0.8-1.8-1.8s0.8-1.8,1.8-1.8
			c1,0,1.8,0.8,1.8,1.8S133.3,714.8,132.3,714.8z M137.9,710.7c0-1.8-1.5-3.3-3.3-3.3h-4.4c-1.8,0-3.3,1.5-3.3,3.3v4.4
			c0,1.8,1.5,3.3,3.3,3.3h4.4c1.8,0,3.3-1.5,3.3-3.3V710.7z M136.8,715.1c0,1.3-1,2.3-2.3,2.3h-4.4c-1.3,0-2.3-1-2.3-2.3v-4.4
			c0-1.3,1-2.3,2.3-2.3h4.4c1.3,0,2.3,1,2.3,2.3V715.1z"/>
	</g>
	<g>
		<path class="st36" d="M117.5,607.3c-0.7-0.6-1.7-1-2.7-1c-1,0-2,0.4-2.7,1c-0.7,0.7-1.1,1.5-1.1,2.5c0,1.1,0.6,2.1,1.5,2.7
			l-0.2,0.8c0,0.1,0,0.3,0.1,0.3c0.1,0,0.1,0.1,0.2,0.1c0.1,0,0.1,0,0.2,0l1-0.6c0.2,0.1,0.5,0.1,0.8,0.1c-0.1-0.2-0.1-0.5-0.1-0.8
			c0-0.5,0.1-1,0.3-1.4c0.2-0.4,0.5-0.8,0.9-1.2c0.7-0.7,1.7-1,2.8-1c0.1,0,0.1,0,0.2,0C118.4,608.2,118,607.7,117.5,607.3
			L117.5,607.3z M113.8,608.8c-0.1,0.1-0.1,0.1-0.2,0.1c-0.1,0-0.2,0-0.2-0.1c-0.1-0.1-0.1-0.1-0.1-0.2c0-0.1,0-0.2,0.1-0.2
			s0.1-0.1,0.2-0.1c0.1,0,0.2,0,0.2,0.1c0.1,0.1,0.1,0.1,0.1,0.2C113.9,608.7,113.8,608.8,113.8,608.8L113.8,608.8z M115.8,608.8
			c-0.1,0.1-0.1,0.1-0.2,0.1c-0.1,0-0.2,0-0.2-0.1c-0.1-0.1-0.1-0.1-0.1-0.2c0-0.1,0-0.2,0.1-0.2c0.1-0.1,0.1-0.1,0.2-0.1
			c0.1,0,0.2,0,0.2,0.1c0.1,0.1,0.1,0.1,0.1,0.2C115.9,608.7,115.9,608.8,115.8,608.8L115.8,608.8z M115.8,608.8"/>
		<path class="st36" d="M121.7,612.4c0-1.7-1.5-3-3.3-3c-1.8,0-3.3,1.3-3.3,3c0,1.7,1.5,3,3.3,3c0.4,0,0.8-0.1,1.2-0.2l0.8,0.3
			c0,0,0.1,0,0.1,0c0.1,0,0.2,0,0.2-0.1c0.1-0.1,0.1-0.2,0.1-0.3l-0.2-0.5C121.3,614.1,121.7,613.3,121.7,612.4L121.7,612.4z
			 M117.4,611.9c-0.1,0.1-0.1,0.1-0.2,0.1c-0.1,0-0.2,0-0.2-0.1c-0.1-0.1-0.1-0.1-0.1-0.2c0-0.1,0-0.2,0.1-0.2
			c0.1-0.1,0.1-0.1,0.2-0.1c0.1,0,0.2,0,0.2,0.1c0.1,0.1,0.1,0.1,0.1,0.2C117.5,611.7,117.5,611.8,117.4,611.9L117.4,611.9z
			 M119.6,611.9c-0.1,0.1-0.1,0.1-0.2,0.1c-0.1,0-0.2,0-0.2-0.1c-0.1-0.1-0.1-0.1-0.1-0.2c0-0.1,0-0.2,0.1-0.2
			c0.1-0.1,0.1-0.1,0.2-0.1c0.1,0,0.2,0,0.2,0.1c0.1,0.1,0.1,0.1,0.1,0.2C119.7,611.7,119.7,611.8,119.6,611.9L119.6,611.9z
			 M119.6,611.9"/>
	</g>
	<g>
		<path class="st36" d="M116.5,619.9c-4.9,0-8.9-4-8.9-8.9c0-4.9,4-8.9,8.9-8.9c4.9,0,8.9,4,8.9,8.9
			C125.4,615.9,121.4,619.9,116.5,619.9z M116.5,603.1c-4.4,0-7.9,3.6-7.9,7.9c0,4.4,3.6,7.9,7.9,7.9c4.4,0,7.9-3.6,7.9-7.9
			C124.4,606.7,120.9,603.1,116.5,603.1z"/>
	</g>
	<g>
		<path class="st36" d="M98.3,627.4c-3.1,0-5.6,2.1-5.6,4.7c0,2.5,2.2,4.5,5.1,4.7c0.2,0,0.4-0.1,0.4-0.3c0-0.2-0.1-0.4-0.3-0.4
			c-2.5-0.1-4.4-1.8-4.4-4c0-2.2,2.2-4,4.9-4s4.9,1.8,4.9,4c0,2-2.6,4.3-5.2,5.4c-0.2,0.1-0.3,0.3-0.2,0.5c0.1,0.1,0.2,0.2,0.3,0.2
			c0,0,0.1,0,0.1,0c1.4-0.6,2.7-1.5,3.7-2.5c1.2-1.2,1.9-2.4,1.9-3.6C104,629.5,101.4,627.4,98.3,627.4L98.3,627.4z M98.3,627.4"/>
		<path class="st36" d="M95.5,630.9c-0.1-0.1-0.1-0.1-0.2-0.1c-0.1,0-0.2,0-0.2,0.1c-0.1,0.1-0.1,0.2-0.1,0.3v1.9
			c0,0.1,0,0.2,0.1,0.3c0.1,0.1,0.1,0.1,0.3,0.1h1c0.1,0,0.2,0,0.2-0.1c0.1-0.1,0.1-0.1,0.1-0.2c0-0.1,0-0.2-0.1-0.2
			c-0.1-0.1-0.1-0.1-0.2-0.1h-0.8v-1.7C95.6,631.1,95.6,631,95.5,630.9L95.5,630.9z M95.5,630.9"/>
		<path class="st36" d="M97.2,630.8c-0.1,0-0.2,0-0.2,0.1c-0.1,0.1-0.1,0.2-0.1,0.3v1.9c0,0.1,0,0.2,0.1,0.3
			c0.1,0.1,0.1,0.1,0.2,0.1c0.1,0,0.2,0,0.2-0.1c0.1-0.1,0.1-0.2,0.1-0.3v-1.9c0-0.1,0-0.2-0.1-0.3
			C97.3,630.8,97.2,630.8,97.2,630.8L97.2,630.8z M97.2,630.8"/>
		<path class="st36" d="M98.4,632.1l0.6,1.1c0,0,0,0,0,0c0,0,0,0,0,0.1l0,0c0,0,0.1,0.1,0.1,0.1c0,0,0.1,0.1,0.1,0.1
			c0,0,0.1,0,0.1,0c0.1,0,0.3-0.1,0.3-0.4v-1.9c0-0.1,0-0.2-0.1-0.3c-0.1-0.1-0.1-0.1-0.2-0.1c-0.1,0-0.2,0-0.2,0.1
			c0,0.1-0.1,0.2-0.1,0.3v1.1l-0.6-1.1l0-0.1l0-0.1c0,0-0.1-0.1-0.1-0.1c0,0-0.1-0.1-0.1-0.1c0,0-0.1,0-0.1,0c-0.1,0-0.1,0-0.2,0.1
			c-0.1,0-0.1,0.1-0.1,0.2c0,0,0,0,0,0c0,0.1,0,0.1,0,0.2v1.9c0,0.1,0,0.2,0.1,0.3c0,0,0,0,0,0c0.1,0.1,0.1,0.1,0.2,0.1
			c0.1,0,0.2,0,0.2-0.1c0-0.1,0.1-0.2,0.1-0.3V632.1z M98.4,632.1"/>
		<path class="st36" d="M101.5,631.4c0.1,0,0.2,0,0.2-0.1c0-0.1,0.1-0.1,0.1-0.2c0-0.1,0-0.2-0.1-0.2c-0.1-0.1-0.1-0.1-0.2-0.1h-1.1
			c-0.1,0-0.1,0-0.2,0c-0.1,0-0.1,0.1-0.1,0.1c0,0.1,0,0.1,0,0.2v1.8c0,0.1,0,0.2,0.1,0.3c0.1,0.1,0.1,0.1,0.3,0.1h1.1
			c0.1,0,0.2,0,0.2-0.1c0.1-0.1,0.1-0.1,0.1-0.2c0-0.1,0-0.2-0.1-0.2c-0.1-0.1-0.1-0.1-0.2-0.1h-0.9v-0.5h0.8c0.1,0,0.2,0,0.2-0.1
			c0-0.1,0.1-0.1,0.1-0.2c0-0.1,0-0.1-0.1-0.2c0-0.1-0.1-0.1-0.2-0.1h-0.8v-0.4L101.5,631.4L101.5,631.4z M101.5,631.4"/>
	</g>
	<g>
		<path class="st36" d="M98.2,641.6c-4.9,0-8.9-4-8.9-8.9c0-4.9,4-8.9,8.9-8.9c4.9,0,8.9,4,8.9,8.9C107,637.6,103,641.6,98.2,641.6z
			 M98.2,624.8c-4.4,0-7.9,3.6-7.9,7.9c0,4.4,3.6,7.9,7.9,7.9c4.4,0,7.9-3.6,7.9-7.9C106.1,628.4,102.5,624.8,98.2,624.8z"/>
	</g>
	<g>
		<path class="st22" d="M141.2,656.4c-0.8,0.8-0.8,2.1,0,2.9c0.8,0.8,2.1,0.8,2.9,0c5.4-5.4,14.3-5.4,19.7,0
			c0.4,0.4,0.9,0.6,1.4,0.6c0.5,0,1-0.2,1.4-0.6c0.8-0.8,0.8-2.1,0-2.9C159.6,649.4,148.2,649.4,141.2,656.4L141.2,656.4z
			 M141.2,656.4"/>
		<path class="st22" d="M146.7,661.9c-0.8,0.8-0.8,2.1,0,2.9c0.8,0.8,2.1,0.8,2.9,0c2.4-2.4,6.4-2.4,8.8,0c0.4,0.4,0.9,0.6,1.4,0.6
			c0.5,0,1-0.2,1.4-0.6c0.8-0.8,0.8-2.1,0-2.9C157.2,657.8,150.7,657.8,146.7,661.9L146.7,661.9z M146.7,661.9"/>
		<path class="st22" d="M156.6,669.1c0,1.5-1.2,2.7-2.7,2.7c-1.5,0-2.7-1.2-2.7-2.7c0-1.5,1.2-2.7,2.7-2.7
			C155.4,666.4,156.6,667.6,156.6,669.1L156.6,669.1z M156.6,669.1"/>
		<path class="st22" d="M172.2,650.8c-10.1-10.1-26.5-10.1-36.5,0c-0.8,0.8-0.8,2.1,0,2.9c0.8,0.8,2.1,0.8,2.9,0
			c8.5-8.5,22.3-8.5,30.8,0c0.4,0.4,0.9,0.6,1.4,0.6c0.5,0,1-0.2,1.4-0.6C173,652.9,173,651.6,172.2,650.8L172.2,650.8z
			 M172.2,650.8"/>
	</g>
	<polyline class="st2" points="102.4,619.8 106.7,619.3 107.1,623.3 	"/>
	<polygon class="st2" points="199.8,629 204.8,626.3 203.7,630 	"/>
	<polyline class="st2" points="150,719.3 147.3,716 150.4,713.5 	"/>
</g>
<g>
	<g>
		<path class="st14" d="M84.1,758.6c-0.3,1.4-0.8,2.8-1.5,4c0.3,0.2,0.7,0.4,1.2,0.8c1.1,0.6,2.5,0.7,4.4,0.7c2,0,4.5-0.1,6.3-0.3
			c-0.2,0.3-0.3,0.9-0.4,1.2c-1.1,0.1-4.1,0.2-6,0.2c-2,0-3.4-0.2-4.6-0.8c-0.6-0.4-1.2-0.9-1.5-0.9c-0.4,0-0.9,1-1.4,1.9l-0.8-1.1
			c0.5-0.7,0.9-1.2,1.4-1.6l0,0c0.7-0.9,1.3-2.2,1.6-3.4h-2.3c0.5-0.9,1-2.2,1.5-3.5h-2v-1h3.6c-0.4,1.1-1,2.4-1.5,3.5h1.1l0.2,0
			L84.1,758.6z M82.2,754c-0.3-0.7-0.8-1.7-1.2-2.6l1-0.4c0.4,0.8,1,1.8,1.2,2.5L82.2,754z M88.6,755.3c-1.1,1.2-2.7,2.3-4.1,2.9
			c-0.1-0.3-0.5-0.7-0.7-0.8c1.4-0.5,3-1.5,4.1-2.6h-3.6v-0.9h4.4v-1.2c-1.2,0.1-2.5,0.2-3.7,0.2c0-0.2-0.2-0.6-0.3-0.8
			c2.8-0.1,6.2-0.4,8-0.8l0.7,0.8c-1,0.2-2.3,0.4-3.7,0.5v1.3h4.4v0.9h-3.7c1,1.1,2.6,2,4,2.5c-0.2,0.2-0.5,0.6-0.7,0.9
			c-1.4-0.6-3-1.7-4-2.9v2.1h-1.1V755.3z M93.6,759.2c0,0,0,0.3,0,0.4c-0.2,1.8-0.4,2.6-0.7,2.9c-0.2,0.2-0.5,0.3-0.9,0.3
			c-0.4,0-1.1,0-1.9,0c0-0.3-0.1-0.7-0.3-0.9c0.7,0.1,1.5,0.1,1.7,0.1c0.3,0,0.4,0,0.5-0.1c0.2-0.2,0.3-0.7,0.5-1.9h-2.6
			c0.1-0.4,0.3-0.9,0.4-1.4h-1.9c-0.3,2.1-1.1,3.6-3.5,4.4c-0.1-0.3-0.4-0.7-0.6-0.9c2.1-0.7,2.8-1.9,3.1-3.6h-1.8v-0.9h6
			c-0.1,0.5-0.2,1-0.3,1.4H93.6z"/>
		<path class="st14" d="M99.5,758.5c-0.3,1.4-0.7,2.9-1.3,4c0.3,0.2,0.7,0.5,1.2,0.8c1.1,0.7,2.5,0.8,4.4,0.8c2,0,4.5-0.2,6.3-0.3
			c-0.2,0.3-0.3,0.9-0.4,1.2c-1.2,0.1-4.1,0.2-6,0.2c-2,0-3.4-0.2-4.6-0.9c-0.6-0.4-1.2-0.9-1.5-0.9c-0.4,0-0.9,1-1.3,2l-0.8-1
			c0.6-0.8,1.1-1.4,1.6-1.7c0.5-0.9,0.9-2.1,1.1-3.2h-2c0.4-0.9,0.9-2.2,1.3-3.5h-1.7v-1h3.2c-0.4,1.1-0.9,2.4-1.3,3.5h1.1l0.2,0
			L99.5,758.5z M97.3,754c-0.2-0.7-0.5-1.7-0.8-2.6l1-0.3c0.3,0.8,0.6,1.8,0.8,2.5L97.3,754z M101.3,763.1h-1v-6.7h1.2v-4.8h6.4v4.8
			h1.2v5.6c0,0.5-0.1,0.8-0.5,1c-0.4,0.2-1,0.2-1.9,0.2c0-0.3-0.2-0.7-0.3-0.9c0.7,0,1.2,0,1.4,0c0.2,0,0.3-0.1,0.3-0.2v-4.7h-6.7
			V763.1z M102.5,756.4h1.5v-2.6h2.8v-1.3h-4.3V756.4z M106.7,761.6h-3.1v0.6h-0.9v-3.9h4V761.6z M105.8,759.1h-2.2v1.7h2.2V759.1z
			 M106.9,756.4v-1.8h-1.9v1.8H106.9z"/>
		<path class="st14" d="M111.3,762.6l0.9-1c0.8,0.9,2,1.4,3.2,1.4c1.5,0,2.4-0.7,2.4-1.9c0-1.2-0.8-1.5-1.9-2l-1.7-0.7
			c-1.1-0.5-2.3-1.3-2.3-2.9c0-1.8,1.5-3,3.6-3c1.4,0,2.6,0.6,3.4,1.4l-0.8,0.9c-0.7-0.7-1.5-1.1-2.6-1.1c-1.3,0-2.1,0.7-2.1,1.7
			c0,1.1,1,1.5,1.9,1.9l1.6,0.7c1.3,0.6,2.4,1.4,2.4,3.1c0,1.8-1.5,3.2-3.9,3.2C113.7,764.3,112.3,763.6,111.3,762.6z"/>
		<path class="st14" d="M121.5,752.6h1.7l2.2,6.1c0.3,0.8,0.5,1.6,0.8,2.4h0.1c0.3-0.8,0.5-1.6,0.8-2.4l2.2-6.1h1.7v11.4h-1.4v-6.3
			c0-1,0.1-2.4,0.2-3.4h-0.1l-0.9,2.6l-2.2,6h-1l-2.2-6l-0.9-2.6h-0.1c0.1,1,0.2,2.4,0.2,3.4v6.3h-1.3V752.6z"/>
		<path class="st14" d="M133.3,762.6l0.9-1c0.8,0.9,2,1.4,3.2,1.4c1.5,0,2.4-0.7,2.4-1.9c0-1.2-0.8-1.5-1.9-2l-1.7-0.7
			c-1.1-0.5-2.3-1.3-2.3-2.9c0-1.8,1.5-3,3.6-3c1.4,0,2.6,0.6,3.4,1.4l-0.8,0.9c-0.7-0.7-1.5-1.1-2.6-1.1c-1.3,0-2.1,0.7-2.1,1.7
			c0,1.1,1,1.5,1.9,1.9l1.6,0.7c1.3,0.6,2.4,1.4,2.4,3.1c0,1.8-1.5,3.2-3.9,3.2C135.7,764.3,134.3,763.6,133.3,762.6z"/>
		<path class="st14" d="M144.2,761.2c-0.2,1.4-0.5,2.8-0.8,3.8c-0.2-0.1-0.6-0.3-0.9-0.3c0.3-1,0.6-2.3,0.7-3.6L144.2,761.2z
			 M147.3,757c0.4,1,0.9,2.2,1,3l-0.9,0.3c0-0.2-0.1-0.5-0.2-0.7c-3.5,0.5-4,0.7-4.2,0.8c0-0.2-0.2-0.7-0.3-1c0.3-0.1,0.7-0.5,1.1-1
			c0.2-0.3,0.7-1,1.3-1.8c-1.6,0.2-2,0.3-2.2,0.4c-0.1-0.2-0.2-0.7-0.3-1c0.2-0.1,0.5-0.4,0.8-0.9c0.3-0.5,1.4-2.2,2-3.9l1,0.4
			c-0.7,1.5-1.5,3-2.4,4.2l1.6-0.2c0.4-0.7,0.8-1.4,1.1-2.2l0.9,0.5c-1,1.8-2.2,3.7-3.4,5.2l2.7-0.4c-0.2-0.5-0.4-1-0.5-1.5
			L147.3,757z M145.7,761c0.2,1,0.4,2.4,0.4,3.3l-0.9,0.2c0-0.9-0.2-2.3-0.4-3.3L145.7,761z M147.3,760.5c0.4,1,0.8,2.2,0.9,3
			l-0.8,0.3c-0.2-0.8-0.5-2.1-0.9-3L147.3,760.5z M156.5,764c0,0.6-0.1,0.9-0.5,1.1c-0.4,0.2-1,0.2-2,0.2c0-0.3-0.2-0.7-0.3-1
			c0.7,0,1.3,0,1.5,0c0.2,0,0.3-0.1,0.3-0.3v-11.2h-5.8v12.5h-1v-13.5h7.9V764z M154,761.4c0.2,0,0.7,0,0.9-0.1
			c0,0.3,0.1,0.6,0.1,0.9c-0.2,0.1-0.6,0.1-1,0.1h-2c-1,0-1.3-0.4-1.3-1.4v-1.5h-0.6v-0.9h2.1c-0.1-0.4-0.4-1-0.6-1.4l0.7-0.3H150
			v-0.9h3c0.3-0.7,0.6-1.8,0.7-2.6l0.8,0.3c-0.2,0.8-0.5,1.7-0.8,2.3h1.3v0.9h-2.6c0.3,0.5,0.5,1.1,0.7,1.4l-0.6,0.2h2.3v0.9h-3.2
			v1.5c0,0.4,0,0.5,0.4,0.5H154z M151.2,753.2c0.4,0.7,0.7,1.6,0.8,2.2l-0.7,0.3c-0.1-0.6-0.4-1.5-0.8-2.2L151.2,753.2z"/>
		<path class="st14" d="M162.8,760.5c0-0.3-0.1-0.6-0.2-0.9c-3.2,0.5-3.7,0.6-4,0.8c-0.1-0.2-0.2-0.8-0.4-1.1c0.3,0,0.7-0.4,1.2-1
			c0.2-0.3,0.8-0.9,1.3-1.8c-1.7,0.2-2,0.3-2.2,0.4c-0.1-0.2-0.2-0.7-0.4-1c0.2-0.1,0.5-0.4,0.9-0.8c0.3-0.5,1.5-2.2,2.1-3.9
			l1.1,0.5c-0.7,1.5-1.6,3-2.5,4.2l1.7-0.1c0.4-0.7,0.8-1.4,1.2-2.1l1,0.6c-1,1.8-2.3,3.6-3.5,5l2.3-0.3c-0.1-0.5-0.3-1-0.5-1.5
			l0.9-0.2c0.4,1,0.8,2.4,1,3.2L162.8,760.5z M159.9,761.2c-0.2,1.4-0.5,2.8-0.8,3.8c-0.2-0.1-0.7-0.3-0.9-0.4
			c0.4-1,0.6-2.3,0.7-3.6L159.9,761.2z M161.5,761c0.2,1.1,0.4,2.4,0.4,3.4l-0.9,0.2c0-0.9-0.2-2.3-0.4-3.4L161.5,761z M163,760.6
			c0.4,0.9,0.7,2.1,0.9,2.9l-0.9,0.3c-0.1-0.8-0.5-2-0.8-2.9L163,760.6z M171.8,753c-0.6,1.5-1.5,2.8-2.6,4c1,0.8,2.2,1.6,3.5,2.1
			c-0.2,0.2-0.6,0.7-0.7,1c-0.1,0-0.2-0.1-0.3-0.2v5.3h-1.1v-0.5h-4.3v0.5H165V760c-0.2,0.1-0.3,0.2-0.5,0.2
			c-0.1-0.3-0.4-0.7-0.7-0.9c1.3-0.5,2.7-1.3,3.8-2.3c-0.7-0.7-1.2-1.5-1.6-2.2c-0.5,0.6-1,1.1-1.5,1.5c-0.2-0.2-0.6-0.6-0.9-0.8
			c1.4-1.1,2.7-2.7,3.4-4.5l1.1,0.3c-0.2,0.5-0.4,1-0.7,1.4h3.4l0.2-0.1L171.8,753z M171,759.6c-1-0.5-1.9-1.2-2.6-1.9
			c-0.8,0.7-1.7,1.4-2.7,1.9H171z M170.5,763.7v-3h-4.3v3H170.5z M166.7,753.9c0.4,0.8,1,1.6,1.7,2.3c0.7-0.8,1.4-1.6,1.9-2.6h-3.4
			L166.7,753.9z"/>
		<path class="st14" d="M179.1,760.5c-0.3-0.5-1-1.3-1.6-1.9v6.7h-1.1v-6.4c-0.7,0.7-1.4,1.3-2.2,1.8c-0.1-0.3-0.4-0.9-0.5-1.1
			c1.7-1,3.5-2.9,4.5-4.8H174v-1.1h4.7l0.2,0l0.6,0.5c-0.5,1.2-1.2,2.3-2,3.3c0.6,0.6,1.8,1.8,2.2,2.2L179.1,760.5z M177.1,753.6
			c-0.3-0.6-0.9-1.5-1.5-2.1l0.9-0.5c0.6,0.6,1.2,1.5,1.5,2L177.1,753.6z M188.1,763.5v1.1h-8.9v-1.1h4.1V757h-3.4v-1.1h3.4V751h1.2
			v4.9h3.3v1.1h-3.3v6.5H188.1z"/>
		<path class="st14" d="M196.1,759.5v4.9h-4v0.8h-1.1V761c-0.3,0.5-0.7,1-1.1,1.4c-0.1-0.2-0.5-0.7-0.7-0.8c1-0.9,1.7-2.2,2.1-3.7
			h-1.1v-1h1.4c0.1-0.5,0.2-1,0.3-1.5h-2.4v-1h2.5c0-0.5,0.1-1,0.1-1.6h-1.9v-1h5.6v2.6h0.9v1h-0.9v2.5h-3.5
			c-0.2,0.6-0.3,1.1-0.5,1.6H196.1z M192.2,760.5v2.9h2.8v-2.9H192.2z M192.9,755.4c-0.1,0.5-0.2,1-0.3,1.5h2.1v-1.5H192.9z
			 M193.2,752.8c0,0.5-0.1,1.1-0.2,1.6h1.7v-1.6H193.2z M203.8,761.7h-3v3.7h-1.1v-3.7h-2.9v-1.1h2.9v-2.3h-2.3v-1.1h2.3v-2.1H197
			v-1.1h6.4v1.1h-2.7v2.1h2.4v1.1h-2.4v2.3h3V761.7z M198.3,754c-0.1-0.7-0.6-1.8-1.1-2.6l0.9-0.3c0.5,0.8,1,1.8,1.1,2.5L198.3,754z
			 M203.1,751.3c-0.4,0.9-0.9,2-1.3,2.7l-1-0.2c0.4-0.7,0.9-1.9,1.1-2.7L203.1,751.3z"/>
		<path class="st14" d="M207.4,753.2c-0.5,0.7-1,1.4-1.5,1.9c-0.2-0.2-0.6-0.6-0.8-0.8c1-0.8,1.9-2.1,2.4-3.3l1,0.3
			c-0.1,0.3-0.3,0.6-0.4,0.9h4v1h-2.9c0.5,0.5,1.2,1,1.5,1.4l-0.8,0.7c-0.3-0.5-1-1.2-1.6-1.6l0.6-0.5H207.4z M215.9,760.5h3.1v1
			h-3.1v2.6c0,0.7-0.2,0.9-0.7,1.1c-0.5,0.2-1.4,0.2-2.8,0.2c0-0.3-0.2-0.7-0.3-1c1,0,2,0,2.3,0c0.3,0,0.3-0.1,0.3-0.3v-2.6h-9.4v-1
			h9.4v-1.1h1.2V760.5z M219.3,752.2v1h-3.4c0.5,0.5,1.1,1.1,1.5,1.5l-0.8,0.7c-0.3-0.5-0.9-1.2-1.5-1.7l0.7-0.5h-1.5
			c-0.4,0.7-0.9,1.4-1.3,1.9l-0.1-0.1v0.7h5.7v1h-5.7v1.4h4.8v0.9h-10.9v-0.9h4.9v-1.4h-5.7v-1h5.7v-1h0.9c-0.2-0.1-0.3-0.2-0.5-0.3
			c0.9-0.8,1.5-2.1,1.9-3.4l1.1,0.2c-0.1,0.3-0.2,0.7-0.4,1H219.3z M208.7,761.6c0.9,0.7,2.1,1.7,2.7,2.3l-0.9,0.7
			c-0.6-0.6-1.7-1.7-2.6-2.4L208.7,761.6z"/>
		<path class="st14" d="M123.7,770.2c-0.4,1.2-1,2.3-1.6,3.4V784H121v-8.8c-0.5,0.7-1,1.4-1.6,1.9c-0.1-0.3-0.4-0.9-0.7-1.1
			c1.5-1.5,3-3.8,3.9-6.2L123.7,770.2z M131.2,779.6h2.2v0.9h-2.2v2.2c0,0.6-0.1,0.9-0.6,1.1c-0.5,0.2-1.2,0.2-2.4,0.2
			c-0.1-0.3-0.2-0.7-0.4-1c1,0,1.8,0,2,0c0.2,0,0.3-0.1,0.3-0.3v-2.2H123v-0.9h7.1v-1c-2.5,0.1-4.9,0.2-6.7,0.2l-0.1-0.9
			c1.2,0,2.7,0,4.4,0v-1h-3.7v-4.1h3.7v-0.9h-4.3V771h4.3v-1.1h1.1v1.1h4.4v0.9h-4.4v0.9h3.8v4.1h-1.2c0.8,0.6,1.6,1.3,2,1.8
			l-0.8,0.5c-0.2-0.2-0.4-0.4-0.6-0.7l-0.8,0V779.6z M126.6,783.2c-0.4-0.6-1.2-1.5-2-2.1l0.9-0.5c0.7,0.6,1.6,1.5,2,2L126.6,783.2z
			 M125.1,774.4h2.6v-1h-2.6V774.4z M127.7,776.1v-1h-2.6v1H127.7z M128.8,773.5v1h2.7v-1H128.8z M131.5,775.1h-2.7v1h2.7V775.1z
			 M128.8,777.8l2.3,0c-0.3-0.3-0.6-0.5-0.9-0.7l0.2-0.1h-1.6V777.8z"/>
		<path class="st14" d="M139.4,777.3c-0.5,0.2-1.1,0.4-1.6,0.6v4.7c0,0.6-0.2,1-0.5,1.1c-0.4,0.2-1,0.2-1.9,0.2
			c0-0.3-0.2-0.7-0.3-1.1c0.7,0,1.3,0,1.5,0c0.2,0,0.3,0,0.3-0.3v-4.3c-0.7,0.3-1.3,0.5-1.9,0.7l-0.2-1.1c0.6-0.2,1.3-0.5,2.2-0.7
			V774h-1.9v-1.1h1.9v-3.1h1.1v3.1h1.7v1.1h-1.7v2.8l1.4-0.5L139.4,777.3z M145.6,775c1.2,0.9,2.7,2,3.4,2.7l-0.7,0.7
			c-0.1-0.1-0.2-0.2-0.3-0.3v5.8h-1.1v-0.5h-5.6v0.7h-1v-5.8c-0.2,0.1-0.4,0.2-0.7,0.3c-0.2-0.2-0.5-0.7-0.7-0.9
			c1.3-0.5,2.8-1.6,3.7-2.7h-3.1v-1h4v-2.6c-1.2,0.1-2.5,0.2-3.6,0.2c0-0.2-0.1-0.6-0.3-0.9c2.7-0.2,6-0.5,7.8-0.9l0.7,0.9
			c-1,0.2-2.2,0.4-3.5,0.5v2.7h0.9c0.4-0.7,0.9-1.8,1.1-2.6l1,0.3c-0.3,0.8-0.7,1.6-1.1,2.3h2.2v1H145.6z M141.6,771.7
			c0.3,0.6,0.8,1.4,1,1.9l-1,0.4c-0.2-0.5-0.6-1.3-1-2L141.6,771.7z M143.5,775.3c-0.7,1-1.7,1.9-2.7,2.5h2.7V775.3z M143.5,778.8
			h-2.2v1.3h2.2V778.8z M141.4,782.5h2.2V781h-2.2V782.5z M146.9,778.8h-2.4v1.3h2.4V778.8z M146.9,782.5V781h-2.4v1.5H146.9z
			 M147.7,777.9c-0.9-0.8-2.1-1.8-3.1-2.5v2.5H147.7z"/>
		<path class="st14" d="M153.4,778.1v4.5c0,0.7-0.1,1-0.5,1.2c-0.4,0.2-1,0.2-1.9,0.2c0-0.3-0.2-0.8-0.3-1.1c0.6,0,1.2,0,1.4,0
			c0.2,0,0.3-0.1,0.3-0.3v-4.1c-0.7,0.2-1.3,0.5-1.9,0.6l-0.3-1.1c0.6-0.2,1.4-0.4,2.2-0.7V774h-2v-1.1h2v-3.1h1.1v3.1h1.6v1.1h-1.6
			v3l1.5-0.5l0.2,1.1L153.4,778.1z M164.6,776.1v0.8h-8c0,2.3-0.3,5.3-1.8,7.2c-0.2-0.2-0.6-0.6-0.8-0.7c1.5-1.9,1.6-4.6,1.6-6.7
			v-5.7h4.3c-0.1-0.3-0.3-0.7-0.4-1l1.1-0.3c0.2,0.4,0.5,0.9,0.6,1.3h3.3v0.9h-7.8v4.2H164.6z M159.8,782.6c-0.9,0.5-2,1.1-2.9,1.5
			c-0.1-0.2-0.4-0.6-0.5-0.7c0.8-0.4,1.9-0.9,2.6-1.3L159.8,782.6z M158.3,775.4v-1.5H157v-0.7h1.2v-0.9h1v0.9h2.6v-0.9h1v0.9h1.4
			v0.7h-1.4v1.5H158.3z M164,781.7h-6.7v-4.2h6.7V781.7z M158.2,779.2h1.9v-1h-1.9V779.2z M158.2,780.9h1.9v-1h-1.9V780.9z
			 M159.3,773.9v0.8h2.6v-0.8H159.3z M163,778.2h-2v1h2V778.2z M163,779.9h-2v1h2V779.9z M161.9,781.9c0.9,0.5,2,1,2.6,1.4l-0.6,0.7
			c-0.6-0.4-1.7-1-2.5-1.5L161.9,781.9z"/>
		<path class="st14" d="M173.5,775.5H166v-1h1.8v-1.8h-1.6v-1h1.6v-1.7h1.1v1.7h2v-1.7h1.1v1.7h1.6v1h-1.6v1.8h1.6V775.5z
			 M172.6,782.8c0,0.6-0.1,0.8-0.5,1c-0.4,0.2-1,0.2-1.9,0.2c0-0.3-0.2-0.7-0.3-1c0.7,0,1.3,0,1.5,0c0.2,0,0.2,0,0.2-0.2v-1.9
			c-1.1,0.5-2.2,0.9-3.1,1.3l-0.4-1c0.9-0.3,2.2-0.7,3.5-1.2v-2.8h-3.4v2.1c0,1.5-0.2,3.4-1.2,4.8c-0.2-0.2-0.6-0.5-0.9-0.6
			c0.9-1.2,1-2.8,1-4.1v-3h5.5V782.8z M168.9,777.9c0.9,0.4,1.8,0.9,2.4,1.3l-0.5,0.7c-0.5-0.4-1.5-1-2.3-1.4L168.9,777.9z
			 M168.8,774.5h2v-1.8h-2V774.5z M179.2,773.7c-0.3,2.5-0.9,4.7-1.8,6.4c0.8,1.3,1.7,2.3,2.9,3c-0.3,0.2-0.6,0.6-0.8,1
			c-1.1-0.7-2-1.7-2.8-2.9c-0.8,1.1-1.8,2.1-3,2.9c-0.1-0.2-0.4-0.7-0.7-0.9c1.3-0.8,2.3-1.8,3.1-3c-0.6-1.3-1.1-2.9-1.5-4.6
			c-0.3,0.7-0.6,1.4-1,2c-0.2-0.2-0.5-0.7-0.8-0.9c1.1-1.7,1.8-4.2,2.2-6.9l1.1,0.2c-0.1,0.9-0.3,1.8-0.5,2.7h4.6v1.1H179.2z
			 M176.8,779c0.7-1.5,1-3.2,1.3-5.2h-2.8C175.7,775.7,176.1,777.4,176.8,779z"/>
	</g>
</g>
<g>
	<path class="st0" d="M234.7,928.2c0,8.2-1.2,16.1-3.4,23.6c-2.1,7.3-5.2,14.1-9.2,20.4c-14.7,23.6-40.9,39.3-70.7,39.3
		c-46,0-83.3-37.3-83.3-83.3c0-1.6,0-3.3,0.1-4.9c1.6-27.1,16.1-50.7,37.4-64.7c13.1-8.6,28.8-13.7,45.7-13.7
		C197.5,844.9,234.7,882.2,234.7,928.2L234.7,928.2z M234.7,928.2"/>
	<g class="st38">
		<defs>
			<circle id="SVGID_7_" class="st38" cx="176.2" cy="932.3" r="37.6"/>
		</defs>
		<clipPath id="SVGID_8_">
			<use xlink:href="#SVGID_7_"  style="overflow:visible;"/>
		</clipPath>
		<g class="st39">
			<circle class="st23" cx="176.2" cy="932.3" r="37.6"/>
			<path class="st40" d="M186.1,955h-2.6c0,0,0,0,0,0l0,0h-17.2c-4.5,0-8.2,3.7-8.2,8.2v7.5h36.2v-7.5
				C194.3,958.7,190.6,955,186.1,955L186.1,955z M186.1,955"/>
			<path class="st41" d="M192.4,931.6c0,0-0.1,0-0.1,0v-1.5c0-8.8-7.2-16-16.1-16c-8.9,0-16.1,7.2-16.1,16v1.5c0,0-0.1,0-0.1,0
				c-2.7,0-4.9,2.2-4.9,4.9c0,2.7,2.2,4.9,4.9,4.9c0.2,0,0.4,0,0.5,0c1.7,7.1,8.1,12.3,15.7,12.3c7.6,0,14-5.3,15.7-12.3
				c0.2,0,0.3,0,0.5,0c2.7,0,4.9-2.2,4.9-4.9C197.3,933.8,195.1,931.6,192.4,931.6L192.4,931.6z M192.4,931.6"/>
			<path class="st42" d="M168.1,941.7c-2,0-3.6-1.6-3.6-3.6c0-0.3,0.2-0.5,0.5-0.5s0.5,0.2,0.5,0.5c0,1.4,1.1,2.5,2.5,2.5
				c1.4,0,2.5-1.1,2.5-2.5c0-0.3,0.2-0.5,0.5-0.5c0.3,0,0.5,0.2,0.5,0.5C171.7,940.1,170.1,941.7,168.1,941.7L168.1,941.7z
				 M168.1,941.7"/>
			<path class="st43" d="M168.1,939.5c-1.1,0-1.9-0.9-1.9-1.9v-3.2c0-1.1,0.9-1.9,1.9-1.9c1.1,0,1.9,0.9,1.9,1.9v3.2
				C170.1,938.6,169.2,939.5,168.1,939.5L168.1,939.5z M168.1,939.5"/>
			<path class="st42" d="M184.1,941.7c-2,0-3.6-1.6-3.6-3.6c0-0.3,0.2-0.5,0.5-0.5c0.3,0,0.5,0.2,0.5,0.5c0,1.4,1.1,2.5,2.5,2.5
				c1.4,0,2.5-1.1,2.5-2.5c0-0.3,0.2-0.5,0.5-0.5c0.3,0,0.5,0.2,0.5,0.5C187.6,940.1,186,941.7,184.1,941.7L184.1,941.7z
				 M184.1,941.7"/>
			<path class="st43" d="M184.1,939.5c-1.1,0-1.9-0.9-1.9-1.9v-3.2c0-1.1,0.9-1.9,1.9-1.9c1.1,0,1.9,0.9,1.9,1.9v3.2
				C186,938.6,185.2,939.5,184.1,939.5L184.1,939.5z M184.1,939.5"/>
			<path class="st43" d="M179.4,946.8c-0.3,0-0.5-0.2-0.5-0.5c0-0.4-0.2-0.7-0.4-1c-0.3-0.3-0.6-0.5-1-0.6c-0.2-0.1-0.5-0.1-0.9-0.1
				h-0.8c-0.3,0-0.6,0-0.9,0.1c-0.4,0.1-0.8,0.3-1,0.6c-0.3,0.3-0.4,0.6-0.4,1c0,0.3-0.2,0.5-0.5,0.5s-0.5-0.2-0.5-0.5
				c0-0.6,0.3-1.3,0.8-1.7c0.4-0.4,0.9-0.7,1.5-0.9c0.3-0.1,0.7-0.2,1.2-0.2h0.8c0.4,0,0.8,0.1,1.2,0.2c0.6,0.2,1.1,0.5,1.5,0.9
				c0.5,0.5,0.8,1.1,0.8,1.7C179.9,946.6,179.7,946.8,179.4,946.8L179.4,946.8z M179.4,946.8"/>
			<path class="st41" d="M176.2,953.7c-2.6,0-5.1-0.6-7.3-1.7v2.8c0,4,3.3,7.3,7.3,7.3c4,0,7.3-3.3,7.3-7.3v-2.8
				C181.3,953.1,178.8,953.7,176.2,953.7L176.2,953.7z M176.2,953.7"/>
			<path class="st44" d="M171.6,929h-16.1v-5.6c0-8.7,7-15.7,15.7-15.7h4.5c2.3,0,4.1,1.9,4.1,4.1v8.9
				C179.9,925.3,176.2,929,171.6,929L171.6,929z M171.6,929"/>
			<path class="st44" d="M196.5,928.5h-9.4c-4,0-7.2-3.2-7.2-7.2v-9.8c0-2.1,1.7-3.8,3.8-3.8c7.1,0,12.8,5.7,12.8,12.8V928.5z
				 M196.5,928.5"/>
			<path class="st44" d="M157.3,929v3.4c0.8-0.5,1.7-0.8,2.7-0.8c0,0,0.1,0,0.1,0v-1.5c0-0.4,0-0.7,0-1.1H157.3z M157.3,929"/>
			<path class="st44" d="M192.2,928.5c0.1,0.5,0.1,1.1,0.1,1.6v1.5c0,0,0.1,0,0.1,0c1,0,1.9,0.3,2.7,0.8v-3.9H192.2z M192.2,928.5"
				/>
			<path class="st43" d="M189.1,933h-1.6c-2.4,0-4.7-0.6-6.7-1.9l-0.7-0.4c-0.3-0.2-0.3-0.5-0.2-0.7c0.2-0.3,0.5-0.3,0.7-0.2
				l0.7,0.4c1.9,1.1,4,1.7,6.2,1.7h1.6c0.3,0,0.5,0.2,0.5,0.5C189.6,932.8,189.4,933,189.1,933L189.1,933z M189.1,933"/>
			<path class="st43" d="M164.8,933h-1.6c-0.3,0-0.5-0.2-0.5-0.5c0-0.3,0.2-0.5,0.5-0.5h1.6c2.2,0,4.3-0.6,6.2-1.7l0.7-0.4
				c0.3-0.2,0.6-0.1,0.7,0.2c0.2,0.3,0.1,0.6-0.2,0.7l-0.7,0.4C169.5,932.4,167.2,933,164.8,933L164.8,933z M164.8,933"/>
			<path class="st45" d="M171.6,929.6h-16.1c-0.3,0-0.5-0.2-0.5-0.5v-5.6c0-9,7.3-16.2,16.2-16.2h4.5c2.6,0,4.7,2.1,4.7,4.7v8.9
				C180.5,925.6,176.5,929.6,171.6,929.6L171.6,929.6z M156.1,928.5h15.6c4.3,0,7.7-3.5,7.7-7.7v-8.9c0-2-1.6-3.6-3.6-3.6h-4.5
				c-8.4,0-15.2,6.8-15.2,15.2V928.5z M156.1,928.5"/>
			<path class="st45" d="M196.5,929h-9.4c-4.3,0-7.7-3.5-7.7-7.7v-9.8c0-2.4,1.9-4.3,4.3-4.3c7.4,0,13.3,6,13.3,13.3v8
				C197,928.8,196.8,929,196.5,929L196.5,929z M183.7,908.3c-1.8,0-3.2,1.5-3.2,3.2v9.8c0,3.7,3,6.7,6.7,6.7h8.8v-7.4
				C195.9,913.8,190.5,908.3,183.7,908.3L183.7,908.3z M183.7,908.3"/>
			<path class="st45" d="M157.3,933c-0.1,0-0.2,0-0.3-0.1c-0.2-0.1-0.3-0.3-0.3-0.5V929c0-0.3,0.2-0.5,0.5-0.5h2.8
				c0.1,0,0.3,0.1,0.4,0.2c0.1,0.1,0.2,0.3,0.1,0.4c0,0.4,0,0.7,0,1.1v1.5c0,0.1-0.1,0.3-0.2,0.4c-0.1,0.1-0.2,0.2-0.4,0.2
				c0,0,0,0-0.1,0c0,0,0,0,0,0c-0.9,0-1.7,0.2-2.4,0.7C157.5,932.9,157.4,933,157.3,933L157.3,933z M157.8,929.6v1.9
				c0.5-0.2,1.1-0.4,1.7-0.4v-1c0-0.2,0-0.4,0-0.5H157.8z M157.8,929.6"/>
			<path class="st45" d="M195,933c-0.1,0-0.2,0-0.3-0.1c-0.7-0.5-1.5-0.7-2.4-0.7c0,0-0.1,0-0.1,0c-0.1,0-0.3-0.1-0.4-0.2
				c-0.1-0.1-0.2-0.2-0.2-0.4v-1.5c0-0.5,0-1-0.1-1.6c0-0.2,0-0.3,0.1-0.4c0.1-0.1,0.2-0.2,0.4-0.2h2.9c0.3,0,0.5,0.2,0.5,0.5v3.9
				c0,0.2-0.1,0.4-0.3,0.5C195.2,932.9,195.1,933,195,933L195,933z M192.8,931.1c0.6,0,1.2,0.2,1.7,0.4V929h-1.7c0,0.4,0,0.7,0,1.1
				V931.1z M192.8,931.1"/>
		</g>
	</g>
	<g class="st46">
		<g>
			<rect x="106.5" y="904.5" class="st23" width="36.2" height="44.2"/>
			<path class="st22" d="M140.4,900.3h-31.1c-1.6,0-2.8,1.3-2.8,2.8v47.4c0,1.6,1.3,2.8,2.8,2.8h31.1c1.6,0,2.8-1.3,2.8-2.8v-47.4
				C143.2,901.6,142,900.3,140.4,900.3 M128.7,902.6c0.3,0,0.6,0.3,0.6,0.6c0,0.3-0.3,0.6-0.6,0.6c-0.3,0-0.6-0.3-0.6-0.6
				C128.1,902.9,128.4,902.6,128.7,902.6 M120.3,902.8h6.3v0.7h-6.3V902.8z M124.8,952.3c-1,0-1.8-0.8-1.8-1.8c0-1,0.8-1.8,1.8-1.8
				c1,0,1.8,0.8,1.8,1.8C126.7,951.4,125.9,952.3,124.8,952.3 M141.4,947.4h-33.2v-41.1h33.2V947.4z"/>
		</g>
		<g>
			<rect x="89" y="922.2" class="st23" width="26.4" height="37.9"/>
			<path class="st22" d="M113.1,917H91.4c-2.1,0-3.7,1.7-3.7,3.7v44c0,2.1,1.7,3.7,3.7,3.7h21.7c2.1,0,3.7-1.7,3.7-3.7v-44
				C116.8,918.7,115.1,917,113.1,917 M110.6,919.3c0.5,0,1,0.4,1,1c0,0.5-0.4,1-1,1c-0.5,0-1-0.4-1-1
				C109.6,919.7,110.1,919.3,110.6,919.3 M97.2,919.7h10v1.1h-10V919.7z M102.2,966.2c-1.4,0-2.5-1.1-2.5-2.5c0-1.4,1.1-2.5,2.5-2.5
				c1.4,0,2.5,1.1,2.5,2.5C104.7,965.1,103.6,966.2,102.2,966.2 M114,958.7H90.5v-35.4H114V958.7z"/>
		</g>
		<path class="st47" d="M103.8,930.9v9.3c0,1.8,0,2.8,0,4.3h-18v-13.5H103.8z M103.8,930.9"/>
		<path class="st47" d="M95.1,943.6l1.9,4.6l-8.5-4.8L95.1,943.6z M95.1,943.6"/>
		<g>
			<rect x="98.7" y="933.7" class="st48" width="1.9" height="4.6"/>
			<rect x="98.7" y="933.7" class="st49" width="1.2" height="4.6"/>
			<path class="st50" d="M89.9,938.7v-0.4c0-0.3,0.3-0.6,0.6-0.6h0.3c-0.3,0-0.5-0.3-0.5-0.5v-0.5c0-0.3,0.2-0.5,0.5-0.5h0.5
				c-0.3,0-0.5-0.2-0.5-0.5v-0.4c0-0.3,0.2-0.5,0.5-0.5h0.5c-0.3,0-0.5-0.2-0.5-0.5V934c0-0.3,0.2-0.5,0.5-0.5h6.6v4.7
				c-0.8,0-1.4,0.1-1.9,0.2c-1.6,0.4-1.9,1.4-1.9,2.3c0,0.4,0,1.6,0,1.6c0,0.1,0,0.2-0.1,0.3c-0.1,0.1-0.2,0.1-0.3,0.1
				c-0.7,0-1.2-0.5-1.2-1.2v-1.6c0-0.4-0.3-0.7-0.7-0.7h-1.9C90.2,939.3,89.9,939,89.9,938.7z"/>
			<path class="st11" d="M96.6,938.5c0.5-0.1,1-0.2,1.7-0.2v-4.7h-1.7V938.5z"/>
			<rect x="97.1" y="933.1" class="st12" width="2.4" height="5.7"/>
			<path class="st7" d="M98.2,934c0.1,0,0.2-0.1,0.2-0.2v-0.1c0-0.1-0.1-0.2-0.2-0.2c-0.1,0-0.2,0.1-0.2,0.2v0.1
				C98,933.9,98.1,934,98.2,934z"/>
			<path class="st7" d="M98.2,934.7c0.1,0,0.2-0.1,0.2-0.2v-0.1c0-0.1-0.1-0.2-0.2-0.2c-0.1,0-0.2,0.1-0.2,0.2v0.1
				C98,934.5,98.1,934.7,98.2,934.7z"/>
			<rect x="97.3" y="933.4" class="st13" width="1.9" height="5.2"/>
			<rect x="97.3" y="933.4" class="st13" width="1.9" height="5.2"/>
			<polygon class="st13" points="95.6,939.2 95.6,939.2 95.6,939.2 			"/>
			<path class="st7" d="M100.5,935.1c0.1,0,0.2-0.1,0.2-0.2v-1.2c0-0.1-0.1-0.2-0.2-0.2h-0.9v-0.3c0-0.1-0.1-0.2-0.2-0.2h-2.4
				c-0.1,0-0.2,0.1-0.2,0.2v0.2H96c-0.1,0-0.2,0.1-0.2,0.2c0,0.1,0.1,0.2,0.2,0.2h0.8v4.4c-1.6,0.3-2.4,1.2-2.4,2.6v1.6
				c0,0,0,0.1,0,0.1c0,0,0,0-0.1,0c-0.5,0-1-0.4-1-1V940c0-0.5-0.4-0.9-0.9-0.9h-1.9c-0.2,0-0.3-0.2-0.3-0.3v-0.4
				c0-0.2,0.2-0.3,0.3-0.3h0.3c0,0,0,0,0,0h0.5c0.1,0,0.2-0.1,0.2-0.2c0-0.1-0.1-0.2-0.2-0.2h-0.5c-0.2,0-0.3-0.1-0.3-0.3v-0.5
				c0-0.2,0.1-0.3,0.3-0.3h0.4c0,0,0,0,0,0h0.5c0.1,0,0.2-0.1,0.2-0.2c0-0.1-0.1-0.2-0.2-0.2h-0.5c0,0,0,0,0,0
				c-0.1,0-0.2-0.1-0.2-0.2v-0.4c0-0.1,0.1-0.2,0.2-0.2h0.4c0,0,0,0,0,0h0.5c0.1,0,0.2-0.1,0.2-0.2c0-0.1-0.1-0.2-0.2-0.2h-0.4
				c0,0,0,0,0,0c-0.1,0-0.2-0.1-0.2-0.2V934c0-0.1,0.1-0.2,0.2-0.2H95c0.1,0,0.2-0.1,0.2-0.2c0-0.1-0.1-0.2-0.2-0.2h-3.2
				c-0.4,0-0.7,0.3-0.7,0.7v0.3c0,0.1,0,0.2,0.1,0.3c-0.3,0.1-0.5,0.4-0.5,0.7v0.1c0,0,0,0,0,0c0,0.1,0,0.4,0,0.5h0c0,0,0,0,0,0.1
				c-0.3,0.1-0.6,0.4-0.6,0.8v0.5c0,0.1,0,0.3,0.1,0.4c-0.3,0.1-0.5,0.4-0.5,0.8v0.4c0,0.5,0.4,0.8,0.8,0.8h1.9
				c0.2,0,0.4,0.2,0.4,0.4v1.6c0,0.8,0.7,1.5,1.5,1.5c0.2,0,0.3-0.1,0.4-0.2c0.1-0.1,0.2-0.3,0.2-0.4v-1.6c0-0.5,0.1-1.1,0.7-1.6
				l0,0c0,0,0,0,0,0c0,0,0,0,0,0l0,0c0.1,0,0.4-0.2,0.4-0.3c0.2-0.1,0.5-0.2,0.8-0.3v0.1c0,0.1,0.1,0.2,0.2,0.2h2.4
				c0.1,0,0.2-0.1,0.2-0.2v-0.3h0.9c0.1,0,0.2-0.1,0.2-0.2v-2.4c0-0.1-0.1-0.2-0.2-0.2c-0.1,0-0.2,0.1-0.2,0.2v2.1h-0.6v-4.1h0.6v1
				C100.3,935,100.4,935.1,100.5,935.1z M99.2,938.6h-1.9v-5.2h1.9V938.6z"/>
			<path class="st7" d="M95.6,939.2L95.6,939.2C95.6,939.2,95.6,939.2,95.6,939.2C95.6,939.2,95.6,939.2,95.6,939.2z"/>
		</g>
		<g>
			<path class="st51" d="M109.9,952.2l-1.3,3.2l5.9-3.4L109.9,952.2z M109.9,952.2"/>
			<g>
				<rect x="103.8" y="943.3" class="st51" width="12.5" height="9.4"/>
			</g>
			<line class="st52" x1="106.3" y1="945.3" x2="114" y2="945.3"/>
			<line class="st52" x1="106.3" y1="947.6" x2="114" y2="947.6"/>
			<line class="st52" x1="106.3" y1="950.1" x2="114" y2="950.1"/>
		</g>
		<g>
			<path class="st53" d="M130,933.2l-1.9,4.5l8.4-4.8L130,933.2z M130,933.2"/>
			<rect x="121.3" y="920.7" class="st53" width="17.8" height="13.4"/>
			<g>
				<path class="st54" d="M134.5,927.4c0,2.4-2,4.4-4.4,4.4c-2.4,0-4.4-2-4.4-4.4c0-2.4,2-4.4,4.4-4.4h0c1.8,0,3.4,1.1,4.1,2.7
					C134.4,926.1,134.5,926.7,134.5,927.4z"/>
				<path class="st7" d="M128.6,929.1c0,0.1,0.1,0.1,0.1,0.1c0,0,0.1,0,0.1,0c0.9-0.3,1.8,0,2.4,0.7c0.1,0.1,0.2,0.1,0.3,0
					c0.1-0.1,0.1-0.2,0-0.3c-0.3-0.4-0.8-0.7-1.2-0.9s-1-0.2-1.5,0C128.6,928.9,128.6,929,128.6,929.1z"/>
				<path class="st7" d="M128.8,926.9c0.1,0,0.2-0.1,0.2-0.2v-0.1c0-0.1-0.1-0.2-0.2-0.2s-0.2,0.1-0.2,0.2v0.1
					C128.6,926.8,128.7,926.9,128.8,926.9z"/>
				<path class="st7" d="M131.6,926.7v-0.1c0-0.1-0.1-0.2-0.2-0.2s-0.2,0.1-0.2,0.2v0.1c0,0.1,0.1,0.2,0.2,0.2
					S131.6,926.8,131.6,926.7z"/>
			</g>
		</g>
		<g>
			<path class="st51" d="M109.4,927.2l-3.2,7.7l14.1-8.1L109.4,927.2z M109.4,927.2"/>
			<g>
				<rect x="94.8" y="906.1" class="st51" width="30.1" height="22.6"/>
				<g>
					<path class="st55" d="M117,917.4c0,4.1-3.3,7.5-7.5,7.5c-4.1,0-7.5-3.3-7.5-7.5c0-4.1,3.3-7.5,7.5-7.5h0c3.1,0,5.7,1.9,6.8,4.5
						C116.8,915.3,117,916.3,117,917.4z"/>
					<path class="st7" d="M107.1,921.1c0.1,0.1,0.2,0.1,0.3,0.1c0.1,0,0.1,0,0.2-0.1c1.3-0.9,2.9-0.9,4.2,0c0.1,0.1,0.3,0.1,0.4-0.1
						c0.1-0.1,0.1-0.3-0.1-0.4c-0.7-0.5-1.6-0.8-2.4-0.8c-0.9,0-1.7,0.3-2.4,0.8C107,920.8,107,921,107.1,921.1z"/>
					<path class="st7" d="M107.3,916.5c0.2,0,0.3-0.1,0.3-0.3V916c0-0.2-0.1-0.3-0.3-0.3c-0.2,0-0.3,0.1-0.3,0.3v0.2
						C107,916.4,107.2,916.5,107.3,916.5z"/>
					<path class="st7" d="M112.1,916.2V916c0-0.2-0.1-0.3-0.3-0.3s-0.3,0.1-0.3,0.3v0.2c0,0.2,0.1,0.3,0.3,0.3
						S112.1,916.4,112.1,916.2z"/>
				</g>
			</g>
		</g>
		<path class="st47" d="M126.2,932.6v3.5c0,0.7,0,1.1,0,1.6h-6.8v-5.1H126.2z M126.2,932.6"/>
		<path class="st47" d="M122.9,937.4l0.7,1.7l-3.2-1.8L122.9,937.4z M122.9,937.4"/>
		<g>
			<rect x="123.7" y="934.3" class="st48" width="0.5" height="1.2"/>
			<rect x="123.7" y="934.3" class="st49" width="0.3" height="1.2"/>
			<path class="st56" d="M121.3,935.7v-0.1c0-0.1,0.1-0.2,0.2-0.2h0.1c-0.1,0-0.1-0.1-0.1-0.1v-0.1c0-0.1,0.1-0.1,0.1-0.1h0.1
				c-0.1,0-0.1-0.1-0.1-0.1v-0.1c0-0.1,0.1-0.1,0.1-0.1h0.1c-0.1,0-0.1-0.1-0.1-0.1v-0.1c0-0.1,0.1-0.1,0.1-0.1h1.8v1.3
				c-0.2,0-0.4,0-0.5,0.1c-0.4,0.1-0.5,0.4-0.5,0.6c0,0.1,0,0.4,0,0.4c0,0,0,0.1,0,0.1c0,0,0,0-0.1,0c-0.2,0-0.3-0.1-0.3-0.3V936
				c0-0.1-0.1-0.2-0.2-0.2h-0.5C121.4,935.8,121.3,935.7,121.3,935.7z"/>
			<path class="st11" d="M123.2,935.6c0.1,0,0.3,0,0.5,0v-1.3h-0.5V935.6z"/>
			<rect x="123.3" y="934.1" class="st12" width="0.6" height="1.5"/>
			<path class="st7" d="M123.6,934.4C123.6,934.4,123.7,934.4,123.6,934.4L123.6,934.4c0.1-0.1,0-0.1,0-0.1
				C123.6,934.3,123.5,934.3,123.6,934.4L123.6,934.4C123.5,934.4,123.6,934.4,123.6,934.4z"/>
			<path class="st7" d="M123.6,934.6C123.6,934.6,123.7,934.5,123.6,934.6L123.6,934.6c0.1-0.1,0-0.1,0-0.1
				C123.6,934.4,123.5,934.4,123.6,934.6L123.6,934.6C123.5,934.5,123.6,934.6,123.6,934.6z"/>
			<rect x="123.4" y="934.2" class="st13" width="0.5" height="1.4"/>
			<rect x="123.4" y="934.2" class="st13" width="0.5" height="1.4"/>
			<polygon class="st13" points="122.9,935.8 122.9,935.8 122.9,935.8 			"/>
			<path class="st7" d="M124.2,934.7C124.3,934.7,124.3,934.7,124.2,934.7l0.1-0.4c0,0,0-0.1-0.1-0.1H124v-0.1c0,0,0-0.1-0.1-0.1
				h-0.6c0,0-0.1,0-0.1,0.1v0H123c0,0-0.1,0-0.1,0.1c0,0,0,0.1,0.1,0.1h0.2v1.2c-0.4,0.1-0.7,0.3-0.7,0.7v0.4c0,0,0,0,0,0
				c0,0,0,0,0,0c-0.1,0-0.3-0.1-0.3-0.3V936c0-0.1-0.1-0.2-0.2-0.2h-0.5c-0.1,0-0.1,0-0.1-0.1v-0.1c0-0.1,0-0.1,0.1-0.1h0.1
				c0,0,0,0,0,0h0.1c0,0,0.1,0,0.1-0.1c0,0,0-0.1-0.1-0.1h-0.1c0,0-0.1,0-0.1-0.1v-0.1c0,0,0-0.1,0.1-0.1h0.1c0,0,0,0,0,0h0.1
				c0,0,0.1,0,0.1-0.1c0,0,0-0.1-0.1-0.1h-0.1c0,0,0,0,0,0c0,0-0.1,0-0.1-0.1v-0.1c0,0,0-0.1,0.1-0.1h0.1c0,0,0,0,0,0h0.1
				c0,0,0.1,0,0.1-0.1c0,0,0-0.1-0.1-0.1h-0.1c0,0,0,0,0,0c0,0-0.1,0-0.1-0.1v-0.1c0,0,0-0.1,0.1-0.1h0.9c0,0,0.1,0,0.1-0.1
				c0,0,0-0.1-0.1-0.1h-0.9c-0.1,0-0.2,0.1-0.2,0.2v0.1c0,0,0,0.1,0,0.1c-0.1,0-0.1,0.1-0.1,0.2v0c0,0,0,0,0,0c0,0,0,0.1,0,0.1h0
				c0,0,0,0,0,0c-0.1,0-0.2,0.1-0.2,0.2v0.1c0,0,0,0.1,0,0.1c-0.1,0-0.1,0.1-0.1,0.2v0.1c0,0.1,0.1,0.2,0.2,0.2h0.5
				c0.1,0,0.1,0.1,0.1,0.1v0.4c0,0.2,0.2,0.4,0.4,0.4c0,0,0.1,0,0.1,0c0,0,0-0.1,0-0.1v-0.4c0-0.1,0-0.3,0.2-0.4l0,0c0,0,0,0,0,0
				c0,0,0,0,0,0l0,0c0,0,0.1-0.1,0.1-0.1c0.1,0,0.1-0.1,0.2-0.1v0c0,0,0,0.1,0.1,0.1h0.6c0,0,0.1,0,0.1-0.1v-0.1h0.2
				c0,0,0.1,0,0.1-0.1v-0.7c0,0,0-0.1-0.1-0.1c0,0-0.1,0-0.1,0.1v0.6H124v-1.1h0.2L124.2,934.7C124.2,934.7,124.2,934.7,124.2,934.7
				z M123.9,935.6h-0.5v-1.4h0.5V935.6z"/>
			<polygon class="st7" points="122.9,935.8 122.9,935.8 122.9,935.8 			"/>
		</g>
		<g>
			<path class="st57" d="M131.5,943.7l-0.9,2.1l3.8-2.2L131.5,943.7z M131.5,943.7"/>
			<g>
				<rect x="127.6" y="938.1" class="st57" width="8.1" height="6.1"/>
			</g>
			<line class="st58" x1="129.2" y1="939.3" x2="134.1" y2="939.3"/>
			<line class="st58" x1="129.2" y1="940.8" x2="134.1" y2="940.8"/>
			<line class="st58" x1="129.2" y1="942.4" x2="134.1" y2="942.4"/>
		</g>
	</g>
</g>
<g>
	<g>
		<path class="st14" d="M115.3,1029.3c-0.3,0.9-0.7,1.8-1.2,2.6c0.3,0.1,0.7,0.4,1.2,0.7c0.9,0.5,2.3,0.6,4,0.6
			c1.9,0,4.6-0.1,6.2-0.3c-0.1,0.3-0.3,0.8-0.3,1.1c-1.4,0.1-4.3,0.2-5.9,0.2c-1.8,0-3.2-0.1-4.2-0.7c-0.6-0.3-1-0.7-1.3-0.7
			c-0.4,0-1.1,0.7-1.7,1.5l-0.6-0.9c0.4-0.4,0.8-0.8,1.3-1.1h0c0.5-0.6,1-1.4,1.3-2.2h-2.1c0.4-0.6,0.9-1.5,1.3-2.3h-1.8v-0.9h3.3
			c-0.4,0.7-0.8,1.6-1.2,2.3h1.1l0.2,0L115.3,1029.3z M122.1,1035h3.1v0.9h-3.1v1.9c0,0.6-0.1,0.9-0.6,1.1c-0.5,0.2-1.3,0.2-2.6,0.2
			c0-0.3-0.2-0.7-0.4-1c1,0,1.9,0,2.1,0c0.3,0,0.3-0.1,0.3-0.3v-1.9h-6.1c0.8,0.5,1.8,1.2,2.3,1.8l-0.8,0.7
			c-0.4-0.6-1.4-1.4-2.3-1.9l0.8-0.6h-3.3v-0.9h9.5v-0.8h1.1V1035z M112.9,1026.8c-0.2-0.4-0.5-1.1-0.7-1.7l1-0.3
			c0.2,0.5,0.5,1.2,0.7,1.6L112.9,1026.8z M119.2,1027.9c0.1-0.2,0.2-0.5,0.3-0.8h-4v-0.8h2.6c-0.2-0.4-0.4-0.8-0.7-1.2l0.9-0.3
			c0.3,0.4,0.7,1,0.8,1.4l-0.2,0.1h2.5c0.3-0.4,0.6-1,0.8-1.4l1.1,0.2c-0.3,0.4-0.5,0.8-0.8,1.2h2.6v0.8h-4.5
			c-0.1,0.3-0.3,0.5-0.4,0.8h3.7v4.6h-7.4v-4.6H119.2z M122.8,1028.5h-5.2v0.7h5.2V1028.5z M122.8,1029.8h-5.2v0.7h5.2V1029.8z
			 M122.8,1031.1h-5.2v0.7h5.2V1031.1z"/>
		<path class="st14" d="M134.1,1037c-2.5,0.5-5.1,0.9-7,1.3l-0.2-1.2c0.8-0.1,1.9-0.3,3.1-0.5v-2.5h-2.7v-1.1h2.7v-1.8h1.2v1.8h2.6
			v1.1h-2.6v2.3c0.9-0.2,1.9-0.3,2.9-0.5L134.1,1037z M132.9,1031.1c-0.1-0.2-0.2-0.5-0.4-0.7c-4.2,0.4-4.7,0.5-5.1,0.6
			c-0.1-0.2-0.2-0.8-0.4-1.1c0.2,0,0.5-0.3,0.7-0.7c0.2-0.3,0.9-1.3,1.3-2.4h-2.1v-1.1h6.9v1.1h-3.6c-0.5,1-1.1,2-1.7,2.8l3.3-0.3
			c-0.3-0.5-0.6-1-0.9-1.4l0.9-0.4c0.7,0.9,1.5,2.2,1.8,3L132.9,1031.1z M140.7,1027.9c-0.4,3.2-1.4,5.7-2.7,7.6
			c0.9,1.2,1.9,2.1,3.1,2.7c-0.3,0.2-0.6,0.6-0.8,0.9c-1.2-0.7-2.2-1.6-3-2.7c-1,1.2-2.2,2.1-3.5,2.8c-0.2-0.3-0.5-0.8-0.8-1
			c1.3-0.6,2.5-1.5,3.5-2.8c-0.6-0.9-1-2-1.5-3.1c-0.2,0.4-0.4,0.8-0.7,1.2c-0.1-0.3-0.5-0.8-0.7-1.1c0.3-0.5,0.6-1.1,0.9-1.7
			c-0.3-0.9-0.5-1.9-0.7-3l0.9-0.2c0.1,0.6,0.2,1.1,0.4,1.6c0.4-1.3,0.7-2.8,0.9-4.3l1.1,0.2c-0.2,0.9-0.3,1.8-0.5,2.6h3.1l0.2,0
			L140.7,1027.9z M136.4,1028.8c-0.2,0.7-0.4,1.5-0.7,2.2c0.4,1.2,1,2.4,1.6,3.5c1-1.5,1.7-3.4,2.1-5.6H136.4z"/>
		<path class="st14" d="M156.3,1027.2v3.2h-1.1v-2.2h-10.8v2.2h-1.1v-3.2h2.5c-0.3-0.5-0.8-1.2-1.2-1.8l1-0.4
			c0.5,0.6,1.1,1.4,1.4,1.9l-0.6,0.3h2.8v-2.4h1.2v2.4h2.6l-0.4-0.2c0.5-0.6,1.1-1.5,1.4-2.1l1.2,0.4c-0.4,0.6-1,1.3-1.4,1.8H156.3z
			 M144.3,1033.5h11.1v5.6h-1.1v-0.4h-8.8v0.4h-1.1V1033.5z M145.4,1034.4v1.2h3.7v-1.2H145.4z M149.1,1037.8v-1.3h-3.7v1.3H149.1z
			 M153.8,1029.3v3.2h-8.1v-3.2H153.8z M152.6,1030.2h-5.9v1.5h5.9V1030.2z M154.2,1034.4h-3.9v1.2h3.9V1034.4z M154.2,1037.8v-1.3
			h-3.9v1.3H154.2z"/>
		<path class="st14" d="M172.3,1034.6h-1.6v2.8h-1.2v-0.7h-3.7v1.1c0,0.7-0.2,1-0.7,1.2c-0.5,0.2-1.3,0.2-2.6,0.2
			c-0.1-0.3-0.2-0.7-0.4-1c0.9,0,1.9,0,2.1,0c0.3,0,0.4-0.1,0.4-0.4v-1.1h-5v-0.9h5v-1.2h-6.4v-0.9h6.4v-1.1h-4.9v-0.9h4.9v-1.1
			h-4.5v-2.7h4.5v-0.9h-6.1v-1h6.1v-1.2h1.2v1.2h6.2v1h-6.2v0.9h4.7v2.7h-4.7v1.1h4.9v2h1.6V1034.6z M164.7,1029.9v-1.1h-3.4v1.1
			H164.7z M165.8,1028.7v1.1h3.5v-1.1H165.8z M165.8,1033.7h3.7v-1.1h-3.7V1033.7z M169.6,1034.6h-3.7v1.2h3.7V1034.6z"/>
		<path class="st14" d="M181.5,1024.9c0,0.6,0,1.3-0.1,2.3c0.2,1.9,1.2,8.4,6.7,10.8c-0.3,0.3-0.7,0.7-0.8,1
			c-3.9-1.8-5.6-5.7-6.3-8.6c-0.7,3.1-2.4,6.6-6.2,8.7c-0.2-0.3-0.6-0.7-0.9-0.9c6.5-3.3,6.4-10.9,6.4-13.2H181.5z"/>
		<path class="st14" d="M109.2,1047.1c-0.6,1.5-1.4,2.9-2.4,4c0.5,3.3,1.2,5.5,1.9,5.5c0.2,0,0.4-0.8,0.5-2.6
			c0.2,0.2,0.6,0.5,0.9,0.6c-0.2,2.4-0.5,3.1-1.5,3.1c-1.3,0-2.2-2.3-2.7-5.7c-0.5,0.4-0.9,0.8-1.5,1.1c-0.2-0.2-0.6-0.6-0.8-0.8
			l0.1-0.1h-4.8v-3.6h5v3.5c0.7-0.4,1.2-0.9,1.8-1.5c-0.2-1.5-0.3-3.1-0.4-4.7h-7.1v1h6.4v0.8h-6.4v0.5c0,2.6-0.2,6.7-1.6,9.4
			c-0.2-0.2-0.7-0.5-0.9-0.6c1.3-2.6,1.4-6.3,1.4-8.8v-3.3h8.2c0-0.5,0-1,0-1.6h1.1c0,0.5,0,1.1,0,1.6h1.8c-0.4-0.3-1.2-0.8-1.7-1.1
			l0.7-0.5c0.6,0.3,1.4,0.8,1.8,1.1l-0.6,0.5h1.5v1h-3.4c0,1.3,0.1,2.5,0.3,3.6c0.6-0.8,1.1-1.8,1.5-2.8L109.2,1047.1z M97.6,1057
			c0.3-0.8,0.6-2.2,0.8-3.1l0.8,0.3c-0.2,0.9-0.5,2.2-0.7,3.1L97.6,1057z M103.1,1056.8c0.5,0,0.6-0.2,0.6-1.8
			c0.2,0.2,0.6,0.3,0.8,0.4c-0.1,1.8-0.4,2.3-1.3,2.3h-2c-1.2,0-1.5-0.3-1.5-1.3v-2.6h1v2.6c0,0.4,0.1,0.4,0.6,0.4H103.1z
			 M102.9,1049.7h-3.1v1.9h3.1V1049.7z M102.3,1055.4c-0.3-0.6-0.9-1.6-1.3-2.3l0.8-0.4c0.5,0.7,1.1,1.7,1.4,2.2L102.3,1055.4z
			 M104.9,1053.6c0.5,1,1.2,2.2,1.5,3l-0.9,0.4c-0.3-0.8-1-2.1-1.5-3.1L104.9,1053.6z"/>
		<path class="st14" d="M116.3,1055.1c1.1-0.2,2.2-0.4,3.2-0.6l0.1,1c-2.8,0.5-5.7,1.1-7.8,1.5l-0.2-1.1c1-0.2,2.2-0.4,3.6-0.6v-2.6
			h-3v-1h3v-1.7h1.1v1.7h3.1v1h-3.1V1055.1z M111.8,1044.6h8v1h-4.2c-0.5,1-1.2,2.1-1.8,2.9l4-0.3c-0.4-0.5-0.8-1.1-1.2-1.5l0.8-0.5
			c0.9,1,1.9,2.5,2.4,3.3l-0.9,0.6c-0.1-0.3-0.3-0.6-0.5-1c-4.9,0.5-5.4,0.5-5.8,0.7c-0.1-0.3-0.2-0.8-0.4-1.1
			c0.3,0,0.5-0.3,0.7-0.7c0.2-0.3,0.9-1.3,1.4-2.4h-2.5V1044.6z M121.7,1054.3h-1.1v-9.4h1.1V1054.3z M124.8,1043.8v12.2
			c0,0.7-0.2,1.1-0.6,1.3c-0.5,0.2-1.3,0.2-2.4,0.2c0-0.3-0.2-0.8-0.4-1.1c0.9,0,1.8,0,2,0c0.3,0,0.3-0.1,0.3-0.3v-12.2H124.8z"/>
		<path class="st14" d="M138.8,1056.5c1.1,0,1.3-0.2,1.4-1.2c0.3,0.1,0.7,0.3,1,0.4c-0.2,1.4-0.6,1.8-2.4,1.8H133c-2.3,0-3-0.4-3-2
			v-3.8c-0.3,2.1-1,4.2-2.3,6.1c-0.2-0.2-0.6-0.6-0.9-0.7c2.1-2.8,2.4-6.3,2.4-9.3h-2.1v-1.1h2.1v-3.2h1v3.2h2v1.1h-2
			c0,0.3,0,0.6,0,1h0.8v6.7c0,0.8,0.3,1,1.8,1H138.8z M133,1051.2h7.2v3.1h0.9v0.9H132v-0.9h1V1051.2z M137,1050.4h-4.5v-6.3h4.3
			v0.8h-1.5v1h1.2v1.9c0.7-1,1.1-2.4,1.3-3.9l0.9,0.2c-0.1,0.6-0.2,1.2-0.4,1.7h2.6v1h-2.9c-0.2,0.6-0.5,1.2-0.8,1.6
			c-0.2-0.1-0.5-0.3-0.8-0.5v0.7h-1.2v1.1h1.7V1050.4z M133.4,1044.9v1h1.1v-1H133.4z M135.7,1046.6h-2.3v1.2h2.3V1046.6z
			 M133.4,1049.6h1.1v-1.1h-1.1V1049.6z M134,1052.1v2.2h1.2v-2.2H134z M136,1052.1v2.2h1.2v-2.2H136z M140.8,1049.9h-3.4v-1h3.4
			V1049.9z M138,1052.1v2.2h1.2v-2.2H138z"/>
		<path class="st14" d="M154.5,1056.5c1,0,1.1-0.2,1.2-1.2c0.3,0.2,0.7,0.3,1,0.4c-0.2,1.4-0.6,1.9-2.2,1.9h-5.3
			c-2.2,0-2.8-0.4-2.8-2v-7.9h-0.9c-0.1,4-0.6,7.8-2.2,10.3c-0.2-0.3-0.7-0.6-1-0.8c1.5-2.2,1.9-5.8,2-9.5h-1.7v-1.1h1.7
			c0-1,0-1.9,0-2.9h1.1c0,1,0,1.9,0,2.9h3.4v1.1h-1.4v7.9c0,0.8,0.2,1,1.7,1H154.5z M153.4,1043.9c-0.1,0.2-0.2,0.5-0.3,0.7
			c0.8,1.5,2.2,3,3.6,3.7c-0.3,0.2-0.6,0.6-0.8,0.9c-1.2-0.7-2.4-2.1-3.3-3.6c-0.8,1.5-2,2.8-3.3,3.7c-0.2-0.3-0.5-0.7-0.7-0.9
			c1.7-1,3.1-2.8,3.8-4.9L153.4,1043.9z M150.3,1048.9h1.1v2.1c0,1.7-0.2,3.5-2,4.7c-0.1-0.3-0.5-0.6-0.8-0.8
			c1.5-1.1,1.7-2.6,1.7-3.9V1048.9z M153.7,1048.9h1.1v6.5h-1.1V1048.9z"/>
		<path class="st14" d="M165.4,1055.3c-2.4,0.5-4.9,1.1-6.7,1.5l-0.2-1.2c1.7-0.3,4.3-0.9,6.9-1.4L165.4,1055.3z M171.4,1048.6
			c-0.7,2.1-1.6,3.9-2.8,5.5c0.6,1.6,1.3,2.6,2,2.6c0.4,0,0.6-0.8,0.7-2.9c0.3,0.3,0.7,0.5,1,0.7c-0.2,2.7-0.6,3.4-1.8,3.4
			c-1.2,0-2.1-1-2.8-2.7c-1,1.1-2.1,2-3.3,2.7c-0.2-0.2-0.6-0.7-0.9-0.9c1.5-0.8,2.7-1.8,3.7-3.1c-0.5-1.8-0.9-4.1-1.1-6.7h-7.7
			v-1.1h7.6c0-0.8-0.1-1.6-0.1-2.5h1.2c0,0.8,0,1.7,0,2.5h4.7v1.1h-4.6c0.2,2.1,0.4,3.9,0.8,5.5c0.8-1.3,1.5-2.7,2-4.3L171.4,1048.6
			z M164.9,1048.6v4.7h-5.4v-4.7H164.9z M163.7,1049.6h-3.2v2.7h3.2V1049.6z M170.9,1046c-0.5-0.5-1.7-1.2-2.6-1.7l0.7-0.7
			c1,0.4,2.1,1.1,2.7,1.6L170.9,1046z"/>
		<path class="st14" d="M176.4,1048.3v0.6c0,2.6-0.2,6.4-1.7,8.9c-0.2-0.2-0.7-0.5-1-0.6c1.4-2.4,1.5-5.9,1.5-8.4v-4.5h11.6v4H176.4
			z M176.4,1045.4v1.9h9.3v-1.9H176.4z M187.2,1053.5v4.3H186v-0.6h-8.7v-3.7h1.1v2.6h3.1v-3.5h-3.7v-3.5h1.1v2.5h2.6v-3.1h1.1v3.1
			h2.8v-2.5h1.1v3.5h-3.9v3.5h3.3v-2.7H187.2z"/>
		<path class="st14" d="M191.9,1048.7c-0.3,1.4-0.7,2.8-1.7,3.9c-0.2-0.2-0.7-0.5-0.9-0.6c1.5-1.7,1.7-4.1,1.7-5.8v-1.9h11.7v0.9
			h-10.6v0.9h9.6v0.8h-9.6c0,0.3,0,0.6-0.1,0.9h11.3v0.9H197c0.8,0.4,1.6,0.8,2.4,1.2c0.8-0.3,1.7-0.7,2.2-1l0.8,0.5
			c-0.7,0.4-1.5,0.7-2.3,1c0.8,0.5,1.6,0.9,2.1,1.3l-0.6,0.8c-1.2-0.9-3.7-2.3-5.6-3.2l0.5-0.5h-2v2.4l2.7-0.3c0,0.3,0,0.7,0.1,0.9
			c-3.3,0.5-3.8,0.6-4.1,0.7c-0.1-0.3-0.2-0.7-0.4-0.9c0.3-0.1,0.7-0.3,0.7-0.9v-1.9H191.9z M203.6,1054.1h-3.3v2.3
			c0,0.6-0.1,1-0.7,1.1c-0.5,0.2-1.3,0.2-2.7,0.2c0-0.3-0.2-0.7-0.4-1c1,0,2,0,2.2,0c0.3,0,0.3-0.1,0.3-0.3v-2.3h-9.6v-1h9.6v-1.2
			h1.1v1.2h3.3V1054.1z M192.7,1054.2c1,0.5,2.1,1.3,2.7,2l-0.9,0.7c-0.5-0.6-1.7-1.5-2.7-2L192.7,1054.2z"/>
	</g>
</g>
<g class="st59">
	<polygon class="st60" points="154.2,275.4 154.3,269.8 148.2,275.6 148.5,260.4 144.9,260.3 144.5,275.6 138.7,269.5 138.6,275.1 
		146.2,283 	"/>
	
		<rect x="143.9" y="252.4" transform="matrix(2.017395e-02 -0.9998 0.9998 2.017395e-02 -110.3472 395.9188)" class="st60" width="5.8" height="3.7"/>
	
		<rect x="145.4" y="244.5" transform="matrix(2.017395e-02 -0.9998 0.9998 2.017395e-02 -102.32 388.3633)" class="st60" width="3.1" height="3.7"/>
</g>
<g class="st59">
	<polygon class="st60" points="154.2,550.2 154.3,544.6 148.2,550.4 148.5,535.1 144.9,535 144.5,550.3 138.7,544.3 138.6,549.9 
		146.2,557.8 	"/>
	
		<rect x="143.9" y="527.2" transform="matrix(2.017395e-02 -0.9998 0.9998 2.017395e-02 -385.0536 665.138)" class="st60" width="5.8" height="3.7"/>
	
		<rect x="145.4" y="519.3" transform="matrix(2.017395e-02 -0.9998 0.9998 2.017395e-02 -377.0263 657.5825)" class="st60" width="3.1" height="3.7"/>
</g>
<g class="st59">
	<polygon class="st60" points="154.2,824.9 154.3,819.3 148.2,825.2 148.5,809.9 144.9,809.8 144.5,825.1 138.7,819 138.6,824.6 
		146.2,832.6 	"/>
	
		<rect x="143.9" y="801.9" transform="matrix(2.017395e-02 -0.9998 0.9998 2.017395e-02 -659.7599 934.3572)" class="st60" width="5.8" height="3.7"/>
	
		<rect x="145.4" y="794.1" transform="matrix(2.017395e-02 -0.9998 0.9998 2.017395e-02 -651.7326 926.8017)" class="st60" width="3.1" height="3.7"/>
</g>
</svg>
