<?xml version="1.0" encoding="utf-8"?>
<!-- Generator: Adobe Illustrator 21.1.0, SVG Export Plug-In . SVG Version: 6.00 Build 0)  -->
<svg version="1.1" id="圖層_1" xmlns="http://www.w3.org/2000/svg" xmlns:xlink="http://www.w3.org/1999/xlink" x="0px" y="0px"
	 viewBox="0 0 360 385.3" style="enable-background:new 0 0 360 385.3;" xml:space="preserve">
<style type="text/css">
	.st0{fill:#DCDDDD;}
	.st1{fill:#FFFFFF;}
	.st2{clip-path:url(#SVGID_2_);fill:#FFFFFF;}
	.st3{fill:none;stroke:#DCDDDD;stroke-width:0.7855;stroke-miterlimit:10;}
	.st4{fill:none;stroke:#DCDDDD;stroke-width:0.6685;stroke-miterlimit:10;}
	.st5{fill:none;stroke:#DCDDDD;stroke-width:0.8511;stroke-miterlimit:10;}
</style>
<g>
	<path class="st0" d="M69.3,156.3c-2.1,0.9-4.3,1.9-5.9,2.6l-0.4-1.1c0.6-0.2,1.3-0.5,2.1-0.8l-0.3-9.2l1.1,0l0.2,8.8
		c1-0.4,1.9-0.8,2.9-1.2L69.3,156.3z M75.9,160.5c-0.7-1-2.1-2.6-3.3-3.9c-1.2,1.8-2.8,3-5.1,4c-0.1-0.2-0.6-0.7-0.9-1
		c5.1-1.9,6.7-5.5,7.3-11.9l1.2,0.1c-0.4,3.2-0.9,5.7-2,7.7c1.3,1.3,2.9,3,3.7,4.1L75.9,160.5z M70.1,152.9c-0.4-1-1.4-2.5-2.3-3.6
		l1-0.5c1,1.1,1.9,2.5,2.3,3.6L70.1,152.9z"/>
	<path class="st0" d="M89.1,150.6c-0.8,2.3-2,4.2-3.5,5.8c1.6,1.4,3.6,2.4,6,3c-0.3,0.3-0.6,0.7-0.8,1c-2.4-0.7-4.4-1.8-6.1-3.3
		c-1.7,1.5-3.7,2.5-6.2,3.3c-0.1-0.3-0.5-0.8-0.7-1c2.5-0.7,4.4-1.7,6.1-3.1c-1.5-1.6-2.7-3.5-3.6-5.8h-2.3v-1.1h13.3v1.1H89.1z
		 M81.5,150.6c0.8,1.9,1.8,3.6,3.2,5c1.3-1.3,2.3-3,3.1-5H81.5z M84.7,149.5c-0.2-0.6-0.7-1.6-1.1-2.3l1.1-0.3
		c0.4,0.7,1,1.7,1.2,2.3L84.7,149.5z"/>
	<path class="st0" d="M105.9,155.9h-5.8v3.2c0,0.7-0.2,1-0.7,1.1c-0.5,0.2-1.3,0.2-2.5,0.2c-0.1-0.3-0.3-0.8-0.5-1.1c1,0,2,0,2.2,0
		c0.3,0,0.4-0.1,0.4-0.3v-3.2h-5.8v-1.1H99V154c0.9-0.4,1.8-1.1,2.6-1.7h-5.9v-1h7.1l0.2-0.1l0.8,0.6c-0.9,1-2.3,1.9-3.6,2.6v0.6
		h5.8V155.9z M94.5,151.5h-1.1v-3h5.9c-0.2-0.4-0.5-0.9-0.8-1.3l1.1-0.4c0.4,0.5,0.8,1.2,1,1.7h5.2v3h-1.1v-2H94.5V151.5z"/>
	<path class="st0" d="M110,149c-0.4,0.7-1,1.3-1.5,1.8c-0.1-0.2-0.5-0.6-0.8-0.7c0.9-0.8,1.8-2,2.3-3.2l1,0.3
		c-0.1,0.3-0.3,0.6-0.4,0.9h3.8v1h-2.8c0.5,0.4,1.1,1,1.4,1.3l-0.7,0.7c-0.3-0.4-1-1.1-1.5-1.6l0.5-0.4H110z M118,155.9h3v0.9h-3
		v2.5c0,0.6-0.2,0.9-0.7,1c-0.5,0.1-1.4,0.1-2.6,0.1c0-0.3-0.2-0.6-0.3-0.9c1,0,1.9,0,2.2,0c0.3,0,0.3-0.1,0.3-0.3v-2.5h-9v-0.9h9
		v-1h1.1V155.9z M121.2,148v1H118c0.5,0.4,1.1,1.1,1.4,1.5l-0.8,0.6c-0.3-0.4-0.9-1.1-1.4-1.6l0.7-0.5h-1.5
		c-0.4,0.7-0.8,1.3-1.2,1.8l-0.1-0.1v0.7h5.4v1H115v1.3h4.6v0.9h-10.4v-0.9h4.7v-1.3h-5.4v-1h5.4v-0.9h0.8c-0.1-0.1-0.3-0.2-0.4-0.3
		c0.8-0.8,1.5-2,1.8-3.3l1,0.2c-0.1,0.3-0.2,0.6-0.3,0.9H121.2z M111.2,157c0.8,0.7,2,1.6,2.5,2.2l-0.8,0.7
		c-0.5-0.6-1.6-1.6-2.5-2.3L111.2,157z"/>
	<path class="st0" d="M128.5,156.2c-2,0.6-4.2,1.2-5.8,1.6l-0.3-1.1c0.7-0.1,1.5-0.4,2.4-0.6v-6.3h-2.2v-1.1h5.6v1.1h-2.3v6l2.5-0.6
		L128.5,156.2z M134.9,150.7c-0.5,2.5-1.2,4.4-2.4,6c1,1.3,2.2,2.2,3.8,2.8c-0.3,0.2-0.6,0.7-0.8,1c-1.5-0.7-2.8-1.6-3.8-2.9
		c-1.2,1.2-2.7,2.2-4.7,2.9c-0.1-0.3-0.4-0.8-0.6-1c2-0.6,3.5-1.6,4.6-2.8c-0.8-1.3-1.4-2.8-1.9-4.6c-0.4,0.7-0.8,1.4-1.2,1.9
		c-0.2-0.1-0.7-0.5-1-0.6c1.4-1.5,2.4-4,3-6.5l1.1,0.2c-0.2,0.9-0.5,1.7-0.8,2.5h5.8v1.1H134.9z M129.9,150.7c0.4,1.9,1,3.6,1.9,5
		c0.9-1.3,1.5-3,1.9-5H129.9z"/>
	<path class="st0" d="M70.3,175.4h6.3v0.8h-6.3v1.1c0,0.6-0.1,0.8-0.6,1c-0.5,0.1-1.2,0.1-2.4,0.1c-0.1-0.3-0.2-0.6-0.4-0.8
		c0.9,0,1.7,0,2,0c0.2,0,0.3-0.1,0.3-0.3v-1H63v-0.8h6.3v-0.8h-5v-0.8h5v-0.8c-1.8,0.1-3.7,0.1-5.4,0c0-0.2-0.1-0.5-0.2-0.7
		c3.8,0.1,8.5-0.1,10.9-0.5l0.8,0.6c-1.4,0.2-3.1,0.4-5,0.4v0.8h4.8v0.8h-4.8V175.4z M66,170.4h-2.9v-0.6H66v-0.5h-2.2v-2.6H66v-0.5
		h-2.7v-0.7H66v-0.7h0.9v0.7h2.8v0.7h-2.8v0.5h2.3v1c1.3-0.4,1.5-1,1.5-1.6v-0.8h3.8v1.5c0,0.3,0,0.4,0.2,0.4h0.9
		c0.2,0,0.5,0,0.7-0.1c0,0.3,0,0.6,0.1,0.8c-0.2,0.1-0.5,0.1-0.8,0.1h-1.1c-0.9,0-1.1-0.4-1.1-1.3v-0.7h-1.9v0.1
		c0,0.8-0.4,1.7-1.9,2.3c-0.1-0.2-0.3-0.5-0.6-0.6v1.4h-2.3v0.5h2.9v0.6h-2.9v1h1.5v-0.8h0.8v1.4h-5.4v-1.4h0.8v0.8H66V170.4z
		 M64.6,167.7H66v-0.5h-1.4V167.7z M66,168.8v-0.5h-1.4v0.5H66z M66.9,167.2v0.5h1.5v-0.5H66.9z M68.4,168.2h-1.5v0.5h1.5V168.2z
		 M75.5,168.6c-0.4,0.9-1,1.6-1.8,2.2c0.9,0.4,1.9,0.6,3,0.7c-0.2,0.2-0.4,0.6-0.6,0.8c-1.2-0.2-2.4-0.6-3.3-1
		c-0.9,0.4-1.9,0.7-3,0.9c-0.1-0.2-0.3-0.6-0.4-0.7c0.9-0.1,1.8-0.4,2.6-0.7c-0.6-0.4-1-0.9-1.4-1.4l0.6-0.2h-0.9v-0.8h4.3l0.2,0
		L75.5,168.6z M71.5,169.2c0.3,0.4,0.8,0.8,1.4,1.2c0.5-0.3,1-0.7,1.3-1.2H71.5z"/>
	<path class="st0" d="M81.9,165.2c-0.3,1-0.7,2-1.1,2.9v10.3h-1.1v-8.2c-0.4,0.7-0.8,1.3-1.2,1.9c-0.1-0.3-0.4-0.8-0.6-1.1
		c1.2-1.5,2.3-3.8,3-6L81.9,165.2z M84,167.5c-0.5,1-1.1,1.8-1.6,2.5c-0.2-0.2-0.7-0.5-0.9-0.6c1.1-1.1,2-2.9,2.5-4.6l1.1,0.3
		c-0.2,0.5-0.4,1-0.6,1.4h6.7v1H84z M90.4,173c-0.1,0.9-0.1,1.7-0.2,2.3h1v1h-1.1c-0.1,0.8-0.3,1.3-0.5,1.5c-0.3,0.4-0.6,0.5-1,0.5
		c-0.4,0-1.2,0-1.9,0c0-0.3-0.1-0.7-0.3-1c0.8,0.1,1.5,0.1,1.7,0.1c0.3,0,0.4,0,0.6-0.2c0.1-0.1,0.2-0.4,0.3-0.9h-6.6
		c0.2-0.9,0.4-2.1,0.5-3.3h-1.4v-1h1.5c0.1-1.1,0.3-2.1,0.4-3h7.1c0,0,0,0.4,0,0.5c0,0.9-0.1,1.8-0.1,2.5h1.2v1H90.4z M89.2,175.3
		c0.1-0.6,0.1-1.4,0.2-2.3h-5.4c-0.1,0.8-0.2,1.6-0.3,2.3H89.2z M84.5,169.9c-0.1,0.7-0.2,1.4-0.3,2.1h3.1c-0.3-0.5-1-1.2-1.6-1.7
		l0.6-0.4H84.5z M85.9,173c0.7,0.5,1.5,1.2,1.8,1.8l-0.7,0.5c-0.3-0.5-1.1-1.3-1.8-1.8L85.9,173z M86.4,169.9
		c0.6,0.5,1.3,1.1,1.6,1.6l-0.6,0.4h2.1c0-0.6,0.1-1.3,0.1-2.1H86.4z"/>
	<path class="st0" d="M95.7,169.7c-0.2,1.3-0.7,2.6-1.6,3.7c-0.2-0.2-0.6-0.5-0.9-0.6c1.4-1.7,1.6-3.9,1.6-5.5v-1.8H106v0.9H95.9
		v0.9h9.1v0.8h-9.2c0,0.3,0,0.6-0.1,0.9h10.7v0.8h-6c0.7,0.3,1.5,0.8,2.3,1.2c0.7-0.3,1.6-0.7,2.1-1l0.8,0.5
		c-0.7,0.4-1.5,0.7-2.2,0.9c0.8,0.4,1.5,0.9,2,1.3l-0.6,0.7c-1.2-0.9-3.5-2.2-5.3-3.1l0.4-0.5h-1.9v2.3l2.5-0.3c0,0.3,0,0.7,0.1,0.8
		c-3.1,0.5-3.6,0.6-3.9,0.7c-0.1-0.3-0.2-0.6-0.4-0.8c0.3-0.1,0.6-0.3,0.6-0.8v-1.8H95.7z M106.8,174.9h-3.1v2.2
		c0,0.6-0.1,0.9-0.6,1.1c-0.5,0.2-1.3,0.2-2.6,0.2c0-0.3-0.2-0.7-0.4-1c1,0,1.9,0,2.1,0c0.3,0,0.3-0.1,0.3-0.3v-2.2h-9.2v-0.9h9.2
		v-1.2h1.1v1.2h3.1V174.9z M96.5,174.9c0.9,0.5,2,1.3,2.6,1.9l-0.8,0.7c-0.5-0.6-1.6-1.4-2.5-1.9L96.5,174.9z"/>
	<path class="st0" d="M115,164.9c0,0.5,0,1.3-0.1,2.2c0.2,1.8,1.1,8,6.4,10.3c-0.3,0.3-0.6,0.6-0.8,0.9c-3.7-1.7-5.3-5.4-6-8.2
		c-0.7,3-2.3,6.3-5.9,8.2c-0.2-0.3-0.6-0.6-0.9-0.9c6.2-3.1,6.1-10.4,6.1-12.6H115z"/>
</g>
<g>
	<path class="st0" d="M68.3,233.8c-1.1,2.4-2.7,4.8-4.4,6.3c-0.2-0.2-0.7-0.7-1-0.9c1.7-1.4,3.2-3.6,4.1-5.8L68.3,233.8z
		 M72.5,240.9c1.2,1.6,2.6,3.7,3.3,5l-1.1,0.6c-0.2-0.4-0.5-0.9-0.8-1.4c-7.7,0.5-8.5,0.6-9.1,0.8c0-0.2-0.3-0.8-0.4-1.2
		c0.4-0.1,0.8-0.6,1.4-1.3c0.6-0.7,2.5-3.3,3.7-5.9l1.2,0.5c-1.3,2.3-2.8,4.6-4.4,6.4l6.9-0.4c-0.6-0.9-1.2-1.9-1.8-2.7L72.5,240.9z
		 M72.8,233.4c0.7,2.3,2.2,4.6,3.9,5.7c-0.3,0.2-0.7,0.7-0.9,1c-1.7-1.2-3.1-3.4-3.9-5.6h-2.8v-1.1H72.8z"/>
	<path class="st0" d="M77.9,246.2c0.7-0.7,1.4-1.8,1.9-2.8l1,0.3c-0.5,1-1.3,2.2-1.9,3L77.9,246.2z M84.9,234.5
		c-0.9,4.4-3.2,6.9-6,8.2c-0.1-0.2-0.5-0.7-0.8-0.8c1.8-0.7,3.3-2,4.3-3.7c-0.5-0.6-1.3-1.3-2.1-1.9c-0.6,0.8-1.2,1.6-2,2.2
		c-0.1-0.3-0.3-0.7-0.5-0.9c1.4-1.2,2.5-3.2,3-4.8l1,0.3c-0.1,0.4-0.3,0.8-0.5,1.1h2.5l0.2,0L84.9,234.5z M81.4,239.1
		c-1,0.3-2,0.6-2.9,0.9l-0.3-0.9c0.8-0.2,1.9-0.5,3.1-0.8L81.4,239.1z M81.1,235.2c-0.1,0.1-0.2,0.3-0.3,0.4
		c0.7,0.5,1.5,1.2,2.1,1.7c0.3-0.7,0.6-1.4,0.8-2.2H81.1z M83.4,243.6c0.2,0.9,0.3,2,0.4,2.7l-1.1,0.1c0-0.7-0.1-1.8-0.3-2.7
		L83.4,243.6z M90.5,242.8c-0.5-1.2-1.6-3.2-2.7-4.8c-0.5,1.7-1.5,3.5-3.7,5c-0.2-0.2-0.6-0.5-0.8-0.7c2.3-1.5,3.2-3.4,3.6-5.1h-2.2
		v-1.1h2.4c0.1-0.5,0.1-0.9,0.1-1.4v-1.6h1.1v1.6c0,0.4,0,0.9-0.1,1.4h3.2v1.1h-2.8c1.2,1.7,2.4,3.8,3,5.1L90.5,242.8z M86.4,243.5
		c0.4,0.8,0.8,2,1,2.7l-1.1,0.2c-0.1-0.7-0.5-1.8-0.9-2.7L86.4,243.5z M89.5,243.2c0.7,0.9,1.6,2.1,2,2.9l-1,0.5
		c-0.4-0.8-1.2-2.1-1.9-3L89.5,243.2z M90.2,235.8c-0.3-0.5-1-1.4-1.6-2l0.8-0.5c0.6,0.6,1.3,1.4,1.6,2L90.2,235.8z"/>
	<path class="st0" d="M96.6,233.4c-0.3,1-0.7,2-1.1,2.9v10.3h-1.1v-8.2c-0.4,0.7-0.8,1.3-1.2,1.9c-0.1-0.3-0.4-0.8-0.6-1.1
		c1.2-1.5,2.3-3.8,3-6L96.6,233.4z M98.7,235.7c-0.5,1-1.1,1.8-1.6,2.5c-0.2-0.2-0.7-0.5-0.9-0.6c1.1-1.1,2-2.9,2.5-4.6l1.1,0.3
		c-0.2,0.5-0.4,1-0.6,1.4h6.7v1H98.7z M105.2,241.1c-0.1,0.9-0.1,1.7-0.2,2.3h1v1h-1.1c-0.1,0.8-0.3,1.3-0.5,1.5
		c-0.3,0.4-0.6,0.5-1,0.5c-0.4,0-1.2,0-1.9,0c0-0.3-0.1-0.7-0.3-1c0.8,0.1,1.5,0.1,1.7,0.1c0.3,0,0.4,0,0.6-0.2
		c0.1-0.1,0.2-0.4,0.3-0.9h-6.6c0.2-0.9,0.4-2.1,0.5-3.3h-1.4v-1h1.5c0.1-1.1,0.3-2.1,0.4-3h7.1c0,0,0,0.4,0,0.5
		c0,0.9-0.1,1.8-0.1,2.5h1.2v1H105.2z M103.9,243.4c0.1-0.6,0.1-1.4,0.2-2.3h-5.4c-0.1,0.8-0.2,1.6-0.3,2.3H103.9z M99.2,238.1
		c-0.1,0.7-0.2,1.4-0.3,2.1h3.1c-0.3-0.5-1-1.2-1.6-1.7l0.6-0.4H99.2z M100.7,241.2c0.7,0.5,1.5,1.2,1.8,1.8l-0.7,0.5
		c-0.3-0.5-1.1-1.3-1.8-1.8L100.7,241.2z M101.1,238.1c0.6,0.5,1.3,1.1,1.6,1.6l-0.6,0.4h2.1c0-0.6,0.1-1.3,0.1-2.1H101.1z"/>
	<path class="st0" d="M110.1,237.9c-0.2,1.3-0.7,2.6-1.6,3.7c-0.2-0.2-0.6-0.5-0.9-0.6c1.4-1.7,1.6-3.9,1.6-5.5v-1.8h11.2v0.9h-10.1
		v0.9h9.1v0.8h-9.2c0,0.3,0,0.6-0.1,0.9h10.7v0.8h-6c0.7,0.3,1.5,0.8,2.3,1.2c0.7-0.3,1.6-0.7,2.1-1l0.8,0.5
		c-0.7,0.4-1.5,0.7-2.2,0.9c0.8,0.4,1.5,0.9,2,1.3l-0.6,0.7c-1.2-0.9-3.5-2.2-5.3-3.1l0.4-0.5h-1.9v2.3l2.5-0.3c0,0.3,0,0.7,0.1,0.8
		c-3.1,0.5-3.6,0.6-3.9,0.7c-0.1-0.3-0.2-0.6-0.4-0.8c0.3-0.1,0.6-0.3,0.6-0.8v-1.8H110.1z M121.1,243.1H118v2.2
		c0,0.6-0.1,0.9-0.6,1.1c-0.5,0.2-1.3,0.2-2.6,0.2c0-0.3-0.2-0.7-0.4-1c1,0,1.9,0,2.1,0c0.3,0,0.3-0.1,0.3-0.3v-2.2h-9.2v-0.9h9.2
		v-1.2h1.1v1.2h3.1V243.1z M110.9,243.1c0.9,0.5,2,1.3,2.6,1.9l-0.8,0.7c-0.5-0.6-1.6-1.4-2.5-1.9L110.9,243.1z"/>
	<path class="st0" d="M127.2,237.6h1.1v4c0,2.2-0.6,3.9-4,4.9c-0.1-0.3-0.4-0.6-0.7-0.8c1.8-0.5,2.7-1.2,3.2-2
		c-1.5,0.2-2.9,0.5-4,0.6l-0.1-1c1.2-0.1,2.8-0.4,4.5-0.6c0.1-0.3,0.1-0.7,0.1-1.1h-3.7v-0.9h3.7v-1.1h-4.1v-1h4.1V237.6z
		 M135.3,237.3h-11.9v-3.7h11.9V237.3z M127,234.5h-2.5v1.8h2.5V234.5z M130.6,234.5H128v1.8h2.6V234.5z M136,244.1h-4.6v2.4h-1.1
		v-8.9h1.1v1.1h4.3v1h-4.3v1.1h3.9v1h-3.9v1.4h4.6V244.1z M134.2,234.5h-2.6v1.8h2.6V234.5z"/>
</g>
<g>
	<path class="st0" d="M65.2,304.2l-1.7,0.6v4.2c0,0.6-0.1,0.9-0.5,1.1c-0.3,0.2-0.9,0.2-1.9,0.2c0-0.3-0.2-0.8-0.3-1.1
		c0.6,0,1.2,0,1.4,0c0.2,0,0.3-0.1,0.3-0.3v-3.8c-0.6,0.2-1.2,0.4-1.7,0.6l-0.3-1.1c0.6-0.2,1.2-0.4,2-0.6v-3.3h-1.8v-1h1.8v-2.9
		h1.1v2.9h1.6v1h-1.6v3l1.5-0.5L65.2,304.2z M73.8,299.1v0.6c-0.2,6.9-0.4,9.2-1,9.9c-0.3,0.4-0.6,0.6-1.1,0.6c-0.5,0-1.3,0-2.1,0
		c0-0.3-0.1-0.8-0.4-1.1c0.9,0.1,1.7,0.1,2.1,0.1c0.3,0,0.4,0,0.6-0.2c0.5-0.5,0.7-2.7,0.9-8.8h-5.5c-0.5,0.9-1,1.8-1.6,2.4
		c-0.2-0.2-0.6-0.5-0.9-0.7c1.2-1.3,2.1-3.2,2.8-5.2l1.1,0.2c-0.2,0.7-0.5,1.5-0.8,2.2h5.4v0H73.8z M67.3,306.8v1h-1v-5.9h4.5v4.9
		H67.3z M67.3,302.9v3h2.5v-3H67.3z"/>
	<path class="st0" d="M79.9,300.4c-0.3,0.6-0.8,1.3-1.2,1.9v8h-1.1v-6.7c-0.5,0.6-1.1,1.1-1.6,1.5c-0.1-0.2-0.4-0.8-0.6-1.1
		c1.3-1,2.7-2.5,3.5-4L79.9,300.4z M79.7,297.1c-0.8,1.3-2.2,2.7-3.5,3.6c-0.1-0.3-0.4-0.7-0.6-0.9c1.1-0.8,2.4-2,3-3L79.7,297.1z
		 M88.1,303.5c-0.6,1.8-1.7,3.2-3.1,4.3c1.2,0.7,2.6,1.2,4.1,1.5c-0.2,0.3-0.6,0.7-0.7,1c-1.7-0.4-3.2-1-4.4-1.9
		c-1.3,0.8-2.9,1.4-4.5,1.8c-0.1-0.3-0.4-0.8-0.6-1c1.5-0.3,2.9-0.8,4.2-1.5c-1.1-1-1.9-2.1-2.6-3.5l0.2-0.1h-0.8v-1h7.2l0.2,0
		L88.1,303.5z M82.6,299c0,1.4-0.5,3-2.6,4c-0.1-0.2-0.5-0.6-0.7-0.8c1.9-0.9,2.3-2.1,2.3-3.2v-1.8h5v3.4c0,0.4,0.1,0.6,0.3,0.6h1.3
		c0.2,0,0.6,0,0.8-0.1c0,0.3,0.1,0.7,0.1,1c-0.2,0.1-0.6,0.1-0.9,0.1h-1.4c-1.1,0-1.3-0.4-1.3-1.5v-2.4h-2.9V299z M81.7,304.2
		c0.6,1.1,1.4,2.1,2.4,2.9c1.1-0.8,1.9-1.7,2.5-2.9H81.7z"/>
	<path class="st0" d="M97.4,307.8c-2.3,0.5-4.7,1-6.4,1.4l-0.2-1.1c1.6-0.3,4.1-0.8,6.5-1.3L97.4,307.8z M103.1,301.5
		c-0.6,2-1.5,3.7-2.6,5.2c0.6,1.5,1.2,2.5,1.9,2.5c0.4,0,0.6-0.8,0.7-2.8c0.3,0.3,0.7,0.5,1,0.6c-0.2,2.5-0.6,3.3-1.8,3.3
		c-1.1,0-2-1-2.7-2.6c-0.9,1-2,1.9-3.1,2.6c-0.2-0.2-0.6-0.7-0.9-0.8c1.4-0.7,2.6-1.7,3.6-2.9c-0.5-1.7-0.8-3.9-1-6.4h-7.3v-1.1h7.2
		c0-0.8-0.1-1.5-0.1-2.3h1.2c0,0.8,0,1.6,0,2.3h4.5v1.1h-4.4c0.1,2,0.4,3.7,0.8,5.2c0.8-1.2,1.4-2.6,1.9-4.1L103.1,301.5z
		 M96.8,301.5v4.5h-5.1v-4.5H96.8z M95.7,302.4h-3v2.6h3V302.4z M102.5,299c-0.5-0.5-1.6-1.2-2.5-1.6l0.6-0.7c0.9,0.4,2,1,2.6,1.5
		L102.5,299z"/>
	<path class="st0" d="M106.3,307.4c0.5,0.5,1.1,0.8,1.8,0.8c1.4,0,2.6-1.2,2.7-4.6c-0.7,0.8-1.6,1.4-2.5,1.4c-1.8,0-3-1.2-3-3.4
		c0-2.1,1.4-3.5,3.1-3.5c2.1,0,3.7,1.7,3.7,5.2c0,4.4-1.9,6.1-4,6.1c-1.2,0-2-0.5-2.6-1.1L106.3,307.4z M110.8,302.5
		c-0.1-2.2-1-3.4-2.4-3.4c-1,0-1.8,1-1.8,2.5c0,1.5,0.7,2.4,1.9,2.4C109.3,304,110.1,303.6,110.8,302.5z"/>
	<path class="st0" d="M113.6,303.6c0-3.8,1.3-5.6,3.4-5.6c2.1,0,3.4,1.8,3.4,5.6c0,3.8-1.3,5.7-3.4,5.7
		C115,309.3,113.6,307.4,113.6,303.6z M119.1,303.6c0-3.2-0.8-4.5-2.1-4.5c-1.2,0-2.1,1.3-2.1,4.5c0,3.2,0.8,4.6,2.1,4.6
		C118.3,308.2,119.1,306.9,119.1,303.6z"/>
	<path class="st0" d="M121.9,303.6c0-3.8,1.3-5.6,3.4-5.6c2.1,0,3.4,1.8,3.4,5.6c0,3.8-1.3,5.7-3.4,5.7
		C123.2,309.3,121.9,307.4,121.9,303.6z M127.4,303.6c0-3.2-0.8-4.5-2.1-4.5c-1.2,0-2.1,1.3-2.1,4.5c0,3.2,0.8,4.6,2.1,4.6
		C126.5,308.2,127.4,306.9,127.4,303.6z"/>
	<path class="st0" d="M130.1,303.6c0-3.8,1.3-5.6,3.4-5.6c2.1,0,3.4,1.8,3.4,5.6c0,3.8-1.3,5.7-3.4,5.7
		C131.5,309.3,130.1,307.4,130.1,303.6z M135.6,303.6c0-3.2-0.8-4.5-2.1-4.5c-1.2,0-2.1,1.3-2.1,4.5c0,3.2,0.8,4.6,2.1,4.6
		C134.8,308.2,135.6,306.9,135.6,303.6z"/>
	<path class="st0" d="M72.4,326.8c0.6,0,0.7-0.4,0.8-2.7c0.3,0.2,0.7,0.4,1,0.5c-0.1,2.5-0.4,3.2-1.7,3.2h-2.1
		c-1.3,0-1.7-0.4-1.7-1.7V321h-2.8c-0.3,3.2-1,5.8-4.4,7.2c-0.1-0.3-0.4-0.7-0.7-0.9c3.2-1.2,3.7-3.5,3.9-6.3H61v-1.1h13v1.1h-4.2
		v5.3c0,0.5,0.1,0.6,0.7,0.6H72.4z M72.8,316.8H62.3v-1.1h10.5V316.8z"/>
	<path class="st0" d="M81.8,323.9c-2.1,0.9-4.3,1.9-5.9,2.6l-0.4-1.1c0.6-0.2,1.3-0.5,2.1-0.8l-0.3-9.2l1.1,0l0.2,8.8
		c1-0.4,1.9-0.8,2.9-1.2L81.8,323.9z M88.4,328.1c-0.7-1-2.1-2.6-3.3-3.9c-1.2,1.8-2.8,3-5.1,4c-0.1-0.2-0.6-0.7-0.9-1
		c5.1-1.9,6.7-5.5,7.3-11.9l1.2,0.1c-0.4,3.2-0.9,5.7-2,7.7c1.3,1.3,2.9,3,3.7,4.1L88.4,328.1z M82.6,320.5c-0.4-1-1.4-2.5-2.3-3.6
		l1-0.5c1,1.1,1.9,2.5,2.3,3.6L82.6,320.5z"/>
	<path class="st0" d="M97.5,316.8v2.6l0.2-0.2c1.8,0.8,4.1,2.2,5.3,3.1l-0.8,1c-1-0.8-3-2.1-4.7-3v7.8h-1.2v-11.4h-5.7v-1.1h13.1
		v1.1H97.5z"/>
	<path class="st0" d="M109.6,320.6h3v0.8h-7.1v-0.8h3.5c-0.4-0.4-0.9-0.9-1.4-1.3l0.7-0.6c0.7,0.4,1.4,1.1,1.7,1.5L109.6,320.6z
		 M117.9,318.4h-11.6v-3.3h11.6V318.4z M111.9,327.6h-4.5v0.5h-1V325h5.5V327.6z M106.5,323.5h5.3v0.7h-5.3V323.5z M111.8,322.8
		h-5.3v-0.7h5.3V322.8z M109.7,316h-2.4v1.6h2.4V316z M107.4,325.7v1.2h3.5v-1.2H107.4z M113.2,316h-2.5v1.6h2.5V316z M114.7,325.8
		h-1v-6.3h1V325.8z M116.8,316h-2.5v1.6h2.5V316z M118,319v7.9c0,0.7-0.2,1-0.6,1.1c-0.5,0.2-1.3,0.2-2.5,0.2c0-0.3-0.2-0.7-0.4-1
		c1,0,1.9,0,2.1,0c0.3,0,0.4-0.1,0.4-0.3V319H118z"/>
	<path class="st0" d="M127.5,320v2h5.2v1h-5.2v3.6h5.9v1h-12.8v-1h5.8v-3.6h-5.1v-1h5.1v-2h-3.2v-0.8c-0.8,0.4-1.6,0.8-2.4,1.1
		c-0.2-0.3-0.5-0.8-0.7-1c2.8-0.9,5.5-2.6,6.9-4.8l1,0.5c-0.1,0.2-0.2,0.4-0.4,0.5c1.5,1.6,4.1,3.1,6.3,3.8c-0.3,0.2-0.6,0.7-0.8,1
		c-0.8-0.3-1.6-0.7-2.4-1.1v0.9H127.5z M123.4,323.4c0.6,0.8,1.2,1.9,1.4,2.7l-1,0.4c-0.2-0.7-0.8-1.9-1.4-2.7L123.4,323.4z
		 M130.6,319c-1.3-0.8-2.6-1.8-3.6-2.8c-1,1.1-2.2,2-3.5,2.8H130.6z M128.9,326.1c0.5-0.7,1.2-1.9,1.5-2.7l1,0.4
		c-0.5,0.9-1.2,2-1.8,2.7L128.9,326.1z"/>
</g>
<g>
	<path class="st0" d="M168.5,152.3h-7.2v-1h1.7v-1.8h-1.5v-0.9h1.5V147h1v1.7h1.9V147h1v1.7h1.5v0.9h-1.5v1.8h1.5V152.3z
		 M167.6,159.3c0,0.5-0.1,0.8-0.5,1c-0.4,0.2-1,0.2-1.8,0.2c0-0.3-0.2-0.7-0.3-0.9c0.6,0,1.2,0,1.4,0c0.2,0,0.2,0,0.2-0.2v-1.8
		c-1,0.4-2.1,0.9-3,1.2l-0.4-0.9c0.9-0.3,2.1-0.7,3.4-1.1V154h-3.3v2c0,1.4-0.2,3.3-1.1,4.5c-0.2-0.2-0.6-0.5-0.8-0.6
		c0.9-1.2,1-2.7,1-3.9v-2.8h5.3V159.3z M164,154.6c0.8,0.4,1.8,0.9,2.2,1.2l-0.5,0.7c-0.5-0.4-1.4-1-2.2-1.3L164,154.6z M164,151.4
		h1.9v-1.8H164V151.4z M173.9,150.7c-0.3,2.4-0.8,4.4-1.7,6.1c0.7,1.2,1.6,2.2,2.8,2.8c-0.3,0.2-0.6,0.6-0.7,0.9
		c-1.1-0.6-1.9-1.6-2.6-2.7c-0.7,1.1-1.7,2-2.9,2.7c-0.1-0.2-0.4-0.7-0.6-0.9c1.3-0.7,2.2-1.7,2.9-2.9c-0.6-1.3-1.1-2.8-1.4-4.4
		c-0.3,0.7-0.6,1.4-1,1.9c-0.1-0.2-0.5-0.7-0.7-0.9c1.1-1.6,1.7-4,2.1-6.5l1,0.2c-0.1,0.9-0.3,1.8-0.5,2.6h4.4v1H173.9z
		 M171.6,155.6c0.6-1.4,1-3,1.2-5h-2.7C170.5,152.5,170.9,154.2,171.6,155.6z"/>
	<path class="st0" d="M180.5,147.2c-0.4,1.1-0.9,2.2-1.5,3.2v10h-1v-8.3c-0.5,0.7-1,1.3-1.5,1.8c-0.1-0.3-0.4-0.8-0.6-1.1
		c1.5-1.4,2.8-3.6,3.7-5.9L180.5,147.2z M183.5,150.1c-0.4,0.9-0.8,1.7-1.3,2.5h2.4v-1.9h1.1v1.9h3.4v4.6c0,0.5-0.1,0.8-0.5,1
		c-0.4,0.2-1,0.2-1.9,0.2c0-0.3-0.2-0.7-0.3-1c0.7,0,1.2,0,1.4,0c0.2,0,0.2-0.1,0.2-0.2v-3.6h-2.3v6.8h-1.1v-6.8h-2.1v4.9h-1v-4.9
		c-0.5,0.6-1,1.1-1.5,1.5c-0.1-0.2-0.5-0.7-0.8-0.9c1.3-1.1,2.4-2.5,3.2-4.3h-2.5v-1h3c0.3-0.7,0.5-1.5,0.7-2.3l1.1,0.2
		c-0.2,0.7-0.4,1.4-0.7,2.1h5.8v1H183.5z"/>
	<path class="st0" d="M194.2,154.8v4.3c0,0.6-0.1,0.9-0.5,1.1c-0.4,0.2-1,0.2-2,0.2c0-0.3-0.2-0.7-0.3-1c0.7,0,1.3,0,1.5,0
		c0.2,0,0.3-0.1,0.3-0.3v-4l-2,0.6l-0.3-1.1c0.6-0.2,1.4-0.4,2.3-0.6v-3.2H191v-1h2.1v-3h1.1v3h1.7v1h-1.7v2.9l1.7-0.5l0.1,1
		L194.2,154.8z M198.3,157.9l1,0.6c-0.9,0.8-2.3,1.5-3.5,1.9c-0.2-0.2-0.5-0.6-0.8-0.8C196.2,159.3,197.6,158.5,198.3,157.9h-1.7
		v-6.5h7.3v6.5H198.3z M203.6,150.6H197v-3.2h6.5V150.6z M197.7,153.3h5.2v-1.1h-5.2V153.3z M197.7,155.2h5.2v-1.1h-5.2V155.2z
		 M197.7,157.1h5.2V156h-5.2V157.1z M202.5,148.2H198v1.5h4.5V148.2z M201.8,157.9c1.1,0.6,2.2,1.4,2.9,1.9l-1.1,0.6
		c-0.6-0.6-1.7-1.3-2.6-1.9L201.8,157.9z"/>
	<path class="st0" d="M212.8,158.7c-2.4,0.3-4.9,0.7-6.7,1l-0.2-1.1c0.8-0.1,1.8-0.2,2.9-0.4v-2h-2.5v-1h2.5v-1.4h1v1.4h2.6v1h-2.6
		v1.8c1-0.1,2-0.3,2.9-0.4L212.8,158.7z M212.4,153.5h-5.9v-5.3c0.7-0.3,1.8-0.8,2.4-1.2l0.6,0.7c-0.6,0.4-1.4,0.7-2.1,0.9v1.5h1.5
		v0.9h-1.5v1.5h4v-1.5h-1.7v-0.9h1.7v-1.5h-1.7v-0.9h2.7V153.5z M218.8,153.6c-0.5,1.7-1.3,3.1-2.3,4.2c0.8,0.8,1.8,1.4,3,1.7
		c-0.3,0.2-0.6,0.7-0.7,0.9c-1.2-0.4-2.2-1.1-3-1.9c-1,0.9-2.2,1.5-3.5,2c-0.1-0.3-0.4-0.7-0.6-0.9c1.2-0.4,2.4-1,3.4-1.8
		c-0.7-0.9-1.2-1.9-1.6-3.1l1-0.3c0.3,1,0.8,1.9,1.4,2.6c0.7-0.7,1.2-1.6,1.6-2.6h-4.6v-1h5.1l0.2,0L218.8,153.6z M214.7,149.6
		c0,1.2-0.3,2.7-1.6,3.6c-0.1-0.2-0.5-0.6-0.7-0.7c1.2-0.8,1.3-2,1.3-2.9v-2.1h4.1v3.5c0,0.4,0,0.5,0.2,0.5h0.7c0.2,0,0.4,0,0.6-0.1
		c0,0.3,0.1,0.7,0.1,0.9c-0.2,0.1-0.4,0.1-0.7,0.1H218c-1,0-1.1-0.4-1.1-1.5v-2.5h-2.1V149.6z"/>
	<path class="st0" d="M225.1,147.2c-0.4,1.1-1,2.2-1.5,3.2v9.9h-1.1v-8.3c-0.5,0.7-1,1.3-1.5,1.8c-0.1-0.3-0.4-0.8-0.6-1.1
		c1.5-1.4,2.8-3.6,3.7-5.9L225.1,147.2z M232.2,159.3c0.9,0,1.1-0.4,1.2-2.1c0.3,0.2,0.7,0.4,1,0.4c-0.2,2.1-0.5,2.7-2.2,2.7h-3.9
		c-1.8,0-2.3-0.4-2.3-2.1v-4.9l-1.5,0.6l-0.4-1l1.9-0.7v-3.9h1v3.5l2.2-0.9v-4.1h1v3.7l2.5-1l0.2-0.2l0.8,0.3l0,0.2
		c0,2.1-0.2,5-0.4,6.7l-0.9-0.3c0.1-1.4,0.2-3.7,0.3-5.6l-2.4,0.9v5.4h-1v-5l-2.2,0.9v5.3c0,0.9,0.2,1.1,1.2,1.1H232.2z"/>
	<path class="st0" d="M168.6,164.9c0,0.5,0,1.3-0.1,2.2c0.2,1.8,1.1,8,6.4,10.3c-0.3,0.3-0.6,0.6-0.8,0.9c-3.7-1.7-5.3-5.4-6-8.2
		c-0.7,3-2.3,6.3-5.9,8.2c-0.2-0.3-0.6-0.6-0.9-0.9c6.2-3.1,6.1-10.4,6.1-12.6H168.6z"/>
	<path class="st0" d="M187.6,178.4h-1.1v-0.8h-6.6v0.8h-1.1v-4.9c-0.8,0.3-1.7,0.5-2.5,0.7c-0.1-0.3-0.3-0.8-0.6-1
		c1.9-0.4,3.9-1.1,5.6-2c-0.7-0.7-1.8-1.6-2.8-2.3c-0.5,0.4-1.1,0.7-1.7,1c-0.2-0.3-0.5-0.7-0.8-0.8c2.4-1.2,4.1-2.8,5-4.2l1.2,0.3
		c-0.3,0.4-0.6,0.8-1,1.3h5.3l0.2-0.1l0.7,0.5c-1.2,2.4-3.4,4.2-5.8,5.5h5.9V178.4z M180.4,167.3c-0.3,0.3-0.7,0.6-1,0.9
		c1,0.7,2.3,1.7,3,2.3c1.4-0.9,2.7-2,3.5-3.2H180.4z M186.5,176.6v-3.4h-6.6v3.4H186.5z"/>
	<path class="st0" d="M201.2,170.4c0.9,0.9,2.3,1.7,3.6,2c-0.2,0.2-0.5,0.6-0.7,0.8c-0.7-0.3-1.5-0.6-2.1-1.1v0.3h-8.4v-0.2
		c-0.7,0.4-1.4,0.8-2.1,1.1c-0.1-0.3-0.4-0.6-0.7-0.8c1.4-0.4,2.8-1.2,3.7-2.2h-3.3v-0.8h1.6l-0.2-4c0.9-0.2,2.1-0.4,2.7-0.7
		l0.6,0.7c-0.7,0.2-1.5,0.4-2.3,0.5l0,0.6h2v0.7h-2l0,0.7h1.9v0.7h-1.9l0.1,0.8h8l0.1-0.8H200v-0.7h1.9l0.1-0.7h-2v-0.7h2.1l0-0.7
		h-2.1v-0.7h3.2c-0.1,1.4-0.2,3.1-0.3,4.3h1.7v0.8H201.2z M193.1,175.5h9.5v2.8h-1.1v-0.6h-7.4v0.6h-1V175.5z M202.3,173.7h-8.9
		v-0.6h8.9V173.7z M193.3,174.3h8.9v0.6h-8.9V174.3z M194.1,176.2v1h7.4v-1H194.1z M201.5,171.8c-0.6-0.4-1.1-0.9-1.5-1.4h-4.3
		c-0.4,0.5-0.9,1-1.4,1.4h3.3c-0.2-0.3-0.4-0.6-0.6-0.9l1-0.2c0.3,0.3,0.6,0.7,0.7,1.1H201.5z M197.5,167.9
		c-0.1,0.5-0.4,1.2-0.7,1.6l-0.7-0.3c0.3-0.4,0.6-1,0.7-1.5L197.5,167.9z M199.5,167.2c0,1.3-0.1,1.8-0.3,2
		c-0.1,0.2-0.3,0.3-0.6,0.3c-0.2,0-0.6,0-0.9,0c0-0.2-0.1-0.4-0.2-0.6c0.3,0,0.6,0,0.7,0c0.1,0,0.2,0,0.2-0.1
		c0.1-0.1,0.1-0.4,0.1-1.3h-2.2v-2.6h0.8v0.7h2.3v0.7h-2.3v0.6h2.2V167.2z"/>
</g>
<g>
	<path class="st0" d="M175.7,235.5h4.9v0.9h-4.9V235.5z M180.2,238.4h-3.9v-0.9h3.9V238.4z M176.3,239.4h3.9v0.9h-3.9V239.4z
		 M180.3,245.7h-3.1v0.7h-1v-5h4V245.7z M178.3,235.4c-0.2-0.5-0.7-1.4-1.1-2l0.8-0.4c0.4,0.6,0.9,1.4,1.1,1.9L178.3,235.4z
		 M177.3,242.3v2.5h2.1v-2.5H177.3z M183.2,233h1v7c0,2.8-0.3,5.1-2.4,6.6c-0.2-0.2-0.6-0.6-0.8-0.7c1.3-0.9,1.9-2.1,2.1-3.5
		c-0.7,0.3-1.4,0.6-2,0.8l-0.4-1c0.7-0.2,1.6-0.5,2.5-0.8c0-0.5,0-1,0-1.5v-0.4h-2.1v-1h2.1v-2.1h-2.1v-1h2.1V233z M189.2,242.7
		h-2.6v3.9h-1.1V233h1.1v2.5h2.5v1h-2.5v2.1h2.3v1h-2.3v2.1h2.6V242.7z"/>
	<path class="st0" d="M190.5,235.5h5v0.9h-5V235.5z M195,238.4h-3.9v-0.9h3.9V238.4z M191.1,239.4h3.9v0.9h-3.9V239.4z M195.1,245.7
		H192v0.7h-0.9v-5h4V245.7z M192,242.3v2.5h2.2v-2.5H192z M193.1,235.4c-0.2-0.5-0.6-1.4-1-2l0.8-0.4c0.4,0.6,0.8,1.4,1,1.9
		L193.1,235.4z M200.1,238.6c0.2,0.5,0.3,1,0.4,1.5h3.1v1h-4.4c0,0.5-0.1,1-0.1,1.4h3.9c0,0,0,0.3,0,0.4c-0.2,2.2-0.4,3.1-0.7,3.5
		c-0.2,0.3-0.5,0.3-0.8,0.4c-0.3,0-0.9,0-1.6,0c0-0.3-0.1-0.7-0.3-1c0.6,0.1,1.2,0.1,1.4,0.1c0.2,0,0.3,0,0.4-0.1
		c0.2-0.2,0.3-0.8,0.5-2.3h-3c-0.4,1.5-1.2,2.6-2.8,3.3c-0.1-0.3-0.4-0.6-0.6-0.8c2.1-0.9,2.5-2.5,2.7-4.8h-2.1v-1h3.4
		c-0.1-0.4-0.2-0.9-0.3-1.3L200.1,238.6z M203.9,237.2v2.3h-1v-1.5h-6v1.5h-1v-2.3h4.8c0.2-0.6,0.5-1.3,0.7-1.9h-3
		c0.2,0.6,0.4,1.2,0.5,1.7l-1,0.3c-0.1-0.5-0.3-1.2-0.5-1.8l0.6-0.1h-2v-0.9h3.5c-0.1-0.4-0.2-1-0.3-1.4l1-0.1
		c0.2,0.5,0.3,1.1,0.4,1.5h3v0.9h-1.4l0.3,0.1c-0.3,0.6-0.5,1.3-0.8,1.9H203.9z"/>
	<path class="st0" d="M210.1,237.6h1.1v4c0,2.2-0.6,3.9-4,4.9c-0.1-0.3-0.4-0.6-0.7-0.8c1.8-0.5,2.7-1.2,3.2-2
		c-1.5,0.2-2.9,0.5-4,0.6l-0.1-1c1.2-0.1,2.8-0.4,4.5-0.6c0.1-0.3,0.1-0.7,0.1-1.1h-3.7v-0.9h3.7v-1.1h-4.1v-1h4.1V237.6z
		 M218.2,237.3h-11.9v-3.7h11.9V237.3z M209.9,234.5h-2.5v1.8h2.5V234.5z M213.5,234.5h-2.6v1.8h2.6V234.5z M218.9,244.1h-4.6v2.4
		h-1.1v-8.9h1.1v1.1h4.3v1h-4.3v1.1h3.9v1h-3.9v1.4h4.6V244.1z M217.1,234.5h-2.6v1.8h2.6V234.5z"/>
</g>
<g>
	<path class="st0" d="M156.9,308h2.4v-8.1h-1.9V299c1-0.2,1.7-0.4,2.3-0.8h1v9.8h2.2v1.1h-6V308z"/>
	<path class="st0" d="M180.5,306.9h-5.4v3.4H174v-3.4h-6.9v-1.1h2.4v-4h4.4v-2.3h-3.6c-0.7,1.1-1.5,2.2-2.3,2.9
		c-0.2-0.2-0.7-0.6-1-0.7c1.4-1.2,2.6-3.1,3.3-5.1l1.1,0.3c-0.2,0.5-0.4,1.1-0.7,1.6h8.9v1.1h-4.7v2.3h4.4v1h-4.4v2.9h5.4V306.9z
		 M174,305.8v-2.9h-3.3v2.9H174z"/>
	<path class="st0" d="M188.2,306.1c-2.1,0.9-4.3,1.9-5.9,2.6l-0.4-1.1c0.6-0.2,1.3-0.5,2.1-0.8l-0.3-9.2l1.1,0l0.2,8.8
		c1-0.4,1.9-0.8,2.9-1.2L188.2,306.1z M194.7,310.3c-0.7-1-2.1-2.6-3.3-3.9c-1.2,1.8-2.8,3-5.1,4c-0.1-0.2-0.6-0.7-0.9-1
		c5.1-1.9,6.7-5.5,7.3-11.9l1.2,0.1c-0.4,3.2-0.9,5.7-2,7.7c1.3,1.3,2.9,3,3.7,4.1L194.7,310.3z M189,302.7c-0.4-1-1.4-2.5-2.3-3.6
		l1-0.5c1,1.1,1.9,2.5,2.3,3.6L189,302.7z"/>
	<path class="st0" d="M203.7,298.9v2.6l0.2-0.2c1.8,0.8,4.1,2.2,5.3,3.1l-0.8,1c-1-0.8-3-2.1-4.7-3v7.8h-1.2v-11.4h-5.7v-1.1H210
		v1.1H203.7z"/>
	<path class="st0" d="M216.8,299.7c-0.3,0.6-0.6,1.2-0.9,1.7h7.2v7.5c0,0.7-0.1,1-0.6,1.2c-0.5,0.2-1.3,0.2-2.6,0.2
		c0-0.3-0.2-0.8-0.4-1.1c1,0,1.9,0,2.2,0c0.3,0,0.3-0.1,0.3-0.3v-1.5h-6.4c-0.2,1.1-0.6,2.2-1.5,3c-0.1-0.2-0.5-0.7-0.8-0.9
		c1.2-1.2,1.4-2.8,1.4-4.2v-2.2c-0.7,0.8-1.5,1.6-2.4,2.3c-0.1-0.2-0.5-0.6-0.7-0.9c1.7-1.2,3.1-2.9,4-4.8h-3.7v-1h4.2
		c0.3-0.6,0.5-1.3,0.7-1.9l1.1,0.3c-0.2,0.6-0.4,1.1-0.6,1.7h7.6v1H216.8z M222,306.4v-1.5h-6.2v0.4c0,0.4,0,0.7,0,1.1H222z
		 M222,302.4h-6.2v1.5h6.2V302.4z"/>
	<path class="st0" d="M233.6,306.7h-7.3v-1h1.4v-6h-1.2v-1h1.2v-1.8h1v1.8h2.7v-1.8h1v1.8h1.1v1h-1.1v6h1.1V306.7z M229.5,307.3
		c-0.5,1.1-1.4,2.3-2.2,3c-0.2-0.2-0.6-0.5-0.9-0.6c0.8-0.7,1.6-1.7,2-2.6L229.5,307.3z M228.8,299.7v1.3h2.7v-1.3H228.8z
		 M228.8,303.3h2.7v-1.5h-2.7V303.3z M228.8,305.7h2.7v-1.5h-2.7V305.7z M231.4,307c0.6,0.7,1.3,1.6,1.6,2.2l-0.9,0.5
		c-0.3-0.6-0.9-1.6-1.5-2.3L231.4,307z M239.5,308.9c0,0.7-0.2,1-0.6,1.2c-0.4,0.2-1.1,0.2-2.2,0.2c0-0.3-0.2-0.8-0.3-1.1
		c0.8,0,1.5,0,1.7,0c0.2,0,0.3-0.1,0.3-0.3v-3.6h-3.1c-0.1,1.8-0.5,3.7-1.4,5.1c-0.2-0.2-0.6-0.6-0.9-0.7c1.2-2,1.4-4.8,1.4-6.9
		v-5.4h5.1V308.9z M238.4,304.3v-2.5h-3v1c0,0.5,0,1,0,1.5H238.4z M235.4,298.5v2.4h3v-2.4H235.4z"/>
	<path class="st0" d="M157.5,317.7c-0.4,0.7-0.8,1.3-1.3,1.9v8.3h-1v-7.1c-0.6,0.6-1.1,1.1-1.7,1.6c-0.1-0.2-0.4-0.7-0.6-1
		c1.4-1,2.8-2.5,3.7-4.1L157.5,317.7z M157.2,314.7c-0.9,1.2-2.3,2.6-3.5,3.5c-0.1-0.2-0.4-0.6-0.6-0.8c1.1-0.8,2.5-2.1,3.1-3.1
		L157.2,314.7z M162.7,326.6c0.5,0.1,1.1,0.1,1.6,0.1c0.4,0,2.1,0,2.6,0c-0.2,0.3-0.3,0.7-0.4,1h-2.4c-2.3,0-4.1-0.5-5.2-2.6
		c-0.4,1.1-0.9,2.1-1.6,2.8c-0.2-0.2-0.6-0.5-0.8-0.7c1.3-1.2,1.8-3.3,2-5.8l1.1,0.1c-0.1,0.7-0.2,1.4-0.3,2.1
		c0.5,1.4,1.3,2.2,2.3,2.6v-6h-4.2v-1h4.1v-2.1h-3.4v-1h3.4v-2h1.1v2h3.5v1h-3.5v2.1h4.1v1h-4v2.2h3.4v1h-3.4V326.6z"/>
	<path class="st0" d="M174.1,320.2h1.8v1.1h-1.8v6.5H173v-6.5h-2.3c-0.1,2.5-0.5,4.8-2.2,6.7c-0.2-0.2-0.5-0.5-0.8-0.7
		c1.6-1.7,1.9-3.8,2-6h-1.8v-1.1h1.8v-4h-1.5v-1h7.3v1h-1.4V320.2z M173,320.2v-4h-2.3v4H173z M177.7,324.1h-1V316h1V324.1z
		 M180.7,314.6v11.9c0,0.7-0.2,1-0.6,1.2c-0.5,0.2-1.2,0.2-2.5,0.2c-0.1-0.3-0.2-0.8-0.4-1.1c1,0,1.8,0,2.1,0c0.3,0,0.4-0.1,0.4-0.3
		v-11.9H180.7z"/>
	<path class="st0" d="M186.8,321.8l-1.7,0.6v4.2c0,0.6-0.1,0.9-0.5,1.1c-0.3,0.2-0.9,0.2-1.9,0.2c0-0.3-0.2-0.8-0.3-1.1
		c0.6,0,1.2,0,1.4,0c0.2,0,0.3-0.1,0.3-0.3v-3.8c-0.6,0.2-1.2,0.4-1.7,0.6l-0.3-1.1c0.6-0.2,1.2-0.4,2-0.6v-3.3h-1.8v-1h1.8v-2.9
		h1.1v2.9h1.6v1h-1.6v3l1.5-0.5L186.8,321.8z M195.4,316.8v0.6c-0.2,6.9-0.4,9.2-1,9.9c-0.3,0.4-0.6,0.6-1.1,0.6c-0.5,0-1.3,0-2.1,0
		c0-0.3-0.1-0.8-0.4-1.1c0.9,0.1,1.7,0.1,2.1,0.1c0.3,0,0.4,0,0.6-0.2c0.5-0.5,0.7-2.7,0.9-8.8h-5.5c-0.5,0.9-1,1.8-1.6,2.4
		c-0.2-0.2-0.6-0.5-0.9-0.7c1.2-1.3,2.1-3.2,2.8-5.2l1.1,0.2c-0.2,0.7-0.5,1.5-0.8,2.2h5.4v0H195.4z M188.9,324.5v1h-1v-5.9h4.5v4.9
		H188.9z M188.9,320.5v3h2.5v-3H188.9z"/>
	<path class="st0" d="M201.3,317.9c-0.3,0.6-0.8,1.3-1.2,1.9v8H199v-6.7c-0.5,0.6-1.1,1.1-1.6,1.5c-0.1-0.2-0.4-0.8-0.6-1.1
		c1.3-1,2.7-2.5,3.5-4L201.3,317.9z M201.1,314.7c-0.8,1.3-2.2,2.7-3.5,3.6c-0.1-0.3-0.4-0.7-0.6-0.9c1.1-0.8,2.4-2,3-3L201.1,314.7
		z M209.5,321.1c-0.6,1.8-1.7,3.2-3.1,4.3c1.2,0.7,2.6,1.2,4.1,1.5c-0.2,0.3-0.6,0.7-0.7,1c-1.7-0.4-3.2-1-4.4-1.9
		c-1.3,0.8-2.9,1.4-4.5,1.8c-0.1-0.3-0.4-0.8-0.6-1c1.5-0.3,2.9-0.8,4.2-1.5c-1.1-1-1.9-2.1-2.6-3.5l0.2-0.1h-0.8v-1h7.2l0.2,0
		L209.5,321.1z M204,316.6c0,1.4-0.5,3-2.6,4c-0.1-0.2-0.5-0.6-0.7-0.8c1.9-0.9,2.3-2.1,2.3-3.2v-1.8h5v3.4c0,0.4,0.1,0.6,0.3,0.6
		h1.3c0.2,0,0.6,0,0.8-0.1c0,0.3,0.1,0.7,0.1,1c-0.2,0.1-0.6,0.1-0.9,0.1h-1.4c-1.1,0-1.3-0.4-1.3-1.5v-2.4H204V316.6z M203.1,321.8
		c0.6,1.1,1.4,2.1,2.4,2.9c1.1-0.8,1.9-1.7,2.5-2.9H203.1z"/>
	<path class="st0" d="M218.2,325.5c-2.3,0.5-4.7,1-6.4,1.4l-0.2-1.1c1.6-0.3,4.1-0.8,6.5-1.3L218.2,325.5z M223.9,319.1
		c-0.6,2-1.5,3.7-2.6,5.2c0.6,1.5,1.2,2.5,1.9,2.5c0.4,0,0.6-0.8,0.7-2.8c0.3,0.3,0.7,0.5,1,0.6c-0.2,2.5-0.6,3.3-1.8,3.3
		c-1.1,0-2-1-2.7-2.6c-0.9,1-2,1.9-3.1,2.6c-0.2-0.2-0.6-0.7-0.9-0.8c1.4-0.7,2.6-1.7,3.6-2.9c-0.5-1.7-0.8-3.9-1-6.4h-7.3v-1.1h7.2
		c0-0.8-0.1-1.5-0.1-2.3h1.2c0,0.8,0,1.6,0,2.3h4.5v1.1h-4.4c0.1,2,0.4,3.7,0.8,5.2c0.8-1.2,1.4-2.6,1.9-4.1L223.9,319.1z
		 M217.6,319.1v4.5h-5.1v-4.5H217.6z M216.5,320.1h-3v2.6h3V320.1z M223.4,316.7c-0.5-0.5-1.6-1.2-2.5-1.6l0.6-0.7
		c0.9,0.4,2,1,2.6,1.5L223.4,316.7z"/>
	<path class="st0" d="M156.1,342.5h2.4v-8.1h-1.9v-0.9c1-0.2,1.7-0.4,2.3-0.8h1v9.8h2.2v1.1h-6V342.5z"/>
	<path class="st0" d="M163.5,342.4l0.7-0.9c0.6,0.6,1.4,1.2,2.7,1.2c1.3,0,2.3-1,2.3-2.6c0-1.6-0.9-2.5-2.3-2.5
		c-0.7,0-1.2,0.2-1.8,0.6l-0.7-0.4l0.3-5.1h5.3v1.2h-4.1l-0.3,3.2c0.5-0.3,1-0.4,1.6-0.4c1.8,0,3.3,1.1,3.3,3.5
		c0,2.4-1.7,3.7-3.6,3.7C165.3,343.8,164.2,343.1,163.5,342.4z"/>
	<path class="st0" d="M172.1,338.2c0-3.8,1.3-5.6,3.4-5.6c2.1,0,3.4,1.8,3.4,5.6c0,3.8-1.3,5.7-3.4,5.7
		C173.4,343.8,172.1,342,172.1,338.2z M177.5,338.2c0-3.2-0.8-4.5-2.1-4.5c-1.2,0-2.1,1.3-2.1,4.5c0,3.2,0.8,4.6,2.1,4.6
		C176.7,342.8,177.5,341.4,177.5,338.2z"/>
	<path class="st0" d="M180.3,338.2c0-3.8,1.3-5.6,3.4-5.6c2.1,0,3.4,1.8,3.4,5.6c0,3.8-1.3,5.7-3.4,5.7
		C181.6,343.8,180.3,342,180.3,338.2z M185.8,338.2c0-3.2-0.8-4.5-2.1-4.5c-1.2,0-2.1,1.3-2.1,4.5c0,3.2,0.8,4.6,2.1,4.6
		C184.9,342.8,185.8,341.4,185.8,338.2z"/>
	<path class="st0" d="M188.6,338.2c0-3.8,1.3-5.6,3.4-5.6c2.1,0,3.4,1.8,3.4,5.6c0,3.8-1.3,5.7-3.4,5.7
		C189.9,343.8,188.6,342,188.6,338.2z M194,338.2c0-3.2-0.8-4.5-2.1-4.5c-1.2,0-2.1,1.3-2.1,4.5c0,3.2,0.8,4.6,2.1,4.6
		C193.2,342.8,194,341.4,194,338.2z"/>
	<path class="st0" d="M208.5,343.5c0.6,0,0.7-0.4,0.8-2.7c0.3,0.2,0.7,0.4,1,0.5c-0.1,2.5-0.4,3.2-1.7,3.2h-2.1
		c-1.3,0-1.7-0.4-1.7-1.7v-5.3h-2.8c-0.3,3.2-1,5.8-4.4,7.2c-0.1-0.3-0.4-0.7-0.7-0.9c3.2-1.2,3.7-3.5,3.9-6.3H197v-1.1h13v1.1h-4.2
		v5.3c0,0.5,0.1,0.6,0.7,0.6H208.5z M208.8,333.4h-10.5v-1.1h10.5V333.4z"/>
	<path class="st0" d="M217.9,340.5c-2.1,0.9-4.3,1.9-5.9,2.6l-0.4-1.1c0.6-0.2,1.3-0.5,2.1-0.8l-0.3-9.2l1.1,0l0.2,8.8
		c1-0.4,1.9-0.8,2.9-1.2L217.9,340.5z M224.4,344.7c-0.7-1-2.1-2.6-3.3-3.9c-1.2,1.8-2.8,3-5.1,4c-0.1-0.2-0.6-0.7-0.9-1
		c5.1-1.9,6.7-5.5,7.3-11.9l1.2,0.1c-0.4,3.2-0.9,5.7-2,7.7c1.3,1.3,2.9,3,3.7,4.1L224.4,344.7z M218.7,337.2
		c-0.4-1-1.4-2.5-2.3-3.6l1-0.5c1,1.1,1.9,2.5,2.3,3.6L218.7,337.2z"/>
	<path class="st0" d="M233.2,333.4v2.6l0.2-0.2c1.8,0.8,4.1,2.2,5.3,3.1l-0.8,1c-1-0.8-3-2.1-4.7-3v7.8h-1.2v-11.4h-5.7v-1.1h13.1
		v1.1H233.2z"/>
	<path class="st0" d="M158.6,354h3v0.8h-7.1V354h3.5c-0.4-0.4-0.9-0.9-1.4-1.3l0.7-0.6c0.7,0.4,1.4,1.1,1.7,1.5L158.6,354z
		 M166.9,351.9h-11.6v-3.3h11.6V351.9z M160.9,361.1h-4.5v0.5h-1v-3.2h5.5V361.1z M155.5,357h5.3v0.7h-5.3V357z M160.8,356.3h-5.3
		v-0.7h5.3V356.3z M158.7,349.5h-2.4v1.6h2.4V349.5z M156.3,359.2v1.2h3.5v-1.2H156.3z M162.2,349.5h-2.5v1.6h2.5V349.5z
		 M163.7,359.3h-1V353h1V359.3z M165.8,349.5h-2.5v1.6h2.5V349.5z M166.9,352.5v7.9c0,0.7-0.2,1-0.6,1.1c-0.5,0.2-1.3,0.2-2.5,0.2
		c0-0.3-0.2-0.7-0.4-1c1,0,1.9,0,2.1,0c0.3,0,0.4-0.1,0.4-0.3v-7.9H166.9z"/>
	<path class="st0" d="M174.7,353.5v2h5.2v1h-5.2v3.6h5.9v1h-12.8v-1h5.8v-3.6h-5.1v-1h5.1v-2h-3.2v-0.8c-0.8,0.4-1.6,0.8-2.4,1.1
		c-0.2-0.3-0.5-0.8-0.7-1c2.8-0.9,5.5-2.6,6.9-4.8l1,0.5c-0.1,0.2-0.2,0.4-0.4,0.5c1.5,1.6,4.1,3.1,6.3,3.8c-0.3,0.2-0.6,0.7-0.8,1
		c-0.8-0.3-1.6-0.7-2.4-1.1v0.9H174.7z M170.6,356.9c0.6,0.8,1.2,1.9,1.4,2.7l-1,0.4c-0.2-0.7-0.8-1.9-1.4-2.7L170.6,356.9z
		 M177.8,352.5c-1.3-0.8-2.6-1.8-3.6-2.8c-1,1.1-2.2,2-3.5,2.8H177.8z M176.1,359.6c0.5-0.7,1.2-1.9,1.5-2.7l1,0.4
		c-0.5,0.9-1.2,2-1.8,2.7L176.1,359.6z"/>
</g>
<g>
	<path class="st0" d="M263.1,152.6h3.2v1.1h-3.2v6.6H262v-6.6h-3.2v-1.1h3.2v-3.8h-2.8v-1.1h6.7v1.1h-2.8V152.6z M268.4,156.7h-1.1
		v-8.2h1.1V156.7z M271.7,147.1v11.8c0,0.8-0.2,1.1-0.7,1.3c-0.5,0.2-1.4,0.2-2.8,0.2c-0.1-0.3-0.2-0.8-0.4-1.1c1.1,0,2,0,2.3,0
		c0.3,0,0.4-0.1,0.4-0.4v-11.8H271.7z"/>
	<path class="st0" d="M286.9,149.2c-0.7,0.6-1.5,1.3-2.3,1.8c0.8,0.7,1.8,1.3,2.8,1.7c-0.3,0.2-0.6,0.6-0.8,0.9
		c-1.3-0.6-2.5-1.5-3.5-2.6v0.8h-5.3v-0.7c-1.1,1.1-2.4,2-3.7,2.6c-0.1-0.3-0.5-0.6-0.7-0.8c1-0.4,2.1-1.1,3-2
		c-0.5-0.5-1.2-1.1-1.9-1.5l0.6-0.6c0.7,0.4,1.5,1,1.9,1.5c0.6-0.7,1.1-1.4,1.5-2.1h-4v-0.9h4.6l0.2,0l0.7,0.4
		c-0.5,1.2-1.2,2.3-2,3.2h4.9c-1-1.1-1.9-2.4-2.5-3.8l1-0.3c0.3,0.6,0.6,1.2,1,1.8c0.7-0.5,1.4-1.2,1.9-1.8l0.8,0.6
		c-0.7,0.6-1.5,1.3-2.3,1.8c0.3,0.4,0.6,0.8,1,1.1c0.7-0.6,1.6-1.3,2.1-1.8L286.9,149.2z M283.8,157.2c-0.3,0.6-0.7,1.3-1,1.9h4.2v1
		h-13v-1h4.1c-0.1-0.5-0.5-1.3-0.8-1.8l1-0.3c0.4,0.6,0.8,1.3,0.9,1.8l-0.9,0.3h3.4c0.4-0.6,0.8-1.5,1.1-2.2L283.8,157.2z
		 M284.6,156.8h-8.4v-3.7h8.4V156.8z M283.4,154h-6.2v1.9h6.2V154z"/>
	<path class="st0" d="M292.9,147.2c-0.4,1.1-1,2.2-1.5,3.2v9.9h-1.1V152c-0.5,0.7-1,1.3-1.5,1.8c-0.1-0.3-0.4-0.8-0.6-1.1
		c1.5-1.4,2.8-3.6,3.7-5.9L292.9,147.2z M300,159.2c0.9,0,1.1-0.4,1.2-2.1c0.3,0.2,0.7,0.4,1,0.4c-0.2,2.1-0.5,2.7-2.2,2.7h-3.9
		c-1.8,0-2.3-0.4-2.3-2.1v-4.9l-1.5,0.6l-0.4-1l1.9-0.7v-3.9h1v3.5l2.2-0.9v-4.1h1v3.7l2.5-1l0.2-0.2l0.8,0.3l0,0.2
		c0,2.1-0.2,5-0.4,6.7l-0.9-0.3c0.1-1.4,0.2-3.7,0.3-5.6l-2.4,0.9v5.4h-1v-5l-2.2,0.9v5.3c0,0.9,0.2,1.1,1.2,1.1H300z"/>
	<path class="st0" d="M310.4,146.8c0,0.5,0,1.3-0.1,2.2c0.2,1.8,1.1,8,6.4,10.3c-0.3,0.3-0.6,0.6-0.8,0.9c-3.7-1.7-5.3-5.4-6-8.2
		c-0.7,3-2.3,6.3-5.9,8.2c-0.2-0.3-0.6-0.6-0.9-0.9c6.2-3.1,6.1-10.4,6.1-12.6H310.4z"/>
	<path class="st0" d="M323.6,150.9c0,1.7-0.2,3.7-1.2,5.7c0.6,0.6,1.2,1.1,1.6,1.5l-0.7,0.9c-0.3-0.4-0.9-0.9-1.4-1.5
		c-0.7,1-1.6,2-2.9,2.8c-0.1-0.2-0.5-0.6-0.7-0.7c1.3-0.9,2.2-1.8,2.9-2.8c-0.8-0.7-1.7-1.4-2.4-2c0.3-1,0.7-2.3,1-3.7l-1.3,0.1
		l-0.1-1c0.5,0,1,0,1.6-0.1c0.2-1.1,0.4-2.3,0.5-3.3l1,0.1c-0.1,1-0.3,2.1-0.5,3.2l1.7-0.1v-1.1h1v1l0.6,0l0,1L323.6,150.9z
		 M320.7,151.1c-0.3,1.2-0.6,2.5-0.9,3.5c0.6,0.4,1.2,0.9,1.8,1.4c0.8-1.7,1-3.5,1-5L320.7,151.1z M331.9,158.7v1.1H324v-1.1h3.8
		v-3.3h-3.1v-1h3.1v-3.2h-2.1c-0.2,1-0.4,1.8-0.7,2.5c-0.2-0.1-0.6-0.4-0.9-0.5c0.6-1.3,0.9-3.4,1.1-5.4l1,0.1
		c-0.1,0.8-0.2,1.5-0.3,2.3h1.9v-3.3h1.1v3.3h2.8v1.1h-2.8v3.2h2.7v1h-2.7v3.3H331.9z"/>
	<path class="st0" d="M270.7,178.6h-1.1v-0.8h-6.6v0.8h-1.1v-4.9c-0.8,0.3-1.7,0.5-2.5,0.7c-0.1-0.3-0.3-0.8-0.6-1
		c1.9-0.4,3.9-1.1,5.6-2c-0.7-0.7-1.8-1.6-2.8-2.3c-0.5,0.4-1.1,0.7-1.7,1c-0.2-0.3-0.5-0.7-0.8-0.8c2.4-1.2,4.1-2.8,5-4.2l1.2,0.3
		c-0.3,0.4-0.6,0.8-1,1.3h5.3l0.2-0.1l0.7,0.5c-1.2,2.4-3.4,4.2-5.8,5.5h5.9V178.6z M263.5,167.5c-0.3,0.3-0.7,0.6-1,0.9
		c1,0.7,2.3,1.7,3,2.3c1.4-0.9,2.7-2,3.5-3.2H263.5z M269.5,176.8v-3.4h-6.6v3.4H269.5z"/>
	<path class="st0" d="M286.7,176.5h-6.1v2.2h-1.1v-2.2h-6v-1h6v-1.2H275v-5.8h4.5v-1.1h-5.6v-1h5.6v-1.3h1.1v1.3h5.6v1h-5.6v1.1h4.6
		v5.8h-4.6v1.2h6.1V176.5z M276.1,170.9h3.4v-1.5h-3.4V170.9z M279.5,173.3v-1.5h-3.4v1.5H279.5z M280.6,169.4v1.5h3.5v-1.5H280.6z
		 M284.1,171.8h-3.5v1.5h3.5V171.8z"/>
	<path class="st0" d="M290.3,171c0,0.4,0,0.8,0,1.2h2.5v6.4h-1v-5.4h-1.5c-0.1,1.9-0.4,3.9-1,5.4c-0.2-0.1-0.7-0.3-1-0.4
		c0.9-2.1,1-5.1,1-7.2v-5.7h1v3.8h1.6v-4.1h0.9v5.1h-2.5V171z M301.9,175.6h-2.6v3h-1v-3h-5v-1h1.6c-0.2-0.2-0.4-0.4-0.6-0.5
		c0.8-0.5,1.3-1.1,1.7-1.7h-2.1v-5.9h2.1c0.2-0.5,0.5-1.1,0.6-1.5l1.2,0.2c-0.2,0.5-0.4,0.9-0.7,1.3h4v5.9h-4.1
		c-0.4,0.7-1,1.5-1.8,2.1h2.9v-1.8h1v1.8h2.6V175.6z M294.9,169.1h2.1v-1.6h-2.1V169.1z M296.5,171.6c0.3-0.6,0.4-1.1,0.5-1.6h-2.1
		v1.6H296.5z M300.1,170H298c-0.1,0.5-0.2,1-0.4,1.6h2.6V170z M300.1,167.5H298v1.6h2.1V167.5z"/>
	<path class="st0" d="M308.3,168.6c-0.5,0.8-1,1.5-1.6,2.2v7.8h-1.1v-6.6c-0.6,0.6-1.1,1.1-1.7,1.5c-0.2-0.2-0.6-0.7-0.8-0.9
		c1.5-1.1,3.1-2.8,4.2-4.5L308.3,168.6z M307.7,165.5c-1,1.3-2.5,2.8-3.8,3.7c-0.2-0.2-0.5-0.7-0.7-0.9c1.2-0.8,2.7-2.2,3.4-3.2
		L307.7,165.5z M316.8,171.1h-2.2v6.1c0,0.7-0.2,1-0.7,1.2c-0.5,0.2-1.3,0.2-2.8,0.2c0-0.3-0.2-0.8-0.4-1.1c1.1,0,2,0,2.3,0
		c0.3,0,0.4-0.1,0.4-0.3v-6.1h-5V170h8.3V171.1z M316.4,167h-7.3v-1h7.3V167z"/>
	<path class="st0" d="M331.4,168.5c0,0,0,0.4,0,0.6c-0.2,6.2-0.3,8.3-0.8,8.9c-0.3,0.4-0.6,0.5-1,0.6c-0.4,0.1-1.1,0-1.8,0
		c0-0.3-0.1-0.8-0.3-1c0.7,0.1,1.4,0.1,1.7,0.1c0.3,0,0.4,0,0.5-0.2c0.3-0.4,0.5-2.4,0.7-7.8h-2.1c-0.2,4-0.9,7.2-3.5,9.2
		c-0.2-0.2-0.6-0.6-0.8-0.8c0.2-0.2,0.4-0.3,0.7-0.5c-2.3,0.3-4.6,0.5-6.2,0.7l-0.2-1c0.9-0.1,2-0.2,3.2-0.3v-1.3h-2.8v-0.8h2.8
		v-0.9h-2.8v-4.4h2.8v-0.9h-3.2v-0.9h3.2v-1c-1,0.1-1.9,0.1-2.8,0.2c0-0.2-0.1-0.6-0.3-0.8c2.2-0.1,4.9-0.4,6.4-0.7l0.6,0.8
		c-0.8,0.2-1.8,0.3-2.9,0.4v1.1h3.2v0.9h-3.2v0.9h2.9v4.4h-2.9v0.9h2.9v0.8h-2.9v1.2c1-0.1,2-0.2,3-0.3v0.1c1.3-1.8,1.7-4.1,1.8-6.9
		h-1.7v-1h1.8c0-1,0-2.1,0-3.3h1c0,1.1,0,2.2,0,3.3H331.4z M319.6,171.2h1.9v-1.1h-1.9V171.2z M321.4,173v-1.1h-1.9v1.1H321.4z
		 M322.4,170.1v1.1h1.9v-1.1H322.4z M324.4,171.9h-1.9v1.1h1.9V171.9z"/>
	<path class="st0" d="M264.5,187.4h-4.6v2.4h-1.1v-3.2h5.7v-1h-5v-0.8h11.2v0.8h-5.1v1h5.8v3.2h-1.1v-2.4h-4.7v3.4h-1.1V187.4z
		 M269.9,196.8c0.8,0,0.9-0.3,1-1.7c0.3,0.2,0.7,0.3,1,0.4c-0.2,1.8-0.5,2.3-1.9,2.3h-3.4c-1.7,0-2.1-0.3-2.1-1.5v-0.5h-3.3v0.8
		h-1.1v-5.2h10v4.4h-4.6v0.5c0,0.5,0.2,0.6,1.1,0.6H269.9z M260.1,190c0.9-0.1,2.2-0.3,3.5-0.5l0,0.7c-1.1,0.2-2.3,0.5-3.2,0.7
		L260.1,190z M260.9,187.7c1,0.1,2.2,0.5,2.9,0.8l-0.3,0.7c-0.7-0.3-1.9-0.7-2.9-0.9L260.9,187.7z M261.2,192.2v1h3.3v-1H261.2z
		 M264.5,194.9v-1h-3.3v1H264.5z M269,192.2h-3.5v1h3.5V192.2z M269,194.9v-1h-3.5v1H269z M269.7,190.9c-0.8-0.3-2.3-0.6-3.5-0.8
		l0.3-0.7c1.1,0.1,2.6,0.4,3.5,0.7L269.7,190.9z M269.7,188.3c-0.8,0.4-2.1,0.7-2.9,0.8l-0.4-0.6c0.8-0.2,2.1-0.6,2.8-0.9
		L269.7,188.3z"/>
	<path class="st0" d="M273.5,186.8h5.4v0.9h-5.4V186.8z M278.4,189.7h-4.3v-0.9h4.3V189.7z M274.1,190.7h4.3v0.9h-4.3V190.7z
		 M278.5,197h-3.5v0.7h-1v-5h4.4V197z M275.1,193.6v2.5h2.5v-2.5H275.1z M276.3,186.7c-0.2-0.5-0.7-1.4-1.1-2l0.8-0.4
		c0.4,0.6,0.9,1.4,1.1,1.9L276.3,186.7z M283.6,189.9v2.5h2.7v5.5h-1.1v-0.5h-4.3v0.6h-1v-5.5h2.7v-2.5h-3.2v-1.1h3.2v-2.6
		c-1,0.1-1.9,0.3-2.9,0.4c0-0.3-0.2-0.6-0.3-0.9c2.2-0.3,4.7-0.7,6.2-1.3l0.7,0.9c-0.8,0.3-1.7,0.5-2.7,0.7v2.8h3.5v1.1H283.6z
		 M285.2,193.4h-4.3v2.9h4.3V193.4z"/>
	<path class="st0" d="M290.5,186.3c-0.4,0.7-1,1.3-1.5,1.8c-0.1-0.2-0.5-0.6-0.8-0.7c0.9-0.8,1.8-2,2.3-3.2l1,0.3
		c-0.1,0.3-0.3,0.6-0.4,0.9h3.8v1h-2.8c0.5,0.4,1.1,1,1.4,1.3l-0.7,0.7c-0.3-0.4-1-1.1-1.5-1.6l0.5-0.4H290.5z M298.6,193.3h3v0.9
		h-3v2.5c0,0.6-0.2,0.9-0.7,1c-0.5,0.1-1.4,0.1-2.6,0.1c0-0.3-0.2-0.6-0.3-0.9c1,0,1.9,0,2.2,0c0.3,0,0.3-0.1,0.3-0.3v-2.5h-9v-0.9
		h9v-1h1.1V193.3z M301.8,185.4v1h-3.3c0.5,0.4,1.1,1.1,1.4,1.5l-0.8,0.6c-0.3-0.4-0.9-1.1-1.4-1.6l0.7-0.5h-1.5
		c-0.4,0.7-0.8,1.3-1.2,1.8l-0.1-0.1v0.7h5.4v1h-5.4v1.3h4.6v0.9h-10.4V191h4.7v-1.3H289v-1h5.4v-0.9h0.8c-0.1-0.1-0.3-0.2-0.4-0.3
		c0.8-0.8,1.5-2,1.8-3.3l1,0.2c-0.1,0.3-0.2,0.6-0.3,0.9H301.8z M291.7,194.4c0.8,0.7,2,1.6,2.5,2.2l-0.8,0.7
		c-0.5-0.6-1.6-1.6-2.5-2.3L291.7,194.4z"/>
	<path class="st0" d="M307.4,184.7c-0.3,1-0.7,2-1.2,2.9v10.4h-1.1v-8.4c-0.5,0.7-0.9,1.4-1.4,2c-0.1-0.2-0.4-0.8-0.6-1.1
		c1.3-1.4,2.5-3.7,3.3-5.9L307.4,184.7z M316.5,185.2v12.5h-1.1V197h-6.5v0.9h-1v-12.7H316.5z M315.5,196v-9.8h-6.5v9.8H315.5z
		 M312.7,189.2v1.6h1.7v4h-4.2v-4h1.6v-1.6h-2.2v-0.8h2.2v-1.7h0.9v1.7h2.3v0.8H312.7z M313.5,191.7H311v2.3h2.5V191.7z"/>
	<path class="st0" d="M322.5,188.4h-4.3v-0.9h4.3V188.4z M323.6,196.1c-1.2,0.7-3.1,1.4-4.5,1.8c-0.2-0.2-0.6-0.6-0.8-0.8
		c1.5-0.3,3.3-0.8,4.4-1.4L323.6,196.1z M322.1,186.1h-3.6v-0.9h3.6V186.1z M320.2,189.6h9.6v6h-9.6V189.6z M321.2,191.3h7.5v-1
		h-7.5V191.3z M321.2,193h7.5v-1h-7.5V193z M321.2,194.8h7.5v-1h-7.5V194.8z M324.8,186.2c-0.3,0.6-0.7,1.1-1.1,1.5
		c-0.2-0.2-0.6-0.4-0.8-0.6c0.8-0.7,1.4-1.7,1.7-2.8l1,0.2c-0.1,0.3-0.2,0.6-0.3,0.8h5l0.2,0l0.7,0.3c-0.4,0.8-0.8,1.6-1.2,2.1
		l-0.9-0.3c0.2-0.3,0.5-0.7,0.7-1.2h-2.4v0.2c0,0.1,0,0.3,0,0.5c0.8,0.9,2.4,1.5,4.4,1.6c-0.2,0.2-0.5,0.6-0.6,0.9
		c-1.7-0.2-3.1-0.8-4-1.7c-0.5,0.7-1.7,1.4-4.3,1.8c-0.1-0.2-0.4-0.6-0.6-0.8c3.9-0.5,4.2-1.5,4.2-2.3v-0.1H324.8z M327,195.6
		c1.6,0.5,3.3,1.1,4.4,1.6l-1,0.6c-1-0.5-2.6-1.1-4.2-1.7L327,195.6z"/>
</g>
<g>
	<path class="st0" d="M260.4,240c-0.3,1.3-0.7,2.8-1.2,3.8c0.3,0.2,0.6,0.4,1.2,0.8c1,0.6,2.4,0.7,4.1,0.7c1.9,0,4.3-0.1,6-0.3
		c-0.1,0.3-0.3,0.8-0.3,1.1c-1.1,0.1-3.9,0.2-5.7,0.2c-1.9,0-3.3-0.2-4.3-0.8c-0.6-0.4-1.1-0.9-1.5-0.9c-0.3,0-0.8,0.9-1.3,1.9
		l-0.8-1c0.5-0.7,1-1.4,1.5-1.7c0.4-0.8,0.8-2,1.1-3.1h-1.9c0.4-0.9,0.9-2.1,1.3-3.3h-1.6v-1h3.1c-0.4,1.1-0.8,2.3-1.2,3.3h1l0.2,0
		L260.4,240z M258.4,235.7c-0.2-0.6-0.5-1.7-0.8-2.4l1-0.3c0.3,0.8,0.6,1.8,0.8,2.4L258.4,235.7z M270.1,236.5h-9.7v-0.8h2.8
		c0.1-0.3,0.3-0.7,0.4-1.1h-2.2v-0.8h2.5c0.1-0.3,0.2-0.6,0.3-0.9l1.1,0.1l-0.2,0.8h3.7v1.9h1.5V236.5z M265.2,244.9v-1.4h-4.3
		c0.2-0.6,0.5-1.3,0.7-2h-0.9v-0.8h4.5v-0.8h-3.6v-2.6h7.3v2.6h-2.6v0.8h3.6v0.8h-3.6v1.2h4v0.8h-4v1.4H265.2z M265.2,242.7v-1.2
		h-2.6c-0.1,0.4-0.3,0.8-0.4,1.2H265.2z M262.6,239.1h5.2v-1.2h-5.2V239.1z M264.7,234.6c-0.1,0.4-0.3,0.8-0.4,1.1h3.3v-1.1H264.7z"
		/>
	<path class="st0" d="M283.6,237.8c-0.7,2.4-1.8,4.2-3.3,5.6c1.3,1,2.8,1.7,4.7,2.1c-0.3,0.2-0.6,0.7-0.7,1
		c-1.9-0.5-3.5-1.2-4.9-2.3c-1.4,1-2.9,1.8-4.6,2.3c-0.1-0.3-0.4-0.8-0.6-1c1.6-0.4,3-1.1,4.3-2c-1.3-1.3-2.2-2.9-2.9-4.8h-1
		c0,2.4-0.4,5.6-1.9,7.8c-0.2-0.2-0.7-0.5-0.9-0.7c1.6-2.3,1.8-5.6,1.8-7.9v-4h10.8v1.1h-9.7v2.7h7.9l0.2-0.1L283.6,237.8z
		 M276.8,238.6c0.6,1.6,1.5,3,2.6,4.1c1.2-1.1,2.1-2.4,2.7-4.1H276.8z"/>
	<path class="st0" d="M290.4,233.2c-0.3,1-0.7,2-1.2,2.9v10.4h-1.1V238c-0.5,0.7-0.9,1.4-1.4,2c-0.1-0.2-0.4-0.8-0.6-1.1
		c1.3-1.4,2.5-3.7,3.3-5.9L290.4,233.2z M299.6,233.8v12.5h-1.1v-0.8H292v0.9h-1v-12.7H299.6z M298.5,244.6v-9.8H292v9.8H298.5z
		 M295.7,237.8v1.6h1.7v4h-4.2v-4h1.6v-1.6h-2.2v-0.8h2.2v-1.7h0.9v1.7h2.3v0.8H295.7z M296.6,240.2h-2.5v2.3h2.5V240.2z"/>
	<path class="st0" d="M305.8,237h-4.3v-0.9h4.3V237z M306.9,244.7c-1.2,0.7-3.1,1.4-4.5,1.8c-0.2-0.2-0.6-0.6-0.8-0.8
		c1.5-0.3,3.3-0.8,4.4-1.4L306.9,244.7z M305.4,234.6h-3.6v-0.9h3.6V234.6z M303.5,238.1h9.6v6h-9.6V238.1z M304.5,239.9h7.5v-1
		h-7.5V239.9z M304.5,241.6h7.5v-1h-7.5V241.6z M304.5,243.4h7.5v-1h-7.5V243.4z M308.1,234.8c-0.3,0.6-0.7,1.1-1.1,1.5
		c-0.2-0.2-0.6-0.4-0.8-0.6c0.8-0.7,1.4-1.7,1.7-2.8l1,0.2c-0.1,0.3-0.2,0.6-0.3,0.8h5l0.2,0l0.7,0.3c-0.4,0.8-0.8,1.6-1.2,2.1
		l-0.9-0.3c0.2-0.3,0.5-0.7,0.7-1.2h-2.4v0.2c0,0.1,0,0.3,0,0.5c0.8,0.9,2.4,1.5,4.4,1.6c-0.2,0.2-0.5,0.6-0.6,0.9
		c-1.7-0.2-3.1-0.8-4-1.7c-0.5,0.7-1.7,1.4-4.3,1.8c-0.1-0.2-0.4-0.6-0.6-0.8c3.9-0.5,4.2-1.5,4.2-2.3v-0.1H308.1z M310.3,244.2
		c1.6,0.5,3.3,1.1,4.4,1.6l-1,0.6c-1-0.5-2.6-1.1-4.2-1.7L310.3,244.2z"/>
	<path class="st0" d="M320.8,233.2c-0.4,1.1-1,2.2-1.6,3.2v10h-1.1V238c-0.5,0.7-1,1.3-1.5,1.8c-0.1-0.2-0.4-0.8-0.6-1.1
		c1.5-1.4,2.9-3.6,3.7-5.9L320.8,233.2z M323.4,242.1c-0.7,1.2-1.7,2.7-2.5,3.6c-0.2-0.2-0.6-0.5-0.9-0.6c0.8-0.9,1.8-2.2,2.4-3.3
		L323.4,242.1z M325.6,241.1v5.4h-1.1v-5.4h-4.3v-1h4.3v-1.8h-3.2v-4.7h7.7v4.7h-3.3v1.8h4.2v1H325.6z M322.3,237.3h5.5v-2.7h-5.5
		V237.3z M327.3,241.8c1,1.1,2,2.4,2.6,3.3l-0.9,0.6c-0.5-0.9-1.6-2.4-2.5-3.4L327.3,241.8z"/>
	<path class="st0" d="M261.8,255.8h-5.2v-0.9h5.2V255.8z M261.4,265.1h-3.2v0.7h-1v-5h4.2V265.1z M261.3,257.7h-4.1v-0.9h4.1V257.7z
		 M257.2,258.8h4.1v0.9h-4.1V258.8z M258.2,261.7v2.5h2.2v-2.5H258.2z M259.3,254.8c-0.2-0.5-0.7-1.4-1.1-2l0.8-0.4
		c0.4,0.6,0.9,1.4,1.1,1.9L259.3,254.8z M262.9,257.7c-0.3,0.3-0.5,0.7-0.8,0.9c-0.1-0.2-0.4-0.6-0.6-0.8c0.8-0.8,1.5-1.9,1.9-3.1
		l0.9,0.2v-0.8h-2.4v-0.9h2.4v-0.9h1v2.6h-1c-0.1,0.3-0.3,0.7-0.4,1h1.9c-0.1-0.3-0.2-0.7-0.3-1l1-0.3c0.2,0.4,0.4,0.9,0.5,1.2h2.8
		v0.7h-2.9v0.7h2.5v0.7h-2.5v0.7h2.5v0.7h-2.5v0.8h3.2v0.7h-6.2v0.3h-0.9V257.7z M269.4,262c-0.5,0.9-1.4,1.7-2.3,2.3
		c1,0.4,2.1,0.7,3.3,0.8c-0.2,0.2-0.5,0.6-0.6,0.9c-1.3-0.2-2.6-0.6-3.7-1.2c-1.2,0.6-2.6,1-4,1.2c-0.1-0.3-0.3-0.7-0.5-0.9
		c1.2-0.1,2.4-0.4,3.5-0.8c-0.7-0.5-1.3-1-1.8-1.6l0.5-0.2h-1.7v-0.8h6.5l0.2,0L269.4,262z M265.9,256.7h-2v0.7h2V256.7z
		 M265.9,258.1h-2v0.7h2V258.1z M265.9,259.5h-2v0.8h2V259.5z M264.3,262.5c0.5,0.5,1.1,0.9,1.7,1.3c0.7-0.4,1.3-0.8,1.8-1.3H264.3z
		 M267.9,255h-1v-2.6h1v0.9h2.2v0.9h-2.2V255z"/>
	<path class="st0" d="M274.5,259c-0.6-0.5-1.8-1.2-2.8-1.6l0.6-0.8c0.9,0.4,2.2,1,2.8,1.5L274.5,259z M272.3,265
		c0.8-1.1,2-3.1,2.8-4.8l0.8,0.7c-0.8,1.6-1.8,3.4-2.7,4.8L272.3,265z M273.2,252.6c1,0.4,2.2,1.1,2.8,1.5l-0.6,0.9
		c-0.6-0.5-1.8-1.2-2.8-1.7L273.2,252.6z M284.1,266c-0.1-0.4-0.4-0.9-0.7-1.5c-5.5,0.7-6.1,0.8-6.5,1c-0.1-0.3-0.2-0.8-0.4-1.1
		c0.3-0.1,0.6-0.4,1-1c0.3-0.4,1.3-2,2.1-3.7h-3.3v-1.1h3.8V256h-3.2v-1.1h3.2v-2.6h1.1v2.6h3.3v1.1h-3.3v2.6h3.9v1.1h-4.2
		c-0.8,1.6-1.7,3.2-2.6,4.4l4.7-0.5c-0.4-0.7-0.9-1.3-1.3-1.9l0.9-0.4c1,1.3,2.2,3.1,2.6,4.2L284.1,266z"/>
</g>
<g>
	<path class="st0" d="M254.3,308.4c3.4-3,5-5.2,5-7c0-1.2-0.7-2.2-2-2.2c-0.9,0-1.7,0.6-2.3,1.3l-0.8-0.8c0.9-1,1.8-1.6,3.2-1.6
		c1.9,0,3.2,1.3,3.2,3.2c0,2.2-1.7,4.4-4.3,6.8c0.6,0,1.2-0.1,1.8-0.1h3v1.2h-6.9V308.4z"/>
	<path class="st0" d="M276,306.9h-5.4v3.4h-1.1v-3.4h-6.9v-1.1h2.4v-4h4.4v-2.3h-3.6c-0.7,1.1-1.5,2.2-2.3,2.9
		c-0.2-0.2-0.7-0.6-1-0.7c1.4-1.2,2.6-3.1,3.3-5.1l1.1,0.3c-0.2,0.5-0.4,1.1-0.7,1.6h8.9v1.1h-4.7v2.3h4.4v1h-4.4v2.9h5.4V306.9z
		 M269.5,305.8v-2.9h-3.3v2.9H269.5z"/>
	<path class="st0" d="M283.6,306.1c-2.1,0.9-4.3,1.9-5.9,2.6l-0.4-1.1c0.6-0.2,1.3-0.5,2.1-0.8l-0.3-9.2l1.1,0l0.2,8.8
		c1-0.4,1.9-0.8,2.9-1.2L283.6,306.1z M290.2,310.3c-0.7-1-2.1-2.6-3.3-3.9c-1.2,1.8-2.8,3-5.1,4c-0.1-0.2-0.6-0.7-0.9-1
		c5.1-1.9,6.7-5.5,7.3-11.9l1.2,0.1c-0.4,3.2-0.9,5.7-2,7.7c1.3,1.3,2.9,3,3.7,4.1L290.2,310.3z M284.5,302.7
		c-0.4-1-1.4-2.5-2.3-3.6l1-0.5c1,1.1,1.9,2.5,2.3,3.6L284.5,302.7z"/>
	<path class="st0" d="M299.3,298.9v2.6l0.2-0.2c1.8,0.8,4.1,2.2,5.3,3.1l-0.8,1c-1-0.8-3-2.1-4.7-3v7.8h-1.2v-11.4h-5.7v-1.1h13.1
		v1.1H299.3z"/>
	<path class="st0" d="M312.4,299.7c-0.3,0.6-0.6,1.2-0.9,1.7h7.2v7.5c0,0.7-0.1,1-0.6,1.2c-0.5,0.2-1.3,0.2-2.6,0.2
		c0-0.3-0.2-0.8-0.4-1.1c1,0,1.9,0,2.2,0c0.3,0,0.3-0.1,0.3-0.3v-1.5h-6.4c-0.2,1.1-0.6,2.2-1.5,3c-0.1-0.2-0.5-0.7-0.8-0.9
		c1.2-1.2,1.4-2.8,1.4-4.2v-2.2c-0.7,0.8-1.5,1.6-2.4,2.3c-0.1-0.2-0.5-0.6-0.7-0.9c1.7-1.2,3.1-2.9,4-4.8h-3.7v-1h4.2
		c0.3-0.6,0.5-1.3,0.7-1.9l1.1,0.3c-0.2,0.6-0.4,1.1-0.6,1.7h7.6v1H312.4z M317.6,306.4v-1.5h-6.2v0.4c0,0.4,0,0.7,0,1.1H317.6z
		 M317.6,302.4h-6.2v1.5h6.2V302.4z"/>
	<path class="st0" d="M329.2,306.7H322v-1h1.4v-6h-1.2v-1h1.2v-1.8h1v1.8h2.7v-1.8h1v1.8h1.1v1h-1.1v6h1.1V306.7z M325.1,307.3
		c-0.5,1.1-1.4,2.3-2.2,3c-0.2-0.2-0.6-0.5-0.9-0.6c0.8-0.7,1.6-1.7,2-2.6L325.1,307.3z M324.4,299.7v1.3h2.7v-1.3H324.4z
		 M324.4,303.3h2.7v-1.5h-2.7V303.3z M324.4,305.7h2.7v-1.5h-2.7V305.7z M327,307c0.6,0.7,1.3,1.6,1.6,2.2l-0.9,0.5
		c-0.3-0.6-0.9-1.6-1.5-2.3L327,307z M335.1,308.9c0,0.7-0.2,1-0.6,1.2c-0.4,0.2-1.1,0.2-2.2,0.2c0-0.3-0.2-0.8-0.3-1.1
		c0.8,0,1.5,0,1.7,0c0.2,0,0.3-0.1,0.3-0.3v-3.6h-3.1c-0.1,1.8-0.5,3.7-1.4,5.1c-0.2-0.2-0.6-0.6-0.9-0.7c1.2-2,1.4-4.8,1.4-6.9
		v-5.4h5.1V308.9z M334,304.3v-2.5h-3v1c0,0.5,0,1,0,1.5H334z M331,298.5v2.4h3v-2.4H331z"/>
	<path class="st0" d="M257.6,316.9c-0.4,0.7-0.8,1.3-1.3,1.9v8.3h-1V320c-0.6,0.6-1.1,1.1-1.7,1.6c-0.1-0.2-0.4-0.7-0.6-1
		c1.4-1,2.8-2.5,3.7-4.1L257.6,316.9z M257.2,313.9c-0.9,1.2-2.3,2.6-3.5,3.5c-0.1-0.2-0.4-0.6-0.6-0.8c1.1-0.8,2.5-2.1,3.1-3.1
		L257.2,313.9z M262.7,325.8c0.5,0.1,1.1,0.1,1.6,0.1c0.4,0,2.1,0,2.6,0c-0.2,0.3-0.3,0.7-0.4,1h-2.4c-2.3,0-4.1-0.5-5.2-2.6
		c-0.4,1.1-0.9,2.1-1.6,2.8c-0.2-0.2-0.6-0.5-0.8-0.7c1.3-1.2,1.8-3.3,2-5.8l1.1,0.1c-0.1,0.7-0.2,1.4-0.3,2.1
		c0.5,1.4,1.3,2.2,2.3,2.6v-6h-4.2v-1h4.1v-2.1h-3.4v-1h3.4v-2h1.1v2h3.5v1h-3.5v2.1h4.1v1h-4v2.2h3.4v1h-3.4V325.8z"/>
	<path class="st0" d="M274.4,319.2h1.8v1.1h-1.8v6.5h-1.1v-6.5H271c-0.1,2.5-0.5,4.8-2.2,6.7c-0.2-0.2-0.5-0.5-0.8-0.7
		c1.6-1.7,1.9-3.8,2-6h-1.8v-1.1h1.8v-4h-1.5v-1h7.3v1h-1.4V319.2z M273.3,319.2v-4H271v4H273.3z M278,323.2h-1V315h1V323.2z
		 M281,313.7v11.9c0,0.7-0.2,1-0.6,1.2c-0.5,0.2-1.2,0.2-2.5,0.2c-0.1-0.3-0.2-0.8-0.4-1.1c1,0,1.8,0,2.1,0c0.3,0,0.4-0.1,0.4-0.3
		v-11.9H281z"/>
	<path class="st0" d="M283.1,327.9c0.9-0.4,1.5-1.1,1.5-2c-0.1,0-0.1,0-0.2,0c-0.5,0-1-0.3-1-1c0-0.6,0.5-1,1-1
		c0.7,0,1.1,0.6,1.1,1.6c0,1.4-0.8,2.5-2.2,3.1L283.1,327.9z"/>
	<path class="st0" d="M291.7,321l-1.7,0.6v4.2c0,0.6-0.1,0.9-0.5,1.1c-0.3,0.2-0.9,0.2-1.9,0.2c0-0.3-0.2-0.8-0.3-1.1
		c0.6,0,1.2,0,1.4,0c0.2,0,0.3-0.1,0.3-0.3v-3.8c-0.6,0.2-1.2,0.4-1.7,0.6l-0.3-1.1c0.6-0.2,1.2-0.4,2-0.6v-3.3h-1.8v-1h1.8v-2.9
		h1.1v2.9h1.6v1H290v3l1.5-0.5L291.7,321z M300.2,316v0.6c-0.2,6.9-0.4,9.2-1,9.9c-0.3,0.4-0.6,0.6-1.1,0.6c-0.5,0-1.3,0-2.1,0
		c0-0.3-0.1-0.8-0.4-1.1c0.9,0.1,1.7,0.1,2.1,0.1c0.3,0,0.4,0,0.6-0.2c0.5-0.5,0.7-2.7,0.9-8.8h-5.5c-0.5,0.9-1,1.8-1.6,2.4
		c-0.2-0.2-0.6-0.5-0.9-0.7c1.2-1.3,2.1-3.2,2.8-5.2l1.1,0.2c-0.2,0.7-0.5,1.5-0.8,2.2h5.4v0H300.2z M293.7,323.7v1h-1v-5.9h4.5v4.9
		H293.7z M293.7,319.8v3h2.5v-3H293.7z"/>
	<path class="st0" d="M306.3,317.1c-0.3,0.6-0.8,1.3-1.2,1.9v8H304v-6.7c-0.5,0.6-1.1,1.1-1.6,1.5c-0.1-0.2-0.4-0.8-0.6-1.1
		c1.3-1,2.7-2.5,3.5-4L306.3,317.1z M306.1,313.9c-0.8,1.3-2.2,2.7-3.5,3.6c-0.1-0.3-0.4-0.7-0.6-0.9c1.1-0.8,2.4-2,3-3L306.1,313.9
		z M314.5,320.3c-0.6,1.8-1.7,3.2-3.1,4.3c1.2,0.7,2.6,1.2,4.1,1.5c-0.2,0.3-0.6,0.7-0.7,1c-1.7-0.4-3.2-1-4.4-1.9
		c-1.3,0.8-2.9,1.4-4.5,1.8c-0.1-0.3-0.4-0.8-0.6-1c1.5-0.3,2.9-0.8,4.2-1.5c-1.1-1-1.9-2.1-2.6-3.5l0.2-0.1h-0.8v-1h7.2l0.2,0
		L314.5,320.3z M309,315.8c0,1.4-0.5,3-2.6,4c-0.1-0.2-0.5-0.6-0.7-0.8c1.9-0.9,2.3-2.1,2.3-3.2V314h5v3.4c0,0.4,0.1,0.6,0.3,0.6
		h1.3c0.2,0,0.6,0,0.8-0.1c0,0.3,0.1,0.7,0.1,1c-0.2,0.1-0.6,0.1-0.9,0.1h-1.4c-1.1,0-1.3-0.4-1.3-1.5V315H309V315.8z M308.1,321
		c0.6,1.1,1.4,2.1,2.4,2.9c1.1-0.8,1.9-1.7,2.5-2.9H308.1z"/>
	<path class="st0" d="M323.6,324.7c-2.3,0.5-4.7,1-6.4,1.4L317,325c1.6-0.3,4.1-0.8,6.5-1.3L323.6,324.7z M329.3,318.3
		c-0.6,2-1.5,3.7-2.6,5.2c0.6,1.5,1.2,2.5,1.9,2.5c0.4,0,0.6-0.8,0.7-2.8c0.3,0.3,0.7,0.5,1,0.6c-0.2,2.5-0.6,3.3-1.8,3.3
		c-1.1,0-2-1-2.7-2.6c-0.9,1-2,1.9-3.1,2.6c-0.2-0.2-0.6-0.7-0.9-0.8c1.4-0.7,2.6-1.7,3.6-2.9c-0.5-1.7-0.8-3.9-1-6.4H317v-1.1h7.2
		c0-0.8-0.1-1.5-0.1-2.3h1.2c0,0.8,0,1.6,0,2.3h4.5v1.1h-4.4c0.1,2,0.4,3.7,0.8,5.2c0.8-1.2,1.4-2.6,1.9-4.1L329.3,318.3z
		 M323,318.3v4.5h-5.1v-4.5H323z M322,319.3h-3v2.6h3V319.3z M328.8,315.9c-0.5-0.5-1.6-1.2-2.5-1.6l0.6-0.7c0.9,0.4,2,1,2.6,1.5
		L328.8,315.9z"/>
	<path class="st0" d="M257.7,331.3c-0.4,1-0.9,2.1-1.5,3.1v10.1h-1v-8.5c-0.5,0.7-1.1,1.4-1.7,2c-0.1-0.2-0.4-0.8-0.6-1.1
		c1.5-1.4,2.9-3.6,3.8-5.9L257.7,331.3z M266.9,339.1h-2.5v5.3h-1.1v-5.3h-2.7c-0.2,1.9-0.8,4-2.9,5.5c-0.2-0.2-0.5-0.6-0.8-0.8
		c1.9-1.2,2.5-3,2.6-4.7h-2.5v-1.1h2.5v-0.2v-2.8h-2.1v-1h9.1v1h-2.2v3h2.5V339.1z M259.9,334c-0.2-0.7-0.7-1.8-1.3-2.6l0.9-0.4
		c0.6,0.8,1.1,1.9,1.3,2.6L259.9,334z M263.3,338.1v-3h-2.7v2.8v0.2H263.3z M265.5,331.3c-0.5,0.9-1.1,2-1.6,2.7l-0.9-0.4
		c0.5-0.7,1.1-1.9,1.4-2.7L265.5,331.3z"/>
	<path class="st0" d="M273.1,339.7c-0.3-0.5-0.9-1.5-1.4-2.2v6.9h-1.1v-6.6c-0.6,1.5-1.4,3-2.2,3.9c-0.1-0.3-0.4-0.7-0.6-1
		c0.9-1.1,2-3,2.6-4.7h-2.3v-1h2.5v-2.2c-0.7,0.1-1.4,0.3-2,0.3c-0.1-0.2-0.2-0.6-0.3-0.9c1.7-0.3,3.6-0.7,4.7-1.2l0.7,0.9
		c-0.6,0.2-1.2,0.4-1.9,0.6v2.5h2.2v1h-2.2v0.3c0.5,0.5,1.7,2.2,2.1,2.6L273.1,339.7z M279.8,340.5v3.9h-1.1v-3.7l-4.8,0.8l-0.2-1.1
		l5-0.8v-8.8h1.1v8.6l1.7-0.3l0.2,1L279.8,340.5z M277,338.5c-0.5-0.7-1.7-1.6-2.6-2.2l0.7-0.7c1,0.6,2.1,1.5,2.7,2.1L277,338.5z
		 M277.3,334.6c-0.5-0.6-1.5-1.5-2.4-2.1l0.7-0.6c0.9,0.6,1.9,1.4,2.4,2L277.3,334.6z"/>
	<path class="st0" d="M283,343.1c3.4-3,5-5.2,5-7c0-1.2-0.7-2.2-2-2.2c-0.9,0-1.7,0.6-2.3,1.3l-0.8-0.8c0.9-1,1.8-1.6,3.2-1.6
		c1.9,0,3.2,1.3,3.2,3.2c0,2.2-1.7,4.4-4.3,6.8c0.6,0,1.2-0.1,1.8-0.1h3v1.2H283V343.1z"/>
	<path class="st0" d="M291.3,338.4c0-3.8,1.3-5.6,3.4-5.6c2.1,0,3.4,1.8,3.4,5.6c0,3.8-1.3,5.7-3.4,5.7
		C292.6,344,291.3,342.2,291.3,338.4z M296.8,338.4c0-3.2-0.8-4.5-2.1-4.5c-1.2,0-2.1,1.3-2.1,4.5c0,3.2,0.8,4.6,2.1,4.6
		C295.9,343,296.8,341.6,296.8,338.4z"/>
	<path class="st0" d="M303.1,333.3h-3.3v-0.9h3.3v-0.9h1.1v0.9h1.8v0.9h-1.8v0.9h-1.1V333.3z M312.1,343.9c0,0.5-0.1,0.8-0.5,1
		c-0.4,0.2-1,0.2-1.9,0.2c-0.1-0.3-0.2-0.6-0.3-0.9c0.7,0,1.3,0,1.4,0c0.2,0,0.2-0.1,0.2-0.2v-3.1h-4.3v1.5l1.9-0.1
		c-0.2-0.3-0.4-0.7-0.7-1l0.8-0.3c0.7,0.8,1.3,1.9,1.5,2.6l-0.9,0.3c-0.1-0.3-0.2-0.6-0.4-0.9c-2.4,0.2-4.8,0.3-6.5,0.4l-0.1-1
		c0.9,0,2-0.1,3.2-0.1v-1.6h-4.1v4.3h-1.1v-4.3h-0.6v-0.9h0.6v-0.5h1.1v0.5h4.1v-0.9h-4.3v-4.5h9.7v4.5h-4.4v0.9h5.4V343.9z
		 M302.5,336.3h3.2v-1.1h-3.2V336.3z M305.7,338.1V337h-3.2v1.1H305.7z M312.7,332.3v0.9h-3.4v0.9h-1.1v-0.9h-1.7v-0.9h1.7v-0.9h1.1
		v0.9H312.7z M310,335.2h-3.3v1.1h3.3V335.2z M310,337h-3.3v1.1h3.3V337z"/>
	<path class="st0" d="M320.6,340.7c-2.1,0.9-4.3,1.9-5.9,2.6l-0.4-1.1c0.6-0.2,1.3-0.5,2.1-0.8l-0.3-9.2l1.1,0l0.2,8.8
		c1-0.4,1.9-0.8,2.9-1.2L320.6,340.7z M327.2,344.9c-0.7-1-2.1-2.6-3.3-3.9c-1.2,1.8-2.8,3-5.1,4c-0.1-0.2-0.6-0.7-0.9-1
		c5.1-1.9,6.7-5.5,7.3-11.9l1.2,0.1c-0.4,3.2-0.9,5.7-2,7.7c1.3,1.3,2.9,3,3.7,4.1L327.2,344.9z M321.4,337.4
		c-0.4-1-1.4-2.5-2.3-3.6l1-0.5c1,1.1,1.9,2.5,2.3,3.6L321.4,337.4z"/>
	<path class="st0" d="M261.2,350.1v2.6l0.2-0.2c1.8,0.8,4.1,2.2,5.3,3.1l-0.8,1c-1-0.8-3-2.1-4.7-3v7.8H260v-11.4h-5.7V349h13.1v1.1
		H261.2z"/>
	<path class="st0" d="M273.3,353.8h3v0.8h-7.1v-0.8h3.5c-0.4-0.4-0.9-0.9-1.4-1.3l0.7-0.6c0.7,0.4,1.4,1.1,1.7,1.5L273.3,353.8z
		 M281.6,351.7H270v-3.3h11.6V351.7z M275.6,360.9h-4.5v0.5h-1v-3.2h5.5V360.9z M270.2,356.8h5.3v0.7h-5.3V356.8z M275.5,356.1h-5.3
		v-0.7h5.3V356.1z M273.4,349.3H271v1.6h2.4V349.3z M271.1,359v1.2h3.5V359H271.1z M276.9,349.3h-2.5v1.6h2.5V349.3z M278.4,359.1
		h-1v-6.3h1V359.1z M280.5,349.3h-2.5v1.6h2.5V349.3z M281.6,352.2v7.9c0,0.7-0.2,1-0.6,1.1c-0.5,0.2-1.3,0.2-2.5,0.2
		c0-0.3-0.2-0.7-0.4-1c1,0,1.9,0,2.1,0c0.3,0,0.4-0.1,0.4-0.3v-7.9H281.6z"/>
	<path class="st0" d="M291.2,353.7v2h5.2v1h-5.2v3.6h5.9v1h-12.8v-1h5.8v-3.6h-5.1v-1h5.1v-2h-3.2v-0.8c-0.8,0.4-1.6,0.8-2.4,1.1
		c-0.2-0.3-0.5-0.8-0.7-1c2.8-0.9,5.5-2.6,6.9-4.8l1,0.5c-0.1,0.2-0.2,0.4-0.4,0.5c1.5,1.6,4.1,3.1,6.3,3.8c-0.3,0.2-0.6,0.7-0.8,1
		c-0.8-0.3-1.6-0.7-2.4-1.1v0.9H291.2z M287.1,357.1c0.6,0.8,1.2,1.9,1.4,2.7l-1,0.4c-0.2-0.7-0.8-1.9-1.4-2.7L287.1,357.1z
		 M294.3,352.7c-1.3-0.8-2.6-1.8-3.6-2.8c-1,1.1-2.2,2-3.5,2.8H294.3z M292.5,359.8c0.5-0.7,1.2-1.9,1.5-2.7l1,0.4
		c-0.5,0.9-1.2,2-1.8,2.7L292.5,359.8z"/>
</g>
<g>
	<path class="st0" d="M36.9,71.4c-1.9,0.7-4,1.5-5.6,2l-0.8-1.8c0.6-0.2,1.4-0.4,2.2-0.7v-6.1H31v-1.7h5.4v1.7h-1.8v5.5l2-0.6
		L36.9,71.4z M39,73.1l1.5,1c-1,0.8-2.7,1.6-4.1,2.1c-0.3-0.4-0.8-0.9-1.1-1.3c1.3-0.4,2.9-1.2,3.7-1.8h-1.6v-8.4h2.5
		c0.1-0.4,0.1-0.7,0.2-1.1h-3.3v-1.6h9v1.6h-3.5c-0.1,0.4-0.3,0.7-0.4,1.1H45v8.4H39z M39,67.1h4.2v-1H39V67.1z M39,69.4h4.2v-1H39
		V69.4z M39,71.7h4.2v-1H39V71.7z M42.7,73.2c1,0.5,2.4,1.4,3.2,2l-1.5,1.1c-0.7-0.6-2-1.5-3.1-2.1L42.7,73.2z"/>
	<path class="st0" d="M43.9,83.3v13.8h-2v-1h-7.3v1h-1.9V83.3H43.9z M34.5,85.1v1.8h7.3v-1.8H34.5z M34.5,88.7v1.9h7.3v-1.9H34.5z
		 M41.9,94.2v-1.9h-7.3v1.9H41.9z"/>
</g>
<g>
	<path class="st0" d="M43.8,165c0.3,0,0.3-0.2,0.3-1.7c0.3,0.3,1.1,0.6,1.6,0.7c-0.2,2.1-0.6,2.7-1.7,2.7H43c-1.4,0-1.7-0.6-1.7-2.2
		v-3.2h-0.7c-0.2,2.5-0.8,4.5-3.4,5.6c-0.2-0.4-0.6-1-0.9-1.3v0.3h-3.1v0.7h-1.6v-5.5h4.7v4.3c2-0.9,2.3-2.3,2.5-4.1h-1v-4.3
		c-0.2,0.2-0.4,0.3-0.5,0.5c-0.3-0.3-1-1-1.3-1.3l0.1,0h-5v-1.5h2.4c-0.2-0.6-0.5-1.4-0.8-2l1.6-0.5c0.3,0.6,0.7,1.5,0.9,2l-1.2,0.4
		h2.8v0.9c0.9-0.9,1.7-2.1,2.3-3.3l1.7,0.5c-0.6,1.2-1.4,2.5-2.2,3.5h5.4c-0.7-1.1-1.7-2.3-2.6-3.3l1.3-0.9c1.2,1.3,2.7,3,3.4,4.2
		l-1.4,1c-0.1-0.2-0.2-0.3-0.3-0.5v4.5h-1v3.1c0,0.5,0,0.5,0.3,0.5H43.8z M36,158.3h-4.5v-1.4H36V158.3z M31.5,159H36v1.4h-4.5V159z
		 M34.6,162.7h-1.5v1.8h1.5V162.7z M39.4,159.7h2.8V158h-2.8V159.7z"/>
	<path class="st0" d="M33.2,184.5v1.4h-1.7v-11.1h5.3v9.7H33.2z M33.2,176.5v2.3H35v-2.3H33.2z M35,182.8v-2.3h-1.8v2.3H35z
		 M45.1,186.6c0,1-0.2,1.5-0.8,1.8c-0.6,0.3-1.5,0.3-2.9,0.3c-0.1-0.5-0.4-1.3-0.7-1.8c0.9,0,1.8,0,2.1,0c0.3,0,0.4-0.1,0.4-0.4
		v-2.8h-3.4c-0.4,1.9-1.1,3.8-2.7,5.1c-0.3-0.4-1-1-1.4-1.2c2.4-2,2.6-4.9,2.6-7.3v-5.7h6.9V186.6z M43.2,182.1v-2h-3.1v0.3
		c0,0.6,0,1.2-0.1,1.8H43.2z M40.1,176.3v2h3.1v-2H40.1z"/>
</g>
<g>
	<path class="st0" d="M34.2,234H36v4.4c0,2.5-0.7,4.3-4.3,5.4c-0.2-0.4-0.8-1-1.1-1.4c1.4-0.4,2.3-0.8,2.8-1.4
		c-1.3,0.2-2.6,0.3-3.7,0.4l-0.2-1.7c1.2-0.1,2.9-0.2,4.6-0.4c0-0.3,0.1-0.5,0.1-0.8h-3.7v-1.5h3.7v-0.7h-4v-1.6h4V234z M43.4,233.7
		h-13v-4.2h13V233.7z M34.1,230.9h-1.9v1.2h1.9V230.9z M37.8,230.9h-1.9v1.2h1.9V230.9z M44,241.3h-4.6v2.4h-1.9V234h1.9v0.8h4.3
		v1.6h-4.3v0.7h3.9v1.6h-3.9v0.9H44V241.3z M41.5,230.9h-2v1.2h2V230.9z"/>
	<path class="st0" d="M43.4,264.6h-2v-0.7h-6v0.7h-1.9v-4.9c-0.8,0.3-1.6,0.5-2.3,0.7c-0.2-0.5-0.6-1.3-1-1.7c1.9-0.4,3.8-1,5.5-1.9
		c-0.7-0.7-1.6-1.5-2.5-2.1c-0.4,0.3-0.9,0.6-1.4,0.8c-0.3-0.5-0.9-1.2-1.3-1.5c2.6-1.1,4.3-2.7,5.3-4.2l2.1,0.4
		c-0.3,0.4-0.6,0.8-0.9,1.2h4.6l0.3-0.1l1.3,0.8c-1.1,2.3-2.9,4.1-5.1,5.5h5.1V264.6z M35.4,253.1c-0.2,0.2-0.4,0.3-0.6,0.5
		c0.9,0.7,2,1.5,2.7,2.2c1.2-0.8,2.2-1.7,3-2.7H35.4z M41.4,262.2v-3h-6v3H41.4z"/>
</g>
<g>
	<path class="st0" d="M36.8,305.5h1.6v1.8h-1.6v6.7h-1.8v-6.7h-1.6c-0.1,2.6-0.5,4.9-2.3,6.9c-0.3-0.4-0.9-0.9-1.4-1.2
		c1.5-1.7,1.8-3.7,1.9-5.7h-1.7v-1.8h1.7V302h-1.4v-1.8H38v1.8h-1.2V305.5z M34.9,305.5V302h-1.6v3.5H34.9z M40.8,310H39v-8.9h1.8
		V310z M43.9,299.7v12.3c0,1-0.2,1.6-0.8,1.9c-0.6,0.3-1.6,0.4-2.9,0.4c-0.1-0.5-0.3-1.4-0.6-1.9c0.9,0,1.8,0,2,0
		c0.3,0,0.4-0.1,0.4-0.4v-12.2H43.9z"/>
	<path class="st0" d="M39.9,332c1.5,0.5,3.1,1.1,4.1,1.5l-2.3,0.8c-0.9-0.5-2.5-1.1-4.1-1.7L39,332h-4.2l1.2,0.5
		c-1.3,0.8-3.3,1.5-5,1.9c-0.3-0.4-1-1-1.4-1.3c1.4-0.2,3-0.6,4.1-1.1h-2.1v-6.2h10.6v6.2H39.9z M43.9,325.2H29.7v-1.3h6.2v-0.6
		h-4.5v-1.1h4.5v-0.6h-5.3v-1.2h5.3v-0.9h1.9v0.9h5.5v1.2h-5.5v0.6h4.8v1.1h-4.8v0.6h6.1V325.2z M33.4,327.5h6.9v-0.6h-6.9V327.5z
		 M33.4,329.2h6.9v-0.6h-6.9V329.2z M33.4,330.9h6.9v-0.7h-6.9V330.9z"/>
</g>
<g>
	<path class="st0" d="M82.2,107.2c-0.9,2.5-2.1,4.5-3.7,6.1c1.7,1.5,3.9,2.6,6.4,3.2c-0.3,0.3-0.6,0.8-0.8,1.1
		c-2.6-0.7-4.7-1.9-6.5-3.5c-1.8,1.6-4,2.7-6.6,3.5c-0.1-0.3-0.5-0.8-0.7-1.1c2.6-0.7,4.7-1.8,6.5-3.3c-1.6-1.7-2.9-3.7-3.8-6.1
		h-2.4V106h14.2v1.2H82.2z M74.1,107.2c0.8,2,2,3.8,3.5,5.3c1.4-1.4,2.5-3.2,3.3-5.3H74.1z M77.5,106c-0.2-0.7-0.7-1.7-1.2-2.5
		l1.2-0.3c0.5,0.7,1,1.8,1.2,2.4L77.5,106z"/>
	<path class="st0" d="M100.1,112.9H94v3.4c0,0.7-0.2,1-0.7,1.2c-0.6,0.2-1.4,0.2-2.7,0.2c-0.1-0.3-0.3-0.9-0.5-1.2
		c1.1,0,2.1,0,2.4,0c0.3,0,0.4-0.1,0.4-0.3v-3.4h-6.2v-1.1h6.2v-1c0.9-0.4,2-1.2,2.8-1.9h-6.3v-1.1h7.5l0.3-0.1l0.8,0.6
		c-1,1-2.4,2.1-3.8,2.8v0.6h6.2V112.9z M87.9,108.1h-1.2v-3.2H93c-0.2-0.5-0.5-1-0.8-1.4l1.1-0.4c0.4,0.5,0.8,1.2,1.1,1.8h5.6v3.2
		h-1.2V106H87.9V108.1z"/>
	<path class="st0" d="M115.8,103.9v13.8h-1.1v-0.6h-11v0.6h-1.1v-13.8H115.8z M114.7,116.1v-11.2h-11v11.2H114.7z M114,108.8v0.7
		h-9.5v-0.7h4.2v-0.7h-2.6v-2.5h6.3v2.5h-2.7v0.7H114z M105.6,110.2h7.3v5h-7.3V110.2z M106.5,114.5h5.4V111h-5.4V114.5z
		 M107.1,107.4h4.3v-1h-4.3V107.4z M107.5,111.6h3.4v2.2h-3.4V111.6z M108.3,113.2h1.9v-0.9h-1.9V113.2z"/>
	<path class="st0" d="M129.4,110.9v6.9h-1.2v-5.7h-6.7c-0.2,2.1-0.9,4.1-2.3,5.7c-0.2-0.3-0.6-0.7-0.9-0.9c2-2.3,2.2-5.3,2.2-8.2
		v-5.3h1.2v3.7h6v-3.9h1.2v5.1h-7.2v0.4c0,0.7,0,1.4-0.1,2.1H129.4z"/>
</g>
<g>
	<path class="st1" d="M92,92.7c-0.3,0-0.6-0.1-0.8-0.3l-4.5-4.5h-6.6c-4.3,0-7.7-3.5-7.7-7.7v-17c0-4.3,3.5-7.7,7.7-7.7h11.2
		c0.6,0,1.1,0.5,1.1,1.1c0,0.6-0.5,1.1-1.1,1.1H80.1c-3,0-5.5,2.5-5.5,5.5v17c0,3,2.5,5.5,5.5,5.5h7.2c0.5,0,0.8,0.3,1,0.7l2.6,2.6
		l0-2.2c0-0.6,0.5-1.1,1.1-1.1H104c3,0,5.5-2.5,5.5-5.5v-7.6c0-0.6,0.5-1.1,1.1-1.1s1.1,0.5,1.1,1.1v7.6c0,4.3-3.5,7.7-7.7,7.7H93.2
		l0,3.8c0,0.4-0.3,0.8-0.7,1C92.3,92.7,92.2,92.7,92,92.7z"/>
	<path class="st1" d="M121.9,72.2c-0.3,0-0.6-0.1-0.8-0.3l-4.1-4.1c-1.3,0.3-2.7,0.5-4.1,0.5h-2.8C101.2,68.2,94,61,94,52.2
		s7.2-16.1,16.1-16.1h2.8c8.9,0,16.1,7.2,16.1,16.1c0,2.6-0.6,5-1.7,7.3c-1,2-2.5,3.8-4.2,5.2v6.4c0,0.4-0.3,0.8-0.7,1
		C122.2,72.1,122,72.2,121.9,72.2z M117.3,65.4c0.3,0,0.6,0.1,0.8,0.3l2.7,2.7v-4.3c0-0.3,0.2-0.7,0.4-0.9c3.5-2.6,5.5-6.7,5.5-11.1
		c0-7.6-6.2-13.9-13.9-13.9h-2.8c-7.6,0-13.9,6.2-13.9,13.9S102.5,66,110.1,66h2.8c1.4,0,2.8-0.2,4.1-0.6
		C117.1,65.4,117.2,65.4,117.3,65.4z"/>
	<path class="st1" d="M102.8,72.6H79.5c-0.6,0-1.1-0.5-1.1-1.1c0-0.6,0.5-1.1,1.1-1.1h23.3c0.6,0,1.1,0.5,1.1,1.1
		C103.9,72.1,103.4,72.6,102.8,72.6z"/>
	<path class="st1" d="M102.8,78.8c-0.3,0-0.6-0.1-0.8-0.3c-0.2-0.2-0.3-0.5-0.3-0.8c0-0.3,0.1-0.6,0.3-0.8c0.2-0.2,0.5-0.3,0.8-0.3
		c0.3,0,0.6,0.1,0.8,0.3c0.2,0.2,0.3,0.5,0.3,0.8c0,0.3-0.1,0.6-0.3,0.8C103.3,78.7,103.1,78.8,102.8,78.8z"/>
	<path class="st1" d="M98.4,78.8h-19c-0.6,0-1.1-0.5-1.1-1.1c0-0.6,0.5-1.1,1.1-1.1h19c0.6,0,1.1,0.5,1.1,1.1
		C99.5,78.3,99,78.8,98.4,78.8z"/>
	<path class="st1" d="M95.6,66.4H79.5c-0.6,0-1.1-0.5-1.1-1.1c0-0.6,0.5-1.1,1.1-1.1h16.1c0.6,0,1.1,0.5,1.1,1.1
		C96.7,65.9,96.2,66.4,95.6,66.4z"/>
	<path class="st1" d="M122.6,52.7h-20.8c-0.5,0-1-0.4-1-1s0.4-1,1-1h20.8c0.5,0,1,0.4,1,1S123.1,52.7,122.6,52.7z"/>
	<path class="st1" d="M122.6,58.3c-0.3,0-0.5-0.1-0.7-0.3c-0.2-0.2-0.3-0.4-0.3-0.7c0-0.3,0.1-0.5,0.3-0.7c0.2-0.2,0.4-0.3,0.7-0.3
		c0.3,0,0.5,0.1,0.7,0.3c0.2,0.2,0.3,0.4,0.3,0.7c0,0.3-0.1,0.5-0.3,0.7C123.1,58.2,122.8,58.3,122.6,58.3z"/>
	<path class="st1" d="M118.7,58.3h-16.9c-0.5,0-1-0.4-1-1s0.4-1,1-1h16.9c0.5,0,1,0.4,1,1S119.2,58.3,118.7,58.3z"/>
	<path class="st1" d="M116.2,47.2h-14.4c-0.5,0-1-0.4-1-1c0-0.5,0.4-1,1-1h14.4c0.5,0,1,0.4,1,1C117.1,46.8,116.7,47.2,116.2,47.2z"
		/>
</g>
<g>
	<path class="st0" d="M179.5,107.2c-0.9,2.5-2.1,4.5-3.7,6.1c1.7,1.5,3.9,2.6,6.4,3.2c-0.3,0.3-0.6,0.8-0.8,1.1
		c-2.6-0.7-4.7-1.9-6.5-3.5c-1.8,1.6-4,2.7-6.6,3.5c-0.1-0.3-0.5-0.8-0.7-1.1c2.6-0.7,4.7-1.8,6.5-3.3c-1.6-1.7-2.9-3.7-3.8-6.1
		h-2.4V106H182v1.2H179.5z M171.4,107.2c0.8,2,2,3.8,3.5,5.3c1.4-1.4,2.5-3.2,3.3-5.3H171.4z M174.8,106c-0.2-0.7-0.7-1.7-1.2-2.5
		l1.2-0.3c0.5,0.7,1,1.8,1.2,2.4L174.8,106z"/>
	<path class="st0" d="M197.4,112.9h-6.2v3.4c0,0.7-0.2,1-0.7,1.2c-0.6,0.2-1.4,0.2-2.7,0.2c-0.1-0.3-0.3-0.9-0.5-1.2
		c1.1,0,2.1,0,2.4,0c0.3,0,0.4-0.1,0.4-0.3v-3.4h-6.2v-1.1h6.2v-1c0.9-0.4,2-1.2,2.8-1.9h-6.3v-1.1h7.5l0.3-0.1l0.8,0.6
		c-1,1-2.4,2.1-3.8,2.8v0.6h6.2V112.9z M185.2,108.1h-1.2v-3.2h6.3c-0.2-0.5-0.5-1-0.8-1.4l1.1-0.4c0.4,0.5,0.8,1.2,1.1,1.8h5.6v3.2
		h-1.2V106h-10.9V108.1z"/>
	<path class="st0" d="M213.2,103.9v13.8H212v-0.6h-11v0.6H200v-13.8H213.2z M212,116.1v-11.2h-11v11.2H212z M211.3,108.8v0.7h-9.5
		v-0.7h4.2v-0.7h-2.6v-2.5h6.3v2.5H207v0.7H211.3z M202.9,110.2h7.3v5h-7.3V110.2z M203.8,114.5h5.4V111h-5.4V114.5z M204.4,107.4
		h4.3v-1h-4.3V107.4z M204.8,111.6h3.4v2.2h-3.4V111.6z M205.6,113.2h1.9v-0.9h-1.9V113.2z"/>
	<path class="st0" d="M226.7,110.9v6.9h-1.2v-5.7h-6.7c-0.2,2.1-0.9,4.1-2.3,5.7c-0.2-0.3-0.6-0.7-0.9-0.9c2-2.3,2.2-5.3,2.2-8.2
		v-5.3h1.2v3.7h6v-3.9h1.2v5.1h-7.2v0.4c0,0.7,0,1.4-0.1,2.1H226.7z"/>
</g>
<g>
	<g>
		<defs>
			<rect id="SVGID_1_" x="169.4" y="35.1" width="58.6" height="58.6"/>
		</defs>
		<clipPath id="SVGID_2_">
			<use xlink:href="#SVGID_1_"  style="overflow:visible;"/>
		</clipPath>
		<path class="st2" d="M227.5,83.5l-9.9-9.9l4.9-4.9c0.4-0.4,0.6-1,0.5-1.6c-0.1-0.6-0.6-1-1.1-1.2l-29.1-9.7
			c-0.6-0.2-1.3,0-1.8,0.4c-0.5,0.5-0.6,1.1-0.4,1.8l9.7,29.1c0.2,0.6,0.7,1,1.2,1.1c0.6,0.1,1.2,0,1.6-0.5l4.9-4.9l9.9,9.9
			c0.3,0.3,0.8,0.5,1.2,0.5c0.4,0,0.9-0.2,1.2-0.5l7.3-7.3C228.2,85.3,228.2,84.2,227.5,83.5L227.5,83.5z M219,89.6l-9.9-9.9
			c-0.7-0.7-1.8-0.7-2.4,0l-4.1,4.1l-7.7-23.2l23.2,7.7l-4.1,4.1c-0.7,0.7-0.7,1.8,0,2.4l9.9,9.9L219,89.6z M219,89.6"/>
	</g>
	<path class="st1" d="M191.7,48.8c0.9,0,1.7-0.8,1.7-1.7V36.8c0-0.9-0.8-1.7-1.7-1.7c-0.9,0-1.7,0.8-1.7,1.7v10.3
		C190,48.1,190.8,48.8,191.7,48.8L191.7,48.8z M191.7,48.8"/>
	<path class="st1" d="M178.4,41.7c-0.7-0.7-1.8-0.7-2.4,0c-0.7,0.7-0.7,1.8,0,2.4l7.3,7.3c0.7,0.7,1.8,0.7,2.4,0
		c0.7-0.7,0.7-1.8,0-2.4L178.4,41.7z M178.4,41.7"/>
	<path class="st1" d="M183.2,63.5l-7.3,7.3c-0.7,0.7-0.7,1.8,0,2.4c0.7,0.7,1.8,0.7,2.4,0l7.3-7.3c0.7-0.7,0.7-1.8,0-2.4
		C185,62.8,183.9,62.8,183.2,63.5L183.2,63.5z M183.2,63.5"/>
	<path class="st1" d="M200.2,51.4l7.3-7.3c0.7-0.7,0.7-1.8,0-2.4c-0.7-0.7-1.8-0.7-2.4,0l-7.3,7.3c-0.7,0.7-0.7,1.8,0,2.4
		C198.4,52,199.5,52,200.2,51.4L200.2,51.4z M200.2,51.4"/>
	<path class="st1" d="M183.1,57.4c0-0.9-0.8-1.7-1.7-1.7h-10.3c-0.9,0-1.7,0.8-1.7,1.7c0,0.9,0.8,1.7,1.7,1.7h10.3
		C182.4,59.1,183.1,58.4,183.1,57.4L183.1,57.4z M183.1,57.4"/>
</g>
<g>
	<path class="st0" d="M267.7,103.6c-0.3,1-0.8,2.1-1.3,3.1v11h-1.1v-9c-0.5,0.8-1,1.5-1.5,2.1c-0.1-0.3-0.4-0.9-0.6-1.2
		c1.4-1.5,2.7-3.9,3.5-6.3L267.7,103.6z M277.4,104.2v13.4h-1.1v-0.8h-7v0.9h-1.1v-13.5H277.4z M276.3,115.7v-10.5h-7v10.5H276.3z
		 M273.3,108.4v1.7h1.8v4.2h-4.5v-4.2h1.7v-1.7H270v-0.9h2.4v-1.8h1v1.8h2.4v0.9H273.3z M274.2,111.1h-2.7v2.5h2.7V111.1z"/>
	<path class="st0" d="M287.2,103.3c0,0.6,0,1.4-0.1,2.3c0.2,1.9,1.2,8.5,6.8,11c-0.3,0.3-0.7,0.7-0.9,1c-4-1.9-5.7-5.8-6.4-8.7
		c-0.7,3.2-2.4,6.7-6.3,8.8c-0.2-0.3-0.6-0.7-1-0.9c6.6-3.3,6.5-11,6.5-13.5H287.2z"/>
	<path class="st0" d="M299.9,107.6h-4.5v-1h4.5V107.6z M301.1,115.8c-1.3,0.8-3.3,1.5-4.8,1.9c-0.2-0.2-0.6-0.7-0.9-0.9
		c1.6-0.3,3.5-0.9,4.6-1.5L301.1,115.8z M299.5,105.1h-3.8v-0.9h3.8V105.1z M297.4,108.8h10.3v6.4h-10.3V108.8z M298.6,110.7h8v-1.1
		h-8V110.7z M298.6,112.5h8v-1.1h-8V112.5z M298.6,114.4h8v-1.1h-8V114.4z M302.4,105.2c-0.3,0.6-0.8,1.2-1.2,1.6
		c-0.2-0.2-0.6-0.5-0.9-0.6c0.8-0.7,1.5-1.9,1.8-3l1.1,0.2c-0.1,0.3-0.2,0.6-0.3,0.9h5.3l0.2,0l0.8,0.3c-0.4,0.8-0.9,1.7-1.3,2.3
		l-0.9-0.3c0.2-0.3,0.5-0.8,0.7-1.3h-2.5v0.2c0,0.2,0,0.3,0,0.5c0.8,1,2.6,1.6,4.6,1.7c-0.2,0.2-0.5,0.7-0.7,0.9
		c-1.8-0.3-3.3-0.9-4.3-1.9c-0.5,0.8-1.8,1.5-4.6,1.9c-0.1-0.3-0.4-0.7-0.6-0.9c4.1-0.6,4.5-1.6,4.5-2.5v-0.2H302.4z M304.8,115.3
		c1.7,0.5,3.6,1.2,4.7,1.7l-1,0.7c-1-0.5-2.7-1.2-4.4-1.8L304.8,115.3z"/>
	<path class="st0" d="M313.4,110.8c-0.3,1.8-1,4-1.8,5.1c-0.1-0.4-0.4-1-0.6-1.3c0.7-0.9,1.3-2.7,1.6-4.1L313.4,110.8z M314.8,109.6
		v8.1h-1.1v-8.1h-2.5v-1.1h2.5v-5.3h1.1v5.3h2.6v1.1H314.8z M312.2,108c-0.1-0.9-0.5-2.4-0.9-3.5l0.9-0.2c0.5,1.1,0.8,2.5,0.9,3.5
		L312.2,108z M315.6,110.6c0.3,0.5,1.4,2.6,1.7,3.2l-0.8,0.9c-0.3-0.9-1.2-2.9-1.5-3.6L315.6,110.6z M317.4,104.4
		c-0.4,1.2-0.9,2.7-1.3,3.6l-0.8-0.3c0.4-0.9,0.8-2.5,1.1-3.6L317.4,104.4z M323.6,113.2v4.5h-1.1v-4.3l-4.9,0.9l-0.2-1.1l5.1-0.9
		v-9.1h1.1v8.9l1.9-0.3l0.2,1.1L323.6,113.2z M320.4,111c-0.5-0.6-1.7-1.4-2.6-1.9l0.6-0.8c0.9,0.5,2.1,1.2,2.7,1.8L320.4,111z
		 M321.1,107.2c-0.5-0.6-1.6-1.5-2.5-2l0.6-0.8c0.9,0.5,2,1.3,2.5,1.9L321.1,107.2z"/>
</g>
<g>
	<path class="st1" d="M310.5,33.4h-27.6c-2.3,0-4.2,1.9-4.2,4.2v53.6c0,2.3,1.9,4.2,4.2,4.2h27.6c2.3,0,4.2-1.9,4.2-4.2V37.6
		C314.7,35.3,312.8,33.4,310.5,33.4L310.5,33.4z M292.3,36.4h8.8c0.3,0,0.5,0.2,0.5,0.5c0,0.3-0.2,0.5-0.5,0.5h-8.8
		c-0.3,0-0.5-0.2-0.5-0.5C291.8,36.7,292,36.4,292.3,36.4L292.3,36.4z M296.7,93.3c-1.2,0-2.1-0.9-2.1-2.1c0-1.2,0.9-2.1,2.1-2.1
		c1.2,0,2.1,0.9,2.1,2.1C298.8,92.4,297.9,93.3,296.7,93.3L296.7,93.3z M311.8,87.7h-30.2V40.1h30.2V87.7z M311.8,87.7"/>
</g>
<path class="st3" d="M331.3,376.3H33.2c-5.2,0-9.4-4.2-9.4-9.4V21.8c0-5.2,4.2-9.4,9.4-9.4h298.1c5.2,0,9.4,4.2,9.4,9.4v345.1
	C340.8,372.1,336.5,376.3,331.3,376.3z"/>
<line class="st4" x1="149" y1="12.3" x2="149" y2="376.3"/>
<line class="st4" x1="245" y1="12.3" x2="245" y2="376.3"/>
<line class="st4" x1="53" y1="12.3" x2="53" y2="376.3"/>
<line class="st5" x1="23.8" y1="127.7" x2="341" y2="127.7"/>
<line class="st5" x1="22.6" y1="278.3" x2="339.7" y2="278.3"/>
<line class="st5" x1="23.8" y1="214.3" x2="341" y2="214.3"/>
</svg>
