<?xml version="1.0" encoding="utf-8"?>
<!-- Generator: Adobe Illustrator 21.1.0, SVG Export Plug-In . SVG Version: 6.00 Build 0)  -->
<svg version="1.1" id="图层_1" xmlns="http://www.w3.org/2000/svg" xmlns:xlink="http://www.w3.org/1999/xlink" x="0px" y="0px"
	 viewBox="0 0 1080 1080" style="enable-background:new 0 0 1080 1080;" xml:space="preserve">
<style type="text/css">
	.st0{opacity:0.75;fill:#21273A;enable-background:new    ;}
	.st1{enable-background:new    ;}
	.st2{fill:#FFFFFF;}
</style>
<circle class="st0" cx="539.5" cy="558.5" r="495"/>
<g class="st1">
	<path class="st2" d="M141.6,592.4l-7.9,34.1h-24.8l34.1-139.7h25.5l34.1,139.7H178l-7.9-34.1H141.6z M164.4,568l-8.6-36.9
		l-8.6,36.9H164.4z"/>
	<path class="st2" d="M289.5,626.6h-23.8v-61.1c0-11.4-4.1-17.1-12.2-17.1c-9,0-13.5,5.9-13.5,17.6v60.6h-23.6v-71.8
		c0-5.1-0.7-13.3-2.1-24.4l-0.2-2.8h23.6l0.8,6.9c5.3-6.4,12.3-9.6,21-9.6c20,0,30,12.6,30,37.7V626.6z"/>
	<path class="st2" d="M390.6,577c0,13.8-3.3,25.5-9.9,35.3c-7.9,11.4-18.8,17.1-32.8,17.1c-14,0-24.9-5.7-32.8-17.1
		c-6.6-9.8-9.9-21.5-9.9-35.3c0-13.5,3.3-25.1,9.9-34.9c7.9-11.5,18.8-17.3,32.8-17.3c14,0,24.9,5.8,32.8,17.3
		C387.3,551.9,390.6,563.5,390.6,577z M366.1,577c0-7.5-1.4-13.8-4.3-18.9c-3.5-5.7-8.1-8.6-13.9-8.6c-5.8,0-10.4,2.9-13.9,8.6
		c-2.9,5.1-4.3,11.4-4.3,18.9c0,7.6,1.4,14.1,4.3,19.3c3.5,5.8,8.1,8.6,13.9,8.6c5.7,0,10.4-2.9,13.9-8.6
		C364.6,591.1,366.1,584.7,366.1,577z"/>
	<path class="st2" d="M481.6,626.6h-23.8v-61.1c0-11.4-4.1-17.1-12.2-17.1c-9,0-13.5,5.9-13.5,17.6v60.6h-23.6v-71.8
		c0-5.1-0.7-13.3-2.1-24.4l-0.2-2.8h23.6l0.8,6.9c5.3-6.4,12.3-9.6,21-9.6c20,0,30,12.6,30,37.7V626.6z"/>
	<path class="st2" d="M585.9,527.5l-45.6,126H515l14.4-39.9l-35.3-86.1h25.3l21.8,56.8l19.3-56.8H585.9z"/>
	<path class="st2" d="M681.9,626.7h-23.8V560c0-7.6-1.4-11.4-4.1-11.4c-3.5,0-5.3,3.7-5.3,11.1v67.1h-23.8V560
		c0-7.6-1.4-11.4-4.1-11.4c-3.4,0-5.1,3.7-5.1,11.1v67.1H592V545c0-3.9-0.7-9.7-2.1-17.4h21.2c0.4,1.5,0.9,3.9,1.7,7.1
		c3.5-6.5,8.1-9.8,13.9-9.8c5.7,0,10.1,3.4,12.9,10.1c4.1-6.8,10.4-10.1,18.9-10.1c15.5,0,23.3,11.6,23.3,34.7V626.7z"/>
	<path class="st2" d="M774.7,577c0,13.8-3.3,25.5-9.9,35.3c-7.9,11.4-18.8,17.1-32.8,17.1c-14,0-24.9-5.7-32.8-17.1
		c-6.6-9.8-9.9-21.5-9.9-35.3c0-13.5,3.3-25.1,9.9-34.9c7.9-11.5,18.8-17.3,32.8-17.3c14,0,24.9,5.8,32.8,17.3
		C771.4,551.9,774.7,563.5,774.7,577z M750.1,577c0-7.5-1.4-13.8-4.3-18.9c-3.5-5.7-8.1-8.6-13.9-8.6c-5.8,0-10.4,2.9-13.9,8.6
		c-2.9,5.1-4.3,11.4-4.3,18.9c0,7.6,1.4,14.1,4.3,19.3c3.5,5.8,8.1,8.6,13.9,8.6c5.7,0,10.4-2.9,13.9-8.6
		C748.7,591.1,750.1,584.7,750.1,577z"/>
	<path class="st2" d="M865.7,626.7h-24.6l-0.2-6.9c-2.5,2.6-5.8,4.9-9.9,6.9c-4,1.7-7.7,2.6-11.1,2.6c-10.6,0-18.3-3.5-23.1-10.5
		c-4.3-6.5-6.4-16.4-6.4-29.8v-61.5h23.8v61.9c0,10.4,4.3,15.6,12.9,15.6c8.4,0,12.6-6.1,12.6-18.4v-59.1h23.8v72.2
		C863.6,607.5,864.3,616.5,865.7,626.7z"/>
	<path class="st2" d="M962.8,596c0,22.3-13.5,33.4-40.5,33.4c-11,0-19.7-2.8-26.1-8.4c-7.1-6.1-10.8-15.2-10.9-27.2h24
		c0.2,4.4,1.5,7.4,3.8,9c2,1.5,5.8,2.3,11.4,2.3c9.4,0,14.1-2.7,14.1-8.3c0-3.9-5.5-7.4-16.5-10.7c-10.9-3.4-18.4-6.5-22.5-9.4
		c-7.6-5-11.4-11.7-11.4-20.1c0-10.4,3.8-18.4,11.3-24.2c6.6-5,14.8-7.5,24.6-7.5c23.5,0,35.6,10.9,36.2,32.6h-23.4
		c-1.6-5.5-6.1-8.3-13.5-8.3c-7.3,0-10.9,1.4-10.9,4.1c0,2.6,6.1,5.9,18.4,9.9C952.1,570.2,962.8,581.1,962.8,596z"/>
</g>
</svg>
