<?xml version="1.0" encoding="utf-8"?>
<!-- Generator: Adobe Illustrator 21.1.0, SVG Export Plug-In . SVG Version: 6.00 Build 0)  -->
<svg version="1.1" id="图层_1" xmlns="http://www.w3.org/2000/svg" xmlns:xlink="http://www.w3.org/1999/xlink" x="0px" y="0px"
	 viewBox="0 0 500 500" style="enable-background:new 0 0 500 500;" xml:space="preserve">
<style type="text/css">
	.st0{fill:#3C465E;stroke:#3C465E;stroke-width:15;stroke-miterlimit:10;}
	.st1{fill:#3C465E;stroke:#3C465E;stroke-width:8;stroke-miterlimit:10;}
	.st2{fill:#3C465E;stroke:#3C465E;stroke-width:0.5;stroke-miterlimit:10;}
	.st3{fill:#3C465E;}
</style>
<g>
	<path class="st0" d="M394.8,390.9c-34.5,32.5-81,52.5-132.2,52.5c-54.4,0-103.5-22.5-138.6-58.7l-19.7-17.2l1.7-4.3
		c-22.9-31.7-36.4-70.7-36.4-112.8c0-106.6,86.4-193,193-193c58.7,0,111.2,26.2,146.6,67.5h9.3l15.8-11.4
		C394,63.1,332.1,30.8,262.6,30.8C141.3,30.8,43,129.1,43,250.4S141.3,470,262.6,470c56.2,0,107.5-21.1,146.3-55.9l-9.8-26.2
		L394.8,390.9z"/>
	<path class="st1" d="M124,384.7c-6.5-6.7-12.5-13.9-18-21.5l-1.7,4.3L124,384.7z"/>
	<path class="st1" d="M394.8,390.9l4.2-3l-0.3-0.8C397.5,388.4,396.1,389.6,394.8,390.9z"/>
</g>
<path class="st2" d="M144.6,402.6l50.8-136.6h112.1l50.8,150.6l36.5-25.7c1.3-1.2,2.6-2.5,3.9-3.8l0.3,0.8l6.5-4.6l-98.1-266.2
	H205.9L106,363.2c5.5,7.6,11.5,14.8,18,21.5L144.6,402.6z M225.2,159.1h49l21,71.8h-91.1L225.2,159.1z"/>
<polygon class="st3" points="319.6,117 429.9,409.2 437.7,401.5 330,117 "/>
</svg>
