<?xml version="1.0" encoding="utf-8"?>
<!-- Generator: Adobe Illustrator 21.1.0, SVG Export Plug-In . SVG Version: 6.00 Build 0)  -->
<svg version="1.1" id="图层_1" xmlns="http://www.w3.org/2000/svg" xmlns:xlink="http://www.w3.org/1999/xlink" x="0px" y="0px"
	 viewBox="0 0 1080 1080" style="enable-background:new 0 0 1080 1080;" xml:space="preserve">
<style type="text/css">
	.st0{fill:#00FFFF;}
	.st1{fill:#FFEE52;}
</style>
<path class="st0" d="M519.2,419.2l-1.8,19.8c-6.7-0.4-13.1-0.9-19.3-1.3c-0.3,0.9-0.6,1.8-0.9,2.7c3.9,0,7.7-0.1,11.6-0.1l1.6,17.4
	c-6.1,0-11.9,0.1-17.6,0.1c-0.4,1.9-0.7,3.7-1,5.5c6.5-0.3,13.2-0.4,19.8-0.4l1.8,17.4c-19.8,0-38.5,0.9-56.4,2.5
	c-0.6,0.9-1.2,1.6-1.8,2.4l1.2,0.3c5.7-1.2,11.5-1.8,17.4-1.8c3.9,0,8.8,0.1,14.7,0.4c5.1,0.6,9.2,1.8,12.5,3.6
	c4.8,1.8,7.1,7,7.1,15.6v3.1c0,3.3-0.9,5.5-2.4,7c-2.2,2.7-6.1,4.6-11.6,5.8c-5.7,1.5-14,2.2-25,2.2H465c-9.8,0-16.7-1.3-20.2-4
	c-3.1-2.2-5.1-4.9-5.8-8c-2.1,3.3-4,6.5-5.8,9.8l-18-12.8c4.6-7.1,9.2-14,14-20.2c-3.7,0.6-7.3,1-10.6,1.6l-1.6-17.4
	c9.1-1.3,18.1-2.5,27.1-3.6c1.2-1.5,2.5-3,3.7-4.5l-12.2,3.9c-0.7-1.5-1.3-3-1.6-4.5c-4.2,0.6-8.3,1-12.3,1.6l-1.5-14
	c-5.4,19-7.9,36.3-7.9,51.8c0,8.5,2.2,14.6,6.7,18.4c4.2,4,11,6,20.7,6c20.2,0,43.6-2.1,69.8-6.4l4,18.6
	c-25.1,4.2-48.9,6.4-71.5,6.4h-6.5c-12.5,0-23.1-3-31.8-8.6c-9.7-7-14.4-17.1-14.4-30.3c0-22,4-46.9,12.2-74.4
	c-3-0.1-5.9-0.3-8.8-0.6l3-19.2C438.3,413,479.5,415.6,519.2,419.2z M427.4,437.8l14.7-4.2c-5.7-0.3-11.3-0.7-16.8-1.2
	c-1.6,4.8-3,9.2-4.2,13.4c2.7-0.3,5.2-0.6,7.7-0.9C428.3,442.6,427.7,440.2,427.4,437.8z M476.8,436.2c-9.8-0.6-19.5-1.3-28.7-2.1
	c0.4,3,1,5.9,1.9,8.6c8.5-0.6,17-1.2,25.3-1.6C475.8,439.3,476.2,437.7,476.8,436.2z M459.5,501.6c-0.1,0.6-0.1,0.9-0.1,1.2
	c0,1.8,0.6,3,1.8,3.7c1.6,0.7,4.3,1,8,1c7.4,0,12.3-0.4,14.7-1.3c1.9-0.6,3-2.1,3.3-4.5c-0.3-2.1-1.6-3.3-4.3-3.7
	c-3.6-0.3-7.1-0.4-10.7-0.4C467.7,497.9,463.4,499.2,459.5,501.6z M468.5,464.4c4.6-0.3,9.2-0.6,13.8-0.9L471,461
	c0-0.7,0.1-1.5,0.4-2.4c-3.9,0.3-7.4,0.4-10.9,0.7L468.5,464.4z"/>
<path class="st0" d="M595.3,418.6c-2.4,2.7-4.5,5.2-6.2,7.6c12.2-2.5,24.1-3.9,35.4-3.9c8.9,0,16.4,1.9,22.5,5.7
	c6.5,4.3,10,10.9,10,19.5c-0.3,7.3-4.9,13.5-13.5,18.9c-9.4,6-20.5,11.9-33.5,18c2.1,0,4.2-0.1,6.2-0.1c8.2,0,15.8,0.4,22.8,1
	c6.8,1.2,13.5,3.7,19.8,7.6c6.8,4.8,10.4,11.2,10.4,19.3v4.6c0,7.1-3.4,12.8-10.3,17c-10.4,6.8-24.7,10.4-42.7,10.4h-11
	c-14.4,0-25.9-1.9-34.4-5.5c-9.2-5.4-13.8-12.5-13.8-21.9c0-3.6,0.6-7.3,1.9-10.9c-3.4,1.3-6.8,2.7-10.1,3.9l-9.8-22.6
	c14.9-5.1,28.7-10,41.6-15c-4.8-4.2-10-8.5-15.6-12.8c-1.6,2.5-3.1,5.1-4.6,7.4l-18-12.8c12.2-18,24.4-33.3,36.6-45.8L595.3,418.6z
	 M586,512.3c0,5.1,1.8,8.5,5.2,10c4,1.8,8.9,2.7,14.7,2.7h5.7c10.9,0,18.6-1.2,23.4-3.9c3.4-1.8,5.2-4.2,5.2-7.1
	c0-3.6-1.9-6.1-5.7-7.9c-3.6-1.5-10-2.4-19.3-2.7C606.5,503.4,596.8,506.4,586,512.3z M600.6,459.8l-7.7,7.6
	c10.3-4.2,19.9-8.2,29-12.3c6.2-2.8,9.5-4.9,9.5-6.4c0-3.9-4-5.9-12-5.9c-10.4,0.7-20.7,2.4-30.9,5.1
	C592.8,451.5,597,455.5,600.6,459.8z"/>
<path class="st1" d="M513.2,413.2l-1.8,19.8c-6.7-0.4-13.1-0.9-19.3-1.3c-0.3,0.9-0.6,1.8-0.9,2.7c3.9,0,7.7-0.1,11.6-0.1l1.6,17.4
	c-6.1,0-11.9,0.1-17.6,0.1c-0.4,1.9-0.7,3.7-1,5.5c6.5-0.3,13.2-0.4,19.8-0.4l1.8,17.4c-19.8,0-38.5,0.9-56.4,2.5
	c-0.6,0.9-1.2,1.6-1.8,2.4l1.2,0.3c5.7-1.2,11.5-1.8,17.4-1.8c3.9,0,8.8,0.1,14.7,0.4c5.1,0.6,9.2,1.8,12.5,3.6
	c4.8,1.8,7.1,7,7.1,15.6v3.1c0,3.3-0.9,5.5-2.4,7c-2.2,2.7-6.1,4.6-11.6,5.8c-5.7,1.5-14,2.2-25,2.2H459c-9.8,0-16.7-1.3-20.2-4
	c-3.1-2.2-5.1-4.9-5.8-8c-2.1,3.3-4,6.5-5.8,9.8l-18-12.8c4.6-7.1,9.2-14,14-20.2c-3.7,0.6-7.3,1-10.6,1.6l-1.6-17.4
	c9.1-1.3,18.1-2.5,27.1-3.6c1.2-1.5,2.5-3,3.7-4.5l-12.2,3.9c-0.7-1.5-1.3-3-1.6-4.5c-4.2,0.6-8.3,1-12.3,1.6l-1.5-14
	c-5.4,19-7.9,36.3-7.9,51.8c0,8.5,2.2,14.6,6.7,18.4c4.2,4,11,6,20.7,6c20.2,0,43.6-2.1,69.8-6.4l4,18.6
	c-25.1,4.2-48.9,6.4-71.5,6.4h-6.5c-12.5,0-23.1-3-31.8-8.6c-9.7-7-14.4-17.1-14.4-30.3c0-22,4-46.9,12.2-74.4
	c-3-0.1-5.9-0.3-8.8-0.6l3-19.2C432.3,407,473.5,409.6,513.2,413.2z M421.4,431.8l14.7-4.2c-5.7-0.3-11.3-0.7-16.8-1.2
	c-1.6,4.8-3,9.2-4.2,13.4c2.7-0.3,5.2-0.6,7.7-0.9C422.3,436.6,421.7,434.2,421.4,431.8z M470.8,430.2c-9.8-0.6-19.5-1.3-28.7-2.1
	c0.4,3,1,5.9,1.9,8.6c8.5-0.6,17-1.2,25.3-1.6C469.8,433.3,470.2,431.7,470.8,430.2z M453.5,495.6c-0.1,0.6-0.1,0.9-0.1,1.2
	c0,1.8,0.6,3,1.8,3.7c1.6,0.7,4.3,1,8,1c7.4,0,12.3-0.4,14.7-1.3c1.9-0.6,3-2.1,3.3-4.5c-0.3-2.1-1.6-3.3-4.3-3.7
	c-3.6-0.3-7.1-0.4-10.7-0.4C461.7,491.9,457.4,493.2,453.5,495.6z M462.5,458.4c4.6-0.3,9.2-0.6,13.8-0.9L465,455
	c0-0.7,0.1-1.5,0.4-2.4c-3.9,0.3-7.4,0.4-10.9,0.7L462.5,458.4z"/>
<path class="st1" d="M589.3,412.6c-2.4,2.7-4.5,5.2-6.2,7.6c12.2-2.5,24.1-3.9,35.4-3.9c8.9,0,16.4,1.9,22.5,5.7
	c6.5,4.3,10,10.9,10,19.5c-0.3,7.3-4.9,13.5-13.5,18.9c-9.4,6-20.5,11.9-33.5,18c2.1,0,4.2-0.1,6.2-0.1c8.2,0,15.8,0.4,22.8,1
	c6.8,1.2,13.5,3.7,19.8,7.6c6.8,4.8,10.4,11.2,10.4,19.3v4.6c0,7.1-3.4,12.8-10.3,17c-10.4,6.8-24.7,10.4-42.7,10.4h-11
	c-14.4,0-25.9-1.9-34.4-5.5c-9.2-5.4-13.8-12.5-13.8-21.9c0-3.6,0.6-7.3,1.9-10.9c-3.4,1.3-6.8,2.7-10.1,3.9l-9.8-22.6
	c14.9-5.1,28.7-10,41.6-15c-4.8-4.2-10-8.5-15.6-12.8c-1.6,2.5-3.1,5.1-4.6,7.4l-18-12.8c12.2-18,24.4-33.3,36.6-45.8L589.3,412.6z
	 M580,506.3c0,5.1,1.8,8.5,5.2,10c4,1.8,8.9,2.7,14.7,2.7h5.7c10.9,0,18.6-1.2,23.4-3.9c3.4-1.8,5.2-4.2,5.2-7.1
	c0-3.6-1.9-6.1-5.7-7.9c-3.6-1.5-10-2.4-19.3-2.7C600.5,497.4,590.8,500.4,580,506.3z M594.6,453.8l-7.7,7.6
	c10.3-4.2,19.9-8.2,29-12.3c6.2-2.8,9.5-4.9,9.5-6.4c0-3.9-4-5.9-12-5.9c-10.4,0.7-20.7,2.4-30.9,5.1
	C586.8,445.5,591,449.5,594.6,453.8z"/>
<path class="st0" d="M242,659.2l-6.1,26.4h-19.2l26.4-108.2h19.8l26.4,108.2h-19.2l-6.1-26.4H242z M259.7,640.3l-6.7-28.6l-6.7,28.6
	H259.7z"/>
<path class="st0" d="M356.6,685.6h-18.4v-47.4c0-8.8-3.1-13.2-9.4-13.2c-7,0-10.5,4.6-10.5,13.7v46.9h-18.3V630
	c0-4-0.5-10.3-1.6-18.9l-0.1-2.2h18.3l0.6,5.4c4.1-4.9,9.5-7.4,16.3-7.4c15.5,0,23.2,9.7,23.2,29.2V685.6z"/>
<path class="st0" d="M434.9,647.3c0,10.7-2.6,19.8-7.7,27.3c-6.1,8.8-14.6,13.2-25.4,13.2c-10.8,0-19.3-4.4-25.4-13.2
	c-5.1-7.6-7.7-16.7-7.7-27.3c0-10.5,2.6-19.5,7.7-27c6.1-8.9,14.6-13.4,25.4-13.4c10.8,0,19.3,4.5,25.4,13.4
	C432.3,627.8,434.9,636.8,434.9,647.3z M415.8,647.3c0-5.8-1.1-10.7-3.3-14.7c-2.7-4.5-6.3-6.7-10.7-6.7c-4.5,0-8,2.2-10.7,6.7
	c-2.2,4-3.3,8.9-3.3,14.7c0,5.9,1.1,10.9,3.3,15c2.7,4.5,6.3,6.7,10.7,6.7c4.5,0,8-2.2,10.7-6.7
	C414.7,658.2,415.8,653.2,415.8,647.3z"/>
<path class="st0" d="M505.3,685.6h-18.4v-47.4c0-8.8-3.1-13.2-9.4-13.2c-7,0-10.5,4.6-10.5,13.7v46.9h-18.3V630
	c0-4-0.5-10.3-1.6-18.9l-0.1-2.2h18.3l0.6,5.4c4.1-4.9,9.5-7.4,16.3-7.4c15.5,0,23.2,9.7,23.2,29.2V685.6z"/>
<path class="st0" d="M586.1,608.9l-35.3,97.6h-19.6l11.2-30.9l-27.3-66.7h19.6l16.9,44l15-44H586.1z"/>
<path class="st0" d="M660.5,685.8H642v-51.7c0-5.9-1.1-8.9-3.2-8.9c-2.7,0-4.1,2.9-4.1,8.6v52h-18.4v-51.7c0-5.9-1.1-8.9-3.2-8.9
	c-2.6,0-3.9,2.9-3.9,8.6v52h-18.3v-63.3c0-3-0.5-7.5-1.6-13.5h16.4c0.3,1.2,0.7,3,1.3,5.5c2.7-5,6.3-7.6,10.7-7.6
	c4.5,0,7.8,2.6,10,7.8c3.2-5.2,8.1-7.8,14.7-7.8c12,0,18,9,18,26.9V685.8z"/>
<path class="st0" d="M732.4,647.3c0,10.7-2.6,19.8-7.7,27.3c-6.1,8.8-14.6,13.2-25.4,13.2c-10.8,0-19.3-4.4-25.4-13.2
	c-5.1-7.6-7.7-16.7-7.7-27.3c0-10.5,2.6-19.5,7.7-27c6.1-8.9,14.6-13.4,25.4-13.4c10.8,0,19.3,4.5,25.4,13.4
	C729.8,627.8,732.4,636.8,732.4,647.3z M713.3,647.3c0-5.8-1.1-10.7-3.3-14.7c-2.7-4.5-6.3-6.7-10.7-6.7c-4.5,0-8,2.2-10.8,6.7
	c-2.2,4-3.3,8.9-3.3,14.7c0,5.9,1.1,10.9,3.3,15c2.7,4.5,6.3,6.7,10.8,6.7c4.5,0,8-2.2,10.7-6.7
	C712.2,658.2,713.3,653.2,713.3,647.3z"/>
<path class="st0" d="M802.8,685.8h-19l-0.1-5.4c-1.9,2-4.5,3.8-7.7,5.4c-3.1,1.4-6,2-8.6,2c-8.2,0-14.2-2.7-17.9-8.1
	c-3.3-5-4.9-12.7-4.9-23.1v-47.6H763v47.9c0,8,3.3,12.1,10,12.1c6.5,0,9.7-4.7,9.7-14.2v-45.8h18.4v55.9
	C801.2,670.9,801.8,677.8,802.8,685.8z"/>
<path class="st0" d="M878.1,662c0,17.2-10.5,25.9-31.4,25.9c-8.5,0-15.3-2.2-20.2-6.5c-5.5-4.7-8.3-11.8-8.4-21.1h18.6
	c0.2,3.4,1.2,5.7,2.9,7c1.5,1.2,4.5,1.7,8.9,1.7c7.3,0,10.9-2.1,10.9-6.4c0-3-4.3-5.8-12.8-8.3c-8.4-2.6-14.2-5-17.4-7.3
	c-5.9-3.9-8.9-9.1-8.9-15.5c0-8,2.9-14.3,8.7-18.7c5.1-3.9,11.5-5.8,19-5.8c18.2,0,27.5,8.4,28,25.3h-18.2
	c-1.3-4.3-4.7-6.4-10.5-6.4c-5.6,0-8.4,1.1-8.4,3.2c0,2,4.7,4.6,14.2,7.7C869.8,642,878.1,650.4,878.1,662z"/>
<path class="st1" d="M230,659.2l-6.1,26.4h-19.2l26.4-108.2h19.8l26.4,108.2h-19.2l-6.1-26.4H230z M247.7,640.3l-6.7-28.6l-6.7,28.6
	H247.7z"/>
<path class="st1" d="M344.6,685.6h-18.4v-47.4c0-8.8-3.1-13.2-9.4-13.2c-7,0-10.5,4.6-10.5,13.7v46.9h-18.3V630
	c0-4-0.5-10.3-1.6-18.9l-0.1-2.2h18.3l0.6,5.4c4.1-4.9,9.5-7.4,16.3-7.4c15.5,0,23.2,9.7,23.2,29.2V685.6z"/>
<path class="st1" d="M422.9,647.3c0,10.7-2.6,19.8-7.7,27.3c-6.1,8.8-14.6,13.2-25.4,13.2c-10.8,0-19.3-4.4-25.4-13.2
	c-5.1-7.6-7.7-16.7-7.7-27.3c0-10.5,2.6-19.5,7.7-27c6.1-8.9,14.6-13.4,25.4-13.4c10.8,0,19.3,4.5,25.4,13.4
	C420.3,627.8,422.9,636.8,422.9,647.3z M403.8,647.3c0-5.8-1.1-10.7-3.3-14.7c-2.7-4.5-6.3-6.7-10.7-6.7c-4.5,0-8,2.2-10.7,6.7
	c-2.2,4-3.3,8.9-3.3,14.7c0,5.9,1.1,10.9,3.3,15c2.7,4.5,6.3,6.7,10.7,6.7c4.5,0,8-2.2,10.7-6.7
	C402.7,658.2,403.8,653.2,403.8,647.3z"/>
<path class="st1" d="M493.3,685.6h-18.4v-47.4c0-8.8-3.1-13.2-9.4-13.2c-7,0-10.5,4.6-10.5,13.7v46.9h-18.3V630
	c0-4-0.5-10.3-1.6-18.9l-0.1-2.2h18.3l0.6,5.4c4.1-4.9,9.5-7.4,16.3-7.4c15.5,0,23.2,9.7,23.2,29.2V685.6z"/>
<path class="st1" d="M574.1,608.9l-35.3,97.6h-19.6l11.2-30.9l-27.3-66.7h19.6l16.9,44l15-44H574.1z"/>
<path class="st1" d="M648.5,685.8H630v-51.7c0-5.9-1.1-8.9-3.2-8.9c-2.7,0-4.1,2.9-4.1,8.6v52h-18.4v-51.7c0-5.9-1.1-8.9-3.2-8.9
	c-2.6,0-3.9,2.9-3.9,8.6v52h-18.3v-63.3c0-3-0.5-7.5-1.6-13.5h16.4c0.3,1.2,0.7,3,1.3,5.5c2.7-5,6.3-7.6,10.7-7.6
	c4.5,0,7.8,2.6,10,7.8c3.2-5.2,8.1-7.8,14.7-7.8c12,0,18,9,18,26.9V685.8z"/>
<path class="st1" d="M720.4,647.3c0,10.7-2.6,19.8-7.7,27.3c-6.1,8.8-14.6,13.2-25.4,13.2c-10.8,0-19.3-4.4-25.4-13.2
	c-5.1-7.6-7.7-16.7-7.7-27.3c0-10.5,2.6-19.5,7.7-27c6.1-8.9,14.6-13.4,25.4-13.4c10.8,0,19.3,4.5,25.4,13.4
	C717.8,627.8,720.4,636.8,720.4,647.3z M701.3,647.3c0-5.8-1.1-10.7-3.3-14.7c-2.7-4.5-6.3-6.7-10.7-6.7c-4.5,0-8,2.2-10.8,6.7
	c-2.2,4-3.3,8.9-3.3,14.7c0,5.9,1.1,10.9,3.3,15c2.7,4.5,6.3,6.7,10.8,6.7c4.5,0,8-2.2,10.7-6.7
	C700.2,658.2,701.3,653.2,701.3,647.3z"/>
<path class="st1" d="M790.8,685.8h-19l-0.1-5.4c-1.9,2-4.5,3.8-7.7,5.4c-3.1,1.4-6,2-8.6,2c-8.2,0-14.2-2.7-17.9-8.1
	c-3.3-5-4.9-12.7-4.9-23.1v-47.6H751v47.9c0,8,3.3,12.1,10,12.1c6.5,0,9.7-4.7,9.7-14.2v-45.8h18.4v55.9
	C789.2,670.9,789.8,677.8,790.8,685.8z"/>
<path class="st1" d="M866.1,662c0,17.2-10.5,25.9-31.4,25.9c-8.5,0-15.3-2.2-20.2-6.5c-5.5-4.7-8.3-11.8-8.4-21.1h18.6
	c0.2,3.4,1.2,5.7,2.9,7c1.5,1.2,4.5,1.7,8.9,1.7c7.3,0,10.9-2.1,10.9-6.4c0-3-4.3-5.8-12.8-8.3c-8.4-2.6-14.2-5-17.4-7.3
	c-5.9-3.9-8.9-9.1-8.9-15.5c0-8,2.9-14.3,8.7-18.7c5.1-3.9,11.5-5.8,19-5.8c18.2,0,27.5,8.4,28,25.3h-18.2
	c-1.3-4.3-4.7-6.4-10.5-6.4c-5.6,0-8.4,1.1-8.4,3.2c0,2,4.7,4.6,14.2,7.7C857.8,642,866.1,650.4,866.1,662z"/>
</svg>
