<svg xmlns="http://www.w3.org/2000/svg" xmlns:xlink="http://www.w3.org/1999/xlink" viewBox="0 0 3061.42 1012.72"><defs><style>.cls-1,.cls-16,.cls-17,.cls-18,.cls-19,.cls-20,.cls-21,.cls-22,.cls-46,.cls-52{fill:none;}.cls-2{isolation:isolate;}.cls-3{fill:#efefef;}.cls-3,.cls-53{opacity:0.68;}.cls-4{fill:#9fa0a0;}.cls-49,.cls-5,.cls-8{fill:#e9504e;}.cls-6{fill:#d03233;}.cls-7{fill:#f6da58;}.cls-48,.cls-49,.cls-8{stroke:#070404;}.cls-12,.cls-16,.cls-17,.cls-18,.cls-19,.cls-20,.cls-21,.cls-22,.cls-45,.cls-46,.cls-48,.cls-49,.cls-50,.cls-52,.cls-8{stroke-miterlimit:10;}.cls-8{stroke-width:7.52px;}.cls-9{fill:#040000;}.cls-10{fill:#f5b91b;}.cls-11{fill:#ee9414;}.cls-12,.cls-24,.cls-45,.cls-50{fill:#fff;}.cls-12,.cls-45,.cls-50{stroke:#080606;}.cls-12{stroke-width:1.92px;}.cls-13{fill:#f39a5e;}.cls-14{fill:#f7d370;}.cls-15{fill:#dcdddd;}.cls-16,.cls-17,.cls-18,.cls-19,.cls-20,.cls-21,.cls-22{stroke:#9fa0a0;stroke-width:3.4px;}.cls-16{stroke-dasharray:5.67;}.cls-18{stroke-dasharray:5.3 5.3;}.cls-19{stroke-dasharray:5.34 5.34;}.cls-20{stroke-dasharray:6.3 6.3;}.cls-21{stroke-dasharray:6.24 6.24;}.cls-22{stroke-dasharray:5.19 5.19;}.cls-23{fill:#727171;}.cls-25{clip-path:url(#clip-path);}.cls-26{fill:#dc7953;}.cls-27{mix-blend-mode:multiply;}.cls-28{fill:#f3d3c0;}.cls-29{fill:#f4cf5a;}.cls-30{fill:#242f43;}.cls-31{fill:#b28e76;}.cls-32{clip-path:url(#clip-path-2);}.cls-33{fill:#277238;}.cls-34{clip-path:url(#clip-path-3);}.cls-35{fill:#00a29a;}.cls-36,.cls-37{fill:#302c2f;}.cls-37{fill-rule:evenodd;}.cls-38{clip-path:url(#clip-path-4);}.cls-39{fill:#75c7cb;}.cls-40{fill:#f0cdb7;}.cls-41{fill:#a3c2e6;}.cls-42{fill:#3e3a39;}.cls-43{fill:#446cb4;}.cls-44{fill:#385eab;}.cls-45{stroke-width:0.49px;}.cls-46,.cls-52{stroke:#fff;}.cls-46{stroke-width:1.41px;}.cls-47,.cls-48{fill:#e83828;}.cls-48{stroke-width:1.88px;}.cls-49{stroke-width:3.17px;}.cls-50{stroke-width:0.13px;}.cls-51{fill:#f8b62d;}.cls-52{stroke-width:0.9px;}.cls-54{fill:#c9caca;}</style><clipPath id="clip-path"><circle class="cls-1" cx="1685" cy="485.27" r="80.19"/></clipPath><clipPath id="clip-path-2"><circle class="cls-1" cx="2051.45" cy="508.76" r="80.19"/></clipPath><clipPath id="clip-path-3"><circle class="cls-1" cx="1881.66" cy="210.08" r="80.19"/></clipPath><clipPath id="clip-path-4"><circle class="cls-1" cx="2709.65" cy="429.52" r="131.15"/></clipPath></defs><title>bullly_production</title><g class="cls-2"><g id="圖層_1" data-name="圖層 1"><path class="cls-3" d="M682.15,415.2A290.32,290.32,0,0,1,391.75,705.61c-160.39,0-290.41-130-290.41-290.41q0-8.61.5-17.08A290.31,290.31,0,0,1,391.75,124.8c160.39,0,290.41,130,290.41,290.41Zm0,0"/><path class="cls-4" d="M369,374.93V561.88h64.19l90.55,51.74L502,561.88H591.3a238.67,238.67,0,0,0,26.44-58.82V374.93Zm0,0"/><path class="cls-4" d="M418.29,233.74V420.68H354.11l-90.56,51.75,21.79-51.75H174.9A240.37,240.37,0,0,1,283,233.74Zm0,0"/><rect class="cls-5" x="190.26" y="233.74" width="248.71" height="186.95"/><path class="cls-5" d="M310.93,409l-26.71,63.43,116.84-66.77Zm0,0"/><rect class="cls-6" x="382.37" y="374.93" width="56.6" height="45.75"/><path class="cls-7" d="M645.72,374.93V503.05a238.57,238.57,0,0,1-26.44,58.82H397V374.93Zm0,0"/><path class="cls-7" d="M525,550.19l26.71,63.43L434.9,546.85Zm0,0"/><path class="cls-8" d="M374.37,327.21a61.76,61.76,0,1,1-61.76-61.76h.09a61.71,61.71,0,0,1,61.67,61.76Z"/><path class="cls-9" d="M291.83,358.26a2.51,2.51,0,0,0,3.48.66,30.22,30.22,0,0,1,34.59,0,2.51,2.51,0,1,0,2.82-4.15,35.41,35.41,0,0,0-40.23,0A2.51,2.51,0,0,0,291.83,358.26Z"/><path class="cls-9" d="M293.91,320.24a2.51,2.51,0,0,0,2.51-2.51v-1.9a2.51,2.51,0,0,0-5,0v1.9A2.51,2.51,0,0,0,293.91,320.24Z"/><path class="cls-9" d="M333.65,317.73v-1.9a2.51,2.51,0,0,0-5,0v1.9a2.51,2.51,0,1,0,5,0Z"/><rect class="cls-10" x="575.13" y="413.44" width="25.58" height="63.31"/><rect class="cls-11" x="575.13" y="413.44" width="16.24" height="63.31"/><path class="cls-12" d="M453.93,482.61V477a8.08,8.08,0,0,1,8.08-8.08h4.59a7.5,7.5,0,0,1-7-7.47v-6.26a7.5,7.5,0,0,1,7.5-7.5h6.43a6.77,6.77,0,0,1-6.77-6.77v-5.4a6.77,6.77,0,0,1,6.77-6.77h6.23A6.77,6.77,0,0,1,473,422v-4a6.77,6.77,0,0,1,6.77-6.77h90.94v65.45c-10.5,0-18.94,1.06-25.71,2.89-21.65,5.84-26.16,19.55-26.16,31.57v22.12a5.2,5.2,0,0,1-5.2,5.21,16.77,16.77,0,0,1-16.77-16.77V500a9.29,9.29,0,0,0-9.29-9.29H462A8.09,8.09,0,0,1,453.93,482.61Z"/><path class="cls-13" d="M546.81,479.65a103,103,0,0,1,23.93-2.44V411.76H546.81Z"/><rect class="cls-14" x="552.59" y="405.85" width="32.48" height="78.48"/><path class="cls-9" d="M568.83,418.69a3.38,3.38,0,0,0,3.38-3.38v-.75a3.38,3.38,0,1,0-6.75,0v.75A3.38,3.38,0,0,0,568.83,418.69Z"/><path class="cls-9" d="M568.83,427.13a3.38,3.38,0,0,0,3.38-3.38V423a3.38,3.38,0,1,0-6.75,0v.75A3.38,3.38,0,0,0,568.83,427.13Z"/><rect class="cls-1" x="555.97" y="409.23" width="25.72" height="71.73"/><rect class="cls-1" x="555.97" y="409.23" width="25.72" height="71.73"/><path class="cls-1" d="M532.26,489.57l0,0,0,0Z"/><path class="cls-9" d="M600.71,433.46a3.38,3.38,0,0,0,3.38-3.38V413.43a3.38,3.38,0,0,0-3.38-3.38H588.45v-4.21a3.38,3.38,0,0,0-3.38-3.38H552.59a3.38,3.38,0,0,0-3.38,3.38v2.53h-11.7a3.38,3.38,0,1,0,0,6.75h11.7v60.55c-22.37,4.35-33.71,16.45-33.71,36V533.8a1.83,1.83,0,0,1-1.83,1.83,13.41,13.41,0,0,1-13.39-13.39V500.56a12.68,12.68,0,0,0-12.67-12.66H462a4.71,4.71,0,0,1-4.71-4.71v-5.61a4.71,4.71,0,0,1,4.71-4.71h11.45a3.38,3.38,0,1,0,0-6.75h-6.67A4.12,4.12,0,0,1,463,462v-6.26a4.12,4.12,0,0,1,4.12-4.12h12.79a3.38,3.38,0,0,0,0-6.75h-6.36a3.4,3.4,0,0,1-3.4-3.39v-5.4a3.4,3.4,0,0,1,3.4-3.39h12.05a3.38,3.38,0,1,0,0-6.75H479.8a3.4,3.4,0,0,1-3.39-3.4v-4a3.4,3.4,0,0,1,3.39-3.4h44.06a3.38,3.38,0,1,0,0-6.75H479.8a10.16,10.16,0,0,0-10.15,10.15v4a10.1,10.1,0,0,0,.78,3.89,10.16,10.16,0,0,0-7,9.65v1.11h0a63.22,63.22,0,0,0,.44,7.08h0a9.31,9.31,0,0,0,.34,1,10.89,10.89,0,0,0-7.89,10.46V462a10.77,10.77,0,0,0,1.24,5,11.48,11.48,0,0,0-7,10.54v5.61A11.47,11.47,0,0,0,462,494.65h25.6a5.92,5.92,0,0,1,5.91,5.91v21.68a20.17,20.17,0,0,0,20.14,20.15,8.59,8.59,0,0,0,8.59-8.59V511.67c0-6.93,1.35-15.54,9.81-22v0l.17-.11,0,0h0a61,61,0,0,1,6-3.5,52.47,52.47,0,0,1,11-3.5v1.77a3.38,3.38,0,0,0,3.38,3.38h32.48a3.38,3.38,0,0,0,3.38-3.38v-4.21h12.26a3.38,3.38,0,0,0,3.38-3.38v-33a3.38,3.38,0,1,0-6.75,0v29.63h-8.88V416.81h8.88v13.27A3.38,3.38,0,0,0,600.71,433.46Zm-19,47.5H556V409.23h25.72Z"/><path class="cls-9" d="M532.07,489.7v0l.17-.13Z"/><path class="cls-15" d="M238.2,816.11c-1.25,1-2.56,1.91-3.92,2.83a13.48,13.48,0,0,0-3-2.83A43.88,43.88,0,0,0,246.2,801l4.41.87c-.65,1-1.31,2.07-2,3.1h13.07l.6-.16,2.72,1.8a38.86,38.86,0,0,1-4.85,6.75H274v27.94H238.2Zm13,27.72a78,78,0,0,1-16.39,7.08,28.27,28.27,0,0,0-3-3.27c5.39-1.2,11.82-3.32,15.58-5.55Zm-5.06-35.56a46.6,46.6,0,0,1-4.79,5.12h14.1a30,30,0,0,0,4-5.12Zm23.74,8.44H242.17v5h27.67Zm0,8.06H242.17v5.06h27.67Zm0,8.17H242.17v5.12h27.67Zm-6.21,9.2a148.55,148.55,0,0,1,16,6.43l-4.25,2.23a118.76,118.76,0,0,0-14.87-6.43Z"/><path class="cls-15" d="M311.76,808.48c-.65,2.29-1.42,4.74-2.12,6.81h21.84v35.45h-4.08v-2.89h-34.8v2.89h-3.92V815.29H305.5c.6-2.07,1.14-4.58,1.58-6.81H286.22v-3.87h47.87v3.87ZM292.59,844.1h7.73V819h-7.73ZM315.52,819H304v6h11.49Zm0,9.31H304v6.1h11.49ZM304,844.1h11.49v-6.32H304ZM327.39,819h-8.17V844.1h8.17Z"/><path class="cls-15" d="M370.52,808.87c-1.2,2-2.5,4-3.87,6v35.73h-4.3V820.3a69.83,69.83,0,0,1-19.71,15.85,27.83,27.83,0,0,0-2.72-3.54,63.18,63.18,0,0,0,25.43-23.74H341.27v-4h46.51v4Zm.22,9.09c6.32,4.08,14.6,10.18,18.57,14.32l-3.21,3.1c-3.87-4.14-11.93-10.56-18.35-14.81Z"/><path class="cls-15" d="M443.54,816.16v3.1h-9.09L434,824H402.59l.65-4.74h-8.66v-3.1h9l.6-4.58H435.1l-.38,4.58Zm-18.79,27.07c6.26,1.58,12.8,3.54,16.94,5L439,850.85c-3.87-1.47-10.24-3.59-16.56-5.28l2-2.34h-12l3.21,2.12c-4.47,2.4-11.82,4.47-17.81,5.45a19.72,19.72,0,0,0-2.18-2.83c5.77-.87,13.07-2.83,16.56-4.74h-10.4V826.29H436.4v16.94Zm-24.67-28.86h-3.7v-8.66h21a32.83,32.83,0,0,0-2.4-4l3.43-1.09a24.32,24.32,0,0,1,3.21,5.12h20.15v8.66h-3.87V809H400.08Zm5.72,16.77h26.58v-2.45H405.8Zm0,4.79h26.58v-2.51H405.8Zm0,4.9h26.58v-2.56H405.8Zm.82-19.22H416.8c.11-.87.22-1.74.33-2.67H406.94Zm.93-7.62-.33,2.5h10.13l.16-2.5Zm22.93,7.62.22-2.67H420.56c-.11,1-.22,1.8-.27,2.67Zm.6-7.62H420.94l-.22,2.5h10.13Z"/><path class="cls-15" d="M468.53,813.55H449v-3.32h19.55Zm-2,33.87H454.37V850H451.1v-18.3h15.41Zm-15.36-26.85v-3.21h15.3v3.21Zm0,3.87h15.41v3.21H451.15Zm3.21,10.62v9h8.82v-9Zm4.19-25.43a55.27,55.27,0,0,0-3.81-7.24l2.89-1.63a47,47,0,0,1,3.92,7Zm34.2-5.55c-.33,22-.44,40.9,2.61,41.66.33.11.71-3.38.93-7.3a17.83,17.83,0,0,0,2.34,2.94c-.6,7.62-2.34,9.37-4.85,8.33-5.34-1.63-5.17-19.44-5.12-41.77h-9V824h7.19v3.76h-7.19v22.93h-3.81V827.76h-7.35V824h7.35V807.94h-6.75v-3.87Z"/><path class="cls-15" d="M503.32,846.39a53.26,53.26,0,0,0,5.5-11l3.54,1.52c-1.47,3.32-3.38,8.12-5.34,11.22Zm23.09-14.59H511.32V806H524a39.6,39.6,0,0,0,2.07-5.61l4.68.82a39.26,39.26,0,0,1-2.56,4.79h16.23v25.76H526.74A42.38,42.38,0,0,1,534,840l-3.27,2a42.92,42.92,0,0,0-7.24-8.55ZM535.12,846c2.89,0,3.38-.82,3.65-6.32a10.34,10.34,0,0,0,3.76,1.52c-.54,6.92-1.85,8.55-7.13,8.55H523c-6.32,0-8-1.14-8-5.45v-8.88h4v8.82c0,1.47.6,1.74,4.14,1.74Zm-19.88-32.4h25.11v-4.36H515.25Zm0,7.46h25.11v-4.36H515.25Zm0,7.46h25.11v-4.36H515.25Zm30.44,6a41.94,41.94,0,0,1,6.21,10.78L548.14,847a43.79,43.79,0,0,0-6-11Z"/><path class="cls-3" d="M1428.1,415.2a290.32,290.32,0,0,1-290.41,290.41c-160.39,0-290.41-130-290.41-290.41q0-8.61.5-17.08A290.31,290.31,0,0,1,1137.69,124.8c160.39,0,290.41,130,290.41,290.41Zm0,0"/><polyline class="cls-16" points="961.93 378.9 961.93 311.42 1321.54 311.42 1321.54 396.5"/><line class="cls-17" x1="1287.43" y1="429.51" x2="1284.59" y2="429.51"/><line class="cls-18" x1="1279.29" y1="429.51" x2="1271.33" y2="429.51"/><polyline class="cls-17" points="1268.68 429.51 1265.85 429.51 1265.85 432.35"/><line class="cls-19" x1="1265.85" y1="437.69" x2="1265.85" y2="477.77"/><polyline class="cls-17" points="1265.85 480.44 1265.85 483.28 1263.01 483.28"/><line class="cls-20" x1="1256.71" y1="483.28" x2="1247.26" y2="483.28"/><line class="cls-17" x1="1244.11" y1="483.28" x2="1241.28" y2="483.28"/><line class="cls-17" x1="981.78" y1="429.51" x2="984.62" y2="429.51"/><line class="cls-21" x1="990.86" y1="429.51" x2="1012.7" y2="429.51"/><polyline class="cls-17" points="1015.82 429.51 1018.65 429.51 1018.65 432.35"/><line class="cls-19" x1="1018.65" y1="437.69" x2="1018.65" y2="477.77"/><polyline class="cls-17" points="1018.65 480.44 1018.65 483.28 1021.49 483.28"/><line class="cls-22" x1="1026.67" y1="483.28" x2="1055.19" y2="483.28"/><line class="cls-17" x1="1057.79" y1="483.28" x2="1060.62" y2="483.28"/><path class="cls-23" d="M1092.25,298.67a7.05,7.05,0,0,0,10,10,48.73,48.73,0,0,1,68.83,0,7,7,0,0,0,9.94-10,62.79,62.79,0,0,0-88.75,0Zm0,0"/><path class="cls-23" d="M1111.28,317.7a7.05,7.05,0,1,0,10,10,21.74,21.74,0,0,1,30.75,0,7,7,0,0,0,9.94-9.94,35.82,35.82,0,0,0-50.66,0Zm0,0"/><path class="cls-23" d="M1146,343a9.38,9.38,0,1,1-9.38-9.38A9.38,9.38,0,0,1,1146,343Zm0,0"/><path class="cls-23" d="M1200.32,279.32a90.22,90.22,0,0,0-127.39,0,7.05,7.05,0,0,0,10,10,76.06,76.06,0,0,1,107.48,0,7,7,0,1,0,9.94-10Zm0,0"/><rect class="cls-24" x="905.81" y="361.32" width="101.94" height="124.35"/><path class="cls-23" d="M1001.34,349.57H913.82a8,8,0,0,0-8,8V491a8,8,0,0,0,8,8h87.53a8,8,0,0,0,8-8V357.58a8,8,0,0,0-8-8m-32.8,6.51a1.69,1.69,0,1,1-1.7,1.69,1.7,1.7,0,0,1,1.7-1.69m-23.63.65h17.73v1.94H944.91Zm12.66,139.09a5.2,5.2,0,1,1,5.21-5.2,5.2,5.2,0,0,1-5.21,5.2m46.7-13.62h-93.4V366.39h93.4Z"/><rect class="cls-24" x="1287.43" y="381.06" width="62.37" height="89.5"/><path class="cls-23" d="M1344.25,368.72h-51.16a8.85,8.85,0,0,0-8.84,8.85V481.45a8.85,8.85,0,0,0,8.84,8.85h51.16a8.85,8.85,0,0,0,8.85-8.85V377.57a8.85,8.85,0,0,0-8.85-8.85m-5.83,5.55a2.26,2.26,0,1,1-2.27,2.26,2.27,2.27,0,0,1,2.27-2.26m-31.6.86h23.71v2.59h-23.71ZM1318.67,485a5.93,5.93,0,1,1,5.93-5.93,5.93,5.93,0,0,1-5.93,5.93m27.8-17.73h-55.59V383.68h55.59Z"/><rect class="cls-24" x="1039.07" y="420.32" width="195.12" height="120.24"/><path class="cls-23" d="M1232.17,411.93H1046.92c-7.88,0-16.25,5-16.25,12.89V556.43c0,7.91,8.37,18.58,16.25,18.58H1118s3,24.49-23.24,24.49v6.09h85.91V599.5c-26.21,0-19.58-24.49-19.58-24.49h71.1c7.86,0,12.55-10.66,12.55-18.58V424.82C1244.72,416.89,1240,411.93,1232.17,411.93Zm-92.59,154.86a10.09,10.09,0,1,1,10.09-10.08A10.08,10.08,0,0,1,1139.58,566.79Zm90.58-31.1H1043.78V425h186.37Z"/><path class="cls-15" d="M942.65,835.11a14.21,14.21,0,0,1-.16,1.63c-.65,7.57-1.36,10.78-2.67,12a5.12,5.12,0,0,1-3.59,1.36A67.78,67.78,0,0,1,929,850a8.33,8.33,0,0,0-1.2-3.49c2.94.27,5.94.33,7,.33s1.52-.05,2-.49c.82-.71,1.42-2.94,1.91-8.11H926.21c.65-3.21,1.42-8.06,1.91-11.93H938.9v-5.72H929.8V820a36.52,36.52,0,0,1-6,2.56,12.76,12.76,0,0,0-2.18-3,40.34,40.34,0,0,0,10.73-5.12,41.62,41.62,0,0,0-6.15-4.68l2.34-2.23a33.49,33.49,0,0,1,6.48,4.85,27.29,27.29,0,0,0,5.23-5.77H927.57v-3.32h14.76l.71-.16,2.5,1.31a31.13,31.13,0,0,1-11.44,13h8.44V829.5H931.05c-.27,1.91-.54,3.87-.82,5.61Zm24-1.47a24.42,24.42,0,0,1-7,9.86c2.89,1.74,5.5,3.38,7.35,4.74l-2,2.61c-2-1.47-4.85-3.38-8-5.34a40.43,40.43,0,0,1-12.47,5.28,10.62,10.62,0,0,0-1.85-3,38.3,38.3,0,0,0,11.16-4.25c-2.94-1.74-5.94-3.54-8.6-5l2-2.23c2.89,1.58,6.21,3.49,9.42,5.34a21.49,21.49,0,0,0,5.28-5.83H945.16v-2.94h18.57l.65-.16Zm4-24.78a57.16,57.16,0,0,1-7.68,6,39.19,39.19,0,0,0,9.31,3.92,15,15,0,0,0-2.45,3.1,39.71,39.71,0,0,1-7.79-3.27v7.19c0,1.25.11,1.58.93,1.58h4a21,21,0,0,0,2.61-.16,24.77,24.77,0,0,0,.22,2.83,10,10,0,0,1-2.78.22h-4.47c-3.32,0-4-1.31-4-4.52v-5.28H951.2v1.09a11.18,11.18,0,0,1-5.94,10.29,14.25,14.25,0,0,0-2.61-2.5c4.3-2.34,5.06-5.28,5.06-7.9V817.2h12.09a36.44,36.44,0,0,1-13-15.14l3.21-1a29.53,29.53,0,0,0,4.25,6.59,71.91,71.91,0,0,0,6.86-6.32l3,2.12a75,75,0,0,1-7.84,6.32,26.82,26.82,0,0,0,4,3.32,61.59,61.59,0,0,0,7.35-6.32Z"/><path class="cls-15" d="M1025.81,845.08V849H977.55v-3.92h22.06V831.25H983.44v-3.92h16.17V815.46h-12.8a46.22,46.22,0,0,1-5.72,8.88,23.48,23.48,0,0,0-3.65-2.4c4.47-4.79,8-12.31,10.08-20l4.08.87a74.72,74.72,0,0,1-3,8.71h11.05V801h4.14v10.46h19.5v4h-19.5v11.87h17.48v3.92h-17.48v13.83Z"/><path class="cls-15" d="M1079.71,809.41v3.87H1050a71,71,0,0,1-6.59,11.11v26.14h-4V829.18a40.48,40.48,0,0,1-6.32,5.5,17.07,17.07,0,0,0-2.07-3.65c6.21-4.41,11-10.84,14.38-17.75h-13.07v-3.87h14.87a73.58,73.58,0,0,0,2.89-8.44l4.14,1c-.71,2.45-1.63,5-2.61,7.41Zm-14.38,36.21h14.38v3.81H1047v-3.81h14.32v-15.3h-12.2v-3.81h12.2v-10.4h4v10.4h12.25v3.81h-12.25Z"/><path class="cls-15" d="M1109.82,836.75a11.78,11.78,0,0,1-4.68,7.19,50.84,50.84,0,0,1,6.26,3.21l-2.67,2.34A61.11,61.11,0,0,0,1102,846c-3.49,1.8-8.39,3.43-15.25,4.68a11.92,11.92,0,0,0-1.69-2.72,55.93,55.93,0,0,0,13.12-3.59,67.51,67.51,0,0,0-8.39-3c.87-1.09,1.85-2.29,2.78-3.59l-6.43.33-.38-3c2.45-.05,5.5-.22,8.82-.33.82-1.47,1.69-2.89,2.45-4.3h-8.88v-8.88h10.29v-2.23h-8.77v-5.88h-3.65v-3.1h3.65v-5.55h8.77V801h3.21v3.81H1111v5.55h3.7v3.1H1111v5.88h-9.26v2.23h10.56v8.88h-11.49a38.38,38.38,0,0,1-2.29,4.08c2.67-.11,5.45-.27,8.28-.44v-2.56h3.32v2.4l2.72-.16-.05,2.83Zm-18.13-9h6.81v-3.38h-6.81Zm1.52-20.09v2.89h5.28v-2.89Zm5.28,8.88v-3.27h-5.28v3.27Zm-1.91,21c-.54.87-1.14,1.69-1.69,2.45,2.23.71,4.57,1.58,6.81,2.5a10.47,10.47,0,0,0,4.57-5.45Zm5.12-29.84v2.89h5.66v-2.89Zm5.66,8.88v-3.27h-5.66v3.27Zm-5.66,7.84v3.38h7v-3.38Zm29.63-9.31c-1,8.11-2.45,15-5,20.86,2.4,4.9,5.34,8.88,9.2,11.33a12.52,12.52,0,0,0-2.45,2.89,27.15,27.15,0,0,1-8.55-10.29,32.47,32.47,0,0,1-9.86,11.22,12.45,12.45,0,0,0-2.23-3,28.15,28.15,0,0,0,10.24-12.25,73.49,73.49,0,0,1-4-14.38,36.06,36.06,0,0,1-2.89,6,31.73,31.73,0,0,0-2.78-2.45c3.59-5.72,5.72-14.54,7-23.47l3.43.54c-.44,3.16-1,6.37-1.74,9.42H1135V815Zm-10.46,0a91,91,0,0,0,3.65,16.12,76.89,76.89,0,0,0,3.16-16.12Z"/><path class="cls-15" d="M1157.19,802.33a77.25,77.25,0,0,1-5.5,11.55v36.76h-4V820.19a55.26,55.26,0,0,1-5.39,6.59,19.66,19.66,0,0,0-2.29-4c5.34-5.23,10.4-13.34,13.4-21.62Zm32.24,42.26v3.92h-33.87v-3.92h19a236.3,236.3,0,0,0,5.17-27l4.19.76c-1.42,8.33-3.65,19-5.61,26.19Zm-2.23-29.84h-29.35v-3.92h29.35Zm-22.11,27.34a195.7,195.7,0,0,0-3.7-23.2l3.65-.82a215.68,215.68,0,0,1,4,22.87Zm6.15-31.86a60.18,60.18,0,0,0-2.56-8.66l3.81-1a82.8,82.8,0,0,1,2.72,8.44Z"/><path class="cls-15" d="M1202.93,823v8.11c0,6.15-.93,14.49-5.83,20.1a14.07,14.07,0,0,0-3-2.61c4.41-5.06,5-12.09,5-17.54V819.65h6.86a17.36,17.36,0,0,0-2-2c4.3-.82,9.26-1.91,13.94-3.21-4.14-1.2-8.39-2.29-12.25-3.16l2.4-2h-8.71V806h20.1c-.93-1.36-2-2.83-2.94-4l2.89-1.47a46.83,46.83,0,0,1,4.14,5.5h18.24v3.32h-8.28l2.18,1.31a57,57,0,0,1-8.33,3.65c4,1.2,7.68,2.4,10.4,3.38l-2.18,2h7.9V823Zm41.33,22.55v3.38h-40.35v-3.38h17.81v-5.5H1209V836.8h12.69V832h-11.38a30.26,30.26,0,0,1-5.17,6.7,18.86,18.86,0,0,0-2.12-3.32,30.38,30.38,0,0,0,7.19-11.38l3.49,1c-.49,1.25-1,2.45-1.52,3.7h9.53V824h4v4.63h14.65V832h-14.65v4.85h13.45v3.27h-13.45v5.5Zm-10.07-25.92c-3.16-1.2-7.13-2.5-11.55-3.87-4.9,1.58-10.07,2.83-14.7,3.87Zm-25-10.35c4.25,1,9,2.29,13.67,3.65a59.36,59.36,0,0,0,9.09-3.65Z"/><path class="cls-15" d="M1251.28,827.05h19.22v23.2h-4V847.8h-11.38v2.94h-3.87Zm3.87,3.92v12.91h11.38V831Zm33.66-9.64h-29.63v-18h29.63Zm-4.08-14.16H1263.1v10.29h21.62Zm12,19.88v23.31h-4V847.8h-12.36v2.94h-3.92V827.05Zm-4,16.83V831h-12.36v12.91Z"/><path class="cls-15" d="M1352.57,844.1v4H1304v-4h20.31V801.84h4.25V818.5h20.26v4H1328.6V844.1Z"/><path class="cls-3" d="M2163.42,415.2A290.32,290.32,0,0,1,1873,705.61c-160.39,0-290.41-130-290.41-290.41q0-8.61.5-17.08A290.31,290.31,0,0,1,1873,124.8c160.39,0,290.41,130,290.41,290.41Zm0,0"/><path class="cls-16" d="M2078.33,415.2A205.25,205.25,0,0,1,1873,620.51c-113.39,0-205.31-91.92-205.31-205.31q0-6.09.35-12.08a205.24,205.24,0,0,1,205-193.23c113.39,0,205.31,91.92,205.31,205.31Zm0,0"/><g class="cls-25"><circle class="cls-24" cx="1685" cy="485.27" r="80.19"/><path class="cls-26" d="M1628.77,569.65a177.94,177.94,0,0,1,2.56-38.76,1.29,1.29,0,0,1,.29-.72,1.27,1.27,0,0,1,.63-.28,35.2,35.2,0,0,1,21.38,1.75,1.48,1.48,0,0,1,1.17,1.66c.3,10.46-2,20.85-2,31.32a2.21,2.21,0,0,1-.23,1.2,2.12,2.12,0,0,1-1,.7,38.86,38.86,0,0,1-22.45,3"/><path class="cls-26" d="M1703.73,498.18c-.13-.3.61-.45.36-.65a29.31,29.31,0,0,0-4.82-2.51,4,4,0,0,1-1.57-1.07,3.56,3.56,0,0,1-.52-1.62q-.73-5-1-10.15a2.22,2.22,0,0,0-.28-1.2c-.43-.62-1.33-.62-2.09-.55L1675.4,482l-.35-.42-.13,6.74c0,1.78-.16,3.78-1.49,5-.89.79-6.25,2.65-7.53,3.65a.66.66,0,0,0-.21,1,16.82,16.82,0,0,0,6.39,5.89,28.65,28.65,0,0,0,16.54,4.23c5.76-.46,11.45-3.31,14.67-8.12A2,2,0,0,0,1703.73,498.18Z"/><g class="cls-27"><path class="cls-28" d="M1675.95,490.88a21.94,21.94,0,0,0,15.58,1.41,19.22,19.22,0,0,0,5.36-2.48c-.3-2.54-.55-5.08-.66-7.64a2.22,2.22,0,0,0-.28-1.2c-.43-.62-1.33-.62-2.09-.55L1675.4,482l-.35-.42-.13,6.74a17.3,17.3,0,0,1-.12,1.92C1675.18,490.46,1675.55,490.69,1675.95,490.88Z"/></g><path class="cls-26" d="M1715.4,535.66a42.31,42.31,0,0,1,20.29-4.5c.76,5.79,2,11.54,2.12,17.39s-1.1,11.94-4.72,16.52c-1.8,2.28-4.71,4.22-7.45,3.29-2-.67-3.21-2.63-4.14-4.51-4.25-8.57-5.71-18.28-6-27.85"/><g class="cls-27"><path class="cls-28" d="M1715.4,535.66a42.31,42.31,0,0,1,20.29-4.5c.76,5.79,2,11.54,2.12,17.39s-1.1,11.94-4.72,16.52c-1.8,2.28-4.71,4.22-7.45,3.29-2-.67-3.21-2.63-4.14-4.51-4.25-8.57-5.71-18.28-6-27.85"/></g><path class="cls-29" d="M1667.06,495.16s6.2,8.12,19.15,8.3,16.78-7.11,16.78-7.11,13.86,5.29,21,10.21,7.3,6.93,8.21,10.21,2.74,8.94,3.65,12,1.64,7.3,1.64,7.3a27.16,27.16,0,0,0-8.21,1.82c-5.11,1.82-13.14,6.6-13.14,6.6L1719,560.9a271.74,271.74,0,0,1-30.82,3.65c-17.51,1.09-35.38-2.55-35.38-2.55l1.64-23.53s-3.83-2.37-12.22-3.65-11.85-1.46-11.85-1.46,1.09-20.24,5.65-24.62S1667.06,495.16,1667.06,495.16Z"/><path class="cls-26" d="M1667.32,462.74l-1.09-1.69c-1.28-2-2.82-4.17-5.27-4.7a2.25,2.25,0,0,0-1.32,0,2,2,0,0,0-.91.89,7.31,7.31,0,0,0-.41,4.86,9.09,9.09,0,0,0,1,3.31,4,4,0,0,0,2.92,2,4.74,4.74,0,0,0,3-.83,8.8,8.8,0,0,0,3.45-4.25Z"/><path class="cls-26" d="M1712.13,459.22a13.43,13.43,0,0,0-.51-3.29,3,3,0,0,0-.89-1.5,1.78,1.78,0,0,0-1.83-.28,2.11,2.11,0,0,0-.63.57,19.65,19.65,0,0,0-3.57,6.3l-1.71,2.63.91,1.94a3.43,3.43,0,0,0,.73,1.13,3.28,3.28,0,0,0,2.75.56,5.74,5.74,0,0,0,4-3.22A10.08,10.08,0,0,0,1712.13,459.22Z"/><path class="cls-30" d="M1675.75,528.08l-1.68-25.3a2.34,2.34,0,0,1,.37-1.8,2.31,2.31,0,0,1,1.47-.54,147.92,147.92,0,0,1,17.21-1,4.63,4.63,0,0,1,2.26.39c1.29.71,1.6,2.4,1.75,3.86a157.59,157.59,0,0,1,.61,24.89,7.53,7.53,0,0,1-.38,2.33c-.74,1.9-2.83,2.91-4.82,3.35a16.62,16.62,0,0,1-16.87-6.65"/><path class="cls-26" d="M1703.79,440.58a13.55,13.55,0,0,0-6.21-7.84,12.35,12.35,0,0,0-7.26-1.39c-2.5.17-5,.74-7.44,1-4.23.4-8.73-.08-12.59,1.59a2.81,2.81,0,0,0-1.9.77A6,6,0,0,0,1667,437c-1.89,5-1.68,10.44-1.44,15.74l.69,15.49c.16,3.65.38,7.48,2.32,10.57a17.4,17.4,0,0,0,4.1,4.25c4,3.13,8.72,5.7,13.76,5.48a22.38,22.38,0,0,0,7.28-1.94,27.18,27.18,0,0,0,7.5-5.74,12.23,12.23,0,0,0,2.91-4.13,15.79,15.79,0,0,0,.8-4.08C1706,462,1706.76,450.94,1703.79,440.58Z"/><path class="cls-26" d="M1728.19,556.86c-2.29-3-5.37-5.61-8-8.25-2.87-2.85-5.61-5.83-8.45-8.71-2.62-2.66-5.36-5.18-8.11-7.7a29.57,29.57,0,0,0,.24-3.18,36.49,36.49,0,0,0-.34-5.8,48.78,48.78,0,0,0-1-5.46,27.85,27.85,0,0,0-1.65-5.33,1.73,1.73,0,0,0-2.29-1.09c-1.09.56-.83,2.66-.92,3.64a47.09,47.09,0,0,1-.93,6.1c-.22,1-.49,1.9-.76,2.85l0,.05c-7.17,1.22-14.16-.07-21.29-1.78-1.6-.38-7.55-2.72-6.9,1.06.26,1.51,1.42,2.45,2.73,3.31a5.46,5.46,0,0,0,1.15,3.4,16.29,16.29,0,0,0,3.23,2.85,5.88,5.88,0,0,0,1.27,3,13.7,13.7,0,0,0,4.49,3.77,20.33,20.33,0,0,0,6.2,2.08,21.53,21.53,0,0,0,5.54.5,54.64,54.64,0,0,0,4.46,11.94c2.21,4.56,4.78,10,8.83,13.23,3.79,3,8.85,3.28,13.4,2.13,3.68-.93,12.4,1.37,13.89-2.24C1734.25,565.33,1731.13,560.69,1728.19,556.86Z"/><g class="cls-27"><path class="cls-31" d="M1681,530.5q2,.45,4,.8a15.14,15.14,0,0,0,3.74.46c.29,0-10.93-2.66-12.88-3.2a27,27,0,0,1-5.41-2l0,0a5.18,5.18,0,0,0,.05.67,26.37,26.37,0,0,0,4.42,1.7C1676.93,529.53,1679,530,1681,530.5Z"/><path class="cls-31" d="M1680.26,534.88a24.23,24.23,0,0,1-5.39-2.07,3.86,3.86,0,0,0,.09.53,21.84,21.84,0,0,0,5,2.11,35.25,35.25,0,0,0,3.65.91c.59.11,1.18.21,1.77.28a2.92,2.92,0,0,0,1.56,0C1687.11,536.58,1681.35,535.2,1680.26,534.88Z"/></g><path class="cls-30" d="M1706.73,440.81c-2-5.79-5-11.54-10.88-14a22.93,22.93,0,0,0-6.81-1.55,38.23,38.23,0,0,0-7.67,0,26.36,26.36,0,0,0-5.43,1.12,19.43,19.43,0,0,0-12.38,13c-1,3.47-.89,7.11-.78,10.7l.2,6.81a3.59,3.59,0,0,0,.16,1.13c.53,1.47,3.41,3.57,3.65,5.11l.18-.28c1.65-5.59-.34-9,.64-14.69.25-1.42.87-3,2.32-3.5a4.22,4.22,0,0,1,1.82-.1c2.64.31,4,1,6.48,1.84a21.18,21.18,0,0,0,12,.18c3-.86,5.93-2.41,9.09-2.44a3.17,3.17,0,0,1,2.59.92,3,3,0,0,1,.47,1.24c1.17,5.64.53,9.4,2.92,14.9,2.39-2.4,2.31-7.11,2.51-10.38A27,27,0,0,0,1706.73,440.81Z"/></g><g class="cls-32"><circle class="cls-24" cx="2051.45" cy="508.76" r="80.19"/><path class="cls-26" d="M1995.22,593.14a177.94,177.94,0,0,1,2.56-38.76,1.29,1.29,0,0,1,.29-.72,1.27,1.27,0,0,1,.63-.28,35.2,35.2,0,0,1,21.38,1.75,1.48,1.48,0,0,1,1.17,1.66c.3,10.46-2,20.85-2,31.32a2.21,2.21,0,0,1-.23,1.2,2.12,2.12,0,0,1-1,.7,38.86,38.86,0,0,1-22.45,3"/><path class="cls-26" d="M2070.17,521.67c-.13-.3.61-.45.36-.65a29.31,29.31,0,0,0-4.82-2.51,4,4,0,0,1-1.57-1.07,3.56,3.56,0,0,1-.52-1.62q-.73-5-1-10.15a2.22,2.22,0,0,0-.28-1.2c-.43-.62-1.33-.62-2.09-.55l-18.45,1.57-.35-.42-.13,6.74c0,1.78-.16,3.78-1.49,5-.89.79-6.25,2.65-7.53,3.65a.66.66,0,0,0-.21,1,16.82,16.82,0,0,0,6.39,5.89,28.65,28.65,0,0,0,16.54,4.23c5.76-.46,11.45-3.31,14.67-8.12A2,2,0,0,0,2070.17,521.67Z"/><g class="cls-27"><path class="cls-28" d="M2042.39,514.37a21.94,21.94,0,0,0,15.58,1.41,19.22,19.22,0,0,0,5.36-2.48c-.3-2.54-.55-5.08-.66-7.64a2.22,2.22,0,0,0-.28-1.2c-.43-.62-1.33-.62-2.09-.55l-18.45,1.57-.35-.42-.13,6.74a17.3,17.3,0,0,1-.12,1.92C2041.63,513.94,2042,514.18,2042.39,514.37Z"/></g><path class="cls-26" d="M2081.85,559.14a42.31,42.31,0,0,1,20.29-4.5c.76,5.79,2,11.54,2.12,17.39s-1.1,11.94-4.72,16.52c-1.8,2.28-4.71,4.22-7.45,3.29-2-.67-3.21-2.63-4.14-4.51-4.25-8.57-5.71-18.28-6-27.85"/><g class="cls-27"><path class="cls-28" d="M2081.85,559.14a42.31,42.31,0,0,1,20.29-4.5c.76,5.79,2,11.54,2.12,17.39s-1.1,11.94-4.72,16.52c-1.8,2.28-4.71,4.22-7.45,3.29-2-.67-3.21-2.63-4.14-4.51-4.25-8.57-5.71-18.28-6-27.85"/></g><path class="cls-33" d="M2033.51,518.64s6.2,8.12,19.15,8.3,16.78-7.11,16.78-7.11,13.86,5.29,21,10.21,7.3,6.93,8.21,10.21,2.74,8.94,3.65,12,1.64,7.3,1.64,7.3a27.16,27.16,0,0,0-8.21,1.82c-5.11,1.82-13.14,6.6-13.14,6.6l2.92,16.38a271.74,271.74,0,0,1-30.82,3.65c-17.51,1.09-35.38-2.55-35.38-2.55l1.64-23.53s-3.83-2.37-12.22-3.65-11.85-1.46-11.85-1.46,1.09-20.24,5.65-24.62S2033.51,518.64,2033.51,518.64Z"/><path class="cls-26" d="M2033.76,486.23l-1.09-1.69c-1.28-2-2.82-4.17-5.27-4.7a2.25,2.25,0,0,0-1.32,0,2,2,0,0,0-.91.89,7.31,7.31,0,0,0-.41,4.86,9.09,9.09,0,0,0,1,3.31,4,4,0,0,0,2.92,2,4.74,4.74,0,0,0,3-.83,8.8,8.8,0,0,0,3.45-4.25Z"/><path class="cls-26" d="M2078.58,482.71a13.43,13.43,0,0,0-.51-3.29,3,3,0,0,0-.89-1.5,1.78,1.78,0,0,0-1.83-.28,2.11,2.11,0,0,0-.63.57,19.65,19.65,0,0,0-3.57,6.3l-1.71,2.63.91,1.94a3.43,3.43,0,0,0,.73,1.13,3.28,3.28,0,0,0,2.75.56,5.74,5.74,0,0,0,4-3.22A10.08,10.08,0,0,0,2078.58,482.71Z"/><path class="cls-30" d="M2042.2,551.56l-1.68-25.3a2.34,2.34,0,0,1,.37-1.8,2.31,2.31,0,0,1,1.47-.54,147.92,147.92,0,0,1,17.21-1,4.63,4.63,0,0,1,2.26.39c1.29.71,1.6,2.4,1.75,3.86a157.59,157.59,0,0,1,.61,24.89,7.53,7.53,0,0,1-.38,2.33c-.74,1.9-2.83,2.91-4.82,3.35a16.62,16.62,0,0,1-16.87-6.65"/><path class="cls-26" d="M2070.24,464.07a13.55,13.55,0,0,0-6.21-7.84,12.35,12.35,0,0,0-7.26-1.39c-2.5.17-5,.74-7.44,1-4.23.4-8.73-.08-12.59,1.59a2.81,2.81,0,0,0-1.9.77,6,6,0,0,0-1.42,2.36c-1.89,5-1.68,10.44-1.44,15.74l.69,15.49c.16,3.65.38,7.48,2.32,10.57a17.4,17.4,0,0,0,4.1,4.25c4,3.13,8.72,5.7,13.76,5.48a22.38,22.38,0,0,0,7.28-1.94,27.18,27.18,0,0,0,7.5-5.74,12.23,12.23,0,0,0,2.91-4.13,15.79,15.79,0,0,0,.8-4.08C2072.47,485.45,2073.21,474.42,2070.24,464.07Z"/><path class="cls-26" d="M2094.64,580.35c-2.29-3-5.37-5.61-8-8.25-2.87-2.85-5.61-5.83-8.45-8.71-2.62-2.66-5.36-5.18-8.11-7.7a29.57,29.57,0,0,0,.24-3.18,36.49,36.49,0,0,0-.34-5.8,48.78,48.78,0,0,0-1-5.46,27.85,27.85,0,0,0-1.65-5.33,1.73,1.73,0,0,0-2.29-1.09c-1.09.56-.83,2.66-.92,3.64a47.09,47.09,0,0,1-.93,6.1c-.22,1-.49,1.9-.76,2.85l0,.05c-7.17,1.22-14.16-.07-21.29-1.78-1.6-.38-7.55-2.72-6.9,1.06.26,1.51,1.42,2.45,2.73,3.31a5.46,5.46,0,0,0,1.15,3.4,16.29,16.29,0,0,0,3.23,2.85,5.88,5.88,0,0,0,1.27,3,13.7,13.7,0,0,0,4.49,3.77,20.33,20.33,0,0,0,6.2,2.08,21.53,21.53,0,0,0,5.54.5,54.64,54.64,0,0,0,4.46,11.94c2.21,4.56,4.78,10,8.83,13.23,3.79,3,8.85,3.28,13.4,2.13,3.68-.93,12.4,1.37,13.89-2.24C2100.7,588.82,2097.57,584.17,2094.64,580.35Z"/><g class="cls-27"><path class="cls-31" d="M2047.42,554q2,.45,4,.8a15.14,15.14,0,0,0,3.74.46c.29,0-10.93-2.66-12.88-3.2a27,27,0,0,1-5.41-2l0,0a5.18,5.18,0,0,0,.05.67,26.37,26.37,0,0,0,4.42,1.7C2043.38,553,2045.4,553.53,2047.42,554Z"/><path class="cls-31" d="M2046.7,558.37a24.23,24.23,0,0,1-5.39-2.07,3.86,3.86,0,0,0,.09.53,21.84,21.84,0,0,0,5,2.11,35.25,35.25,0,0,0,3.65.91c.59.11,1.18.21,1.77.28a2.92,2.92,0,0,0,1.56,0C2053.56,560.07,2047.8,558.68,2046.7,558.37Z"/></g><path class="cls-30" d="M2073.18,464.29c-2-5.79-5-11.54-10.88-14a22.93,22.93,0,0,0-6.81-1.55,38.23,38.23,0,0,0-7.67,0,26.36,26.36,0,0,0-5.43,1.12,19.43,19.43,0,0,0-12.38,13c-1,3.47-.89,7.11-.78,10.7l.2,6.81a3.59,3.59,0,0,0,.16,1.13c.53,1.47,3.41,3.57,3.65,5.11l.18-.28c1.65-5.59-.34-9,.64-14.69.25-1.42.87-3,2.32-3.5a4.22,4.22,0,0,1,1.82-.1c2.64.31,4,1,6.48,1.84a21.18,21.18,0,0,0,12,.18c3-.86,5.93-2.41,9.09-2.44a3.17,3.17,0,0,1,2.59.92,3,3,0,0,1,.47,1.24c1.17,5.64.53,9.4,2.92,14.9,2.39-2.4,2.31-7.11,2.51-10.38A27,27,0,0,0,2073.18,464.29Z"/></g><g class="cls-34"><circle class="cls-24" cx="1881.66" cy="210.08" r="80.19"/><path class="cls-26" d="M1825.43,294.46a177.94,177.94,0,0,1,2.56-38.76,1.29,1.29,0,0,1,.29-.72,1.27,1.27,0,0,1,.63-.28,35.2,35.2,0,0,1,21.38,1.75,1.48,1.48,0,0,1,1.17,1.66c.3,10.46-2,20.85-2,31.32a2.21,2.21,0,0,1-.23,1.2,2.12,2.12,0,0,1-1,.7,38.86,38.86,0,0,1-22.45,3"/><path class="cls-26" d="M1900.38,223c-.13-.3.61-.45.36-.65a29.31,29.31,0,0,0-4.82-2.51,4,4,0,0,1-1.57-1.07,3.56,3.56,0,0,1-.52-1.62q-.73-5-1-10.15a2.22,2.22,0,0,0-.28-1.2c-.43-.62-1.33-.62-2.09-.55l-18.45,1.57-.35-.42-.13,6.74c0,1.78-.16,3.78-1.49,5-.89.79-6.25,2.65-7.53,3.65a.66.66,0,0,0-.21,1,16.82,16.82,0,0,0,6.39,5.89,28.65,28.65,0,0,0,16.54,4.23c5.76-.46,11.45-3.31,14.67-8.12A2,2,0,0,0,1900.38,223Z"/><g class="cls-27"><path class="cls-28" d="M1872.6,215.7a21.94,21.94,0,0,0,15.58,1.41,19.22,19.22,0,0,0,5.36-2.48c-.3-2.54-.55-5.08-.66-7.64a2.22,2.22,0,0,0-.28-1.2c-.43-.62-1.33-.62-2.09-.55l-18.45,1.57-.35-.42-.13,6.74a17.3,17.3,0,0,1-.12,1.92C1871.84,215.27,1872.21,215.5,1872.6,215.7Z"/></g><path class="cls-26" d="M1912.06,260.47a42.31,42.31,0,0,1,20.29-4.5c.76,5.79,2,11.54,2.12,17.39s-1.1,11.94-4.72,16.52c-1.8,2.28-4.71,4.22-7.45,3.29-2-.67-3.21-2.63-4.14-4.51-4.25-8.57-5.71-18.28-6-27.85"/><g class="cls-27"><path class="cls-28" d="M1912.06,260.47a42.31,42.31,0,0,1,20.29-4.5c.76,5.79,2,11.54,2.12,17.39s-1.1,11.94-4.72,16.52c-1.8,2.28-4.71,4.22-7.45,3.29-2-.67-3.21-2.63-4.14-4.51-4.25-8.57-5.71-18.28-6-27.85"/></g><path class="cls-35" d="M1863.72,220s6.2,8.12,19.15,8.3,16.78-7.11,16.78-7.11,13.86,5.29,21,10.21,7.3,6.93,8.21,10.21,2.74,8.94,3.65,12,1.64,7.3,1.64,7.3a27.16,27.16,0,0,0-8.21,1.82c-5.11,1.82-13.14,6.6-13.14,6.6l2.92,16.38a271.74,271.74,0,0,1-30.82,3.65c-17.51,1.09-35.38-2.55-35.38-2.55l1.64-23.53s-3.83-2.37-12.22-3.65-11.85-1.46-11.85-1.46,1.09-20.24,5.65-24.62S1863.72,220,1863.72,220Z"/><path class="cls-26" d="M1864,187.56l-1.09-1.69c-1.28-2-2.82-4.17-5.27-4.7a2.25,2.25,0,0,0-1.32,0,2,2,0,0,0-.91.89,7.31,7.31,0,0,0-.41,4.86,9.09,9.09,0,0,0,1,3.31,4,4,0,0,0,2.92,2,4.74,4.74,0,0,0,3-.83,8.8,8.8,0,0,0,3.45-4.25Z"/><path class="cls-26" d="M1908.79,184a13.43,13.43,0,0,0-.51-3.29,3,3,0,0,0-.89-1.5,1.78,1.78,0,0,0-1.83-.28,2.11,2.11,0,0,0-.63.57,19.65,19.65,0,0,0-3.57,6.3l-1.71,2.63.91,1.94a3.43,3.43,0,0,0,.73,1.13,3.28,3.28,0,0,0,2.75.56,5.74,5.74,0,0,0,4-3.22A10.08,10.08,0,0,0,1908.79,184Z"/><path class="cls-30" d="M1872.41,252.89l-1.68-25.3a2.34,2.34,0,0,1,.37-1.8,2.31,2.31,0,0,1,1.47-.54,147.92,147.92,0,0,1,17.21-1,4.63,4.63,0,0,1,2.26.39c1.29.71,1.6,2.4,1.75,3.86a157.59,157.59,0,0,1,.61,24.89,7.53,7.53,0,0,1-.38,2.33c-.74,1.9-2.83,2.91-4.82,3.35a16.62,16.62,0,0,1-16.87-6.65"/><path class="cls-26" d="M1900.45,165.39a13.55,13.55,0,0,0-6.21-7.84,12.35,12.35,0,0,0-7.26-1.39c-2.5.17-5,.74-7.44,1-4.23.4-8.73-.08-12.59,1.59a2.81,2.81,0,0,0-1.9.77,6,6,0,0,0-1.42,2.36c-1.89,5-1.68,10.44-1.44,15.74l.69,15.49c.16,3.65.38,7.48,2.32,10.57a17.4,17.4,0,0,0,4.1,4.25c4,3.13,8.72,5.7,13.76,5.48a22.38,22.38,0,0,0,7.28-1.94,27.18,27.18,0,0,0,7.5-5.74,12.23,12.23,0,0,0,2.91-4.13,15.79,15.79,0,0,0,.8-4.08C1902.68,186.77,1903.42,175.75,1900.45,165.39Z"/><path class="cls-26" d="M1924.85,281.68c-2.29-3-5.37-5.61-8-8.25-2.87-2.85-5.61-5.83-8.45-8.71-2.62-2.66-5.36-5.18-8.11-7.7a29.57,29.57,0,0,0,.24-3.18,36.49,36.49,0,0,0-.34-5.8,48.78,48.78,0,0,0-1-5.46,27.85,27.85,0,0,0-1.65-5.33,1.73,1.73,0,0,0-2.29-1.09c-1.09.56-.83,2.66-.92,3.64a47.09,47.09,0,0,1-.93,6.1c-.22,1-.49,1.9-.76,2.85l0,.05c-7.17,1.22-14.16-.07-21.29-1.78-1.6-.38-7.55-2.72-6.9,1.06.26,1.51,1.42,2.45,2.73,3.31a5.46,5.46,0,0,0,1.15,3.4,16.29,16.29,0,0,0,3.23,2.85,5.88,5.88,0,0,0,1.27,3,13.7,13.7,0,0,0,4.49,3.77,20.33,20.33,0,0,0,6.2,2.08,21.53,21.53,0,0,0,5.54.5,54.64,54.64,0,0,0,4.46,11.94c2.21,4.56,4.78,10,8.83,13.23,3.79,3,8.85,3.28,13.4,2.13,3.68-.93,12.4,1.37,13.89-2.24C1930.91,290.15,1927.78,285.5,1924.85,281.68Z"/><g class="cls-27"><path class="cls-31" d="M1877.63,255.31q2,.45,4,.8a15.14,15.14,0,0,0,3.74.46c.29,0-10.93-2.66-12.88-3.2a27,27,0,0,1-5.41-2l0,0a5.18,5.18,0,0,0,.05.67,26.37,26.37,0,0,0,4.42,1.7C1873.59,254.34,1875.61,254.85,1877.63,255.31Z"/><path class="cls-31" d="M1876.91,259.7a24.23,24.23,0,0,1-5.39-2.07,3.86,3.86,0,0,0,.09.53,21.84,21.84,0,0,0,5,2.11,35.25,35.25,0,0,0,3.65.91c.59.11,1.18.21,1.77.28a2.92,2.92,0,0,0,1.56,0C1883.77,261.4,1878,260,1876.91,259.7Z"/></g><path class="cls-30" d="M1903.39,165.62c-2-5.79-5-11.54-10.88-14a22.93,22.93,0,0,0-6.81-1.55,38.23,38.23,0,0,0-7.67,0,26.36,26.36,0,0,0-5.43,1.12,19.43,19.43,0,0,0-12.38,13c-1,3.47-.89,7.11-.78,10.7l.2,6.81a3.59,3.59,0,0,0,.16,1.13c.53,1.47,3.41,3.57,3.65,5.11l.18-.28c1.65-5.59-.34-9,.64-14.69.25-1.42.87-3,2.32-3.5a4.22,4.22,0,0,1,1.82-.1c2.64.31,4,1,6.48,1.84a21.18,21.18,0,0,0,12,.18c3-.86,5.93-2.41,9.09-2.44a3.17,3.17,0,0,1,2.59.92,3,3,0,0,1,.47,1.24c1.17,5.64.53,9.4,2.92,14.9,2.39-2.4,2.31-7.11,2.51-10.38A27,27,0,0,0,1903.39,165.62Z"/></g><path class="cls-36" d="M2023.77,307.75a31,31,0,1,1,31-31A31,31,0,0,1,2023.77,307.75Zm0-58.6a27.63,27.63,0,1,0,27.63,27.63A27.67,27.67,0,0,0,2023.77,249.15Z"/><path class="cls-36" d="M2041.56,265.49a14.85,14.85,0,0,1-3.65,1c.59-.1,1.45-1.16,1.8-1.59a6.7,6.7,0,0,0,1.21-2.21c0-.06.06-.14,0-.19a.21.21,0,0,0-.19,0,18.63,18.63,0,0,1-4.33,1.66.29.29,0,0,1-.3-.08,3.5,3.5,0,0,0-.38-.39,7.67,7.67,0,0,0-2.1-1.29,7.3,7.3,0,0,0-3.22-.52,7.69,7.69,0,0,0-3.05.86,7.86,7.86,0,0,0-2.46,2,7.56,7.56,0,0,0-1.47,2.94,8,8,0,0,0-.08,3.11c0,.17,0,.2-.15.17-5.95-.88-10.88-3-14.88-7.57-.17-.2-.27-.2-.41,0-1.75,2.62-.9,6.84,1.29,8.91.29.28.59.55.91.8a7.58,7.58,0,0,1-2.87-.8c-.17-.11-.26,0-.28.15a4.53,4.53,0,0,0,0,.85,7.63,7.63,0,0,0,4.7,6.08,4.45,4.45,0,0,0,1,.29,8.51,8.51,0,0,1-2.82.09c-.21,0-.28.06-.21.26,1.24,3.38,3.91,4.38,5.92,5,.27,0,.54,0,.81.11l0,0c-.66,1-3,1.77-4,2.14a14.47,14.47,0,0,1-6.14.79c-.33,0-.4,0-.49,0s0,.13.09.22c.42.28.84.52,1.28.76a20.27,20.27,0,0,0,4.1,1.64c7.37,2,15.68.54,21.21-5,4.35-4.32,5.87-10.27,5.87-16.24,0-.23.28-.36.44-.49a14.29,14.29,0,0,0,2.87-3,.87.87,0,0,0,.18-.58v0C2041.69,265.39,2041.71,265.42,2041.56,265.49Z"/><path class="cls-37" d="M2016.33,291.52Z"/><path class="cls-37" d="M2017.54,291.55c0-.06.64,0,0,0C2017.54,291.52,2017.62,291.55,2017.54,291.55Z"/><path class="cls-37" d="M2030.3,262a.13.13,0,0,1-.15,0Z"/><path class="cls-36" d="M2072.69,390.66a31,31,0,1,1,31-31A31,31,0,0,1,2072.69,390.66Zm0-58.6a27.63,27.63,0,1,0,27.63,27.63A27.67,27.67,0,0,0,2072.69,332.07Z"/><path class="cls-37" d="M2067.84,359.85v17.94a.47.47,0,0,0,.47.47H2075a.47.47,0,0,0,.47-.47V359.56h4.83a.47.47,0,0,0,.47-.43l.46-5.49a.47.47,0,0,0-.47-.51h-5.3v-3.9a1.65,1.65,0,0,1,1.65-1.65h3.72a.47.47,0,0,0,.47-.47v-5.49a.47.47,0,0,0-.47-.47h-6.29a6.68,6.68,0,0,0-6.68,6.68v5.3h-3.33a.47.47,0,0,0-.47.47v5.49a.47.47,0,0,0,.47.47h3.33Z"/><path class="cls-36" d="M1923.66,642.46a31,31,0,1,1,31-31A31,31,0,0,1,1923.66,642.46Zm0-58.6a27.63,27.63,0,1,0,27.63,27.63A27.67,27.67,0,0,0,1923.66,583.87Z"/><path class="cls-37" d="M1925.12,591.35a18.69,18.69,0,0,0-15.71,28.82l-2.84,6.25a1.63,1.63,0,0,0,1.92,2.25l7.82-2.15a18.69,18.69,0,1,0,8.8-35.18Zm0,34.12a15.41,15.41,0,0,1-7.77-2.1,1.63,1.63,0,0,0-1.26-.16l-5.11,1.4,1.78-3.92a1.63,1.63,0,0,0-.16-1.63,15.43,15.43,0,1,1,12.52,6.41Z"/><path class="cls-37" d="M1932.31,612.84a3.2,3.2,0,0,0-2.72-.61c-.71.29-1.16,1.4-1.62,2a.68.68,0,0,1-.88.19,12.34,12.34,0,0,1-6.16-5.27.76.76,0,0,1,.1-1,4.16,4.16,0,0,0,1.12-1.82,4,4,0,0,0-.5-2.15,5.1,5.1,0,0,0-1.59-2.39,2.18,2.18,0,0,0-2.36.35,4.79,4.79,0,0,0-1.66,3.8,5.41,5.41,0,0,0,.15,1.2,10,10,0,0,0,1.16,2.66,21,21,0,0,0,1.21,1.84,18.63,18.63,0,0,0,5.23,4.86A15.84,15.84,0,0,0,1927,618a7.25,7.25,0,0,0,3.8.6,4.6,4.6,0,0,0,3.45-2.56,2.23,2.23,0,0,0,.16-1.31C1934.26,613.81,1933,613.27,1932.31,612.84Z"/><path class="cls-36" d="M1806.09,639.34a30.76,30.76,0,1,1,30.76-30.76A30.79,30.79,0,0,1,1806.09,639.34Zm0-58.6a27.84,27.84,0,1,0,27.84,27.84A27.87,27.87,0,0,0,1806.09,580.74Zm10.37,15.36a2.28,2.28,0,1,0,2.28,2.28A2.28,2.28,0,0,0,1816.47,596.1ZM1806.35,599a9.56,9.56,0,1,0,9.56,9.56A9.57,9.57,0,0,0,1806.35,599Zm0,15.69a6.12,6.12,0,1,1,6.12-6.12A6.13,6.13,0,0,1,1806.35,614.7Zm19.29-14.07A11.66,11.66,0,0,0,1814,589h-15.39a11.66,11.66,0,0,0-11.66,11.66V616a11.66,11.66,0,0,0,11.66,11.66H1814A11.66,11.66,0,0,0,1825.64,616ZM1822,616a8,8,0,0,1-8,8h-15.39a8,8,0,0,1-8-8V600.63a8,8,0,0,1,8-8H1814a8,8,0,0,1,8,8Z"/><path class="cls-36" d="M1754.74,240a14.62,14.62,0,0,0-19,0,11.39,11.39,0,0,0-4,8.57,11.66,11.66,0,0,0,5.28,9.57l-.67,2.85a1.1,1.1,0,0,0,1.64,1.19l3.36-2.06a14.84,14.84,0,0,0,2.67.45,11.67,11.67,0,0,1,.82-7.66,12.65,12.65,0,0,1,3-4,14.49,14.49,0,0,1,9.71-3.63h.6a11.79,11.79,0,0,0-3.49-5.29Zm-13.1,5.43a1.1,1.1,0,1,1,.32-.78,1.11,1.11,0,0,1-.32.78Zm7.22,0a1.1,1.1,0,1,1,.32-.78,1.11,1.11,0,0,1-.32.78Zm0,0"/><path class="cls-36" d="M1769.3,257.89c0-5.77-5.23-10.46-11.67-10.46S1746,252.12,1746,257.89s5.23,10.46,11.67,10.46a12.81,12.81,0,0,0,4-.65l2.89,1.09a1.1,1.1,0,0,0,1.44-1.36l-.56-1.77a10,10,0,0,0,3.86-7.77Zm-15-2a1.1,1.1,0,1,1,.32-.78,1.11,1.11,0,0,1-.32.78Zm7.62,0a1.1,1.1,0,1,1,.32-.78,1.11,1.11,0,0,1-.32.78Zm0,0"/><path class="cls-36" d="M1751.18,284a31,31,0,1,1,31-31A31,31,0,0,1,1751.18,284Zm0-58.6A27.63,27.63,0,1,0,1778.81,253,27.67,27.67,0,0,0,1751.18,225.36Z"/><path class="cls-36" d="M1687.75,310c-10.83,0-19.65,7.34-19.65,16.36,0,8.81,7.65,15.83,17.8,16.33a1.25,1.25,0,1,0,.12-2.49c-8.79-.43-15.42-6.38-15.42-13.84,0-7.65,7.69-13.87,17.15-13.87s17.15,6.22,17.15,13.87c0,7.12-9.09,14.84-18.06,18.79a1.25,1.25,0,1,0,1,2.28,46.37,46.37,0,0,0,13-8.58c4.27-4.12,6.53-8.44,6.53-12.49,0-9-8.81-16.36-19.65-16.36Zm0,0"/><path class="cls-36" d="M1678.09,322.34a1,1,0,0,0-.79-.38,1,1,0,0,0-.79.39,1.57,1.57,0,0,0-.27,1v6.51a1.53,1.53,0,0,0,.29,1,1.17,1.17,0,0,0,.94.37H1681a1,1,0,0,0,.79-.29,1,1,0,0,0,.28-.73,1,1,0,0,0-.28-.74,1,1,0,0,0-.79-.31h-2.64v-5.82a1.52,1.52,0,0,0-.28-1Zm0,0"/><path class="cls-36" d="M1683.69,322a1,1,0,0,0-.79.39,1.57,1.57,0,0,0-.27,1V330a1.54,1.54,0,0,0,.28,1,1,1,0,0,0,.78.39,1,1,0,0,0,.79-.38,1.57,1.57,0,0,0,.28-1v-6.66a1.55,1.55,0,0,0-.28-1,1,1,0,0,0-.79-.38Zm0,0"/><path class="cls-36" d="M1688,326.38l2.12,3.81h0l.15.25.09.15a2.26,2.26,0,0,0,.3.4,1.24,1.24,0,0,0,.4.28,1.25,1.25,0,0,0,.49.09c.42,0,1.12-.19,1.12-1.45v-6.65a1.53,1.53,0,0,0-.25-.93.92.92,0,0,0-.77-.38.91.91,0,0,0-.75.38,1.54,1.54,0,0,0-.25.93V327l-2.19-3.88-.11-.21-.11-.21a2.43,2.43,0,0,0-.26-.38,1.12,1.12,0,0,0-.34-.28,1,1,0,0,0-.49-.11,1.08,1.08,0,0,0-.67.23,1.22,1.22,0,0,0-.42.57h0a2.44,2.44,0,0,0-.1.76v6.52a1.55,1.55,0,0,0,.25.92h0a1,1,0,0,0,1.52,0,1.51,1.51,0,0,0,.26-.94Zm0,0"/><path class="cls-36" d="M1698.91,324.09a1,1,0,0,0,.76-.28,1,1,0,0,0,.26-.71,1,1,0,0,0-.26-.71,1,1,0,0,0-.76-.28H1695a1.42,1.42,0,0,0-.67.15,1,1,0,0,0-.45.51,1.91,1.91,0,0,0-.12.73v6.35a1.51,1.51,0,0,0,.29,1,1.16,1.16,0,0,0,.94.36h4a1,1,0,0,0,.77-.29,1,1,0,0,0,.26-.71,1,1,0,0,0-.26-.73,1,1,0,0,0-.77-.29h-3.08v-1.74h2.7a1,1,0,0,0,.75-.29,1,1,0,0,0,.25-.69.92.92,0,0,0-1-1h-2.71v-1.41h3Zm0,0"/><path class="cls-36" d="M1687.16,359.7a31,31,0,1,1,31-31A31,31,0,0,1,1687.16,359.7Zm0-58.6a27.63,27.63,0,1,0,27.63,27.63A27.67,27.67,0,0,0,1687.16,301.11Z"/><path class="cls-23" d="M1837.29,411.18a7.05,7.05,0,0,0,10,10,48.73,48.73,0,0,1,68.83,0,7,7,0,0,0,9.94-10,62.79,62.79,0,0,0-88.75,0Zm0,0"/><path class="cls-23" d="M1856.32,430.21a7.05,7.05,0,1,0,10,10,21.74,21.74,0,0,1,30.75,0,7,7,0,0,0,9.94-9.94,35.82,35.82,0,0,0-50.66,0Zm0,0"/><path class="cls-23" d="M1891,455.52a9.38,9.38,0,1,1-9.38-9.38,9.38,9.38,0,0,1,9.38,9.38Zm0,0"/><path class="cls-23" d="M1945.36,391.83a90.22,90.22,0,0,0-127.39,0,7.05,7.05,0,1,0,10,10,76.06,76.06,0,0,1,107.48,0,7,7,0,1,0,9.94-10Zm0,0"/><polyline class="cls-4" points="1701.95 283.72 1717.02 281.78 1718.5 295.61"/><polygon class="cls-4" points="2041.69 315.57 2058.91 306.4 2055.22 319.22 2041.69 315.57"/><polyline class="cls-4" points="1868.07 630.68 1858.44 618.92 1869.39 610.35"/><path class="cls-15" d="M1644.54,827.33a43.81,43.81,0,0,1-5.39,13.78c1,.54,2.29,1.53,4.25,2.67,3.87,2.23,8.82,2.61,15.25,2.61,6.86,0,15.79-.49,21.84-1.09a12.76,12.76,0,0,0-1.25,4.25c-4,.27-14.27.6-20.75.6-7.13,0-11.93-.6-15.9-2.94-2.23-1.31-4.19-3-5.39-3s-3.16,3.32-4.79,6.7l-2.72-3.7a25.86,25.86,0,0,1,4.85-5.45l-.11-.05a33.59,33.59,0,0,0,5.72-11.71h-7.9c1.63-3.21,3.65-7.84,5.34-12.14h-7v-3.65H1643c-1.52,3.92-3.49,8.5-5.23,12.25h3.76l.65-.16Zm-6.81-16c-1-2.34-2.94-6.1-4.3-8.93l3.49-1.31c1.42,2.83,3.32,6.43,4.36,8.66Zm22.38,4.63a41,41,0,0,1-14.38,10.13,11.35,11.35,0,0,0-2.4-2.94,37.28,37.28,0,0,0,14.21-8.93h-12.63V811h15.19V806.8c-4.36.38-8.82.65-12.91.76a11.18,11.18,0,0,0-.93-2.89c9.75-.38,21.51-1.36,27.94-2.78l2.56,2.72a110.56,110.56,0,0,1-12.8,1.85V811h15.41v3.21h-13.07a34.36,34.36,0,0,0,14,8.66,11.83,11.83,0,0,0-2.4,3,37.7,37.7,0,0,1-13.94-10v7.46h-3.87Zm17.48,13.67s-.05,1-.11,1.52c-.65,6.37-1.25,9.09-2.5,10.18a4.31,4.31,0,0,1-3.27,1.2,53.23,53.23,0,0,1-6.54-.05,8.29,8.29,0,0,0-1-3.16c2.61.22,5.17.27,6,.27,1,0,1.47-.05,1.85-.44.65-.65,1.2-2.45,1.63-6.48h-9.15c.49-1.42.93-3.1,1.36-4.9h-6.59c-1.09,7.3-3.87,12.58-12.31,15.47a13.19,13.19,0,0,0-2.18-3c7.35-2.34,9.75-6.59,10.78-12.47h-6.32V824.6H1670c-.33,1.63-.76,3.38-1.14,5Z"/><path class="cls-15" d="M1698,827a70.79,70.79,0,0,1-4.47,14.05c1,.6,2.34,1.63,4.36,2.83,3.87,2.34,8.77,2.72,15.25,2.72,7,0,15.79-.54,21.89-1.14a14.31,14.31,0,0,0-1.25,4.19c-4,.27-14.38.6-20.8.6-7.13,0-11.93-.6-16-3-2.18-1.31-4.19-3.16-5.39-3.16s-3,3.43-4.68,6.86l-2.78-3.65c2-2.72,3.81-5,5.45-6a46.22,46.22,0,0,0,3.92-11.33h-7.13A127.43,127.43,0,0,0,1691,817.8h-6v-3.65h11.16c-1.36,3.92-3,8.5-4.52,12.25h3.76l.71-.16Zm-7.35-15.74c-.65-2.34-1.85-6.1-2.78-8.93l3.59-1c.93,2.83,2.18,6.37,2.83,8.77Zm13.94,31.86H1701V819.59h4.19V802.93h22.33v16.66h4.19v19.5c0,1.91-.33,2.83-1.69,3.43s-3.38.6-6.64.6a14.44,14.44,0,0,0-1.09-3.27c2.29.05,4.3.05,4.85.05s.87-.27.87-.82V822.81h-23.42Zm4.19-23.53h5.12V810.5h9.91v-4.41h-15Zm14.49,18.24h-10.95V840h-3.16V826.35h14.1Zm-3.16-8.6h-7.79V835h7.79Zm3.7-9.64v-6.26H1717v6.26Z"/><path class="cls-15" d="M1739.29,841.32l3-3.43a15.69,15.69,0,0,0,11.06,5c5.23,0,8.39-2.61,8.39-6.54,0-4.08-2.89-5.39-6.64-7.08l-5.77-2.51c-3.7-1.58-8.11-4.41-8.11-10.24,0-6.15,5.34-10.62,12.58-10.62a16.37,16.37,0,0,1,11.76,5l-2.67,3.21a12.93,12.93,0,0,0-9.09-3.76c-4.52,0-7.46,2.29-7.46,5.88,0,3.87,3.49,5.34,6.59,6.64l5.72,2.45c4.63,2,8.22,4.74,8.22,10.67,0,6.32-5.23,11.33-13.56,11.33A19.08,19.08,0,0,1,1739.29,841.32Z"/><path class="cls-15" d="M1774.68,806.63h6.1l7.68,21.35c.93,2.78,1.85,5.55,2.83,8.33h.27c.93-2.78,1.8-5.55,2.72-8.33l7.62-21.35h6.1v39.92h-4.74V824.44c0-3.43.38-8.28.65-11.76h-.22l-3.16,9.09L1793,842.52h-3.38L1782,821.77l-3.16-9.09h-.22c.22,3.49.6,8.33.6,11.76v22.11h-4.57Z"/><path class="cls-15" d="M1816,841.32l3-3.43a15.68,15.68,0,0,0,11.06,5c5.23,0,8.39-2.61,8.39-6.54,0-4.08-2.89-5.39-6.64-7.08l-5.77-2.51c-3.7-1.58-8.11-4.41-8.11-10.24,0-6.15,5.34-10.62,12.58-10.62a16.37,16.37,0,0,1,11.76,5l-2.67,3.21a12.93,12.93,0,0,0-9.09-3.76c-4.52,0-7.46,2.29-7.46,5.88,0,3.87,3.49,5.34,6.59,6.64l5.72,2.45c4.63,2,8.22,4.74,8.22,10.67,0,6.32-5.23,11.33-13.56,11.33A19.08,19.08,0,0,1,1816,841.32Z"/><path class="cls-15" d="M1853.91,836.31a74.06,74.06,0,0,1-2.67,13.13,17.71,17.71,0,0,0-3-1.09,65.14,65.14,0,0,0,2.56-12.53Zm10.78-14.65a90,90,0,0,1,3.65,10.4l-3,1.2c-.16-.76-.44-1.69-.65-2.61-12.14,1.91-13.78,2.29-14.81,2.83a17.69,17.69,0,0,0-1.14-3.54c1.09-.22,2.29-1.58,3.87-3.65a69.25,69.25,0,0,0,4.46-6.37c-5.66.65-6.81.93-7.51,1.31-.22-.76-.76-2.56-1.14-3.49.87-.22,1.8-1.36,2.89-3a72.26,72.26,0,0,0,7-13.72l3.43,1.47a85.41,85.41,0,0,1-8.22,14.59l5.72-.54a81.92,81.92,0,0,0,4-7.52l3.16,1.91A110.6,110.6,0,0,1,1854.34,829l9.37-1.31c-.6-1.74-1.31-3.49-1.91-5.06Zm-5.45,13.94a82.67,82.67,0,0,1,1.52,11.44l-3,.76a105.91,105.91,0,0,0-1.31-11.65Zm5.72-1.42a79.38,79.38,0,0,1,3.21,10.46l-2.83,1a79.48,79.48,0,0,0-3-10.57Zm31.8,12c0,2.23-.44,3.21-1.85,3.87s-3.54.71-6.86.71a14.94,14.94,0,0,0-1-3.59c2.29.11,4.47.05,5.12.05s.93-.27.93-1v-39h-20.37V850.8H1869V803.58h27.72Zm-8.77-9a15.61,15.61,0,0,0,3.21-.27c.11.93.22,2.18.33,3a15,15,0,0,1-3.49.27h-7c-3.59,0-4.41-1.31-4.41-4.9V830h-2v-3.21h7.41a33.92,33.92,0,0,0-2.12-4.79l2.5-1h-8.33V817.8h10.35a59.91,59.91,0,0,0,2.56-9l2.94.87c-.82,2.67-1.8,5.77-2.67,8.11h4.63V821h-9.15a44.08,44.08,0,0,1,2.4,4.9l-2,.87h8.06V830H1880v5.34c0,1.42.16,1.85,1.31,1.85Zm-9.53-28.48a26.29,26.29,0,0,1,2.94,7.73l-2.61.93a29.57,29.57,0,0,0-2.83-7.79Z"/><path class="cls-15" d="M1918.76,833.92c-.16-.93-.38-2-.71-3.21-11.27,1.85-12.85,2.18-13.89,2.72-.22-.76-.82-2.72-1.25-3.81,1.14-.16,2.4-1.53,4-3.49a66.94,66.94,0,0,0,4.68-6.26c-5.83.71-7,1-7.79,1.36a36.57,36.57,0,0,0-1.25-3.65c.87-.22,1.91-1.31,3-2.94a72.44,72.44,0,0,0,7.46-13.72l3.7,1.58A89.62,89.62,0,0,1,1908,817l5.88-.44c1.42-2.4,2.94-4.9,4.08-7.35l3.49,2.07a104.06,104.06,0,0,1-12.36,17.54l8.17-1.2c-.49-1.8-1.14-3.59-1.74-5.28l3-.71a74.91,74.91,0,0,1,3.43,11.22Zm-10.18,2.45a70.55,70.55,0,0,1-2.72,13.23,19.41,19.41,0,0,0-3.27-1.25,61.12,61.12,0,0,0,2.61-12.53Zm5.72-.71a97.58,97.58,0,0,1,1.53,11.71l-3.27.65a97.35,97.35,0,0,0-1.36-11.82Zm5.23-1.25a67.52,67.52,0,0,1,3.1,10.08l-3,1a82.11,82.11,0,0,0-2.89-10.24Zm30.61-26.47a42.58,42.58,0,0,1-9,13.83,41,41,0,0,0,12.14,7.3,14.48,14.48,0,0,0-2.56,3.38,11.72,11.72,0,0,1-1.2-.54v18.46h-3.92v-1.74h-15.08v1.85h-3.81v-18.3a13.78,13.78,0,0,1-1.85.82,13.34,13.34,0,0,0-2.4-3.21,44.13,44.13,0,0,0,13.29-8.06,49.16,49.16,0,0,1-5.66-7.62,37.28,37.28,0,0,1-5.28,5.28,25.35,25.35,0,0,0-3-2.78,37.51,37.51,0,0,0,11.93-15.79l3.81,1a41.86,41.86,0,0,1-2.45,5h11.82l.71-.22Zm-2.61,23a42.81,42.81,0,0,1-9.15-6.54,48,48,0,0,1-9.31,6.54Zm-2,14.11V834.57h-15.08V845Zm-13.23-33.93a37.51,37.51,0,0,0,6,8.06,35.29,35.29,0,0,0,6.48-8.93h-11.93Z"/><path class="cls-15" d="M1975.5,834.08c-1.14-1.58-3.59-4.47-5.66-6.75v23.36h-4V828.53a48.28,48.28,0,0,1-7.52,6.26,15.42,15.42,0,0,0-1.85-3.92A44.83,44.83,0,0,0,1972.28,814H1958v-3.7h16.45l.76-.16,2.18,1.58a47.38,47.38,0,0,1-6.81,11.49c2.18,2.07,6.32,6.32,7.51,7.52ZM1968.8,810a35.58,35.58,0,0,0-5.12-7.24l3-1.8a31.56,31.56,0,0,1,5.28,7Zm38.12,34.64v4h-31.1v-4h14.32V821.88h-11.76V818h11.76v-17h4v17h11.6v3.92h-11.6v22.76Z"/><path class="cls-15" d="M2035,830.59V847.8h-13.78v2.94h-3.7V835.93a24.92,24.92,0,0,1-3.92,5,14.09,14.09,0,0,0-2.61-2.94c3.49-3.27,5.77-7.68,7.35-12.91h-4V821.5h4.9c.38-1.69.71-3.49,1-5.34h-8.39v-3.49h8.88c.16-1.74.38-3.59.49-5.45h-6.59v-3.54h19.55v9h3.21v3.49h-3.21V825h-12.09a39.12,39.12,0,0,1-1.91,5.55Zm-13.78,3.59v10h9.86v-10Zm2.72-18c-.27,1.85-.6,3.65-1,5.34h7.46v-5.34Zm1-8.93c-.16,1.85-.33,3.7-.54,5.45h6v-5.45Zm36.65,30.82H2051V850.8h-3.92V838.06h-10.18v-3.81h10.18v-7.9h-8.17v-3.76h8.17v-7.35h-8.93v-3.7h22.22v3.7H2051v7.35h8.44v3.76H2051v7.9h10.62Zm-19.06-26.58a32.11,32.11,0,0,0-3.7-9l3.21-1.09a28.79,28.79,0,0,1,3.92,8.82Zm16.83-9.58c-1.47,3.27-3.1,6.92-4.52,9.37l-3.32-.87a55.92,55.92,0,0,0,3.92-9.48Z"/><path class="cls-15" d="M2074.49,808.43a34.06,34.06,0,0,1-5.39,6.48,19.92,19.92,0,0,0-2.89-2.67,31.82,31.82,0,0,0,8.39-11.6l3.59,1c-.49,1.09-1,2.18-1.53,3.27h14v3.54h-10.18a59.85,59.85,0,0,1,5.23,4.9l-2.67,2.4a42.75,42.75,0,0,0-5.66-5.72l2-1.58ZM2104,833.86h10.84v3.43H2104v9.2c0,2.34-.6,3.27-2.4,3.76s-5,.54-9.69.54a12,12,0,0,0-1.09-3.43c3.65.16,7,.16,7.9.11s1.2-.33,1.2-1.09v-9.09h-32.84v-3.43h32.84V830H2104Zm11.82-28.92v3.54h-12a44.88,44.88,0,0,1,5.07,5.34l-2.78,2.34a37.2,37.2,0,0,0-5.17-5.83l2.4-1.85H2098a37.2,37.2,0,0,1-4.58,6.54l-.49-.44v2.56h19.93v3.54h-19.93v4.85h16.88v3.27h-38v-3.27h17v-4.85H2069.1v-3.54h19.77v-3.38h3a18.57,18.57,0,0,0-1.58-1.14,28.39,28.39,0,0,0,6.75-12l3.76.87a25.75,25.75,0,0,1-1.25,3.43ZM2079,837.78a90.16,90.16,0,0,1,9.26,8.06l-3,2.4a90.05,90.05,0,0,0-9.15-8.33Z"/><path class="cls-15" d="M1782.41,867.67a80.11,80.11,0,0,1-5.61,11.76v36.49H1773V885.37a53.12,53.12,0,0,1-5.5,6.7,22.19,22.19,0,0,0-2.29-3.92c5.34-5.23,10.4-13.34,13.45-21.62Zm26.2,33.11h7.62v3.27h-7.62v7.73c0,2.18-.49,3.21-2.18,3.76s-4.36.54-8.5.54a13.87,13.87,0,0,0-1.31-3.43,69.09,69.09,0,0,0,7,0c.87,0,1.09-.22,1.09-.93v-7.68H1780v-3.27h24.67v-3.54c-8.6.27-17,.54-23.2.65l-.38-3.27c4.14,0,9.53-.05,15.36-.16v-3.32h-12.74V876.71h12.74v-3.1h-14.92v-3.1h14.92v-3.76h3.92v3.76h15.3v3.1h-15.3v3.1h13.12v14.43h-4a46.94,46.94,0,0,1,7.08,6.43l-2.89,1.85a26.42,26.42,0,0,0-2.18-2.4l-2.89.11Zm-16,12.53a43.47,43.47,0,0,0-6.81-7.35l3-1.91a44.06,44.06,0,0,1,6.92,7.08Zm-5.17-30.66h9v-3.38h-9Zm9,5.94V885.1h-9v3.49Zm3.92-9.31v3.38h9.26v-3.38Zm9.26,5.83h-9.26v3.49h9.26Zm-9.26,9.26,8.06-.16c-1.09-.93-2.18-1.8-3.21-2.56l.87-.49h-5.72Z"/><path class="cls-15" d="M1837.36,892.61c-1.91.71-3.81,1.47-5.72,2.18v16.55c0,2.23-.54,3.32-1.91,4s-3.32.82-6.75.76a16.52,16.52,0,0,0-1.2-3.76c2.34.05,4.52.05,5.12,0s.93-.16.93-1V896.21c-2.4.93-4.63,1.8-6.7,2.56l-.87-4c2.07-.71,4.68-1.58,7.57-2.61V881h-6.75v-3.76h6.75V866.37h3.81v10.89h5.83V881h-5.83v9.8l5-1.85Zm21.46-8.11a91.94,91.94,0,0,1,11.82,9.53l-2.29,2.56c-.33-.33-.71-.65-1.09-1v20.15h-3.76V913.8h-19.44v2.29h-3.65V895.72a23.79,23.79,0,0,1-2.34,1.2,16.3,16.3,0,0,0-2.5-3,33,33,0,0,0,12.85-9.42h-10.84v-3.38h14.11V872c-4.19.38-8.6.65-12.58.82a9.92,9.92,0,0,0-.87-3c9.37-.54,20.75-1.58,27.12-3.1l2.34,3a93.52,93.52,0,0,1-12.31,1.91v9.53h3.27a51.05,51.05,0,0,0,3.81-9.09l3.54,1.14c-1.14,2.67-2.5,5.66-3.76,8H1870v3.38ZM1845,873.06c1.2,2.12,2.72,5,3.43,6.64l-3.32,1.25c-.71-1.74-2.18-4.68-3.38-6.86Zm6.7,12.63a36.68,36.68,0,0,1-9.42,8.88h9.42Zm0,12.14h-7.62v4.52h7.63Zm-7.62,12.91h7.63v-5.34h-7.62Zm19.44-12.91h-8.33v4.52h8.33Zm0,12.91v-5.34h-8.33v5.34Zm2.83-16.17a101.12,101.12,0,0,0-10.95-8.71v8.71Z"/><path class="cls-15" d="M1886.14,895.5V911c0,2.29-.49,3.38-1.8,4.08s-3.32.82-6.59.76a16.93,16.93,0,0,0-1.2-3.92c2.23.05,4.25.05,4.85.05s1-.22,1-1V896.75c-2.4.82-4.68,1.58-6.7,2.23l-1-3.92c2.12-.54,4.74-1.42,7.68-2.34V881h-7v-3.76h7V866.42h3.76v10.84h5.72V881h-5.72v10.51l5.17-1.74.54,3.76Zm39-7.24v2.89h-27.88c-.05,7.9-1,18.35-6.37,25.16a12,12,0,0,0-2.83-2.4c5.12-6.54,5.61-16,5.61-23.47v-20h14.92c-.44-1.14-1-2.4-1.47-3.49l3.76-.93a45.51,45.51,0,0,1,2.07,4.41h11.55v3.16h-27.23v14.65ZM1908.42,911c-3.16,1.8-7.13,3.7-10,5.06a12.37,12.37,0,0,0-1.91-2.61,86.8,86.8,0,0,0,9-4.68Zm-5.34-24.83v-5.39h-4.36v-2.56h4.36V875h3.38v3.21h8.93V875h3.54v3.21h4.74v2.56h-4.74v5.39ZM1923,907.86h-23.53V893.21H1923Zm-20.31-8.6h6.54v-3.43h-6.54Zm0,6h6.54v-3.54h-6.54Zm3.76-24.51v2.83h8.93v-2.83Zm13.23,15.08h-6.86v3.43h6.86Zm0,5.88h-6.86v3.54h6.86Zm-3.87,7c3.27,1.63,7,3.59,9.2,5l-2.12,2.5c-2.12-1.47-5.77-3.54-8.88-5.23Z"/><path class="cls-15" d="M1956.28,886.24h-26.41v-3.49h6.32v-6.43h-5.45V872.9h5.45v-6.1h3.7v6.1h7v-6.1h3.76v6.1h5.5v3.43h-5.5v6.43h5.61Zm-3.16,25.71c0,2-.38,2.94-1.74,3.49s-3.49.65-6.75.65a13.18,13.18,0,0,0-1.2-3.38c2.34.05,4.47.05,5.07,0s.87-.16.87-.82v-6.7c-3.81,1.58-7.62,3.16-10.84,4.47l-1.47-3.32c3.16-.93,7.68-2.5,12.31-4.08v-9.64h-11.93v7.3c0,5.17-.6,11.93-4.14,16.61a14.78,14.78,0,0,0-3-2.23c3.16-4.25,3.49-9.91,3.49-14.38V889.62h19.33Zm-13.18-17.43a60.61,60.61,0,0,1,8.22,4.52l-1.85,2.61a65.1,65.1,0,0,0-8.11-4.85Zm-.05-11.76h7v-6.43h-7Zm36.21-2.56c-1.2,8.88-3.1,16.23-6.26,22.22a26.35,26.35,0,0,0,10.24,10.35,12.37,12.37,0,0,0-2.72,3.32,27.76,27.76,0,0,1-9.64-10,34.52,34.52,0,0,1-10.57,10,14.84,14.84,0,0,0-2.29-3.27,29,29,0,0,0,10.78-10.51,73.63,73.63,0,0,1-5.17-16,39.09,39.09,0,0,1-3.59,7.08,28.08,28.08,0,0,0-2.72-3.16c3.87-5.77,6.21-14.81,7.57-24l3.81.6c-.49,3.21-1.14,6.43-1.91,9.48h16v3.81Zm-8.33,18.19c2.29-5.06,3.65-11.11,4.57-18.19h-9.75A72.64,72.64,0,0,0,1967.77,898.39Z"/><path class="cls-3" d="M2913.94,415.2a290.32,290.32,0,0,1-290.41,290.41c-160.39,0-290.41-130-290.41-290.41q0-8.61.5-17.08A290.31,290.31,0,0,1,2623.53,124.8c160.39,0,290.41,130,290.41,290.41Zm0,0"/><g class="cls-38"><circle class="cls-24" cx="2709.65" cy="429.52" r="131.15"/><path class="cls-39" d="M2744.19,508.89h-69.08a28.66,28.66,0,0,0-28.66,28.66v26h126.4v-26a28.66,28.66,0,0,0-28.66-28.66Zm0,0"/><path class="cls-40" d="M2766.2,427.29l-.35,0V422c0-30.76-25.16-55.69-56.19-55.69s-56.19,24.93-56.19,55.69v5.26l-.36,0a17,17,0,1,0,0,34,17.49,17.49,0,0,0,1.84-.1,56.3,56.3,0,0,0,109.42,0,17.49,17.49,0,0,0,1.84.1,17,17,0,1,0,0-34Zm0,0"/><path class="cls-41" d="M2681.73,462.27a12.45,12.45,0,0,1-12.43-12.43,1.88,1.88,0,1,1,3.77,0,8.67,8.67,0,0,0,17.33,0,1.88,1.88,0,1,1,3.77,0,12.45,12.45,0,0,1-12.43,12.43Zm0,0"/><path class="cls-42" d="M2681.73,454.73a6.79,6.79,0,0,1-6.79-6.78V436.65a6.78,6.78,0,1,1,13.57,0V448a6.79,6.79,0,0,1-6.78,6.78Zm0,0"/><path class="cls-41" d="M2737.31,462.27a12.45,12.45,0,0,1-12.43-12.43,1.88,1.88,0,1,1,3.77,0,8.67,8.67,0,0,0,17.33,0,1.88,1.88,0,0,1,3.77,0,12.45,12.45,0,0,1-12.43,12.43Zm0,0"/><path class="cls-42" d="M2737.31,454.73a6.79,6.79,0,0,1-6.79-6.78V436.65a6.78,6.78,0,0,1,13.57,0V448a6.79,6.79,0,0,1-6.78,6.78Zm0,0"/><path class="cls-42" d="M2720.91,480.21a1.88,1.88,0,0,1-1.88-1.88,4.85,4.85,0,0,0-1.54-3.42,8.45,8.45,0,0,0-3.55-2,10.18,10.18,0,0,0-3-.39h-2.63a10.09,10.09,0,0,0-3,.39,8.44,8.44,0,0,0-3.55,2,4.85,4.85,0,0,0-1.54,3.42,1.88,1.88,0,0,1-3.77,0,8.65,8.65,0,0,1,2.63-6.07,12.21,12.21,0,0,1,5.13-3,13.83,13.83,0,0,1,4.07-.55H2711a13.83,13.83,0,0,1,4.07.55,12.2,12.2,0,0,1,5.13,3,8.65,8.65,0,0,1,2.63,6.07,1.88,1.88,0,0,1-1.88,1.88Zm0,0"/><path class="cls-40" d="M2709.65,504.16a56.33,56.33,0,0,1-25.5-6.05v9.73a25.49,25.49,0,1,0,51,0v-9.72a56.32,56.32,0,0,1-25.48,6Zm0,0"/><path class="cls-43" d="M2694,418.25h-56.11V398.77A54.77,54.77,0,0,1,2692.61,344h15.76a14.42,14.42,0,0,1,14.42,14.42v31A28.84,28.84,0,0,1,2694,418.25Zm0,0"/><path class="cls-43" d="M2780.57,416.32h-32.65a25.12,25.12,0,0,1-25.12-25.12v-34A13.18,13.18,0,0,1,2736,344a44.59,44.59,0,0,1,44.59,44.59Zm0,0"/><path class="cls-43" d="M2643.75,418.25V430a17.17,17.17,0,0,1,9.35-2.76l.36,0V422c0-1.27.05-2.54.14-3.79Zm0,0"/><path class="cls-43" d="M2765.54,416.32a55.75,55.75,0,0,1,.3,5.72v5.26l.36,0a17.16,17.16,0,0,1,9.34,2.76V416.32Zm0,0"/><path class="cls-42" d="M2754.68,432.21h-5.56a45.61,45.61,0,0,1-23.52-6.53l-2.55-1.53a1.88,1.88,0,0,1,1.94-3.23l2.55,1.53a41.85,41.85,0,0,0,21.58,6h5.56a1.88,1.88,0,1,1,0,3.77Zm0,0"/><path class="cls-42" d="M2670.18,432.21h-5.56a1.88,1.88,0,1,1,0-3.77h5.56a41.85,41.85,0,0,0,21.58-6l2.55-1.53a1.88,1.88,0,0,1,1.94,3.23l-2.55,1.53a45.61,45.61,0,0,1-23.52,6.53Zm0,0"/><path class="cls-44" d="M2694,420.13h-56.11a1.88,1.88,0,0,1-1.88-1.88V398.77a56.72,56.72,0,0,1,56.66-56.66h15.76a16.32,16.32,0,0,1,16.3,16.3v31A30.76,30.76,0,0,1,2694,420.13Zm-54.23-3.77H2694a27,27,0,0,0,27-27v-31a12.55,12.55,0,0,0-12.54-12.54h-15.76a53,53,0,0,0-52.89,52.89Zm0,0"/><path class="cls-44" d="M2780.57,418.21h-32.65a27,27,0,0,1-27-27v-34A15.08,15.08,0,0,1,2736,342.11a46.53,46.53,0,0,1,46.48,46.48v27.73a1.88,1.88,0,0,1-1.88,1.88ZM2736,345.88a11.31,11.31,0,0,0-11.3,11.3v34a23.27,23.27,0,0,0,23.24,23.24h30.77V388.59A42.76,42.76,0,0,0,2736,345.88Zm0,0"/><path class="cls-44" d="M2643.75,431.93a1.88,1.88,0,0,1-1.88-1.88v-11.8a1.88,1.88,0,0,1,1.88-1.88h9.85a1.88,1.88,0,0,1,1.88,2c-.09,1.31-.13,2.5-.13,3.66v5.26a1.88,1.88,0,0,1-.57,1.35,1.92,1.92,0,0,1-1.36.54h-.27a15.32,15.32,0,0,0-8.37,2.46,1.87,1.87,0,0,1-1,.3Zm1.88-11.8v6.79a19,19,0,0,1,5.94-1.46V422c0-.63,0-1.26,0-1.91Zm0,0"/><path class="cls-44" d="M2775.54,431.92a1.87,1.87,0,0,1-1-.3,15.3,15.3,0,0,0-8.32-2.45l-.31,0a1.88,1.88,0,0,1-1.92-1.88V422a53.65,53.65,0,0,0-.29-5.53,1.89,1.89,0,0,1,1.87-2.08h10a1.89,1.89,0,0,1,1.88,1.88V430a1.88,1.88,0,0,1-1.88,1.88Zm-7.81-6.46a19,19,0,0,1,5.93,1.45v-8.71h-6.06c.09,1.3.13,2.58.13,3.83Zm0,0"/></g><rect class="cls-24" x="2466.63" y="332.56" width="126.28" height="154.05"/><path class="cls-23" d="M2585,318H2476.55a9.92,9.92,0,0,0-9.92,9.92V493.22a9.92,9.92,0,0,0,9.92,9.92H2585a9.92,9.92,0,0,0,9.92-9.92V327.93A9.92,9.92,0,0,0,2585,318m-40.63,8.06a2.1,2.1,0,1,1-2.1,2.09,2.1,2.1,0,0,1,2.1-2.09m-29.27.8h22v2.4h-22Zm15.69,172.31a6.45,6.45,0,1,1,6.45-6.45,6.44,6.44,0,0,1-6.45,6.45m57.85-16.87h-115.7V338.84h115.7Z"/><rect class="cls-24" x="2405.76" y="394.36" width="92.06" height="132.11"/><path class="cls-23" d="M2489.63,376.15h-75.5a13.07,13.07,0,0,0-13.05,13.06V542.54a13.06,13.06,0,0,0,13.05,13.06h75.5a13.06,13.06,0,0,0,13.06-13.06V389.22a13.06,13.06,0,0,0-13.06-13.06m-8.61,8.19a3.34,3.34,0,1,1-3.35,3.34,3.35,3.35,0,0,1,3.35-3.34m-46.64,1.28h35v3.83h-35Zm17.5,162.1a8.75,8.75,0,1,1,8.75-8.75,8.75,8.75,0,0,1-8.75,8.75m41-26.17h-82V398.23h82Z"/><path class="cls-7" d="M2457.34,424.64v47.18h-62.76V424.64Zm0,0"/><path class="cls-7" d="M2426.89,468.87l6.74,16L2404.14,468Zm0,0"/><rect class="cls-10" x="2439.53" y="434.36" width="6.45" height="15.98"/><rect class="cls-11" x="2439.53" y="434.36" width="4.1" height="15.98"/><path class="cls-45" d="M2408.94,451.81V450.4a2,2,0,0,1,2-2h1.16a1.89,1.89,0,0,1-1.76-1.89v-1.58a1.89,1.89,0,0,1,1.89-1.89h1.62a1.71,1.71,0,0,1-1.71-1.71v-1.36a1.71,1.71,0,0,1,1.71-1.71h1.57a1.71,1.71,0,0,1-1.71-1.71v-1a1.71,1.71,0,0,1,1.71-1.71h23v16.52a25,25,0,0,0-6.49.73c-5.46,1.47-6.6,4.93-6.6,8v5.58a1.31,1.31,0,0,1-1.31,1.31,4.23,4.23,0,0,1-4.23-4.23V456.2a2.34,2.34,0,0,0-2.34-2.34H2411A2,2,0,0,1,2408.94,451.81Z"/><path class="cls-13" d="M2432.38,451.07a26,26,0,0,1,6-.62V433.93h-6Z"/><rect class="cls-14" x="2433.84" y="432.44" width="8.2" height="19.81"/><path class="cls-9" d="M2437.94,435.68a.85.85,0,0,0,.85-.85v-.19a.85.85,0,1,0-1.7,0v.19A.85.85,0,0,0,2437.94,435.68Z"/><path class="cls-9" d="M2437.94,437.81a.85.85,0,0,0,.85-.85v-.19a.85.85,0,1,0-1.7,0V437A.85.85,0,0,0,2437.94,437.81Z"/><rect class="cls-1" x="2434.69" y="433.29" width="6.49" height="18.1"/><rect class="cls-1" x="2434.69" y="433.29" width="6.49" height="18.1"/><polygon class="cls-1" points="2428.71 453.57 2428.7 453.57 2428.71 453.57 2428.71 453.57"/><path class="cls-9" d="M2446,439.41a.85.85,0,0,0,.85-.85v-4.2a.85.85,0,0,0-.85-.85h-3.09v-1.06a.85.85,0,0,0-.85-.85h-8.2a.85.85,0,0,0-.85.85v.64h-3a.85.85,0,1,0,0,1.7h3v15.28c-5.64,1.1-8.51,4.15-8.51,9.08v5.58a.46.46,0,0,1-.46.46,3.38,3.38,0,0,1-3.38-3.38v-5.47a3.2,3.2,0,0,0-3.2-3.2H2411a1.19,1.19,0,0,1-1.19-1.19v-1.41a1.19,1.19,0,0,1,1.19-1.19h2.89a.85.85,0,1,0,0-1.7h-1.68a1,1,0,0,1-.95-1V445a1,1,0,0,1,1-1h3.23a.85.85,0,1,0,0-1.7h-1.6a.86.86,0,0,1-.86-.86v-1.36a.86.86,0,0,1,.86-.86h3a.85.85,0,1,0,0-1.7h-1.47a.86.86,0,0,1-.86-.86v-1a.86.86,0,0,1,.86-.86h11.12a.85.85,0,0,0,0-1.7h-11.12a2.56,2.56,0,0,0-2.56,2.56v1a2.56,2.56,0,0,1-1.57,3.42v.28h0a16,16,0,0,0,.11,1.79h0a2.35,2.35,0,0,0,.08.26,2.75,2.75,0,0,0-2,2.64v1.58a2.72,2.72,0,0,0,.31,1.27,2.9,2.9,0,0,0-1.75,2.66V452a2.9,2.9,0,0,0,2.89,2.89h6.46a1.49,1.49,0,0,1,1.49,1.49v5.47a5.09,5.09,0,0,0,5.08,5.08,2.17,2.17,0,0,0,2.17-2.17v-5.58a6.46,6.46,0,0,1,2.47-5.54h0l0,0h0a15.39,15.39,0,0,1,1.51-.88,13.24,13.24,0,0,1,2.76-.88v.45a.85.85,0,0,0,.85.85h8.2a.85.85,0,0,0,.85-.85v-1.06H2446a.85.85,0,0,0,.85-.85V442a.85.85,0,1,0-1.7,0v7.48h-2.24V435.21h2.24v3.35A.85.85,0,0,0,2446,439.41Zm-4.8,12h-6.49v-18.1h6.49Z"/><path class="cls-9" d="M2428.66,453.6h0l0,0Z"/><path class="cls-5" d="M2478.55,498.82,2473.85,510l20.53-11.73Zm0,0"/><rect class="cls-5" x="2457.34" y="468.03" width="43.7" height="32.85"/><line class="cls-46" x1="2466.15" y1="474.88" x2="2492.97" y2="474.88"/><line class="cls-46" x1="2466.15" y1="482.96" x2="2492.97" y2="482.96"/><line class="cls-46" x1="2466.15" y1="491.62" x2="2492.97" y2="491.62"/><path class="cls-47" d="M2548.71,432.81,2542,448.67l29.22-16.7Zm0,0"/><rect class="cls-47" x="2518.53" y="388.99" width="62.19" height="46.75"/><path class="cls-48" d="M2564.57,412.36a15.44,15.44,0,1,1-15.44-15.44h0a15.43,15.43,0,0,1,15.42,15.44Z"/><path class="cls-9" d="M2543.85,418.52a.63.63,0,0,0,.78.42,7.56,7.56,0,0,1,8.25,2.59.63.63,0,1,0,1-.78,8.85,8.85,0,0,0-9.6-3A.63.63,0,0,0,2543.85,418.52Z"/><path class="cls-9" d="M2544.45,410.62a.63.63,0,0,0,.63-.63v-.47a.63.63,0,0,0-1.25,0V410A.63.63,0,0,0,2544.45,410.62Z"/><path class="cls-9" d="M2554.39,410v-.47a.63.63,0,1,0-1.25,0V410a.63.63,0,1,0,1.25,0Z"/><path class="cls-5" d="M2476.81,412l-11.25,26.73,49.24-28.13Zm0,0"/><rect class="cls-5" x="2425.96" y="338.13" width="104.8" height="78.78"/><path class="cls-49" d="M2503.54,377.51a26,26,0,1,1-26-26h0a26,26,0,0,1,26,26Z"/><path class="cls-9" d="M2468.76,390.6a1.06,1.06,0,0,0,1.47.28,12.74,12.74,0,0,1,14.58,0,1.06,1.06,0,0,0,1.19-1.75,14.92,14.92,0,0,0-17,0A1.06,1.06,0,0,0,2468.76,390.6Z"/><path class="cls-9" d="M2469.64,374.58a1.06,1.06,0,0,0,1.06-1.06v-.8a1.06,1.06,0,0,0-2.11,0v.8A1.06,1.06,0,0,0,2469.64,374.58Z"/><path class="cls-9" d="M2486.38,373.52v-.8a1.06,1.06,0,0,0-2.11,0v.8a1.06,1.06,0,0,0,2.11,0Z"/><path class="cls-7" d="M2535.43,430.7v17.94h-23.87V430.7Zm0,0"/><path class="cls-7" d="M2523.85,447.52l2.56,6.09-11.21-6.41Zm0,0"/><rect class="cls-10" x="2526.86" y="436.57" width="1.76" height="4.35"/><rect class="cls-11" x="2526.86" y="436.57" width="1.12" height="4.35"/><path class="cls-50" d="M2518.53,441.32v-.39a.56.56,0,0,1,.56-.56h.32a.52.52,0,0,1-.48-.51v-.43a.52.52,0,0,1,.52-.52h.44a.47.47,0,0,1-.47-.47v-.37a.47.47,0,0,1,.47-.47h.43a.47.47,0,0,1-.47-.47v-.28a.47.47,0,0,1,.47-.47h6.25v4.5a6.81,6.81,0,0,0-1.77.2,2.1,2.1,0,0,0-1.8,2.17v1.52a.36.36,0,0,1-.36.36,1.15,1.15,0,0,1-1.15-1.15v-1.49a.64.64,0,0,0-.64-.64h-1.76A.56.56,0,0,1,2518.53,441.32Z"/><path class="cls-13" d="M2524.92,441.12a7.08,7.08,0,0,1,1.65-.17v-4.5h-1.65Z"/><rect class="cls-14" x="2525.31" y="436.04" width="2.23" height="5.4"/><path class="cls-9" d="M2526.43,436.93a.23.23,0,0,0,.23-.23v-.05a.23.23,0,0,0-.46,0v.05A.23.23,0,0,0,2526.43,436.93Z"/><path class="cls-9" d="M2526.43,437.51a.23.23,0,0,0,.23-.23v-.05a.23.23,0,0,0-.46,0v.05A.23.23,0,0,0,2526.43,437.51Z"/><rect class="cls-1" x="2525.55" y="436.28" width="1.77" height="4.93"/><rect class="cls-1" x="2525.55" y="436.28" width="1.77" height="4.93"/><polygon class="cls-1" points="2523.92 441.8 2523.91 441.8 2523.92 441.8 2523.92 441.8"/><path class="cls-9" d="M2528.62,437.94a.23.23,0,0,0,.23-.23v-1.14a.23.23,0,0,0-.23-.23h-.84V436a.23.23,0,0,0-.23-.23h-2.23a.23.23,0,0,0-.23.23v.17h-.8a.23.23,0,1,0,0,.46h.8v4.16c-1.54.3-2.32,1.13-2.32,2.47v1.52a.13.13,0,0,1-.13.13.92.92,0,0,1-.92-.92v-1.49a.87.87,0,0,0-.87-.87h-1.76a.32.32,0,0,1-.32-.32V441a.32.32,0,0,1,.32-.32h.79a.23.23,0,1,0,0-.46h-.46a.28.28,0,0,1-.26-.28v-.43a.28.28,0,0,1,.28-.28h.88a.23.23,0,0,0,0-.46h-.44a.23.23,0,0,1-.23-.23v-.37a.23.23,0,0,1,.23-.23h.83a.23.23,0,0,0,0-.46h-.4a.23.23,0,0,1-.23-.23v-.28a.23.23,0,0,1,.23-.23h3a.23.23,0,1,0,0-.46h-3a.7.7,0,0,0-.7.7v.28a.7.7,0,0,1-.43.93v.08h0a4.35,4.35,0,0,0,0,.49h0l0,.07a.75.75,0,0,0-.54.72v.43a.74.74,0,0,0,.08.34.79.79,0,0,0-.48.72v.39a.79.79,0,0,0,.79.79h1.76a.41.41,0,0,1,.41.41V444a1.39,1.39,0,0,0,1.38,1.39.59.59,0,0,0,.59-.59v-1.52a1.76,1.76,0,0,1,.67-1.51h0a4.19,4.19,0,0,1,.41-.24,3.61,3.61,0,0,1,.75-.24v.12a.23.23,0,0,0,.23.23h2.23a.23.23,0,0,0,.23-.23v-.29h.84a.23.23,0,0,0,.23-.23v-2.27a.23.23,0,1,0-.46,0v2h-.61V436.8h.61v.91A.23.23,0,0,0,2528.62,437.94Zm-1.31,3.27h-1.77v-4.93h1.77Z"/><path class="cls-9" d="M2523.9,441.81h0Z"/><path class="cls-51" d="M2553.91,469.5l-3,7.18,13.22-7.56Zm0,0"/><rect class="cls-51" x="2540.25" y="449.67" width="28.14" height="21.15"/><line class="cls-52" x1="2545.93" y1="454.08" x2="2563.2" y2="454.08"/><line class="cls-52" x1="2545.93" y1="459.28" x2="2563.2" y2="459.28"/><line class="cls-52" x1="2545.93" y1="464.86" x2="2563.2" y2="464.86"/><path class="cls-15" d="M2503.85,816.6a38.42,38.42,0,0,1-4.3,9,44.76,44.76,0,0,1,4.36,2.4c3.27,1.74,8.11,2,14.05,2a208.1,208.1,0,0,0,21.67-1,14.37,14.37,0,0,0-1.09,3.81c-4.9.33-15.08.6-20.64.6-6.37,0-11.22-.38-14.76-2.29-2-1.14-3.54-2.45-4.63-2.45-1.47,0-3.81,2.56-5.94,5.34l-2.23-3.16a28.86,28.86,0,0,1,4.41-3.92h-.05a24.62,24.62,0,0,0,4.57-7.84h-7.41a86.49,86.49,0,0,0,4.47-8h-6.21V808h11.6c-1.31,2.61-2.89,5.5-4.3,8h3.81l.54-.16Zm23.69,20h10.95v3.21h-10.95v6.64c0,2.12-.44,3.16-2.18,3.76s-4.47.54-8.93.54a15.11,15.11,0,0,0-1.31-3.49c3.43.16,6.48.11,7.35.05s1.14-.22,1.14-.93v-6.59h-21.4a37.44,37.44,0,0,1,8,6.21l-2.94,2.56c-1.52-2-5-4.74-8-6.54l2.72-2.23h-11.44v-3.21h33V833.7h3.92Zm-32.29-28.86c-.54-1.53-1.58-3.92-2.29-5.83l3.32-1c.82,1.8,1.91,4.08,2.4,5.55Zm22,3.87c.38-.87.71-1.8,1-2.72h-13.94V806h9a19.78,19.78,0,0,0-2.45-4.08l3.27-1a19.51,19.51,0,0,1,2.94,4.9l-.71.22h8.77a53.55,53.55,0,0,0,2.83-5l3.81.82c-.93,1.42-1.91,2.89-2.83,4.14h9v2.94h-15.79c-.49,1-1,1.91-1.47,2.72h13.07v16.17h-25.92V811.64Zm12.69,2.18h-18.19v2.5h18.19Zm0,4.63h-18.19V821h18.19Zm0,4.63h-18.19v2.56h18.19Z"/><path class="cls-15" d="M2569.19,843.39c-8.71,1.63-17.92,3.27-24.34,4.41l-.65-4.14c2.94-.44,6.7-1,10.78-1.69v-8.82h-9.37v-3.7H2555V823.3h4v6.15h9v3.7h-9v8.17c3.27-.54,6.64-1.14,10-1.69Zm-4-20.42c-.33-.76-.76-1.63-1.25-2.56-14.59,1.31-16.5,1.58-17.7,2.12a37.87,37.87,0,0,0-1.25-3.76c.76-.16,1.58-1,2.45-2.34a48.2,48.2,0,0,0,4.68-8.22h-7.24v-3.7H2569v3.7H2556.5a72.19,72.19,0,0,1-5.94,9.91l11.55-.93c-1-1.69-2.12-3.49-3.16-5l3-1.53a75.82,75.82,0,0,1,6.43,10.46Zm27.23-11.27c-1.47,11.05-4.79,19.71-9.37,26.41a31.89,31.89,0,0,0,10.95,9.48,13.94,13.94,0,0,0-2.78,3.1,34.67,34.67,0,0,1-10.51-9.42,37.35,37.35,0,0,1-12.2,9.64,15.79,15.79,0,0,0-2.67-3.59,32.74,32.74,0,0,0,12.36-9.69,59.67,59.67,0,0,1-5.07-10.78c-.76,1.47-1.52,2.94-2.34,4.25a21.85,21.85,0,0,0-2.45-3.7,32.46,32.46,0,0,0,3-5.83c-1-3.27-1.8-6.75-2.56-10.4l3.16-.6c.38,2,.82,3.81,1.31,5.66a103.23,103.23,0,0,0,3.16-15l3.81.65c-.54,3.1-1.14,6.21-1.8,9.2h10.84l.65-.16Zm-15,3.16a75.84,75.84,0,0,1-2.4,7.52,62.87,62.87,0,0,0,5.5,12.09,54,54,0,0,0,7.46-19.61Z"/><path class="cls-15" d="M2646.57,809.3v11.16h-3.92v-7.68h-37.79v7.68H2601V809.3h8.66a46.83,46.83,0,0,0-4.14-6.15l3.49-1.47a36.08,36.08,0,0,1,4.79,6.7l-2,.93h9.64V801h4v8.33h9.15l-1.52-.6a48,48,0,0,0,4.85-7.24l4.08,1.42a71,71,0,0,1-5,6.43Zm-41.88,21.95h38.56v19.44h-4v-1.42h-30.66v1.53h-3.92Zm3.92,3.1v4.36h13.07v-4.36Zm13.07,11.76v-4.47h-13.07v4.47Zm16.23-29.35v11.33H2609.7V816.76Zm-4,3h-20.48V825h20.48Zm5.34,14.54h-13.72v4.36h13.72Zm0,11.76v-4.47h-13.72v4.47Z"/><path class="cls-15" d="M2702.55,835.28h-5.61v9.64h-4v-2.45h-13.07v3.76c0,2.51-.76,3.43-2.4,4s-4.52.65-9,.65a13.42,13.42,0,0,0-1.42-3.43c3.27.11,6.54.05,7.46.05s1.36-.38,1.36-1.31v-3.76h-17.59v-3.1h17.59v-4.08h-22.27v-3.21h22.27v-3.81h-17.1v-3h17.1v-3.81h-15.58v-9.58h15.58V808.7h-21.24v-3.32h21.24V801h4v4.36h21.67v3.32h-21.67v3.16h16.23v9.58h-16.23v3.81h17.1v6.81h5.61Zm-26.74-16.67v-3.92H2664.1v3.92Zm4-3.92v3.92H2692v-3.92Zm0,17.37h13.07v-3.81h-13.07Zm13.07,3.21h-13.07v4.08h13.07Z"/><path class="cls-15" d="M2734.61,801.19c-.05,2-.11,4.68-.38,7.9.82,6.48,4.08,29.24,23.31,37.79a12.36,12.36,0,0,0-2.94,3.43c-13.61-6.37-19.44-19.82-22.06-30-2.5,10.89-8.28,23.09-21.57,30.17a13,13,0,0,0-3.27-3.16c22.6-11.44,22.27-37.9,22.44-46.18Z"/><path class="cls-15" d="M2482.29,878.73a44.31,44.31,0,0,1-8.28,14c1.69,11.55,4.25,19.22,6.59,19.22.87,0,1.42-2.83,1.69-9.09a9.38,9.38,0,0,0,3,2.12c-.6,8.33-1.8,10.89-5.23,10.89-4.41,0-7.52-8-9.48-19.71a39.77,39.77,0,0,1-5.06,4,23.52,23.52,0,0,0-2.89-2.78l.38-.22h-16.77V884.66h17.43v12.09a37.32,37.32,0,0,0,6.32-5.06c-.65-5.17-1.14-10.67-1.42-16.5h-24.83v3.54h22.44v2.94h-22.44v1.63c0,9.15-.76,23.2-5.5,32.84a13.93,13.93,0,0,0-3.21-2.18c4.52-9.2,5-22,5-30.66V871.81h28.48c-.11-1.8-.11-3.65-.16-5.5h4c0,1.85,0,3.7.05,5.5h6.43c-1.53-1.09-4.08-2.72-6.1-3.87l2.34-1.85a55.48,55.48,0,0,1,6.43,3.81l-2.18,1.91h5.12v3.38h-11.93c.16,4.41.49,8.6.93,12.47a39.35,39.35,0,0,0,5.23-9.8ZM2442,913.09c.93-2.94,2.12-7.68,2.72-10.67l2.72,1c-.65,3-1.63,7.79-2.45,10.84Zm19.06-.49c1.63,0,2-.76,2.12-6.26a8,8,0,0,0,2.94,1.31c-.33,6.43-1.31,7.9-4.68,7.9h-7.13c-4,0-5.12-.93-5.12-4.41V902h3.38v9.09c0,1.25.33,1.47,2.12,1.47Zm-.71-24.94h-10.67v6.48h10.67Zm-2.18,19.82c-1-2.07-3-5.5-4.68-8l2.67-1.25c1.69,2.45,3.81,5.77,4.85,7.73Zm9.15-5.94a105.77,105.77,0,0,1,5.34,10.4l-3,1.36a110.38,110.38,0,0,0-5.17-10.67Z"/><path class="cls-15" d="M2507.33,906.72c3.7-.71,7.57-1.42,11.33-2.12l.27,3.54c-9.64,1.85-19.93,3.81-27.07,5.23l-.87-3.81c3.32-.54,7.73-1.36,12.47-2.18v-9.15h-10.62v-3.59h10.62v-5.88h3.87v5.88h10.84v3.59h-10.84Zm-15.9-36.81h27.83v3.59h-14.7a72.74,72.74,0,0,1-6.26,10.13l13.89-1.2c-1.31-1.91-2.72-3.76-4-5.39l2.89-1.74a76.22,76.22,0,0,1,8.22,11.65l-3.1,2a29,29,0,0,0-1.91-3.38c-16.94,1.63-18.9,1.85-20.2,2.45a27.06,27.06,0,0,0-1.36-3.81c.87-.16,1.69-1.09,2.61-2.4a51.32,51.32,0,0,0,4.74-8.33h-8.6Zm34.64,33.87h-3.81V871h3.81Zm10.84-36.54v42.48c0,2.56-.6,3.81-2.23,4.41s-4.58.76-8.5.76a15.41,15.41,0,0,0-1.47-4c3.16.11,6.15.11,7.08.05s1.14-.27,1.14-1.2V867.24Z"/><path class="cls-15" d="M2585.75,911.51c3.7,0,4.41-.76,4.85-4.19a15.16,15.16,0,0,0,3.54,1.25c-.65,5-2.07,6.37-8.22,6.37h-20.42c-8.06,0-10.35-1.31-10.35-6.86V894.74c-1.09,7.41-3.32,14.76-8.17,21.24a14.67,14.67,0,0,0-3-2.5c7.41-9.8,8.33-21.89,8.39-32.29H2545v-3.76h7.35V866.31H2556v11.11h7.08v3.76H2556c0,1.14,0,2.23-.05,3.43h2.89v23.47c0,2.72.93,3.43,6.43,3.43Zm-20.2-18.41h25.05v10.67h3.27v3h-31.75v-3h3.43Zm13.78-2.78H2563.8V868.22h15V871h-5.28v3.32h4.3v6.48c2.34-3.49,3.7-8.5,4.52-13.72l3.27.6c-.33,2.07-.76,4.14-1.25,6h9.09v3.43H2583.3a24.85,24.85,0,0,1-2.72,5.66,17.94,17.94,0,0,0-2.72-1.58v2.45h-4.3v3.7h5.77ZM2566.8,871v3.32h3.87V871Zm8.11,6h-8.11v4h8.11Zm-8.11,10.4h3.87v-3.7h-3.87Zm2,8.66v7.68h4.19V896.1Zm7.08,0v7.68h4.25V896.1Zm16.88-7.46h-12v-3.38h12ZM2583,896.1v7.68h4.3V896.1Z"/><path class="cls-15" d="M2640.42,911.4c3.32,0,4-.76,4.36-4.25a14,14,0,0,0,3.65,1.36c-.6,5-2,6.48-7.84,6.48h-18.41c-7.52,0-9.69-1.42-9.69-7.13V880.2h-3.27c-.49,13.83-2.07,27.28-7.51,35.94a13.61,13.61,0,0,0-3.43-2.89c5.06-7.62,6.53-20.2,7-33.06h-5.94v-3.76h6c.05-3.43.11-6.75.11-10.08h4c0,3.32-.05,6.7-.11,10.08h11.76v3.76h-4.74v27.67c0,2.83.82,3.54,5.77,3.54Zm-3.7-43.95a19,19,0,0,1-.93,2.45c2.72,5.12,7.57,10.46,12.42,12.8a15.69,15.69,0,0,0-2.78,3.21c-4.3-2.45-8.5-7.3-11.38-12.42a35.34,35.34,0,0,1-11.65,13,11.86,11.86,0,0,0-2.61-3.1,31.75,31.75,0,0,0,13.4-17Zm-11.11,17.7h3.81v7.24c0,5.77-.82,12-6.92,16.56a11.17,11.17,0,0,0-2.67-2.89c5.12-3.87,5.77-9,5.77-13.72Zm12-.05h3.81v22.71h-3.81Z"/><path class="cls-15" d="M2678.58,907.21c-8.33,1.8-17.21,3.7-23.53,5.12l-.76-4.08c5.88-1.14,15.14-3,24-4.85Zm20.8-23.36a63.35,63.35,0,0,1-9.64,19.06c2,5.61,4.47,9,7.13,9,1.53,0,2.18-2.83,2.51-10.08a9.64,9.64,0,0,0,3.54,2.29c-.71,9.31-2.23,12-6.43,12s-7.35-3.54-9.8-9.42a50,50,0,0,1-11.49,9.37,24.35,24.35,0,0,0-3.16-3.1,43,43,0,0,0,13.07-10.67c-1.91-6.37-3.1-14.43-3.81-23.25h-26.74v-4h26.52c-.16-2.83-.22-5.66-.27-8.55h4.25c0,2.94.05,5.77.16,8.55h16.34v4H2685.5a112.77,112.77,0,0,0,2.83,19,58.58,58.58,0,0,0,7-15.14Zm-22.87-.05v16.45h-18.79V883.79Zm-4,3.54h-11.05v9.42h11.05Zm25-12.36a40.14,40.14,0,0,0-9.2-5.94l2.34-2.5a41.76,41.76,0,0,1,9.37,5.61Z"/><path class="cls-15" d="M2716.81,882.92v2c0,9-.71,22.27-5.77,31.15a15.72,15.72,0,0,0-3.65-2c5-8.5,5.39-20.53,5.39-29.14V869.14h40.41v13.78Zm0-10.18v6.59h32.35v-6.59Zm37.47,28.43V916h-4V914h-30.17V901.22H2724v9.2h10.84V898.28h-12.8V886h3.7v8.82h9.09V884h4v10.89h9.69V886h3.87v12.25h-13.56v12.14h11.44v-9.26Z"/><path class="cls-15" d="M2770.88,884.45c-.87,4.74-2.56,9.69-5.88,13.67a11,11,0,0,0-3.21-2.23c5.23-6,6-14.27,6-20.15V869h40.9v3.16h-37.09v3.16h33.49v2.89h-33.55c-.05,1-.11,2.07-.22,3.21h39.32v3h-21.89c2.72,1.25,5.66,2.78,8.5,4.25a71.36,71.36,0,0,0,7.79-3.59l2.94,1.8a55.2,55.2,0,0,1-8,3.38,64.35,64.35,0,0,1,7.41,4.63l-2.18,2.72c-4.25-3.27-12.8-8.11-19.5-11.33l1.58-1.85h-7.13v8.33l9.26-1.2a17.73,17.73,0,0,0,.22,3.1c-11.44,1.74-13.12,2.07-14.16,2.61a10.46,10.46,0,0,0-1.31-3.1,2.94,2.94,0,0,0,2.29-3v-6.7Zm40.57,18.79H2800v8.11c0,2.23-.49,3.32-2.29,3.92s-4.68.6-9.42.6a14,14,0,0,0-1.31-3.65c3.65.11,7,.11,7.84.05s1.2-.27,1.2-1v-8.06h-33.6V899.8H2796v-4.36h4v4.36h11.49Zm-37.69.11a39.75,39.75,0,0,1,9.42,6.86l-3,2.61a42.54,42.54,0,0,0-9.26-7.13Z"/><g class="cls-53"><polygon class="cls-54" points="805.04 397.25 785.53 397.25 806.17 417.9 752.93 417.9 752.93 430.78 806.17 430.78 785.53 451.43 805.04 451.43 832.13 424.34 805.04 397.25"/><rect class="cls-54" x="721.63" y="417.9" width="20.31" height="12.89"/><rect class="cls-54" x="698.97" y="417.9" width="10.7" height="12.89"/></g><g class="cls-53"><polygon class="cls-54" points="1543.15 397.25 1523.64 397.25 1544.29 417.9 1491.04 417.9 1491.04 430.78 1544.29 430.78 1523.64 451.43 1543.15 451.43 1570.24 424.34 1543.15 397.25"/><rect class="cls-54" x="1459.74" y="417.9" width="20.31" height="12.89"/><rect class="cls-54" x="1437.09" y="417.9" width="10.7" height="12.89"/></g><g class="cls-53"><polygon class="cls-54" points="2281.26 397.25 2261.75 397.25 2282.4 417.9 2229.15 417.9 2229.15 430.78 2282.4 430.78 2261.75 451.43 2281.26 451.43 2308.35 424.34 2281.26 397.25"/><rect class="cls-54" x="2197.85" y="417.9" width="20.31" height="12.89"/><rect class="cls-54" x="2175.2" y="417.9" width="10.7" height="12.89"/></g></g></g></svg>