<svg id="圖層_1" data-name="圖層 1" xmlns="http://www.w3.org/2000/svg" xmlns:xlink="http://www.w3.org/1999/xlink" viewBox="0 0 3061.42 1484.04"><defs><style>.cls-1,.cls-5,.cls-6{fill:none;}.cls-2{fill:#dcdddd;}.cls-3{fill:#fff;}.cls-4{clip-path:url(#clip-path);}.cls-5,.cls-6{stroke:#dcdddd;stroke-miterlimit:10;}.cls-5{stroke-width:5.27px;}.cls-6{stroke-width:5px;}</style><clipPath id="clip-path"><rect class="cls-1" x="134.22" y="632.07" width="229.71" height="229.71"/></clipPath></defs><title>chat2</title><path class="cls-2" d="M641.15,401c-8.59,3.92-18,8-24.83,11l-1.68-4.79c2.43-.93,5.35-2.12,8.59-3.49l-1.06-38.46,4.73-.19.93,36.71c4-1.68,8.15-3.48,12.26-5.23Zm27.38,17.55c-2.86-4.29-8.65-10.83-13.94-16.43-4.85,7.34-11.64,12.76-21.34,16.8a26.72,26.72,0,0,0-3.67-4c21.34-7.84,27.94-22.9,30.68-49.78l5,.5c-1.49,13.32-3.86,23.89-8.21,32.23,5.54,5.6,12.13,12.51,15.31,17.11Zm-24-31.67A61.12,61.12,0,0,0,635,371.66l4.11-2.05a58.9,58.9,0,0,1,9.83,14.87Z"/><path class="cls-2" d="M723.78,377.39a65.67,65.67,0,0,1-14.56,24.08,61.12,61.12,0,0,0,25.14,12.63,21.3,21.3,0,0,0-3.17,4.29,62.9,62.9,0,0,1-25.51-13.63c-7,6.1-15.56,10.58-25.89,13.88a25.82,25.82,0,0,0-2.86-4.29c10.27-2.92,18.6-7.16,25.39-12.88a70.11,70.11,0,0,1-14.93-24.08H677.8v-4.54h55.75v4.54Zm-31.61,0a62.88,62.88,0,0,0,13.56,20.85,57.09,57.09,0,0,0,12.82-20.85Zm13.19-4.67a48.49,48.49,0,0,0-4.6-9.77l4.79-1.37a51.07,51.07,0,0,1,4.85,9.52Z"/><path class="cls-2" d="M794.29,399.67H770.14V413c0,2.74-.68,4.11-2.86,4.79s-5.41.81-10.58.81a18.8,18.8,0,0,0-2.12-4.54c4.23.13,8.21.13,9.27.06s1.49-.31,1.49-1.18V399.67H741.08v-4.42h24.27v-3.86a51.59,51.59,0,0,0,10.83-7.28H751.29v-4.36h29.56l1-.25,3.17,2.43a64.13,64.13,0,0,1-14.87,11v2.3h24.14Zm-47.91-18.54h-4.54V368.43h24.52a37.2,37.2,0,0,0-3.24-5.48l4.42-1.49a34.39,34.39,0,0,1,4.17,7h22v12.69h-4.73v-8.28H746.37Z"/><path class="cls-2" d="M811.15,370.42a38.94,38.94,0,0,1-6.16,7.4,22.79,22.79,0,0,0-3.3-3,36.37,36.37,0,0,0,9.58-13.25l4.11,1.12c-.56,1.24-1.12,2.49-1.74,3.73h16v4H818a68.08,68.08,0,0,1,6,5.6l-3,2.74a48.87,48.87,0,0,0-6.47-6.53l2.24-1.8Zm33.73,29.06h12.38v3.92H844.88v10.52c0,2.68-.68,3.73-2.74,4.29s-5.66.62-11.08.62a13.65,13.65,0,0,0-1.24-3.92c4.17.19,8,.19,9,.12s1.37-.37,1.37-1.24V403.4H802.69v-3.92h37.52v-4.36h4.67Zm13.5-33v4H844.69a51.31,51.31,0,0,1,5.79,6.1l-3.17,2.68a42.5,42.5,0,0,0-5.91-6.66l2.74-2.12H838a42.48,42.48,0,0,1-5.23,7.47l-.56-.5v2.92H855v4H832.25V390h19.29v3.73H808.1V390h19.48v-5.54H805v-4h22.59v-3.86h3.48a21.24,21.24,0,0,0-1.8-1.31A32.42,32.42,0,0,0,837,361.52l4.29,1a29.61,29.61,0,0,1-1.43,3.92ZM816.26,404a102.94,102.94,0,0,1,10.58,9.21l-3.42,2.74A102.92,102.92,0,0,0,813,406.39Z"/><path class="cls-2" d="M888.63,400.79c-8.52,2.43-17.55,5-24.14,6.84l-1.18-4.73c2.74-.62,6.16-1.49,10-2.49V374.15h-9.08v-4.42h23.27v4.42H877.8v25.14l10.39-2.68Zm26.69-22.9c-2.12,10.45-5.23,18.61-10,25.08a35.42,35.42,0,0,0,15.87,11.76,17.12,17.12,0,0,0-3.24,4,38.52,38.52,0,0,1-15.74-12.07c-4.92,5.23-11.26,9.21-19.48,12.2a23.61,23.61,0,0,0-2.55-4.29c8.28-2.68,14.56-6.53,19.29-11.76a70.27,70.27,0,0,1-8-19.1,41.53,41.53,0,0,1-5,8c-.87-.62-2.86-2.05-4-2.68,5.66-6.47,9.89-16.68,12.38-27.13l4.6.87c-1,3.61-2.05,7.22-3.36,10.64h24.39v4.48Zm-20.78,0a67.62,67.62,0,0,0,8,21c3.8-5.54,6.35-12.51,7.9-21Z"/><path class="cls-2" d="M956.7,406.45H983v3.3H956.7v4.48c0,2.43-.62,3.36-2.49,4s-5.1.62-10.08.56a21.58,21.58,0,0,0-1.49-3.55c3.61.13,7.22.13,8.21.06s1.31-.31,1.31-1.18v-4.36H926v-3.3h26.2v-3.24h-21V400h21v-3.17c-7.53.25-15.31.31-22.4.19a9.54,9.54,0,0,0-.68-2.92c15.74.25,35.53-.37,45.49-1.93l3.24,2.55c-5.66.87-13.13,1.49-21.09,1.87V400h20v3.17h-20Zm-18-21.22H926.46v-2.68h12.26v-2h-9.27v-10.7h9.27v-2.12H927.46V365h11.26v-3h3.73v3h11.64v2.74H942.45v2.12h9.65v4.23c5.48-1.87,6.47-4.17,6.47-6.66v-3.55h16v6.41c0,1.37.12,1.74,1,1.74h3.92a10.9,10.9,0,0,0,2.86-.25,29.89,29.89,0,0,0,.37,3.48,9.4,9.4,0,0,1-3.17.31h-4.42c-3.8,0-4.6-1.49-4.6-5.35v-2.92h-8v.31c0,3.48-1.56,7.16-8.09,9.58a9.74,9.74,0,0,0-2.3-2.55v5.91h-9.65v2h12v2.68h-12v4h6.16V386h3.55v6H929.51v-6h3.42v3.3h5.79Zm-6-11.2h6V372h-6Zm6,4.42v-2.24h-6v2.24Zm3.73-6.47V374h6.28V372Zm6.28,4.23h-6.28v2.24h6.28Zm29.43,1.62a20.59,20.59,0,0,1-7.47,9.08,47.56,47.56,0,0,0,12.63,3,12.63,12.63,0,0,0-2.36,3.36A47.33,47.33,0,0,1,967.16,389a46.36,46.36,0,0,1-12.57,3.86,10.45,10.45,0,0,0-1.8-3.11,48.65,48.65,0,0,0,11-2.8,24,24,0,0,1-5.72-5.79l2.68-.87H957v-3.17h18.17L976,377Zm-16.55,2.49a16.82,16.82,0,0,0,5.66,4.85,17.53,17.53,0,0,0,5.54-4.85Z"/><path class="cls-2" d="M1004.18,363.51c-1.31,4-2.8,8.21-4.54,12.2v43.06h-4.42V384.42A62.65,62.65,0,0,1,990,392.2a33.45,33.45,0,0,0-2.43-4.67c5-6.22,9.65-15.74,12.38-25.26Zm9.08,9.64a57.7,57.7,0,0,1-6.72,10.39,23.21,23.21,0,0,0-3.92-2.49c4.42-4.73,8.28-11.95,10.52-19.17l4.42,1.12c-.68,2-1.49,4-2.36,5.91h28v4.23Zm26.88,22.9c-.25,3.86-.5,7-.75,9.58h4.17v4.11h-4.67c-.56,3.42-1.24,5.29-2.12,6.35a5.42,5.42,0,0,1-4.29,2.18,68.33,68.33,0,0,1-7.9-.06,9.47,9.47,0,0,0-1.18-4c3.24.31,6.1.31,7.28.31a2.21,2.21,0,0,0,2.3-.93c.56-.56,1-1.8,1.43-3.86h-27.57c.75-3.67,1.56-8.59,2.24-13.69h-5.72v-4.23h6.35c.56-4.42,1.12-8.84,1.49-12.69H1041s-.06,1.62-.06,2.18c-.19,3.92-.31,7.4-.5,10.52h4.92v4.23Zm-5.17,9.58c.31-2.49.56-5.66.87-9.58h-22.46c-.44,3.42-.93,6.72-1.37,9.58Zm-19.85-22.46c-.37,2.8-.75,5.72-1.12,8.65h13.07a30,30,0,0,0-6.84-7l2.43-1.68Zm6.16,12.94a33.5,33.5,0,0,1,7.59,7.53l-2.92,2a36.47,36.47,0,0,0-7.34-7.72Zm1.74-12.94a29.47,29.47,0,0,1,6.84,6.78l-2.68,1.87h8.9c.12-2.61.25-5.41.37-8.65Z"/><path class="cls-2" d="M1060.62,382.62c-1,5.41-2.92,11.08-6.72,15.62a12.54,12.54,0,0,0-3.67-2.55c6-6.91,6.84-16.3,6.84-23v-7.72h46.73v3.61h-42.38v3.61h38.27v3.3h-38.33c-.06,1.18-.12,2.36-.25,3.67H1106v3.48h-25c3.11,1.43,6.47,3.17,9.71,4.85a81.55,81.55,0,0,0,8.9-4.11l3.36,2.05a63.11,63.11,0,0,1-9.15,3.86,73.42,73.42,0,0,1,8.46,5.29l-2.49,3.11c-4.85-3.73-14.62-9.27-22.28-12.94l1.8-2.12h-8.15v9.52l10.58-1.37a20.18,20.18,0,0,0,.25,3.55c-13.07,2-15,2.36-16.18,3a11.93,11.93,0,0,0-1.49-3.55,3.36,3.36,0,0,0,2.61-3.48v-7.65ZM1107,404.08h-13.13v9.27c0,2.55-.56,3.8-2.61,4.48s-5.35.68-10.76.68a16,16,0,0,0-1.49-4.17c4.17.13,8,.13,9,.06s1.37-.31,1.37-1.12v-9.21h-38.39v-3.92h38.39v-5h4.54v5H1107Zm-43.06.12c3.86,2.05,8.52,5.35,10.77,7.84l-3.42,3a48.63,48.63,0,0,0-10.58-8.15Z"/><path class="cls-2" d="M1143.64,362.14c-.06,2.24-.12,5.35-.44,9,.93,7.4,4.67,33.41,26.63,43.18a14.11,14.11,0,0,0-3.36,3.92c-15.56-7.28-22.21-22.65-25.2-34.22-2.86,12.45-9.46,26.38-24.64,34.47a14.78,14.78,0,0,0-3.73-3.61c25.82-13.07,25.45-43.31,25.64-52.77Z"/><path class="cls-2" d="M1523.54,365.32c-4.48,10.21-11.33,20.1-18.23,26.45a34.65,34.65,0,0,0-4.11-3.73c7-5.79,13.44-14.87,17.3-24.27ZM1541,394.87A193.16,193.16,0,0,1,1555,415.78l-4.61,2.55c-.87-1.74-2.05-3.73-3.36-6-32.23,2.24-35.66,2.43-38.08,3.3a28.69,28.69,0,0,0-1.8-4.92c1.68-.37,3.48-2.43,5.85-5.35a138.75,138.75,0,0,0,15.68-24.52l5.17,2.18a163.28,163.28,0,0,1-18.23,26.69l28.75-1.62c-2.43-3.86-5.23-7.9-7.72-11.2Zm1.31-31.36c3,9.83,9.21,19.17,16.49,24a24.42,24.42,0,0,0-3.61,4.29c-7-5.23-13-14.19-16.37-23.58h-11.57v-4.67Z"/><path class="cls-2" d="M1563.68,417a52.48,52.48,0,0,0,8.09-11.88l4.29,1.12a70.45,70.45,0,0,1-8.15,12.57Zm29.37-48.6c-3.67,18.23-13.32,29-25.2,34.47a17.14,17.14,0,0,0-3.17-3.55,37.75,37.75,0,0,0,18.17-15.62,61.18,61.18,0,0,0-8.77-7.78,46.14,46.14,0,0,1-8.21,9.4,28.37,28.37,0,0,0-2-3.86c5.79-5,10.52-13.19,12.76-20.1l4.36,1.31c-.62,1.56-1.31,3.17-2.05,4.73h10.52l.81-.19Zm-14.87,19.1c-4.29,1.43-8.4,2.67-12.13,3.86l-1.18-3.67c3.36-.68,8-1.93,12.82-3.17Zm-1.18-16.3c-.37.62-.75,1.25-1.06,1.87a74.36,74.36,0,0,1,8.77,7.22,57.41,57.41,0,0,0,3.24-9.08Zm9.71,35.22a66.4,66.4,0,0,1,1.49,11.14l-4.48.62a73.74,73.74,0,0,0-1.31-11.33Zm29.62-3.55c-2.05-5.17-6.6-13.25-11.2-20.1-1.93,7.22-6.22,14.75-15.43,20.91a18.66,18.66,0,0,0-3.48-3c9.58-6.41,13.56-14.19,15.12-21.22h-9.21v-4.42H1602a45.61,45.61,0,0,0,.31-5.66v-6.78h4.42v6.78c0,1.8-.06,3.73-.25,5.66h13.32v4.42h-11.89c4.92,7,10.21,15.74,12.51,21.34Zm-16.92,3a56.09,56.09,0,0,1,4,11.26l-4.48.93a66.21,66.21,0,0,0-3.67-11.39Zm12.57-1.24a79.13,79.13,0,0,1,8.46,12.2l-4.36,2a69.79,69.79,0,0,0-8.09-12.45Zm3-31.05a43.47,43.47,0,0,0-6.6-8.4l3.36-2a43.16,43.16,0,0,1,6.78,8.28Z"/><path class="cls-2" d="M1641.78,363.51c-1.31,4-2.8,8.21-4.54,12.2v43.06h-4.42V384.42a62.65,62.65,0,0,1-5.23,7.78,33.4,33.4,0,0,0-2.43-4.67c5-6.22,9.65-15.74,12.38-25.26Zm9.08,9.64a57.7,57.7,0,0,1-6.72,10.39,23.19,23.19,0,0,0-3.92-2.49c4.42-4.73,8.28-11.95,10.52-19.17l4.42,1.12c-.68,2-1.49,4-2.37,5.91h28v4.23Zm26.88,22.9c-.25,3.86-.5,7-.75,9.58h4.17v4.11h-4.67c-.56,3.42-1.24,5.29-2.12,6.35a5.42,5.42,0,0,1-4.29,2.18,68.32,68.32,0,0,1-7.9-.06,9.48,9.48,0,0,0-1.18-4c3.24.31,6.1.31,7.28.31a2.21,2.21,0,0,0,2.3-.93c.56-.56,1-1.8,1.43-3.86h-27.57c.75-3.67,1.56-8.59,2.24-13.69H1641v-4.23h6.35c.56-4.42,1.12-8.84,1.49-12.69h29.74s-.06,1.62-.06,2.18c-.19,3.92-.31,7.4-.5,10.52h4.92v4.23Zm-5.17,9.58c.31-2.49.56-5.66.87-9.58H1651c-.44,3.42-.93,6.72-1.37,9.58Zm-19.85-22.46c-.37,2.8-.75,5.72-1.12,8.65h13.07a30,30,0,0,0-6.84-7l2.43-1.68Zm6.16,12.94a33.51,33.51,0,0,1,7.59,7.53l-2.92,2a36.49,36.49,0,0,0-7.34-7.72Zm1.74-12.94a29.47,29.47,0,0,1,6.84,6.78l-2.68,1.87h8.9c.12-2.61.25-5.41.37-8.65Z"/><path class="cls-2" d="M1698.22,382.62c-1,5.41-2.92,11.08-6.72,15.62a12.54,12.54,0,0,0-3.67-2.55c6-6.91,6.84-16.3,6.84-23v-7.72h46.73v3.61H1699v3.61h38.27v3.3H1699c-.06,1.18-.12,2.36-.25,3.67h44.93v3.48h-25c3.11,1.43,6.47,3.17,9.71,4.85a81.56,81.56,0,0,0,8.9-4.11l3.36,2.05a63.14,63.14,0,0,1-9.15,3.86,73.43,73.43,0,0,1,8.46,5.29l-2.49,3.11c-4.85-3.73-14.62-9.27-22.28-12.94l1.8-2.12h-8.15v9.52l10.58-1.37a20.14,20.14,0,0,0,.25,3.55c-13.07,2-15,2.36-16.18,3a11.92,11.92,0,0,0-1.49-3.55,3.36,3.36,0,0,0,2.61-3.48v-7.65Zm46.36,21.47h-13.13v9.27c0,2.55-.56,3.8-2.61,4.48s-5.35.68-10.76.68a16,16,0,0,0-1.49-4.17c4.17.13,8,.13,9,.06s1.37-.31,1.37-1.12v-9.21h-38.39v-3.92h38.39v-5h4.54v5h13.13Zm-43.06.12c3.86,2.05,8.53,5.35,10.77,7.84l-3.42,3a48.62,48.62,0,0,0-10.58-8.15Z"/><path class="cls-2" d="M1770.09,381.18h4.42v16.93c0,9.27-2.43,16.3-16.92,20.66a16.42,16.42,0,0,0-2.86-3.42c7.53-2.18,11.45-5,13.44-8.46-6.1,1-12.07,1.93-16.86,2.68l-.5-4.17c4.85-.56,11.76-1.49,18.85-2.43a22.41,22.41,0,0,0,.44-4.67h-15.62v-3.86h15.62v-4.67h-17v-4h17Zm33.85-1.37H1754.1V364.45h49.84ZM1769,368.3h-10.45V376H1769Zm15.06,0h-10.83V376h10.83Zm22.77,40.07h-19.23v10.14H1783v-37.4h4.6v4.67h17.92v4h-17.92v4.67h16.49v4h-16.49v5.66h19.23Zm-7.47-40.07h-11V376h11Z"/><path class="cls-2" d="M2241.47,393.19l-7,2.36V413c0,2.61-.62,3.86-2.18,4.61s-3.8.93-7.78.93a21.59,21.59,0,0,0-1.37-4.48c2.61.06,5.1.06,5.79.06s1.12-.25,1.12-1.18v-16c-2.55.87-5,1.68-7.22,2.3l-1.18-4.42c2.3-.68,5.23-1.56,8.4-2.43V378.51h-7.59v-4.29H2230V362h4.42v12.26h6.72v4.29h-6.72V391l6.41-2Zm35.78-21.09v2.37c-.93,28.69-1.68,38.46-4.11,41.5a6,6,0,0,1-4.73,2.55,72.52,72.52,0,0,1-9-.06,11.08,11.08,0,0,0-1.49-4.67c3.8.31,7.22.31,8.59.31a2.43,2.43,0,0,0,2.49-1c2-2.12,2.86-11.45,3.61-36.78h-22.84a55.17,55.17,0,0,1-6.72,10.14,21.9,21.9,0,0,0-3.67-2.8c4.92-5.29,9-13.38,11.51-21.72l4.42,1a88.53,88.53,0,0,1-3.49,9.08h22.46v.06Zm-27.13,32.17v4.23H2246V383.74h18.85v20.53Zm0-16.49v12.45h10.45V387.78Z"/><path class="cls-2" d="M2302.64,377.26a68,68,0,0,1-5.1,7.9v33.54h-4.48V390.58a71.36,71.36,0,0,1-6.66,6.47,34.24,34.24,0,0,0-2.55-4.54,55.62,55.62,0,0,0,14.69-16.8Zm-.75-13.57a58,58,0,0,1-14.56,14.87,32,32,0,0,0-2.43-3.73c4.67-3.17,10-8.4,12.51-12.76Zm35,26.7a39.35,39.35,0,0,1-12.88,18,51.64,51.64,0,0,0,17.24,6.41,21.43,21.43,0,0,0-3,4.29,51.89,51.89,0,0,1-18.29-7.84,62.43,62.43,0,0,1-18.79,7.59,18.11,18.11,0,0,0-2.37-4.17,57.85,57.85,0,0,0,17.42-6.35,43.94,43.94,0,0,1-10.77-14.5l.75-.25h-3.36v-4.36H2333l.87-.19ZM2314,371.73c0,5.79-1.93,12.45-10.89,16.61a19.57,19.57,0,0,0-3-3.36c8.09-3.73,9.46-8.77,9.46-13.38v-7.47h21v14.31c0,1.8.25,2.43,1.31,2.43h5.41a19.14,19.14,0,0,0,3.3-.31c.12,1.18.25,2.92.44,4a15.83,15.83,0,0,1-3.67.31h-5.72c-4.54,0-5.6-1.74-5.6-6.47v-9.89H2314Zm-3.92,21.84a36.76,36.76,0,0,0,10,12.13,33.82,33.82,0,0,0,10.45-12.13Z"/><path class="cls-2" d="M2375.88,408.63c-9.52,2.05-19.66,4.23-26.88,5.85l-.87-4.67c6.72-1.31,17.3-3.42,27.38-5.54Zm23.77-26.69a72.38,72.38,0,0,1-11,21.78c2.3,6.41,5.1,10.27,8.15,10.27,1.74,0,2.49-3.24,2.86-11.51a11,11,0,0,0,4,2.61c-.81,10.64-2.55,13.69-7.34,13.69s-8.4-4-11.2-10.76a57.19,57.19,0,0,1-13.13,10.7,27.87,27.87,0,0,0-3.61-3.55,49.12,49.12,0,0,0,14.93-12.2c-2.18-7.28-3.55-16.49-4.36-26.57h-30.55v-4.54h30.3c-.19-3.24-.25-6.47-.31-9.77h4.85c0,3.36.06,6.6.19,9.77h18.67v4.54h-18.36a128.77,128.77,0,0,0,3.24,21.72,67,67,0,0,0,8-17.3Zm-26.13-.06v18.79h-21.47V381.87Zm-4.54,4h-12.63v10.76H2369Zm28.56-14.12A45.81,45.81,0,0,0,2387,365l2.68-2.86a47.73,47.73,0,0,1,10.7,6.41Z"/><path class="cls-2" d="M2413,406.57a10.29,10.29,0,0,0,7.65,3.49c5.91,0,11-4.85,11.45-19-2.74,3.42-6.66,5.66-10.52,5.66-7.59,0-12.57-4.92-12.57-14.37,0-8.84,6-14.81,13.07-14.81,8.77,0,15.31,7.22,15.31,21.72,0,18.48-8,25.57-16.55,25.57a14.51,14.51,0,0,1-11-4.67Zm19-20.22c-.62-9.4-4.11-14.37-10-14.37-4.36,0-7.72,4.11-7.72,10.33s2.74,10.14,8.15,10.14C2425.61,392.45,2429,390.71,2432.08,386.35Z"/><path class="cls-2" d="M2443.9,391c0-15.87,5.54-23.52,14.25-23.52s14.19,7.72,14.19,23.52-5.54,23.77-14.19,23.77S2443.9,406.88,2443.9,391Zm22.9,0c0-13.32-3.49-18.92-8.65-18.92s-8.71,5.6-8.71,18.92,3.48,19.23,8.71,19.23S2466.8,404.46,2466.8,391Z"/><path class="cls-2" d="M2478.44,391c0-15.87,5.54-23.52,14.25-23.52s14.19,7.72,14.19,23.52-5.54,23.77-14.19,23.77S2478.44,406.88,2478.44,391Zm22.9,0c0-13.32-3.49-18.92-8.65-18.92S2484,377.7,2484,391s3.48,19.23,8.71,19.23S2501.33,404.46,2501.33,391Z"/><path class="cls-2" d="M2513,391c0-15.87,5.54-23.52,14.25-23.52s14.19,7.72,14.19,23.52-5.54,23.77-14.19,23.77S2513,406.88,2513,391Zm22.9,0c0-13.32-3.49-18.92-8.65-18.92s-8.71,5.6-8.71,18.92,3.48,19.23,8.71,19.23S2535.87,404.46,2535.87,391Z"/><path class="cls-2" d="M2596.35,413.23c2.49,0,2.86-1.62,3.17-11.14a14.34,14.34,0,0,0,4.29,2.05c-.5,10.58-1.74,13.5-7.16,13.5h-8.9c-5.54,0-7-1.62-7-6.91V388.59H2569.1c-1.18,13.32-4.17,24.21-18.48,30a12.43,12.43,0,0,0-2.92-3.61c13.25-5,15.56-14.75,16.49-26.38h-15.74v-4.48h54.45v4.48H2585.4v22.09c0,2.12.5,2.55,2.92,2.55Zm1.31-42h-43.81v-4.42h43.81Z"/><path class="cls-2" d="M2635.62,401c-8.59,3.92-18,8-24.83,11l-1.68-4.79c2.43-.93,5.35-2.12,8.59-3.49l-1.06-38.46,4.73-.19.93,36.71c4-1.68,8.15-3.48,12.26-5.23ZM2663,418.52c-2.86-4.29-8.65-10.83-13.94-16.43-4.85,7.34-11.64,12.76-21.34,16.8a26.77,26.77,0,0,0-3.67-4c21.34-7.84,27.94-22.9,30.68-49.78l5,.5c-1.49,13.32-3.86,23.89-8.21,32.23,5.54,5.6,12.13,12.51,15.31,17.11Zm-24-31.67a61.15,61.15,0,0,0-9.58-15.18l4.11-2.05a58.88,58.88,0,0,1,9.83,14.87Z"/><path class="cls-2" d="M2701.27,371.1v11.08l.81-.93c7.41,3.55,17.17,9.15,22.09,12.88l-3.24,4.17c-4.23-3.48-12.57-8.59-19.66-12.38v32.73h-4.92V371.1h-23.77v-4.6h54.95v4.6Z"/><path class="cls-2" d="M2751.93,386.91h12.51v3.24h-29.81v-3.24h14.44a40.38,40.38,0,0,0-5.85-5.35l3.11-2.37a35.46,35.46,0,0,1,7.22,6.35Zm34.54-8.9h-48.54V364.26h48.54Zm-25,38.52h-19v2.12h-4.23V405.45h23.21Zm-22.65-17.17H2761v3H2738.8Zm22.28-3h-22.21v-3.11h22.21Zm-8.71-28.5h-10v6.6h10Zm-9.89,40.63v5h14.62v-5ZM2767,367.81h-10.33v6.6H2767Zm6.22,41.07h-4.29V382.43h4.29Zm8.65-41.07h-10.58v6.6h10.58Zm4.92,12.44v32.92c0,2.8-.68,4.11-2.61,4.79s-5.29.81-10.52.81a20.08,20.08,0,0,0-1.49-4.36c4.11.12,7.78.12,8.77.06s1.49-.31,1.49-1.31V380.25Z"/><path class="cls-2" d="M2826.72,384.73v8.46h21.72v4.23h-21.72v15.18h24.52v4.29h-53.45v-4.29h24.14V397.43h-21.34v-4.23h21.34v-8.46h-13.44v-3.42a74.58,74.58,0,0,1-9.89,4.54,16.86,16.86,0,0,0-3.11-4.23c11.57-3.8,23-11.08,28.94-20.29l4.23,2c-.44.68-1,1.49-1.56,2.24,6.16,6.6,17.11,13.07,26.57,16.05a16.87,16.87,0,0,0-3.24,4,73,73,0,0,1-10-4.79v3.86Zm-17.11,14.06a51.89,51.89,0,0,1,6,11.14l-4,1.68a50.64,50.64,0,0,0-5.72-11.26Zm30.05-18.36a72.38,72.38,0,0,1-15.12-11.7,64,64,0,0,1-14.56,11.7Zm-7.28,29.81a71.3,71.3,0,0,0,6.47-11.45l4.36,1.68a110.73,110.73,0,0,1-7.34,11.26Z"/><path class="cls-2" d="M646.8,796.83H616.62v-4h7.22V785.5h-6.22v-3.92h6.22v-7h4.23v7h8v-7h4.29v7h6.29v3.92h-6.29v7.34h6.41Zm-3.61,29.37c0,2.24-.44,3.36-2,4s-4,.75-7.72.75a15.06,15.06,0,0,0-1.37-3.86c2.68.06,5.1.06,5.79,0s1-.19,1-.93v-7.65c-4.36,1.8-8.71,3.61-12.38,5.1l-1.68-3.8c3.61-1.06,8.77-2.86,14.06-4.67v-11H625.27v8.34c0,5.91-.68,13.63-4.73,19a16.88,16.88,0,0,0-3.42-2.55c3.61-4.85,4-11.33,4-16.43V800.68h22.09Zm-15.06-19.91a69.14,69.14,0,0,1,9.4,5.16l-2.12,3a74.4,74.4,0,0,0-9.27-5.54Zm-.06-13.44h8V785.5h-8Zm41.38-2.92c-1.37,10.14-3.55,18.54-7.16,25.39,3,5.17,6.84,9.27,11.7,11.82a14.1,14.1,0,0,0-3.11,3.79,31.73,31.73,0,0,1-11-11.39A39.44,39.44,0,0,1,647.8,831a17,17,0,0,0-2.61-3.73,33.1,33.1,0,0,0,12.32-12A84.19,84.19,0,0,1,651.59,797a44.7,44.7,0,0,1-4.11,8.09,32.08,32.08,0,0,0-3.11-3.61c4.42-6.6,7.09-16.93,8.65-27.38l4.36.68c-.56,3.67-1.31,7.34-2.18,10.83h18.23v4.36Zm-9.52,20.78c2.61-5.79,4.17-12.69,5.23-20.78H654C655.33,797.57,657.13,804.67,659.93,810.7Z"/><path class="cls-2" d="M697,775.61A91.63,91.63,0,0,1,690.61,789v41.69h-4.36V795.83a60.71,60.71,0,0,1-6.28,7.65,25.37,25.37,0,0,0-2.61-4.48c6.1-6,11.82-15.25,15.37-24.7Zm12.88,12.2a67.51,67.51,0,0,1-5.6,10.52h10.14v-8h4.48v8H733v19.17c0,2.18-.44,3.48-2.05,4.17s-4,.75-7.84.75a15.37,15.37,0,0,0-1.31-4.17c2.74.12,5,.12,5.79.06s.93-.25.93-.87V802.55h-9.65V830.8h-4.48V802.55h-9v20.6h-4.36V802.8a51.1,51.1,0,0,1-6.22,6.47,24,24,0,0,0-3.17-3.61A49,49,0,0,0,705,787.8H694.47v-4.23h12.38a93.12,93.12,0,0,0,3.11-9.71l4.42.87c-.81,3-1.74,6-2.8,8.84h24.14v4.23Z"/><path class="cls-2" d="M754.64,807.4v18c0,2.55-.62,3.86-2.18,4.6s-4.11.81-8.28.75a15.56,15.56,0,0,0-1.37-4.17c2.8.06,5.35.06,6.16,0s1.12-.25,1.12-1.18V808.77l-8.46,2.55-1.24-4.48c2.68-.68,6-1.62,9.71-2.68V790.85h-8.84v-4.23h8.84V774.11h4.54v12.51h7.16v4.23h-7.16v12l7.22-2.18.62,4.29Zm17,12.88,4.11,2.49c-3.61,3.17-9.58,6.29-14.44,8.15a31.46,31.46,0,0,0-3.17-3.3c4.79-1.68,10.58-4.73,13.32-7.34h-6.84V792.91h30.55v27.38Zm22-30.74H766.28V776.23h27.38ZM769,800.87h21.65v-4.48H769Zm0,8h21.65v-4.6H769Zm0,8h21.65v-4.67H769Zm20.22-37.09H770.57v6.41h18.67Zm-2.92,40.7a81.08,81.08,0,0,1,12.07,8.09l-4.54,2.43a69.7,69.7,0,0,0-10.89-8Z"/><path class="cls-2" d="M832.18,823.64c-10,1.43-20.66,3-28.13,4l-.68-4.42c3.36-.44,7.59-.93,12.2-1.56v-8.34H805.11v-4h10.45v-6h4.29v6h10.76v4H819.86V821c4-.44,8.21-1.06,12.26-1.62ZM830.5,801.8H805.67V779.65a86.11,86.11,0,0,0,9.89-4.92l2.68,3a59.2,59.2,0,0,1-8.65,3.86v6.29h6.47v3.67h-6.47V798h16.93V791.6h-7v-3.67h7v-6.22H819.3v-3.8h11.2Zm27.13.5A41.38,41.38,0,0,1,848,819.79a31.7,31.7,0,0,0,12.57,7.28,15.43,15.43,0,0,0-2.92,3.86,33.76,33.76,0,0,1-12.76-8.15A43.36,43.36,0,0,1,830.37,831a19.21,19.21,0,0,0-2.55-3.92A39.2,39.2,0,0,0,842,819.48a46.31,46.31,0,0,1-6.84-12.88l4-1.06a37.62,37.62,0,0,0,6,11,34.16,34.16,0,0,0,6.78-11H832.74v-4.17H854l.81-.19Zm-17.24-16.74c0,5-1.06,11.14-6.66,15.18a19.28,19.28,0,0,0-3-2.92c4.85-3.48,5.54-8.21,5.54-12.32v-8.84h17.11v14.75c0,1.68.12,2.24.87,2.24h3.11a11.93,11.93,0,0,0,2.55-.31c.06,1.12.25,2.8.37,3.86a9.83,9.83,0,0,1-2.86.31h-3.48c-4,0-4.79-1.68-4.79-6.22V780.77h-8.71Z"/><path class="cls-2" d="M883.83,775.67a93.35,93.35,0,0,1-6.47,13.57V830.8h-4.42V796a57.88,57.88,0,0,1-6.16,7.47,23.88,23.88,0,0,0-2.61-4.48c6.1-6,11.88-15.25,15.37-24.7Zm29.62,50.46c3.73,0,4.42-1.68,4.92-9a13.23,13.23,0,0,0,4.23,1.74c-.81,8.65-2.24,11.39-9,11.39H897.21c-7.34,0-9.52-1.74-9.52-8.59V801.31l-6.16,2.37-1.74-4,7.9-3.11V780.34H892v14.5l9.15-3.61v-17h4.23v15.43l10.33-4,.87-.68L920,786l-.19.87c-.19,9-.81,20.85-1.8,28.19l-3.8-1.12c.62-5.85,1-15.37,1.12-23.46l-10,3.86v22.77h-4.23V796L892,799.63v22.09c0,3.61.87,4.42,5.23,4.42Z"/><path class="cls-2" d="M958.62,774.3c-.06,2.24-.12,5.35-.44,9,.93,7.4,4.67,33.41,26.63,43.18a14.11,14.11,0,0,0-3.36,3.92c-15.56-7.28-22.21-22.65-25.2-34.22-2.86,12.45-9.46,26.38-24.64,34.47a14.78,14.78,0,0,0-3.73-3.61c25.82-13.07,25.45-43.31,25.64-52.77Z"/><path class="cls-2" d="M1040,830.86h-4.73v-3.24H1007.6v3.24h-4.54V810.39c-3.42,1.18-6.91,2.18-10.33,3a12.94,12.94,0,0,0-2.36-4.23,86.5,86.5,0,0,0,23.46-8.53,117.88,117.88,0,0,0-11.82-9.77,59,59,0,0,1-7,4.17,15.46,15.46,0,0,0-3.17-3.49c10-4.85,17-11.76,20.78-17.67l5.16,1.12a49.83,49.83,0,0,1-4,5.29h22l.75-.25,3.11,1.93c-5.1,9.89-14.06,17.55-24.39,23H1040Zm-30.18-46.36c-1.31,1.31-2.74,2.49-4.17,3.73a123.62,123.62,0,0,1,12.51,9.83,49,49,0,0,0,14.69-13.57Zm25.45,38.89V809.27H1007.6V823.4Z"/><path class="cls-2" d="M1094.72,797.32a38.26,38.26,0,0,0,15.18,8.46,13.26,13.26,0,0,0-2.8,3.42,43.08,43.08,0,0,1-9-4.48v1.37h-35.28v-.75a41.42,41.42,0,0,1-8.77,4.42,15.74,15.74,0,0,0-2.8-3.3c5.72-1.74,11.82-5.17,15.62-9.15h-14v-3.17h6.66l-1-16.61A102.8,102.8,0,0,0,1070,774.8l2.43,2.74c-2.86.75-6.41,1.49-9.77,2.05l.19,2.55h8.46v2.92h-8.34l.19,3h8.15V791h-8l.25,3.17h33.54l.31-3.17h-7.9v-2.92h8.15l.25-3h-8.4v-2.92h8.59l.12-2.86h-8.9v-3h13.19c-.31,5.66-.75,12.94-1.24,17.92h7.16v3.17Zm-34.1,21.59h39.7V830.8h-4.54v-2.55H1065v2.55h-4.36Zm38.52-7.72h-37.4v-2.61h37.4Zm-37.4,2.49h37.4v2.68h-37.4Zm3.24,7.9v4h30.8v-4ZM1096,803.3a35.62,35.62,0,0,1-6.22-6h-18a32.32,32.32,0,0,1-6,6h13.69a24.25,24.25,0,0,0-2.55-3.67l4.17-.81a17.63,17.63,0,0,1,3.11,4.48Zm-16.74-16.55a19.52,19.52,0,0,1-2.92,6.78l-3-1.06a15.46,15.46,0,0,0,2.92-6.28Zm8.09-2.92c-.19,5.41-.31,7.47-1.06,8.4a3.33,3.33,0,0,1-2.68,1.06,25.07,25.07,0,0,1-3.67-.06,9.71,9.71,0,0,0-.68-2.55,19.9,19.9,0,0,0,2.92.19,1.12,1.12,0,0,0,1-.37c.31-.5.44-1.8.5-5.35h-9.15V774.05h3.55v3h9.65v2.74h-9.65v2.68h9.27Z"/><path class="cls-2" d="M1503.38,784.63h20.47v3.79h-20.47Zm18.79,11.82h-16.49v-3.67h16.49Zm-16.49,4.42h16.49v3.67h-16.49Zm16.93,26.26h-12.82v2.92h-4V809.15h16.8Zm-8.46-43.18a48.38,48.38,0,0,0-4.54-8.28l3.55-1.8a47.34,47.34,0,0,1,4.79,8ZM1509.79,813v10.27h8.65V813Zm24.89-39H1539v29.37c0,11.7-1.18,21.16-10.08,27.75a15.05,15.05,0,0,0-3.55-3,20.54,20.54,0,0,0,8.65-14.5c-2.86,1.12-5.66,2.37-8.21,3.42l-1.87-4.11c2.86-.81,6.53-2.05,10.58-3.36.13-2.05.19-4.11.19-6.29v-1.74H1526v-4.11h8.71v-8.65h-8.9v-4.17h8.9Zm25.26,40.7H1549v16.18h-4.42V774.18H1549v10.52h10.27v4.17H1549v8.65h9.71v4.11H1549v8.9h10.89Z"/><path class="cls-2" d="M1565.35,784.63h20.72v3.79h-20.72Zm18.79,11.82h-16.43v-3.67h16.43Zm-16.43,4.42h16.43v3.67h-16.43Zm16.8,26.26h-13.13v2.92h-3.67V809.15h16.8ZM1571.39,813v10.27h9.4V813Zm4.54-29.06a58.58,58.58,0,0,0-4.23-8.34l3.3-1.8a56.65,56.65,0,0,1,4.29,8Zm29.5,13.5a54.86,54.86,0,0,1,1.74,6.16h13.13v4h-18.48a53.24,53.24,0,0,1-.62,5.79h16.3s-.06,1.24-.12,1.87c-.68,9.21-1.49,12.94-2.8,14.5a4.64,4.64,0,0,1-3.48,1.49,60,60,0,0,1-6.6-.06,12.68,12.68,0,0,0-1.12-4,49,49,0,0,0,5.91.31,2.25,2.25,0,0,0,1.8-.5c.81-.87,1.37-3.48,1.93-9.71h-12.69c-1.62,6.22-4.85,10.83-11.51,13.88a12.06,12.06,0,0,0-2.49-3.42c8.71-3.73,10.64-10.45,11.39-20.16h-8.9v-4H1603a33.79,33.79,0,0,0-1.43-5.48Zm15.87-5.72v9.83h-4.17v-6.1H1592v6.1h-4v-9.83h20.29a81.29,81.29,0,0,0,2.8-8h-12.63a56.26,56.26,0,0,1,2.12,7l-4,1.06a39.43,39.43,0,0,0-2-7.47l2.61-.56h-8.4v-3.8h14.44a57.36,57.36,0,0,0-1.37-5.85l4-.62a43.08,43.08,0,0,1,1.68,6.47h12.69v3.8h-5.85l1.24.25c-1.06,2.68-2.18,5.54-3.24,7.78Z"/><path class="cls-2" d="M1647.31,793.34h4.42v16.93c0,9.27-2.43,16.3-16.92,20.66a16.42,16.42,0,0,0-2.86-3.42c7.53-2.18,11.45-5,13.44-8.46-6.1,1-12.07,1.93-16.86,2.68l-.5-4.17c4.85-.56,11.76-1.49,18.85-2.43a22.41,22.41,0,0,0,.44-4.67h-15.62v-3.86h15.62v-4.67h-17v-4h17Zm33.85-1.37h-49.84V776.6h49.84Zm-34.91-11.51H1635.8v7.65h10.45Zm15.06,0h-10.83v7.65h10.83Zm22.77,40.07h-19.23v10.14h-4.6v-37.4h4.6v4.67h17.92v4h-17.92v4.67h16.49v4h-16.49v5.66h19.23Zm-7.47-40.07h-11v7.65h11Z"/><path class="cls-2" d="M2226.78,784.07h10.14V750h-8.09v-3.61a28.9,28.9,0,0,0,9.46-3.24h4.36v40.88h9.15v4.73h-25Z"/><path class="cls-2" d="M2315,779.34h-22.53v14.25h-4.67V779.34H2259v-4.48h10.21V758.18h18.54v-9.46h-15.12a57.5,57.5,0,0,1-9.46,12.26,28.63,28.63,0,0,0-4-2.92c5.85-5.1,11.08-13.13,14-21.47l4.67,1.12c-.87,2.18-1.87,4.42-2.86,6.53h37.09v4.48h-19.66v9.46h18.23v4.36h-18.23v12.32H2315Zm-27.19-4.48V762.54h-13.94v12.32Z"/><path class="cls-2" d="M2347,775.79c-8.59,3.92-18,8-24.83,11L2320.5,782c2.43-.93,5.35-2.12,8.59-3.49L2328,740.08l4.73-.19.93,36.71c4-1.68,8.15-3.48,12.26-5.23Zm27.38,17.55c-2.86-4.29-8.65-10.83-13.94-16.43-4.85,7.34-11.64,12.76-21.34,16.8a26.77,26.77,0,0,0-3.67-4c21.34-7.84,27.94-22.9,30.68-49.78l5,.5c-1.49,13.32-3.86,23.89-8.21,32.23,5.54,5.6,12.13,12.51,15.31,17.11Zm-24-31.67a61.15,61.15,0,0,0-9.58-15.18l4.11-2.05a58.91,58.91,0,0,1,9.83,14.87Z"/><path class="cls-2" d="M2412.65,745.92V757l.81-.93c7.41,3.55,17.17,9.15,22.09,12.88l-3.24,4.17c-4.23-3.48-12.57-8.59-19.66-12.38v32.73h-4.92V745.92H2384v-4.6h54.95v4.6Z"/><path class="cls-2" d="M2467.23,749.1c-1.18,2.43-2.43,4.92-3.79,7.22h30.12v31.42c0,2.8-.62,4.17-2.61,4.92s-5.54.81-10.83.81a15.74,15.74,0,0,0-1.56-4.54c4.17.19,7.9.13,9,.13s1.43-.37,1.43-1.31v-6.47h-26.69A22.34,22.34,0,0,1,2456,793.9a14.81,14.81,0,0,0-3.24-3.61c5.17-5,5.72-11.82,5.72-17.73v-9.08a52.27,52.27,0,0,1-10.08,9.52,31.11,31.11,0,0,0-2.92-3.61c7.28-4.92,12.88-12.26,16.74-20.29h-15.49v-4.36h17.49a81.63,81.63,0,0,0,2.74-8l4.6,1.12a69.93,69.93,0,0,1-2.43,6.91h31.73v4.36ZM2489,777.29v-6.47h-25.95v1.87c0,1.49-.06,3-.19,4.6Zm0-16.8h-25.95v6.29H2489Z"/><path class="cls-2" d="M2537.73,778.53h-30.37v-4.17h6V749.1h-5.23v-4.17h5.23V737.4h4.23v7.53h11.26V737.4h4.29v7.53h4.54v4.17h-4.54v25.26h4.54ZM2520.37,781a41.1,41.1,0,0,1-9.21,12.57,28.73,28.73,0,0,0-3.73-2.68,32.45,32.45,0,0,0,8.52-11.08Zm-2.74-31.92v5.48h11.26V749.1Zm0,15.31h11.26v-6.1h-11.26Zm0,10h11.26v-6.22h-11.26Zm10.76,5.48a46.11,46.11,0,0,1,6.53,9.21l-3.73,2.18a48.79,48.79,0,0,0-6.41-9.46Zm33.91,7.78c0,2.74-.68,4.11-2.36,4.85s-4.67.87-9.27.87a16.36,16.36,0,0,0-1.43-4.48c3.3.06,6.41.06,7.28,0s1.31-.31,1.31-1.31V772.62H2544.7c-.62,7.41-2.18,15.31-5.91,21.28a13.16,13.16,0,0,0-3.67-2.74c5.16-8.21,5.66-20,5.66-28.87V739.83h21.53Zm-4.48-19.17V758.12h-12.69v4.17c0,1.93-.06,4-.12,6.16Zm-12.69-24.39V754h12.69v-9.89Z"/><path class="cls-2" d="M2587.89,750.78a71.3,71.3,0,0,1-5.41,8.15v34.72h-4.36V764a68.65,68.65,0,0,1-7,6.6,28,28,0,0,0-2.61-4.11,58.2,58.2,0,0,0,15.31-17.17Zm-1.37-12.45a67.66,67.66,0,0,1-14.75,14.75,26.57,26.57,0,0,0-2.55-3.36c4.79-3.24,10.33-8.59,13.07-12.94Zm23,49.66a39.55,39.55,0,0,0,6.78.5c1.49,0,9,0,11.08-.06a16,16,0,0,0-1.49,4.29H2616c-9.83,0-17.24-2-22-10.7a29.66,29.66,0,0,1-6.72,11.7,28.36,28.36,0,0,0-3.55-2.86c5.48-5.23,7.65-13.63,8.4-24.08l4.54.37c-.25,3.11-.68,6-1.18,8.84,2.12,6,5.41,9.21,9.58,10.83v-25h-17.73v-4.17h17.3V749h-14.06v-4h14.06v-8.28H2609v8.28h14.44v4H2609v8.65h17.36v4.17h-16.92v9.27h14.31v4.11h-14.31Z"/><path class="cls-2" d="M2658.27,761.17h7.34v4.48h-7.34v27.13h-4.48V765.65h-9.64c-.25,10.33-1.93,20-9.27,27.94a19.5,19.5,0,0,0-3.36-3c6.66-7.22,8-16,8.21-25h-7.59v-4.48h7.59V744.56h-6.16V740.2h30.37v4.36h-5.66Zm-4.48,0V744.56h-9.64v16.61Zm19.6,16.61H2669v-34.1h4.36ZM2686,737.9v49.59c0,3-.81,4.36-2.67,5.1s-5.17.93-10.64.93a22.35,22.35,0,0,0-1.56-4.61c4,.13,7.65.06,8.77,0s1.56-.37,1.56-1.43V737.9Z"/><path class="cls-2" d="M2713.28,768l-7,2.36V787.8c0,2.61-.62,3.86-2.18,4.61s-3.8.93-7.78.93a21.59,21.59,0,0,0-1.37-4.48c2.61.06,5.1.06,5.79.06s1.12-.25,1.12-1.18v-16c-2.55.87-5,1.68-7.22,2.3l-1.18-4.42c2.3-.68,5.23-1.56,8.4-2.43V753.33h-7.59V749h7.59V736.78h4.42V749H2713v4.29h-6.72v12.51l6.41-2Zm35.78-21.09v2.37c-.93,28.69-1.68,38.46-4.11,41.5a6,6,0,0,1-4.73,2.55,72.52,72.52,0,0,1-9-.06,11.08,11.08,0,0,0-1.49-4.67c3.8.31,7.22.31,8.59.31a2.43,2.43,0,0,0,2.49-1c2-2.12,2.86-11.45,3.61-36.78h-22.84a55.17,55.17,0,0,1-6.72,10.14,21.9,21.9,0,0,0-3.67-2.8c4.92-5.29,9-13.38,11.51-21.72l4.42,1a88.53,88.53,0,0,1-3.49,9.08h22.46v.06Zm-27.13,32.17v4.23h-4.17V758.56h18.85v20.53Zm0-16.49V775h10.45V762.6Z"/><path class="cls-2" d="M2774.45,752.08a68,68,0,0,1-5.1,7.9v33.54h-4.48V765.4a71.36,71.36,0,0,1-6.66,6.47,34.24,34.24,0,0,0-2.55-4.54,55.62,55.62,0,0,0,14.69-16.8Zm-.75-13.57a58,58,0,0,1-14.56,14.87,32,32,0,0,0-2.43-3.73c4.67-3.17,10-8.4,12.51-12.76Zm35,26.7a39.35,39.35,0,0,1-12.88,18,51.64,51.64,0,0,0,17.24,6.41,21.43,21.43,0,0,0-3,4.29,51.89,51.89,0,0,1-18.29-7.84,62.43,62.43,0,0,1-18.79,7.59,18.14,18.14,0,0,0-2.36-4.17,57.85,57.85,0,0,0,17.42-6.35,43.94,43.94,0,0,1-10.77-14.5l.75-.25h-3.36V764h30.18l.87-.19Zm-22.9-18.67c0,5.79-1.93,12.45-10.89,16.61a19.57,19.57,0,0,0-3-3.36c8.09-3.73,9.46-8.77,9.46-13.38V739h21v14.31c0,1.8.25,2.43,1.31,2.43H2809a19.14,19.14,0,0,0,3.3-.31c.12,1.18.25,2.92.44,4a15.82,15.82,0,0,1-3.67.31h-5.72c-4.54,0-5.6-1.74-5.6-6.47v-9.89h-11.95Zm-3.92,21.84a36.76,36.76,0,0,0,10,12.13,33.82,33.82,0,0,0,10.45-12.13Z"/><path class="cls-2" d="M2253.1,858.12c-9.52,2.05-19.66,4.23-26.88,5.85l-.87-4.67c6.72-1.31,17.3-3.42,27.38-5.54Zm23.77-26.69a72.38,72.38,0,0,1-11,21.78c2.3,6.41,5.1,10.27,8.15,10.27,1.74,0,2.49-3.24,2.86-11.51a11,11,0,0,0,4,2.61c-.81,10.64-2.55,13.69-7.34,13.69s-8.4-4-11.2-10.76a57.21,57.21,0,0,1-13.13,10.7,27.87,27.87,0,0,0-3.61-3.55,49.12,49.12,0,0,0,14.93-12.2c-2.18-7.28-3.55-16.49-4.36-26.57h-30.55v-4.54H2256c-.19-3.24-.25-6.47-.31-9.77h4.85c0,3.36.06,6.6.19,9.77h18.67v4.54H2261a128.77,128.77,0,0,0,3.24,21.72,67,67,0,0,0,8-17.3Zm-26.13-.06v18.79h-21.47V831.36Zm-4.54,4h-12.63v10.76h12.63Zm28.56-14.12a45.81,45.81,0,0,0-10.52-6.78l2.68-2.86a47.73,47.73,0,0,1,10.7,6.41Z"/><path class="cls-2" d="M2289,858.74h10.14v-34h-8.09V821.1a28.9,28.9,0,0,0,9.46-3.24h4.36v40.88H2314v4.73h-25Z"/><path class="cls-2" d="M2319.81,858.24l2.8-3.73c2.61,2.61,5.91,5,11.2,5s9.71-4.11,9.71-10.77-3.73-10.39-9.46-10.39c-3,0-5,.93-7.59,2.68l-3-1.87,1.43-21.34h22.21v4.85h-17.24l-1.12,13.19a13.1,13.1,0,0,1,6.78-1.8c7.59,0,13.75,4.48,13.75,14.5s-7.22,15.68-14.93,15.68A19.38,19.38,0,0,1,2319.81,858.24Z"/><path class="cls-2" d="M2355.65,840.51c0-15.87,5.54-23.52,14.25-23.52s14.19,7.72,14.19,23.52-5.54,23.77-14.19,23.77S2355.65,856.38,2355.65,840.51Zm22.9,0c0-13.32-3.49-18.92-8.65-18.92s-8.71,5.6-8.71,18.92,3.48,19.23,8.71,19.23S2378.55,854,2378.55,840.51Z"/><path class="cls-2" d="M2390.19,840.51c0-15.87,5.54-23.52,14.25-23.52s14.19,7.72,14.19,23.52-5.54,23.77-14.19,23.77S2390.19,856.38,2390.19,840.51Zm22.9,0c0-13.32-3.49-18.92-8.65-18.92s-8.71,5.6-8.71,18.92,3.48,19.23,8.71,19.23S2413.09,854,2413.09,840.51Z"/><path class="cls-2" d="M2424.73,840.51c0-15.87,5.54-23.52,14.25-23.52s14.19,7.72,14.19,23.52-5.54,23.77-14.19,23.77S2424.73,856.38,2424.73,840.51Zm22.9,0c0-13.32-3.49-18.92-8.65-18.92s-8.71,5.6-8.71,18.92,3.48,19.23,8.71,19.23S2447.63,854,2447.63,840.51Z"/><path class="cls-2" d="M2508.11,862.72c2.49,0,2.86-1.62,3.17-11.14a14.34,14.34,0,0,0,4.29,2.05c-.5,10.58-1.74,13.5-7.16,13.5h-8.9c-5.54,0-7-1.62-7-6.91V838.08h-11.64c-1.18,13.32-4.17,24.21-18.48,30a12.44,12.44,0,0,0-2.92-3.61c13.25-5,15.56-14.75,16.49-26.38H2460.2V833.6h54.45v4.48h-17.49v22.09c0,2.12.5,2.55,2.92,2.55Zm1.31-42h-43.81V816.3h43.81Z"/><path class="cls-2" d="M2547.38,850.47c-8.59,3.92-18,8-24.83,11l-1.68-4.79c2.43-.93,5.35-2.12,8.59-3.49l-1.06-38.46,4.73-.19.93,36.71c4-1.68,8.15-3.48,12.26-5.23ZM2574.75,868c-2.86-4.29-8.65-10.83-13.94-16.43-4.85,7.34-11.64,12.76-21.34,16.8a26.77,26.77,0,0,0-3.67-4c21.34-7.84,27.94-22.9,30.68-49.78l5,.5c-1.49,13.32-3.86,23.89-8.21,32.23,5.54,5.6,12.13,12.51,15.31,17.11Zm-24-31.67a61.15,61.15,0,0,0-9.58-15.18l4.11-2.05a58.88,58.88,0,0,1,9.83,14.87Z"/><path class="cls-2" d="M2613,820.6v11.08l.81-.93c7.41,3.55,17.17,9.15,22.09,12.88l-3.24,4.17c-4.23-3.48-12.57-8.59-19.66-12.38v32.73h-4.92V820.6h-23.77V816h54.95v4.6Z"/><path class="cls-2" d="M2663.68,836.4h12.51v3.24h-29.81V836.4h14.44a40.38,40.38,0,0,0-5.85-5.35l3.11-2.37a35.43,35.43,0,0,1,7.22,6.35Zm34.54-8.9h-48.54V813.75h48.54Zm-25,38.52h-19v2.12H2650V854.95h23.21Zm-22.65-17.17h22.21v3h-22.21Zm22.28-3h-22.21v-3.11h22.21Zm-8.71-28.5h-10v6.6h10Zm-9.89,40.63v5h14.62v-5Zm24.52-40.63h-10.33v6.6h10.33Zm6.22,41.07h-4.29V831.92H2685Zm8.65-41.07H2683v6.6h10.58Zm4.92,12.44v32.92c0,2.8-.68,4.11-2.61,4.79s-5.29.81-10.52.81a20.08,20.08,0,0,0-1.49-4.36c4.11.12,7.78.12,8.77.06s1.49-.31,1.49-1.31V829.74Z"/><path class="cls-2" d="M2738.48,834.22v8.46h21.72v4.23h-21.72V862.1H2763v4.29h-53.45V862.1h24.14V846.92h-21.34v-4.23h21.34v-8.46h-13.44V830.8a74.58,74.58,0,0,1-9.89,4.54,16.86,16.86,0,0,0-3.11-4.23c11.57-3.8,23-11.08,28.94-20.29l4.23,2c-.44.68-1,1.49-1.56,2.24,6.16,6.6,17.11,13.07,26.57,16.05a16.87,16.87,0,0,0-3.24,4,73,73,0,0,1-10-4.79v3.86Zm-17.11,14.06a51.89,51.89,0,0,1,6,11.14l-4,1.68a50.64,50.64,0,0,0-5.72-11.26Zm30.05-18.36a72.35,72.35,0,0,1-15.12-11.7,64,64,0,0,1-14.56,11.7Zm-7.28,29.81a71.3,71.3,0,0,0,6.47-11.45L2755,850a110.73,110.73,0,0,1-7.34,11.26Z"/><path class="cls-2" d="M634.54,1175.94H648v4.54H634.54v27.75h-4.67v-27.75H616.62v-4.54h13.25v-16H618.3v-4.54h27.88V1160H634.54Zm22.28,17.3h-4.6v-34.35h4.6Zm13.63-40.51v49.34c0,3.24-.87,4.67-2.92,5.41s-5.66.93-11.51.87a19.47,19.47,0,0,0-1.74-4.79c4.48.19,8.52.13,9.83.13s1.68-.44,1.68-1.62v-49.34Z"/><path class="cls-2" d="M734.11,1161.82a89.53,89.53,0,0,1-9.46,7.53,42.49,42.49,0,0,0,11.7,7.22,19.07,19.07,0,0,0-3.17,3.8,47.85,47.85,0,0,1-14.75-10.7v3.17H696.15v-2.92a53.82,53.82,0,0,1-15.31,11,18.91,18.91,0,0,0-2.86-3.49,44.1,44.1,0,0,0,12.57-8.21,40.82,40.82,0,0,0-7.9-6.29l2.49-2.61a40.15,40.15,0,0,1,8.15,6.22,43.09,43.09,0,0,0,6.22-8.71H682.58v-3.92h19.1l.87-.19,3,1.56a43,43,0,0,1-8.46,13.56h20.53A57.16,57.16,0,0,1,707.35,1153l4-1.24a47.37,47.37,0,0,0,4.29,7.72,78.85,78.85,0,0,0,8-7.34l3.55,2.49a89.26,89.26,0,0,1-9.46,7.65A49.4,49.4,0,0,0,722,1167a77.39,77.39,0,0,0,8.65-7.53ZM721,1194.92c-1.31,2.68-2.86,5.6-4.17,8h17.67v4H680v-4h17a32,32,0,0,0-3.48-7.72l4.17-1.31a32.69,32.69,0,0,1,3.8,7.72l-3.86,1.31h14.37a56.88,56.88,0,0,0,4.54-9.15Zm3.48-1.56H689.24v-15.49h35.22Zm-4.85-11.64H693.78v7.78h25.82Z"/><path class="cls-2" d="M759.37,1153.17a93.35,93.35,0,0,1-6.47,13.57v41.57h-4.42v-34.78a57.88,57.88,0,0,1-6.16,7.47,23.88,23.88,0,0,0-2.61-4.48c6.1-6,11.88-15.25,15.37-24.7ZM789,1203.63c3.73,0,4.42-1.68,4.92-9a13.23,13.23,0,0,0,4.23,1.74c-.81,8.65-2.24,11.39-9,11.39H772.75c-7.34,0-9.52-1.74-9.52-8.59v-20.41l-6.16,2.37-1.74-4,7.9-3.11v-16.18h4.36v14.5l9.15-3.61v-17H781v15.43l10.33-4,.87-.68,3.42,1.06-.19.87c-.19,9-.81,20.85-1.8,28.19l-3.8-1.12c.62-5.85,1-15.37,1.12-23.46l-10,3.86v22.77h-4.23v-21.09l-9.15,3.61v22.09c0,3.61.87,4.42,5.23,4.42Z"/><path class="cls-2" d="M834.17,1151.8c-.06,2.24-.12,5.35-.44,9,.93,7.4,4.67,33.41,26.63,43.18a14.11,14.11,0,0,0-3.36,3.92c-15.56-7.28-22.21-22.65-25.2-34.22-2.86,12.45-9.46,26.38-24.64,34.47a14.78,14.78,0,0,0-3.73-3.61c25.82-13.07,25.45-43.31,25.64-52.77Z"/><path class="cls-2" d="M887.56,1168.79c-.06,7.09-.75,15.62-5,23.89a75.62,75.62,0,0,1,6.66,6.35l-2.92,3.67a60.62,60.62,0,0,0-6-6.16,44.82,44.82,0,0,1-12.07,11.88,13.43,13.43,0,0,0-3.11-3.11,41.24,41.24,0,0,0,11.95-11.7c-3.3-2.92-6.91-5.79-10.08-8.21,1.43-4.11,2.86-9.71,4.23-15.62l-5.48.37-.5-4.23c2-.06,4.36-.19,6.84-.31.93-4.73,1.74-9.58,2.24-13.81l4.29.31c-.56,4.11-1.37,8.65-2.24,13.32l7-.44v-4.61h4.23v4.36l2.55-.12-.06,4Zm-12.13.75c-1.18,5.23-2.49,10.27-3.61,14.44,2.36,1.8,4.92,3.8,7.34,5.79,3.48-7.22,4.11-14.56,4.17-20.72Zm46.92,31.8v4.42H889.55v-4.42h15.81v-13.75h-13v-4.36h13v-13.32h-8.9a50.23,50.23,0,0,1-2.92,10.45,26,26,0,0,0-3.67-2.18c2.49-5.6,3.73-14.25,4.42-22.77l4.11.62c-.31,3.17-.68,6.41-1.18,9.46h8.15v-13.81h4.54v13.81h11.64v4.42H909.9v13.32H921v4.36H909.9v13.75Z"/><path class="cls-2" d="M977.73,1208.36H973v-3.24H945.37v3.24h-4.54v-20.47c-3.42,1.18-6.91,2.18-10.33,3a12.93,12.93,0,0,0-2.36-4.23,86.5,86.5,0,0,0,23.46-8.53,117.88,117.88,0,0,0-11.82-9.77,59,59,0,0,1-7,4.17,15.46,15.46,0,0,0-3.17-3.49c10-4.85,17-11.76,20.78-17.67l5.17,1.12a49.9,49.9,0,0,1-4,5.29h22l.75-.25,3.11,1.93c-5.1,9.89-14.06,17.55-24.39,23h24.7ZM947.55,1162c-1.31,1.31-2.74,2.49-4.17,3.73a123.62,123.62,0,0,1,12.51,9.83A49,49,0,0,0,970.57,1162ZM973,1200.9v-14.12H945.37v14.13Z"/><path class="cls-2" d="M1046.24,1199.34h-25.7v9.21h-4.67v-9.21H990.74v-4.17h25.14v-5.1H997.21V1166h18.67v-4.54H992.6v-4.23h23.27v-5.6h4.67v5.6h23.58v4.23h-23.58V1166h19.17v24.08h-19.17v5.1h25.7Zm-44.62-23.15h14.25v-6.35h-14.25Zm14.25,10.08v-6.41h-14.25v6.41Zm4.67-16.43v6.35h14.56v-6.35Zm14.56,10h-14.56v6.41h14.56Z"/><path class="cls-2" d="M1060.43,1176.57c0,1.68,0,3.3-.06,5H1071v26.76h-4.36v-22.71h-6.47c-.37,7.78-1.49,16.12-4.17,22.77a29.45,29.45,0,0,0-4.17-1.56c3.8-8.84,4.36-21.28,4.36-30.3v-23.65h4.23v15.87h6.6v-17.11h3.92v21.16h-10.52Zm48.47,19.17h-11v12.63h-4.29v-12.63h-20.72v-4.17h6.66a19.2,19.2,0,0,0-2.43-1.93,26.42,26.42,0,0,0,7.16-7h-8.9V1158h8.84a46.68,46.68,0,0,0,2.55-6.35l5.16.81c-.87,1.93-1.87,3.92-2.74,5.54H1106v24.7h-17a28.34,28.34,0,0,1-7.53,8.9h12.2v-7.41H1098v7.41h11Zm-29.12-27.25h8.9v-6.66h-8.9Zm6.66,10.39a25.48,25.48,0,0,0,2-6.78h-8.65v6.78Zm15-6.78h-8.84a33.2,33.2,0,0,1-1.87,6.78h10.7Zm0-10.27h-8.59v6.66h8.59Z"/><path class="cls-2" d="M1135.23,1166.42a78.18,78.18,0,0,1-6.84,9.4v32.73h-4.6v-27.63a73.06,73.06,0,0,1-7,6.47,44.44,44.44,0,0,0-3.24-3.86,67.84,67.84,0,0,0,17.42-18.73Zm-2.43-13.13a76.43,76.43,0,0,1-15.93,15.43,40,40,0,0,0-2.74-3.67,61.79,61.79,0,0,0,14.25-13.5Zm38.14,23.46h-9.4v25.7c0,2.86-.68,4.29-2.74,5s-5.6.68-11.7.68a16.48,16.48,0,0,0-1.49-4.48c4.42.12,8.52.12,9.71.06s1.56-.31,1.56-1.37v-25.64H1136.1v-4.42h34.85Zm-1.8-17h-30.37v-4.36h30.37Z"/><path class="cls-2" d="M1232.12,1166s-.06,1.74-.06,2.36c-.68,26.07-1.24,34.72-3.36,37.34a4.91,4.91,0,0,1-4.17,2.3,42.93,42.93,0,0,1-7.53,0,12.55,12.55,0,0,0-1.31-4.36c3,.25,5.72.31,6.91.31a2.36,2.36,0,0,0,2.24-1c1.43-1.8,2.18-10,2.8-32.61h-8.9c-.75,16.55-3.61,30.12-14.56,38.33a15.75,15.75,0,0,0-3.42-3.3,32.29,32.29,0,0,0,2.74-2.18c-9.46,1.12-19.1,2.18-26.07,2.92l-.68-4c3.73-.31,8.4-.75,13.5-1.24v-5.35h-11.76v-3.55h11.76v-3.8H1178.6v-18.48h11.64v-3.92H1176.8v-3.61h13.44V1158c-4,.31-8,.56-11.7.68a13.75,13.75,0,0,0-1.12-3.42c9.21-.5,20.41-1.62,26.82-3l2.3,3.55a118.86,118.86,0,0,1-12.13,1.8v4.54h13.19v3.61h-13.19v3.92h12.07v18.48h-12.07v3.8h12.2v3.55h-12.2v4.92c4-.37,8.28-.81,12.44-1.31v.31c5.41-7.34,7-17.36,7.59-29.06h-7.28V1166h7.4c.12-4.36.12-8.9.12-13.63H1219c0,4.67,0,9.27-.12,13.63Zm-49.72,11.33h7.84v-4.48h-7.84Zm7.84,7.59v-4.54h-7.84v4.54Zm4.17-12.07v4.48h8.15v-4.48Zm8.15,7.53h-8.15v4.54h8.15Z"/><path class="cls-2" d="M642.57,1239.29H623.22v10H618.8V1236h23.77v-4H621.48v-3.3h46.92v3.3H647.05v4h24.21v13.32h-4.54v-10H647.05v14.13h-4.48Zm22.71,39.2c3.3,0,3.92-1.06,4.23-7.22a12.61,12.61,0,0,0,4,1.49c-.68,7.53-2.05,9.46-8,9.46H651.28c-6.91,0-8.9-1.24-8.9-6.22v-1.93H628.63v3.24h-4.48v-21.59h41.94v18.36H646.86V1276c0,2.12.75,2.49,4.6,2.49ZM624.34,1250c3.92-.37,9.27-1.18,14.75-2.05l.19,2.92c-4.79,1-9.52,2-13.56,2.74Zm3-9.46a60,60,0,0,1,11.95,3.24l-1.37,2.86a60.12,60.12,0,0,0-12-3.61Zm1.31,18.54v4.23h13.75v-4.23Zm13.75,11.64v-4.29H628.63v4.29Zm19.17-11.64H646.86v4.23h14.69Zm0,11.64v-4.29H646.86v4.29Zm2.61-16.92a96.15,96.15,0,0,0-14.5-3.42l1.12-2.8a81.26,81.26,0,0,1,14.44,3Zm.06-11a74.31,74.31,0,0,1-12.13,3.55l-1.62-2.43a108.83,108.83,0,0,0,11.76-3.73Z"/><path class="cls-2" d="M678.85,1236.8h22.71v3.79H678.85Zm20.6,11.82h-18V1245h18Zm-18,4.42h18v3.67h-18Zm18.54,26.26h-14.5v2.92h-4v-20.91h18.54Zm-14.5-14.12v10.27h10.39v-10.27Zm5-29.06a59.68,59.68,0,0,0-4.6-8.28l3.55-1.8a51.92,51.92,0,0,1,4.79,8Zm30.61,13.56V1260h11.14v22.84h-4.48v-2.24H709.9v2.49h-4.23V1260h11.14v-10.33H703.3v-4.42h13.5v-11.08c-4,.62-8.15,1.18-11.95,1.62a14.43,14.43,0,0,0-1.18-3.73c9.08-1.12,19.79-3.11,25.76-5.41l3,3.67a81.9,81.9,0,0,1-11.33,3v11.88h14.44v4.42Zm6.66,14.56H709.9v12.13h17.86Z"/><path class="cls-2" d="M750.6,1234.75a38.94,38.94,0,0,1-6.16,7.4,22.79,22.79,0,0,0-3.3-3,36.37,36.37,0,0,0,9.58-13.25l4.11,1.12c-.56,1.24-1.12,2.49-1.74,3.73h16v4H757.44a68.08,68.08,0,0,1,6,5.6l-3,2.74a48.87,48.87,0,0,0-6.47-6.53l2.24-1.8Zm33.73,29.06h12.38v3.92H784.32v10.52c0,2.68-.68,3.73-2.74,4.29s-5.66.62-11.08.62a13.65,13.65,0,0,0-1.24-3.92c4.17.19,8,.19,9,.12s1.37-.37,1.37-1.24v-10.39H742.14v-3.92h37.52v-4.36h4.67Zm13.5-33v4H784.14a51.31,51.31,0,0,1,5.79,6.1l-3.17,2.68a42.5,42.5,0,0,0-5.91-6.66l2.74-2.12h-6.1a42.48,42.48,0,0,1-5.23,7.47l-.56-.5v2.92h22.77v4H771.69v5.54H791V1258H747.55v-3.73H767v-5.54H744.44v-4H767v-3.86h3.48a21.24,21.24,0,0,0-1.8-1.31,32.42,32.42,0,0,0,7.72-13.69l4.29,1a29.61,29.61,0,0,1-1.43,3.92Zm-42.13,37.52a102.94,102.94,0,0,1,10.58,9.21l-3.42,2.74a102.92,102.92,0,0,0-10.45-9.52Z"/><path class="cls-2" d="M819.73,1227.72a92.94,92.94,0,0,1-5,12.07v43.31h-4.42v-35.34a62.37,62.37,0,0,1-6,8.21,28,28,0,0,0-2.43-4.67c5.54-6,10.52-15.37,13.63-24.77ZM858,1230v52.46h-4.42v-3.17H826.2V1283h-4.29v-53Zm-4.42,45.18v-41.13H826.2v41.13Zm-11.7-28.56v6.84H849V1270H831.31v-16.55h6.78v-6.84h-9.33v-3.55h9.33v-7h3.8v7h9.58v3.55Zm3.48,10.33H834.85v9.65h10.52Z"/><path class="cls-2" d="M883.83,1243.34H866v-3.73h17.8Zm4.92,32.11c-5,3-12.82,5.91-19,7.59a30.14,30.14,0,0,0-3.42-3.49c6.35-1.31,13.81-3.55,18.23-6Zm-6.47-41.88H867.4V1230h14.87Zm-8.09,14.62h40.26v25H874.18Zm4.48,7.34h31.17v-4.23H878.66Zm0,7.22h31.17v-4.23H878.66Zm0,7.34h31.17v-4.36H878.66Zm14.93-36a30.69,30.69,0,0,1-4.67,6.22,20.11,20.11,0,0,0-3.48-2.36,26.6,26.6,0,0,0,7.16-11.82l4.17.93c-.37,1.18-.87,2.3-1.31,3.42h20.85l.75-.19,3.11,1.06a58.82,58.82,0,0,1-5.23,9l-3.67-1.31a35.38,35.38,0,0,0,2.92-4.92H904.3v.81a12.57,12.57,0,0,1-.19,2.05c3.3,3.73,10.08,6.16,18.23,6.84a17.11,17.11,0,0,0-2.61,3.67c-7.09-1-13.07-3.48-16.93-7.28-2.05,3-7,5.91-17.92,7.59a15.05,15.05,0,0,0-2.49-3.42c16.12-2.18,17.61-6.41,17.61-9.65v-.62Zm9.33,39.45a171,171,0,0,1,18.29,6.72l-4,2.68a149.07,149.07,0,0,0-17.42-6.91Z"/><path class="cls-2" d="M1518.31,1218.63a77,77,0,0,1-5.16,16.05c1.24.68,2.68,1.87,5,3.24,4.36,2.68,10,3.11,17.36,3.11,8,0,18-.62,25-1.31a16.25,16.25,0,0,0-1.37,4.79c-4.67.31-16.43.68-23.83.68-8.15,0-13.63-.68-18.17-3.42-2.49-1.49-4.79-3.61-6.22-3.61s-3.48,3.92-5.29,7.84l-3.17-4.17c2.18-3.11,4.29-5.66,6.22-6.91a52.79,52.79,0,0,0,4.42-12.94H1505a145.35,145.35,0,0,0,5.35-13.88h-6.84v-4.17h12.94c-1.49,4.48-3.55,9.71-5.23,14h4.17l.81-.19Zm-8.34-18c-.75-2.68-2.24-6.91-3.24-10.14l4.17-1.24c1.18,3.24,2.61,7.34,3.48,10Zm49,3.3h-40.57v-3.36h11.64c.56-1.37,1.06-3,1.56-4.61h-9.27v-3.3h10.33q.65-2.05,1.12-3.92l4.42.56-1,3.36h15.31v7.9H1559Zm-20.53,35.16v-5.85h-18a80.44,80.44,0,0,0,2.92-8.34h-3.8v-3.36h18.85v-3.48h-15.18v-11h30.55v11h-11v3.48H1558v3.36h-15.12v5h16.55v3.36h-16.55v5.85Zm0-9.21v-5h-10.83c-.56,1.68-1.12,3.42-1.68,5Zm-10.89-14.81h21.78v-5h-21.78Zm8.59-19.1c-.5,1.62-1.06,3.24-1.62,4.61h13.69V1196Z"/><path class="cls-2" d="M1615.32,1209.55a49.42,49.42,0,0,1-13.81,23.46,50.17,50.17,0,0,0,19.73,8.59,15.84,15.84,0,0,0-3.11,4.23,51.55,51.55,0,0,1-20.35-9.64,58.56,58.56,0,0,1-19.1,9.52,17.06,17.06,0,0,0-2.68-4.17,52.93,52.93,0,0,0,18.17-8.52,53.22,53.22,0,0,1-12.13-20.1h-4.11c-.19,10.21-1.68,23.46-8,32.67a18.28,18.28,0,0,0-3.92-2.74c6.78-9.65,7.47-23.33,7.47-33.17v-16.8h45.3v4.48H1578v11.14h33.23l.93-.25Zm-28.44,3.36a44.26,44.26,0,0,0,11,17,43.11,43.11,0,0,0,11.39-17Z"/><path class="cls-2" d="M1644,1190.38a92.94,92.94,0,0,1-5,12.07v43.31h-4.42v-35.34a62.45,62.45,0,0,1-6,8.21,28,28,0,0,0-2.43-4.67c5.54-6,10.52-15.37,13.63-24.77Zm38.27,2.3v52.46h-4.42V1242h-27.38v3.67h-4.29v-53Zm-4.42,45.18v-41.13h-27.38v41.13Zm-11.7-28.56v6.84h7.16v16.55h-17.73v-16.55h6.78v-6.84H1653v-3.55h9.33v-7h3.8v7h9.58v3.55Zm3.48,10.33h-10.52v9.65h10.52Z"/><path class="cls-2" d="M1708.1,1206h-17.8v-3.73h17.8Zm4.92,32.11c-5,3-12.82,5.91-19,7.59a30.1,30.1,0,0,0-3.42-3.49c6.35-1.31,13.81-3.55,18.23-6Zm-6.47-41.88h-14.87v-3.61h14.87Zm-8.09,14.62h40.26v25h-40.26Zm4.48,7.34h31.17V1214h-31.17Zm0,7.22h31.17v-4.23h-31.17Zm0,7.34h31.17v-4.36h-31.17Zm14.93-36a30.71,30.71,0,0,1-4.67,6.22,20.09,20.09,0,0,0-3.49-2.36,26.59,26.59,0,0,0,7.16-11.82l4.17.93c-.37,1.18-.87,2.3-1.31,3.42h20.85l.75-.19,3.11,1.06a58.82,58.82,0,0,1-5.23,9l-3.67-1.31a35.43,35.43,0,0,0,2.92-4.92h-9.89v.81a12.61,12.61,0,0,1-.19,2.05c3.3,3.73,10.08,6.16,18.23,6.84a17.12,17.12,0,0,0-2.61,3.67c-7.09-1-13.07-3.49-16.92-7.28-2.05,3-7,5.91-17.92,7.59a15.09,15.09,0,0,0-2.49-3.42c16.12-2.18,17.61-6.41,17.61-9.65v-.62Zm9.33,39.45a171,171,0,0,1,18.29,6.72l-4,2.68a149.1,149.1,0,0,0-17.42-6.91Z"/><path class="cls-2" d="M1771,1190.38a93.48,93.48,0,0,1-6.53,13.25v41.94H1760v-35.22a68.37,68.37,0,0,1-6.47,7.72,37.81,37.81,0,0,0-2.61-4.48c6.16-5.91,12.13-15.12,15.68-24.52Zm11.14,37.09a98.11,98.11,0,0,1-10.52,15.25A32.06,32.06,0,0,0,1768,1240a67.66,67.66,0,0,0,10-13.88Zm9-4.36v22.65h-4.6v-22.65h-18v-4.23h18v-7.41H1773v-19.66h32v19.66h-14v7.41h17.61v4.23Zm-13.69-15.74h23.09V1196h-23.09Zm20.72,18.73a107.32,107.32,0,0,1,10.76,13.94l-3.73,2.3a97.52,97.52,0,0,0-10.58-14.31Z"/><path class="cls-2" d="M1836.11,1203.26h-21.84v-3.79h21.84Zm-1.93,38.71h-13.44v2.92h-4V1224h17.42Zm-.19-30.68h-17.17v-3.67H1834Zm-17.17,4.42H1834v3.67h-17.17Zm3.92,12.13v10.27h9.4v-10.27Zm4.92-29.06a47.7,47.7,0,0,0-4.48-8.28l3.49-1.87a51.46,51.46,0,0,1,4.73,8Zm15.06,12.44a28.26,28.26,0,0,1-3.3,3.8,28.38,28.38,0,0,0-2.55-3.36,31.9,31.9,0,0,0,8.09-13l3.61,1v-3.24h-10.08v-3.67h10.08V1189h4.17v10.89h-4c-.5,1.37-1.06,2.8-1.68,4.17h8.09c-.44-1.31-.87-2.86-1.37-4l4-1.12a48.48,48.48,0,0,1,2,5.17h11.57v3.11h-12.13v3.11h10.52V1213h-10.52v3.11h10.52v2.74h-10.52v3.3h13.5v3h-26v1.25h-3.92Zm27.13,17.8a28.23,28.23,0,0,1-9.71,9.64,62.11,62.11,0,0,0,13.69,3.42,14.27,14.27,0,0,0-2.61,3.67,58.08,58.08,0,0,1-15.43-4.85,64.78,64.78,0,0,1-16.8,4.92,15.44,15.44,0,0,0-2-3.73,63.33,63.33,0,0,0,14.69-3.55,29.16,29.16,0,0,1-7.34-6.66l1.93-.68h-7v-3.42h27.07l.75-.19Zm-14.68-21.9h-8.53v3.11h8.53Zm0,5.85h-8.53v3.11h8.53Zm0,5.85h-8.53v3.3h8.53Zm-6.6,12.38a29,29,0,0,0,7.28,5.48,27,27,0,0,0,7.59-5.48Zm14.68-31.36H1857V1189h4.23v3.8h9.4v3.67h-9.4Z"/><path class="cls-2" d="M1888.07,1216.39a57.94,57.94,0,0,0-11.51-6.72l2.49-3.36a55.82,55.82,0,0,1,11.57,6.22Zm-9.4,25.39a185.56,185.56,0,0,0,11.76-19.91l3.36,3a225.54,225.54,0,0,1-11.26,20Zm3.73-52.21a61.13,61.13,0,0,1,11.82,6.47l-2.67,3.86a58.6,58.6,0,0,0-11.64-7Zm45.61,56.07a56.28,56.28,0,0,0-2.86-6.16c-23.09,2.86-25.7,3.3-27.38,4.11a33.3,33.3,0,0,0-1.56-4.6c1.18-.31,2.43-1.8,4-4a103.06,103.06,0,0,0,8.59-15.43h-13.88v-4.42h16V1204h-13.25v-4.42h13.25v-10.7h4.6v10.7h13.75V1204h-13.75v11.08h16.3v4.42h-17.55a124.09,124.09,0,0,1-11,18.42l19.66-2.18a86.88,86.88,0,0,0-5.54-8l3.73-1.74c4.36,5.41,9,12.82,10.89,17.61Z"/><path class="cls-2" d="M2224,1200.27c14.31-12.51,20.91-21.59,20.91-29.43,0-5.23-2.74-9-8.4-9-3.73,0-7,2.3-9.46,5.29l-3.3-3.24c3.73-4,7.65-6.72,13.44-6.72,8.15,0,13.25,5.35,13.25,13.5,0,9.08-7.16,18.36-17.86,28.5,2.36-.19,5.16-.44,7.47-.44h12.63v4.92H2224Z"/><path class="cls-2" d="M2315,1194.18h-22.53v14.25h-4.67v-14.25H2259v-4.48h10.21V1173h18.54v-9.46h-15.12a57.5,57.5,0,0,1-9.46,12.26,28.63,28.63,0,0,0-4-2.92c5.85-5.1,11.08-13.13,14-21.47l4.67,1.12c-.87,2.18-1.87,4.42-2.86,6.53h37.09v4.48h-19.66V1173h18.23v4.36h-18.23v12.32H2315Zm-27.19-4.48v-12.32h-13.94v12.32Z"/><path class="cls-2" d="M2347,1190.63c-8.59,3.92-18,8-24.83,11l-1.68-4.79c2.43-.93,5.35-2.12,8.59-3.49l-1.06-38.46,4.73-.19.93,36.71c4-1.68,8.15-3.48,12.26-5.23Zm27.38,17.55c-2.86-4.29-8.65-10.83-13.94-16.43-4.85,7.34-11.64,12.76-21.34,16.8a26.77,26.77,0,0,0-3.67-4c21.34-7.84,27.94-22.9,30.68-49.78l5,.5c-1.49,13.32-3.86,23.89-8.21,32.23,5.54,5.6,12.13,12.51,15.31,17.11Zm-24-31.67a61.15,61.15,0,0,0-9.58-15.18l4.11-2.05a58.88,58.88,0,0,1,9.83,14.87Z"/><path class="cls-2" d="M2412.65,1160.76v11.08l.81-.93c7.41,3.55,17.17,9.15,22.09,12.88l-3.24,4.17c-4.23-3.48-12.57-8.59-19.66-12.38v32.73h-4.92v-47.54H2384v-4.6h54.95v4.6Z"/><path class="cls-2" d="M2467.23,1163.93c-1.18,2.43-2.43,4.92-3.8,7.22h30.12v31.42c0,2.8-.62,4.17-2.61,4.92s-5.54.81-10.83.81a15.74,15.74,0,0,0-1.56-4.54c4.17.19,7.9.13,9,.13s1.43-.37,1.43-1.31v-6.47h-26.69a22.34,22.34,0,0,1-6.35,12.63,14.81,14.81,0,0,0-3.24-3.61c5.17-5,5.72-11.82,5.72-17.73v-9.08a52.27,52.27,0,0,1-10.08,9.52,31.11,31.11,0,0,0-2.92-3.61c7.28-4.92,12.88-12.26,16.74-20.29h-15.49v-4.36h17.49a81.63,81.63,0,0,0,2.74-8l4.6,1.12a69.93,69.93,0,0,1-2.43,6.91h31.73v4.36Zm21.78,28.19v-6.47h-25.95v1.87c0,1.49-.06,3-.19,4.6Zm0-16.8h-25.95v6.29H2489Z"/><path class="cls-2" d="M2537.73,1193.37h-30.37v-4.17h6v-25.26h-5.23v-4.17h5.23v-7.53h4.23v7.53h11.26v-7.53h4.29v7.53h4.54v4.17h-4.54v25.26h4.54Zm-17.36,2.49a41.1,41.1,0,0,1-9.21,12.57,28.73,28.73,0,0,0-3.73-2.68,32.45,32.45,0,0,0,8.52-11.08Zm-2.74-31.92v5.48h11.26v-5.48Zm0,15.31h11.26v-6.1h-11.26Zm0,10h11.26V1183h-11.26Zm10.76,5.48a46.11,46.11,0,0,1,6.53,9.21l-3.73,2.18a48.79,48.79,0,0,0-6.41-9.46Zm33.91,7.78c0,2.74-.68,4.11-2.36,4.85s-4.67.87-9.27.87a16.36,16.36,0,0,0-1.43-4.48c3.3.06,6.41.06,7.28,0s1.31-.31,1.31-1.31v-14.93H2544.7c-.62,7.41-2.18,15.31-5.91,21.28a13.16,13.16,0,0,0-3.67-2.74c5.16-8.21,5.66-20,5.66-28.87v-22.46h21.53Zm-4.48-19.17V1173h-12.69v4.17c0,1.93-.06,4-.12,6.16Zm-12.69-24.39v9.89h12.69v-9.89Z"/><path class="cls-2" d="M2587.89,1165.62a71.16,71.16,0,0,1-5.41,8.15v34.72h-4.36v-29.62a68.65,68.65,0,0,1-7,6.6,28,28,0,0,0-2.61-4.11,58.2,58.2,0,0,0,15.31-17.17Zm-1.37-12.45a67.66,67.66,0,0,1-14.75,14.75,26.57,26.57,0,0,0-2.55-3.36c4.79-3.24,10.33-8.59,13.07-12.94Zm23,49.66a39.55,39.55,0,0,0,6.78.5c1.49,0,9,0,11.08-.06a16,16,0,0,0-1.49,4.29H2616c-9.83,0-17.24-2-22-10.7a29.66,29.66,0,0,1-6.72,11.7,28.36,28.36,0,0,0-3.55-2.86c5.48-5.23,7.65-13.63,8.4-24.08l4.54.37c-.25,3.11-.68,6-1.18,8.84,2.12,6,5.41,9.21,9.58,10.83v-25h-17.73v-4.17h17.3v-8.65h-14.06v-4h14.06v-8.28H2609v8.28h14.44v4H2609v8.65h17.36v4.17h-16.92v9.27h14.31V1190h-14.31Z"/><path class="cls-2" d="M2658.27,1176h7.34v4.48h-7.34v27.13h-4.48v-27.13h-9.65c-.25,10.33-1.93,20-9.27,27.94a19.5,19.5,0,0,0-3.36-3c6.66-7.22,8-16,8.21-25h-7.59V1176h7.59v-16.61h-6.16V1155h30.37v4.36h-5.66Zm-4.48,0v-16.61h-9.65V1176Zm19.6,16.61H2669v-34.1h4.36Zm12.57-39.89v49.59c0,3-.81,4.36-2.68,5.1s-5.17.93-10.64.93a22.35,22.35,0,0,0-1.56-4.61c4,.13,7.65.06,8.77,0s1.56-.37,1.56-1.43v-49.59Z"/><path class="cls-2" d="M2694.73,1212.1c3.86-1.68,6.16-4.67,6.22-8.46a2.54,2.54,0,0,1-.68.06,3.9,3.9,0,0,1-4.17-4,4,4,0,0,1,4.29-4c3,0,4.79,2.55,4.79,6.72,0,6-3.48,10.64-9.08,13Z"/><path class="cls-2" d="M2730.58,1182.85l-7,2.36v17.42c0,2.61-.62,3.86-2.18,4.61s-3.8.93-7.78.93a21.59,21.59,0,0,0-1.37-4.48c2.61.06,5.1.06,5.79.06s1.12-.25,1.12-1.18v-16c-2.55.87-5,1.68-7.22,2.3l-1.18-4.42c2.3-.68,5.23-1.56,8.4-2.43v-13.88h-7.59v-4.29h7.59v-12.26h4.42v12.26h6.72v4.29h-6.72v12.51l6.41-2Zm35.78-21.09v2.37c-.93,28.69-1.68,38.46-4.11,41.5a6,6,0,0,1-4.73,2.55,72.52,72.52,0,0,1-9-.06,11.08,11.08,0,0,0-1.49-4.67c3.8.31,7.22.31,8.59.31a2.43,2.43,0,0,0,2.49-1c2-2.12,2.86-11.45,3.61-36.78h-22.84a55.17,55.17,0,0,1-6.72,10.14,21.9,21.9,0,0,0-3.67-2.8c4.92-5.29,9-13.38,11.51-21.72l4.42,1a88.53,88.53,0,0,1-3.49,9.08h22.46v.06Zm-27.13,32.17v4.23h-4.17v-24.77h18.85v20.53Zm0-16.49v12.45h10.45v-12.45Z"/><path class="cls-2" d="M2791.75,1166.92a68,68,0,0,1-5.1,7.9v33.54h-4.48v-28.13a71.36,71.36,0,0,1-6.66,6.47,34.25,34.25,0,0,0-2.55-4.54,55.62,55.62,0,0,0,14.69-16.8Zm-.75-13.57a58,58,0,0,1-14.56,14.87,32,32,0,0,0-2.43-3.73c4.67-3.17,10-8.4,12.51-12.76Zm35,26.7a39.35,39.35,0,0,1-12.88,18,51.64,51.64,0,0,0,17.24,6.41,21.43,21.43,0,0,0-3,4.29,51.89,51.89,0,0,1-18.29-7.84,62.43,62.43,0,0,1-18.79,7.59,18.11,18.11,0,0,0-2.37-4.17,57.85,57.85,0,0,0,17.42-6.35,43.94,43.94,0,0,1-10.77-14.5l.75-.25h-3.36v-4.36h30.18l.87-.19Zm-22.9-18.67c0,5.79-1.93,12.45-10.89,16.61a19.57,19.57,0,0,0-3-3.36c8.09-3.73,9.46-8.77,9.46-13.38v-7.47h21v14.31c0,1.8.25,2.43,1.31,2.43h5.41a19.14,19.14,0,0,0,3.3-.31c.12,1.18.25,2.92.44,4a15.83,15.83,0,0,1-3.67.31h-5.72c-4.54,0-5.6-1.74-5.6-6.47v-9.89h-11.95Zm-3.92,21.84a36.76,36.76,0,0,0,10,12.13,33.82,33.82,0,0,0,10.45-12.13Z"/><path class="cls-2" d="M2253.1,1273c-9.52,2.05-19.66,4.23-26.88,5.85l-.87-4.67c6.72-1.31,17.3-3.42,27.38-5.54Zm23.77-26.69a72.38,72.38,0,0,1-11,21.78c2.3,6.41,5.1,10.27,8.15,10.27,1.74,0,2.49-3.24,2.86-11.51a11,11,0,0,0,4,2.61c-.81,10.64-2.55,13.69-7.34,13.69s-8.4-4-11.2-10.76a57.19,57.19,0,0,1-13.13,10.7,27.87,27.87,0,0,0-3.61-3.55,49.12,49.12,0,0,0,14.93-12.2c-2.18-7.28-3.55-16.49-4.36-26.57h-30.55v-4.54H2256c-.19-3.24-.25-6.47-.31-9.77h4.85c0,3.36.06,6.6.19,9.77h18.67v4.54H2261a128.77,128.77,0,0,0,3.24,21.72,67,67,0,0,0,8-17.3Zm-26.13-.06V1265h-21.47V1246.2Zm-4.54,4h-12.63V1261h12.63Zm28.56-14.12a45.81,45.81,0,0,0-10.52-6.78l2.68-2.86a47.73,47.73,0,0,1,10.7,6.41Z"/><path class="cls-2" d="M2305.19,1227.72a90.91,90.91,0,0,1-6.35,12.82v42.31h-4.36V1247.2a66.7,66.7,0,0,1-6.91,8.21,27.86,27.86,0,0,0-2.61-4.48c6.28-5.91,12.32-15.12,15.93-24.52Zm38.21,32.92H2333V1283h-4.54v-22.34h-11.33c-.68,7.9-3.24,16.8-12.2,22.9a17.89,17.89,0,0,0-3.17-3.36c8.15-5.1,10.33-12.76,10.89-19.54h-10.33v-4.48h10.52v-12.51H2304v-4.36h38v4.36h-9v12.51h10.39Zm-29.06-21.53a44,44,0,0,0-5.29-11l3.92-1.56a40.44,40.44,0,0,1,5.6,10.7Zm14.13,17v-12.51h-11.14v12.51Zm9.27-28.37a117.9,117.9,0,0,1-6.84,11.33l-3.67-1.56a72.85,72.85,0,0,0,5.72-11.45Z"/><path class="cls-2" d="M2369.47,1263.44c-1.06-2.05-3.67-6.1-5.79-9.27V1283h-4.54v-27.5c-2.55,6.22-5.79,12.38-9,16.24a20.92,20.92,0,0,0-2.3-4.17c3.92-4.42,8.28-12.38,10.7-19.54h-9.83v-4.36h10.45v-9.4c-2.86.56-5.79,1.06-8.53,1.43a21.34,21.34,0,0,0-1.37-3.61c7-1.12,15.12-2.92,19.79-5l2.8,3.67a55.17,55.17,0,0,1-8.15,2.49v10.39h9.15V1248h-9.15v1.12c1.93,2.18,7.28,9,8.59,10.7Zm28.13,3.3V1283h-4.54v-15.49l-20.29,3.36-.75-4.42,21-3.36v-36.84h4.54v36.09l7.28-1.12.68,4.23Zm-12-8.28c-2.24-2.74-7-6.6-11-9.08l2.86-2.74c4,2.43,8.84,6.1,11.14,8.77ZM2387,1242c-1.93-2.61-6.22-6.29-9.89-8.84l2.92-2.68c3.73,2.36,8.09,5.91,10.14,8.52Z"/><path class="cls-2" d="M2410.73,1274.95c14.31-12.51,20.91-21.59,20.91-29.43,0-5.23-2.74-9-8.4-9-3.73,0-7,2.3-9.46,5.29l-3.3-3.24c3.73-4,7.65-6.72,13.44-6.72,8.15,0,13.25,5.35,13.25,13.5,0,9.08-7.16,18.36-17.86,28.5,2.36-.19,5.16-.44,7.47-.44h12.63v4.92h-28.69Z"/><path class="cls-2" d="M2445.57,1255.35c0-15.87,5.54-23.52,14.25-23.52s14.19,7.72,14.19,23.52-5.54,23.77-14.19,23.77S2445.57,1271.21,2445.57,1255.35Zm22.9,0c0-13.32-3.49-18.92-8.65-18.92s-8.71,5.6-8.71,18.92,3.48,19.23,8.71,19.23S2468.47,1268.79,2468.47,1255.35Z"/><path class="cls-2" d="M2494.86,1234H2481v-3.92h13.88v-3.86h4.54v3.86H2507V1234h-7.59v3.86h-4.54Zm37.89,44.37c0,2.18-.37,3.24-2,4s-4.11.68-8.09.68a17.38,17.38,0,0,0-1.37-3.8c2.92.06,5.29.06,6,0s1-.25,1-.93v-13.07h-18v6.47l7.78-.31a40.55,40.55,0,0,0-2.74-4l3.42-1.12c2.74,3.36,5.54,7.9,6.41,11.08l-3.61,1.31a20.74,20.74,0,0,0-1.49-3.67c-10,.68-20.22,1.18-27.25,1.56l-.37-4,13.44-.5v-6.78h-17.36V1283H2484v-17.8h-2.49v-3.86H2484v-2.24h4.48v2.24h17.36v-3.8H2488v-18.85h40.51v18.85h-18.23v3.8h22.46Zm-40.32-31.8h13.44v-4.48h-13.44Zm13.44,7.65v-4.48h-13.44v4.48Zm29.37-24.14V1234h-14.12v3.92h-4.54V1234h-7.28v-3.92h7.28v-3.86h4.54v3.86Zm-11.26,12h-13.69v4.48H2524Zm0,7.65h-13.69v4.48H2524Z"/><path class="cls-2" d="M2568.22,1265.3c-8.59,3.92-18,8-24.83,11l-1.68-4.79c2.43-.93,5.35-2.12,8.59-3.49l-1.06-38.46,4.73-.19.93,36.71c4-1.68,8.15-3.48,12.26-5.23Zm27.38,17.55c-2.86-4.29-8.65-10.83-13.94-16.43-4.85,7.34-11.64,12.76-21.34,16.8a26.77,26.77,0,0,0-3.67-4c21.34-7.84,27.94-22.9,30.68-49.78l5,.5c-1.49,13.32-3.86,23.89-8.21,32.23,5.54,5.6,12.13,12.51,15.31,17.11Zm-24-31.67a61.15,61.15,0,0,0-9.58-15.18l4.11-2.05a58.91,58.91,0,0,1,9.83,14.87Z"/><path class="cls-2" d="M2633.87,1235.43v11.08l.81-.93c7.41,3.55,17.17,9.15,22.09,12.88l-3.24,4.17c-4.23-3.48-12.57-8.59-19.66-12.38V1283H2629v-47.54h-23.77v-4.6h54.95v4.6Z"/><path class="cls-2" d="M2684.53,1251.24H2697v3.24h-29.81v-3.24h14.44a40.38,40.38,0,0,0-5.85-5.35l3.11-2.37a35.46,35.46,0,0,1,7.22,6.35Zm34.54-8.9h-48.54v-13.75h48.54Zm-25,38.52h-19V1283h-4.23v-13.19H2694Zm-22.65-17.17h22.21v3H2671.4Zm22.28-3h-22.21v-3.11h22.21Zm-8.71-28.5h-10v6.6h10Zm-9.89,40.63v5h14.62v-5Zm24.52-40.63h-10.33v6.6h10.33Zm6.22,41.07h-4.29v-26.45h4.29Zm8.65-41.07h-10.58v6.6h10.58Zm4.92,12.44v32.92c0,2.8-.68,4.11-2.61,4.79s-5.29.81-10.52.81a20.08,20.08,0,0,0-1.49-4.36c4.11.12,7.78.12,8.77.06s1.49-.31,1.49-1.31v-32.92Z"/><path class="cls-2" d="M2759.32,1249.06v8.46H2781v4.23h-21.72v15.18h24.52v4.29h-53.45v-4.29h24.14v-15.18h-21.34v-4.23h21.34v-8.46h-13.44v-3.42a74.58,74.58,0,0,1-9.89,4.54,16.86,16.86,0,0,0-3.11-4.23c11.57-3.8,23-11.08,28.94-20.29l4.23,2c-.44.68-1,1.49-1.56,2.24,6.16,6.6,17.11,13.07,26.57,16.05a16.87,16.87,0,0,0-3.24,4,73,73,0,0,1-10-4.79v3.86Zm-17.11,14.06a51.89,51.89,0,0,1,6,11.14l-4,1.68a50.64,50.64,0,0,0-5.72-11.26Zm30.05-18.36a72.35,72.35,0,0,1-15.12-11.7,64,64,0,0,1-14.56,11.7Zm-7.28,29.81a71.3,71.3,0,0,0,6.47-11.45l4.36,1.68a110.73,110.73,0,0,1-7.34,11.26Z"/><path class="cls-2" d="M214.25,131.95c-7.53,2.86-15.62,5.79-21.84,8l-3-7.09c2.36-.68,5.35-1.56,8.59-2.55V106.44H191V99.59h21.28v6.84h-6.91V128l7.65-2.49Zm8.21,6.84,5.72,4A57.72,57.72,0,0,1,212.07,151a36.62,36.62,0,0,0-4.48-5c5-1.56,11.2-4.61,14.37-7.16h-6.28V105.94h9.77c.31-1.43.56-2.92.81-4.29H213.13V95.42h35.22v6.22H234.59c-.5,1.49-1.06,2.92-1.56,4.29h13v32.86Zm.06-23.46h16.3v-3.92h-16.3Zm0,9h16.3v-4h-16.3Zm0,9.08h16.3v-4h-16.3ZM237,139a92.23,92.23,0,0,1,12.38,7.78l-5.85,4.36a89,89,0,0,0-12-8.21Z"/><path class="cls-2" d="M303.29,96.29v54.07h-7.84v-3.86H266.64v3.86h-7.47V96.29Zm-36.65,7.22v7.16h28.81v-7.16Zm0,14.13V125h28.81v-7.34Zm28.81,21.65v-7.34H266.64v7.34Z"/><path class="cls-2" d="M895.65,143.65c1,0,1.24-.81,1.37-6.66a17.8,17.8,0,0,0,6.35,2.8c-.68,8.34-2.49,10.64-6.85,10.64h-4.17c-5.66,0-6.84-2.24-6.84-8.65V129.34h-2.86c-.93,9.83-3.17,17.55-13.32,22.09a21.35,21.35,0,0,0-3.67-5.17v1.37H853.53v2.61h-6.35V128.78h18.48v16.68c7.72-3.36,9.15-9,9.71-16.12h-4V112.47c-.68.68-1.43,1.37-2.12,2a46,46,0,0,0-5.23-5.23l.25-.19H844.75V103.2h9.33a55.74,55.74,0,0,0-3-7.84l6.22-1.93a45,45,0,0,1,3.42,8L856,103.2h11v3.42a42.8,42.8,0,0,0,8.84-12.88l6.84,2.12a63.65,63.65,0,0,1-8.65,13.69h21.34a116.41,116.41,0,0,0-10.21-12.94l5.16-3.49c4.73,5,10.64,11.89,13.19,16.49l-5.6,4c-.37-.68-.75-1.37-1.24-2.12v17.8h-3.92v12.32c0,1.8.12,2,1,2Zm-30.8-26.2H847.3v-5.6h17.55Zm-17.55,2.74h17.55v5.6H847.3Zm12.26,14.5h-6v7h6Zm18.73-11.76h11V116h-11Z"/><path class="cls-2" d="M916.19,134.31v5.35h-6.84V96.29h20.72v38Zm0-31.3v8.84h7V103Zm7,24.58v-9.15h-7v9.15Zm39.58,14.93c0,3.92-.81,5.85-3.24,7.09s-6,1.37-11.26,1.37a25.26,25.26,0,0,0-2.55-7.16c3.36.19,7.09.13,8.15.06s1.56-.37,1.56-1.43v-11H942.07c-1.43,7.34-4.42,14.75-10.7,19.85a24.63,24.63,0,0,0-5.66-4.79c9.4-7.72,10.21-19.35,10.21-28.69V95.42H962.8Zm-7.34-17.67v-8H943.19v1c0,2.18-.06,4.54-.25,7Zm-12.26-22.59v8h12.26v-8Z"/><path class="cls-2" d="M1652,112.78h7.09v17.3c0,9.77-2.74,17-17,21.16a32.69,32.69,0,0,0-4.48-5.48c5.48-1.43,9-3.3,11.14-5.6-5.23.62-10.21,1.24-14.44,1.74l-.62-6.47c4.67-.31,11.26-.87,18-1.43a24,24,0,0,0,.31-3h-14.5V125.1H1652v-2.92h-15.87V116H1652Zm35.9-1.18h-51V95h51ZM1651.49,101H1644v4.73h7.47Zm14.37,0h-7.59v4.73h7.59Zm24.58,40.63h-17.92v9.27H1665V112.78h7.53V116h16.68v6.28h-16.68v2.86h15.12v6.1h-15.12v3.67h17.92Zm-10-40.63h-7.78v4.73h7.78Z"/><path class="cls-2" d="M1746.51,151.05h-7.65v-2.74h-23.33v2.74h-7.4V131.76c-3,1.06-6.1,1.87-9.21,2.61a27.37,27.37,0,0,0-3.8-6.84,87.87,87.87,0,0,0,21.65-7.28,124.11,124.11,0,0,0-9.77-8.4,48.43,48.43,0,0,1-5.6,3.17,27.3,27.3,0,0,0-5.1-5.91c10.14-4.42,17-10.64,20.78-16.49l8.28,1.74c-1.12,1.56-2.24,3.11-3.49,4.67H1740l1.25-.37,5.1,3c-4.29,9-11.39,16.05-20,21.47h20.1Zm-31.17-45.3c-.81.68-1.56,1.31-2.36,1.93a113.84,113.84,0,0,1,10.64,8.59,46.33,46.33,0,0,0,11.64-10.52Zm23.52,35.9V129.89h-23.33v11.76Z"/><path class="cls-2" d="M2511.42,117h6.35V124h-6.35v26.2h-7.22V124h-6.35c-.25,10-2,19.35-9,27.19a23.39,23.39,0,0,0-5.35-4.79c5.72-6.78,7.16-14.62,7.4-22.4h-6.6V117H2491V103.2h-5.41v-7h30.68v7h-4.79Zm-7.22,0V103.2h-6.29V117ZM2527,134.38h-7V99.65h7ZM2539.49,94v48c0,4.11-.81,6.1-3.17,7.34s-6.1,1.49-11.33,1.49a33,33,0,0,0-2.3-7.59c3.49.12,6.91.12,8,.12s1.49-.31,1.49-1.43V94Z"/><path class="cls-2" d="M2587.34,141.78c5.85,1.93,12.2,4.29,16.12,6l-8.9,3.3a112.73,112.73,0,0,0-15.93-6.53l5-2.74h-16.49l4.54,2.05c-5.16,3-13.07,5.85-19.41,7.41a47.77,47.77,0,0,0-5.35-5.29,83.69,83.69,0,0,0,16.05-4.17h-8.15V117.45h41.69v24.33Zm15.74-26.51h-55.75v-5.1h24.14v-2.3h-17.73v-4.48h17.73v-2.24h-20.6V96.29h20.6V92.93h7.59v3.36h21.47v4.85h-21.47v2.24h18.67v4.48h-18.67v2.3h24Zm-41.13,8.9h27v-2.49h-27Zm0,6.6h27v-2.49h-27Zm0,6.72h27v-2.61h-27Z"/><path class="cls-2" d="M183.56,502A65.67,65.67,0,0,1,169,526.12a61.12,61.12,0,0,0,25.14,12.63A21.3,21.3,0,0,0,191,543a62.9,62.9,0,0,1-25.51-13.63c-7,6.1-15.56,10.58-25.89,13.88a25.82,25.82,0,0,0-2.86-4.29c10.27-2.92,18.6-7.16,25.39-12.88A70.11,70.11,0,0,1,147.16,502h-9.58V497.5h55.75V502ZM152,502a62.88,62.88,0,0,0,13.56,20.85A57.09,57.09,0,0,0,178.34,502Zm13.19-4.67a48.49,48.49,0,0,0-4.6-9.77l4.79-1.37a51.07,51.07,0,0,1,4.85,9.52Z"/><path class="cls-2" d="M254.07,524.32H229.92v13.38c0,2.74-.68,4.11-2.86,4.79s-5.41.81-10.58.81a18.8,18.8,0,0,0-2.12-4.54c4.23.13,8.21.13,9.27.06s1.49-.31,1.49-1.18V524.32H200.86V519.9h24.27V516A51.59,51.59,0,0,0,236,508.76H211.07V504.4h29.56l1-.25,3.17,2.43a64.13,64.13,0,0,1-14.87,11v2.3h24.14Zm-47.91-18.54h-4.54V493.08h24.52a37.2,37.2,0,0,0-3.24-5.48l4.42-1.49a34.39,34.39,0,0,1,4.17,7h22v12.69h-4.73V497.5H206.15Z"/><path class="cls-2" d="M315.67,489.1v54.2h-4.42v-2.43H268.32v2.43H264V489.1Zm-4.42,47.79V493H268.32v43.87Zm-2.74-28.5v2.92H271.24v-2.92h16.37v-2.8H277.47v-9.64H302v9.64H291.53v2.8Zm-33,5.6H304v19.6H275.47Zm3.61,16.68h21.16V516.85H279.08Zm2.24-27.88h16.74v-4.11H281.32Zm1.74,16.74h13.19V528H283.07Zm2.86,6h7.34V522h-7.34Z"/><path class="cls-2" d="M368.63,516.54v26.88H363.9V521.14H337.76c-.93,8.09-3.36,15.93-9.21,22.46a18.14,18.14,0,0,0-3.48-3.42c7.84-9,8.71-20.72,8.71-32V487.29h4.6V502h23.4V486.67h4.67v19.85H338.39v1.68c0,2.8-.06,5.6-.25,8.34Z"/><path class="cls-3" d="M215.25,456.43a4.33,4.33,0,0,1-3.06-1.27l-17.8-17.8H168.45A30.37,30.37,0,0,1,138.12,407V340.3A30.37,30.37,0,0,1,168.45,310h43.77a4.33,4.33,0,0,1,0,8.67H168.45a21.69,21.69,0,0,0-21.67,21.67V407a21.69,21.69,0,0,0,21.67,21.67h28.16a4.33,4.33,0,0,1,4,2.6l10.34,10.34V433a4.33,4.33,0,0,1,4.33-4.33H262A21.69,21.69,0,0,0,283.71,407v-29.9a4.33,4.33,0,0,1,8.67,0V407A30.37,30.37,0,0,1,262,437.36H219.59V452.1a4.33,4.33,0,0,1-4.33,4.33Z"/><path class="cls-3" d="M332.25,375.94a4.33,4.33,0,0,1-3.06-1.27L313,358.48a63.1,63.1,0,0,1-16,2H286a63,63,0,0,1,0-126h11a63.05,63.05,0,0,1,63,63,62.3,62.3,0,0,1-6.84,28.58,63.58,63.58,0,0,1-16.56,20.41v25.07a4.33,4.33,0,0,1-4.33,4.33Zm-18-26.66a4.33,4.33,0,0,1,3.06,1.27l10.6,10.6V344.43a4.33,4.33,0,0,1,1.73-3.46A54.32,54.32,0,0,0,297,243.23H286a54.32,54.32,0,1,0,0,108.63h11a54.33,54.33,0,0,0,16-2.39A4.33,4.33,0,0,1,314.24,349.29Z"/><path class="cls-3" d="M257.28,377.56H165.85a4.33,4.33,0,0,1,0-8.67h91.43a4.33,4.33,0,1,1,0,8.67Z"/><path class="cls-3" d="M257.28,401.83a4.34,4.34,0,1,1,3.06-1.27A4.37,4.37,0,0,1,257.28,401.83Z"/><path class="cls-3" d="M240.24,401.83H165.85a4.33,4.33,0,0,1,0-8.67h74.39a4.33,4.33,0,1,1,0,8.67Z"/><path class="cls-3" d="M229.11,353.3H165.85a4.33,4.33,0,0,1,0-8.67h63.27a4.33,4.33,0,0,1,0,8.67Z"/><path class="cls-3" d="M334.88,299.77H253.34a3.86,3.86,0,0,1,0-7.73h81.54a3.86,3.86,0,1,1,0,7.73Z"/><path class="cls-3" d="M334.88,321.41a3.87,3.87,0,1,1,2.73-1.13A3.89,3.89,0,0,1,334.88,321.41Z"/><path class="cls-3" d="M319.68,321.41H253.34a3.86,3.86,0,0,1,0-7.73h66.34a3.86,3.86,0,1,1,0,7.73Z"/><path class="cls-3" d="M309.76,278.13H253.34a3.86,3.86,0,1,1,0-7.73h56.42a3.86,3.86,0,0,1,0,7.73Z"/><path class="cls-2" d="M185.24,928.84a65.67,65.67,0,0,1-14.56,24.08,61.12,61.12,0,0,0,25.14,12.63,21.3,21.3,0,0,0-3.17,4.29,62.9,62.9,0,0,1-25.51-13.63c-7,6.1-15.56,10.58-25.89,13.88a25.82,25.82,0,0,0-2.86-4.29c10.27-2.92,18.6-7.16,25.39-12.88a70.11,70.11,0,0,1-14.93-24.08h-9.58V924.3H195v4.54Zm-31.61,0a62.88,62.88,0,0,0,13.56,20.85A57.09,57.09,0,0,0,180,928.84Zm13.19-4.67a48.49,48.49,0,0,0-4.6-9.77L167,913a51.07,51.07,0,0,1,4.85,9.52Z"/><path class="cls-2" d="M255.74,951.12H231.6V964.5c0,2.74-.68,4.11-2.86,4.79s-5.41.81-10.58.81a18.8,18.8,0,0,0-2.12-4.54c4.23.13,8.21.13,9.27.06s1.49-.31,1.49-1.18V951.12H202.54V946.7H226.8v-3.86a51.59,51.59,0,0,0,10.83-7.28H212.74v-4.36H242.3l1-.25,3.17,2.43a64.13,64.13,0,0,1-14.87,11v2.3h24.14Zm-47.91-18.54h-4.54V919.88H227.8a37.2,37.2,0,0,0-3.24-5.48l4.42-1.49a34.39,34.39,0,0,1,4.17,7h22v12.69h-4.73V924.3H207.83Z"/><path class="cls-2" d="M317.34,915.9v54.2h-4.42v-2.43H270v2.43H265.7V915.9Zm-4.42,47.79V919.82H270v43.87Zm-2.74-28.5v2.92H272.92v-2.92h16.37v-2.8H279.14v-9.64h24.58v9.64H293.2v2.8Zm-33,5.6h28.56v19.6H277.15Zm3.61,16.68h21.16V943.65H280.76ZM283,929.59h16.74v-4.11H283Zm1.74,16.74h13.19v8.46H284.74Zm2.86,6h7.34v-3.61H287.6Z"/><path class="cls-2" d="M370.3,943.34v26.88h-4.73V947.95H339.44c-.93,8.09-3.36,15.93-9.21,22.46a18.14,18.14,0,0,0-3.48-3.42c7.84-9,8.71-20.72,8.71-32V914.1h4.6v14.69h23.4V913.47h4.67v19.85H340.06V935c0,2.8-.06,5.6-.25,8.34Z"/><g class="cls-4"><path class="cls-3" d="M362,821.75l-38.81-38.81,19-19a6.73,6.73,0,0,0-2.63-11.14L225.34,714.69a6.73,6.73,0,0,0-8.51,8.51L254.9,837.41A6.73,6.73,0,0,0,266,840l19-19,38.81,38.81a6.73,6.73,0,0,0,9.52,0L362,831.27a6.73,6.73,0,0,0,0-9.52Zm-33.31,23.79-38.81-38.81a6.73,6.73,0,0,0-9.52,0l-16.09,16.09-30.37-91.11L325,762.08l-16.09,16.09a6.73,6.73,0,0,0,0,9.52l38.81,38.81Zm0,0"/></g><path class="cls-3" d="M221.71,685.91a6.73,6.73,0,0,0,6.73-6.73V638.8a6.73,6.73,0,1,0-13.46,0v40.38a6.73,6.73,0,0,0,6.73,6.73Zm0,0"/><path class="cls-3" d="M169.36,657.7a6.73,6.73,0,0,0-9.52,9.52l28.55,28.55a6.73,6.73,0,1,0,9.52-9.52Zm0,0"/><path class="cls-3" d="M188.4,743.36l-28.55,28.55a6.73,6.73,0,0,0,9.52,9.52l28.55-28.55a6.73,6.73,0,1,0-9.52-9.52Zm0,0"/><path class="cls-3" d="M255,695.77l28.55-28.55a6.73,6.73,0,1,0-9.52-9.52L245.5,686.25a6.73,6.73,0,1,0,9.52,9.52Zm0,0"/><path class="cls-3" d="M188.06,719.56a6.73,6.73,0,0,0-6.73-6.73H140.95a6.73,6.73,0,1,0,0,13.46h40.38a6.73,6.73,0,0,0,6.73-6.73Zm0,0"/><path class="cls-2" d="M159,1323.85a92.94,92.94,0,0,1-5,12.07v43.31h-4.42v-35.34a62.37,62.37,0,0,1-6,8.21,28,28,0,0,0-2.43-4.67c5.54-6,10.52-15.37,13.63-24.77Zm38.27,2.3v52.46h-4.42v-3.17H165.43v3.67h-4.29v-53Zm-4.42,45.18V1330.2H165.43v41.13Zm-11.7-28.56v6.84h7.16v16.55H170.53v-16.55h6.78v-6.84H168v-3.55h9.33v-7h3.8v7h9.58v3.55Zm3.48,10.33H174.08v9.65h10.52Z"/><path class="cls-2" d="M235.62,1322.61c-.06,2.24-.12,5.35-.44,9,.93,7.4,4.67,33.41,26.63,43.18a14.11,14.11,0,0,0-3.36,3.92c-15.56-7.28-22.21-22.65-25.2-34.22-2.86,12.45-9.46,26.38-24.64,34.47a14.78,14.78,0,0,0-3.73-3.61c25.82-13.07,25.45-43.31,25.64-52.77Z"/><path class="cls-2" d="M285.28,1339.47h-17.8v-3.73h17.8Zm4.92,32.11c-5,3-12.82,5.91-19,7.59a30.14,30.14,0,0,0-3.42-3.49c6.35-1.31,13.81-3.55,18.23-6Zm-6.47-41.88H268.85v-3.61h14.87Zm-8.09,14.62h40.26v25H275.63Zm4.48,7.34h31.17v-4.23H280.12Zm0,7.22h31.17v-4.23H280.12Zm0,7.34h31.17v-4.36H280.12Zm14.93-36a30.69,30.69,0,0,1-4.67,6.22,20.09,20.09,0,0,0-3.48-2.36,26.6,26.6,0,0,0,7.16-11.82l4.17.93c-.37,1.18-.87,2.3-1.31,3.42h20.85l.75-.19,3.11,1.06a58.82,58.82,0,0,1-5.23,9l-3.67-1.31a35.38,35.38,0,0,0,2.92-4.92h-9.89v.81a12.61,12.61,0,0,1-.19,2.05c3.3,3.73,10.08,6.16,18.23,6.84a17.1,17.1,0,0,0-2.61,3.67c-7.09-1-13.07-3.49-16.93-7.28-2.05,3-7,5.91-17.92,7.59a15.07,15.07,0,0,0-2.49-3.42c16.12-2.18,17.61-6.41,17.61-9.65v-.62Zm9.33,39.45a171,171,0,0,1,18.29,6.72l-4,2.68a149.07,149.07,0,0,0-17.42-6.91Z"/><path class="cls-2" d="M338.36,1352.17c-1.31,6.91-3.92,15.62-7.16,20.1a25.57,25.57,0,0,0-2.43-5.1c2.61-3.61,5.17-10.52,6.22-16.05Zm5.54-4.67v31.73H339.6V1347.5h-10v-4.36h10v-20.72h4.29v20.72H354v4.36ZM333.51,1341a64.23,64.23,0,0,0-3.42-13.75l3.36-.81a56.53,56.53,0,0,1,3.67,13.63Zm13.25,10.21c1.18,1.8,5.66,10.27,6.6,12.38l-3.3,3.42c-1.12-3.36-4.54-11.33-5.85-14Zm7.28-24a126.08,126.08,0,0,1-5.1,13.94l-3-1a104,104,0,0,0,4.17-13.94Zm24.27,34.54v17.49H374V1362.5L354.66,1366l-.75-4.36,20-3.55v-35.72h4.36v34.91l7.34-1.31.68,4.23ZM365.68,1353a50.38,50.38,0,0,0-10.27-7.47l2.18-3.24c3.67,1.93,8.21,4.79,10.39,7Zm2.68-15.06a51.43,51.43,0,0,0-9.77-8l2.36-3.11c3.48,2.12,7.78,5.29,9.77,7.59Z"/><path class="cls-3" d="M303.26,1052.74H194.89a16.48,16.48,0,0,0-16.42,16.42V1279.4a16.48,16.48,0,0,0,16.42,16.42H303.26a16.48,16.48,0,0,0,16.42-16.42V1069.16a16.48,16.48,0,0,0-16.42-16.42Zm-71.52,11.83H266.4a2,2,0,1,1,0,4H231.75a2,2,0,1,1,0-4Zm17.33,223a8.21,8.21,0,1,1,8.2-8.21,8.19,8.19,0,0,1-8.2,8.21Zm59.17-22.18H189.89V1078.78H308.25Zm0,0"/><rect class="cls-5" x="52" y="40" width="2948" height="1396" rx="65.36" ry="65.36"/><line class="cls-6" x1="52" y1="184" x2="3000" y2="184"/><line class="cls-5" x1="500" y1="40" x2="500" y2="1436"/><line class="cls-5" x1="1332" y1="40" x2="1332" y2="1436"/><line class="cls-5" x1="2084" y1="40" x2="2084" y2="1436"/><line class="cls-5" x1="52" y1="587" x2="3000" y2="587"/><line class="cls-5" x1="52" y1="1012.72" x2="3000" y2="1012.72"/></svg>