<?xml version="1.0" encoding="utf-8"?>
<!-- Generator: Adobe Illustrator 21.1.0, SVG Export Plug-In . SVG Version: 6.00 Build 0)  -->
<svg version="1.1" id="圖層_1" xmlns="http://www.w3.org/2000/svg" xmlns:xlink="http://www.w3.org/1999/xlink" x="0px" y="0px"
	 viewBox="0 0 3061.4 1484" style="enable-background:new 0 0 3061.4 1484;" xml:space="preserve">
<style type="text/css">
	.st0{fill:#DCDDDD;}
	.st1{fill:#FFFFFF;}
	.st2{clip-path:url(#SVGID_2_);fill:#FFFFFF;}
	.st3{fill:none;stroke:#DCDDDD;stroke-width:5.2713;stroke-miterlimit:10;}
	.st4{fill:none;stroke:#DCDDDD;stroke-width:5;stroke-miterlimit:10;}
</style>
<g>
	<path class="st0" d="M641.1,401c-8.6,3.9-18,8-24.8,11l-1.7-4.8c2.4-0.9,5.4-2.1,8.6-3.5l-1.1-38.5l4.7-0.2l0.9,36.7
		c4-1.7,8.2-3.5,12.3-5.2L641.1,401z M668.5,418.5c-2.9-4.3-8.6-10.8-13.9-16.4c-4.9,7.3-11.6,12.8-21.3,16.8c-0.6-0.9-2.6-3-3.7-4
		c21.3-7.8,27.9-22.9,30.7-49.8l5,0.5c-1.5,13.3-3.9,23.9-8.2,32.2c5.5,5.6,12.1,12.5,15.3,17.1L668.5,418.5z M644.6,386.8
		c-1.7-4.3-5.7-10.6-9.6-15.2l4.1-2.1c4.1,4.5,8.1,10.6,9.8,14.9L644.6,386.8z"/>
	<path class="st0" d="M723.8,377.4c-3.5,9.8-8.3,17.7-14.6,24.1c6.8,5.8,15.2,10.2,25.1,12.6c-1.1,1.1-2.4,3-3.2,4.3
		c-10.1-2.9-18.6-7.4-25.5-13.6c-7,6.1-15.6,10.6-25.9,13.9c-0.6-1.1-1.9-3.2-2.9-4.3c10.3-2.9,18.6-7.2,25.4-12.9
		c-6.4-6.6-11.3-14.7-14.9-24.1h-9.6v-4.5h55.8v4.5H723.8z M692.2,377.4c3.2,7.9,7.7,15,13.6,20.8c5.5-5.6,9.7-12.4,12.8-20.8H692.2
		z M705.4,372.7c-0.7-2.6-2.7-6.7-4.6-9.8l4.8-1.4c1.9,2.9,4,6.9,4.9,9.5L705.4,372.7z"/>
	<path class="st0" d="M794.3,399.7h-24.1V413c0,2.7-0.7,4.1-2.9,4.8c-2.2,0.7-5.4,0.8-10.6,0.8c-0.4-1.3-1.3-3.4-2.1-4.5
		c4.2,0.1,8.2,0.1,9.3,0.1c1.2-0.1,1.5-0.3,1.5-1.2v-13.3h-24.3v-4.4h24.3v-3.9c3.6-1.7,7.7-4.5,10.8-7.3h-24.9v-4.4h29.6l1-0.2
		l3.2,2.4c-3.9,4-9.5,8.2-14.9,11v2.3h24.1V399.7z M746.4,381.1h-4.5v-12.7h24.5c-0.9-1.8-2.1-3.9-3.2-5.5l4.4-1.5
		c1.6,2.1,3.3,4.9,4.2,7h22v12.7h-4.7v-8.3h-42.6V381.1z"/>
	<path class="st0" d="M811.2,370.4c-1.9,2.9-4,5.4-6.2,7.4c-0.6-0.7-2.2-2.3-3.3-3c3.9-3.3,7.5-8.2,9.6-13.3l4.1,1.1
		c-0.6,1.2-1.1,2.5-1.7,3.7h16v4H818c2.1,1.8,4.7,4.1,6,5.6l-3,2.7c-1.4-1.8-4.2-4.6-6.5-6.5l2.2-1.8H811.2z M844.9,399.5h12.4v3.9
		h-12.4v10.5c0,2.7-0.7,3.7-2.7,4.3c-2.1,0.6-5.7,0.6-11.1,0.6c-0.1-1.2-0.7-2.7-1.2-3.9c4.2,0.2,8,0.2,9,0.1
		c1.1-0.1,1.4-0.4,1.4-1.2v-10.4h-37.5v-3.9h37.5v-4.4h4.7V399.5z M858.4,366.4v4h-13.7c2.1,1.9,4.5,4.4,5.8,6.1l-3.2,2.7
		c-1.2-1.8-3.7-4.7-5.9-6.7l2.7-2.1H838c-1.6,2.9-3.4,5.4-5.2,7.5l-0.6-0.5v2.9H855v4h-22.8v5.5h19.3v3.7h-43.4V390h19.5v-5.5H805
		v-4h22.6v-3.9h3.5c-0.6-0.5-1.3-1-1.8-1.3c3.4-3.4,6.2-8.4,7.7-13.7l4.3,1c-0.4,1.4-0.9,2.6-1.4,3.9H858.4z M816.3,404
		c3.5,2.7,8.2,6.7,10.6,9.2l-3.4,2.7c-2.2-2.5-6.8-6.7-10.5-9.5L816.3,404z"/>
	<path class="st0" d="M888.6,400.8c-8.5,2.4-17.5,5-24.1,6.8l-1.2-4.7c2.7-0.6,6.2-1.5,10-2.5v-26.3h-9.1v-4.4h23.3v4.4h-9.6v25.1
		l10.4-2.7L888.6,400.8z M915.3,377.9c-2.1,10.5-5.2,18.6-10,25.1c4.1,5.3,9.3,9.3,15.9,11.8c-1.1,0.9-2.5,2.7-3.2,4
		c-6.5-2.7-11.6-6.8-15.7-12.1c-4.9,5.2-11.3,9.2-19.5,12.2c-0.4-1.1-1.7-3.2-2.6-4.3c8.3-2.7,14.6-6.5,19.3-11.8
		c-3.4-5.4-6-11.8-8-19.1c-1.5,3-3.2,5.7-5,8c-0.9-0.6-2.9-2.1-4-2.7c5.7-6.5,9.9-16.7,12.4-27.1l4.6,0.9c-1,3.6-2.1,7.2-3.4,10.6
		h24.4v4.5H915.3z M894.5,377.9c1.7,7.9,4.4,15.1,8,21c3.8-5.5,6.3-12.5,7.9-21H894.5z"/>
	<path class="st0" d="M956.7,406.4H983v3.3h-26.3v4.5c0,2.4-0.6,3.4-2.5,4c-2,0.6-5.1,0.6-10.1,0.6c-0.3-1.1-0.9-2.5-1.5-3.5
		c3.6,0.1,7.2,0.1,8.2,0.1c0.9-0.1,1.3-0.3,1.3-1.2v-4.4H926v-3.3h26.2v-3.2h-21V400h21v-3.2c-7.5,0.2-15.3,0.3-22.4,0.2
		c0-0.9-0.4-2.1-0.7-2.9c15.7,0.2,35.5-0.4,45.5-1.9l3.2,2.6c-5.7,0.9-13.1,1.5-21.1,1.9v3.4h20v3.2h-20V406.4z M938.7,385.2h-12.3
		v-2.7h12.3v-2h-9.3v-10.7h9.3v-2.1h-11.3V365h11.3v-3h3.7v3h11.6v2.7h-11.6v2.1h9.6v4.2c5.5-1.9,6.5-4.2,6.5-6.7v-3.5h16v6.4
		c0,1.4,0.1,1.7,1,1.7h3.9c0.8,0,2.1,0,2.9-0.2c0.1,1.1,0.2,2.6,0.4,3.5c-0.7,0.3-2,0.3-3.2,0.3h-4.4c-3.8,0-4.6-1.5-4.6-5.4v-2.9
		h-8v0.3c0,3.5-1.6,7.2-8.1,9.6c-0.4-0.7-1.4-1.9-2.3-2.6v5.9h-9.6v2h12v2.7h-12v4h6.2V386h3.5v6h-22.7v-6h3.4v3.3h5.8V385.2z
		 M932.7,374h6V372h-6V374z M938.7,378.4v-2.2h-6v2.2H938.7z M942.5,372v2.1h6.3V372H942.5z M948.7,376.2h-6.3v2.2h6.3V376.2z
		 M978.2,377.8c-1.6,3.9-4.2,6.8-7.5,9.1c3.7,1.5,8,2.6,12.6,3c-0.9,0.8-1.9,2.3-2.4,3.4c-5.1-0.8-9.9-2.3-13.8-4.3
		c-3.7,1.9-8,3-12.6,3.9c-0.4-0.9-1.1-2.4-1.8-3.1c3.9-0.6,7.7-1.5,11-2.8c-2.3-1.7-4.2-3.6-5.7-5.8l2.7-0.9H957v-3.2h18.2l0.8-0.2
		L978.2,377.8z M961.6,380.3c1.3,1.9,3.3,3.5,5.7,4.9c2.2-1.3,4.2-2.9,5.5-4.9H961.6z"/>
	<path class="st0" d="M1004.2,363.5c-1.3,4-2.8,8.2-4.5,12.2v43.1h-4.4v-34.3c-1.6,2.9-3.4,5.5-5.2,7.8c-0.4-1.1-1.7-3.5-2.4-4.7
		c5-6.2,9.6-15.7,12.4-25.3L1004.2,363.5z M1013.3,373.2c-2.1,4-4.4,7.7-6.7,10.4c-0.9-0.7-2.8-2-3.9-2.5
		c4.4-4.7,8.3-11.9,10.5-19.2l4.4,1.1c-0.7,2-1.5,4-2.4,5.9h28v4.2H1013.3z M1040.1,396.1c-0.2,3.9-0.5,7-0.7,9.6h4.2v4.1h-4.7
		c-0.6,3.4-1.2,5.3-2.1,6.3c-1.1,1.5-2.4,2-4.3,2.2c-1.8,0.1-4.9,0.1-7.9-0.1c-0.1-1.2-0.5-2.9-1.2-4c3.2,0.3,6.1,0.3,7.3,0.3
		c1.1,0.1,1.7-0.1,2.3-0.9c0.6-0.6,1-1.8,1.4-3.9h-27.6c0.7-3.7,1.6-8.6,2.2-13.7h-5.7v-4.2h6.3c0.6-4.4,1.1-8.8,1.5-12.7h29.7
		c0,0-0.1,1.6-0.1,2.2c-0.2,3.9-0.3,7.4-0.5,10.5h4.9v4.2H1040.1z M1035,405.6c0.3-2.5,0.6-5.7,0.9-9.6h-22.5
		c-0.4,3.4-0.9,6.7-1.4,9.6H1035z M1015.1,383.2c-0.4,2.8-0.7,5.7-1.1,8.6h13.1c-1.3-2.1-4.2-5-6.8-7l2.4-1.7H1015.1z M1021.3,396.1
		c2.9,2.1,6.1,5.2,7.6,7.5l-2.9,2c-1.4-2.2-4.5-5.5-7.3-7.7L1021.3,396.1z M1023,383.2c2.7,1.9,5.5,4.7,6.8,6.8l-2.7,1.9h8.9
		c0.1-2.6,0.2-5.4,0.4-8.6H1023z"/>
	<path class="st0" d="M1060.6,382.6c-1,5.4-2.9,11.1-6.7,15.6c-0.7-0.8-2.6-2.2-3.7-2.6c6-6.9,6.8-16.3,6.8-23v-7.7h46.7v3.6h-42.4
		v3.6h38.3v3.3h-38.3c-0.1,1.2-0.1,2.4-0.2,3.7h44.9v3.5h-25c3.1,1.4,6.5,3.2,9.7,4.9c3.1-1.2,6.7-2.9,8.9-4.1l3.4,2.1
		c-2.7,1.5-6.1,2.8-9.1,3.9c3.4,1.9,6.3,3.7,8.5,5.3l-2.5,3.1c-4.9-3.7-14.6-9.3-22.3-12.9l1.8-2.1h-8.2v9.5l10.6-1.4
		c0,1.1,0.1,2.7,0.2,3.5c-13.1,2-15,2.4-16.2,3c-0.2-1.1-0.9-2.7-1.5-3.5c1.1-0.4,2.6-1.1,2.6-3.5v-7.7H1060.6z M1107,404.1h-13.1
		v9.3c0,2.6-0.6,3.8-2.6,4.5c-2,0.7-5.4,0.7-10.8,0.7c-0.2-1.2-0.9-2.9-1.5-4.2c4.2,0.1,8,0.1,9,0.1c1.1,0,1.4-0.3,1.4-1.1v-9.2
		h-38.4v-3.9h38.4v-5h4.5v5h13.1V404.1z M1063.9,404.2c3.9,2.1,8.5,5.4,10.8,7.8l-3.4,3c-2.2-2.5-6.7-5.9-10.6-8.2L1063.9,404.2z"/>
	<path class="st0" d="M1143.6,362.1c-0.1,2.2-0.1,5.4-0.4,9c0.9,7.4,4.7,33.4,26.6,43.2c-1.3,1.1-2.7,2.6-3.4,3.9
		c-15.6-7.3-22.2-22.7-25.2-34.2c-2.9,12.4-9.5,26.4-24.6,34.5c-0.8-1.2-2.3-2.6-3.7-3.6c25.8-13.1,25.5-43.3,25.6-52.8H1143.6z"/>
</g>
<g>
	<path class="st0" d="M1523.5,365.3c-4.5,10.2-11.3,20.1-18.2,26.4c-0.9-0.9-2.9-2.9-4.1-3.7c7-5.8,13.4-14.9,17.3-24.3
		L1523.5,365.3z M1541,394.9c5,6.7,11,15.4,13.9,20.9l-4.6,2.6c-0.9-1.7-2.1-3.7-3.4-6c-32.2,2.2-35.7,2.4-38.1,3.3
		c-0.2-1-1.1-3.5-1.8-4.9c1.7-0.4,3.5-2.4,5.8-5.4c2.6-2.9,10.5-13.9,15.7-24.5l5.2,2.2c-5.4,9.6-11.8,19.3-18.2,26.7l28.7-1.6
		c-2.4-3.9-5.2-7.9-7.7-11.2L1541,394.9z M1542.3,363.5c3,9.8,9.2,19.2,16.5,24c-1.1,0.9-2.7,3-3.6,4.3c-7-5.2-13-14.2-16.4-23.6
		h-11.6v-4.7H1542.3z"/>
	<path class="st0" d="M1563.7,417c2.8-2.9,6-7.7,8.1-11.9l4.3,1.1c-2.2,4.3-5.3,9.3-8.2,12.6L1563.7,417z M1593.1,368.4
		c-3.7,18.2-13.3,29-25.2,34.5c-0.6-1-2.2-2.8-3.2-3.5c7.4-3.1,13.8-8.2,18.2-15.6c-2.1-2.4-5.6-5.5-8.8-7.8
		c-2.4,3.5-5.2,6.8-8.2,9.4c-0.4-1.1-1.4-2.9-2-3.9c5.8-5,10.5-13.2,12.8-20.1l4.4,1.3c-0.6,1.6-1.3,3.2-2.1,4.7h10.5l0.8-0.2
		L1593.1,368.4z M1578.2,387.5c-4.3,1.4-8.4,2.7-12.1,3.9l-1.2-3.7c3.4-0.7,8-1.9,12.8-3.2L1578.2,387.5z M1577,371.2
		c-0.4,0.6-0.7,1.2-1.1,1.9c3,2.1,6.4,4.9,8.8,7.2c1.2-2.7,2.4-5.8,3.2-9.1H1577z M1586.7,406.4c0.8,3.6,1.4,8.3,1.5,11.1l-4.5,0.6
		c-0.1-2.9-0.6-7.7-1.3-11.3L1586.7,406.4z M1616.3,402.9c-2.1-5.2-6.6-13.3-11.2-20.1c-1.9,7.2-6.2,14.7-15.4,20.9
		c-0.7-0.9-2.3-2.2-3.5-3c9.6-6.4,13.6-14.2,15.1-21.2h-9.2v-4.4h9.9c0.2-2,0.3-3.9,0.3-5.7v-6.8h4.4v6.8c0,1.8-0.1,3.7-0.2,5.7
		h13.3v4.4h-11.9c4.9,7,10.2,15.7,12.5,21.3L1616.3,402.9z M1599.4,406c1.7,3.5,3.4,8.3,4,11.3l-4.5,0.9c-0.6-2.9-2.1-7.7-3.7-11.4
		L1599.4,406z M1612,404.7c3.1,3.7,6.8,8.9,8.5,12.2l-4.4,2c-1.5-3.3-5-8.6-8.1-12.4L1612,404.7z M1615,373.7
		c-1.2-2.2-4-5.9-6.6-8.4l3.4-2c2.6,2.5,5.5,5.9,6.8,8.3L1615,373.7z"/>
	<path class="st0" d="M1641.8,363.5c-1.3,4-2.8,8.2-4.5,12.2v43.1h-4.4v-34.3c-1.6,2.9-3.4,5.5-5.2,7.8c-0.4-1.1-1.7-3.5-2.4-4.7
		c5-6.2,9.6-15.7,12.4-25.3L1641.8,363.5z M1650.9,373.2c-2.1,4-4.4,7.7-6.7,10.4c-0.9-0.7-2.8-2-3.9-2.5
		c4.4-4.7,8.3-11.9,10.5-19.2l4.4,1.1c-0.7,2-1.5,4-2.4,5.9h28v4.2H1650.9z M1677.7,396.1c-0.2,3.9-0.5,7-0.7,9.6h4.2v4.1h-4.7
		c-0.6,3.4-1.2,5.3-2.1,6.3c-1.1,1.5-2.4,2-4.3,2.2c-1.8,0.1-4.9,0.1-7.9-0.1c-0.1-1.2-0.5-2.9-1.2-4c3.2,0.3,6.1,0.3,7.3,0.3
		c1.1,0.1,1.7-0.1,2.3-0.9c0.6-0.6,1-1.8,1.4-3.9h-27.6c0.7-3.7,1.6-8.6,2.2-13.7h-5.7v-4.2h6.3c0.6-4.4,1.1-8.8,1.5-12.7h29.7
		c0,0-0.1,1.6-0.1,2.2c-0.2,3.9-0.3,7.4-0.5,10.5h4.9v4.2H1677.7z M1672.6,405.6c0.3-2.5,0.6-5.7,0.9-9.6H1651
		c-0.4,3.4-0.9,6.7-1.4,9.6H1672.6z M1652.7,383.2c-0.4,2.8-0.7,5.7-1.1,8.6h13.1c-1.3-2.1-4.2-5-6.8-7l2.4-1.7H1652.7z
		 M1658.9,396.1c2.9,2.1,6.1,5.2,7.6,7.5l-2.9,2c-1.4-2.2-4.5-5.5-7.3-7.7L1658.9,396.1z M1660.6,383.2c2.7,1.9,5.5,4.7,6.8,6.8
		l-2.7,1.9h8.9c0.1-2.6,0.2-5.4,0.4-8.6H1660.6z"/>
	<path class="st0" d="M1698.2,382.6c-1,5.4-2.9,11.1-6.7,15.6c-0.7-0.8-2.6-2.2-3.7-2.6c6-6.9,6.8-16.3,6.8-23v-7.7h46.7v3.6H1699
		v3.6h38.3v3.3H1699c-0.1,1.2-0.1,2.4-0.2,3.7h44.9v3.5h-25c3.1,1.4,6.5,3.2,9.7,4.9c3.1-1.2,6.7-2.9,8.9-4.1l3.4,2.1
		c-2.7,1.5-6.1,2.8-9.1,3.9c3.4,1.9,6.3,3.7,8.5,5.3l-2.5,3.1c-4.9-3.7-14.6-9.3-22.3-12.9l1.8-2.1h-8.2v9.5l10.6-1.4
		c0,1.1,0.1,2.7,0.2,3.5c-13.1,2-15,2.4-16.2,3c-0.2-1.1-0.9-2.7-1.5-3.5c1.1-0.4,2.6-1.1,2.6-3.5v-7.7H1698.2z M1744.6,404.1h-13.1
		v9.3c0,2.6-0.6,3.8-2.6,4.5c-2,0.7-5.4,0.7-10.8,0.7c-0.2-1.2-0.9-2.9-1.5-4.2c4.2,0.1,8,0.1,9,0.1c1.1,0,1.4-0.3,1.4-1.1v-9.2
		h-38.4v-3.9h38.4v-5h4.5v5h13.1V404.1z M1701.5,404.2c3.9,2.1,8.5,5.4,10.8,7.8l-3.4,3c-2.2-2.5-6.7-5.9-10.6-8.2L1701.5,404.2z"/>
	<path class="st0" d="M1770.1,381.2h4.4v16.9c0,9.3-2.4,16.3-16.9,20.7c-0.6-1.1-1.9-2.6-2.9-3.4c7.5-2.2,11.4-5,13.4-8.5
		c-6.1,1-12.1,1.9-16.9,2.7l-0.5-4.2c4.9-0.6,11.8-1.5,18.9-2.4c0.3-1.4,0.4-3,0.4-4.7h-15.6v-3.9h15.6v-4.7h-17v-4h17V381.2z
		 M1803.9,379.8h-49.8v-15.4h49.8V379.8z M1769,368.3h-10.5v7.7h10.5V368.3z M1784.1,368.3h-10.8v7.7h10.8V368.3z M1806.9,408.4
		h-19.2v10.1h-4.6v-37.4h4.6v4.7h17.9v4h-17.9v4.7h16.5v4h-16.5v5.7h19.2V408.4z M1799.4,368.3h-11v7.7h11V368.3z"/>
</g>
<g>
	<path class="st0" d="M2241.5,393.2l-7,2.4V413c0,2.6-0.6,3.9-2.2,4.6c-1.4,0.7-3.8,0.9-7.8,0.9c-0.2-1.2-0.8-3.2-1.4-4.5
		c2.6,0.1,5.1,0.1,5.8,0.1c0.7,0,1.1-0.2,1.1-1.2v-16c-2.6,0.9-5,1.7-7.2,2.3l-1.2-4.4c2.3-0.7,5.2-1.6,8.4-2.4v-13.9h-7.6v-4.3h7.6
		V362h4.4v12.3h6.7v4.3h-6.7V391l6.4-2L2241.5,393.2z M2277.3,372.1v2.4c-0.9,28.7-1.7,38.5-4.1,41.5c-1.3,1.7-2.6,2.3-4.7,2.6
		c-2.1,0.2-5.5,0.1-9-0.1c-0.1-1.4-0.6-3.4-1.5-4.7c3.8,0.3,7.2,0.3,8.6,0.3c1.2,0.1,1.9-0.1,2.5-1c2-2.1,2.9-11.4,3.6-36.8h-22.8
		c-2,3.9-4.4,7.3-6.7,10.1c-0.7-0.7-2.6-2.2-3.7-2.8c4.9-5.3,9-13.4,11.5-21.7l4.4,1c-1,3.1-2.2,6.2-3.5,9.1h22.5v0.1H2277.3z
		 M2250.1,404.3v4.2h-4.2v-24.8h18.9v20.5H2250.1z M2250.1,387.8v12.4h10.5v-12.4H2250.1z"/>
	<path class="st0" d="M2302.6,377.3c-1.4,2.7-3.2,5.4-5.1,7.9v33.5h-4.5v-28.1c-2.2,2.4-4.5,4.6-6.7,6.5c-0.4-1-1.7-3.4-2.6-4.5
		c5.5-4.1,11.2-10.4,14.7-16.8L2302.6,377.3z M2301.9,363.7c-3.5,5.4-9.3,11.2-14.6,14.9c-0.6-1.1-1.7-2.9-2.4-3.7
		c4.7-3.2,10-8.4,12.5-12.8L2301.9,363.7z M2336.9,390.4c-2.7,7.7-7.3,13.5-12.9,18c4.9,3,10.8,5.2,17.2,6.4c-1,1.1-2.4,2.9-3,4.3
		c-7-1.6-13.2-4.2-18.3-7.8c-5.6,3.5-12.1,6-18.8,7.6c-0.5-1.3-1.6-3.2-2.4-4.2c6.2-1.2,12.1-3.3,17.4-6.3c-4.5-4-8.2-8.8-10.8-14.5
		l0.7-0.2h-3.4v-4.4h30.2l0.9-0.2L2336.9,390.4z M2314,371.7c0,5.8-1.9,12.4-10.9,16.6c-0.6-0.9-2.2-2.7-3-3.4
		c8.1-3.7,9.5-8.8,9.5-13.4v-7.5h21v14.3c0,1.8,0.2,2.4,1.3,2.4h5.4c0.9,0,2.4-0.1,3.3-0.3c0.1,1.2,0.2,2.9,0.4,4
		c-0.9,0.2-2.4,0.3-3.7,0.3h-5.7c-4.5,0-5.6-1.7-5.6-6.5v-9.9H2314V371.7z M2310.1,393.6c2.4,4.7,5.8,8.8,10,12.1
		c4.4-3.2,8-7.3,10.5-12.1H2310.1z"/>
	<path class="st0" d="M2375.9,408.6c-9.5,2.1-19.7,4.2-26.9,5.8l-0.9-4.7c6.7-1.3,17.3-3.4,27.4-5.5L2375.9,408.6z M2399.7,381.9
		c-2.7,8.3-6.3,15.6-11,21.8c2.3,6.4,5.1,10.3,8.2,10.3c1.7,0,2.5-3.2,2.9-11.5c1.1,1.1,2.7,2.2,4,2.6c-0.8,10.6-2.6,13.7-7.3,13.7
		c-4.7,0-8.4-4-11.2-10.8c-3.9,4.2-8.2,7.8-13.1,10.7c-0.7-0.9-2.6-2.7-3.6-3.5c5.8-3.1,10.8-7.2,14.9-12.2
		c-2.2-7.3-3.5-16.5-4.4-26.6h-30.6v-4.5h30.3c-0.2-3.2-0.2-6.5-0.3-9.8h4.9c0,3.4,0.1,6.6,0.2,9.8h18.7v4.5h-18.4
		c0.6,8.2,1.7,15.7,3.2,21.7c3.4-5.1,6-10.8,8-17.3L2399.7,381.9z M2373.5,381.9v18.8h-21.5v-18.8H2373.5z M2369,385.9h-12.6v10.8
		h12.6V385.9z M2397.5,371.8c-2.2-2.1-6.7-5-10.5-6.8l2.7-2.9c3.8,1.7,8.4,4.4,10.7,6.4L2397.5,371.8z"/>
	<path class="st0" d="M2413,406.6c1.9,2.2,4.7,3.5,7.7,3.5c5.9,0,11-4.9,11.4-19c-2.7,3.4-6.7,5.7-10.5,5.7
		c-7.6,0-12.6-4.9-12.6-14.4c0-8.8,6-14.8,13.1-14.8c8.8,0,15.3,7.2,15.3,21.7c0,18.5-8,25.6-16.6,25.6c-4.9,0-8.4-2-11-4.7
		L2413,406.6z M2432.1,386.3c-0.6-9.4-4.1-14.4-10-14.4c-4.4,0-7.7,4.1-7.7,10.3c0,6.2,2.7,10.1,8.2,10.1
		C2425.6,392.4,2429,390.7,2432.1,386.3z"/>
	<path class="st0" d="M2443.9,391c0-15.9,5.5-23.5,14.3-23.5c8.6,0,14.2,7.7,14.2,23.5c0,15.9-5.5,23.8-14.2,23.8
		C2449.4,414.8,2443.9,406.9,2443.9,391z M2466.8,391c0-13.3-3.5-18.9-8.6-18.9c-5.2,0-8.7,5.6-8.7,18.9c0,13.4,3.5,19.2,8.7,19.2
		C2463.3,410.2,2466.8,404.5,2466.8,391z"/>
	<path class="st0" d="M2478.4,391c0-15.9,5.5-23.5,14.3-23.5c8.6,0,14.2,7.7,14.2,23.5c0,15.9-5.5,23.8-14.2,23.8
		C2484,414.8,2478.4,406.9,2478.4,391z M2501.3,391c0-13.3-3.5-18.9-8.6-18.9c-5.2,0-8.7,5.6-8.7,18.9c0,13.4,3.5,19.2,8.7,19.2
		C2497.8,410.2,2501.3,404.5,2501.3,391z"/>
	<path class="st0" d="M2513,391c0-15.9,5.5-23.5,14.3-23.5c8.6,0,14.2,7.7,14.2,23.5c0,15.9-5.5,23.8-14.2,23.8
		C2518.5,414.8,2513,406.9,2513,391z M2535.9,391c0-13.3-3.5-18.9-8.6-18.9c-5.2,0-8.7,5.6-8.7,18.9c0,13.4,3.5,19.2,8.7,19.2
		C2532.4,410.2,2535.9,404.5,2535.9,391z"/>
	<path class="st0" d="M2596.4,413.2c2.5,0,2.9-1.6,3.2-11.1c1.1,0.9,3,1.7,4.3,2.1c-0.5,10.6-1.7,13.5-7.2,13.5h-8.9
		c-5.5,0-7-1.6-7-6.9v-22.2h-11.6c-1.2,13.3-4.2,24.2-18.5,30c-0.6-1.1-1.9-2.8-2.9-3.6c13.3-5,15.6-14.7,16.5-26.4h-15.7v-4.5h54.4
		v4.5h-17.5v22.1c0,2.1,0.5,2.6,2.9,2.6H2596.4z M2597.7,371.2h-43.8v-4.4h43.8V371.2z"/>
	<path class="st0" d="M2635.6,401c-8.6,3.9-18,8-24.8,11l-1.7-4.8c2.4-0.9,5.4-2.1,8.6-3.5l-1.1-38.5l4.7-0.2l0.9,36.7
		c4-1.7,8.2-3.5,12.3-5.2L2635.6,401z M2663,418.5c-2.9-4.3-8.6-10.8-13.9-16.4c-4.9,7.3-11.6,12.8-21.3,16.8c-0.6-0.9-2.6-3-3.7-4
		c21.3-7.8,27.9-22.9,30.7-49.8l5,0.5c-1.5,13.3-3.9,23.9-8.2,32.2c5.5,5.6,12.1,12.5,15.3,17.1L2663,418.5z M2639,386.8
		c-1.7-4.3-5.7-10.6-9.6-15.2l4.1-2.1c4.1,4.5,8.1,10.6,9.8,14.9L2639,386.8z"/>
	<path class="st0" d="M2701.3,371.1v11.1l0.8-0.9c7.4,3.5,17.2,9.1,22.1,12.9l-3.2,4.2c-4.2-3.5-12.6-8.6-19.7-12.4v32.7h-4.9v-47.5
		h-23.8v-4.6h54.9v4.6H2701.3z"/>
	<path class="st0" d="M2751.9,386.9h12.5v3.2h-29.8v-3.2h14.4c-1.6-1.7-3.8-3.9-5.8-5.4l3.1-2.4c2.7,1.9,5.7,4.4,7.2,6.3
		L2751.9,386.9z M2786.5,378h-48.5v-13.8h48.5V378z M2761.4,416.5h-19v2.1h-4.2v-13.2h23.2V416.5z M2738.8,399.4h22.2v3h-22.2V399.4
		z M2761.1,396.3h-22.2v-3.1h22.2V396.3z M2752.4,367.8h-10v6.6h10V367.8z M2742.5,408.4v5h14.6v-5H2742.5z M2767,367.8h-10.3v6.6
		h10.3V367.8z M2773.2,408.9h-4.3v-26.4h4.3V408.9z M2781.9,367.8h-10.6v6.6h10.6V367.8z M2786.8,380.3v32.9c0,2.8-0.7,4.1-2.6,4.8
		c-1.9,0.7-5.3,0.8-10.5,0.8c-0.2-1.2-0.9-3.1-1.5-4.4c4.1,0.1,7.8,0.1,8.8,0.1c1.1-0.1,1.5-0.3,1.5-1.3v-32.9H2786.8z"/>
	<path class="st0" d="M2826.7,384.7v8.5h21.7v4.2h-21.7v15.2h24.5v4.3h-53.5v-4.3h24.1v-15.2h-21.3v-4.2h21.3v-8.5h-13.4v-3.4
		c-3.2,1.7-6.5,3.3-9.9,4.5c-0.7-1.3-1.9-3.2-3.1-4.2c11.6-3.8,23-11.1,28.9-20.3l4.2,2c-0.4,0.7-1,1.5-1.6,2.2
		c6.2,6.6,17.1,13.1,26.6,16.1c-1.1,0.9-2.6,2.8-3.2,4c-3.2-1.2-6.7-2.9-10-4.8v3.9H2826.7z M2809.6,398.8c2.4,3.5,5,8.2,6,11.1
		l-4,1.7c-0.9-2.9-3.4-7.8-5.7-11.3L2809.6,398.8z M2839.7,380.4c-5.6-3.3-11.1-7.5-15.1-11.7c-4.1,4.5-9.1,8.5-14.6,11.7H2839.7z
		 M2832.4,410.2c2.2-3,5-8,6.5-11.4l4.4,1.7c-2.2,3.9-5.1,8.3-7.3,11.3L2832.4,410.2z"/>
</g>
<g>
	<path class="st0" d="M646.8,796.8h-30.2v-4h7.2v-7.3h-6.2v-3.9h6.2v-7h4.2v7h8v-7h4.3v7h6.3v3.9h-6.3v7.3h6.4V796.8z M643.2,826.2
		c0,2.2-0.4,3.4-2,4c-1.5,0.7-4,0.7-7.7,0.7c-0.2-1.1-0.8-2.8-1.4-3.9c2.7,0.1,5.1,0.1,5.8,0c0.7,0,1-0.2,1-0.9v-7.7
		c-4.4,1.8-8.7,3.6-12.4,5.1l-1.7-3.8c3.6-1.1,8.8-2.9,14.1-4.7v-11h-13.6v8.3c0,5.9-0.7,13.6-4.7,19c-0.7-0.7-2.5-2.1-3.4-2.6
		c3.6-4.9,4-11.3,4-16.4v-11.8h22.1V826.2z M628.1,806.3c3.4,1.6,7.3,3.7,9.4,5.2l-2.1,3c-2.1-1.5-6-4-9.3-5.5L628.1,806.3z
		 M628.1,792.8h8v-7.3h-8V792.8z M669.5,789.9c-1.4,10.1-3.5,18.5-7.2,25.4c3,5.2,6.8,9.3,11.7,11.8c-1.1,0.9-2.5,2.6-3.1,3.8
		c-4.5-2.7-8.2-6.6-11-11.4c-3.1,4.5-7,8.3-12.1,11.4c-0.4-0.9-1.7-2.8-2.6-3.7c5.4-3,9.3-7,12.3-12c-2.6-5.3-4.4-11.5-5.9-18.3
		c-1.2,3-2.6,5.7-4.1,8.1c-0.6-0.9-2.2-2.7-3.1-3.6c4.4-6.6,7.1-16.9,8.6-27.4l4.4,0.7c-0.6,3.7-1.3,7.3-2.2,10.8h18.2v4.4H669.5z
		 M659.9,810.7c2.6-5.8,4.2-12.7,5.2-20.8H654C655.3,797.6,657.1,804.7,659.9,810.7z"/>
	<path class="st0" d="M697,775.6c-1.7,4.6-3.9,9.1-6.4,13.4v41.7h-4.4v-34.9c-2,2.9-4.1,5.4-6.3,7.7c-0.5-1.1-1.7-3.5-2.6-4.5
		c6.1-6,11.8-15.2,15.4-24.7L697,775.6z M709.9,787.8c-1.6,3.8-3.5,7.3-5.6,10.5h10.1v-8h4.5v8H733v19.2c0,2.2-0.4,3.5-2.1,4.2
		c-1.6,0.7-4,0.7-7.8,0.7c-0.1-1.2-0.7-2.9-1.3-4.2c2.7,0.1,5,0.1,5.8,0.1c0.7-0.1,0.9-0.2,0.9-0.9v-14.9h-9.6v28.3h-4.5v-28.3h-9
		v20.6h-4.4v-20.3c-1.9,2.4-4,4.5-6.2,6.5c-0.6-0.9-2.2-2.8-3.2-3.6c5.5-4.5,10-10.6,13.3-17.9h-10.6v-4.2h12.4
		c1.2-3.1,2.2-6.3,3.1-9.7l4.4,0.9c-0.8,3-1.7,6-2.8,8.8h24.1v4.2H709.9z"/>
	<path class="st0" d="M754.6,807.4v18c0,2.6-0.6,3.9-2.2,4.6c-1.6,0.7-4.1,0.8-8.3,0.7c-0.2-1.1-0.7-3-1.4-4.2
		c2.8,0.1,5.4,0.1,6.2,0c0.8,0,1.1-0.2,1.1-1.2v-16.7l-8.5,2.6l-1.2-4.5c2.7-0.7,6-1.6,9.7-2.7v-13.3h-8.8v-4.2h8.8v-12.5h4.5v12.5
		h7.2v4.2h-7.2v12l7.2-2.2l0.6,4.3L754.6,807.4z M771.7,820.3l4.1,2.5c-3.6,3.2-9.6,6.3-14.4,8.2c-0.7-0.9-2.2-2.4-3.2-3.3
		c4.8-1.7,10.6-4.7,13.3-7.3h-6.8v-27.4h30.6v27.4H771.7z M793.7,789.5h-27.4v-13.3h27.4V789.5z M769,800.9h21.7v-4.5H769V800.9z
		 M769,808.8h21.7v-4.6H769V808.8z M769,816.8h21.7v-4.7H769V816.8z M789.2,779.7h-18.7v6.4h18.7V779.7z M786.3,820.4
		c4.4,2.4,9.2,5.7,12.1,8.1l-4.5,2.4c-2.4-2.4-6.9-5.6-10.9-8L786.3,820.4z"/>
	<path class="st0" d="M832.2,823.6c-10,1.4-20.7,3-28.1,4l-0.7-4.4c3.4-0.4,7.6-0.9,12.2-1.6v-8.3h-10.5v-4h10.5v-6h4.3v6h10.8v4
		h-10.8v7.7c4-0.4,8.2-1.1,12.3-1.6L832.2,823.6z M830.5,801.8h-24.8v-22.2c3-1.2,7.3-3.4,9.9-4.9l2.7,3c-2.6,1.6-5.9,2.8-8.6,3.9
		v6.3h6.5v3.7h-6.5v6.4h16.9v-6.4h-7v-3.7h7v-6.2h-7.2v-3.8h11.2V801.8z M857.6,802.3c-2,7.2-5.3,12.9-9.6,17.5
		c3.5,3.3,7.7,5.8,12.6,7.3c-1.1,0.9-2.4,2.7-2.9,3.9c-5-1.8-9.2-4.5-12.8-8.2c-4.3,3.7-9.3,6.4-14.6,8.2c-0.5-1.1-1.7-2.9-2.6-3.9
		c5.1-1.6,10.1-4,14.2-7.6c-2.9-3.7-5.2-8.1-6.8-12.9l4-1.1c1.4,4.1,3.4,7.8,6,11c2.8-3.1,5.2-6.8,6.8-11h-19.2v-4.2H854l0.8-0.2
		L857.6,802.3z M840.4,785.6c0,5-1.1,11.1-6.7,15.2c-0.6-0.8-2.2-2.4-3-2.9c4.9-3.5,5.5-8.2,5.5-12.3v-8.8h17.1v14.7
		c0,1.7,0.1,2.2,0.9,2.2h3.1c0.7,0,1.9-0.1,2.6-0.3c0.1,1.1,0.2,2.8,0.4,3.9c-0.7,0.2-1.9,0.3-2.9,0.3h-3.5c-4,0-4.8-1.7-4.8-6.2
		v-10.5h-8.7V785.6z"/>
	<path class="st0" d="M883.8,775.7c-1.7,4.6-4,9.3-6.5,13.6v41.6h-4.4V796c-1.9,2.8-4,5.3-6.2,7.5c-0.4-1.1-1.7-3.4-2.6-4.5
		c6.1-6,11.9-15.2,15.4-24.7L883.8,775.7z M913.4,826.1c3.7,0,4.4-1.7,4.9-9c1.1,0.7,2.9,1.5,4.2,1.7c-0.8,8.6-2.2,11.4-9,11.4
		h-16.4c-7.3,0-9.5-1.7-9.5-8.6v-20.4l-6.2,2.4l-1.7-4l7.9-3.1v-16.2h4.4v14.5l9.1-3.6v-17h4.2v15.4l10.3-4l0.9-0.7l3.4,1.1
		l-0.2,0.9c-0.2,9-0.8,20.8-1.8,28.2l-3.8-1.1c0.6-5.8,1-15.4,1.1-23.5l-10,3.9v22.8h-4.2V796l-9.1,3.6v22.1c0,3.6,0.9,4.4,5.2,4.4
		H913.4z"/>
	<path class="st0" d="M958.6,774.3c-0.1,2.2-0.1,5.4-0.4,9c0.9,7.4,4.7,33.4,26.6,43.2c-1.3,1.1-2.7,2.6-3.4,3.9
		c-15.6-7.3-22.2-22.7-25.2-34.2c-2.9,12.4-9.5,26.4-24.6,34.5c-0.8-1.2-2.3-2.6-3.7-3.6c25.8-13.1,25.5-43.3,25.6-52.8H958.6z"/>
	<path class="st0" d="M1040,830.9h-4.7v-3.2h-27.6v3.2h-4.5v-20.5c-3.4,1.2-6.9,2.2-10.3,3c-0.4-1.2-1.4-3.2-2.4-4.2
		c7.9-1.6,16.1-4.5,23.5-8.5c-3-3-7.7-6.7-11.8-9.8c-2.2,1.5-4.5,2.9-7,4.2c-0.7-1.1-2.2-2.8-3.2-3.5c10-4.9,17-11.8,20.8-17.7
		l5.2,1.1c-1.2,1.7-2.5,3.5-4,5.3h22l0.7-0.2l3.1,1.9c-5.1,9.9-14.1,17.5-24.4,23h24.7V830.9z M1009.8,784.5
		c-1.3,1.3-2.7,2.5-4.2,3.7c4.2,3,9.5,6.9,12.5,9.8c6-3.7,11.1-8.3,14.7-13.6H1009.8z M1035.2,823.4v-14.1h-27.6v14.1H1035.2z"/>
	<path class="st0" d="M1094.7,797.3c3.8,3.7,9.7,6.9,15.2,8.5c-1,0.8-2.2,2.4-2.8,3.4c-3-1.1-6.1-2.6-9-4.5v1.4h-35.3v-0.7
		c-2.8,1.9-5.8,3.4-8.8,4.4c-0.6-1.1-1.9-2.5-2.8-3.3c5.7-1.7,11.8-5.2,15.6-9.1h-14v-3.2h6.7l-1-16.6c3.9-0.7,8.6-1.8,11.4-2.7
		l2.4,2.7c-2.9,0.7-6.4,1.5-9.8,2.1l0.2,2.6h8.5v2.9h-8.3l0.2,3h8.2v2.9h-8l0.2,3.2h33.5l0.3-3.2h-7.9v-2.9h8.2l0.2-3h-8.4v-2.9h8.6
		l0.1-2.9h-8.9v-3h13.2c-0.3,5.7-0.7,12.9-1.2,17.9h7.2v3.2H1094.7z M1060.6,818.9h39.7v11.9h-4.5v-2.6H1065v2.6h-4.4V818.9z
		 M1099.1,811.2h-37.4v-2.6h37.4V811.2z M1061.7,813.7h37.4v2.7h-37.4V813.7z M1065,821.6v4h30.8v-4H1065z M1096,803.3
		c-2.4-1.8-4.5-3.9-6.2-6h-18c-1.6,2.1-3.7,4.2-6,6h13.7c-0.7-1.2-1.6-2.6-2.6-3.7l4.2-0.8c1.2,1.3,2.4,3,3.1,4.5H1096z
		 M1079.3,786.7c-0.5,2.2-1.6,5.1-2.9,6.8l-3-1.1c1.3-1.5,2.4-4,2.9-6.3L1079.3,786.7z M1087.4,783.8c-0.2,5.4-0.3,7.5-1.1,8.4
		c-0.6,0.7-1.4,1.1-2.7,1.1c-0.8,0.1-2.3,0.1-3.7-0.1c-0.1-0.7-0.4-1.8-0.7-2.6c1.3,0.2,2.4,0.2,2.9,0.2c0.4,0,0.7-0.1,1-0.4
		c0.3-0.5,0.4-1.8,0.5-5.4h-9.1v-11.1h3.5v3h9.6v2.7h-9.6v2.7h9.3V783.8z"/>
</g>
<g>
	<path class="st0" d="M1503.4,784.6h20.5v3.8h-20.5V784.6z M1522.2,796.5h-16.5v-3.7h16.5V796.5z M1505.7,800.9h16.5v3.7h-16.5
		V800.9z M1522.6,827.1h-12.8v2.9h-4v-20.9h16.8V827.1z M1514.1,783.9c-0.8-2.2-2.9-5.7-4.5-8.3l3.5-1.8c1.9,2.6,3.9,5.8,4.8,8
		L1514.1,783.9z M1509.8,813v10.3h8.6V813H1509.8z M1534.7,774.1h4.3v29.4c0,11.7-1.2,21.2-10.1,27.8c-0.7-0.9-2.4-2.4-3.5-3
		c5.4-3.9,7.8-8.7,8.6-14.5c-2.9,1.1-5.7,2.4-8.2,3.4l-1.9-4.1c2.9-0.8,6.5-2.1,10.6-3.4c0.1-2.1,0.2-4.1,0.2-6.3v-1.7h-8.7v-4.1
		h8.7v-8.6h-8.9v-4.2h8.9V774.1z M1559.9,814.7H1549v16.2h-4.4v-56.7h4.4v10.5h10.3v4.2H1549v8.6h9.7v4.1h-9.7v8.9h10.9V814.7z"/>
	<path class="st0" d="M1565.4,784.6h20.7v3.8h-20.7V784.6z M1584.1,796.5h-16.4v-3.7h16.4V796.5z M1567.7,800.9h16.4v3.7h-16.4
		V800.9z M1584.5,827.1h-13.1v2.9h-3.7v-20.9h16.8V827.1z M1571.4,813v10.3h9.4V813H1571.4z M1575.9,783.9c-0.8-2.2-2.7-5.7-4.2-8.3
		l3.3-1.8c1.6,2.6,3.5,5.8,4.3,8L1575.9,783.9z M1605.4,797.4c0.7,2,1.4,4.4,1.7,6.2h13.1v4h-18.5c-0.1,2.1-0.3,4-0.6,5.8h16.3
		c0,0-0.1,1.2-0.1,1.9c-0.7,9.2-1.5,12.9-2.8,14.5c-0.9,1.1-2,1.4-3.5,1.5c-1.4,0.1-3.9,0.1-6.6-0.1c-0.1-1.2-0.6-2.9-1.1-4
		c2.5,0.3,5,0.3,5.9,0.3c0.9,0,1.4-0.1,1.8-0.5c0.8-0.9,1.4-3.5,1.9-9.7h-12.7c-1.6,6.2-4.9,10.8-11.5,13.9
		c-0.4-1.1-1.6-2.6-2.5-3.4c8.7-3.7,10.6-10.5,11.4-20.2h-8.9v-4h14.2c-0.3-1.7-0.8-3.9-1.4-5.5L1605.4,797.4z M1621.3,791.7v9.8
		h-4.2v-6.1H1592v6.1h-4v-9.8h20.3c0.9-2.3,2.1-5.5,2.8-8h-12.6c0.9,2.3,1.7,5.2,2.1,7l-4,1.1c-0.2-1.9-1.1-5.2-2-7.5l2.6-0.6h-8.4
		v-3.8h14.4c-0.3-1.9-0.9-4.1-1.4-5.8l4-0.6c0.7,2,1.4,4.5,1.7,6.5h12.7v3.8h-5.8l1.2,0.2c-1.1,2.7-2.2,5.5-3.2,7.8H1621.3z"/>
	<path class="st0" d="M1647.3,793.3h4.4v16.9c0,9.3-2.4,16.3-16.9,20.7c-0.6-1.1-1.9-2.6-2.9-3.4c7.5-2.2,11.4-5,13.4-8.5
		c-6.1,1-12.1,1.9-16.9,2.7l-0.5-4.2c4.9-0.6,11.8-1.5,18.9-2.4c0.3-1.4,0.4-3,0.4-4.7h-15.6v-3.9h15.6v-4.7h-17v-4h17V793.3z
		 M1681.2,792h-49.8v-15.4h49.8V792z M1646.3,780.5h-10.5v7.7h10.5V780.5z M1661.3,780.5h-10.8v7.7h10.8V780.5z M1684.1,820.5h-19.2
		v10.1h-4.6v-37.4h4.6v4.7h17.9v4h-17.9v4.7h16.5v4h-16.5v5.7h19.2V820.5z M1676.6,780.5h-11v7.7h11V780.5z"/>
</g>
<g>
	<path class="st0" d="M2226.8,784.1h10.1v-34h-8.1v-3.6c4-0.7,7-1.8,9.5-3.2h4.4v40.9h9.1v4.7h-25V784.1z"/>
	<path class="st0" d="M2315,779.3h-22.5v14.2h-4.7v-14.2H2259v-4.5h10.2v-16.7h18.5v-9.5h-15.1c-2.8,4.8-6.1,9-9.5,12.3
		c-0.9-0.7-2.8-2.3-4-2.9c5.8-5.1,11.1-13.1,14-21.5l4.7,1.1c-0.9,2.2-1.9,4.4-2.9,6.5h37.1v4.5h-19.7v9.5h18.2v4.4h-18.2v12.3h22.5
		V779.3z M2287.8,774.9v-12.3h-13.9v12.3H2287.8z"/>
	<path class="st0" d="M2347,775.8c-8.6,3.9-18,8-24.8,11l-1.7-4.8c2.4-0.9,5.4-2.1,8.6-3.5l-1.1-38.5l4.7-0.2l0.9,36.7
		c4-1.7,8.2-3.5,12.3-5.2L2347,775.8z M2374.4,793.3c-2.9-4.3-8.6-10.8-13.9-16.4c-4.9,7.3-11.6,12.8-21.3,16.8
		c-0.6-0.9-2.6-3-3.7-4c21.3-7.8,27.9-22.9,30.7-49.8l5,0.5c-1.5,13.3-3.9,23.9-8.2,32.2c5.5,5.6,12.1,12.5,15.3,17.1L2374.4,793.3z
		 M2350.4,761.7c-1.7-4.3-5.7-10.6-9.6-15.2l4.1-2.1c4.1,4.5,8.1,10.6,9.8,14.9L2350.4,761.7z"/>
	<path class="st0" d="M2412.7,745.9V757l0.8-0.9c7.4,3.5,17.2,9.1,22.1,12.9l-3.2,4.2c-4.2-3.5-12.6-8.6-19.7-12.4v32.7h-4.9v-47.5
		H2384v-4.6h54.9v4.6H2412.7z"/>
	<path class="st0" d="M2467.2,749.1c-1.2,2.4-2.4,4.9-3.8,7.2h30.1v31.4c0,2.8-0.6,4.2-2.6,4.9c-2.1,0.7-5.5,0.8-10.8,0.8
		c-0.2-1.4-0.9-3.2-1.6-4.5c4.2,0.2,7.9,0.1,9,0.1c1.1-0.1,1.4-0.4,1.4-1.3v-6.5h-26.7c-0.8,4.5-2.7,9.2-6.3,12.6
		c-0.6-1-2.2-2.9-3.2-3.6c5.2-5,5.7-11.8,5.7-17.7v-9.1c-2.9,3.5-6.3,6.8-10.1,9.5c-0.6-1-2.1-2.7-2.9-3.6
		c7.3-4.9,12.9-12.3,16.7-20.3h-15.5v-4.4h17.5c1.1-2.7,2-5.4,2.7-8l4.6,1.1c-0.7,2.3-1.5,4.7-2.4,6.9h31.7v4.4H2467.2z M2489,777.3
		v-6.5h-25.9v1.9c0,1.5-0.1,3-0.2,4.6H2489z M2489,760.5h-25.9v6.3h25.9V760.5z"/>
	<path class="st0" d="M2537.7,778.5h-30.4v-4.2h6v-25.3h-5.2v-4.2h5.2v-7.5h4.2v7.5h11.3v-7.5h4.3v7.5h4.5v4.2h-4.5v25.3h4.5V778.5z
		 M2520.4,781c-2.2,4.8-5.8,9.5-9.2,12.6c-0.9-0.7-2.6-2.1-3.7-2.7c3.4-2.8,6.7-7,8.5-11.1L2520.4,781z M2517.6,749.1v5.5h11.3v-5.5
		H2517.6z M2517.6,764.4h11.3v-6.1h-11.3V764.4z M2517.6,774.4h11.3v-6.2h-11.3V774.4z M2528.4,779.8c2.5,2.8,5.4,6.7,6.5,9.2
		l-3.7,2.2c-1.1-2.5-3.9-6.5-6.4-9.5L2528.4,779.8z M2562.3,787.6c0,2.7-0.7,4.1-2.4,4.9c-1.8,0.7-4.7,0.9-9.3,0.9
		c-0.2-1.3-0.8-3.3-1.4-4.5c3.3,0.1,6.4,0.1,7.3,0c0.9,0,1.3-0.3,1.3-1.3v-14.9h-13.1c-0.6,7.4-2.2,15.3-5.9,21.3
		c-0.7-0.9-2.6-2.3-3.7-2.7c5.2-8.2,5.7-20,5.7-28.9v-22.5h21.5V787.6z M2557.8,768.5v-10.3h-12.7v4.2c0,1.9-0.1,4-0.1,6.2H2557.8z
		 M2545.1,744.1v9.9h12.7v-9.9H2545.1z"/>
	<path class="st0" d="M2587.9,750.8c-1.5,2.7-3.4,5.5-5.4,8.2v34.7h-4.4V764c-2.3,2.4-4.7,4.7-7,6.6c-0.4-0.9-1.8-3.1-2.6-4.1
		c5.7-4.2,11.6-10.6,15.3-17.2L2587.9,750.8z M2586.5,738.3c-3.7,5.2-9.5,11-14.7,14.7c-0.6-0.9-1.7-2.6-2.6-3.4
		c4.8-3.2,10.3-8.6,13.1-12.9L2586.5,738.3z M2609.5,788c2.1,0.4,4.4,0.5,6.8,0.5c1.5,0,9,0,11.1-0.1c-0.7,1.1-1.2,3.1-1.5,4.3h-9.9
		c-9.8,0-17.2-2-22-10.7c-1.6,4.7-3.7,8.6-6.7,11.7c-0.7-0.7-2.6-2.2-3.5-2.9c5.5-5.2,7.7-13.6,8.4-24.1l4.5,0.4
		c-0.2,3.1-0.7,6-1.2,8.8c2.1,6,5.4,9.2,9.6,10.8v-25h-17.7v-4.2h17.3V749h-14.1v-4h14.1v-8.3h4.4v8.3h14.4v4H2609v8.6h17.4v4.2
		h-16.9v9.3h14.3v4.1h-14.3V788z"/>
	<path class="st0" d="M2658.3,761.2h7.3v4.5h-7.3v27.1h-4.5v-27.1h-9.6c-0.2,10.3-1.9,20-9.3,27.9c-0.8-1-2.2-2.2-3.4-3
		c6.7-7.2,8-16,8.2-25h-7.6v-4.5h7.6v-16.6h-6.2v-4.4h30.4v4.4h-5.7V761.2z M2653.8,761.2v-16.6h-9.6v16.6H2653.8z M2673.4,777.8
		h-4.4v-34.1h4.4V777.8z M2686,737.9v49.6c0,3-0.8,4.4-2.7,5.1c-1.9,0.8-5.2,0.9-10.6,0.9c-0.2-1.2-0.9-3.4-1.6-4.6
		c4,0.1,7.7,0.1,8.8,0c1.1,0,1.6-0.4,1.6-1.4v-49.6H2686z"/>
	<path class="st0" d="M2713.3,768l-7,2.4v17.4c0,2.6-0.6,3.9-2.2,4.6c-1.4,0.7-3.8,0.9-7.8,0.9c-0.2-1.2-0.8-3.2-1.4-4.5
		c2.6,0.1,5.1,0.1,5.8,0.1c0.7,0,1.1-0.2,1.1-1.2v-16c-2.6,0.9-5,1.7-7.2,2.3l-1.2-4.4c2.3-0.7,5.2-1.6,8.4-2.4v-13.9h-7.6V749h7.6
		v-12.3h4.4V749h6.7v4.3h-6.7v12.5l6.4-2L2713.3,768z M2749.1,746.9v2.4c-0.9,28.7-1.7,38.5-4.1,41.5c-1.3,1.7-2.6,2.3-4.7,2.6
		c-2.1,0.2-5.5,0.1-9-0.1c-0.1-1.4-0.6-3.4-1.5-4.7c3.8,0.3,7.2,0.3,8.6,0.3c1.2,0.1,1.9-0.1,2.5-1c2-2.1,2.9-11.4,3.6-36.8h-22.8
		c-2,3.9-4.4,7.3-6.7,10.1c-0.7-0.7-2.6-2.2-3.7-2.8c4.9-5.3,9-13.4,11.5-21.7l4.4,1c-1,3.1-2.2,6.2-3.5,9.1h22.5v0.1H2749.1z
		 M2721.9,779.1v4.2h-4.2v-24.8h18.9v20.5H2721.9z M2721.9,762.6V775h10.5v-12.4H2721.9z"/>
	<path class="st0" d="M2774.4,752.1c-1.4,2.7-3.2,5.4-5.1,7.9v33.5h-4.5v-28.1c-2.2,2.4-4.5,4.6-6.7,6.5c-0.4-1-1.7-3.4-2.6-4.5
		c5.5-4.1,11.2-10.4,14.7-16.8L2774.4,752.1z M2773.7,738.5c-3.5,5.4-9.3,11.2-14.6,14.9c-0.6-1.1-1.7-2.9-2.4-3.7
		c4.7-3.2,10-8.4,12.5-12.8L2773.7,738.5z M2808.7,765.2c-2.7,7.7-7.3,13.5-12.9,18c4.9,3,10.8,5.2,17.2,6.4c-1,1.1-2.4,2.9-3,4.3
		c-7-1.6-13.2-4.2-18.3-7.8c-5.6,3.5-12.1,6-18.8,7.6c-0.5-1.3-1.6-3.2-2.4-4.2c6.2-1.2,12.1-3.3,17.4-6.3c-4.5-4-8.2-8.8-10.8-14.5
		l0.7-0.2h-3.4V764h30.2l0.9-0.2L2808.7,765.2z M2785.8,746.5c0,5.8-1.9,12.4-10.9,16.6c-0.6-0.9-2.2-2.7-3-3.4
		c8.1-3.7,9.5-8.8,9.5-13.4V739h21v14.3c0,1.8,0.2,2.4,1.3,2.4h5.4c0.9,0,2.4-0.1,3.3-0.3c0.1,1.2,0.2,2.9,0.4,4
		c-0.9,0.2-2.4,0.3-3.7,0.3h-5.7c-4.5,0-5.6-1.7-5.6-6.5v-9.9h-11.9V746.5z M2781.9,768.4c2.4,4.7,5.8,8.8,10,12.1
		c4.4-3.2,8-7.3,10.5-12.1H2781.9z"/>
	<path class="st0" d="M2253.1,858.1c-9.5,2.1-19.7,4.2-26.9,5.8l-0.9-4.7c6.7-1.3,17.3-3.4,27.4-5.5L2253.1,858.1z M2276.9,831.4
		c-2.7,8.3-6.3,15.6-11,21.8c2.3,6.4,5.1,10.3,8.2,10.3c1.7,0,2.5-3.2,2.9-11.5c1.1,1.1,2.7,2.2,4,2.6c-0.8,10.6-2.6,13.7-7.3,13.7
		c-4.7,0-8.4-4-11.2-10.8c-3.9,4.2-8.2,7.8-13.1,10.7c-0.7-0.9-2.6-2.7-3.6-3.5c5.8-3.1,10.8-7.2,14.9-12.2
		c-2.2-7.3-3.5-16.5-4.4-26.6h-30.6v-4.5h30.3c-0.2-3.2-0.2-6.5-0.3-9.8h4.9c0,3.4,0.1,6.6,0.2,9.8h18.7v4.5H2261
		c0.6,8.2,1.7,15.7,3.2,21.7c3.4-5.1,6-10.8,8-17.3L2276.9,831.4z M2250.7,831.4v18.8h-21.5v-18.8H2250.7z M2246.2,835.4h-12.6v10.8
		h12.6V835.4z M2274.8,821.3c-2.2-2.1-6.7-5-10.5-6.8l2.7-2.9c3.8,1.7,8.4,4.4,10.7,6.4L2274.8,821.3z"/>
	<path class="st0" d="M2289,858.7h10.1v-34h-8.1v-3.6c4-0.7,7-1.8,9.5-3.2h4.4v40.9h9.1v4.7h-25V858.7z"/>
	<path class="st0" d="M2319.8,858.2l2.8-3.7c2.6,2.6,5.9,5,11.2,5c5.4,0,9.7-4.1,9.7-10.8c0-6.5-3.7-10.4-9.5-10.4
		c-3,0-5,0.9-7.6,2.7l-3-1.9l1.4-21.3h22.2v4.9h-17.2l-1.1,13.2c2-1.1,4-1.8,6.8-1.8c7.6,0,13.8,4.5,13.8,14.5
		c0,10-7.2,15.7-14.9,15.7C2327.2,864.3,2322.9,861.3,2319.8,858.2z"/>
	<path class="st0" d="M2355.7,840.5c0-15.9,5.5-23.5,14.3-23.5c8.6,0,14.2,7.7,14.2,23.5c0,15.9-5.5,23.8-14.2,23.8
		C2361.2,864.3,2355.7,856.4,2355.7,840.5z M2378.6,840.5c0-13.3-3.5-18.9-8.6-18.9c-5.2,0-8.7,5.6-8.7,18.9
		c0,13.4,3.5,19.2,8.7,19.2C2375.1,859.7,2378.6,854,2378.6,840.5z"/>
	<path class="st0" d="M2390.2,840.5c0-15.9,5.5-23.5,14.3-23.5c8.6,0,14.2,7.7,14.2,23.5c0,15.9-5.5,23.8-14.2,23.8
		C2395.7,864.3,2390.2,856.4,2390.2,840.5z M2413.1,840.5c0-13.3-3.5-18.9-8.6-18.9c-5.2,0-8.7,5.6-8.7,18.9
		c0,13.4,3.5,19.2,8.7,19.2C2409.6,859.7,2413.1,854,2413.1,840.5z"/>
	<path class="st0" d="M2424.7,840.5c0-15.9,5.5-23.5,14.3-23.5c8.6,0,14.2,7.7,14.2,23.5c0,15.9-5.5,23.8-14.2,23.8
		C2430.3,864.3,2424.7,856.4,2424.7,840.5z M2447.6,840.5c0-13.3-3.5-18.9-8.6-18.9c-5.2,0-8.7,5.6-8.7,18.9
		c0,13.4,3.5,19.2,8.7,19.2C2444.1,859.7,2447.6,854,2447.6,840.5z"/>
	<path class="st0" d="M2508.1,862.7c2.5,0,2.9-1.6,3.2-11.1c1.1,0.9,3,1.7,4.3,2.1c-0.5,10.6-1.7,13.5-7.2,13.5h-8.9
		c-5.5,0-7-1.6-7-6.9v-22.2h-11.6c-1.2,13.3-4.2,24.2-18.5,30c-0.6-1.1-1.9-2.8-2.9-3.6c13.3-5,15.6-14.7,16.5-26.4h-15.7v-4.5h54.4
		v4.5h-17.5v22.1c0,2.1,0.5,2.6,2.9,2.6H2508.1z M2509.4,820.7h-43.8v-4.4h43.8V820.7z"/>
	<path class="st0" d="M2547.4,850.5c-8.6,3.9-18,8-24.8,11l-1.7-4.8c2.4-0.9,5.4-2.1,8.6-3.5l-1.1-38.5l4.7-0.2l0.9,36.7
		c4-1.7,8.2-3.5,12.3-5.2L2547.4,850.5z M2574.8,868c-2.9-4.3-8.6-10.8-13.9-16.4c-4.9,7.3-11.6,12.8-21.3,16.8
		c-0.6-0.9-2.6-3-3.7-4c21.3-7.8,27.9-22.9,30.7-49.8l5,0.5c-1.5,13.3-3.9,23.9-8.2,32.2c5.5,5.6,12.1,12.5,15.3,17.1L2574.8,868z
		 M2550.8,836.3c-1.7-4.3-5.7-10.6-9.6-15.2l4.1-2.1c4.1,4.5,8.1,10.6,9.8,14.9L2550.8,836.3z"/>
	<path class="st0" d="M2613,820.6v11.1l0.8-0.9c7.4,3.5,17.2,9.1,22.1,12.9l-3.2,4.2c-4.2-3.5-12.6-8.6-19.7-12.4v32.7h-4.9v-47.5
		h-23.8V816h54.9v4.6H2613z"/>
	<path class="st0" d="M2663.7,836.4h12.5v3.2h-29.8v-3.2h14.4c-1.6-1.7-3.8-3.9-5.8-5.4l3.1-2.4c2.7,1.9,5.7,4.4,7.2,6.3
		L2663.7,836.4z M2698.2,827.5h-48.5v-13.8h48.5V827.5z M2673.2,866h-19v2.1h-4.2v-13.2h23.2V866z M2650.5,848.8h22.2v3h-22.2V848.8
		z M2672.8,845.8h-22.2v-3.1h22.2V845.8z M2664.1,817.3h-10v6.6h10V817.3z M2654.2,857.9v5h14.6v-5H2654.2z M2678.7,817.3h-10.3v6.6
		h10.3V817.3z M2685,858.4h-4.3v-26.4h4.3V858.4z M2693.6,817.3H2683v6.6h10.6V817.3z M2698.5,829.7v32.9c0,2.8-0.7,4.1-2.6,4.8
		c-1.9,0.7-5.3,0.8-10.5,0.8c-0.2-1.2-0.9-3.1-1.5-4.4c4.1,0.1,7.8,0.1,8.8,0.1c1.1-0.1,1.5-0.3,1.5-1.3v-32.9H2698.5z"/>
	<path class="st0" d="M2738.5,834.2v8.5h21.7v4.2h-21.7v15.2h24.5v4.3h-53.5v-4.3h24.1v-15.2h-21.3v-4.2h21.3v-8.5h-13.4v-3.4
		c-3.2,1.7-6.5,3.3-9.9,4.5c-0.7-1.3-1.9-3.2-3.1-4.2c11.6-3.8,23-11.1,28.9-20.3l4.2,2c-0.4,0.7-1,1.5-1.6,2.2
		c6.2,6.6,17.1,13.1,26.6,16.1c-1.1,0.9-2.6,2.8-3.2,4c-3.2-1.2-6.7-2.9-10-4.8v3.9H2738.5z M2721.4,848.3c2.4,3.5,5,8.2,6,11.1
		l-4,1.7c-0.9-2.9-3.4-7.8-5.7-11.3L2721.4,848.3z M2751.4,829.9c-5.6-3.3-11.1-7.5-15.1-11.7c-4.1,4.5-9.1,8.5-14.6,11.7H2751.4z
		 M2744.1,859.7c2.2-3,5-8,6.5-11.4l4.4,1.7c-2.2,3.9-5.1,8.3-7.3,11.3L2744.1,859.7z"/>
</g>
<g>
	<path class="st0" d="M634.5,1175.9H648v4.5h-13.4v27.8h-4.7v-27.8h-13.3v-4.5h13.3v-16h-11.6v-4.5h27.9v4.5h-11.6V1175.9z
		 M656.8,1193.2h-4.6v-34.3h4.6V1193.2z M670.4,1152.7v49.3c0,3.2-0.9,4.7-2.9,5.4c-2.1,0.8-5.7,0.9-11.5,0.9
		c-0.2-1.2-1-3.5-1.7-4.8c4.5,0.2,8.5,0.1,9.8,0.1c1.2-0.1,1.7-0.4,1.7-1.6v-49.3H670.4z"/>
	<path class="st0" d="M734.1,1161.8c-2.8,2.6-6.4,5.4-9.5,7.5c3.5,3,7.5,5.5,11.7,7.2c-1.1,0.8-2.4,2.6-3.2,3.8
		c-5.4-2.4-10.4-6.2-14.7-10.7v3.2h-22.3v-2.9c-4.6,4.7-10,8.5-15.3,11c-0.6-1.1-1.9-2.6-2.9-3.5c4.2-1.7,8.7-4.7,12.6-8.2
		c-1.9-2.1-5.1-4.5-7.9-6.3l2.5-2.6c2.9,1.7,6.2,4.1,8.2,6.2c2.4-2.7,4.7-5.7,6.2-8.7h-16.9v-3.9h19.1l0.9-0.2l3,1.6
		c-1.9,5.1-4.9,9.6-8.5,13.6h20.5c-4.3-4.7-7.8-10-10.3-15.9l4-1.2c1.1,2.6,2.6,5.2,4.3,7.7c2.8-2.2,6-5.2,8-7.3l3.5,2.5
		c-2.9,2.7-6.4,5.5-9.5,7.7c1.2,1.6,2.7,3.2,4.2,4.7c3-2.3,6.5-5.3,8.6-7.5L734.1,1161.8z M721,1194.9c-1.3,2.7-2.9,5.6-4.2,8h17.7
		v4H680v-4h17c-0.6-2.1-2-5.4-3.5-7.7l4.2-1.3c1.6,2.4,3.2,5.5,3.8,7.7l-3.9,1.3h14.4c1.6-2.6,3.5-6.4,4.5-9.1L721,1194.9z
		 M724.5,1193.4h-35.2v-15.5h35.2V1193.4z M719.6,1181.7h-25.8v7.8h25.8V1181.7z"/>
	<path class="st0" d="M759.4,1153.2c-1.7,4.6-4,9.3-6.5,13.6v41.6h-4.4v-34.8c-1.9,2.8-4,5.3-6.2,7.5c-0.4-1.1-1.7-3.4-2.6-4.5
		c6.1-6,11.9-15.2,15.4-24.7L759.4,1153.2z M789,1203.6c3.7,0,4.4-1.7,4.9-9c1.1,0.7,2.9,1.5,4.2,1.7c-0.8,8.6-2.2,11.4-9,11.4
		h-16.4c-7.3,0-9.5-1.7-9.5-8.6v-20.4l-6.2,2.4l-1.7-4l7.9-3.1v-16.2h4.4v14.5l9.1-3.6v-17h4.2v15.4l10.3-4l0.9-0.7l3.4,1.1
		l-0.2,0.9c-0.2,9-0.8,20.8-1.8,28.2l-3.8-1.1c0.6-5.8,1-15.4,1.1-23.5l-10,3.9v22.8h-4.2v-21.1l-9.1,3.6v22.1
		c0,3.6,0.9,4.4,5.2,4.4H789z"/>
	<path class="st0" d="M834.2,1151.8c-0.1,2.2-0.1,5.4-0.4,9c0.9,7.4,4.7,33.4,26.6,43.2c-1.3,1.1-2.7,2.6-3.4,3.9
		c-15.6-7.3-22.2-22.7-25.2-34.2c-2.9,12.4-9.5,26.4-24.6,34.5c-0.8-1.2-2.3-2.6-3.7-3.6c25.8-13.1,25.5-43.3,25.6-52.8H834.2z"/>
	<path class="st0" d="M887.6,1168.8c-0.1,7.1-0.7,15.6-5,23.9c2.7,2.3,5,4.5,6.7,6.3l-2.9,3.7c-1.4-1.8-3.6-3.9-6-6.2
		c-2.8,4.2-6.7,8.2-12.1,11.9c-0.6-1-2.1-2.4-3.1-3.1c5.4-3.6,9.3-7.6,11.9-11.7c-3.3-2.9-6.9-5.8-10.1-8.2
		c1.4-4.1,2.9-9.7,4.2-15.6l-5.5,0.4l-0.5-4.2c2-0.1,4.4-0.2,6.8-0.3c0.9-4.7,1.7-9.6,2.2-13.8l4.3,0.3c-0.6,4.1-1.4,8.6-2.2,13.3
		l7-0.4v-4.6h4.2v4.4l2.6-0.1l-0.1,4L887.6,1168.8z M875.4,1169.5c-1.2,5.2-2.5,10.3-3.6,14.4c2.4,1.8,4.9,3.8,7.3,5.8
		c3.5-7.2,4.1-14.6,4.2-20.7L875.4,1169.5z M922.3,1201.3v4.4h-32.8v-4.4h15.8v-13.8h-13v-4.4h13v-13.3h-8.9
		c-0.7,4-1.7,7.6-2.9,10.5c-0.8-0.6-2.6-1.7-3.7-2.2c2.5-5.6,3.7-14.3,4.4-22.8l4.1,0.6c-0.3,3.2-0.7,6.4-1.2,9.5h8.2v-13.8h4.5
		v13.8h11.6v4.4h-11.6v13.3H921v4.4h-11.1v13.8H922.3z"/>
	<path class="st0" d="M977.7,1208.4H973v-3.2h-27.6v3.2h-4.5v-20.5c-3.4,1.2-6.9,2.2-10.3,3c-0.4-1.2-1.4-3.2-2.4-4.2
		c7.9-1.6,16.1-4.5,23.5-8.5c-3-3-7.7-6.7-11.8-9.8c-2.2,1.5-4.5,2.9-7,4.2c-0.7-1.1-2.2-2.8-3.2-3.5c10-4.9,17-11.8,20.8-17.7
		l5.2,1.1c-1.2,1.7-2.5,3.5-4,5.3h22l0.7-0.2l3.1,1.9c-5.1,9.9-14.1,17.5-24.4,23h24.7V1208.4z M947.5,1162
		c-1.3,1.3-2.7,2.5-4.2,3.7c4.2,3,9.5,6.9,12.5,9.8c6-3.7,11.1-8.3,14.7-13.6H947.5z M973,1200.9v-14.1h-27.6v14.1H973z"/>
	<path class="st0" d="M1046.2,1199.3h-25.7v9.2h-4.7v-9.2h-25.1v-4.2h25.1v-5.1h-18.7V1166h18.7v-4.5h-23.3v-4.2h23.3v-5.6h4.7v5.6
		h23.6v4.2h-23.6v4.5h19.2v24.1h-19.2v5.1h25.7V1199.3z M1001.6,1176.2h14.2v-6.3h-14.2V1176.2z M1015.9,1186.3v-6.4h-14.2v6.4
		H1015.9z M1020.5,1169.8v6.3h14.6v-6.3H1020.5z M1035.1,1179.9h-14.6v6.4h14.6V1179.9z"/>
	<path class="st0" d="M1060.4,1176.6c0,1.7,0,3.3-0.1,5h10.6v26.8h-4.4v-22.7h-6.5c-0.4,7.8-1.5,16.1-4.2,22.8
		c-1-0.5-2.9-1.2-4.2-1.6c3.8-8.8,4.4-21.3,4.4-30.3v-23.6h4.2v15.9h6.6v-17.1h3.9v21.2h-10.5V1176.6z M1108.9,1195.7h-11v12.6h-4.3
		v-12.6h-20.7v-4.2h6.7c-0.7-0.7-1.8-1.5-2.4-1.9c3.2-2.1,5.5-4.5,7.2-7h-8.9V1158h8.8c0.9-2,2.1-4.5,2.6-6.3l5.2,0.8
		c-0.9,1.9-1.9,3.9-2.7,5.5h16.7v24.7h-17c-1.7,3.1-4.1,6.2-7.5,8.9h12.2v-7.4h4.3v7.4h11V1195.7z M1079.8,1168.5h8.9v-6.7h-8.9
		V1168.5z M1086.4,1178.9c1.1-2.4,1.7-4.8,2-6.8h-8.6v6.8H1086.4z M1101.4,1172.1h-8.8c-0.3,1.9-0.9,4.2-1.9,6.8h10.7V1172.1z
		 M1101.4,1161.8h-8.6v6.7h8.6V1161.8z"/>
	<path class="st0" d="M1135.2,1166.4c-1.9,3.2-4.3,6.3-6.8,9.4v32.7h-4.6v-27.6c-2.4,2.4-4.7,4.7-7,6.5c-0.7-0.9-2.3-2.9-3.2-3.9
		c6.4-4.5,13.1-11.7,17.4-18.7L1135.2,1166.4z M1132.8,1153.3c-4,5.5-10.4,11.5-15.9,15.4c-0.7-1-1.9-2.8-2.7-3.7
		c5.2-3.5,11.1-9.1,14.2-13.5L1132.8,1153.3z M1170.9,1176.8h-9.4v25.7c0,2.9-0.7,4.3-2.7,5c-2.1,0.7-5.6,0.7-11.7,0.7
		c-0.2-1.2-0.8-3.2-1.5-4.5c4.4,0.1,8.5,0.1,9.7,0.1c1.2-0.1,1.6-0.3,1.6-1.4v-25.6h-20.8v-4.4h34.8V1176.8z M1169.1,1159.7h-30.4
		v-4.4h30.4V1159.7z"/>
	<path class="st0" d="M1232.1,1166c0,0-0.1,1.7-0.1,2.4c-0.7,26.1-1.2,34.7-3.4,37.3c-1.1,1.6-2.3,2.1-4.2,2.3
		c-1.7,0.2-4.7,0.2-7.5,0c-0.1-1.2-0.6-3.2-1.3-4.4c3,0.2,5.7,0.3,6.9,0.3c1.1,0,1.6-0.2,2.2-1c1.4-1.8,2.2-10,2.8-32.6h-8.9
		c-0.7,16.6-3.6,30.1-14.6,38.3c-0.7-1-2.3-2.6-3.4-3.3c1-0.7,1.9-1.4,2.7-2.2c-9.5,1.1-19.1,2.2-26.1,2.9l-0.7-4
		c3.7-0.3,8.4-0.7,13.5-1.2v-5.4h-11.8v-3.5h11.8v-3.8h-11.6v-18.5h11.6v-3.9h-13.4v-3.6h13.4v-4.1c-4,0.3-8,0.6-11.7,0.7
		c-0.2-1-0.6-2.5-1.1-3.4c9.2-0.5,20.4-1.6,26.8-3l2.3,3.5c-3.4,0.7-7.6,1.3-12.1,1.8v4.5h13.2v3.6h-13.2v3.9h12.1v18.5h-12.1v3.8
		h12.2v3.5h-12.2v4.9c4-0.4,8.3-0.8,12.4-1.3v0.3c5.4-7.3,7-17.4,7.6-29.1h-7.3v-4.4h7.4c0.1-4.4,0.1-8.9,0.1-13.6h4.4
		c0,4.7,0,9.3-0.1,13.6H1232.1z M1182.4,1177.3h7.8v-4.5h-7.8V1177.3z M1190.2,1184.9v-4.5h-7.8v4.5H1190.2z M1194.4,1172.8v4.5h8.2
		v-4.5H1194.4z M1202.6,1180.4h-8.2v4.5h8.2V1180.4z"/>
	<path class="st0" d="M642.6,1239.3h-19.4v10h-4.4V1236h23.8v-4h-21.1v-3.3h46.9v3.3h-21.3v4h24.2v13.3h-4.5v-10h-19.7v14.1h-4.5
		V1239.3z M665.3,1278.5c3.3,0,3.9-1.1,4.2-7.2c1.1,0.7,2.7,1.2,4,1.5c-0.7,7.5-2.1,9.5-8,9.5h-14.3c-6.9,0-8.9-1.2-8.9-6.2v-1.9
		h-13.8v3.2h-4.5v-21.6h41.9v18.4h-19.2v1.9c0,2.1,0.7,2.5,4.6,2.5H665.3z M624.3,1250c3.9-0.4,9.3-1.2,14.7-2.1l0.2,2.9
		c-4.8,1-9.5,2-13.6,2.7L624.3,1250z M627.3,1240.5c4,0.6,9.1,2.1,11.9,3.2l-1.4,2.9c-2.7-1.3-7.9-2.8-12-3.6L627.3,1240.5z
		 M628.6,1259.1v4.2h13.8v-4.2H628.6z M642.4,1270.7v-4.3h-13.8v4.3H642.4z M661.5,1259.1h-14.7v4.2h14.7V1259.1z M661.5,1270.7
		v-4.3h-14.7v4.3H661.5z M664.2,1253.8c-3.4-1.2-9.6-2.7-14.5-3.4l1.1-2.8c4.7,0.6,11.1,1.9,14.4,3L664.2,1253.8z M664.2,1242.8
		c-3.5,1.5-8.6,2.8-12.1,3.5l-1.6-2.4c3.5-0.7,8.8-2.7,11.8-3.7L664.2,1242.8z"/>
	<path class="st0" d="M678.9,1236.8h22.7v3.8h-22.7V1236.8z M699.4,1248.6h-18v-3.7h18V1248.6z M681.4,1253h18v3.7h-18V1253z
		 M699.9,1279.3h-14.5v2.9h-4v-20.9h18.5V1279.3z M685.4,1265.2v10.3h10.4v-10.3H685.4z M690.5,1236.1c-0.9-2.2-2.9-5.7-4.6-8.3
		l3.5-1.8c1.8,2.6,3.9,5.8,4.8,8L690.5,1236.1z M721.1,1249.7v10.3h11.1v22.8h-4.5v-2.2h-17.9v2.5h-4.2V1260h11.1v-10.3h-13.5v-4.4
		h13.5v-11.1c-4,0.6-8.2,1.2-11.9,1.6c-0.1-1.1-0.7-2.7-1.2-3.7c9.1-1.1,19.8-3.1,25.8-5.4l3,3.7c-3.2,1.2-7.2,2.2-11.3,3v11.9h14.4
		v4.4H721.1z M727.8,1264.2h-17.9v12.1h17.9V1264.2z"/>
	<path class="st0" d="M750.6,1234.8c-1.9,2.9-4,5.4-6.2,7.4c-0.6-0.7-2.2-2.3-3.3-3c3.9-3.3,7.5-8.2,9.6-13.3l4.1,1.1
		c-0.6,1.2-1.1,2.5-1.7,3.7h16v4h-11.6c2.1,1.8,4.7,4.1,6,5.6l-3,2.7c-1.4-1.8-4.2-4.6-6.5-6.5l2.2-1.8H750.6z M784.3,1263.8h12.4
		v3.9h-12.4v10.5c0,2.7-0.7,3.7-2.7,4.3c-2.1,0.6-5.7,0.6-11.1,0.6c-0.1-1.2-0.7-2.7-1.2-3.9c4.2,0.2,8,0.2,9,0.1
		c1.1-0.1,1.4-0.4,1.4-1.2v-10.4h-37.5v-3.9h37.5v-4.4h4.7V1263.8z M797.8,1230.8v4h-13.7c2.1,1.9,4.5,4.4,5.8,6.1l-3.2,2.7
		c-1.2-1.8-3.7-4.7-5.9-6.7l2.7-2.1h-6.1c-1.6,2.9-3.4,5.4-5.2,7.5l-0.6-0.5v2.9h22.8v4h-22.8v5.5H791v3.7h-43.4v-3.7H767v-5.5
		h-22.6v-4H767v-3.9h3.5c-0.6-0.5-1.3-1-1.8-1.3c3.4-3.4,6.2-8.4,7.7-13.7l4.3,1c-0.4,1.4-0.9,2.6-1.4,3.9H797.8z M755.7,1268.3
		c3.5,2.7,8.2,6.7,10.6,9.2l-3.4,2.7c-2.2-2.5-6.8-6.7-10.5-9.5L755.7,1268.3z"/>
	<path class="st0" d="M819.7,1227.7c-1.4,4.1-3,8.2-5,12.1v43.3h-4.4v-35.3c-1.9,3-3.9,5.8-6,8.2c-0.4-1-1.6-3.5-2.4-4.7
		c5.5-6,10.5-15.4,13.6-24.8L819.7,1227.7z M858,1230v52.5h-4.4v-3.2h-27.4v3.7h-4.3v-53H858z M853.6,1275.2v-41.1h-27.4v41.1H853.6
		z M841.9,1246.6v6.8h7.2v16.6h-17.7v-16.6h6.8v-6.8h-9.3v-3.5h9.3v-7h3.8v7h9.6v3.5H841.9z M845.4,1257h-10.5v9.6h10.5V1257z"/>
	<path class="st0" d="M883.8,1243.3H866v-3.7h17.8V1243.3z M888.7,1275.4c-5,3-12.8,5.9-19,7.6c-0.8-0.9-2.4-2.7-3.4-3.5
		c6.3-1.3,13.8-3.5,18.2-6L888.7,1275.4z M882.3,1233.6h-14.9v-3.6h14.9V1233.6z M874.2,1248.2h40.3v25h-40.3V1248.2z M878.7,1255.5
		h31.2v-4.2h-31.2V1255.5z M878.7,1262.8h31.2v-4.2h-31.2V1262.8z M878.7,1270.1h31.2v-4.4h-31.2V1270.1z M893.6,1234.1
		c-1.4,2.4-3,4.5-4.7,6.2c-0.7-0.7-2.5-1.9-3.5-2.4c3.2-2.9,5.8-7.3,7.2-11.8l4.2,0.9c-0.4,1.2-0.9,2.3-1.3,3.4h20.8l0.7-0.2
		l3.1,1.1c-1.6,3.2-3.5,6.8-5.2,9l-3.7-1.3c0.9-1.3,2.1-3.1,2.9-4.9h-9.9v0.8c0,0.6-0.1,1.3-0.2,2.1c3.3,3.7,10.1,6.2,18.2,6.8
		c-0.9,0.9-2.1,2.6-2.6,3.7c-7.1-1-13.1-3.5-16.9-7.3c-2.1,3-7,5.9-17.9,7.6c-0.5-1-1.7-2.7-2.5-3.4c16.1-2.2,17.6-6.4,17.6-9.6
		v-0.6H893.6z M902.9,1273.5c6.7,2.1,13.9,4.7,18.3,6.7l-4,2.7c-4-2-10.7-4.7-17.4-6.9L902.9,1273.5z"/>
</g>
<g>
	<path class="st0" d="M1518.3,1218.6c-1.2,5.5-3,11.5-5.2,16.1c1.2,0.7,2.7,1.9,5,3.2c4.4,2.7,10,3.1,17.4,3.1c8,0,18-0.6,25-1.3
		c-0.6,1.2-1.2,3.4-1.4,4.8c-4.7,0.3-16.4,0.7-23.8,0.7c-8.2,0-13.6-0.7-18.2-3.4c-2.5-1.5-4.8-3.6-6.2-3.6c-1.4,0-3.5,3.9-5.3,7.8
		l-3.2-4.2c2.2-3.1,4.3-5.7,6.2-6.9c1.9-3.5,3.5-8.5,4.4-12.9h-8.2c1.7-3.7,3.7-9,5.4-13.9h-6.8v-4.2h12.9c-1.5,4.5-3.5,9.7-5.2,14
		h4.2l0.8-0.2L1518.3,1218.6z M1510,1200.6c-0.7-2.7-2.2-6.9-3.2-10.1l4.2-1.2c1.2,3.2,2.6,7.3,3.5,10L1510,1200.6z M1559,1203.9
		h-40.6v-3.4h11.6c0.6-1.4,1.1-3,1.6-4.6h-9.3v-3.3h10.3c0.4-1.4,0.8-2.7,1.1-3.9l4.4,0.6l-1,3.4h15.3v7.9h6.5V1203.9z
		 M1538.5,1239.1v-5.8h-18c1-2.3,2.1-5.4,2.9-8.3h-3.8v-3.4h18.9v-3.5h-15.2v-11h30.6v11h-11v3.5h15.1v3.4h-15.1v5h16.6v3.4h-16.6
		v5.8H1538.5z M1538.5,1229.9v-5h-10.8c-0.6,1.7-1.1,3.4-1.7,5H1538.5z M1527.6,1215.1h21.8v-5h-21.8V1215.1z M1536.2,1196
		c-0.5,1.6-1.1,3.2-1.6,4.6h13.7v-4.6H1536.2z"/>
	<path class="st0" d="M1615.3,1209.5c-2.7,10-7.6,17.6-13.8,23.5c5.4,4,11.9,6.9,19.7,8.6c-1.2,1-2.4,2.9-3.1,4.2
		c-8.2-2-14.8-5.2-20.3-9.6c-5.7,4.4-12.2,7.5-19.1,9.5c-0.6-1.2-1.7-3.2-2.7-4.2c6.5-1.7,12.8-4.5,18.2-8.5
		c-5.3-5.4-9.3-12-12.1-20.1h-4.1c-0.2,10.2-1.7,23.5-8,32.7c-0.8-0.8-2.7-2.2-3.9-2.7c6.8-9.6,7.5-23.3,7.5-33.2v-16.8h45.3v4.5
		H1578v11.1h33.2l0.9-0.2L1615.3,1209.5z M1586.9,1212.9c2.5,6.7,6.1,12.4,11,17c4.9-4.5,8.9-10.2,11.4-17H1586.9z"/>
	<path class="st0" d="M1644,1190.4c-1.4,4.1-3,8.2-5,12.1v43.3h-4.4v-35.3c-1.9,3-3.9,5.8-6,8.2c-0.4-1-1.6-3.5-2.4-4.7
		c5.5-6,10.5-15.4,13.6-24.8L1644,1190.4z M1682.3,1192.7v52.5h-4.4v-3.2h-27.4v3.7h-4.3v-53H1682.3z M1677.9,1237.9v-41.1h-27.4
		v41.1H1677.9z M1666.2,1209.3v6.8h7.2v16.6h-17.7v-16.6h6.8v-6.8h-9.3v-3.5h9.3v-7h3.8v7h9.6v3.5H1666.2z M1669.6,1219.6h-10.5v9.6
		h10.5V1219.6z"/>
	<path class="st0" d="M1708.1,1206h-17.8v-3.7h17.8V1206z M1713,1238.1c-5,3-12.8,5.9-19,7.6c-0.8-0.9-2.4-2.7-3.4-3.5
		c6.3-1.3,13.8-3.5,18.2-6L1713,1238.1z M1706.5,1196.2h-14.9v-3.6h14.9V1196.2z M1698.5,1210.9h40.3v25h-40.3V1210.9z
		 M1702.9,1218.2h31.2v-4.2h-31.2V1218.2z M1702.9,1225.4h31.2v-4.2h-31.2V1225.4z M1702.9,1232.8h31.2v-4.4h-31.2V1232.8z
		 M1717.9,1196.7c-1.4,2.4-3,4.5-4.7,6.2c-0.7-0.7-2.5-1.9-3.5-2.4c3.2-2.9,5.8-7.3,7.2-11.8l4.2,0.9c-0.4,1.2-0.9,2.3-1.3,3.4h20.8
		l0.7-0.2l3.1,1.1c-1.6,3.2-3.5,6.8-5.2,9l-3.7-1.3c0.9-1.3,2.1-3.1,2.9-4.9h-9.9v0.8c0,0.6-0.1,1.3-0.2,2.1
		c3.3,3.7,10.1,6.2,18.2,6.8c-0.9,0.9-2.1,2.6-2.6,3.7c-7.1-1-13.1-3.5-16.9-7.3c-2.1,3-7,5.9-17.9,7.6c-0.5-1-1.7-2.7-2.5-3.4
		c16.1-2.2,17.6-6.4,17.6-9.6v-0.6H1717.9z M1727.2,1236.2c6.7,2.1,13.9,4.7,18.3,6.7l-4,2.7c-4-2-10.7-4.7-17.4-6.9L1727.2,1236.2z
		"/>
	<path class="st0" d="M1771,1190.4c-1.8,4.5-4,9.1-6.5,13.3v41.9h-4.4v-35.2c-2.1,2.9-4.3,5.5-6.5,7.7c-0.5-1-1.8-3.4-2.6-4.5
		c6.2-5.9,12.1-15.1,15.7-24.5L1771,1190.4z M1782.1,1227.5c-2.9,5.2-7,11.3-10.5,15.2c-0.8-0.7-2.6-2.1-3.6-2.7
		c3.5-3.6,7.4-9.1,10-13.9L1782.1,1227.5z M1791.1,1223.1v22.6h-4.6v-22.6h-18v-4.2h18v-7.4H1773v-19.7h32v19.7h-14v7.4h17.6v4.2
		H1791.1z M1777.4,1207.4h23.1V1196h-23.1V1207.4z M1798.1,1226.1c4,4.4,8.5,10.2,10.8,13.9l-3.7,2.3c-2.1-3.8-6.7-9.9-10.6-14.3
		L1798.1,1226.1z"/>
	<path class="st0" d="M1836.1,1203.3h-21.8v-3.8h21.8V1203.3z M1834.2,1242h-13.4v2.9h-4V1224h17.4V1242z M1834,1211.3h-17.2v-3.7
		h17.2V1211.3z M1816.8,1215.7h17.2v3.7h-17.2V1215.7z M1820.7,1227.8v10.3h9.4v-10.3H1820.7z M1825.7,1198.8
		c-0.8-2.2-2.8-5.7-4.5-8.3l3.5-1.9c1.8,2.6,3.8,5.8,4.7,8L1825.7,1198.8z M1840.7,1211.2c-1.1,1.4-2.1,2.7-3.3,3.8
		c-0.5-0.7-1.7-2.6-2.6-3.4c3.4-3.2,6.5-8,8.1-13l3.6,1v-3.2h-10.1v-3.7h10.1v-3.8h4.2v10.9h-4c-0.5,1.4-1.1,2.8-1.7,4.2h8.1
		c-0.4-1.3-0.9-2.9-1.4-4l4-1.1c0.7,1.6,1.5,3.6,2,5.2h11.6v3.1h-12.1v3.1h10.5v2.7h-10.5v3.1h10.5v2.7h-10.5v3.3h13.5v3h-26v1.2
		h-3.9V1211.2z M1867.8,1229c-2.2,3.9-5.7,7.1-9.7,9.6c4.1,1.6,8.9,2.8,13.7,3.4c-1,0.9-2.1,2.6-2.6,3.7c-5.5-0.9-10.8-2.6-15.4-4.9
		c-5.1,2.4-11,4-16.8,4.9c-0.4-1.1-1.2-2.8-2-3.7c5-0.6,10.1-1.8,14.7-3.5c-2.9-1.9-5.4-4.1-7.3-6.7l1.9-0.7h-7v-3.4h27.1l0.7-0.2
		L1867.8,1229z M1853.2,1207.1h-8.5v3.1h8.5V1207.1z M1853.2,1213h-8.5v3.1h8.5V1213z M1853.2,1218.8h-8.5v3.3h8.5V1218.8z
		 M1846.6,1231.2c1.9,2.1,4.4,3.9,7.3,5.5c3-1.5,5.6-3.4,7.6-5.5H1846.6z M1861.2,1199.8h-4.2V1189h4.2v3.8h9.4v3.7h-9.4V1199.8z"/>
	<path class="st0" d="M1888.1,1216.4c-2.6-2.1-7.5-4.9-11.5-6.7l2.5-3.4c3.9,1.6,9,4.2,11.6,6.2L1888.1,1216.4z M1878.7,1241.8
		c3.3-4.7,8.2-12.9,11.8-19.9l3.4,3c-3.2,6.5-7.6,14.2-11.3,20L1878.7,1241.8z M1882.4,1189.6c4.1,1.7,9.2,4.5,11.8,6.5l-2.7,3.9
		c-2.5-2.1-7.5-5.1-11.6-7L1882.4,1189.6z M1928,1245.6c-0.6-1.7-1.7-3.9-2.9-6.2c-23.1,2.9-25.7,3.3-27.4,4.1
		c-0.2-1.1-1-3.4-1.6-4.6c1.2-0.3,2.4-1.8,4-4c1.4-1.9,5.5-8.5,8.6-15.4h-13.9v-4.4h16V1204h-13.3v-4.4h13.3v-10.7h4.6v10.7h13.8
		v4.4h-13.8v11.1h16.3v4.4h-17.5c-3.2,6.6-7.1,13.2-11,18.4l19.7-2.2c-1.7-2.8-3.6-5.6-5.5-8l3.7-1.7c4.4,5.4,9,12.8,10.9,17.6
		L1928,1245.6z"/>
</g>
<g>
	<path class="st0" d="M2224,1200.3c14.3-12.5,20.9-21.6,20.9-29.4c0-5.2-2.7-9-8.4-9c-3.7,0-7,2.3-9.5,5.3l-3.3-3.2
		c3.7-4,7.7-6.7,13.4-6.7c8.2,0,13.3,5.4,13.3,13.5c0,9.1-7.2,18.4-17.9,28.5c2.4-0.2,5.2-0.4,7.5-0.4h12.6v4.9H2224V1200.3z"/>
	<path class="st0" d="M2315,1194.2h-22.5v14.2h-4.7v-14.2H2259v-4.5h10.2V1173h18.5v-9.5h-15.1c-2.8,4.8-6.1,9-9.5,12.3
		c-0.9-0.7-2.8-2.3-4-2.9c5.8-5.1,11.1-13.1,14-21.5l4.7,1.1c-0.9,2.2-1.9,4.4-2.9,6.5h37.1v4.5h-19.7v9.5h18.2v4.4h-18.2v12.3h22.5
		V1194.2z M2287.8,1189.7v-12.3h-13.9v12.3H2287.8z"/>
	<path class="st0" d="M2347,1190.6c-8.6,3.9-18,8-24.8,11l-1.7-4.8c2.4-0.9,5.4-2.1,8.6-3.5l-1.1-38.5l4.7-0.2l0.9,36.7
		c4-1.7,8.2-3.5,12.3-5.2L2347,1190.6z M2374.4,1208.2c-2.9-4.3-8.6-10.8-13.9-16.4c-4.9,7.3-11.6,12.8-21.3,16.8
		c-0.6-0.9-2.6-3-3.7-4c21.3-7.8,27.9-22.9,30.7-49.8l5,0.5c-1.5,13.3-3.9,23.9-8.2,32.2c5.5,5.6,12.1,12.5,15.3,17.1L2374.4,1208.2
		z M2350.4,1176.5c-1.7-4.3-5.7-10.6-9.6-15.2l4.1-2.1c4.1,4.5,8.1,10.6,9.8,14.9L2350.4,1176.5z"/>
	<path class="st0" d="M2412.7,1160.8v11.1l0.8-0.9c7.4,3.5,17.2,9.1,22.1,12.9l-3.2,4.2c-4.2-3.5-12.6-8.6-19.7-12.4v32.7h-4.9
		v-47.5H2384v-4.6h54.9v4.6H2412.7z"/>
	<path class="st0" d="M2467.2,1163.9c-1.2,2.4-2.4,4.9-3.8,7.2h30.1v31.4c0,2.8-0.6,4.2-2.6,4.9c-2.1,0.7-5.5,0.8-10.8,0.8
		c-0.2-1.4-0.9-3.2-1.6-4.5c4.2,0.2,7.9,0.1,9,0.1c1.1-0.1,1.4-0.4,1.4-1.3v-6.5h-26.7c-0.8,4.5-2.7,9.2-6.3,12.6
		c-0.6-1-2.2-2.9-3.2-3.6c5.2-5,5.7-11.8,5.7-17.7v-9.1c-2.9,3.5-6.3,6.8-10.1,9.5c-0.6-1-2.1-2.7-2.9-3.6
		c7.3-4.9,12.9-12.3,16.7-20.3h-15.5v-4.4h17.5c1.1-2.7,2-5.4,2.7-8l4.6,1.1c-0.7,2.3-1.5,4.7-2.4,6.9h31.7v4.4H2467.2z
		 M2489,1192.1v-6.5h-25.9v1.9c0,1.5-0.1,3-0.2,4.6H2489z M2489,1175.3h-25.9v6.3h25.9V1175.3z"/>
	<path class="st0" d="M2537.7,1193.4h-30.4v-4.2h6v-25.3h-5.2v-4.2h5.2v-7.5h4.2v7.5h11.3v-7.5h4.3v7.5h4.5v4.2h-4.5v25.3h4.5
		V1193.4z M2520.4,1195.9c-2.2,4.8-5.8,9.5-9.2,12.6c-0.9-0.7-2.6-2.1-3.7-2.7c3.4-2.8,6.7-7,8.5-11.1L2520.4,1195.9z
		 M2517.6,1163.9v5.5h11.3v-5.5H2517.6z M2517.6,1179.2h11.3v-6.1h-11.3V1179.2z M2517.6,1189.2h11.3v-6.2h-11.3V1189.2z
		 M2528.4,1194.7c2.5,2.8,5.4,6.7,6.5,9.2l-3.7,2.2c-1.1-2.5-3.9-6.5-6.4-9.5L2528.4,1194.7z M2562.3,1202.5c0,2.7-0.7,4.1-2.4,4.9
		c-1.8,0.7-4.7,0.9-9.3,0.9c-0.2-1.3-0.8-3.3-1.4-4.5c3.3,0.1,6.4,0.1,7.3,0c0.9,0,1.3-0.3,1.3-1.3v-14.9h-13.1
		c-0.6,7.4-2.2,15.3-5.9,21.3c-0.7-0.9-2.6-2.3-3.7-2.7c5.2-8.2,5.7-20,5.7-28.9v-22.5h21.5V1202.5z M2557.8,1183.3V1173h-12.7v4.2
		c0,1.9-0.1,4-0.1,6.2H2557.8z M2545.1,1158.9v9.9h12.7v-9.9H2545.1z"/>
	<path class="st0" d="M2587.9,1165.6c-1.5,2.7-3.4,5.5-5.4,8.2v34.7h-4.4v-29.6c-2.3,2.4-4.7,4.7-7,6.6c-0.4-0.9-1.8-3.1-2.6-4.1
		c5.7-4.2,11.6-10.6,15.3-17.2L2587.9,1165.6z M2586.5,1153.2c-3.7,5.2-9.5,11-14.7,14.7c-0.6-0.9-1.7-2.6-2.6-3.4
		c4.8-3.2,10.3-8.6,13.1-12.9L2586.5,1153.2z M2609.5,1202.8c2.1,0.4,4.4,0.5,6.8,0.5c1.5,0,9,0,11.1-0.1c-0.7,1.1-1.2,3.1-1.5,4.3
		h-9.9c-9.8,0-17.2-2-22-10.7c-1.6,4.7-3.7,8.6-6.7,11.7c-0.7-0.7-2.6-2.2-3.5-2.9c5.5-5.2,7.7-13.6,8.4-24.1l4.5,0.4
		c-0.2,3.1-0.7,6-1.2,8.8c2.1,6,5.4,9.2,9.6,10.8v-25h-17.7v-4.2h17.3v-8.6h-14.1v-4h14.1v-8.3h4.4v8.3h14.4v4H2609v8.6h17.4v4.2
		h-16.9v9.3h14.3v4.1h-14.3V1202.8z"/>
	<path class="st0" d="M2658.3,1176h7.3v4.5h-7.3v27.1h-4.5v-27.1h-9.6c-0.2,10.3-1.9,20-9.3,27.9c-0.8-1-2.2-2.2-3.4-3
		c6.7-7.2,8-16,8.2-25h-7.6v-4.5h7.6v-16.6h-6.2v-4.4h30.4v4.4h-5.7V1176z M2653.8,1176v-16.6h-9.6v16.6H2653.8z M2673.4,1192.6
		h-4.4v-34.1h4.4V1192.6z M2686,1152.7v49.6c0,3-0.8,4.4-2.7,5.1c-1.9,0.8-5.2,0.9-10.6,0.9c-0.2-1.2-0.9-3.4-1.6-4.6
		c4,0.1,7.7,0.1,8.8,0c1.1,0,1.6-0.4,1.6-1.4v-49.6H2686z"/>
	<path class="st0" d="M2694.7,1212.1c3.9-1.7,6.2-4.7,6.2-8.5c-0.2,0.1-0.4,0.1-0.7,0.1c-2.2,0-4.2-1.4-4.2-4c0-2.4,2-4,4.3-4
		c3,0,4.8,2.6,4.8,6.7c0,6-3.5,10.6-9.1,13L2694.7,1212.1z"/>
	<path class="st0" d="M2730.6,1182.9l-7,2.4v17.4c0,2.6-0.6,3.9-2.2,4.6c-1.4,0.7-3.8,0.9-7.8,0.9c-0.2-1.2-0.8-3.2-1.4-4.5
		c2.6,0.1,5.1,0.1,5.8,0.1c0.7,0,1.1-0.2,1.1-1.2v-16c-2.6,0.9-5,1.7-7.2,2.3l-1.2-4.4c2.3-0.7,5.2-1.6,8.4-2.4v-13.9h-7.6v-4.3h7.6
		v-12.3h4.4v12.3h6.7v4.3h-6.7v12.5l6.4-2L2730.6,1182.9z M2766.4,1161.8v2.4c-0.9,28.7-1.7,38.5-4.1,41.5c-1.3,1.7-2.6,2.3-4.7,2.6
		c-2.1,0.2-5.5,0.1-9-0.1c-0.1-1.4-0.6-3.4-1.5-4.7c3.8,0.3,7.2,0.3,8.6,0.3c1.2,0.1,1.9-0.1,2.5-1c2-2.1,2.9-11.4,3.6-36.8h-22.8
		c-2,3.9-4.4,7.3-6.7,10.1c-0.7-0.7-2.6-2.2-3.7-2.8c4.9-5.3,9-13.4,11.5-21.7l4.4,1c-1,3.1-2.2,6.2-3.5,9.1h22.5v0.1H2766.4z
		 M2739.2,1193.9v4.2h-4.2v-24.8h18.9v20.5H2739.2z M2739.2,1177.4v12.4h10.5v-12.4H2739.2z"/>
	<path class="st0" d="M2791.7,1166.9c-1.4,2.7-3.2,5.4-5.1,7.9v33.5h-4.5v-28.1c-2.2,2.4-4.5,4.6-6.7,6.5c-0.4-1-1.7-3.4-2.6-4.5
		c5.5-4.1,11.2-10.4,14.7-16.8L2791.7,1166.9z M2791,1153.4c-3.5,5.4-9.3,11.2-14.6,14.9c-0.6-1.1-1.7-2.9-2.4-3.7
		c4.7-3.2,10-8.4,12.5-12.8L2791,1153.4z M2826,1180.1c-2.7,7.7-7.3,13.5-12.9,18c4.9,3,10.8,5.2,17.2,6.4c-1,1.1-2.4,2.9-3,4.3
		c-7-1.6-13.2-4.2-18.3-7.8c-5.6,3.5-12.1,6-18.8,7.6c-0.5-1.3-1.6-3.2-2.4-4.2c6.2-1.2,12.1-3.3,17.4-6.3c-4.5-4-8.2-8.8-10.8-14.5
		l0.7-0.2h-3.4v-4.4h30.2l0.9-0.2L2826,1180.1z M2803.1,1161.4c0,5.8-1.9,12.4-10.9,16.6c-0.6-0.9-2.2-2.7-3-3.4
		c8.1-3.7,9.5-8.8,9.5-13.4v-7.5h21v14.3c0,1.8,0.2,2.4,1.3,2.4h5.4c0.9,0,2.4-0.1,3.3-0.3c0.1,1.2,0.2,2.9,0.4,4
		c-0.9,0.2-2.4,0.3-3.7,0.3h-5.7c-4.5,0-5.6-1.7-5.6-6.5v-9.9h-11.9V1161.4z M2799.2,1183.2c2.4,4.7,5.8,8.8,10,12.1
		c4.4-3.2,8-7.3,10.5-12.1H2799.2z"/>
	<path class="st0" d="M2253.1,1273c-9.5,2.1-19.7,4.2-26.9,5.8l-0.9-4.7c6.7-1.3,17.3-3.4,27.4-5.5L2253.1,1273z M2276.9,1246.3
		c-2.7,8.3-6.3,15.6-11,21.8c2.3,6.4,5.1,10.3,8.2,10.3c1.7,0,2.5-3.2,2.9-11.5c1.1,1.1,2.7,2.2,4,2.6c-0.8,10.6-2.6,13.7-7.3,13.7
		c-4.7,0-8.4-4-11.2-10.8c-3.9,4.2-8.2,7.8-13.1,10.7c-0.7-0.9-2.6-2.7-3.6-3.5c5.8-3.1,10.8-7.2,14.9-12.2
		c-2.2-7.3-3.5-16.5-4.4-26.6h-30.6v-4.5h30.3c-0.2-3.2-0.2-6.5-0.3-9.8h4.9c0,3.4,0.1,6.6,0.2,9.8h18.7v4.5H2261
		c0.6,8.2,1.7,15.7,3.2,21.7c3.4-5.1,6-10.8,8-17.3L2276.9,1246.3z M2250.7,1246.2v18.8h-21.5v-18.8H2250.7z M2246.2,1250.2h-12.6
		v10.8h12.6V1250.2z M2274.8,1236.1c-2.2-2.1-6.7-5-10.5-6.8l2.7-2.9c3.8,1.7,8.4,4.4,10.7,6.4L2274.8,1236.1z"/>
	<path class="st0" d="M2305.2,1227.7c-1.7,4.4-3.9,8.8-6.3,12.8v42.3h-4.4v-35.7c-2.2,3.1-4.5,5.8-6.9,8.2c-0.4-1-1.8-3.5-2.6-4.5
		c6.3-5.9,12.3-15.1,15.9-24.5L2305.2,1227.7z M2343.4,1260.6H2333v22.3h-4.5v-22.3h-11.3c-0.7,7.9-3.2,16.8-12.2,22.9
		c-0.7-1-2.1-2.6-3.2-3.4c8.2-5.1,10.3-12.8,10.9-19.5h-10.3v-4.5h10.5v-0.7v-11.8h-8.8v-4.4h38v4.4h-9v12.5h10.4V1260.6z
		 M2314.3,1239.1c-0.7-2.9-3-7.6-5.3-11l3.9-1.6c2.4,3.3,4.8,7.8,5.6,10.7L2314.3,1239.1z M2328.5,1256.2v-12.5h-11.1v11.8v0.7
		H2328.5z M2337.7,1227.8c-2.2,3.9-4.7,8.5-6.8,11.3l-3.7-1.6c1.9-3,4.4-8,5.7-11.4L2337.7,1227.8z"/>
	<path class="st0" d="M2369.5,1263.4c-1.1-2.1-3.7-6.1-5.8-9.3v28.8h-4.5v-27.5c-2.6,6.2-5.8,12.4-9,16.2c-0.4-1.2-1.6-3.1-2.3-4.2
		c3.9-4.4,8.3-12.4,10.7-19.5h-9.8v-4.4h10.5v-9.4c-2.9,0.6-5.8,1.1-8.5,1.4c-0.2-1-0.9-2.6-1.4-3.6c7-1.1,15.1-2.9,19.8-5l2.8,3.7
		c-2.3,0.9-5.2,1.8-8.2,2.5v10.4h9.1v4.4h-9.1v1.1c1.9,2.2,7.3,9,8.6,10.7L2369.5,1263.4z M2397.6,1266.7v16.2h-4.5v-15.5l-20.3,3.4
		l-0.7-4.4l21-3.4v-36.8h4.5v36.1l7.3-1.1l0.7,4.2L2397.6,1266.7z M2385.6,1258.5c-2.2-2.7-7-6.6-11-9.1l2.9-2.7
		c4,2.4,8.8,6.1,11.1,8.8L2385.6,1258.5z M2387,1242c-1.9-2.6-6.2-6.3-9.9-8.8l2.9-2.7c3.7,2.4,8.1,5.9,10.1,8.5L2387,1242z"/>
	<path class="st0" d="M2410.7,1274.9c14.3-12.5,20.9-21.6,20.9-29.4c0-5.2-2.7-9-8.4-9c-3.7,0-7,2.3-9.5,5.3l-3.3-3.2
		c3.7-4,7.7-6.7,13.4-6.7c8.2,0,13.3,5.4,13.3,13.5c0,9.1-7.2,18.4-17.9,28.5c2.4-0.2,5.2-0.4,7.5-0.4h12.6v4.9h-28.7V1274.9z"/>
	<path class="st0" d="M2445.6,1255.3c0-15.9,5.5-23.5,14.3-23.5c8.6,0,14.2,7.7,14.2,23.5c0,15.9-5.5,23.8-14.2,23.8
		C2451.1,1279.1,2445.6,1271.2,2445.6,1255.3z M2468.5,1255.3c0-13.3-3.5-18.9-8.6-18.9c-5.2,0-8.7,5.6-8.7,18.9
		c0,13.4,3.5,19.2,8.7,19.2C2465,1274.6,2468.5,1268.8,2468.5,1255.3z"/>
	<path class="st0" d="M2494.9,1234H2481v-3.9h13.9v-3.9h4.5v3.9h7.6v3.9h-7.6v3.9h-4.5V1234z M2532.8,1278.4c0,2.2-0.4,3.2-2,4
		c-1.6,0.7-4.1,0.7-8.1,0.7c-0.2-1.2-0.8-2.7-1.4-3.8c2.9,0.1,5.3,0.1,6,0c0.7-0.1,1-0.2,1-0.9v-13.1h-18v6.5l7.8-0.3
		c-0.9-1.4-1.8-2.8-2.7-4l3.4-1.1c2.7,3.4,5.5,7.9,6.4,11.1l-3.6,1.3c-0.3-1.1-0.8-2.3-1.5-3.7c-10,0.7-20.2,1.2-27.3,1.6l-0.4-4
		c3.6-0.1,8.3-0.3,13.4-0.5v-6.8h-17.4v17.8h-4.5v-17.8h-2.5v-3.9h2.5v-2.2h4.5v2.2h17.4v-3.8H2488v-18.9h40.5v18.9h-18.2v3.8h22.5
		V1278.4z M2492.4,1246.6h13.4v-4.5h-13.4V1246.6z M2505.9,1254.2v-4.5h-13.4v4.5H2505.9z M2535.2,1230.1v3.9h-14.1v3.9h-4.5v-3.9
		h-7.3v-3.9h7.3v-3.9h4.5v3.9H2535.2z M2524,1242.1h-13.7v4.5h13.7V1242.1z M2524,1249.7h-13.7v4.5h13.7V1249.7z"/>
	<path class="st0" d="M2568.2,1265.3c-8.6,3.9-18,8-24.8,11l-1.7-4.8c2.4-0.9,5.4-2.1,8.6-3.5l-1.1-38.5l4.7-0.2l0.9,36.7
		c4-1.7,8.2-3.5,12.3-5.2L2568.2,1265.3z M2595.6,1282.8c-2.9-4.3-8.6-10.8-13.9-16.4c-4.9,7.3-11.6,12.8-21.3,16.8
		c-0.6-0.9-2.6-3-3.7-4c21.3-7.8,27.9-22.9,30.7-49.8l5,0.5c-1.5,13.3-3.9,23.9-8.2,32.2c5.5,5.6,12.1,12.5,15.3,17.1L2595.6,1282.8
		z M2571.6,1251.2c-1.7-4.3-5.7-10.6-9.6-15.2l4.1-2.1c4.1,4.5,8.1,10.6,9.8,14.9L2571.6,1251.2z"/>
	<path class="st0" d="M2633.9,1235.4v11.1l0.8-0.9c7.4,3.5,17.2,9.1,22.1,12.9l-3.2,4.2c-4.2-3.5-12.6-8.6-19.7-12.4v32.7h-4.9
		v-47.5h-23.8v-4.6h54.9v4.6H2633.9z"/>
	<path class="st0" d="M2684.5,1251.2h12.5v3.2h-29.8v-3.2h14.4c-1.6-1.7-3.8-3.9-5.8-5.4l3.1-2.4c2.7,1.9,5.7,4.4,7.2,6.3
		L2684.5,1251.2z M2719.1,1242.3h-48.5v-13.8h48.5V1242.3z M2694,1280.9h-19v2.1h-4.2v-13.2h23.2V1280.9z M2671.4,1263.7h22.2v3
		h-22.2V1263.7z M2693.7,1260.6h-22.2v-3.1h22.2V1260.6z M2685,1232.1h-10v6.6h10V1232.1z M2675.1,1272.8v5h14.6v-5H2675.1z
		 M2699.6,1232.1h-10.3v6.6h10.3V1232.1z M2705.8,1273.2h-4.3v-26.4h4.3V1273.2z M2714.5,1232.1h-10.6v6.6h10.6V1232.1z
		 M2719.4,1244.6v32.9c0,2.8-0.7,4.1-2.6,4.8c-1.9,0.7-5.3,0.8-10.5,0.8c-0.2-1.2-0.9-3.1-1.5-4.4c4.1,0.1,7.8,0.1,8.8,0.1
		c1.1-0.1,1.5-0.3,1.5-1.3v-32.9H2719.4z"/>
	<path class="st0" d="M2759.3,1249.1v8.5h21.7v4.2h-21.7v15.2h24.5v4.3h-53.5v-4.3h24.1v-15.2h-21.3v-4.2h21.3v-8.5h-13.4v-3.4
		c-3.2,1.7-6.5,3.3-9.9,4.5c-0.7-1.3-1.9-3.2-3.1-4.2c11.6-3.8,23-11.1,28.9-20.3l4.2,2c-0.4,0.7-1,1.5-1.6,2.2
		c6.2,6.6,17.1,13.1,26.6,16.1c-1.1,0.9-2.6,2.8-3.2,4c-3.2-1.2-6.7-2.9-10-4.8v3.9H2759.3z M2742.2,1263.1c2.4,3.5,5,8.2,6,11.1
		l-4,1.7c-0.9-2.9-3.4-7.8-5.7-11.3L2742.2,1263.1z M2772.3,1244.8c-5.6-3.3-11.1-7.5-15.1-11.7c-4.1,4.5-9.1,8.5-14.6,11.7H2772.3z
		 M2765,1274.6c2.2-3,5-8,6.5-11.4l4.4,1.7c-2.2,3.9-5.1,8.3-7.3,11.3L2765,1274.6z"/>
</g>
<g>
	<path class="st0" d="M214.2,131.9c-7.5,2.9-15.6,5.8-21.8,8l-3-7.1c2.4-0.7,5.4-1.6,8.6-2.6v-23.9H191v-6.8h21.3v6.8h-6.9V128
		l7.7-2.5L214.2,131.9z M222.5,138.8l5.7,4c-4.1,3.2-10.6,6.4-16.1,8.2c-1-1.4-3-3.7-4.5-5c5-1.6,11.2-4.6,14.4-7.2h-6.3v-32.9h9.8
		c0.3-1.4,0.6-2.9,0.8-4.3h-13.1v-6.2h35.2v6.2h-13.8c-0.5,1.5-1.1,2.9-1.6,4.3h13v32.9H222.5z M222.5,115.3h16.3v-3.9h-16.3V115.3z
		 M222.5,124.3h16.3v-4h-16.3V124.3z M222.5,133.4h16.3v-4h-16.3V133.4z M237,139c3.9,2.1,9.5,5.4,12.4,7.8l-5.8,4.4
		c-2.6-2.3-8-5.8-12-8.2L237,139z"/>
	<path class="st0" d="M303.3,96.3v54.1h-7.8v-3.9h-28.8v3.9h-7.5V96.3H303.3z M266.6,103.5v7.2h28.8v-7.2H266.6z M266.6,117.6v7.3
		h28.8v-7.3H266.6z M295.5,139.3v-7.3h-28.8v7.3H295.5z"/>
</g>
<g>
	<path class="st0" d="M895.7,143.6c1,0,1.2-0.8,1.4-6.7c1.4,1.2,4.4,2.4,6.3,2.8c-0.7,8.3-2.5,10.6-6.8,10.6h-4.2
		c-5.7,0-6.8-2.2-6.8-8.6v-12.4h-2.9c-0.9,9.8-3.2,17.5-13.3,22.1c-0.7-1.5-2.3-3.8-3.7-5.2v1.4h-12.1v2.6h-6.3v-21.5h18.5v16.7
		c7.7-3.4,9.1-9,9.7-16.1h-4v-16.9c-0.7,0.7-1.4,1.4-2.1,2c-1.1-1.4-3.7-4-5.2-5.2l0.2-0.2h-19.5v-5.8h9.3c-0.6-2.3-1.9-5.4-3-7.8
		l6.2-1.9c1.4,2.5,2.8,5.8,3.4,8l-4.8,1.7h11v3.4c3.5-3.5,6.8-8.2,8.8-12.9l6.8,2.1c-2.2,4.8-5.4,9.7-8.6,13.7h21.3
		c-2.7-4.2-6.7-9.1-10.2-12.9l5.2-3.5c4.7,5,10.6,11.9,13.2,16.5l-5.6,4c-0.4-0.7-0.7-1.4-1.2-2.1v17.8h-3.9v12.3c0,1.8,0.1,2,1,2
		H895.7z M864.9,117.5h-17.5v-5.6h17.5V117.5z M847.3,120.2h17.5v5.6h-17.5V120.2z M859.6,134.7h-6v7h6V134.7z M878.3,122.9h11V116
		h-11V122.9z"/>
	<path class="st0" d="M916.2,134.3v5.4h-6.8V96.3h20.7v38H916.2z M916.2,103v8.8h7V103H916.2z M923.2,127.6v-9.1h-7v9.1H923.2z
		 M962.8,142.5c0,3.9-0.8,5.8-3.2,7.1c-2.4,1.2-6,1.4-11.3,1.4c-0.3-2.1-1.5-5.3-2.6-7.2c3.4,0.2,7.1,0.1,8.2,0.1
		c1.2,0,1.6-0.4,1.6-1.4v-11h-13.4c-1.4,7.3-4.4,14.7-10.7,19.8c-1.1-1.4-4-3.9-5.7-4.8c9.4-7.7,10.2-19.4,10.2-28.7V95.4h26.9
		V142.5z M955.5,124.9v-8h-12.3v1c0,2.2-0.1,4.5-0.2,7H955.5z M943.2,102.3v8h12.3v-8H943.2z"/>
</g>
<g>
	<path class="st0" d="M1652,112.8h7.1v17.3c0,9.8-2.7,17-17,21.2c-0.9-1.6-3-4-4.5-5.5c5.5-1.4,9-3.3,11.1-5.6
		c-5.2,0.6-10.2,1.2-14.4,1.7l-0.6-6.5c4.7-0.3,11.3-0.9,18-1.4c0.2-1,0.2-2,0.3-3h-14.5v-5.8h14.5v-2.9h-15.9V116h15.9V112.8z
		 M1687.9,111.6h-51V95h51V111.6z M1651.5,101h-7.5v4.7h7.5V101z M1665.9,101h-7.6v4.7h7.6V101z M1690.4,141.6h-17.9v9.3h-7.5v-38.1
		h7.5v3.2h16.7v6.3h-16.7v2.9h15.1v6.1h-15.1v3.7h17.9V141.6z M1680.4,101h-7.8v4.7h7.8V101z"/>
	<path class="st0" d="M1746.5,151.1h-7.7v-2.7h-23.3v2.7h-7.4v-19.3c-3,1.1-6.1,1.9-9.2,2.6c-0.7-2-2.4-5.2-3.8-6.8
		c7.5-1.5,15-4,21.7-7.3c-2.7-2.6-6.4-5.8-9.8-8.4c-1.7,1.1-3.6,2.2-5.6,3.2c-1.1-1.8-3.4-4.6-5.1-5.9c10.1-4.4,17-10.6,20.8-16.5
		l8.3,1.7c-1.1,1.6-2.2,3.1-3.5,4.7h18.2l1.2-0.4l5.1,3c-4.3,9-11.4,16.1-20,21.5h20.1V151.1z M1715.3,105.8
		c-0.8,0.7-1.6,1.3-2.4,1.9c3.6,2.6,7.9,6,10.6,8.6c4.6-3,8.6-6.5,11.6-10.5H1715.3z M1738.9,141.7v-11.8h-23.3v11.8H1738.9z"/>
</g>
<g>
	<path class="st0" d="M2511.4,117h6.3v7.1h-6.3v26.2h-7.2V124h-6.3c-0.2,10-2,19.4-9,27.2c-1.2-1.6-3.5-3.6-5.4-4.8
		c5.7-6.8,7.2-14.6,7.4-22.4h-6.6V117h6.7v-13.8h-5.4v-7h30.7v7h-4.8V117z M2504.2,117v-13.8h-6.3V117H2504.2z M2527,134.4h-7V99.7
		h7V134.4z M2539.5,94v48c0,4.1-0.8,6.1-3.2,7.3c-2.4,1.2-6.1,1.5-11.3,1.5c-0.3-2.1-1.3-5.5-2.3-7.6c3.5,0.1,6.9,0.1,8,0.1
		c1.1,0,1.5-0.3,1.5-1.4V94H2539.5z"/>
	<path class="st0" d="M2587.3,141.8c5.8,1.9,12.2,4.3,16.1,6l-8.9,3.3c-3.5-1.9-9.7-4.5-15.9-6.5l5-2.7h-16.5l4.5,2.1
		c-5.2,3-13.1,5.8-19.4,7.4c-1.2-1.4-3.8-4-5.4-5.3c5.6-0.9,11.7-2.4,16.1-4.2h-8.2v-24.3h41.7v24.3H2587.3z M2603.1,115.3h-55.8
		v-5.1h24.1v-2.3h-17.7v-4.5h17.7v-2.2h-20.6v-4.9h20.6v-3.4h7.6v3.4h21.5v4.9h-21.5v2.2h18.7v4.5h-18.7v2.3h24V115.3z M2562,124.2
		h27v-2.5h-27V124.2z M2562,130.8h27v-2.5h-27V130.8z M2562,137.5h27v-2.6h-27V137.5z"/>
</g>
<g>
	<path class="st0" d="M183.6,502c-3.5,9.8-8.3,17.7-14.6,24.1c6.8,5.8,15.2,10.2,25.1,12.6c-1.1,1.1-2.4,3-3.2,4.3
		c-10.1-2.9-18.6-7.4-25.5-13.6c-7,6.1-15.6,10.6-25.9,13.9c-0.6-1.1-1.9-3.2-2.9-4.3c10.3-2.9,18.6-7.2,25.4-12.9
		c-6.4-6.6-11.3-14.7-14.9-24.1h-9.6v-4.5h55.8v4.5H183.6z M152,502c3.2,7.9,7.7,15,13.6,20.8c5.5-5.6,9.7-12.4,12.8-20.8H152z
		 M165.1,497.4c-0.7-2.6-2.7-6.7-4.6-9.8l4.8-1.4c1.9,2.9,4,6.9,4.9,9.5L165.1,497.4z"/>
	<path class="st0" d="M254.1,524.3h-24.1v13.4c0,2.7-0.7,4.1-2.9,4.8c-2.2,0.7-5.4,0.8-10.6,0.8c-0.4-1.3-1.3-3.4-2.1-4.5
		c4.2,0.1,8.2,0.1,9.3,0.1c1.2-0.1,1.5-0.3,1.5-1.2v-13.3h-24.3v-4.4h24.3V516c3.6-1.7,7.7-4.5,10.8-7.3h-24.9v-4.4h29.6l1-0.2
		l3.2,2.4c-3.9,4-9.5,8.2-14.9,11v2.3h24.1V524.3z M206.2,505.8h-4.5v-12.7h24.5c-0.9-1.8-2.1-3.9-3.2-5.5l4.4-1.5
		c1.6,2.1,3.3,4.9,4.2,7h22v12.7h-4.7v-8.3h-42.6V505.8z"/>
	<path class="st0" d="M315.7,489.1v54.2h-4.4v-2.4h-42.9v2.4H264v-54.2H315.7z M311.3,536.9V493h-42.9v43.9H311.3z M308.5,508.4v2.9
		h-37.3v-2.9h16.4v-2.8h-10.1v-9.6H302v9.6h-10.5v2.8H308.5z M275.5,514H304v19.6h-28.6V514z M279.1,530.7h21.2v-13.8h-21.2V530.7z
		 M281.3,502.8h16.7v-4.1h-16.7V502.8z M283.1,519.5h13.2v8.5h-13.2V519.5z M285.9,525.6h7.3V522h-7.3V525.6z"/>
	<path class="st0" d="M368.6,516.5v26.9h-4.7v-22.3h-26.1c-0.9,8.1-3.4,15.9-9.2,22.5c-0.7-1.1-2.4-2.7-3.5-3.4
		c7.8-9,8.7-20.7,8.7-32v-20.9h4.6V502h23.4v-15.3h4.7v19.8h-28.1v1.7c0,2.8-0.1,5.6-0.2,8.3H368.6z"/>
</g>
<g>
	<path class="st1" d="M215.2,456.4c-1.1,0-2.2-0.4-3.1-1.3l-17.8-17.8h-25.9c-16.7,0-30.3-13.6-30.3-30.3v-66.7
		c0-16.7,13.6-30.3,30.3-30.3h43.8c2.4,0,4.3,1.9,4.3,4.3s-1.9,4.3-4.3,4.3h-43.8c-11.9,0-21.7,9.7-21.7,21.7V407
		c0,11.9,9.7,21.7,21.7,21.7h28.2c1.8,0,3.3,1.1,4,2.6l10.3,10.3l0-8.6c0-2.4,1.9-4.3,4.3-4.3H262c11.9,0,21.7-9.7,21.7-21.7v-29.9
		c0-2.4,1.9-4.3,4.3-4.3s4.3,1.9,4.3,4.3V407c0,16.7-13.6,30.3-30.3,30.3h-42.5l0,14.7c0,1.8-1.1,3.3-2.7,4
		C216.4,456.3,215.8,456.4,215.2,456.4z"/>
	<path class="st1" d="M332.2,375.9c-1.1,0-2.2-0.4-3.1-1.3L313,358.5c-5.2,1.4-10.6,2-16,2h-11c-34.7,0-63-28.3-63-63s28.3-63,63-63
		h11c34.7,0,63,28.3,63,63c0,10.1-2.3,19.7-6.8,28.6c-4,7.8-9.7,14.9-16.6,20.4v25.1c0,1.8-1.1,3.3-2.7,4
		C333.4,375.8,332.8,375.9,332.2,375.9z M314.2,349.3c1.1,0,2.2,0.4,3.1,1.3l10.6,10.6v-16.7c0-1.4,0.6-2.6,1.7-3.5
		c13.8-10.4,21.7-26.2,21.7-43.4c0-29.9-24.4-54.3-54.3-54.3h-11c-29.9,0-54.3,24.4-54.3,54.3c0,29.9,24.4,54.3,54.3,54.3h11
		c5.4,0,10.8-0.8,16-2.4C313.4,349.3,313.8,349.3,314.2,349.3z"/>
	<path class="st1" d="M257.3,377.6h-91.4c-2.4,0-4.3-1.9-4.3-4.3c0-2.4,1.9-4.3,4.3-4.3h91.4c2.4,0,4.3,1.9,4.3,4.3
		C261.6,375.6,259.7,377.6,257.3,377.6z"/>
	<path class="st1" d="M257.3,401.8c-1.1,0-2.3-0.5-3.1-1.3c-0.8-0.8-1.3-1.9-1.3-3.1s0.5-2.3,1.3-3.1c0.8-0.8,1.9-1.3,3.1-1.3
		s2.3,0.5,3.1,1.3c0.8,0.8,1.3,1.9,1.3,3.1c0,1.1-0.5,2.3-1.3,3.1C259.5,401.4,258.4,401.8,257.3,401.8z"/>
	<path class="st1" d="M240.2,401.8h-74.4c-2.4,0-4.3-1.9-4.3-4.3s1.9-4.3,4.3-4.3h74.4c2.4,0,4.3,1.9,4.3,4.3
		S242.6,401.8,240.2,401.8z"/>
	<path class="st1" d="M229.1,353.3h-63.3c-2.4,0-4.3-1.9-4.3-4.3c0-2.4,1.9-4.3,4.3-4.3h63.3c2.4,0,4.3,1.9,4.3,4.3
		C233.4,351.4,231.5,353.3,229.1,353.3z"/>
	<path class="st1" d="M334.9,299.8h-81.5c-2.1,0-3.9-1.7-3.9-3.9s1.7-3.9,3.9-3.9h81.5c2.1,0,3.9,1.7,3.9,3.9S337,299.8,334.9,299.8
		z"/>
	<path class="st1" d="M334.9,321.4c-1,0-2-0.4-2.7-1.1c-0.7-0.7-1.1-1.7-1.1-2.7c0-1,0.4-2,1.1-2.7c0.7-0.7,1.7-1.1,2.7-1.1
		c1,0,2,0.4,2.7,1.1c0.7,0.7,1.1,1.7,1.1,2.7c0,1-0.4,2-1.1,2.7C336.9,321,335.9,321.4,334.9,321.4z"/>
	<path class="st1" d="M319.7,321.4h-66.3c-2.1,0-3.9-1.7-3.9-3.9s1.7-3.9,3.9-3.9h66.3c2.1,0,3.9,1.7,3.9,3.9
		S321.8,321.4,319.7,321.4z"/>
	<path class="st1" d="M309.8,278.1h-56.4c-2.1,0-3.9-1.7-3.9-3.9c0-2.1,1.7-3.9,3.9-3.9h56.4c2.1,0,3.9,1.7,3.9,3.9
		C313.6,276.4,311.9,278.1,309.8,278.1z"/>
</g>
<g>
	<path class="st0" d="M185.2,928.8c-3.5,9.8-8.3,17.7-14.6,24.1c6.8,5.8,15.2,10.2,25.1,12.6c-1.1,1.1-2.4,3-3.2,4.3
		c-10.1-2.9-18.6-7.4-25.5-13.6c-7,6.1-15.6,10.6-25.9,13.9c-0.6-1.1-1.9-3.2-2.9-4.3c10.3-2.9,18.6-7.2,25.4-12.9
		c-6.4-6.6-11.3-14.7-14.9-24.1h-9.6v-4.5H195v4.5H185.2z M153.6,928.8c3.2,7.9,7.7,15,13.6,20.8c5.5-5.6,9.7-12.4,12.8-20.8H153.6z
		 M166.8,924.2c-0.7-2.6-2.7-6.7-4.6-9.8l4.8-1.4c1.9,2.9,4,6.9,4.9,9.5L166.8,924.2z"/>
	<path class="st0" d="M255.7,951.1h-24.1v13.4c0,2.7-0.7,4.1-2.9,4.8c-2.2,0.7-5.4,0.8-10.6,0.8c-0.4-1.3-1.3-3.4-2.1-4.5
		c4.2,0.1,8.2,0.1,9.3,0.1c1.2-0.1,1.5-0.3,1.5-1.2v-13.3h-24.3v-4.4h24.3v-3.9c3.6-1.7,7.7-4.5,10.8-7.3h-24.9v-4.4h29.6l1-0.2
		l3.2,2.4c-3.9,4-9.5,8.2-14.9,11v2.3h24.1V951.1z M207.8,932.6h-4.5v-12.7h24.5c-0.9-1.8-2.1-3.9-3.2-5.5l4.4-1.5
		c1.6,2.1,3.3,4.9,4.2,7h22v12.7h-4.7v-8.3h-42.6V932.6z"/>
	<path class="st0" d="M317.3,915.9v54.2h-4.4v-2.4H270v2.4h-4.3v-54.2H317.3z M312.9,963.7v-43.9H270v43.9H312.9z M310.2,935.2v2.9
		h-37.3v-2.9h16.4v-2.8h-10.1v-9.6h24.6v9.6h-10.5v2.8H310.2z M277.1,940.8h28.6v19.6h-28.6V940.8z M280.8,957.5h21.2v-13.8h-21.2
		V957.5z M283,929.6h16.7v-4.1H283V929.6z M284.7,946.3h13.2v8.5h-13.2V946.3z M287.6,952.4h7.3v-3.6h-7.3V952.4z"/>
	<path class="st0" d="M370.3,943.3v26.9h-4.7v-22.3h-26.1c-0.9,8.1-3.4,15.9-9.2,22.5c-0.7-1.1-2.4-2.7-3.5-3.4
		c7.8-9,8.7-20.7,8.7-32v-20.9h4.6v14.7h23.4v-15.3h4.7v19.8h-28.1v1.7c0,2.8-0.1,5.6-0.2,8.3H370.3z"/>
</g>
<g>
	<g>
		<defs>
			<rect id="SVGID_1_" x="134.2" y="632.1" width="229.7" height="229.7"/>
		</defs>
		<clipPath id="SVGID_2_">
			<use xlink:href="#SVGID_1_"  style="overflow:visible;"/>
		</clipPath>
		<path class="st2" d="M362,821.7l-38.8-38.8l19-19c1.6-1.6,2.3-4,1.8-6.3c-0.5-2.3-2.2-4.1-4.4-4.8l-114.2-38.1
			c-2.4-0.8-5.1-0.2-6.9,1.6c-1.8,1.8-2.4,4.5-1.6,6.9l38.1,114.2c0.7,2.2,2.6,3.9,4.8,4.4c2.3,0.5,4.7-0.1,6.3-1.8l19-19l38.8,38.8
			c1.3,1.3,3,2,4.8,2c1.7,0,3.4-0.7,4.8-2l28.6-28.6C364.6,828.6,364.6,824.4,362,821.7L362,821.7z M328.6,845.5l-38.8-38.8
			c-2.6-2.6-6.9-2.6-9.5,0l-16.1,16.1l-30.4-91.1l91.1,30.4l-16.1,16.1c-2.6,2.6-2.6,6.9,0,9.5l38.8,38.8L328.6,845.5z M328.6,845.5
			"/>
	</g>
	<path class="st1" d="M221.7,685.9c3.7,0,6.7-3,6.7-6.7v-40.4c0-3.7-3-6.7-6.7-6.7c-3.7,0-6.7,3-6.7,6.7v40.4
		C215,682.9,218,685.9,221.7,685.9L221.7,685.9z M221.7,685.9"/>
	<path class="st1" d="M169.4,657.7c-2.6-2.6-6.9-2.6-9.5,0c-2.6,2.6-2.6,6.9,0,9.5l28.6,28.6c2.6,2.6,6.9,2.6,9.5,0
		c2.6-2.6,2.6-6.9,0-9.5L169.4,657.7z M169.4,657.7"/>
	<path class="st1" d="M188.4,743.4l-28.6,28.6c-2.6,2.6-2.6,6.9,0,9.5c2.6,2.6,6.9,2.6,9.5,0l28.6-28.6c2.6-2.6,2.6-6.9,0-9.5
		C195.3,740.7,191,740.7,188.4,743.4L188.4,743.4z M188.4,743.4"/>
	<path class="st1" d="M255,695.8l28.6-28.6c2.6-2.6,2.6-6.9,0-9.5c-2.6-2.6-6.9-2.6-9.5,0l-28.6,28.6c-2.6,2.6-2.6,6.9,0,9.5
		C248.1,698.4,252.4,698.4,255,695.8L255,695.8z M255,695.8"/>
	<path class="st1" d="M188.1,719.6c0-3.7-3-6.7-6.7-6.7h-40.4c-3.7,0-6.7,3-6.7,6.7s3,6.7,6.7,6.7h40.4
		C185,726.3,188.1,723.3,188.1,719.6L188.1,719.6z M188.1,719.6"/>
</g>
<g>
	<path class="st0" d="M159,1323.9c-1.4,4.1-3,8.2-5,12.1v43.3h-4.4v-35.3c-1.9,3-3.9,5.8-6,8.2c-0.4-1-1.6-3.5-2.4-4.7
		c5.5-6,10.5-15.4,13.6-24.8L159,1323.9z M197.2,1326.2v52.5h-4.4v-3.2h-27.4v3.7h-4.3v-53H197.2z M192.8,1371.3v-41.1h-27.4v41.1
		H192.8z M181.1,1342.8v6.8h7.2v16.6h-17.7v-16.6h6.8v-6.8H168v-3.5h9.3v-7h3.8v7h9.6v3.5H181.1z M184.6,1353.1h-10.5v9.6h10.5
		V1353.1z"/>
	<path class="st0" d="M235.6,1322.6c-0.1,2.2-0.1,5.4-0.4,9c0.9,7.4,4.7,33.4,26.6,43.2c-1.3,1.1-2.7,2.6-3.4,3.9
		c-15.6-7.3-22.2-22.7-25.2-34.2c-2.9,12.4-9.5,26.4-24.6,34.5c-0.8-1.2-2.3-2.6-3.7-3.6c25.8-13.1,25.5-43.3,25.6-52.8H235.6z"/>
	<path class="st0" d="M285.3,1339.5h-17.8v-3.7h17.8V1339.5z M290.2,1371.6c-5,3-12.8,5.9-19,7.6c-0.8-0.9-2.4-2.7-3.4-3.5
		c6.3-1.3,13.8-3.5,18.2-6L290.2,1371.6z M283.7,1329.7h-14.9v-3.6h14.9V1329.7z M275.6,1344.3h40.3v25h-40.3V1344.3z M280.1,1351.7
		h31.2v-4.2h-31.2V1351.7z M280.1,1358.9h31.2v-4.2h-31.2V1358.9z M280.1,1366.2h31.2v-4.4h-31.2V1366.2z M295,1330.2
		c-1.4,2.4-3,4.5-4.7,6.2c-0.7-0.7-2.5-1.9-3.5-2.4c3.2-2.9,5.8-7.3,7.2-11.8l4.2,0.9c-0.4,1.2-0.9,2.3-1.3,3.4h20.8l0.7-0.2
		l3.1,1.1c-1.6,3.2-3.5,6.8-5.2,9l-3.7-1.3c0.9-1.3,2.1-3.1,2.9-4.9h-9.9v0.8c0,0.6-0.1,1.3-0.2,2.1c3.3,3.7,10.1,6.2,18.2,6.8
		c-0.9,0.9-2.1,2.6-2.6,3.7c-7.1-1-13.1-3.5-16.9-7.3c-2.1,3-7,5.9-17.9,7.6c-0.5-1-1.7-2.7-2.5-3.4c16.1-2.2,17.6-6.4,17.6-9.6
		v-0.6H295z M304.4,1369.7c6.7,2.1,13.9,4.7,18.3,6.7l-4,2.7c-4-2-10.7-4.7-17.4-6.9L304.4,1369.7z"/>
	<path class="st0" d="M338.4,1352.2c-1.3,6.9-3.9,15.6-7.2,20.1c-0.5-1.6-1.6-3.7-2.4-5.1c2.6-3.6,5.2-10.5,6.2-16.1L338.4,1352.2z
		 M343.9,1347.5v31.7h-4.3v-31.7h-10v-4.4h10v-20.7h4.3v20.7H354v4.4H343.9z M333.5,1341c-0.4-3.7-1.8-9.4-3.4-13.8l3.4-0.8
		c1.8,4.3,3.2,9.9,3.7,13.6L333.5,1341z M346.8,1351.2c1.2,1.8,5.7,10.3,6.6,12.4l-3.3,3.4c-1.1-3.4-4.5-11.3-5.8-14L346.8,1351.2z
		 M354,1327.2c-1.5,4.7-3.4,10.5-5.1,13.9l-3-1c1.5-3.7,3.2-9.8,4.2-13.9L354,1327.2z M378.3,1361.7v17.5H374v-16.7l-19.3,3.5
		l-0.7-4.4l20-3.5v-35.7h4.4v34.9l7.3-1.3l0.7,4.2L378.3,1361.7z M365.7,1353c-2.1-2.2-6.6-5.4-10.3-7.5l2.2-3.2
		c3.7,1.9,8.2,4.8,10.4,7L365.7,1353z M368.4,1337.9c-2-2.4-6.2-5.7-9.8-8l2.4-3.1c3.5,2.1,7.8,5.3,9.8,7.6L368.4,1337.9z"/>
</g>
<g>
	<path class="st1" d="M303.3,1052.7H194.9c-9,0-16.4,7.4-16.4,16.4v210.2c0,9,7.4,16.4,16.4,16.4h108.4c9,0,16.4-7.4,16.4-16.4
		v-210.2C319.7,1060.1,312.3,1052.7,303.3,1052.7L303.3,1052.7z M231.7,1064.6h34.7c1.1,0,2,0.9,2,2c0,1.1-0.9,2-2,2h-34.7
		c-1.1,0-2-0.9-2-2C229.7,1065.5,230.6,1064.6,231.7,1064.6L231.7,1064.6z M249.1,1287.6c-4.5,0-8.2-3.7-8.2-8.2
		c0-4.5,3.7-8.2,8.2-8.2c4.5,0,8.2,3.7,8.2,8.2C257.3,1283.9,253.6,1287.6,249.1,1287.6L249.1,1287.6z M308.2,1265.4H189.9v-186.6
		h118.4V1265.4z M308.2,1265.4"/>
</g>
<path class="st3" d="M2934.6,1436H117.4c-36,0-65.4-29.4-65.4-65.4V105.4c0-36,29.4-65.4,65.4-65.4h2817.3c36,0,65.4,29.4,65.4,65.4
	v1265.3C3000,1406.6,2970.6,1436,2934.6,1436z"/>
<line class="st4" x1="52" y1="184" x2="3000" y2="184"/>
<line class="st3" x1="500" y1="40" x2="500" y2="1436"/>
<line class="st3" x1="1332" y1="40" x2="1332" y2="1436"/>
<line class="st3" x1="2084" y1="40" x2="2084" y2="1436"/>
<line class="st3" x1="52" y1="587" x2="3000" y2="587"/>
<line class="st3" x1="52" y1="1012.7" x2="3000" y2="1012.7"/>
</svg>
