<svg id="Layer_35" enable-background="new 0 0 64 64" height="512" viewBox="0 0 64 64" width="512" xmlns="http://www.w3.org/2000/svg"><path d="m50 62h-11l6-7-3-3.42 5-2.58-1.92-5.92 5.81 2.38c3.36 1.37 6.14 3.69 8.07 6.58 1.94 2.88 3.04 6.33 3.04 9.96z" fill="#b4dd7f"/><path d="m40 37.5c-1.28.33-2.62.5-4 .5s-2.72-.17-4-.5c-6.9-1.78-12-8.04-12-15.5 0-2.12.41-4.15 1.17-6 .24-.6.51-1.19.83-1.75 2.73-4.92 7.97-8.25 14-8.25 8.84 0 16 7.16 16 16 0 7.46-5.1 13.72-12 15.5z" fill="#f0d0b4"/><path d="m45.08 43.08 1.92 5.92-5 2.58 3 3.42-6 7h-2l5.82-19.85z" fill="#a0d468"/><path d="m46 15-7 7-3 3-7 7-3-3 7-7 3-3 7-7z" fill="#fcd770"/><path d="m38.879 22.05h4.243v9.899h-4.243z" fill="#fcd770" transform="matrix(.707 -.707 .707 .707 -7.083 36.9)"/><path d="m42.82 42.15-5.82 19.85h-2l-5.82-19.85.33-.13c.43-.18.82-.42 1.15-.72.99 1.95 3.01 3.28 5.34 3.28s4.35-1.33 5.34-3.28c.33.3.72.54 1.15.72z" fill="#ccd1d9"/><path d="m40 38.31c0 1.16.5 2.24 1.34 2.99-.99 1.95-3.01 3.28-5.34 3.28s-4.35-1.33-5.34-3.28c.84-.75 1.34-1.83 1.34-2.99v-.81c1.28.33 2.62.5 4 .5s2.72-.17 4-.5z" fill="#f0d0b4"/><path d="m28.879 12.05h4.243v9.899h-4.243z" fill="#fcd770" transform="matrix(.707 -.707 .707 .707 -2.941 26.9)"/><path d="m29.18 42.15 5.82 19.85h-2l-6-7 3-3.42-5-2.58 1.92-5.92z" fill="#a0d468"/><path d="m22 62h-12c0-7.26 4.39-13.8 11.11-16.54l5.81-2.38-1.92 5.92 5 2.58-3 3.42 6 7z" fill="#b4dd7f"/><path d="m22 4v10.25c-.32.56-.59 1.15-.83 1.75h-.01-5.16v4l-6-4h-6c-1.1 0-2-.9-2-2v-10c0-1.1.9-2 2-2h16c1.1 0 2 .9 2 2z" fill="#e6e9ed"/><path d="m43 33.414 4.414-4.414-7-7 7-7-4.414-4.414-7 7-7-7-4.414 4.414 7 7-7 7 4.414 4.414 7-7zm1.586-4.414-1.586 1.586-5.586-5.586 1.586-1.586zm-17.172-14 1.586-1.586 5.586 5.586-1.586 1.586zm0 14 15.586-15.586 1.586 1.586-15.586 15.586z"/><path d="m15.293 4.293-3.293 3.293-3.293-3.293-1.414 1.414 3.293 3.293-3.293 3.293 1.414 1.414 3.293-3.293 3.293 3.293 1.414-1.414-3.293-3.293 3.293-3.293z"/><path d="m51.272 44.53-8.408-3.439c-1.133-.463-1.864-1.553-1.864-2.777v-.067c6.941-2.14 12-8.613 12-16.247 0-9.374-7.626-17-17-17-5.212 0-9.879 2.363-13 6.068v-7.068c0-1.654-1.346-3-3-3h-16c-1.654 0-3 1.346-3 3v10c0 1.654 1.346 3 3 3h5.697l7.303 4.869v-4.869h2.753c-.488 1.582-.753 3.26-.753 5 0 7.634 5.059 14.107 12 16.247v.067c0 1.224-.731 2.313-1.864 2.776l-8.408 3.439c-7.124 2.916-11.728 9.773-11.728 17.471v1h54v-1c0-7.698-4.604-14.555-11.728-17.47zm-5.485 3.97-4.458 2.297 2.141-7.297.806.33zm-18.063-4.67.806-.33 2.141 7.297-4.458-2.297zm5.94 17.17h-.205l-5.136-5.993 2.684-3.063zm-3.277-18.277c1.303 1.762 3.367 2.853 5.613 2.853s4.31-1.091 5.613-2.853l-5.362 18.277h-.502zm10.606 9.221 2.684 3.063-5.136 5.993h-.205zm-25.993-36.944v3.131l-4.697-3.131h-6.303c-.552 0-1-.449-1-1v-10c0-.551.448-1 1-1h16c.552 0 1 .449 1 1v10.017c-.171.32-.323.651-.474.983zm6 7c0-8.271 6.729-15 15-15s15 6.729 15 15-6.729 15-15 15-15-6.729-15-15zm15 17c1.036 0 2.045-.108 3.03-.286.08 1.009.457 1.944 1.065 2.708-.924 1.328-2.442 2.154-4.095 2.154s-3.171-.826-4.095-2.154c.609-.764.985-1.699 1.065-2.708.985.178 1.994.286 3.03.286zm-14.515 7.382 3.816-1.561-1.514 4.679 4.618 2.379-2.729 3.114 5.15 6.007h-7.826v-7.95h-2v7.95h-9.971c.377-6.471 4.397-12.14 10.456-14.618zm29.515 14.618v-7.95h-2v7.95h-7.826l5.15-6.007-2.729-3.114 4.618-2.379-1.515-4.679 3.816 1.561c6.06 2.478 10.08 8.147 10.457 14.618z"/></svg>