<?xml version="1.0" encoding="utf-8"?>
<!-- Generator: Adobe Illustrator 21.1.0, SVG Export Plug-In . SVG Version: 6.00 Build 0)  -->
<svg version="1.1" id="图层_1" xmlns="http://www.w3.org/2000/svg" xmlns:xlink="http://www.w3.org/1999/xlink" x="0px" y="0px"
	 viewBox="0 0 300 776" style="enable-background:new 0 0 300 776;" xml:space="preserve">
<style type="text/css">
	.st0{display:none;}
	.st1{display:inline;}
	.st2{fill:#FFFFFF;}
	.st3{fill:none;}
	.st4{fill:none;stroke:#999999;stroke-miterlimit:10;}
	.st5{fill:#CCCCCC;}
	.st6{clip-path:url(#SVGID_2_);}
	.st7{clip-path:url(#SVGID_4_);}
	.st8{fill:#FCE2CB;}
	.st9{fill:#C4C3C2;}
	.st10{fill:#C67989;}
	.st11{fill:#B7A99E;}
	.st12{fill:#6D6660;}
	.st13{fill:#723522;}
	.st14{fill:#633B1F;stroke:#000000;stroke-miterlimit:10;}
	.st15{fill:#F2F2F2;}
	.st16{opacity:0.7;}
	.st17{clip-path:url(#SVGID_6_);}
	.st18{clip-path:url(#SVGID_8_);}
	.st19{fill:#242F43;}
	.st20{fill:#FFE1CC;}
	.st21{fill:#49709E;}
	.st22{fill:#42210B;}
	.st23{fill:#2B456B;}
	.st24{opacity:0.69;fill:#FFFFFF;}
	.st25{opacity:0.66;fill:#FFFFFF;}
	.st26{fill:#FFE98C;}
	.st27{opacity:0.55;fill:#D8C9BF;}
	.st28{fill:#A59B95;}
	.st29{display:none;fill:#FFFFFF;}
	.st30{display:none;opacity:0.7;}
	.st31{display:inline;clip-path:url(#SVGID_10_);}
	.st32{clip-path:url(#SVGID_12_);}
	.st33{fill:#FBDEFC;}
	.st34{fill:#DDAAE2;}
	.st35{fill:#FF7FB1;}
	.st36{fill:#F95F9D;}
	.st37{opacity:0.1091;}
	.st38{opacity:0.41;}
	.st39{fill:#B3B3B3;}
	.st40{fill:#66442B;}
	.st41{opacity:0.26;fill:#FFFFFF;}
</style>
<g class="st0">
	<g class="st1">
		<path class="st2" d="M392.5,774.4h-751c-19.5,0-35.5-16-35.5-35.5V41.5C-394,22-378,6-358.5,6h751C412,6,428,22,428,41.5v697.4
			C428,758.5,412,774.4,392.5,774.4z"/>
		<rect x="-119.3" y="13.9" class="st3" width="410.5" height="768.4"/>
		<rect x="-345.4" y="51.1" class="st4" width="511.1" height="680.2"/>
		<rect x="-345.4" y="77.4" class="st5" width="521.5" height="108.1"/>
	</g>
	<g class="st1">
		<defs>
			<path id="SVGID_1_" d="M325,774.4H46c-20.9,0-38-17.1-38-38V44C8,23.1,25.1,6,46,6h279c20.9,0,38,17.1,38,38v692.4
				C363,757.3,345.9,774.4,325,774.4z"/>
		</defs>
		<clipPath id="SVGID_2_">
			<use xlink:href="#SVGID_1_"  style="overflow:visible;"/>
		</clipPath>
		<g class="st6">
			<defs>
				<rect id="SVGID_3_" x="-7.3" y="5" width="404.5" height="759.5"/>
			</defs>
			<clipPath id="SVGID_4_">
				<use xlink:href="#SVGID_3_"  style="display:none;overflow:visible;"/>
			</clipPath>
			<g class="st7">
				<path class="st5" d="M127.6,852.2l-8-50.5c0,0-17.3-39.9-12-51.9c0,0-29.3-6.6-26.6-30.6c0,0,8-41.2,8-53.2v-16l-14.6-1.3
					c0,0-13.3-13.3-13.3-22.6l-2.7-6.6c0,0,6.6-38.6,4-50.5v-10.6c0,0-8-33.2-5.3-41.2l4-9.3c0,0,4-62.5,13.3-81.1l6.6-14.6
					c0,0-8-30.6-2.7-67.8c0,0,1.3-57.2,4-70.5l5.3-17.3l55.8-33.2l4-2.7c0,0,6.6-9.3,13.3-9.3c0,0,5.3-16,5.3-27.9
					c0,0-14.6-16-17.3-19.9c0,0-19.9-9.3-16-23.9c0,0-6.6-13.3-6.6-17.3l-6.6,6.6c0,0,2.7-18.6,1.3-19.9c0,0-4,0-2.7,9.3
					c0,0-5.3-27.9,0-37.2c0,0-5.3,8-5.3,12c0,0,0-17.3,6.6-22.6c0,0,6.6-13.3,10.6-16c0,0,2.7-9.3,10.6-10.6c0,0,0-8,5.3-12
					c0,0-2.7,9.3-2.7,10.6c0,0,8-8,25.3-12l-2.7,2.7c0,0,23.9-4,33.2,0l17.3,9.3c0,0,16,8,16,12l8,1.3l-5.3,2.7
					c0,0,17.3,21.3,14.6,38.6c0,0,2.7,12,5.3,13.3c0,0-9.3-1.3-13.3-8c0,0,1.3,8,6.6,10.6h4l-4,2.7c0,0,2.7,2.7,6.6,2.7l-8,2.7
					l5.3,5.3c0,0-6.6,0-6.6-1.3c0,0,2.7,6.6,0,12c0,0-4-13.3-6.6-12l-1.3,5.3c0,0,9.3,17.3-12,30.6c0,0-5.3,13.3-10.6,18.6
					c0,0-1.3,26.6,13.3,33.2c0,0,9.3-2.7,14.6,2.7c0,0,16,12,35.9,17.3c0,0,22.6,1.3,29.3,16c0,0,13.3,29.3,14.6,73.1
					c0,0,9.3,23.9,13.3,59.8c0,0,14.6,37.2,9.3,53.2c0,0,10.6,12-10.6,39.9c0,0-12,19.9-10.6,43.9c0,0,0,16-8,25.3
					c0,0-5.3,9.3-6.6,13.3c0,0-2.7,2.7-5.3,4c0,0-2.7,8-6.6,10.6l-5.3,17.3l6.6,5.3c0,0,5.3,8,0,23.9c0,0-4,38.6,5.3,51.9l5.3,31.9
					c0,0,6.6,0,0,12c-6.6,12-16,21.3-21.3,25.3c0,0,2.7,33.2,5.3,38.6c0,0,1.3,21.3-2.7,25.3l4,41.2l-55.8,8c0,0-8-41.2-5.3-51.9
					c0,0-13.3-25.3-13.3-61.2c0,0-14.6-10.6-14.6-19.9c0,0-6.6-74.5-14.6-83.8c0,0,0,47.9,5.3,63.8c0,0,10.6,4-2.7,35.9
					c0,0-13.3,12-21.3,13.3c0,0,0,38.6,4,50.5c0,0,16,53.2,12,74.5L127.6,852.2z"/>
				<path class="st2" d="M98.3,852.2l-8-50.5c0,0-17.3-39.9-12-51.9c0,0-29.3-6.6-26.6-30.6c0,0,8-41.2,8-53.2v-16l-14.6-1.3
					c0,0-13.3-13.3-13.3-22.6l-2.7-6.6c0,0,6.6-38.6,4-50.5v-10.6c0,0-8-33.2-5.3-41.2l4-9.3c0,0,4-62.5,13.3-81.1l6.6-14.6
					c0,0-8-30.6-2.7-67.8c0,0,1.3-57.2,4-70.5l5.3-17.3l55.8-33.2l4-2.7c0,0,6.6-9.3,13.3-9.3c0,0,5.3-16,5.3-27.9
					c0,0-14.6-16-17.3-19.9c0,0-19.9-9.3-16-23.9c0,0-6.6-13.3-6.6-17.3l-6.6,6.6c0,0,2.7-18.6,1.3-19.9c0,0-4,0-2.7,9.3
					c0,0-5.3-27.9,0-37.2c0,0-5.3,8-5.3,12c0,0,0-17.3,6.6-22.6c0,0,6.6-13.3,10.6-16c0,0,2.7-9.3,10.6-10.6c0,0,0-8,5.3-12
					c0,0-2.7,9.3-2.7,10.6c0,0,8-8,25.3-12l-2.7,2.7c0,0,23.9-4,33.2,0l17.3,9.3c0,0,16,8,16,12l8,1.3l-5.3,2.7
					c0,0,17.3,21.3,14.6,38.6c0,0,2.7,12,5.3,13.3c0,0-9.3-1.3-13.3-8c0,0,1.3,8,6.6,10.6h4l-4,2.7c0,0,2.7,2.7,6.6,2.7l-8,2.7
					l5.3,5.3c0,0-6.6,0-6.6-1.3c0,0,2.7,6.6,0,12c0,0-4-13.3-6.6-12l-1.3,5.3c0,0,9.3,17.3-12,30.6c0,0-5.3,13.3-10.6,18.6
					c0,0-1.3,26.6,13.3,33.2c0,0,9.3-2.7,14.6,2.7c0,0,16,12,35.9,17.3c0,0,22.6,1.3,29.3,16c0,0,13.3,29.3,14.6,73.1
					c0,0,9.3,23.9,13.3,59.8c0,0,14.6,37.2,9.3,53.2c0,0,10.6,12-10.6,39.9c0,0-12,19.9-10.6,43.9c0,0,0,16-8,25.3
					c0,0-5.3,9.3-6.6,13.3c0,0-2.7,2.7-5.3,4c0,0-2.7,8-6.6,10.6l-5.3,17.3l6.6,5.3c0,0,5.3,8,0,23.9c0,0-4,38.6,5.3,51.9l5.3,31.9
					c0,0,6.6,0,0,12s-16,21.3-21.3,25.3c0,0,2.7,33.2,5.3,38.6c0,0,1.3,21.3-2.7,25.3l4,41.2l-55.8,8c0,0-8-41.2-5.3-51.9
					c0,0-13.3-25.3-13.3-61.2c0,0-14.6-10.6-14.6-19.9c0,0-6.6-74.5-14.6-83.8c0,0,0,47.9,5.3,63.8c0,0,10.6,4-2.7,35.9
					c0,0-13.3,12-21.3,13.3c0,0,0,38.6,4,50.5c0,0,16,53.2,12,74.5L98.3,852.2z"/>
				<path class="st8" d="M136.4,183.2c0,0,1.1,13.2-3.9,28.1c0,0-7.9,20.8-7.9,22.8l4,3c0,0,11.9,13.9,34.7,11.9
					c0,0,15.9-1,34.7-19.8l2-1l3-13.9c0,0-10.9,0-15.9-19.8c0,0-2-18.8,0-20.8L136.4,183.2z"/>
				<path class="st10" d="M135.5,179.5c0,0,1,5.9,1,8.9c0,0,12.9,15.9,23.8,15.9c0,0,8.7-0.2,26.2-16.5l-0.4-14.3L135.5,179.5z"/>
				<path class="st8" d="M33.4,569.2c0,0,2,28.8-4,49.6c0,0-1,4,4,8.9c0,0-2,0,5,12.9l5.9,7.9l15.9,1l1-14.9c0,0-4-30.7-3-40.7
					v-19.8c0,0-2,3-8.9,2C49.2,576.1,36.3,574.1,33.4,569.2z"/>
				<path class="st11" d="M58.1,565.2c0,0,0,26.8,0,31.7c0,0,1,30.7,3,41.6c0,0-2,46.6-5,55.5l-4,22.8c0,0-7.9,19.8,21.8,31.7
					c0,0,25.8,9.9,50.6,4c0,0,9.9-1,18.8-4c0,0,23.8-6.9,25.8-24.8c0,0,5.9-20.8-2-24.8c0,0-6.9-34.7-5-53.5v-9.9c0,0,3,2,6.9,20.8
					c0,0,5.9,32.7,6.9,47.6v8.9c0,0-3,12.9,11.9,23.8c0,0,15.1,17.1,37.3,15.5c0,0,20.2,0.4,36.1-14.5c0,0,12.9-8.9,20.8-29.7
					c0,0,3-5.9-1-5.9l-1-3l-2-11.9l-2-8.9l-3-12.9l-3-13.9l-1-12.9c0,0-1-13.9,1-22.8l2-8.9c0,0,1-4-1-7.9c0,0-1-2-1-4l-4-3
					c0,0-13.2-7.6-15-15.7c0,0-4.8-17-5.8-23C244.5,547.4,58.1,565.2,58.1,565.2z"/>
				<path class="st2" d="M139.4,578.1c0,0,8.9,2,16.9,2c0,0,13.9-1,13.9-2L187,471l-35.7-25.8l-24.8,41.6L139.4,578.1z"/>
				<path class="st12" d="M131.5,212.2c0,0-7.9-1-12.9,8.9s0,0,0,0l-19.8,11.9l-30.7,17.8c0,0-12.9,4-11.9,11.9l-3,12.9
					c0,0-3,15.9-3,21.8l-1,40.7c0,0-1,22.8-2,26.8c0,0-1,21.8,1,27.8l3,18.8l-6.9,16.9c0,0-6.9,25.8-8.9,33.7c0,0-4,35.7-3,46.6
					c0,0-7.9,9.9-4,23.8l3,18.8c0,0,0,5,2,6.9v8.9c0,0,0,4,5.9,5.9c0,0,12.1,5.5,16.5,2.7l2.4-1.7v-9.9c0,0,5.9,5.9,22.8,10.9
					c0,0,15.9,5,22.8,5l5,1c0,0,11.9,12.9,15.9,14.9c0,0,12.9,8.9,16.9-2c0,0,2-20.8,2-25.8c0,0-1-59.5,0-63.5c1-4,1-4,1-4l-1,4
					c0,0,6.9-35.7,12.9-38.7c0,0,19.8,46.6,14.9,71.4c0,0-2,19.8-4,23.8c0,0-3,6.9-2,11.9l1,3l7.9,15.9c0,0,5,9.9,5.9,9.9
					c0,0,3,1,7.9-4l13.9-14.9l1,1h1c0,0,2,0,3,1c0,0,7.9,4,8.9,3c0,0,4-1,11.9-9.9c0,0,16.9-15.9,17.8-19.8l1-2v-4
					c0,0,19,16.7,20.9,17.8c0,0,3.9,2.1,4.9-1.9l2-6.9c0,0,5-2,5.9-4l1-1c0,0,2-7.9,5.9-12.9l5-9.9c0,0,3-7.9,3-12.9
					c0,0,0-18.8,2-21.8c0,0,4-16.9,8.9-24.8l9.9-16.9c0,0,7.9-14.9,0-22.8c0,0,5.9-11.9-3-33.7c0,0-5-16.9-5.9-19.8
					c0,0-5.9-36.7-6.9-37.7c0,0-4-17.8-6.9-22.8c0,0-3-33.7-4-38.7c0,0-5-29.7-15.9-40.7c0,0-3-5-24.8-8.9c0,0-19.8-5.9-29.7-13.9
					c0,0-12.9-9.9-18.8-5l4,2l-3.5,12.4l-6.9,33.7c0,0-11.9,46.6-14.9,49.6c0,0-9.9,27.8-10.9,27.8l-9.9,21.8l-1,2l-4-7.9L138,325.8
					c0,0-6.9-19.8-6.9-28.8c0,0-1-23.8-2-25.8l-5-21.8c0,0-2-9.9,1-17.8C125.1,231.6,132,212.7,131.5,212.2z"/>
				<path class="st8" d="M104.7,138.9c0,0-7.9,5,5.9,18.8l8.9,5.9c0,0,14.9,18.8,26.8,28.8c0,0,5,5,12.9,6.9c0,0,2,3,12.9-6.9
					l11.9-10.9c0,0,11.9-14.9,13.9-21.8c0,0,8.9-5.9,12.9-16.9c0,0,1-13.9-4-13.9l-7.9-25.8l-77.3-27.8L104.7,138.9z"/>
				<path class="st10" d="M129,88.8c0,0-8.9,20.8-1,42.6c0,0-9.9-8.9-9.9-25.8V84.8L129,88.8z"/>
				<path class="st10" d="M134.5,100.2c0,0,10.9,28.8,22.8,31.7c0,0-11.9-10.9-10.9-16.9c0,0,9.9,16.9,23.8,18.8c13.9,2,2,0,2,0
					s-18.8-13.9-23.8-24.8L134.5,100.2z"/>
				<path class="st8" d="M192,739.7c0,0,1,39.7,12.9,62.5c0,0,2,49.6,7.9,66.4c0,0,10.9,52.6,13.9,65.4c0,0,8.9,40.7,11.9,58.5
					l2,20.8c0,0,1,10.9,18.8,12.9h7.9v-1l1-1c0,0,14.9,0,15.9,0l-2-16.9l-5.9-54.5l-5-55.5l-4-41.6l-5-54.5c0,0,5-5.9,0-32.7
					c0,0-4-26.8-2-29.7c0,0-9.9,9.9-20.8,10.9C239.6,749.7,211.8,760.6,192,739.7z"/>
				<path class="st14" d="M104.2,120.5c0,0,7.9,16.9,10.9,22.8l-3-17.8c0,0,5,13.9,11.9,22.8c0,0-6.9-23.8-6.9-35.7
					c0,0,4,11.9,6.9,14.9c0,0-6.9-19.8,0-37.7c0,0,20.8,39.7,29.7,40.7c0,0-8.9-8.9-12.9-20.8c0,0,8.9,15.9,28.8,21.8
					c0,0-15.9-15.9-16.9-19.8c0,0,14.9,12.9,30.7,13.9l-10.9-12.9c0,0,4,1,12.9,5.9c0,0,5,3,14.9,2c0,0,2,12.9-2,23.8
					c0,0,9.9-7.9,11.9-18.8c0,0,5.9,5,5.9,10.9c0,0,2,0,1-11.9c0,0,3,2,5.9,2l-5.9-5c0,0,3-1,6.9-3l-5-2l4-4h-4c0,0-6.9-5-7.9-11.9
					c0,0,5.9,8.9,14.9,9.9c0,0-4-5-5-11.9c0,0-1-15.9-3-17.8c0,0-4-14.9-12.9-23.8c0,0,3,1,5.9-2c0,0-5,2-9.9-3
					c0,0-7.9-7.9-12.9-7.9l-17.8-10.9c0,0-13.9-5.9-35.7,1l5-4c0,0-17.8,3-25.8,11.9c0,0,1-8.9,3-9.9c0,0-5,1-5,11.9
					c0,0-7.9,1-10.9,9.9c0,0-7.9,6.9-9.9,15.9c0,0-9.9,9.9-6.9,21.8l4-7.9c0,0-3,20.8,0,34.7l3-8.9c0,0,1,13.9-1,17.8
					c0,0,3,1,5.9-6.9l1,3c0,0,2,10.9,7.9,18.8l2-12.9L104.2,120.5z"/>
				<path class="st8" d="M79,750.6c0,0-5,10.9,6.9,38.7l4,11.9c0,0,6.9,28.8,7.9,43.6c0,0,5,28.8,6.9,46.6l5,62.5l1,60.5l2,2l1,9.9
					c0,0,13.9-3,17.8,0c0,0,3,0,4,5c0,0,10.9-4,11.9-15.9l1-5.9l2-2c0,0-3-2-1-12.9l3-38.7l4-39.7c0,0,4-35.7,3-50.6
					c0,0-1-32.7-8.9-57.5c0,0-5.9-24.8-5.9-32.7c0,0-2-18.8,0-27.8c0,0-18.8,8.9-45.6,5.9C98.8,753.6,80.9,752.6,79,750.6z"/>
				<path class="st8" d="M246.5,552.3c0,0,21.8,18.8,22.8,18.8c0,0-5.9,15.9-5.9,18.8c0,0-9.9-5-12.9-16.9l-1-2l-3-13.9V552.3"/>
				<g>
					<path class="st15" d="M116.6,128c0,0,2.6,3.9,5.8,5.8c0,0,9,3.2,18,0c0,0,2.6-1.3,1.9-5.1c0,0-4.5-3.2-16.7-3.2L116.6,128z"/>
					<path class="st15" d="M171.3,128c0,0-0.6,4.5,5.1,5.8c0,0,9,1.9,14.8,0c0,0,3.9-1.9,5.1-5.8l-2.6-2.6c0,0-7.7-1.3-11.6,0
						L171.3,128z"/>
					<g>
						<g>
							<path d="M124.2,89.2c-0.3-0.4-0.5-0.8-0.8-1.2c-0.3-0.4-0.9,0-0.6,0.4c4.5,7.7,9,15.4,13.6,23c3.7,6.3,7.7,12.3,13.3,17.1
								c0.4,0.3,0.9-0.2,0.5-0.5c-6-5.1-10.1-11.6-14-18.3c-2-3.3-3.9-6.6-5.9-10c-1-1.7-2-3.3-2.9-5c-0.7-1.1-1.3-2.2-2-3.3
								c-0.2-1.3-0.8-1.9-1.8-1.7C123.8,90,124.4,89.6,124.2,89.2L124.2,89.2z"/>
						</g>
					</g>
					<g>
						<g>
							<path d="M138.7,106.1c4.3,8.2,7.9,18.5,15.3,24.5c0.4,0.3,0.9-0.2,0.5-0.5c-7.3-5.9-10.9-16.2-15.2-24.3
								C139.1,105.2,138.4,105.6,138.7,106.1L138.7,106.1z"/>
						</g>
					</g>
					<g>
						<g>
							<path d="M140.5,109.9c7.7,9.9,16.2,20.1,29.4,21.7c0.5,0.1,0.5-0.7,0-0.8c-13-1.5-21.3-11.8-28.8-21.4
								C140.7,109,140.2,109.5,140.5,109.9L140.5,109.9z"/>
						</g>
					</g>
					<g>
						<g>
							<path d="M152.4,111.2c1.2,1.5,2.1,3.8,3.3,5.4c1.1,1.6,2.4,3.2,3.7,4.7c3.1,3.7,6.6,7,10.4,9.9c0.4,0.3,0.9-0.2,0.5-0.5
								c-4-3.1-7.6-6.6-10.8-10.4c-1.8-2.2-3.4-4.4-4.9-6.8c-0.6-1-1-2.4-2.1-2.9c-0.1-0.1-0.3-0.1-0.5,0.1
								c-0.1,0.1-0.2,0.2-0.2,0.3c-0.1,0.2-0.1,0.4,0,0.5c0.1,0.1,0.1,0.2,0.2,0.2C152.1,112.1,152.7,111.6,152.4,111.2L152.4,111.2
								z"/>
						</g>
					</g>
					<g>
						<g>
							<path d="M151.6,111.2c10.1,8.9,22.4,14.2,35.7,15.5c0.5,0,0.5-0.7,0-0.8c-13.1-1.3-25.3-6.5-35.2-15.3
								C151.8,110.3,151.2,110.8,151.6,111.2L151.6,111.2z"/>
						</g>
					</g>
					<g>
						<g>
							<path d="M151.8,84.9c7.5,5.7,12.6,15.9,17.9,23.5c4.7,6.8,9.6,13.3,15.4,19.2c0.3,0.3,0.9-0.2,0.5-0.5
								c-6.9-7.1-12.6-15.1-18.2-23.3c-4.5-6.6-8.8-14.7-15.3-19.6C151.8,83.9,151.4,84.6,151.8,84.9L151.8,84.9z"/>
						</g>
					</g>
					<g>
						<g>
							<path d="M171.3,112.3c5.5,2,10.5,5.1,16,7.2c2.4,0.9,4.8,1.7,7.3,1.9c2.3,0.3,7.1-0.9,9,0.4c0.4,0.3,0.8-0.4,0.4-0.6
								c-1.2-0.7-2-0.7-3.4-0.7c-4.1,0.2-7.5,0.3-11.6-1.1c-6.1-2.1-11.5-5.7-17.6-7.8C171,111.4,170.8,112.1,171.3,112.3
								L171.3,112.3z"/>
						</g>
					</g>
					<g>
						<g>
							<path d="M180.5,98.4c5.5,6,11.4,11.7,19,14.9c0.2,0.1,8.3,2.9,8.5,2.2c-0.2,0.6-11.7,2.4-13.2,2.7c-0.5,0.1-0.3,0.8,0.2,0.7
								c5-1.1,9.9-2.2,14.9-3.4c0.4-0.1,0.3-0.7-0.1-0.7c-12-0.8-21-8.5-28.8-17C180.7,97.5,180.2,98,180.5,98.4L180.5,98.4z"/>
						</g>
					</g>
					<g>
						<g>
							<path d="M200.6,107.9c5.5,3.4,11.7,5.4,18.2,5.5c2.3,0,4.7,0,1,2.1c-1.3,0.7-2.9,1.1-4.3,1.5c-4.5,1.1-9.1,1.4-13.7,1.6
								c-0.5,0-0.5,0.8,0,0.8c6.7-0.3,17.5-0.1,21.7-6.4c0.1-0.2,0-0.6-0.3-0.6c-7.9,0.8-15.4-0.9-22.2-5.1
								C200.5,107,200.2,107.7,200.6,107.9L200.6,107.9z"/>
						</g>
					</g>
					<g>
						<g>
							<path d="M218.2,116.4c1.4,0.6,3.7,0.8,4.8,1.7c1.1,0.8,0.6-0.1,0.7,0.2c0.1,0.2-3.9,1.6-4.2,1.6c-5.4,1.6-10.9,1.6-16.3,0.4
								c-0.5-0.1-0.7,0.6-0.2,0.7c7.7,1.7,15.4,0.7,22.5-2.8c0.4-0.2,0.1-0.7-0.2-0.7c-2.6-0.3-4.4-0.8-6.7-1.9
								C218.2,115.6,217.8,116.3,218.2,116.4L218.2,116.4z"/>
						</g>
					</g>
					<g>
						<g>
							<path d="M211.8,127.9c2.6,2.7,4.2,6,4.5,9.8c0,0.5,0.8,0.5,0.8,0c-0.3-3.9-2-7.5-4.7-10.3C212,127,211.4,127.6,211.8,127.9
								L211.8,127.9z"/>
						</g>
					</g>
					<g>
						<g>
							<path d="M216.2,121.1c1.7,5.3,1.7,10.6,0.2,16c-0.1,0.5,0.6,0.7,0.7,0.2c1.6-5.5,1.5-10.9-0.2-16.4
								C216.8,120.4,216.1,120.6,216.2,121.1L216.2,121.1z"/>
						</g>
					</g>
					<g>
						<g>
							<path d="M216.4,124.6c2,1.6,4.3,2.3,6.8,2c0.3,0,0.5-0.4,0.3-0.6c-2-1.9-4.1-3.7-6.4-5.2c-0.4-0.3-0.8,0.4-0.4,0.6
								c2.2,1.5,4.3,3.2,6.2,5.1c0.1-0.2,0.2-0.4,0.3-0.6c-2.3,0.3-4.5-0.3-6.3-1.8C216.6,123.8,216,124.3,216.4,124.6L216.4,124.6z
								"/>
						</g>
					</g>
					<g>
						<g>
							<path d="M192.8,64.6c6.6,8.9,12.8,18,15.9,28.8c2.2,7.8,4.1,16.1,11.6,20.5c0.4,0.2,0.8-0.4,0.4-0.6
								c-9.4-5.6-9.7-17.4-13.4-26.6c-3.3-8.2-8.5-15.4-13.7-22.4C193.1,63.8,192.5,64.2,192.8,64.6L192.8,64.6z"/>
						</g>
					</g>
					<g>
						<g>
							<path d="M170.5,47.1c5.8,4.7,11.5,9.7,17.7,13.9c2.6,1.8,5.4,3.3,8.4,4.5c1.4,0.6,3.6,0.8,4.8,1.7c1.8-0.1,2.2,0.5,1,1.8
								c-1.6,0.9-3.3,1.2-5,0.9c-0.5,0-0.5,0.7,0,0.8c3.2,0.2,5.3-0.7,7.7-2.7c0.2-0.2,0.1-0.6-0.2-0.6
								c-13.5-3.1-23.3-12.3-33.9-20.8C170.7,46.3,170.2,46.8,170.5,47.1L170.5,47.1z"/>
						</g>
					</g>
					<g>
						<g>
							<path d="M172.3,37.5c6.1,5.8,14.7,5.4,21.9,9.1c4,2,5.8,6.2,9.6,8.1c1.2,0.6,2.6,1,4,1.1c0.4,0,1-0.1,1.4,0
								c1.5-0.4,1.7-0.3,0.8,0.2c-1.2,0.9-2.6,1.3-4.3,1.1c-0.4,0-0.5,0.4-0.3,0.6c4.2,5.2,8,10.2,10.1,16.6
								c0.2,0.5,0.9,0.3,0.7-0.2c-1.6-4.7-4-8.8-7-12.7c-1.2-1.6-2.9-2.5-1.5-3.7c1.2-1,2.9-1.2,4.1-2.5c0.3-0.3,0-0.7-0.4-0.6
								c-8.6,2.5-11.9-6.6-18.9-9.4c-6.7-2.7-14.4-2.9-19.9-8.1C172.5,36.6,171.9,37.2,172.3,37.5L172.3,37.5z"/>
						</g>
					</g>
					<g>
						<g>
							<path d="M212.1,101.8c2.2,3.7,5,5.7,8.9,7.4c0.4,0.2,0.8-0.5,0.4-0.6c-3.8-1.6-6.5-3.5-8.6-7.2
								C212.5,101.1,211.9,101.4,212.1,101.8L212.1,101.8z"/>
						</g>
					</g>
					<g>
						<g>
							<path d="M116.7,53.3c-2.7-5.2-7.2-15.1-1.2-19.9c0.9-0.7,0.7-1.2,0.1,0.7c-0.3,0.9-0.7,1.8-0.9,2.8c-0.6,2.4-0.8,4.8-0.8,7.2
								c0,0.5,0.8,0.5,0.8,0c0-4.4,0.8-8.3,2.8-12.2c0.2-0.3-0.2-0.7-0.5-0.5c-8.2,5.3-4.4,15.4-0.9,22.4
								C116.3,54.1,117,53.7,116.7,53.3L116.7,53.3z"/>
						</g>
					</g>
					<g>
						<g>
							<path d="M113.5,45.4c2.5-6.3,9.5-9.2,15.4-11.5c2.2-0.8,4.4-1.6,6.7-2.2c4.2-1.2,3.8-0.9,0.8,2c-0.3,0.3,0.2,0.9,0.5,0.5
								c1.3-1.3,2.6-2.6,4-3.8c0.3-0.3,0-0.7-0.4-0.6c-9.4,2-23.8,5.5-27.8,15.5C112.6,45.7,113.3,45.9,113.5,45.4L113.5,45.4z"/>
						</g>
					</g>
					<g>
						<g>
							<path d="M134.8,35.2c7-3.6,15.7-4,23.4-3.8c3.3,0.1,7,0.2,10.2,1.1c0.6,0.2,6.1,2.7,5.8,2.8c-0.1,0.1-3.2-1.5-3.5-1.7
								c-0.4-0.2-0.8,0.5-0.4,0.6c1.6,0.7,3.2,1.4,4.8,2.1c0.4,0.2,0.7-0.3,0.5-0.6c-4.1-4.8-11.6-4.9-17.4-5
								c-7.8-0.2-16.8,0.2-23.8,3.9C134,34.8,134.4,35.4,134.8,35.2L134.8,35.2z"/>
						</g>
					</g>
					<g>
						<g>
							<path d="M174.4,35.6c4.8,2.6,9.5,5.5,14,8.6c0.4,0.3,0.8-0.4,0.4-0.6c-4.5-3.1-9.2-5.9-14-8.6
								C174.4,34.8,174,35.4,174.4,35.6L174.4,35.6z"/>
						</g>
					</g>
					<g>
						<g>
							<path d="M112.1,43.8c-6.1,0.3-9.1,5.4-11.4,10.3c-0.2,0.4,0.4,0.8,0.6,0.4c2.2-4.7,5-9.7,10.8-10
								C112.5,44.6,112.5,43.8,112.1,43.8L112.1,43.8z"/>
						</g>
					</g>
					<g>
						<g>
							<path d="M100.9,54.5c-2.3,1.7-4.3,3.7-5.9,6c-2,2.9-2.8,6.3-4.7,9.3c-0.3,0.4,0.4,0.8,0.6,0.4c1.5-2.4,2.2-5.2,3.7-7.7
								c1.7-2.9,4-5.3,6.7-7.4C101.7,54.9,101.3,54.2,100.9,54.5L100.9,54.5z"/>
						</g>
					</g>
					<g>
						<g>
							<path d="M98.5,63.7C88.1,69.6,82.2,81.1,83.7,93c0.1,0.5,0.7,0.5,0.8,0c1.1-8,5.5-14.5,10-20.9c0.3-0.4-0.4-0.8-0.6-0.4
								c-2.8,3.9-5.6,7.9-7.6,12.3c-0.8,1.7-1.7,3.7-2,5.6c-0.3,2.6-0.1,2.1-0.1-0.2c-0.1-10.4,5.8-20,14.7-25
								C99.3,64.1,98.9,63.5,98.5,63.7L98.5,63.7z"/>
						</g>
					</g>
					<g>
						<g>
							<path d="M88.2,80.5c-2.1,12.8-2,25.5,0.1,38.3c0.1,0.4,0.7,0.3,0.7-0.1c1-9.6,3.7-18.7,8.1-27.3c0.2-0.4-0.4-0.8-0.6-0.4
								c-2.1,4.1-3.8,8.2-5.2,12.6c-0.4,1.4-3.8,12.6-2.7,13.2c-0.8-0.4-0.8-7.2-0.9-8.6c-0.2-2.8-0.4-5.7-0.4-8.5
								c0-6.4,0.6-12.7,1.6-19C89,80.3,88.3,80.1,88.2,80.5L88.2,80.5z"/>
						</g>
					</g>
					<g>
						<g>
							<path d="M101.7,103.6c0.7,1,0.3,5.4,0.4,6.8c0.1,1.5,0.3,3.1,0.5,4.6c0.5,3.4,1.5,6.7,2.8,10c2.5,6.5,6.2,12.5,9.8,18.4
								c0.2,0.4,0.8,0.1,0.7-0.3c-1.2-5.8-2.4-11.5-3.6-17.3c-0.1-0.5-0.8-0.3-0.7,0.2c0.5,2.6,1.1,5.1,1.6,7.7
								c0.2,1,2.2,7.1,1.6,7.7c0.2-0.2-5.5-9.8-6.2-11.2c-2.4-4.9-4.3-10-5.1-15.4c-0.5-3.4,0.2-8.6-1.6-11.6
								c-0.1-0.2-0.4-0.2-0.6-0.1c-0.1,0.1-0.2,0.1-0.2,0.2c-0.1,0.1-0.1,0.3-0.1,0.5c0,0.1,0.1,0.1,0.1,0.2
								C101.3,104.4,101.9,104,101.7,103.6L101.7,103.6z"/>
						</g>
					</g>
					<g>
						<g>
							<path d="M113.5,77.9c0.8-1-1,2-1.2,2.4c-0.5,1.4-1,2.9-1.4,4.3c-0.9,3-1.5,6-1.9,9c-0.9,6.6-1,13.2-0.1,19.8
								c1.7,12.8,6.9,24.7,15,34.7c0.2,0.3,0.7,0,0.6-0.4c-3.8-11.7-6.2-23.7-7-36c0-0.6,0.2-3.3-0.2-3.7c-1.2-1.3-0.5,2-0.5,2.3
								c0.3,2,0.7,3.9,1.3,5.8c1.4,4.4,3.6,8.3,6.5,11.8c0.2,0.3,0.8,0,0.6-0.4c-4.7-12.5-4.9-25.9-0.5-38.5
								c0.2-0.5-0.6-0.7-0.7-0.2c-2.9,8.5-4,17.5-2.7,26.4c0.3,2.3,0.8,4.5,1.4,6.7c0.1,0.4,1.1,4.1,1.3,4.1c-0.1,0-1.5-2.5-1.7-2.8
								c-3.1-5.4-4.8-11.1-5-17.3c0-0.5-0.8-0.5-0.8,0c0.3,9.9,1.5,19.7,3.7,29.3c0.6,2.4,1.2,4.8,1.9,7.1c0.1,0.3,1.1,3.5,1.1,3.5
								c-0.1,0-1.8-2.5-2-2.8c-2.5-3.5-4.6-7.3-6.3-11.3c-7.8-17.7-7.9-38.2-0.2-55.9c0.2-0.4-0.3-0.8-0.6-0.5
								c-0.4,0.5-0.8,1-1.2,1.5C112.7,77.7,113.2,78.3,113.5,77.9L113.5,77.9z"/>
						</g>
					</g>
					<g>
						<g>
							<path d="M121.4,62.8c-4.2-0.1-5.8,1.4-4.9,5.6c1.3,5.8,2.8,11.1,5.8,16.3c0.2,0.4,0.9,0,0.6-0.4c-1.9-3.2-3.3-6.6-4.3-10.2
								c-0.4-1.5-0.8-3.1-1.1-4.6c-0.4-1.8-0.5-1.9,0.3-3.9c0.9-2.2,1.3-2.1,3.5-2.1C121.9,63.6,121.9,62.8,121.4,62.8L121.4,62.8z"
								/>
						</g>
					</g>
					<g>
						<g>
							<path d="M121.3,63.3c-1.2,20.5,14.7,35.3,33,41.2c0.5,0.1,0.7-0.6,0.2-0.7c-17.9-5.8-33.6-20.3-32.4-40.4
								C122.1,62.8,121.3,62.8,121.3,63.3L121.3,63.3z"/>
						</g>
					</g>
					<g>
						<g>
							<path d="M122.4,84.7c3.2,5.6,5.9,10.4,11.8,13.6c5.9,3.2,13.5,6.1,20.2,6.3c0.5,0,0.5-0.7,0-0.8c-6.4-0.1-14.2-3.1-19.9-6.2
								c-5.7-3.1-8.4-7.9-11.5-13.3C122.8,83.9,122.1,84.3,122.4,84.7L122.4,84.7z"/>
						</g>
					</g>
					<g>
						<g>
							<path d="M118.6,58.6c-1.9,1.3-4.2,1.5-6.2,2.6c-1.7,1-3,2.5-3.9,4.2c-0.2,0.4,0.4,0.8,0.6,0.4c1.1-2.2,2.8-3.8,5.1-4.6
								c1.6-0.6,3.3-0.9,4.7-1.9C119.4,58.9,119,58.3,118.6,58.6L118.6,58.6z"/>
						</g>
					</g>
					<g>
						<g>
							<path d="M112.9,53.4c-3.6,0.5-7.3,0.8-11,1c-0.5,0-0.5,0.8,0,0.8c3.7-0.1,7.5-0.5,11.2-1C113.6,54.1,113.4,53.3,112.9,53.4
								L112.9,53.4z"/>
						</g>
					</g>
					<g>
						<g>
							<path d="M122.9,56.8c3-17.9,35.1,0.7,42.8,6.3c11.4,8.3,20.5,19.2,26.6,31.9c0.2,0.4,0.9,0.1,0.6-0.4
								c-7.2-15-18.8-27.7-33.1-36.3c-7.9-4.7-34.8-18.5-37.6-1.7C122.1,57.1,122.8,57.3,122.9,56.8L122.9,56.8z"/>
						</g>
					</g>
					<g>
						<g>
							<path d="M154.7,47.8c10.1,4.5,20.4,9.3,27,18.6c5.9,8.3,8.5,18.5,11,28.2c0.1,0.5,0.8,0.3,0.7-0.2c-2.6-10.3-5.4-21-12-29.6
								c-6.6-8.7-16.6-13.3-26.4-17.6C154.6,47,154.3,47.6,154.7,47.8L154.7,47.8z"/>
						</g>
					</g>
					<g>
						<g>
							<path d="M131.6,58.6c12.4,2.7,19.8,15.8,29.2,23.4c8.2,6.6,17.6,11.4,28.3,11.9c0.5,0,0.5-0.7,0-0.8
								c-13.3-0.7-24.5-8.1-33.8-17.1c-7.1-6.9-13.2-15.9-23.5-18.2C131.3,57.8,131.1,58.5,131.6,58.6L131.6,58.6z"/>
						</g>
					</g>
					<g>
						<g>
							<path d="M156,89.1c9.3,6.6,20.9,8.1,31.6,4.3c0.5-0.2,0.3-0.9-0.2-0.7c-10.5,3.8-21.9,2.2-31-4.2
								C156,88.2,155.6,88.9,156,89.1L156,89.1z"/>
						</g>
					</g>
					<g>
						<g>
							<path d="M90.6,109.3c1.3,6.7,0.8,13.3-1.5,19.7c-0.1,0.3,0.3,0.6,0.6,0.4c2-1.5,3.9-3.1,5.4-5.1c2.1-2.7,1.2-2.9,1.8,0.2
								c1.3,6.6,5.3,13.2,8,19.3c0.1,0.3,0.6,0.2,0.7-0.1c0.8-4.5,1.5-9,2.2-13.6c0.1-0.5-0.6-0.7-0.7-0.2c-0.5,2.9-0.9,5.8-1.4,8.7
								c-0.7,4.1-0.9,3-2.4-0.4c-2.5-5.6-6.5-11.8-5.8-18c0-0.4-0.5-0.5-0.7-0.2c-1.2,2.3-2.7,4.7-4.7,6.4c-1.9,1.6-1.1,1.1-1.2-0.5
								c0-1.3,0.7-2.8,0.9-4.1c0.7-4.3,0.4-8.5-0.4-12.8C91.3,108.7,90.5,108.9,90.6,109.3L90.6,109.3z"/>
						</g>
					</g>
					<g>
						<g>
							<path d="M207.3,121.6c2,1.8,3.5,4,4.4,6.5c0.2,0.4,0.9,0.3,0.7-0.2c-1-2.6-2.5-4.9-4.6-6.8
								C207.5,120.7,207,121.2,207.3,121.6L207.3,121.6z"/>
						</g>
					</g>
					<g>
						<g>
							<path d="M199.8,121.4c1.5,8,0.8,15.8-2.1,23.4c-0.1,0.4,0.4,0.6,0.6,0.4c6.1-5.2,10.3-11.8,12.4-19.5
								c0.1-0.5-0.6-0.7-0.7-0.2c-1.2,4.2-2.9,8.2-5.4,11.8c-1.1,1.6-2.3,3.1-3.6,4.4c-0.7,0.7-1.4,1.4-2.1,2
								c0.2-0.6,0.4-1.1,0.6-1.7c0.3-3.2,1.5-6.3,1.8-9.5c0.3-3.8-0.1-7.5-0.8-11.2C200.5,120.7,199.7,120.9,199.8,121.4
								L199.8,121.4z"/>
						</g>
					</g>
					<g>
						<g>
							<path d="M117.2,117c4.9,0.4,9.6-0.4,14.5,0.3c4.9,0.7,9.7,2.2,14.4,3.8c0.5,0.1,0.7-0.6,0.2-0.7c-4.7-1.5-9.5-3.1-14.5-3.8
								c-4.9-0.7-9.7,0.2-14.6-0.2C116.7,116.2,116.7,116.9,117.2,117L117.2,117z"/>
						</g>
					</g>
					<g>
						<g>
							<path d="M216,74.6c2.7,6,4.3,12.3,4.4,18.9c0,1.1,0,2.3-0.1,3.4c-0.1,2.1,0.3,3-0.6,0.7c-1-2.8-1.7-5.7-2.6-8.5
								c-0.2-0.5-0.9-0.3-0.7,0.2c1.4,3.9,2.5,7.9,3.5,12c0.1,0.3,0.7,0.4,0.7,0c1.4-9.4,0.1-18.5-3.9-27.1
								C216.4,73.8,215.8,74.1,216,74.6L216,74.6z"/>
						</g>
					</g>
					<g>
						<g>
							<path d="M220.4,97.7c0.7,5,2.7,9.6,6,13.4c0.1-0.2,0.2-0.4,0.4-0.6c-1.7-0.6-3.5-1.3-5.2-1.9c-0.5-0.2-0.6,0.6-0.2,0.7
								c1.7,0.6,3.5,1.3,5.2,1.9c0.4,0.1,0.6-0.4,0.4-0.6c-3.2-3.8-5.2-8.2-5.8-13.1C221.1,97.1,220.3,97.3,220.4,97.7L220.4,97.7z"
								/>
						</g>
					</g>
					<g>
						<g>
							<path d="M108.3,136.1c2.6,15,10.3,28.2,20.3,39.5c5.4,6.2,11.5,11.7,17.7,17.1c4.5,3.8,9.3,8.7,15.7,7.3
								c0.5-0.1,0.3-0.8-0.2-0.7c-7.8,1.7-15.6-7.5-20.9-12.3c-5-4.5-9.7-9.3-14.1-14.5c-8.8-10.6-15.4-22.8-17.8-36.5
								C109,135.4,108.3,135.6,108.3,136.1L108.3,136.1z"/>
						</g>
					</g>
					<g>
						<g>
							<path d="M201.3,142.8c-1.6,5.6-1.9,11.4-3.9,16.8c-2.1,6-5.4,11.4-9.4,16.3c-7.3,9-16.3,16.6-25.5,23.4
								c-0.4,0.3,0,0.9,0.4,0.6c9.7-7.2,19.3-15.3,26.7-24.9c3.1-4,5.7-8.3,7.7-13c2.5-6.2,2.9-12.8,4.8-19.1
								C202.1,142.6,201.4,142.4,201.3,142.8L201.3,142.8z"/>
						</g>
					</g>
					<g>
						<g>
							<path d="M103.1,139.3c-3.1,4.3,0.2,9.8,2.8,13.5c3.5,4.9,8.1,7.9,13.4,10.6c0.4,0.2,0.8-0.4,0.4-0.6
								c-3.9-1.9-7.4-3.9-10.4-7.1c-3.4-3.6-9-11-5.5-16C104,139.3,103.4,138.9,103.1,139.3L103.1,139.3z"/>
						</g>
					</g>
					<g>
						<g>
							<path d="M209.3,131.2c4.2,11.4-2.9,22.6-12.1,28.9c-0.4,0.3,0,0.9,0.4,0.6c9.4-6.6,16.8-18.1,12.4-29.8
								C209.8,130.5,209.1,130.7,209.3,131.2L209.3,131.2z"/>
						</g>
					</g>
					<g>
						<g>
							<path d="M154.4,140.3c-0.4,5.5-2.1,11.2-1.9,16.6c0.1,2.5,1.2,4.5,3.5,5.4c0.4,0.2,0.6-0.5,0.2-0.7
								c-4.7-1.9-2.6-8.1-2.1-11.7c0.5-3.2,0.7-6.4,1-9.6C155.2,139.9,154.4,139.9,154.4,140.3L154.4,140.3z"/>
						</g>
					</g>
					<g>
						<g>
							<path d="M148.4,173.2c3.9,0.4,7.8,1,11.7,1.1c3.6,0.1,6.9-1,10.3-2.1c0.5-0.2,0.3-0.9-0.2-0.7c-7.5,2.6-14,1.8-21.7,1
								C147.9,172.4,147.9,173.2,148.4,173.2L148.4,173.2z"/>
						</g>
					</g>
					<g>
						<g>
							<path d="M157.5,179.1c1-0.4,2-0.4,3,0c0.4,0.2,0.8-0.5,0.4-0.6c-1.1-0.5-2.4-0.6-3.5-0.1
								C156.9,178.5,157.1,179.3,157.5,179.1L157.5,179.1z"/>
						</g>
					</g>
					<g>
						<g>
							<path d="M135.2,181.9c2.5,0.6-0.4,17.2-0.7,18.5c-0.9,5.1-2.2,10.1-3.8,15.1c-0.1,0.5,0.6,0.7,0.7,0.2
								c2.2-6.7,3.8-13.6,4.7-20.6c0.4-3,2.3-11.2-0.9-13.4c-0.2-0.1-0.5,0-0.6,0.2c0,0.1,0,0.1,0,0.2c0,0.2,0.1,0.4,0.3,0.5
								c0.1,0,0.1,0,0.2,0C135.4,182.7,135.6,182,135.2,181.9L135.2,181.9z"/>
						</g>
					</g>
					<g>
						<g>
							<path d="M186.3,178.2c-0.7,8.9,0.4,18.2,4.1,26.4c2.8,6.2,7.7,8.6,14,10.6c0.5,0.1,0.7-0.6,0.2-0.7
								c-8.3-2.6-12.6-6.4-15.3-14.8c-2.2-7-2.9-14.2-2.3-21.5C187.1,177.7,186.3,177.7,186.3,178.2L186.3,178.2z"/>
						</g>
					</g>
					<g>
						<g>
							<path d="M179.2,198.6c-1.7,9.4-3.5,18.8-5.2,28.1c-0.4,2.4-1.2,8.1,3,6.3c0.4-0.2,0.1-0.8-0.4-0.6c-3.3,1.4-1.1-10-0.9-11
								c0.5-2.5,0.9-5,1.4-7.5c0.9-5,1.9-10,2.8-15C180,198.3,179.2,198.1,179.2,198.6L179.2,198.6z"/>
						</g>
					</g>
					<g>
						<g>
							<path d="M67.9,287c-1.3,15.4-2.6,30.8-1.2,46.2c1.3,14.8,4.6,29.3,5.1,44.2c1.2,30.8-3.3,61.6-1.6,92.4c0,0.5,0.8,0.5,0.8,0
								c-1.8-30.8,2.7-61.6,1.6-92.4c-0.6-14.9-3.8-29.4-5.1-44.2c-1.4-15.4-0.1-30.9,1.2-46.2C68.7,286.6,67.9,286.6,67.9,287
								L67.9,287z"/>
						</g>
					</g>
					<g>
						<g>
							<path d="M69.5,463.4c-3.4,8.2-7,16.5-10.3,24.8c-2.3,5.7-4.1,11.7-0.9,17.4c0.2,0.4,0.9,0,0.6-0.4c-4-7.1,0.2-15.1,3-21.8
								c2.7-6.6,5.5-13.2,8.2-19.7C70.4,463.2,69.7,463,69.5,463.4L69.5,463.4z"/>
						</g>
					</g>
					<g>
						<g>
							<path d="M56.8,505.1c-1.4,2.7-2.9,5.6-2.7,8.8c0.3,4.8,1.4,9.3,1.3,14.2c-0.1,11-0.3,22-0.5,33c0,0.5,0.7,0.5,0.8,0
								c0.1-9.7,0.3-19.4,0.4-29.1c0.1-4,0.4-8.2-0.1-12.2c-0.7-5.5-1.2-9.1,1.5-14.3C57.6,505.1,57,504.7,56.8,505.1L56.8,505.1z"
								/>
						</g>
					</g>
					<g>
						<g>
							<path d="M127.3,236.3c8.9,9.1,21.5,13.9,34.2,13.3c15.1-0.8,26.1-9.9,36.7-19.8c0.4-0.3-0.2-0.9-0.5-0.5
								c-10.4,9.7-21.3,18.8-36.2,19.6c-12.5,0.6-24.9-4.1-33.7-13.1C127.5,235.4,127,235.9,127.3,236.3L127.3,236.3z"/>
						</g>
					</g>
					<g>
						<g>
							<path d="M126.9,245.1c5.5,3.9,9.8,9.7,15.9,12.9c5.6,2.9,12.8,2.7,19,2.3c7.1-0.5,12.9-3.8,18.9-7.4
								c7.6-4.6,15.1-9.4,22.5-14.4c0.4-0.3,0-0.9-0.4-0.6c-6.3,4.3-12.7,8.4-19.2,12.4c-6.8,4.2-13.6,8.7-21.8,9.3
								c-7.1,0.5-15,0.4-21.1-3.7c-4.9-3.3-8.6-8-13.4-11.4C126.9,244.2,126.5,244.9,126.9,245.1L126.9,245.1z"/>
						</g>
					</g>
					<g>
						<g>
							<path d="M118.6,220.7c-15.9,9.5-31.8,19-47.9,28.1c-3.3,1.9-6.6,3.5-9.9,5.3c-4.5,2.5-4.6,6-5.5,10.5
								c-0.8,4.4-2.3,8.6-3.1,13c-2.1,11.2-2.6,22.7-2.9,34c-0.4,12,0.1,24-0.7,35.9c-0.7,9.3-2.3,18.5-2.3,27.9
								c0,0.5,0.8,0.5,0.8,0c0-7.9,1.1-15.6,1.9-23.4c1-10.1,0.7-20.1,0.9-30.2c0.2-13.5,0.5-27.1,2.5-40.4c0.7-5,2-9.7,3.3-14.6
								c0.9-3.5,0.7-7.6,3.1-10.4c2.1-2.5,7.3-4.2,10.1-5.7c16.9-9.5,33.5-19.5,50.2-29.4C119.4,221.1,119.1,220.4,118.6,220.7
								L118.6,220.7z"/>
						</g>
					</g>
					<g>
						<g>
							<path d="M46.6,375.8c-0.2,8.5,1.4,16.7,2.8,25.1c0.8,4.7,1.5,9.4,1.7,14.2c0.1,2.1-0.9,5.3,0.7,7c0.1,0.1,0.3,0.1,0.5,0.1
								c0.5-0.3,0.5-0.3,0.5-1c0-0.2-0.2-0.4-0.4-0.4c-0.1,0-0.2,0-0.3,0c-0.5,0-0.5,0.7,0,0.8c0.3,0-1.7-18.9-2-20.8
								c-1.4-8.3-2.9-16.5-2.7-24.9C47.4,375.3,46.6,375.3,46.6,375.8L46.6,375.8z"/>
						</g>
					</g>
					<g>
						<g>
							<path d="M50.8,411.4c-7,16-12.2,32.8-15.3,50c-3.2,17.7-3.7,35.5-3.6,53.5c0,0.5,0.8,0.5,0.8,0c-0.1-17.9,0.3-35.6,3.5-53.3
								c3.1-17.2,8.3-33.8,15.3-49.8C51.6,411.3,51,410.9,50.8,411.4L50.8,411.4z"/>
						</g>
					</g>
					<g>
						<g>
							<path d="M32.3,507.9c-3.8,6.5-6.3,12-5.3,19.7c1.1,8.4,2.8,16.7,4.2,25c0.4,2.5,0.5,4.6,2.3,6.4c2.3,2.4,5.7,4.2,8.5,6
								c6.4,4.2,5.5-1.6,11.1-3.8c0.4-0.2,0.3-0.9-0.2-0.7c-1.1,0.5-1.8,1-2.7,1.9c-0.6,0.7-1,1.6-1.7,2.1c-2.7,2.1-4.7,0.4-6.8-0.7
								c-2.7-1.3-7.8-4.9-9-7.6c-1-2.4-1-5.9-1.4-8.5c-1-5.9-2-11.7-2.9-17.6c-1.4-8.6,0.4-14.5,4.7-21.9
								C33.2,507.8,32.5,507.5,32.3,507.9L32.3,507.9z"/>
						</g>
					</g>
					<g>
						<g>
							<path d="M48.9,565.4c3.1,1.1,5.8,2.8,8.2,5.1c0.3,0.3,0.9-0.2,0.5-0.5c-2.4-2.4-5.3-4.2-8.5-5.3
								C48.7,564.5,48.5,565.2,48.9,565.4L48.9,565.4z"/>
						</g>
					</g>
					<g>
						<g>
							<path d="M33.2,558.6c0,2.9-1.2,8.4,0.3,11.1c1.4,2.5,5.9,3.7,8.5,4.6c2.9,1.1,13.6,5.8,15.1,0.5c0.1-0.5-0.6-0.7-0.7-0.2
								c-0.5,1.8-4.3,1.7-5.7,1.4c-1.1-0.2-2.1-0.4-3.1-0.7c-2.6-0.7-5.1-1.6-7.6-2.7c-3.1-1.4-5.5-2.5-6.1-6.2
								c-0.4-2.4,0.1-5.4,0.1-7.9C34,558.1,33.2,558.1,33.2,558.6L33.2,558.6z"/>
						</g>
					</g>
					<g>
						<g>
							<path d="M131.4,211.6c-6.8,0-12.7,5.5-13.1,12.3c0,0.5,0.7,0.5,0.8,0c0.4-6.4,6-11.5,12.4-11.5
								C131.9,212.3,131.9,211.6,131.4,211.6L131.4,211.6z"/>
						</g>
					</g>
					<g>
						<g>
							<path d="M200,213.4c8.2-4.9,16.5,4.5,23.1,8.5c5.9,3.6,12.3,6.3,18.8,8.6c7,2.4,14.2,3.6,21.3,5.5
								c7.8,2.1,12.8,7.5,16.1,14.6c6.9,14.6,9.7,32.1,11.5,48c1.9,16.3,1.9,32.7,0.3,48.9c0,0.5,0.7,0.5,0.8,0
								c1.9-18.2,1.6-36.5-1-54.7c-1.3-9.3-3.3-18.6-5.8-27.7c-1.9-6.8-3.9-13.9-7.9-19.9c-3.4-5.1-7.9-8.4-13.8-10
								c-8.3-2.2-16.5-3.6-24.6-6.6c-8.7-3.2-16.3-7.7-23.8-13.1c-4.7-3.3-10-5.9-15.5-2.7C199.3,213,199.6,213.7,200,213.4
								L200,213.4z"/>
						</g>
					</g>
					<g>
						<g>
							<path d="M293,321.3c8.3,18.8,9.8,39.4,14.1,59.3c4,18.9,17.3,41.6,5.6,60.1c-0.3,0.4,0.4,0.8,0.6,0.4
								c11.3-17.9-0.5-39-4.7-57.2c-4.9-21-6.1-42.9-14.9-62.9C293.5,320.4,292.8,320.8,293,321.3L293,321.3z"/>
						</g>
					</g>
					<g>
						<g>
							<path d="M317.1,435.5c6,12.8-3.3,24.6-9.6,35.1c-5.4,9-9.2,18.9-11.1,29.2c-2,10.5,0,22.1-4,32.1
								c-3.6,9.2-10.5,16.7-12.2,26.6c-0.1,0.5,0.6,0.7,0.7,0.2c1.9-10.4,9.4-18.2,12.8-28c1.8-5.2,1.8-10.5,1.9-15.9
								c0.2-6.7,1-13.3,2.6-19.8c3.1-12.3,9.3-22.3,15.6-33.1c4.8-8.2,8.2-17.6,3.9-26.7C317.6,434.7,316.9,435.1,317.1,435.5
								L317.1,435.5z"/>
						</g>
					</g>
					<g>
						<g>
							<path d="M280,557c-3.6,6.2-11.6,3.7-15.5-0.6c-3.4-3.8-5.7-8.6-8.3-12.9c-0.2-0.4-0.9,0-0.6,0.4c3.4,5.8,6.9,14.2,13.7,16.9
								c4.2,1.7,9.1,0.6,11.4-3.4C280.8,556.9,280.2,556.5,280,557L280,557z"/>
						</g>
					</g>
					<g>
						<g>
							<path d="M259.5,553.3c-3-0.7-10-1.1-12-3.5c-2-2.4-0.9-9.2-0.9-12.4c0-3.9-1.1-9.2,1.4-12.5c2.2-2.8,6.6-5.2,9.4-7.4
								c0.4-0.3-0.2-0.8-0.5-0.5c-3.6,2.8-10.2,5.9-11,10.8c-0.6,3.3,0,7.2,0,10.6c0,4.1,0.1,8.3,0.1,12.4c0,0.2,0.1,0.3,0.3,0.4
								c4.3,1,8.7,2,13,3C259.8,554.1,260,553.4,259.5,553.3L259.5,553.3z"/>
						</g>
					</g>
					<g>
						<g>
							<path d="M274.4,559.8c-0.8,2.5-1.2,6-2.6,8.2c0,2-1,2.4-3,1.3c-1.6,0.2-2.9-0.3-3.9-1.6c-1.3-0.8-2.4-2.1-3.5-3.1
								c-5-4.3-9.9-8.6-14.9-12.9c-0.4-0.3-0.9,0.2-0.5,0.5c4,3.5,8,6.9,12.1,10.4c3,2.6,6.6,7.2,10.3,8.8c1.4,0.6,2.2,0.6,3.2-0.6
								c2-2.2,2.7-8.1,3.5-10.9C275.3,559.5,274.6,559.3,274.4,559.8L274.4,559.8z"/>
						</g>
					</g>
					<g>
						<g>
							<path d="M268.9,572c-2.5,5.4-4.5,11-5.9,16.8c-0.1,0.5,0.6,0.7,0.7,0.2c1.4-5.7,3.3-11.3,5.8-16.6
								C269.7,571.9,269.1,571.5,268.9,572L268.9,572z"/>
						</g>
					</g>
					<g>
						<g>
							<path d="M235.3,300c1.7,4.9,0.9,9.5,0.5,14.5c-0.3,4.1-0.3,8.1,0.2,12.1c1.1,8.7,4.1,16.8,8.7,24.2c0.3,0.4,0.9,0,0.6-0.4
								c-5.2-8.3-8.3-17.6-9-27.4c-0.5-7.7,2.2-15.9-0.4-23.3C235.9,299.4,235.2,299.6,235.3,300L235.3,300z"/>
						</g>
					</g>
					<g>
						<g>
							<path d="M250.2,291.2c-3.5,14.6-7.4,29.1-11.6,43.4c-0.1,0.5,0.6,0.7,0.7,0.2c4.2-14.4,8.1-28.9,11.6-43.4
								C251,290.9,250.3,290.7,250.2,291.2L250.2,291.2z"/>
						</g>
					</g>
					<g>
						<g>
							<path d="M273.9,311.4c-3.1,13.1-8.4,25.6-15.8,36.9c-2.1,3.1-4.3,6.1-6.7,9c-1.8,2.2-4,5.6-6.5,7.2c-1.7,1.1-1.4,1.7-1.7-1.1
								c-0.2-1.5,0.1-3.1,0.3-4.6c0.5-4.6,1.5-8.9,2.9-13.3c0.2-0.5-0.6-0.7-0.7-0.2c-2.3,7.1-3.4,14.3-3.2,21.7
								c0,0.3,0.4,0.5,0.6,0.3c15.6-15.3,26.5-34.6,31.5-55.8C274.7,311.1,274,310.9,273.9,311.4L273.9,311.4z"/>
						</g>
					</g>
					<g>
						<g>
							<path d="M243.6,365.5c1.1,7-0.3,14.1,0.6,21.1c0.7,5.1,2.9,9.8,5,14.4c5.8,12.7,9.7,26.1,11.8,40c0.1,0.5,0.8,0.3,0.7-0.2
								c-1.9-12.7-5.3-25-10.3-36.8c-3-6.9-6.3-13.3-6.7-20.9c-0.3-6,0.6-11.8-0.4-17.8C244.3,364.9,243.6,365.1,243.6,365.5
								L243.6,365.5z"/>
						</g>
					</g>
					<g>
						<g>
							<path d="M259.2,432.3c-8,11.3-7.8,25.4-7.6,38.7c0.2,18.3-1,36.6-3.7,54.7c-0.1,0.5,0.7,0.7,0.7,0.2
								c2.5-16.4,3.8-33,3.8-49.6c0-14.8-1.5-30.8,7.5-43.6C260.1,432.3,259.5,431.9,259.2,432.3L259.2,432.3z"/>
						</g>
					</g>
					<g>
						<g>
							<path d="M131.8,214.1c0.5-3.6-1.2,0.6-1.4,1.3c-0.5,1.4-1.1,2.9-1.6,4.3c-1.1,3-2.3,6.1-3.2,9.2c-1.7,5.4-2.9,11.1-2.4,16.8
								c0.5,6.1,2.4,12,3.9,17.9c1.9,7.5,3,14.7,3.1,22.4c0.2,12.5,1.6,24.3,6.1,36c5.1,13.1,13.1,24.8,18.3,37.9
								c0.1,0.2,0.3,0.4,0.6,0.2c0.2-0.2,0.4-0.3,0.6-0.5c0.2-0.1,0.3-0.3,0.1-0.5c-0.3-0.5-0.6-1-0.9-1.4c-0.2-0.4-0.9,0-0.6,0.4
								c1.4,2.3-0.2-1.2-0.4-1.7c-0.4-1.1-1-2.2-1.5-3.3c-1.5-3.2-3.1-6.3-4.7-9.3c-3-5.7-6.1-11.3-8.7-17.1
								c-5.7-12.8-7.9-25.8-8.1-39.8c-0.1-6.3-0.5-12.3-1.9-18.5c-1.4-6.3-3.4-12.4-4.6-18.8c-2.4-13.4,3.8-25.7,8.2-38
								c0.1-0.4-0.5-0.7-0.7-0.3c-0.8,1.6-0.6,0.9-0.8,2.6C131.1,214.3,131.8,214.5,131.8,214.1L131.8,214.1z"/>
						</g>
					</g>
					<g>
						<g>
							<path d="M203.3,212.9c-9.1,44-18.5,88.2-37.5,129.1c-4.4,9.5-9.1,18.9-12.1,29c-3.1,10.1-4.3,20.7-4.7,31.2
								c-0.8,21.6,0.8,43.4,7.1,64.1c7.2,23.7,19.2,47.3,15.3,72.7c-0.1,0.5,0.6,0.7,0.7,0.2c3.1-20.1-3.7-39.2-10.2-57.9
								c-3.5-10.2-7-20.4-9-31c-2.2-11.6-3-23.3-3.2-35.1c-0.2-11.7,0.2-23.6,2.5-35.1c2.3-11.5,7-22.2,12-32.7
								c9.2-19.6,16.8-39.6,22.8-60.4c7-24.3,12.1-49.1,17.2-73.9C204.1,212.6,203.4,212.4,203.3,212.9L203.3,212.9z"/>
						</g>
					</g>
					<g>
						<g>
							<path d="M225.6,225.6c0.5,14,0,28-1.7,41.9c-0.3,2.5-0.1,5.3-2.2,7.2c-0.9,0.8-2.6,1.3-3.7,1.9c-2.7,1.5-5.3,3.1-7.8,4.8
								c-4.6,3.2-8.9,6.9-12.8,10.9c-0.3,0.3,0.2,0.9,0.5,0.5c5.1-5.2,10.7-9.8,16.9-13.6c2.4-1.5,6-2.5,8.1-4.4
								c1.5-1.3,1.2-2.1,1.5-4.5c2-14.9,2.6-29.8,2.1-44.8C226.3,225.1,225.6,225.1,225.6,225.6L225.6,225.6z"/>
						</g>
					</g>
					<g>
						<g>
							<path d="M205.5,285.4c0,5.6,0,11.3-0.1,16.9c0,6.8,1,13.8-4.6,18.9c-7.3,6.6-14.3,13.1-20.5,20.7
								c-12.2,14.9-22,31.6-31.7,48.2c-0.2,0.4,0.4,0.8,0.6,0.4c10.8-18.5,21.7-37.1,36-53.2c3.4-3.8,6.9-7.4,10.6-10.8
								c3-2.7,7.1-5.2,9-8.9c2-4,1.4-9.1,1.4-13.4c0-6.3,0-12.6,0.1-18.9C206.2,284.9,205.5,284.9,205.5,285.4L205.5,285.4z"/>
						</g>
					</g>
					<g>
						<g>
							<path d="M114.4,222.9c1.7-0.8,1.9-0.2,0.7,1.6c-0.5,1.2-0.9,2.5-1.4,3.7c-0.7,1.9-1.4,3.7-2.1,5.6c-1.6,4.3-3.2,8.7-4.8,13
								c-1.6,4.3-3.2,8.7-4.8,13c-1.2,3.3-3.1,6.9-3.7,10.4c-1,6,4.2,12.1,7,17c2.2,3.9,4.4,7.9,6.6,11.8c0.9,1.7,1.9,3.4,2.8,5.1
								c0.5,0.9,4,5.4,1.7,2.3c-0.3-0.4-0.9,0-0.6,0.4c0.6,0.8,1.2,1.6,1.8,2.4c0.3,0.4,0.9,0.1,0.6-0.4
								c-3.8-6.7-7.6-13.5-11.3-20.2c-1.9-3.4-3.9-6.7-5.7-10.1c-1.1-2.1-2.3-4.2-2.3-6.7c0-2,1.1-4.3,1.8-6.2
								c5.5-14.9,11-29.8,16.6-44.7c0.1-0.3-0.2-0.5-0.5-0.5c-1.3,0.4-2,0.8-2.8,1.9C113.6,222.8,114.1,223.3,114.4,222.9
								L114.4,222.9z"/>
						</g>
					</g>
					<g>
						<g>
							<path d="M108.8,294.1c0.3,4.4,0.3,8.9-0.2,13.3c-0.4,3.7-1.8,7.6-1.7,11.3c0,6.3,6.4,10.8,10.3,15
								c11.7,12.8,22.8,26.2,33.2,40c0.3,0.4,0.9,0,0.6-0.4c-9-11.9-18.4-23.4-28.3-34.5c-5.4-6-15.5-13.4-14.8-22
								c0.6-7.8,2.1-14.8,1.6-22.7C109.5,293.6,108.8,293.6,108.8,294.1L108.8,294.1z"/>
						</g>
					</g>
					<g>
						<g>
							<path d="M154.7,391c-1,1.4-0.8,3.5,0.4,4.8c1.3,1.5,3.5,1.4,4.9,0.1c1.4-1.3,1.7-3.5,0.3-5c-1.3-1.3-3.4-1.6-4.9-0.5
								c-0.4,0.3,0,0.9,0.4,0.6c1.2-0.8,2.7-0.7,3.8,0.2c1.3,1.1,1.1,3-0.1,4.1c-2.6,2.4-6-1.3-4.1-3.9
								C155.6,391,155,390.6,154.7,391L154.7,391z"/>
						</g>
					</g>
					<g>
						<g>
							<path d="M156.8,390.7c0.7-2.5,2.9-4.4,5.6-4.5c0.5,0,0.5-0.8,0-0.8c-3,0.2-5.5,2.2-6.3,5.1
								C155.9,391,156.7,391.2,156.8,390.7L156.8,390.7z"/>
						</g>
					</g>
					<g>
						<g>
							<path d="M159.7,398c1.6-0.7,3.2-1.3,4.8-2c0.4-0.2,0.2-0.9-0.2-0.7c-1.6,0.7-3.2,1.3-4.8,2C159,397.5,159.2,398.2,159.7,398
								L159.7,398z"/>
						</g>
					</g>
					<g>
						<g>
							<path d="M247.8,399.2c-9.4,26.8-18.3,53.8-26.7,80.9c-0.1,0.5,0.6,0.7,0.7,0.2c8.4-27.1,17.3-54.1,26.7-80.9
								C248.7,398.9,247.9,398.7,247.8,399.2L247.8,399.2z"/>
						</g>
					</g>
					<g>
						<g>
							<path d="M242.2,423.4c2.4,25.8,4.9,51.6,7.3,77.4c0,0.5,0.8,0.5,0.8,0c-2.4-25.8-4.9-51.6-7.3-77.4
								C242.9,422.9,242.2,422.9,242.2,423.4L242.2,423.4z"/>
						</g>
					</g>
					<g>
						<g>
							<path d="M154.3,467.6c-15,28.6-11.8,61.4-11.4,92.5c0.1,8.7,0,17.4-0.9,26.1c-0.6,6.2-1.6,14.8-10.7,12.4
								c-4.2-1.1-8.1-3.9-11.4-6.6c-5.6-4.7-10.2-10.5-14.8-16.2c-5.8-7.1-11.5-14.2-17.3-21.3c-0.3-0.4-0.8,0.2-0.5,0.5
								c6.5,8,13,16.1,19.5,24.1c4.7,5.8,9.6,11.6,15.8,15.9c4.1,2.8,11.1,7.1,16.1,3.5c4.6-3.4,4.2-12.2,4.5-17.1
								c2.8-37.8-6.7-78.2,11.8-113.4C155.2,467.5,154.6,467.1,154.3,467.6L154.3,467.6z"/>
						</g>
					</g>
					<g>
						<g>
							<path d="M56.1,554.9c-3.9,9.4,8.4,14.2,14.9,16.9c12.2,5.1,25.1,8.2,38.3,9.4c0.5,0,0.5-0.7,0-0.8
								c-10.1-0.9-19.9-2.9-29.5-6.1c-7.3-2.4-27.6-8.1-23-19.3C57,554.6,56.3,554.5,56.1,554.9L56.1,554.9z"/>
						</g>
					</g>
					<g>
						<g>
							<path d="M170.7,531.7c0.1,6.3-0.4,12.6-1.4,18.8c-0.9,5.8-2.8,11.1-4.2,16.8c-1.1,4.5,0,7.5,2.1,11.5
								c2.8,5.5,5.6,11,8.4,16.5c1.2,2.4,2.2,7,5.3,7.3c2.5,0.3,5.5-2.6,7.1-4.2c9-8.9,17.3-18.6,25.9-27.8c0.3-0.4-0.2-0.9-0.5-0.5
								c-6.7,7.3-13.5,14.5-20.2,21.8c-3,3.2-9.5,12.9-14.2,8.4c-1.2-1.1-1.9-3.8-2.7-5.2c-1.2-2.3-2.4-4.6-3.6-7
								c-2-4-4.4-7.9-6.1-12c-2.7-6.5,0.7-12.6,2.2-19c1.9-8.3,2.7-16.8,2.7-25.3C171.4,531.2,170.7,531.2,170.7,531.7L170.7,531.7z
								"/>
						</g>
					</g>
					<g>
						<g>
							<path d="M202.9,584.1c4.8,0.1,8.9,5.4,13.8,4.1c2.2-0.6,3.9-2.5,5.4-4c2.8-2.6,5.6-5.2,8.3-7.9c4.8-4.7,9.5-9.7,13.6-15
								c0.7-0.9,4.6-5.3,1.4-5.9c-0.5-0.1-0.7,0.6-0.2,0.7c1.9,0.4-3.7,7.1-4,7.5c-1.5,1.8-3,3.6-4.6,5.3
								c-3.4,3.7-6.9,7.2-10.5,10.6c-4.5,4.3-8.8,10-15.5,6.6c-2.6-1.3-4.7-2.7-7.7-2.7C202.4,583.4,202.4,584.1,202.9,584.1
								L202.9,584.1z"/>
						</g>
					</g>
					<g>
						<g>
							<path d="M140.9,578.8c8.8,2,17.5,2.2,26.4,0.6c0.5-0.1,0.3-0.8-0.2-0.7c-8.7,1.6-17.3,1.4-26-0.6
								C140.7,577.9,140.5,578.7,140.9,578.8L140.9,578.8z"/>
						</g>
					</g>
					<g>
						<g>
							<path d="M73.4,523.9c15,4.2,33.6,28.9,50.1,14.8c0.4-0.3-0.2-0.8-0.5-0.5c-16.1,13.7-34.6-10.8-49.4-15
								C73.1,523,72.9,523.8,73.4,523.9L73.4,523.9z"/>
						</g>
					</g>
					<g>
						<g>
							<path d="M237.3,485.2c-0.9,4.9-1.8,9.8-2.7,14.8c-0.4,2-0.4,4.8-1.2,6.6c-1.6,3.5-5.6,3.9-8.7,4.9
								c-8.6,2.6-16.8,6.2-24.6,10.5c-0.4,0.2,0,0.9,0.4,0.6c5.4-2.9,10.9-5.5,16.6-7.7c4.6-1.8,10-2.5,14.3-4.7
								c2.9-1.5,3-4.3,3.5-7.3c1.1-5.8,2.1-11.7,3.2-17.5C238.1,484.9,237.4,484.7,237.3,485.2L237.3,485.2z"/>
						</g>
					</g>
					<g>
						<g>
							<path d="M184.9,428.4c-2.2,5.1-4.6,10.2-7.1,15.2c-0.1,0.3,0.2,0.8,0.5,0.5c15.8-12.2,28.4-27.7,37.1-45.7
								c0.2-0.4-0.4-0.8-0.6-0.4c-5.2,10.9-11.9,20.9-20,29.9c-3.7,4.1-7.6,7.9-11.8,11.4c-0.3,0.3-3.2,3-3.7,2.9
								c0.2,0,1.9-3.9,2-4.2c1.5-3.1,2.9-6.2,4.2-9.3C185.7,428.3,185.1,427.9,184.9,428.4L184.9,428.4z"/>
						</g>
					</g>
					<g>
						<g>
							<path d="M58.1,561.6c-0.9,17.9-0.8,35.9,0.5,53.9c0.6,8.8,1.5,17.6,2.7,26.3c0.5,3.9,1.1,7.8,1.7,11.7
								c0.4,2.4,0.6,4.6,2.5,6.4c0.4,0.3,0.9-0.2,0.5-0.5c-2.7-2.5-2.7-8.4-3.2-11.8c-0.7-4.5-1.3-9-1.8-13.5
								c-0.9-8.1-1.6-16.2-2.1-24.4c-0.9-16-0.9-32-0.1-48C58.9,561.1,58.1,561.1,58.1,561.6L58.1,561.6z"/>
						</g>
					</g>
					<g>
						<g>
							<path d="M60.4,637.9c-0.1,20.1-1.7,40.2-4.9,60.1c-1.3,8.4-4,17-4.3,25.5c-0.2,6.6,2.6,11.8,7.4,16.1
								c21.3,19.1,57.2,17.5,82.9,9.8c14.5-4.4,29.2-14.9,29.2-31.5c0-0.5-0.7-0.5-0.8,0c-0.1,32.5-47.9,36.9-71.7,35.5
								c-14-0.9-28.5-4.8-39.2-14.4c-7.4-6.7-7.9-14.5-6.1-23.9c1.5-7.9,3-15.8,4.1-23.8c2.5-17.8,3.8-35.6,3.9-53.6
								C61.1,637.4,60.4,637.4,60.4,637.9L60.4,637.9z"/>
						</g>
					</g>
					<g>
						<g>
							<path d="M165,698.3c10.6,4.1,3.6,18.7,3.8,26.6c0,0.5,0.8,0.5,0.8,0c-0.2-8.2,6.8-23-4.3-27.3
								C164.7,697.4,164.5,698.1,165,698.3L165,698.3z"/>
						</g>
					</g>
					<g>
						<g>
							<path d="M164.7,623.4c0.1-0.9,0.2-1.7,0.3-2.6c0-0.4-0.7-0.5-0.7-0.1c-4.1,26.2-3.2,52.9,2.7,78.7c0.1,0.4,0.8,0.3,0.7-0.1
								c-0.1-1.2-0.1-2.4-0.2-3.6c0-0.5-0.8-0.5-0.8,0c0.1,2.4,0.5,2.3,0.1-0.2c-0.2-1.2-0.5-2.5-0.8-3.7c-0.7-3.7-1.3-7.4-1.8-11.1
								c-0.9-6.8-1.5-13.7-1.8-20.6c-0.2-6.3-0.1-12.6,0.2-18.8c0.2-3.4,0.5-6.9,0.9-10.3c0.2-2,0.9-4.5,0.8-6.4
								c0-0.7-0.1-4.5-0.5-1.3C163.9,623.8,164.6,623.8,164.7,623.4L164.7,623.4z"/>
						</g>
					</g>
					<g>
						<g>
							<path d="M164.1,637.9c5.3,19.2,8.9,38.8,10.8,58.7c0.8,8.4,0.1,17.5,1.7,25.8c1.4,7.3,8.8,12.6,14.1,17.2
								c11.6,10,25.2,14.9,40.6,12.6c14.8-2.3,28.4-10.2,38.3-21.3c2.7-3.1,20.7-29.1,11.1-29.4c-0.5,0-0.5,0.7,0,0.8
								c6.5,0.3-7.6,23.2-9.3,25.3c-4.9,6.2-10.8,11.4-17.5,15.5c-16.6,10.1-38.1,12.8-55,1.9c-4.1-2.6-7.8-5.8-11.3-9.1
								c-3-2.8-7.1-6-9.1-9.7c-2.5-4.9-1.7-11.7-2-17.1c-0.3-5.1-0.7-10.1-1.2-15.1c-1.9-18.9-5.5-37.7-10.5-56
								C164.7,637.3,164,637.5,164.1,637.9L164.1,637.9z"/>
						</g>
					</g>
					<g>
						<g>
							<path d="M246.8,561.1c1.3,6.5,2.7,13.1,5.9,19c1.3,2.4,2.9,4.6,4.9,6.5c1,0.9,2.1,1.8,3.3,2.5c0.8,0.5,1.6,0.9,2.5,1.3
								c2.4,0.8,2.8,2.8,1,6c-0.4-0.3-0.8,0.4-0.4,0.6c1.5,1,3.2,0.2,3.9-1.5c1-2.6-1.6-4.4-3.6-5.4c-11.3-6.1-14.5-17.1-16.9-29.1
								C247.4,560.4,246.7,560.6,246.8,561.1L246.8,561.1z"/>
						</g>
					</g>
					<g>
						<g>
							<path d="M269.8,594.9c-0.1,1.6-0.1,1,0.4,2.5c0.6,1.2,1.2,2.4,1.7,3.7c0.5,2,0.5,4.1,0,6.1c-0.7,4-2,7.9-2.6,12
								c-1.3,8.9-0.9,18,0.2,26.9c1.2,9.7,3.4,19.3,5.5,28.8c1.1,4.8,2.1,9.6,3,14.5c0.4,2.2,3.6,14.5,2,15.5c0.4-0.2,0-0.9-0.4-0.6
								c-0.1,0.1-0.2,0.1-0.3,0.2c-0.1,0.1-0.2,0.3-0.2,0.4c0.2,0.7,0.2,0.7,0.9,0.9c0.2,0.1,0.3,0,0.4-0.2c1.5-2,0.1-5.9-0.3-8.2
								c-0.7-4.9-1.7-9.7-2.7-14.5c-2.1-10.2-4.6-20.4-6.4-30.7c-1.7-10.3-2.6-20.8-1.3-31.2c0.6-5.1,2.5-10.1,3-15.2
								c0.1-1.4,0.2-2.8-0.1-4.2c-0.5-2.2-2.3-4.5-2.2-6.8C270.6,594.5,269.8,594.5,269.8,594.9L269.8,594.9z"/>
						</g>
					</g>
					<g>
						<g>
							<path d="M52.6,722.6c17.1,10.8,39.6,19.3,60.2,17.2c9.9-1,18.7-6,27.3-10.7c10.3-5.7,20.1-12.1,29.5-19.2
								c0.4-0.3,0-0.9-0.4-0.6c-8.2,6.1-16.7,11.8-25.5,16.9c-9.5,5.5-19.7,11.7-30.8,12.8c-20.4,2.1-42.8-6.3-59.8-17.1
								C52.6,721.6,52.2,722.3,52.6,722.6L52.6,722.6z"/>
						</g>
					</g>
					<g>
						<g>
							<path d="M105.4,590.4c3.9-0.6,7.7,0,11.2,1.8c0.4,0.2,0.8-0.4,0.4-0.6c-3.7-1.9-7.7-2.5-11.8-1.8
								C104.8,589.8,105,590.5,105.4,590.4L105.4,590.4z"/>
						</g>
					</g>
					<g>
						<g>
							<path d="M141.2,596.6c5.7,0.6,11.1,0.1,16.6-1.7c0.5-0.1,0.3-0.9-0.2-0.7c-5.3,1.8-10.8,2.3-16.4,1.7
								C140.7,595.8,140.7,596.6,141.2,596.6L141.2,596.6z"/>
						</g>
					</g>
					<g>
						<g>
							<path d="M214.1,586.6c-1.3,6.1-2.1,12.2-2.3,18.5c0,0.5,0.7,0.5,0.8,0c0.2-6.2,1-12.2,2.3-18.3
								C215,586.3,214.2,586.1,214.1,586.6L214.1,586.6z"/>
						</g>
					</g>
					<g>
						<g>
							<path d="M33.4,569.5c0,9.5-0.4,19-1.4,28.5c-0.5,5-1.2,10-1.9,15c-0.4,2.8-1.7,6.1-0.9,8.9c0.9,3.2,4.1,6.5,5.9,9.3
								c2.3,3.5,4.3,7.3,7,10.5c4.1,4.9,12.5,4.8,18.3,6c0.5,0.1,0.7-0.6,0.2-0.7c-3.6-0.8-7.2-1.5-10.8-2.3c-5-1.1-7.1-3.4-9.9-7.7
								c-2-3.1-4.1-6.2-6.1-9.3c-1-1.5-2.4-3-3.1-4.7c-1.4-3.3-0.5-5.8,0-8.9c2.4-14.8,3.5-29.7,3.5-44.7
								C34.2,569,33.4,569,33.4,569.5L33.4,569.5z"/>
						</g>
					</g>
					<g>
						<g>
							<path d="M32,626.9c1.4,7.1,5.9,14.5,10.1,20.2c1,1.4,1.5,2,3.2,2.4c1.5,0.3,3.7-0.2,5.2-0.2c2.8,0.1,5.9,0,8.6,0.3
								c-0.5,0-0.5,0.7,0,0.8c0,0,0.1,0,0.1,0c0.2,0,0.4-0.2,0.4-0.4c0,0,0-0.1,0-0.1c0-0.2-0.1-0.3-0.3-0.4
								c-6.1-1.1-14.5,0.6-18-5.2c-3.4-5.6-7.4-11.2-8.6-17.7C32.6,626.2,31.9,626.4,32,626.9L32,626.9z"/>
						</g>
					</g>
					<g>
						<g>
							<path d="M40.8,618.6c0.8,5.7,5,11.4,7.9,16.3c0.9,1.5,1.2,2.2,2.7,3c1,0.6,2.4,0.8,3.5,1.2c0.4,0.2,6.6,2.2,6.8,2.8
								c-0.2-0.4-0.9-0.3-0.7,0.2c0,0,0,0.1,0.1,0.1c0.1,0.2,0.3,0.3,0.5,0.3c0.1,0,0.1,0,0.2-0.1c0.2-0.1,0.4-0.3,0.2-0.6
								c-2.6-3.7-9.2-3.1-12.2-6.6c-1.7-2-2.9-5.2-4.1-7.5c-1.7-3-3.6-5.9-4.1-9.4C41.5,617.9,40.7,618.1,40.8,618.6L40.8,618.6z"/>
						</g>
					</g>
					<g>
						<g>
							<path d="M44.1,624.6c0,0.3,0,0.6,0,0.9c0,0.4,0.7,0.5,0.7,0.1c0.6-3.8,1.4-7.5,2.4-11.1c0.1-0.5-0.6-0.7-0.7-0.2
								c-1,3.7-1.8,7.4-2.4,11.1c0.2,0,0.5,0.1,0.7,0.1c0-0.3,0-0.6,0-0.9C44.9,624.1,44.1,624.1,44.1,624.6L44.1,624.6z"/>
						</g>
					</g>
					<g>
						<g>
							<path d="M44.3,612.8c6.9,2.6,8,11.5,10.4,17.6c1.1,2.9,2.5,5.2,5.8,5.4c0.4,0,0.5-0.6,0.1-0.7c-0.3-0.1-0.5-0.2-0.8-0.3
								c-0.5-0.2-0.7,0.6-0.2,0.7c-4.8-1.7-6.3-11.9-8.1-16.2c-1.5-3.4-3.5-5.9-6.9-7.2C44.1,611.9,43.9,612.6,44.3,612.8
								L44.3,612.8z"/>
						</g>
					</g>
					<g>
						<g>
							<path d="M45.2,621.4c2-0.3,4.6,4.6,5.5,6c1.2,1.9,2.3,3.9,3.3,6c1.6,3.1,3.1,5.6,6.3,7.2c0.4,0.2,0.8-0.4,0.4-0.6
								c-5.1-2.6-6.7-8.9-9.6-13.4c-1.2-1.8-3.5-6.2-6-5.8C44.5,620.8,44.7,621.5,45.2,621.4L45.2,621.4z"/>
						</g>
					</g>
					<g>
						<g>
							<path d="M79,748.5c-2.5,7.9-1.5,15.9,0.7,23.7c2.7,9.8,6.6,19.4,9.9,28.9c0.2,0.5,0.9,0.3,0.7-0.2c-3-8.5-6.2-16.9-8.9-25.5
								c-2.7-8.7-4.5-17.9-1.7-26.8C79.9,748.2,79.1,748,79,748.5L79,748.5z"/>
						</g>
					</g>
					<g>
						<g>
							<path d="M144.2,749.1c-4.8,35.2,10.9,68.3,14.4,102.9c1.9,19.5-0.7,39.2-2.4,58.6c-1.7,19.3-3.4,38.7-5.1,58
								c-0.9,10.7-2.6,21.7-2.9,32.4c-0.1,3.2,0.8,8.6,5.1,7.7c0.5-0.1,0.3-0.8-0.2-0.7c-0.7,0.1-3.5-2.7-3.8-3.2
								c-0.4-0.7-0.4-1.9-0.4-2.7c-0.1-2,0.3-4,0.5-6c0.4-4.6,0.8-9.2,1.2-13.8c0.8-8.5,1.5-17,2.3-25.6c1.6-17.7,3.1-35.4,4.7-53.1
								c1.5-17.2,3.5-34.5,1.8-51.7c-1.5-15.4-5.5-30.4-9-45.4c-4.4-18.8-8-37.9-5.4-57.3C144.9,748.8,144.2,748.6,144.2,749.1
								L144.2,749.1z"/>
						</g>
					</g>
					<g>
						<g>
							<path d="M191.2,739.8c1.3,20.6,4.8,41.8,12.3,61.1c0.2,0.4,0.9,0.3,0.7-0.2c-7.4-19.3-11-40.4-12.2-60.9
								C191.9,739.3,191.2,739.3,191.2,739.8L191.2,739.8z"/>
						</g>
					</g>
					<g>
						<g>
							<path d="M259.4,739.8c-0.5,10.4,1.7,20.7,3.2,31.1c0.8,5.4,1.6,10.9,1.8,16.3c0.1,3,0,6-0.6,8.9c-0.2,1.1-3,10.5-4.2,9.7
								c0.4,0.3,0.8-0.4,0.4-0.6c-0.1-0.1-0.2-0.1-0.3-0.2c-0.1-0.1-0.4-0.1-0.5,0.1c-0.4,0.5-0.5,0.5-0.3,1.1
								c0.1,0.2,0.2,0.3,0.5,0.3c2.9-0.5,4.2-6.2,4.7-8.5c1.4-5.7,1.1-11.7,0.5-17.4c-1.5-13.5-5.2-27.1-4.4-40.7
								C260.2,739.3,259.5,739.3,259.4,739.8L259.4,739.8z"/>
						</g>
					</g>
					<g>
						<g>
							<path d="M177.9,715.6c26.4,31.5,73.4,13.8,99.1-8.8c0.4-0.3-0.2-0.8-0.5-0.5c-25.4,22.4-71.9,40-98.1,8.8
								C178.1,714.7,177.6,715.3,177.9,715.6L177.9,715.6z"/>
						</g>
					</g>
					<g>
						<g>
							<path d="M197.6,111.5c-5.3,1.2-10.8,1.4-16.1,2.7c-5.4,1.4-10.7,3.4-15.9,5.4c-0.4,0.2-0.3,0.9,0.2,0.7
								c5.2-2,10.5-4,15.9-5.4c5.3-1.4,10.8-1.5,16.1-2.7C198.3,112.1,198.1,111.4,197.6,111.5L197.6,111.5z"/>
						</g>
					</g>
					<g>
						<g>
							<path d="M206.4,138c1.9,1.1-0.8,4.3-1.7,5.3c-0.3,0.4,0.2,0.9,0.5,0.5c1.2-1.4,4.1-5,1.5-6.5
								C206.4,137.1,206,137.8,206.4,138L206.4,138z"/>
						</g>
					</g>
					<g>
						<g>
							<path d="M206.4,141.5c-3.9-1.1-2.8,5-3.8,6.8c-0.2,0.4,0.4,0.8,0.6,0.4c0.5-0.9,0.6-1.7,0.6-2.7c0-1.4,0.1-4.3,2.3-3.7
								C206.7,142.4,206.9,141.7,206.4,141.5L206.4,141.5z"/>
						</g>
					</g>
					<g>
						<g>
							<path d="M106.5,142.7c0.2,1.9,0.2,3.9,0.6,5.7c0.2,0.9,0.8,1.6,1.8,1.3c0.2-0.1,0.3-0.2,0.3-0.4c0-0.2,0-0.4,0-0.5
								c0-0.5-0.7-0.5-0.8,0c0,0.2,0,0.4,0,0.5c0.1-0.1,0.2-0.2,0.3-0.4c-1,0.3-1.1-3-1.2-3.4c-0.1-1-0.2-1.9-0.3-2.9
								C107.2,142.2,106.5,142.2,106.5,142.7L106.5,142.7z"/>
						</g>
					</g>
					<g>
						<g>
							<path d="M107.7,146.8c0.7-0.6,1.4,0.8,1.5,1.3c0.2,0.6,0.4,1.2,0.9,1.7c0.3,0.3,0.9-0.2,0.5-0.5c-0.7-0.7-0.7-1.9-1.4-2.6
								c-0.6-0.6-1.4-0.8-2.1-0.3C106.8,146.6,107.3,147.1,107.7,146.8L107.7,146.8z"/>
						</g>
					</g>
					<g>
						<path d="M114.9,128.3c1.3,0.8,2.5,1.7,3.6,2.7c0.5-0.9,0.4-2-0.1-2.8c3.9-2.2,8.9-1.7,13.4-1.2c4.6,0.5,9.3,1.1,13.3,3.1
							c-1.3-0.2-1.4-1.8-2.4-2.5c-0.4-0.2-0.8-0.3-1.2-0.4c-4.4-1.1-8.9-2.1-13.5-2.2c-4.6-0.1-9.4,0.7-13,3.2"/>
						<g>
							<path d="M114.7,128.6c1.3,0.7,2.4,1.6,3.5,2.6c0.2,0.2,0.6,0.1,0.6-0.2c1.8-8.2,20.9-3,26.1-0.7c0.4,0.2,0.8-0.4,0.4-0.6
								c-1.7-0.9-1.9-2.3-3.7-3c-3-1.2-6.9-1.6-10.1-2c-5.8-0.7-11.6-0.1-16.6,3c-0.4,0.3,0,0.9,0.4,0.6c6-3.6,12.8-3.5,19.5-2.4
								c2.6,0.5,5.6,0.7,7.7,2.3c0.9,0.6,1.1,0.8,1.6,1.6c0.3,0.4,0-0.8-0.4-0.9c-7.6-2.4-18-4.7-25.6-1.1c-0.1,0.1-0.2,0.3-0.2,0.4
								c1,3.2-2.5,0-2.9-0.3C114.6,127.7,114.3,128.4,114.7,128.6L114.7,128.6z"/>
						</g>
					</g>
					<g>
						<g>
							<path d="M122.1,134.3c6.2,2,12.6,1.9,18.7-0.4c0.4-0.2,0.3-0.9-0.2-0.7c-6,2.2-12.2,2.3-18.3,0.4
								C121.8,133.4,121.6,134.1,122.1,134.3L122.1,134.3z"/>
						</g>
					</g>
					<g>
						<g>
							<path d="M121.8,127.5c0.7,3.7,3.3,6.6,6.6,8.3c0.4,0.2,0.8-0.4,0.4-0.6c-3.1-1.6-5.5-4.3-6.3-7.8
								C122.5,126.8,121.7,127,121.8,127.5L121.8,127.5z"/>
						</g>
					</g>
					<g>
						<g>
							<path d="M139.1,128.4c0.8,2,0.4,4-1.1,5.5c-0.3,0.3,0.2,0.9,0.5,0.5c1.6-1.7,2.2-4,1.3-6.2
								C139.6,127.8,138.9,128,139.1,128.4L139.1,128.4z"/>
						</g>
					</g>
					<g>
						<g>
							<path d="M130.2,128.8c-1.1,1.9,0.7,3.8,2.7,3.8c2.8-0.1,1.3-4,0.6-5.4c-0.2-0.4-0.9-0.1-0.6,0.4c0.3,0.6,0.6,1.3,0.8,2
								c0.1,0.6,0.4,1.9-0.3,2.2c-0.6,0.3-1.8-0.1-2.2-0.5c-0.6-0.6-0.7-1.3-0.3-2C131.1,128.8,130.4,128.4,130.2,128.8L130.2,128.8
								z"/>
						</g>
					</g>
					<g>
						<g>
							<path d="M125.2,131.6c1.4,0,2.7,0,4.1,0c0.5,0,0.5-0.8,0-0.8c-1.4,0-2.7,0-4.1,0C124.7,130.9,124.7,131.6,125.2,131.6
								L125.2,131.6z"/>
						</g>
					</g>
					<g>
						<g>
							<path d="M134,131.3c1.6-0.1,3.2-0.1,4.7,0.1c0.5,0,0.5-0.7,0-0.8c-1.6-0.2-3.1-0.2-4.7-0.1
								C133.5,130.5,133.5,131.3,134,131.3L134,131.3z"/>
						</g>
					</g>
					<g>
						<path d="M173.2,126.7c-0.4,0.1-1.1,0.2-1.8,0.7c-0.6,0.4-1,1-1.2,1.4c1.9,0.3,3.8-0.6,5.6-1.3c5.4-2.1,11.6-2.5,17.2-1.2
							c0.6,0.1,1.2,0.3,1.6,0.8c0.4,0.4,0.3,1.2-0.3,1.4c1-0.3,2.1-0.6,3.1-0.9c-0.4-1.5-2-2.6-3.8-3.1c-1.7-0.5-3.6-0.4-5.4-0.3
							c-1.9,0.1-3.4,0.1-5.7,0.3c-2.2,0.2-3.7,0.4-5.7,0.9C174.8,126,174.9,126.3,173.2,126.7z"/>
						<g>
							<path d="M173.1,126.3c-1.5,0.4-2.3,1-3.2,2.3c-0.2,0.2,0,0.6,0.3,0.6c3.2,0.1,5.9-1.6,9-2.3c2.2-0.5,4.6-0.8,6.9-0.9
								c0.4,0,9.3,0.7,8.1,2.3c-0.2,0.3,0,0.7,0.4,0.6c1-0.3,2.1-0.6,3.1-0.9c0.2-0.1,0.3-0.3,0.2-0.6c-2-4.1-6.9-3.7-10.9-3.6
								C182,124,177.9,125.1,173.1,126.3c-0.5,0.1-0.3,0.8,0.2,0.7c4.6-1.2,8.9-2.3,13.7-2.5c1.8-0.1,5.3-0.5,6.7,0.3
								c0.2,0.1,3.2,3.9,1.5,3.3c0.3,0.1-0.5-1.4-0.2-1.2c-2.4-1.5-5.3-1.7-8.1-1.7c-2.4-0.1-4.8,0.2-7.1,0.7
								c-1.4,0.3-2.8,0.8-4.2,1.2c-0.5,0.2-0.9,0.4-1.4,0.5c-1.4,0.9-1.8,0.7-1.1-0.6C173.8,126.9,173.6,126.2,173.1,126.3z"/>
						</g>
					</g>
					<g>
						<g>
							<path d="M172.7,128.6c0.2,1.6,1.3,2.8,2.6,3.6c0.4,0.2,0.8-0.4,0.4-0.6c-1.2-0.7-2.1-1.8-2.3-3.2
								C173.4,127.9,172.7,128.1,172.7,128.6L172.7,128.6z"/>
						</g>
					</g>
					<g>
						<g>
							<path d="M192.5,126.8c0.3,2.7-1.2,5-3.5,6.2c-0.4,0.2,0,0.9,0.4,0.6c2.5-1.4,4.2-3.9,3.9-6.9
								C193.2,126.3,192.5,126.3,192.5,126.8L192.5,126.8z"/>
						</g>
					</g>
					<g>
						<g>
							<path d="M173.8,133.6c6,1.7,12.2,1.8,18.3,0.3c0.5-0.1,0.3-0.8-0.2-0.7c-6,1.4-11.9,1.3-17.9-0.3
								C173.5,132.7,173.3,133.5,173.8,133.6L173.8,133.6z"/>
						</g>
					</g>
					<g>
						<g>
							<path d="M180,127.2c-0.9,0.8-1,2.1-0.5,3.1c0.7,1.3,2.3,1.8,3.7,1.6c1.4-0.2,2.6-1.2,2.8-2.7c0.1-0.5,0.1-1.2-0.3-1.6
								c-0.3-0.3-0.7-0.2-0.9,0.2c-0.1,0.2,0,0.3,0.1,0.5c0,0,0,0.1,0.1,0.1c0.3,0.4,0.8-0.2,0.5-0.5c0,0,0-0.1-0.1-0.1
								c0,0.2,0,0.3,0.1,0.5c-0.2,0.4-0.1,1-0.3,1.5c-0.2,0.4-0.4,0.7-0.8,1c-0.8,0.6-1.8,0.7-2.7,0.5c-1.4-0.4-2.4-2.2-1.1-3.4
								C180.9,127.4,180.3,126.9,180,127.2L180,127.2z"/>
						</g>
					</g>
					<g>
						<g>
							<path d="M175.9,130.7c1.3-0.3,2.6-0.4,4-0.3c0.5,0,0.5-0.7,0-0.8c-1.4-0.1-2.8,0.1-4.2,0.4
								C175.2,130,175.4,130.8,175.9,130.7L175.9,130.7z"/>
						</g>
					</g>
					<g>
						<g>
							<path d="M185.2,130.5c2,0.5,4,0.7,6.1,0.6c0.5,0,0.5-0.8,0-0.8c-2,0.2-4,0-5.9-0.5C184.9,129.6,184.7,130.3,185.2,130.5
								L185.2,130.5z"/>
						</g>
					</g>
				</g>
			</g>
		</g>
	</g>
</g>
<path class="st2" d="M258.5,774.4h-214C25,774.4,9,758.5,9,738.9V41.5C9,22,25,6,44.5,6h214C278,6,294,22,294,41.5v697.4
	C294,758.5,278,774.4,258.5,774.4z"/>
<g class="st16">
	<defs>
		<path id="SVGID_5_" class="st16" d="M258.5,774.4h-214C25,774.4,9,758.5,9,738.9V41.5C9,22,25,6,44.5,6h214C278,6,294,22,294,41.5
			v697.4C294,758.5,278,774.4,258.5,774.4z"/>
	</defs>
	<clipPath id="SVGID_6_">
		<use xlink:href="#SVGID_5_"  style="overflow:visible;"/>
	</clipPath>
	<g class="st17">
		<defs>
			<rect id="SVGID_7_" x="-21.3" y="5" width="404.5" height="759.5"/>
		</defs>
		<clipPath id="SVGID_8_">
			<use xlink:href="#SVGID_7_"  style="display:none;overflow:visible;"/>
		</clipPath>
		<g class="st18">
			<path class="st5" d="M92,967.3c0,0-15.7-114.5,5.9-172.1c0,0-2.6-32.1-10.5-53.7c0,0-10.5-28.1-10.5-33.4c0,0-5.2-0.7-20.3-9.2
				l4.6-82.4l-11.8,8.5c0,0-2.6,0-6.5-6.5c0,0-11.1-5.2-9.2-14.4l12.4-49.1l3.9-66.7c0,0,3.3-43.2,8.5-64.1c0,0,7.9-39.3,8.5-63.5
				l1.3-31.4c0,0-10.5-7.9-5.9-15L75,292.7l2-15c0,0,3.3-20.9,8.5-25.5c0,0,6.5-6.5,14.4-9.2c0,0,5.9-9.8,0-53.7
				c0,0-11.8-71.3-6.5-83.8c0,0,4.6-45.1,29.4-62.8c0,0,15-12.4,34.7-11.1c0,0,32.7-9.2,60.9,22.9c0,0,23.6,19.6,17.7,98.8
				c0,0-2.6,42.5,9.2,72.6l5.9,23.6c0,0,8.5,3.9,9.8,19l2,24.2l17,33.4c0,0,2,4.6-11.8,9.2l17.7,50.4c0,0,5.2,16.4,15.7,33.4
				c0,0,12.4,25.5,14.4,35.3c0,0,12.4,40.6,23.6,55.6l27.5,33.4c0,0,20.9,29.4,24.9,32.7c0,0,15.7,15,8.5,13.7
				c-7.2-1.3-13.1-11.1-13.1-11.1l0.7,2.6l7.2,12.4c0,0,1.3,5.2-5.9,0l-5.9-7.9c0,0-4.6-1.3-7.2-4.6l-3.9-5.2c0,0,4.6,10.5,2,12.4
				c0,0-2.6,0.7-7.9-9.8l-12.4-24.2l-2.6-0.7c0,0-0.7,12.4,5.2,17c0,0,11.8,13.1,4.6,15c0,0-2.6-0.7-5.2-5.9
				c0,0-21.6-22.9-24.9-34.7c0,0-11.8-24.9-13.1-34.7c0,0-15.7-32.7-26.2-42.5c0,0-17.7-20.3-25.5-56.9c0,0-27.5-58.2-32.7-64.8
				l-9.2-0.7l-4.6-9.2l-8.5,32.7c0,0-1.3,36.6,13.1,66.7l9.8,21.6c0,0,2.6,1.3-0.7,3.9c0,0,15.7,49.7,17.7,71.3
				c0,0,11.8,86.4,10.5,104l3.3,60.9c0,0-7.9,5.9-13.1,4.6l-2,5.2c0,0-22.9,0.7-26.2,3.3c0,0-15.3,61.1-18,74.2
				c-0.1,0.7-0.3,1.3-0.3,1.7c-1.3,7.9,11.8,24.2,12.4,54.3c0,0,7.2,63.5,0,87.7c0,0-7.2,56.3-9.2,64.8l-32.1-2.6l-3.3-67.4
				c0,0-9.2-83.1-11.8-83.8c0,0-9.8-33.4-8.5-39.9c0,0-14.4,26.8-15,60.9c0,0-0.7,21.6-5.2,51.7l-9.8,64.8L92,967.3z"/>
			<path class="st2" d="M70.6,965.9c0,0-15.7-114.5,5.9-172.1c0,0-2.6-32.1-10.5-53.7c0,0-10.5-28.1-10.5-33.4c0,0-5.2-0.7-20.3-9.2
				l4.6-82.4l-11.8,8.5c0,0-2.6,0-6.5-6.5c0,0-11.1-5.2-9.2-14.4l12.4-49.1l3.9-66.7c0,0,3.3-43.2,8.5-64.1c0,0,7.9-39.3,8.5-63.5
				L47,328c0,0-10.5-7.9-5.9-15l12.4-21.6l2-15c0,0,3.3-20.9,8.5-25.5c0,0,6.5-6.5,14.4-9.2c0,0,5.9-9.8,0-53.7
				c0,0-11.8-71.3-6.5-83.8c0,0,4.6-45.1,29.4-62.8c0,0,15-12.4,34.7-11.1c0,0,32.7-9.2,60.9,22.9c0,0,23.6,19.6,17.7,98.8
				c0,0-2.6,42.5,9.2,72.6l5.9,23.6c0,0,8.5,3.9,9.8,19l2,24.2l17,33.4c0,0,2,4.6-11.8,9.2l17.7,50.4c0,0,5.2,16.4,15.7,33.4
				c0,0,12.4,25.5,14.4,35.3c0,0,12.4,40.6,23.6,55.6l27.5,33.4c0,0,20.9,29.4,24.9,32.7c0,0,15.7,15,8.5,13.7s-13.1-11.1-13.1-11.1
				l0.7,2.6l7.2,12.4c0,0,1.3,5.2-5.9,0l-5.9-7.9c0,0-4.6-1.3-7.2-4.6l-3.9-5.2c0,0,4.6,10.5,2,12.4c0,0-2.6,0.7-7.9-9.8l-12.4-24.2
				l-2.6-0.7c0,0-0.7,12.4,5.2,17c0,0,11.8,13.1,4.6,15c0,0-2.6-0.7-5.2-5.9c0,0-21.6-22.9-24.9-34.7c0,0-11.8-24.9-13.1-34.7
				c0,0-15.7-32.7-26.2-42.5c0,0-17.7-20.3-25.5-56.9c0,0-27.5-58.2-32.7-64.8l-9.2-0.7l-4.6-9.2l-8.5,32.7c0,0-1.3,36.6,13.1,66.7
				l9.8,21.6c0,0,2.6,1.3-0.7,3.9c0,0,15.7,49.7,17.7,71.3c0,0,11.8,86.4,10.5,104l3.3,60.9c0,0-7.9,5.9-13.1,4.6l-2,5.2
				c0,0-22.9,0.7-26.2,3.3c0,0-15.3,61.1-18,74.2c-0.1,0.7-0.3,1.3-0.3,1.7c-1.3,7.9,11.8,24.2,12.4,54.3c0,0,7.2,63.5,0,87.7
				c0,0-7.2,56.3-9.2,64.8l-32.1-2.6l-3.3-67.4c0,0-9.2-83.1-11.8-83.8c0,0-9.8-33.4-8.5-39.9c0,0-14.4,26.8-15,60.9
				c0,0-0.7,21.6-5.2,51.7l-9.8,64.8L70.6,965.9z"/>
			<path class="st19" d="M83,65c0,0,9-16,20-25c0,0,14-9,30-10l15-1c0,0,22,1,38,13c0,0,19,14,24,38c0,0,8,24,5,51c0,0-6,46,6,86
				l9,31l-28-16l-4-2c0,0-2,26-13,52l-10,17c0,0-6,7-6,22c0,0,3,17,1,22c0,0-1,4-5,7c0,0,4.5-5.5,0.5-13.5c0,0-5-12-5-15
				c0,0,0,15-3,19c0,0-2-14-4-16c0,0-3,12-2,16c0,0-7-10-5-24c0,0,4-19,9-27s13-32,13-32s10-32,9-38l-2.3-1.3l-2.8,3.3l2-5l-49,8
				c0,0-5,2-8,3l-6,11c0,0-4,7-6,18l-5,21l-6,38c0,0-2,15,6,29c0,0-14-7-15-20c0,0,2,14,4,18l-8-11l-1-2c0,0,1,12,1,15
				c0,0-2-11-7-15c0,0-4-8-5-25c0,0-2-17,5-32c0,0,10-21,11-24c0,0,3-10,3-13h-1c0,0-2,3-9,6c0,0,5-7,2-32l-7-63c0,0-5-33,0-54
				C73.5,92.5,79.5,72.5,83,65z"/>
			<path class="st20" d="M95,117c0,0-1,16,4,35c0,0,4,13,4,22c0,0,3,7,21,21c0,0,9,6,12,5c0,0,8-1,19-10l19-13c0,0,1-13,2-31
				c0,0,5-35,0-40c0,0-0.5,6.5-2.5,12.5l-5,14c0,0-2-20-7-24c0,0-1,13-5,18c0,0-3-31-6-33c0,0,2,14-10,30c0,0,4-15,4-16
				c0,0-4,12-14,16c0,0,2-9,0-13c0,0-5,5-4,18c0,0-9-9-10-27l-3,24c0,0-5-8-3-14l-7,11c0,0,0-11-2-12c0,0-3,11-3,16L95,117z"/>
			<path class="st21" d="M97.4,134.3c0,0,4.6,9.8,6.5,11.1c0,0,7.9,1.3,9.8,0c0,0,2-1.3,2-3.3c0,0,0.7-6.5-1.3-7.9
				C114.4,134.3,98.1,129.7,97.4,134.3z"/>
			<path class="st21" d="M147.8,134.3c0,0-2,5.2,6.5,9.8h9.2c0,0,2.6,0,3.3-5.2c0,0,2-4.6,0-6.5
				C166.8,132.3,149.1,130.4,147.8,134.3z"/>
			<path class="st20" d="M135.4,199.9c0,0,2.6,18.1-9.4,24.1c0,0-7,11-10,20l-8,21c0,0,5,4,20,4c1,0,20,2,28-1l11-5c0,0,10-37,11-43
				l-3-2l-2,2l1-3c0,0-4-12-4-22c0,0,0-19,2-19L135.4,199.9z"/>
			<path class="st20" d="M195,252v-5l5-11l2-3c0,0,1-1,2,0l16,10C220,243,204,244,195,252z"/>
			<path class="st20" d="M80,241c0,0,1,4,5,7c0,0,3-5,3-12L80,241z"/>
			<path class="st20" d="M191,132l3-2l6,2c0,0,1,2,1,4c0,0,0,10-2,12c0,0-2,5-10,12l-1,1C188,161,190,132,191,132z"/>
			<path class="st20" d="M47,328l-2,42c0,0-1,28-5,39c0,0-6,29-6,31c0,0-5,33-4,36c0,0-3,33-3,42c0,0-2,21-1,23c0,0-1,16-2,17
				s0,0,0,0l-7,27c0,0-6,19-4,23c0,0,0,5,8,8c0,0,4,7,6,8c0,0,3-1,13-9s0,0,0,0s2-41,2-43s5-61,5-61s4-46,6-47c0,0,16-37.9,16-45
				c0-1,6-30,6-30l-8-48C67,341,51,335,47,328z"/>
			<path class="st20" d="M212,345l20,37l12,28c0,0,11,35,15,41l17,24c0,0,14,19,20,33c0,0,10,34,19,47c0,0,10,14,15,18c0,0,3,4,4,6
				c0,0,4,6,6,5c0,0,2-1,2-2c0,0-2-8-5-10s-7-13-7-13s-1-7,0-7c0,0,2,0,3,2c0,0,15,32,18,31c0,0,1,4.8,1-5c0-1-2-6-2-6s8,10,10,11
				c0,0,1,1,2,1h1c0,0,6,10,9,8c0,0,2-1,0-5l-9-14c0,0,8,9,11,11c0,0,3,3,6,2c0,0,2-1-4-7s-12-14-12-14l-8-9l-9-15c0,0-24-26-27-31
				s-19-30-21-43s-14-44-21-54v-1l-9-17c0,0-10-24-12-30l-11-33C246,334,227,346,212,345z"/>
			<path class="st20" d="M55,707c0,0,11,36,14,41c0,0,8,33,7,45l-2,9l-3,13c0,0-3,16-3,18c0,0-2,17-2,19c0,0-1,18-1,20s0,19,0,19
				l1,23l1,17l2,24l2,20c0,0,1,25,2,28c0,0,1,19,0,20c0,0-2,5-2,21c0,0,2,14,1,20l-1,9c0,0,9,18,23,15c0,0,7,0,15-15c0,0-2-0.7-2-7
				c0-1-1-8-1-8s-1-8-1-14c0,0-3-18-3-22c0,0-1-36,0-38l2-22c0,0,3-31,5-36l4-28l4-34l2-22c0,0,3-19,6-29l6-15c0,0,4,25,7,30
				c0,0,6,30,7,37l7,58l3,63c0,0,2,49,1,51c0,0-2,24-8,34c0,0-3,8-4,13l-3,8c0,0,4,10,17,8c0,0,10,1,14-10l7-14c0,0,2-2,1-12
				c0,0-4-11-1-30c0,0,4-24,7-38l5-27c0,0,5-31,5-33s3-30,3-30v-36c0,0-3-44-6-51c0,0-3-15-7-22c0,0-4-5-1-19l6-24l8-34l3-10l-7,1
				C195,711,58.5,675.5,55,707z"/>
			<path class="st23" d="M101,142c0,0,3,4,4,4h5c0,0,5,1,6-5c0,0-4-1-4,0c0,0-1,3-3,0L101,142z"/>
			<path class="st21" d="M107,133c0,0,1,10,4,10c0,0,4-3-2-10H107z"/>
			<path class="st21" d="M157,132c0,0-0.9,7.7,3,7.8c0,0,3-0.8,1-7.8H157z"/>
			<path class="st23" d="M149.3,140c0,0,2.7,4,5.7,4l5.3,0.3c0,0,5.4,1.5,6.1-3.4l0.9-1.9c0,0-4.5,0.3-5.4-0.4L157,139l-7.8,1"/>
			<ellipse class="st2" cx="113" cy="141" rx="2" ry="1"/>
			<polygon class="st24" points="99,136 100,138 102,138 101,135 			"/>
			<polygon class="st24" points="102,135 103,138 104,138 103,135 			"/>
			<ellipse class="st2" cx="164" cy="140" rx="2" ry="1"/>
			<polygon class="st25" points="149,136 150,138 152,138 151,135 			"/>
			<polygon class="st25" points="152,135 153,138 154,138 153,135 			"/>
			<path class="st26" d="M52.5,466c0,0-5.5,52-7,62l-7.3,108l-2.8,61.5c0,0,17.5,11.5,25.5,10.5l-0.4-5.5c0,0,26.4,7.3,33.9,6.9
				c0,0,2.3-1.9,1.9-4.1c0,0,25.9,13.7,39.2,15.2c0,0,15.4,3.7,14.4-5.4c0,0,6,2.9,38-2.1c0,0,16-4.8,20.5-4.9
				c0,0,18.2-2.4,19.3-1.8l0.9-5.5c0,0,8.8-0.3,11-2.5l3.3-2.3c0,0-5.3-105.3-6.7-111.7c0,0-8-78-17.7-101.7c-9.7-23.7,0-0.2,0-0.2
				L212,460c-0.9,0.8-2.2,1.9-4,3c-4.4,2.7-8.3,3.3-12,4c-4.7,0.9-9.3,2.3-14,3c-15.4,2.4-45.3,12.5-56,15c0,0-16.6,1.7-32.1-1.4
				c-0.7-0.1-11.6-2.3-16.3-4.6c-0.4-0.2-1.6-0.8-3.3-1.2c-2.2-0.6-3.4-0.6-5.4-0.8c-2.5-0.3-5.2-0.6-8-2c-2.5-1.3-4-2.9-5-4
				C54.3,469.1,53.2,467.3,52.5,466z"/>
			<path class="st27" d="M135.4,199.9l0.1,6.2c0,0,18.6,0.9,34.6-16.1l1.1-10.8C171.1,179.2,145.8,199.8,135.4,199.9z"/>
			<g>
				<g>
					<g>
						<g>
							<path d="M117.8,66.1c-4,10.1-6.1,20.8-7.1,31.6c-0.8,8.9-2.6,20.2,2.6,28.1c0.2,0.3,0.7,0.2,0.7-0.2
								c0.7-6.8,1.5-13.6,2.6-20.4c0.3-1.5,0.5-3.1,0.8-4.6c0-0.2,0.8-3.9-0.1-3.3c-0.8,0.5-0.5,5.7-0.5,6.5
								c0.1,9.3,3.5,18.1,9.3,25.2c0.2,0.2,0.7,0.1,0.6-0.3c-0.6-4.9-0.1-9.6,2-14.1c1.3-2.8,2.3-4.6,2.5,0.8
								c0.1,2.9-0.5,5.7-1.4,8.4c-0.1,0.3,0.3,0.6,0.6,0.4c10-5.9,16.1-16.5,16-28.1c0-0.5-0.7-0.5-0.8,0
								c-0.7,9.5-2.6,18.6-5.8,27.6c-0.1,0.3,0.4,0.7,0.6,0.4c7.1-8.9,10.7-19.6,10.5-31c0-0.5-0.8-0.5-0.8,0
								c0.2,9.6-2.4,18.5-7.4,26.6c-0.6,0.8-1.1,1.7-1.6,2.5c0.4-1.2,0.8-2.4,1.2-3.6c0.5-1.8,1-3.6,1.5-5.5c1-4,1.7-8.1,2.1-12.2
								c0.1-0.9,0.2-1.9,0.3-2.8c-0.8-0.8-1-0.5-0.7,1c-0.8,2.2-0.6,4.8-1.4,7c-1.4,4.1-3.5,7.9-6.4,11.2c-1.3,1.5-3.5,4.1-5.4,4.8
								c-1.8,0.7-1.3,1.2-0.9-1.4c0.5-3.7,0.5-6.9-0.3-10.5c-0.1-0.3-0.5-0.3-0.7-0.1c-2.2,3.2-3.7,6.6-4.4,10.5
								c-0.3,1.5,0.1,3.6-0.4,4.9c0.5,2,0.1,2.1-1,0.5c-0.5-0.6-0.9-1.3-1.3-2c-5.2-8.4-6.9-18.4-5.1-28.1c0.1-0.5-0.6-0.7-0.7-0.2
								c-1.3,6.8-2.4,13.6-3.3,20.5c-0.3,2.2-0.1,12-2.4,5.1c-1.2-3.5-1.2-7.3-1.1-11c0.3-15,2.3-30,7.8-44.1
								C118.7,65.8,118,65.6,117.8,66.1L117.8,66.1z"/>
						</g>
					</g>
					<g>
						<g>
							<path d="M129.5,100.3c0.5,4.4,1,8.8,1.7,13.1c0.1,0.5,0.8,0.3,0.7-0.2c-0.6-4.3-1.2-8.6-1.7-12.9
								C130.2,99.8,129.5,99.8,129.5,100.3L129.5,100.3z"/>
						</g>
					</g>
					<g>
						<g>
							<path d="M151.5,95.4c3,10.4,3.7,21.1,4.3,31.8c0,0.4,0.5,0.5,0.7,0.2c4.3-8.3,6.2-17.2,5.7-26.5c0-0.5-0.8-0.5-0.8,0
								c0.3,5.1,0,10.2-1.3,15.1c-0.6,2.4-1.4,6-2.8,8c-1.8,2.5-0.9,0.8-1.1-1.5c-0.5-9.2-1.5-18.4-4.1-27.3
								C152.1,94.8,151.3,95,151.5,95.4L151.5,95.4z"/>
						</g>
					</g>
					<g>
						<g>
							<path d="M165.5,113.1c0.5,0,0.5-0.8,0-0.8C165,112.3,165,113.1,165.5,113.1L165.5,113.1z"/>
						</g>
					</g>
					<g>
						<g>
							<path d="M161.6,108.3c4.2,7.5,6.3,15.6,6.3,24.3c0,0.4,0.5,0.5,0.7,0.2c7.3-15.3,10.3-32,8.6-48.9c0-0.5-0.8-0.5-0.8,0
								c1.3,13.1-0.2,26.2-4.5,38.7c-0.3,0.9-3,8.4-3.4,8.3c-0.2-0.1-0.5-5.9-0.7-6.9c-1-5.7-3-11-5.8-16.1
								C162,107.5,161.3,107.9,161.6,108.3L161.6,108.3z"/>
						</g>
					</g>
					<g>
						<g>
							<path d="M177.3,108.2c2,19.3-2,38.3-3.4,57.5c-0.6,9.2-0.2,18.2,0.7,27.4c1,9.8,1.8,19.7-2.6,28.9c-0.2,0.4,0.4,0.8,0.6,0.4
								c10.8-15.2,14.3-32.1,15-50.4c0.4-10.6,0.7-21.1,2.3-31.6c1.3-8.7,2.5-17.4,0.7-26.1c-0.1-0.5-0.8-0.3-0.7,0.2
								c2.2,10.6-0.2,20.9-1.5,31.4c-1.2,9.3-1.2,18.6-1.6,28c-0.4,9.7-1.4,19.3-4.6,28.5c-1.5,4.3-3.4,8.5-5.6,12.4
								c-1.1,1.9-2.7,3.8-3.7,5.8c0.2,0.3,0.4,0.4,0.4,0.2c0.4-1,0.8-2.1,1.2-3.1c2.4-7.6,1.7-15.8,0.9-23.6
								c-0.9-9.1-1.5-18.1-0.9-27.3c1.3-19.5,5.5-38.8,3.4-58.5C178,107.7,177.2,107.7,177.3,108.2L177.3,108.2z"/>
						</g>
					</g>
					<g>
						<g>
							<path d="M102.4,68.2c-10.7,17.7-12.1,39.5-3.8,58.4c0.2,0.4,0.7,0.2,0.7-0.2c0-7,1.3-13.7,4-20.3c0.2-0.4-0.5-0.6-0.7-0.2
								c-1.3,3.2-2.4,6.5-3.1,10c-0.4,2.1-0.1,6-0.9,7.9c0.1,1.3-0.1,1.2-0.5-0.4c-0.3-0.7-0.6-1.5-0.8-2.2
								c-0.4-1.3-0.8-2.5-1.2-3.8c-1-3.6-1.6-7.2-1.9-10.9c-1.2-13.3,2.1-26.6,8.9-37.9C103.3,68.1,102.6,67.8,102.4,68.2
								L102.4,68.2z"/>
						</g>
					</g>
					<g>
						<g>
							<path d="M101.6,111.2c1.2,3.9,1.5,7.8,0.9,11.8c-0.1,0.4,0.4,0.6,0.7,0.3c1.9-2.6,3.6-5.3,5.2-8.2c1-1.9,2.2-3.9,1.5-6.1
								c-0.1-0.5-0.9-0.3-0.7,0.2c0.8,2.7-1.6,5.8-2.9,8c-1.2,1.9-2.4,3.8-3.7,5.6c0.2,0.1,0.5,0.2,0.7,0.3
								c0.6-4.2,0.3-8.2-0.9-12.2C102.2,110.5,101.5,110.7,101.6,111.2L101.6,111.2z"/>
						</g>
					</g>
					<g>
						<g>
							<path d="M149.6,68.1c-2.4,1.3-1.7,8.4-1.6,10.6c0.2,5.9,2,11.3,3.2,17.1c0.1,0.5,0.8,0.3,0.7-0.2c-0.8-3.8-2.1-7.5-2.7-11.4
								c-0.4-2.7-1.9-14,0.7-15.4C150.4,68.5,150.1,67.9,149.6,68.1L149.6,68.1z"/>
						</g>
					</g>
					<g>
						<g>
							<path d="M195.7,107.6c1.4,7.1,2.2,14.2,2.4,21.5c0,0.5,0.8,0.5,0.8,0c-0.2-7.3-1-14.5-2.4-21.7
								C196.3,106.9,195.6,107.1,195.7,107.6L195.7,107.6z"/>
						</g>
					</g>
					<g>
						<g>
							<path d="M200,88.8c0.4,6.5,0.7,13,0.7,19.5c0,1.7-0.5,20.2-0.9,20.1c-0.5-0.1-0.7,0.6-0.2,0.7c0.1,0,0.3,0.1,0.4,0.1
								c0.1,0,0.3,0,0.4-0.1c0.9-0.9,0.7-2,0.8-3.2c0.2-4.2,0.3-8.5,0.3-12.7c0-8.1-0.2-16.3-0.7-24.4
								C200.7,88.3,199.9,88.3,200,88.8L200,88.8z"/>
						</g>
					</g>
					<g>
						<g>
							<path d="M191.4,132.1c1.1-0.2,0.5-0.1,0.9-0.2c0.2-0.3,0.4-0.5,0.6-0.7c2.4,0.6,4.7,1.2,7.1,1.8c1.5,2,0.6,8.7,0.1,10.9
								c-1.4,6.3-7.1,11.7-11.5,16.2c-0.3,0.3,0.2,0.9,0.5,0.5c3.3-3.3,6.6-6.9,9.3-10.8c2.8-4.1,3.1-8.8,2.8-13.6
								c-0.2-2.7-0.6-5.9-3.3-7.1c-0.9-0.4-1.8-0.5-2.7-0.3c-1.7,0.4-2.5,2.3-4,2.5C190.7,131.5,190.9,132.2,191.4,132.1
								L191.4,132.1z"/>
						</g>
					</g>
					<g>
						<g>
							<path d="M190.7,140.1c0.7-0.8,1.3-1.7,2.1-2.4c0.4-0.3,0.8-0.7,1.3-0.9c0.3-0.2,0.6-0.3,0.9-0.3c0.5-0.2,0.9-0.1,1.2,0.4
								c-0.4,0.2,0,0.9,0.4,0.6c0.5-0.3,0.7-0.9,0.3-1.4c-0.4-0.6-1.3-0.5-2-0.4c-2.2,0.4-3.7,2.3-5,4
								C189.8,140.1,190.4,140.5,190.7,140.1L190.7,140.1z"/>
						</g>
					</g>
					<g>
						<g>
							<path d="M192.4,139.6c0.8,2.7,1,5.5,0.4,8.3c-0.1,0.6-0.1,1.1-0.7,1.4c-1.2,0.8,0.1,0-0.7-0.1c-0.3,0-0.3-0.2-0.7-0.2
								c-0.5,0-0.5,0.8,0,0.8c0.5,0,0.3,1.3,1.3,1.2c0.7-0.1,1-0.9,1.2-1.5c1.2-3.2,0.9-6.9-0.1-10.1
								C193,138.9,192.2,139.1,192.4,139.6L192.4,139.6z"/>
						</g>
					</g>
					<g>
						<g>
							<path d="M196.4,146.3c-1.4,2.9-4,5-7.1,5.8c-0.5,0.1-0.3,0.8,0.2,0.7c3.3-0.8,6.1-3.1,7.6-6.1
								C197.3,146.3,196.6,145.9,196.4,146.3L196.4,146.3z"/>
						</g>
					</g>
					<g>
						<g>
							<path d="M94.7,116.9c-3.4,27.8,18.9,58.9,1.3,84.7c-0.3,0.4,0.4,0.8,0.6,0.4c17.8-25.9-4.6-57.2-1.2-85.1
								C95.5,116.4,94.7,116.4,94.7,116.9L94.7,116.9z"/>
						</g>
					</g>
					<g>
						<g>
							<path d="M88.4,87.2c-6.2,18.5-3.7,36,1.9,54.2c3.1,10,6.1,19.9,6.6,30.5c0.5,11-1,21.9-3,32.7c-0.1,0.5,0.6,0.7,0.7,0.2
								c3.5-19.3,4.2-37.5-1.5-56.5c-2.9-9.9-6.4-19.7-7.6-30c-1.1-10.4,0.2-20.9,3.5-30.8C89.3,86.9,88.6,86.7,88.4,87.2L88.4,87.2
								z"/>
						</g>
					</g>
					<g>
						<g>
							<path d="M103.6,175.2c3.6,6,8.4,10.8,13.9,15c4.5,3.5,10.4,8.9,16.1,10.1c6.4,1.3,13.9-4.9,19.1-8.1
								c7.2-4.4,14-9.2,20.6-14.4c0.4-0.3-0.2-0.8-0.5-0.5c-5.6,4.4-11.4,8.6-17.4,12.4c-2.8,1.8-5.6,3.4-8.4,5.1
								c-3.2,1.8-8,5.4-11.8,5c-6.3-0.7-13.6-7.3-18.4-11.1c-4.9-3.9-9.2-8.4-12.4-13.8C104,174.4,103.4,174.8,103.6,175.2
								L103.6,175.2z"/>
						</g>
					</g>
					<g>
						<g>
							<path d="M129.2,178.5c4.4,0.3,8.7,0.5,13.1,0.6c0.5,0,0.5-0.7,0-0.8c-4.4-0.1-8.7-0.2-13.1-0.6
								C128.7,177.7,128.7,178.5,129.2,178.5L129.2,178.5z"/>
						</g>
					</g>
					<g>
						<g>
							<path d="M132.9,183.3c0.8,0.1,1.8,0.3,2.5,0c0.5-0.2,0.8-0.6,0.5-1.1c-0.2-0.4-0.9,0-0.6,0.4c0,0-1,0-1,0
								c-0.5,0-0.9-0.1-1.4-0.1C132.4,182.5,132.4,183.3,132.9,183.3L132.9,183.3z"/>
						</g>
					</g>
					<g>
						<g>
							<path d="M125.6,148.4c-0.1,4.1-0.9,8.1-2.4,12c-0.2,0.5,0.6,0.6,0.7,0.2c1.5-4,2.3-8,2.4-12.2
								C126.4,147.9,125.7,147.9,125.6,148.4L125.6,148.4z"/>
						</g>
					</g>
					<g>
						<g>
							<path d="M89.4,202.5c0.2,13.1,0.4,26.4-2.6,39.3c-3,12.7-10.5,23.4-14.6,35.7c-3.8,11.4-4.2,23.7-2.6,35.6
								c0.6,5,1.4,10.1,3.6,14.7c2.6,5.6,7.8,10.1,7.5,16.8c0,0.4,0.7,0.5,0.7,0.1c0.7-4,0.5-7.8-0.7-11.8c-0.1-0.5-0.9-0.3-0.7,0.2
								c0.6,2.2,0.9,4.3,1.1,6.5c0.1,0.9,1,5.7,0.2,2.2c-0.4-1.5-0.8-2.8-1.4-4.1c-2.8-5.6-6.6-10-8.1-16.3
								c-3.4-14-3.4-29.9,1.1-43.7c4.2-12.6,11.9-23.5,14.8-36.6c2.8-12.7,2.6-25.7,2.4-38.6C90.2,202,89.4,202,89.4,202.5
								L89.4,202.5z"/>
						</g>
					</g>
					<g>
						<g>
							<path d="M74.5,304c-3.5,15.3,6.2,28.1,15.4,39.3c0.2,0.3,0.8,0,0.6-0.4c-1.8-4.3-3-8.7-4.1-13.2c-0.1-0.4-1.9-5.8-0.7-2.2
								c0.5,1.4,1.1,2.8,1.7,4.1c2.9,5.7,7.6,10.2,13.2,13.2c0.3,0.2,0.7-0.2,0.5-0.5c-8.9-13-6.7-26.5-4.4-41.2
								c2.1-13.6,4.4-27.1,7.6-40.4c1.5-6.2,3-12.5,5-18.5c1.9-5.4,5.4-9.8,7.6-15c4.8-11.4,4.6-24.7,4.9-36.8c0-0.5-0.7-0.5-0.8,0
								c-0.2,8.8-0.3,17.6-2,26.2c-0.7,3.8-1.6,7.5-3.2,11c-1.6,3.4-3.9,6.4-5.5,9.8c-3,6.3-4.5,13.5-6.2,20.2
								c-1.9,7.7-3.5,15.5-5,23.4c-1.4,7.8-2.7,15.7-3.9,23.6c-1.1,7.3-2.6,14.7-1.4,22.1c0.4,2.9,1.2,5.7,2.3,8.3
								c0.6,1.4,1.2,2.7,1.9,3.9c1.1,2,2.6,2.4,0.3,1.7c-3-0.9-6.4-5.3-8.2-7.8c-2.2-3.2-3.7-6.7-4.7-10.4c-0.1-0.4-0.8-0.3-0.7,0.1
								c0.5,4.1,1.2,8.1,2.5,12c0.3,0.9,1.2,4.8,2,4.8c-1.4-0.1-4.9-6.2-5.6-7.2c-6.3-8.8-11-19.1-8.5-30.1
								C75.3,303.7,74.6,303.5,74.5,304L74.5,304z"/>
						</g>
					</g>
					<g>
						<g>
							<path d="M121.1,204.4c1.1,5.4,1.4,10.8,0.8,16.2c-0.1,0.5,0.7,0.5,0.8,0c0.6-5.5,0.3-11-0.8-16.4
								C121.8,203.8,121,204,121.1,204.4L121.1,204.4z"/>
						</g>
					</g>
					<g>
						<g>
							<path d="M128.8,201.3c-1.2,0.4-1,1.7-0.9,2.8c0.1,2.7,0.3,5.4,0.4,8.1c0,0.5,0.8,0.5,0.8,0c-0.1-1.2-1.1-9.8,0-10.1
								C129.4,201.9,129.2,201.2,128.8,201.3L128.8,201.3z"/>
						</g>
					</g>
					<g>
						<g>
							<path d="M113.4,187.6c0.8,8.9,1.1,17.7,1,26.6c-0.2,8.4-0.8,16.7-5,24.2c-0.2,0.4,0.4,0.8,0.6,0.4c3.6-6.5,4.7-13.8,5-21.1
								c0.4-10,0-20.1-0.9-30.1C114.1,187.1,113.4,187.1,113.4,187.6L113.4,187.6z"/>
						</g>
					</g>
					<g>
						<g>
							<path d="M111,195.2c-1.1,11.8-3.7,23.3-7.8,34.4c-4.1,11.2-10.2,21.1-15.5,31.7c-4.6,9.1-7.5,18.6-7.7,28.9
								c-0.2,11.8,2.4,23.5,5,34.9c0.1,0.5,0.8,0.3,0.7-0.2c-2.7-12-5.5-24.2-4.9-36.6c0.6-12.7,5.7-23.5,11.7-34.4
								c10.2-18.5,17.1-37.6,19.2-58.7C111.8,194.7,111,194.7,111,195.2L111,195.2z"/>
						</g>
					</g>
					<g>
						<g>
							<path d="M178.4,213.8c-2.5,17.2-6.7,34.2-12.6,50.6c-5.8,15.9-15.3,31-18.8,47.6c-1.3,6.1-1.5,12.5-0.2,18.6
								c0.7,3,1.7,5.9,3.1,8.5c0.6,1.1,1.2,2.3,2.1,3.2c1.3,1.9,1.3,1.5-0.1-1.1c-0.2-1-0.3-1.9-0.2-2.9c0-4.2,1.1-8.6,1.7-12.8
								c0.6-4.1,1.3-8.1,2.8-11.9c2.7-6.7,6.9-12.4,7.5-19.7c0-0.5-0.7-0.5-0.8,0c-0.5,6.6-4.2,12-6.8,17.9
								c-1.9,4.3-2.8,8.9-3.5,13.6c-0.7,4.6-4.8,16.7,1.3,19.3c0.4,0.2,0.8-0.3,0.5-0.6c-17.2-19.3-2.4-45.2,6.1-64.7
								c9.1-20.9,15.2-42.9,18.5-65.4C179.2,213.5,178.5,213.3,178.4,213.8L178.4,213.8z"/>
						</g>
					</g>
					<g>
						<g>
							<path d="M165,283.4c-3.6,10.2-6.1,20.9-5.5,31.7c0.3,4.9,1.1,9.8,2.8,14.4c2.3,6.4,7.5,13.8,2.3,20.3
								c-0.2,0.3,0.1,0.8,0.5,0.6c9.9-6.7,4.9-19.2,4.3-28.8c-1-16.2,10-27.3,16.4-41.1c11.9-25.7,13.2-54.5,14.4-82.4
								c0-0.5-0.7-0.5-0.8,0c-0.9,20.7-1.8,41.7-7.1,61.9c-2.6,9.7-6.2,19.2-11.2,28c-4.5,7.9-10.1,14.8-11.8,23.9
								c-1.7,9.2,1.9,17.5,1.3,26.6c-0.2,2.6-0.8,5.4-2.2,7.6c-0.8,1-1.6,2-2.2,3c0.3-0.4,0.6-0.8,0.7-1.3c0.6-2.6,1.1-4.7,0.5-7.5
								c-0.9-4.4-3.5-8.4-4.8-12.7c-1.6-4.9-2.3-10-2.3-15.1c-0.1-9.9,2.3-19.7,5.6-29C165.9,283.1,165.2,282.9,165,283.4L165,283.4
								z"/>
						</g>
					</g>
					<g>
						<g>
							<path d="M194.4,223.3c-0.9,13.2-5.2,24.2-9.9,36.4c-2,5.1-2.5,10.1-2.9,15.5c-0.5,6.8-1.7,13.2-4.2,19.6
								c-0.2,0.5,0.6,0.6,0.7,0.2c4.8-12.5,3.1-26,8.4-38.2c4.6-10.8,7.9-21.6,8.7-33.4C195.2,222.8,194.4,222.8,194.4,223.3
								L194.4,223.3z"/>
						</g>
					</g>
					<g>
						<g>
							<path d="M182.5,273.4c1.6-3.6,3.2-7.3,4.8-10.9c0.6-1.4,2.7-4.4,2.6-5.9c-0.1-1.3-1.1,3.6-1,3.3c-1.8,8.1-4.8,15.8-8.7,23.2
								c-0.2,0.4,0.4,0.8,0.6,0.4c4.7-9,8-18.6,9.8-28.6c0.1-0.4-0.5-0.7-0.7-0.3c-2.7,6.1-5.4,12.3-8.1,18.4
								C181.7,273.5,182.3,273.9,182.5,273.4L182.5,273.4z"/>
						</g>
					</g>
					<g>
						<g>
							<path d="M177.5,279.7c-4.2,7.1-7.7,14.7-9.8,22.7c-2.2,8.3-0.7,15.8,1.6,23.9c0.1,0.5,0.9,0.3,0.7-0.2
								c-2.5-8.7-3.8-16.3-1.1-25.2c2.2-7.4,5.4-14.3,9.3-20.9C178.4,279.6,177.8,279.3,177.5,279.7L177.5,279.7z"/>
						</g>
					</g>
					<g>
						<g>
							<path d="M153.6,325.6c1.9,5.3,3.2,10.6,4,16.1c0.1,0.4,0.6,0.3,0.7,0c1.8-6.8,2.5-13.6,2.2-20.7c0-0.5-0.8-0.5-0.8,0
								c0.3,5.6,0.6,13.1-1.6,18.3c-0.5,1.3-0.2,0.2-0.3-0.8c-0.2-1.5-0.6-3-0.9-4.5c-0.7-3-1.6-5.8-2.6-8.7
								C154.2,324.9,153.5,325.1,153.6,325.6L153.6,325.6z"/>
						</g>
					</g>
					<g>
						<g>
							<path d="M200.6,204.3c-0.4,9.9-0.6,19.8,3.4,29.1c0.2,0.4,0.8,0.1,0.6-0.4c-4-9.1-3.7-19-3.3-28.7
								C201.4,203.8,200.6,203.8,200.6,204.3L200.6,204.3z"/>
						</g>
					</g>
					<g>
						<g>
							<path d="M87.4,287.5c1.1-6.1,3.1-12,6.4-17.4c0.4-0.7,1.7-2.5,1.6-2.8c0.1,0.8-0.8,2.6-1,3.5c-0.8,3.2-1.5,6.4-2,9.7
								c-1.5,10-2.2,21.7,1.8,31.3c0.2,0.4,0.8,0.1,0.6-0.4c-5.8-13.6-2.6-31.9,1.7-45.5c0.1-0.4-0.5-0.6-0.7-0.3
								c-4.8,6.6-7.8,13.8-9.3,21.8C86.6,287.7,87.3,287.9,87.4,287.5L87.4,287.5z"/>
						</g>
					</g>
					<g>
						<g>
							<path d="M199.6,151.9c-5.4,15.7-7.6,32.2-10.3,48.5c-1.4,8.1-2.9,16.3-5.1,24.2c-1.1,4-2.4,7.9-3.8,11.7
								c-1,2.6-2.1,4.7-1.1,7.5c0.2,0.5,0.9,0.3,0.7-0.2c-1.3-3.9,2.3-10,3.5-13.7c1.1-3.4,2-6.8,2.8-10.2c1.8-7.5,3.1-15,4.3-22.6
								c2.5-15.2,4.7-30.4,9.7-45C200.5,151.7,199.8,151.5,199.6,151.9L199.6,151.9z"/>
						</g>
					</g>
					<g>
						<g>
							<path d="M133.3,30c-12.7,0.4-24.9,5-34.6,13.3C87.2,53,81.6,67.4,76.6,81.3c-11.8,32.6-3,66.9,0.8,100.1
								c1.1,9.9,2.1,19.8,2.8,29.7c0.8,10.1,1.7,20.3-1.6,30.1c-0.2,0.5,0.6,0.7,0.7,0.2c4.7-14.1,1.8-30.2,0.4-44.7
								c-1.5-16.2-3.7-32.2-5.9-48.3c-2.2-16.4-3.9-33.2-1.2-49.7c1.4-8.1,4.1-15.8,7-23.4c2.9-7.4,5.9-14.9,10.4-21.4
								c9.8-14.1,26.1-22.6,43.2-23.1C133.8,30.7,133.8,29.9,133.3,30L133.3,30z"/>
						</g>
					</g>
					<g>
						<g>
							<path d="M137.5,30c16.1-2.2,32.5,1.7,45.9,10.8c13.9,9.4,22.6,24,27.1,39.9c9.6,34.2,0.4,69.7,3.8,104.4
								c2,20,8.7,39.7,13.8,59.1c0.1,0.5,0.8,0.3,0.7-0.2c-5.2-19.6-12-39.6-13.9-59.9c-1.9-20.1,0.4-40.3,0.8-60.5
								c0.5-30.3-4.7-64.5-31.4-83.1c-13.7-9.5-30.6-13.6-47.1-11.3C136.8,29.4,137,30.1,137.5,30L137.5,30z"/>
						</g>
					</g>
					<g>
						<g>
							<path d="M173.7,50.1c7.6,13.4,13.9,27.5,18.7,42.2c0.1,0.5,0.9,0.3,0.7-0.2c-4.8-14.7-11.1-28.9-18.8-42.3
								C174.1,49.4,173.4,49.7,173.7,50.1L173.7,50.1z"/>
						</g>
					</g>
					<g>
						<g>
							<path d="M99.3,58.5c3.1-6.4,8-11.5,14.1-15c0.4-0.2,0-0.9-0.4-0.6c-6.3,3.6-11.2,8.8-14.4,15.3C98.4,58.6,99.1,59,99.3,58.5
								L99.3,58.5z"/>
						</g>
					</g>
					<g>
						<g>
							<path d="M132.5,48c0,4.9,0,9.9,0,14.8c0,0.5,0.8,0.5,0.8,0c0-4.9,0-9.9,0-14.8C133.2,47.6,132.5,47.6,132.5,48L132.5,48z"/>
						</g>
					</g>
					<g>
						<g>
							<path d="M154.9,45.5c4.9,9.2,8.3,19,10.2,29.2c0.1,0.5,0.8,0.3,0.7-0.2c-1.9-10.3-5.4-20.1-10.3-29.4
								C155.3,44.7,154.7,45.1,154.9,45.5L154.9,45.5z"/>
						</g>
					</g>
					<g>
						<g>
							<path d="M209.3,101.8c2.1,11.2,2.7,22.5,1.9,33.9c0,0.5,0.7,0.5,0.8,0c0.8-11.5,0.2-22.8-1.9-34.1
								C209.9,101.1,209.2,101.3,209.3,101.8L209.3,101.8z"/>
						</g>
					</g>
					<g>
						<g>
							<path d="M207.4,161.4c-2.1,17.7-1.9,35.6,0.3,53.3c0.1,0.5,0.8,0.5,0.8,0c-2.3-17.7-2.4-35.5-0.3-53.3
								C208.2,161,207.4,161,207.4,161.4L207.4,161.4z"/>
						</g>
					</g>
					<g>
						<g>
							<path d="M81.3,141c3.9,13.5,6.4,27.3,7.2,41.4c0,0.5,0.8,0.5,0.8,0c-0.9-14.1-3.3-28-7.2-41.6
								C81.9,140.3,81.2,140.5,81.3,141L81.3,141z"/>
						</g>
					</g>
					<g>
						<g>
							<path d="M134.9,199.6c0.4,6,0.2,13.3-3.1,18.5c-3.2,5.2-9,7.4-14.5,9.3c-0.5,0.2-0.3,0.9,0.2,0.7c5.2-1.8,10.8-3.8,14.2-8.4
								c4.1-5.5,4.5-13.6,4-20.2C135.6,199.1,134.9,199.1,134.9,199.6L134.9,199.6z"/>
						</g>
					</g>
					<g>
						<g>
							<path d="M171,178.4c-2.2,12.8-1.3,25.6,2.7,37.9c0.2,0.5,0.9,0.3,0.7-0.2c-4-12.2-4.9-24.9-2.7-37.5
								C171.8,178.1,171,177.9,171,178.4L171,178.4z"/>
						</g>
					</g>
					<g>
						<g>
							<path d="M175,218.4c0.9,0.7,1.8,1.5,2.7,2.2c0.4,0.3,0.9-0.2,0.5-0.5c-0.9-0.7-1.8-1.5-2.7-2.2
								C175.1,217.6,174.6,218.1,175,218.4L175,218.4z"/>
						</g>
					</g>
					<g>
						<g>
							<path d="M198.7,230.7c8.8,5.1,17.7,10.2,26.5,15.3c5.1,2.9,9.1,5.5,11,11.4c1.4,4.4,2,9.2,2.7,13.8c0.1,0.5,0.8,0.3,0.7-0.2
								c-1.3-8.3-1.8-18-9.4-23c-10-6.5-20.8-12-31.1-18C198.7,229.8,198.3,230.4,198.7,230.7L198.7,230.7z"/>
						</g>
					</g>
					<g>
						<g>
							<path d="M87.4,235.4c-7.2,7-17.8,7.9-24.1,16c-5.8,7.4-6.1,17.5-7.5,26.5c-0.1,0.5,0.6,0.7,0.7,0.2
								c1.5-9.8,1.9-20.8,9.2-28.3c6.3-6.4,15.7-7.5,22.2-13.8C88.2,235.6,87.7,235.1,87.4,235.4L87.4,235.4z"/>
						</g>
					</g>
					<g>
						<g>
							<path d="M125.7,224.4c-9.3,12-12.4,27.1-18.7,40.7c-0.2,0.4,0.4,0.8,0.6,0.4c6.2-13.5,9.3-28.6,18.6-40.5
								C126.5,224.5,126,224,125.7,224.4L125.7,224.4z"/>
						</g>
					</g>
					<g>
						<g>
							<path d="M201.9,232.3c-3.3,4.7-5.3,9.8-6,15.5c-0.1,0.5,0.7,0.5,0.8,0c0.7-5.5,2.7-10.6,5.9-15.1
								C202.8,232.3,202.2,231.9,201.9,232.3L201.9,232.3z"/>
						</g>
					</g>
					<g>
						<g>
							<path d="M195.2,252.2c6.8-3.7,16.9-9.8,24.9-8.7c0.5,0.1,0.7-0.7,0.2-0.7c-8.3-1.1-18.4,5-25.4,8.8
								C194.4,251.8,194.8,252.5,195.2,252.2L195.2,252.2z"/>
						</g>
					</g>
					<g>
						<g>
							<path d="M238.8,270.1c1.6,14.4,3.2,28.8,4.8,43.2c0.1,0.5,0.8,0.5,0.8,0c-1.6-14.4-3.2-28.8-4.8-43.2
								C239.5,269.6,238.8,269.6,238.8,270.1L238.8,270.1z"/>
						</g>
					</g>
					<g>
						<g>
							<path d="M219,274.3c0.8,7.2,1.6,14.4,2.5,21.6c0.4,2.8,0.6,5.7,1.1,8.5c0.3,1.3,0.9,3.4-0.3,0c-0.6-1.8-1.5-3.5-2.3-5.2
								c-0.2-0.4-0.8-0.1-0.6,0.4c1.3,2.9,2.5,5.8,3.8,8.7c0.2,0.4,0.7,0.1,0.7-0.3c-1.6-11.2-2.9-22.4-4.2-33.7
								C219.7,273.9,218.9,273.9,219,274.3L219,274.3z"/>
						</g>
					</g>
					<g>
						<g>
							<path d="M56.3,276.6c0-0.1,0-0.2,0-0.2c0-0.2-0.1-0.3-0.3-0.4c-0.1,0-0.2-0.1-0.3-0.1c-0.1,0-0.4,0-0.4,0.2
								c-1.5,3.2-1.2,8.3-1.7,11.8c-0.8,6.1-1.7,12.3-2.7,18.4c-0.1,0.5,0.6,0.7,0.7,0.2c1.6-9.7,3.9-20,3.9-29.9
								C55.5,277.1,56.3,277.1,56.3,276.6L56.3,276.6z"/>
						</g>
					</g>
					<g>
						<g>
							<path d="M53.1,290.9c-3.6,6.7-7.3,13.4-10.9,20c-2.5,4.7-3.4,6.5-0.6,11.2c5.7,9.5,16.1,15,25.6,19.9
								c0.4,0.2,0.8-0.4,0.4-0.6c-8.2-4.3-16.9-8.8-22.9-16.1c-2.4-3-4.6-6.5-3.7-10.6c0.5-2.4,2.9-5.3,4.1-7.5
								c2.9-5.3,5.8-10.6,8.7-15.9C54,290.9,53.3,290.5,53.1,290.9L53.1,290.9z"/>
						</g>
					</g>
					<g>
						<g>
							<path d="M76.5,267c-19.5,23.2-22.2,55.4-5.2,80.8c0.3,0.4,0.9,0,0.6-0.4c-16.8-25.1-14.2-57,5-79.9
								C77.4,267.2,76.8,266.6,76.5,267L76.5,267z"/>
						</g>
					</g>
					<g>
						<g>
							<path d="M112.2,346.8c5.8-5.6,12.6,0.5,18.8,2.1c0.5,0.1,0.7-0.6,0.2-0.7c-6.7-1.6-13.2-8-19.6-1.9
								C111.3,346.6,111.9,347.1,112.2,346.8L112.2,346.8z"/>
						</g>
					</g>
					<g>
						<g>
							<path d="M240.2,288.1c3.5,7.5,7,15,10.4,22.5c1.7,3.7,3.5,7.5,5.2,11.2c1.8,3.9,2.2,5.2-1.3,7.8c-1.4,1.1-3.4,1.8-5,2.6
								c-7.3,3.8-14.6,8-22.5,10.4c-2.6,0.8-25.8,5-25.8-0.2c0-0.5-0.8-0.5-0.8,0c0,5,15.1,3.1,18.1,2.8c10.2-1.2,19-5.9,28-10.6
								c2.5-1.3,5-2.6,7.5-3.9c1.1-0.6,3.2-1.2,3.9-2.3c1.5-2.4-0.9-5.7-1.9-7.8c-5.1-11-10.2-21.9-15.2-32.9
								C240.6,287.3,240,287.7,240.2,288.1L240.2,288.1z"/>
						</g>
					</g>
					<g>
						<g>
							<path d="M194.7,295.3c-0.2,8.2-1.4,17,0,25.2c1.4,8.6,5.1,17,7.7,25.3c0.1,0.5,0.9,0.3,0.7-0.2c-2.5-7.8-5.7-15.7-7.4-23.7
								c-1.8-8.5-0.5-18-0.2-26.6C195.5,294.8,194.7,294.8,194.7,295.3L194.7,295.3z"/>
						</g>
					</g>
					<g>
						<g>
							<path d="M196.8,326.7c0.7-8,1.7-15.9,3.1-23.8c0.1-0.5-0.6-0.7-0.7-0.2c-1.5,7.9-2.5,15.9-3.2,24
								C196,327.1,196.7,327.1,196.8,326.7L196.8,326.7z"/>
						</g>
					</g>
					<g>
						<g>
							<path d="M80,240.4c-0.8,1.2,0.2,2.5,0.8,3.5c1.1,1.7,2.4,3.2,3.8,4.7c0.3,0.3,0.9-0.2,0.5-0.5c-1-1-1.9-2.1-2.8-3.2
								c-0.6-0.8-2.5-2.9-1.7-4C81,240.4,80.3,240,80,240.4L80,240.4z"/>
						</g>
					</g>
					<g>
						<g>
							<path d="M165.1,193.8c-3,14.4-5.7,28.9-8.1,43.4c-0.1,0.5,0.6,0.7,0.7,0.2c2.4-14.5,5.1-29,8.1-43.4
								C165.9,193.5,165.2,193.3,165.1,193.8L165.1,193.8z"/>
						</g>
					</g>
					<g>
						<g>
							<path d="M161.5,239c3.3-0.5,6.7-1,10-1.5c0.5-0.1,0.3-0.8-0.2-0.7c-3.3,0.5-6.7,1-10,1.5C160.8,238.3,161,239,161.5,239
								L161.5,239z"/>
						</g>
					</g>
					<g>
						<g>
							<path d="M126.1,232.8c2.5,0.9,4.7,2.4,6.6,4.2c0.3,0.3,0.9-0.2,0.5-0.5c-2-2-4.3-3.4-7-4.4
								C125.9,231.9,125.7,232.7,126.1,232.8L126.1,232.8z"/>
						</g>
					</g>
					<g>
						<g>
							<path d="M104.5,262.2c4.7,8.3,19.2,7.2,27.2,7.7c11.5,0.6,23.8,1,33.6-5.9c0.4-0.3,0-0.9-0.4-0.6c-8.7,6.1-19.4,6.4-29.6,6
								c-4.9-0.2-9.8-0.5-14.6-1c-5.6-0.6-12.5-1-15.6-6.4C104.9,261.4,104.3,261.7,104.5,262.2L104.5,262.2z"/>
						</g>
					</g>
					<g>
						<g>
							<path d="M197.6,335.3c-4,16.1-8.3,32.1-12.9,48c-0.1,0.5,0.6,0.7,0.7,0.2c4.6-15.9,8.9-31.9,12.9-48
								C198.4,335.1,197.7,334.9,197.6,335.3L197.6,335.3z"/>
						</g>
					</g>
					<g>
						<g>
							<path d="M189.5,366.9c-0.3,16.2,0.3,31.9,5,47.5c4.4,14.7,11.2,28.6,18,42.3c0.2,0.4,0.9,0.1,0.6-0.4
								c-6.7-13.7-13.5-27.5-17.9-42.2c-4.6-15.5-5.2-31.2-5-47.3C190.2,366.4,189.5,366.4,189.5,366.9L189.5,366.9z"/>
						</g>
					</g>
					<g>
						<g>
							<path d="M67.2,343.5c2.6,15,5.9,30,7.4,45.2c1.3,12.4,1.1,25,6.8,36.4c0.2,0.4,0.9,0.1,0.6-0.4c-6.3-12.6-5.4-26.8-7.2-40.5
								c-1.8-13.7-4.6-27.3-6.9-40.9C67.9,342.8,67.2,343,67.2,343.5L67.2,343.5z"/>
						</g>
					</g>
					<g>
						<g>
							<path d="M73.5,393.4c-2.2,19-7.2,37.4-14.8,54.9c-1.6,3.6-3.2,7.2-4.5,10.9c-0.8,2.4-2.2,5.4-1.5,8c1.4,5.2,8.6,8.3,13.2,9.5
								c0.5,0.1,0.7-0.6,0.2-0.7c-3.7-1-8.1-2.8-10.6-5.9c-3.7-4.6-1.1-9.4,0.7-14.1c2.8-7,6-13.8,8.5-20.9
								c4.8-13.5,7.9-27.5,9.6-41.7C74.3,392.9,73.5,392.9,73.5,393.4L73.5,393.4z"/>
						</g>
					</g>
					<g>
						<g>
							<path d="M64.2,477c5.7,1.2,11.6,1.1,17.5,1.4c6.8,0.3,13.6,0.6,20.3,0.9c0.5,0,0.5-0.7,0-0.8c-6.1-0.3-12.3-0.6-18.4-0.8
								c-6.3-0.3-13-0.1-19.2-1.5C63.9,476.2,63.7,476.9,64.2,477L64.2,477z"/>
						</g>
					</g>
					<g>
						<g>
							<path d="M77.1,479.3c12.8,4,26,7.6,39.5,6.8c13.4-0.8,26.1-5.4,38.9-9.2c13.9-4.1,28.2-6.1,42.1-9.8
								c4.5-1.2,10.3-2.3,13.8-5.7c1.3-1.3,3.3-3.9,1-5.1c-0.4-0.2-0.8,0.4-0.4,0.6c-0.4,1.3-0.8,2.6-1.1,4c-1.1,1-2.3,1.7-3.6,2.2
								c-1.2,0.6-2.4,1-3.6,1.4c-2.7,0.9-5.4,1.7-8.2,2.4c-5.5,1.4-11.1,2.5-16.7,3.6c-11.3,2.3-22.2,5.3-33.2,8.7
								c-10.9,3.3-22.1,6.4-33.6,6.4c-11.9-0.1-23.5-3.4-34.8-6.9C76.8,478.5,76.7,479.2,77.1,479.3L77.1,479.3z"/>
						</g>
					</g>
					<g>
						<g>
							<path d="M51.6,468.7c-9.3,75.5-12.8,151.6-16.2,227.5c0,0.5,0.7,0.5,0.8,0c3.5-76,7-152,16.2-227.5
								C52.4,468.2,51.7,468.2,51.6,468.7L51.6,468.7z"/>
						</g>
					</g>
					<g>
						<g>
							<path d="M211.6,460.2c12.7,38.1,19.8,77.8,23.8,117.8c2,19.6,3.3,39.3,4.3,58.9c1,20.2,0.8,40.5,3,60.6
								c0.1,0.5,0.8,0.5,0.8,0c-1.7-15.8-1.8-31.7-2.4-47.5c-0.7-15.6-1.5-31.2-2.7-46.8c-2.3-30.8-5.9-61.6-12.3-91.8
								c-3.6-17.4-8.2-34.5-13.8-51.3C212.2,459.6,211.5,459.8,211.6,460.2L211.6,460.2z"/>
						</g>
					</g>
					<g>
						<g>
							<path d="M241.9,696.2c-3.8,3.3-8.2,4.6-13.2,4c-0.2,0-0.4,0.2-0.4,0.4c-0.1,4-0.5,5.4-4.6,5.5c-3.1,0.1-6.3,0.3-9.4,0.7
								c-5.4,0.6-10.6,1.7-15.9,3c-0.5,0.1-0.3,0.8,0.2,0.7c9.8-2.5,19.7-3.7,29.8-3.7c0.2,0,0.4-0.2,0.4-0.4c0-1.3,0.1-2.6,0.1-3.9
								c0.5-1.3,1.3-1.7,2.6-1.3c1.1-0.3,2.5-0.2,3.7-0.5c2.7-0.7,5-2.1,7.1-3.9C242.8,696.4,242.3,695.9,241.9,696.2L241.9,696.2z"
								/>
						</g>
					</g>
					<g>
						<g>
							<path d="M213.2,546.2c3.6,28.1,7.3,56.1,10.9,84.2c1.7,13.5,3.6,27,4.7,40.6c0.5,6.7,0.8,13.5,0.8,20.3
								c0,3.7-1.3,8.9,1.9,11.6c0.4,0.3,0.9-0.2,0.5-0.5c-2.7-2.3-1.7-8-1.7-11c0-3.2-0.1-6.4-0.2-9.6c-0.3-6.4-0.8-12.9-1.4-19.3
								c-1.3-12.6-3-25.2-4.7-37.8c-3.4-26.1-6.8-52.2-10.1-78.2C213.9,545.7,213.2,545.7,213.2,546.2L213.2,546.2z"/>
						</g>
					</g>
					<g>
						<g>
							<path d="M185.1,582.2c2.7,36.3,5.4,72.6,8.1,108.9c0.3,4.3,0.6,8.6,1,12.9c0.2,2.2,1.1,5.5-1,7.1c-1.3,1-4.6,1.3-6.2,1.6
								c-8.9,2.1-18.1,3.1-27.2,3c-1.8,0-3.7-0.1-5.5-0.2c-3.3-0.2-3.9-0.9-4.4-3.9c-0.8-4.4-0.5-9.2-0.8-13.7
								c-0.5-9.1-1-18.3-1.5-27.4c-1.1-20.3-2.3-40.5-3.4-60.8c0-0.5-0.8-0.5-0.8,0c2,35.3,3.9,70.6,5.9,105.8
								c0,0.2,0.2,0.4,0.4,0.4c15.4,1.5,30.7-0.1,45.5-4.6c0.1,0,0.3-0.2,0.3-0.4c-3.2-42.9-6.4-85.8-9.5-128.7
								C185.8,581.7,185.1,581.7,185.1,582.2L185.1,582.2z"/>
						</g>
					</g>
					<g>
						<g>
							<path d="M96.2,705.6c11.5,5.9,23.2,11.9,36,14.5c4.6,1,20.1,4.1,18.2-5.1c-0.1-0.5-0.8-0.3-0.7,0.2c2.2,10.5-24.4,2.5-28.5,1
								c-8.5-3-16.6-7.1-24.6-11.2C96.1,704.7,95.8,705.4,96.2,705.6L96.2,705.6z"/>
						</g>
					</g>
					<g>
						<g>
							<path d="M35.3,697.9c7.8,5.6,16.6,9.2,26.1,10.8c0.3,0,0.5-0.2,0.5-0.5c-4.4-25-6.4-50.3-6.1-75.6c0-0.5-0.7-0.5-0.8,0
								c-0.2,17.9,0.6,35.8,2.8,53.5c0.4,3.6,0.9,7.2,1.4,10.7c0.4,2.4,1.2,5.2,1.2,7.7c0,2.5,0.7,2.7-2.2,2.8
								c-3.8,0.2-9.4-2.7-12.6-4.2c-3.5-1.7-6.9-3.7-10-6C35.3,696.9,34.9,697.6,35.3,697.9L35.3,697.9z"/>
						</g>
					</g>
					<g>
						<g>
							<path d="M59.9,702.8c10.2,2.8,20.5,5,31,6.5c1.5,0.2,3.8,1,5-0.1c1.8-1.5,0.8-7.5,0.8-9.4c0-21-4.8-41.7-4-62.7
								c0-0.5-0.7-0.5-0.8,0c-0.7,17.2,2.4,34.2,3.6,51.3c0.3,4.1,0.5,8.2,0.4,12.3c0,2.3,0.6,6.8-2.1,8.1c-0.8,0.4-6.1-0.8-7.5-1.1
								c-8.9-1.4-17.6-3.4-26.3-5.8C59.6,702,59.4,702.7,59.9,702.8L59.9,702.8z"/>
						</g>
					</g>
					<g>
						<g>
							<path d="M77.2,798.2c-0.6-15.4-2.9-30.8-7.1-45.7C65.9,737.2,58.5,722.8,56,707c-0.1-0.5-0.8-0.3-0.7,0.2
								c2.4,15.1,9.4,29,13.7,43.7c4.4,15.4,6.9,31.3,7.5,47.3C76.5,798.7,77.2,798.7,77.2,798.2L77.2,798.2z"/>
						</g>
					</g>
					<g>
						<g>
							<path d="M128.9,717.6c0.1,18.7,0.2,37.4,0.4,56.1c0.2,18.3,3.1,35.3,7.7,53c4.9,18.7,7.7,37.3,9.6,56.5
								c0.9,8.9,1.7,17.9,2.9,26.8c0.8,6.2,0.7,15,5.4,19.6c0.3,0.3,0.9-0.2,0.5-0.5c-3.5-3.4-3.7-8.9-4.4-13.5
								c-0.8-5-1.4-10.1-1.9-15.2c-1-8.9-1.8-17.9-2.7-26.8c-1.8-16.7-4.9-32.8-9.1-49c-2.2-8.6-4.4-17.2-5.7-25.9
								c-1.3-8.9-1.4-17.9-1.5-26.9c-0.2-18-0.3-36.1-0.4-54.1C129.6,717.1,128.9,717.1,128.9,717.6L128.9,717.6z"/>
						</g>
					</g>
					<g>
						<g>
							<path d="M201.1,710.1c-0.8,7.1-3.3,14-4.9,20.9c-1.9,8.5-3.7,16.9-5.9,25.3c-2,7.7-4.4,15.4-6,23.2
								c-0.8,3.9-1.3,7.9-0.6,11.9c0.8,4.9,3.5,8.9,5.3,13.5c1.5,3.9,2.5,7.9,3.4,11.9c2.8,13.7,4.5,27.7,5.5,41.6
								c1.1,16.3,1.2,32.7,1.1,49c0,0.5,0.7,0.5,0.8,0c0.1-27.5-0.6-54.8-5-82.1c-1.6-10.1-4.1-19-8.5-28.2
								c-5.4-11.5,0.8-25.4,3.8-36.8c2.6-9.7,4.7-19.4,6.9-29.1c1.6-7,4.1-13.9,4.9-21.1C201.9,709.6,201.1,709.6,201.1,710.1
								L201.1,710.1z"/>
						</g>
					</g>
					<g>
						<g>
							<path d="M25.7,527.4c-1,6.9-0.2,14.1-0.6,21.1c-0.4,7.5-2.9,14.7-4.8,21.9c-2.7,10.4-5.8,20.8-8,31.3
								c-1.6,8,2.7,12.3,9.3,15.7c0.4,0.2,0.8-0.4,0.4-0.6c-6.2-3.2-10.5-7.2-9-14.8c0.8-4.1,2.2-8.2,3.3-12.2
								c2.4-9.4,4.7-18.8,7.2-28.2c1.2-4.5,2.2-8.9,2.4-13.6c0.3-6.7-0.3-13.6,0.6-20.2C26.5,527.2,25.8,527,25.7,527.4L25.7,527.4z
								"/>
						</g>
					</g>
					<g>
						<g>
							<path d="M16.9,611.2c2.1,2.9,4.1,5.7,6.2,8.6c0.7,1,2.3,4.2,3.6,4.5c1.3,0.3,2.3-0.7,3.3-1.4c2.8-2,5.6-4.1,8.4-6.2
								c0.4-0.3,0-0.9-0.4-0.6c-1.8,1.3-3.6,2.7-5.4,4c-2.3,1.7-4.1,4.3-7,1.8c-1.4-1.2-2.5-3.4-3.5-4.9c-1.5-2-2.9-4.1-4.4-6.1
								C17.3,610.4,16.6,610.8,16.9,611.2L16.9,611.2z"/>
						</g>
					</g>
					<g>
						<g>
							<path d="M22,598c1,6.5,3.9,12.4,8.5,17.2c0.3,0.3,0.9-0.2,0.5-0.5c-4.5-4.7-7.3-10.4-8.3-16.8C22.6,597.3,21.9,597.5,22,598
								L22,598z"/>
						</g>
					</g>
					<g>
						<g>
							<path d="M33.5,609.8c0.7-1.5,2.5-1.3,3.3,0c0.7,1,0.7,2.3,0.6,3.5c0,0.5,0.7,0.5,0.8,0c0.1-1.7-0.1-3.7-1.6-4.8
								c-1.3-0.9-3.1-0.5-3.7,1C32.7,609.8,33.3,610.2,33.5,609.8L33.5,609.8z"/>
						</g>
					</g>
					<g>
						<g>
							<path d="M25.2,588.4c-0.2,4.7-0.9,9.3-1.9,13.9c-0.1,0.5,0.6,0.7,0.7,0.2c1.1-4.7,1.7-9.3,2-14.1
								C26,587.9,25.2,587.9,25.2,588.4L25.2,588.4z"/>
						</g>
					</g>
					<g>
						<g>
							<path d="M27.5,592.2c-0.4,3.3-1,7-0.1,10.3c0.7,2.8,2.8,4.9,4.7,7c0.3,0.3,0.9-0.2,0.5-0.5c-1.9-1.9-3.8-4-4.5-6.6
								c-0.8-3.1-0.3-6.8,0.1-9.9C28.3,592,27.6,591.8,27.5,592.2L27.5,592.2z"/>
						</g>
					</g>
					<g>
						<g>
							<path d="M30.9,614.6c0.2-0.1,0.4-0.2,0.7-0.3c0.4-0.2,0.1-0.9-0.4-0.6c-0.2,0.1-0.4,0.2-0.7,0.3
								C30.1,614.1,30.4,614.8,30.9,614.6L30.9,614.6z"/>
						</g>
					</g>
					<g>
						<g>
							<path d="M28.2,591.9c0.5,4.3,2,28.3,11.5,22.3c0.4-0.3,0-0.9-0.4-0.6c-5.7,3.6-8.2-7.1-8.8-10c-0.8-3.8-1.1-7.8-1.5-11.7
								C28.9,591.4,28.2,591.4,28.2,591.9L28.2,591.9z"/>
						</g>
					</g>
					<g>
						<g>
							<path d="M46.6,328.1c-0.8,18.1-1.1,36.2-2.7,54.2c-1.4,15.7-4.8,31.1-8.2,46.4c-4,18.2-5.4,36.8-6.9,55.3
								c-1.5,18-2.7,36-3.7,54c0,0.5,0.7,0.5,0.8,0c1.6-29.6,3.5-59.3,7.1-88.7c2.4-20.3,8.6-39.9,11-60.2c2.4-20.2,2.6-40.7,3.5-61
								C47.4,327.6,46.6,327.6,46.6,328.1L46.6,328.1z"/>
						</g>
					</g>
					<g>
						<g>
							<path d="M212.2,346.7c12.5,21,23.5,42.9,32.7,65.6c0.2,0.4,0.9,0.2,0.7-0.2c-9.2-22.7-20.2-44.7-32.7-65.7
								C212.6,345.9,211.9,346.3,212.2,346.7L212.2,346.7z"/>
						</g>
					</g>
					<g>
						<g>
							<path d="M246.5,336c6.3,18.5,12.1,37.3,19.6,55.3c3.8,9.1,8.8,17.5,13.5,26.1c4.9,8.9,8.6,18.2,11.8,27.7
								c5.8,17.4,10.3,35.4,19.1,51.6c8.9,16.3,21.1,30.4,33.1,44.4c0.3,0.4,0.8-0.2,0.5-0.5c-12.4-14.4-24.9-28.9-33.8-45.8
								c-8.8-16.8-13.1-35.4-19.3-53.2c-2.7-7.9-5.9-15.6-9.9-23c-4.7-8.7-9.8-17-13.7-26.1c-7.9-18.4-13.8-37.9-20.3-56.8
								C247,335.3,246.3,335.5,246.5,336L246.5,336z"/>
						</g>
					</g>
					<g>
						<g>
							<path d="M244,409.7c3.8,13.9,7.7,28,14.6,40.8c7,13,17.5,23.8,25,36.5c3.8,6.5,7.7,13,10.9,19.7c3.7,7.6,5.3,15.7,8.2,23.6
								c4.6,12.4,10.9,25.6,19.9,35.5c2.8,3.1,5.9,6,8.5,9.3c1.9,2.4,3,5.6,5,7.8c1.7,1.9,4.6,2.5,5.7-0.3c0.2-0.4-0.5-0.6-0.7-0.2
								c-2.1,5.2-6.1-3-6.7-3.9c-0.8-1.3-1.7-2.6-2.7-3.8c-2-2.5-4.2-4.8-6.4-7.1c-6-6.4-10.6-13.4-14.5-21.3c-4-8-7.5-16-10-24.7
								c-2.3-8-5.4-15.3-9.5-22.6c-4-7.2-8.1-14.5-12.7-21.3c-4.7-6.9-10.2-13.2-14.9-20.1c-9.8-14.5-14.6-31.5-19.1-48.2
								C244.6,409,243.9,409.2,244,409.7L244,409.7z"/>
						</g>
					</g>
					<g>
						<path d="M94.2,133.4c1.2,0.7,2.3,1.6,3.2,2.7c0-1.5,1.6-2.5,3-2.9c4.9-1.3,10,0.3,14.7,1.9c1.2,0.4,2.5,0.9,3.5,1.7
							c-0.6-1.1-1.2-2.2-2.1-3.1c-1.2-1.1-2.9-1.5-4.5-1.7c-5.6-0.9-11.4-0.6-16.8,1"/>
						<g>
							<path d="M94,133.7c1.2,0.7,2.2,1.6,3.1,2.7c0.2,0.2,0.6,0.1,0.6-0.2c0.6-2.6,4.8-3.1,6.7-3.1c1.9,0,3.8,0.4,5.7,0.9
								c2.8,0.7,5.9,1.6,8.3,3.2c0.3,0.2,0.7-0.2,0.5-0.5c-4.3-7.9-16.5-5.9-23.8-3.9c-0.5,0.1-0.3,0.8,0.2,0.7
								c5.6-1.5,12.1-2.2,17.8-0.8c1.5,0.1,2.6,0.8,3.4,2c0.8,1.4,1.2,1.8,1.2,1.2c0,0-1.1-0.6-1.3-0.6c-2.3-0.6-4.6-1.6-6.9-2.2
								c-3.2-0.8-7.3-1.4-10.4,0.2c0,0-2.1,1.6-1.8,1.6c-0.7,0-2.2-1.4-2.9-1.8C93.9,132.8,93.6,133.5,94,133.7L94,133.7z"/>
						</g>
					</g>
					<g>
						<g>
							<path d="M103.2,129.4c2.5-0.2,4.8,0.1,7.2,0.9c0.5,0.1,0.7-0.6,0.2-0.7c-2.4-0.8-4.9-1.1-7.4-0.9
								C102.7,128.7,102.7,129.5,103.2,129.4L103.2,129.4z"/>
						</g>
					</g>
					<g>
						<g>
							<path d="M98.8,138.2c1,2.4,2.3,4.5,4.1,6.3c0.3,0.4,0.9-0.2,0.5-0.5c-1.7-1.8-3-3.8-3.9-6C99.3,137.6,98.6,137.7,98.8,138.2
								L98.8,138.2z"/>
						</g>
					</g>
					<g>
						<g>
							<path d="M115.2,138.3c0.3,1.5,0.2,3-0.2,4.5c-0.1,0.5,0.6,0.7,0.7,0.2c0.4-1.6,0.5-3.3,0.2-4.9
								C115.9,137.7,115.1,137.9,115.2,138.3L115.2,138.3z"/>
						</g>
					</g>
					<g>
						<path d="M144.2,133.3c-0.4,2-0.7,3.9-1.1,5.9c0.8-0.3,1.4-1,2-1.6c3-3.1,7.2-4.7,11.4-5c4.2-0.3,8.5,0.5,12.6,1.8
							c-0.2-1.3-1.2-2.4-2.4-3.1c-1.2-0.6-2.6-0.9-3.9-1c-3.6-0.3-7.2,0.5-10.7,1.2c-2.8,0.6-5.8,1.3-7.7,3.5"/>
						<g>
							<path d="M143.8,133.2c-0.4,2-0.7,3.9-1.1,5.9c-0.1,0.3,0.3,0.6,0.6,0.4c3.6-2.4,5.7-5,10.2-6.1c5.2-1.2,10.5-0.2,15.5,1.3
								c0.3,0.1,0.6-0.2,0.5-0.5c-1.6-4.3-6.2-4.6-10.3-4.3c-5,0.3-11.3,1.2-15,4.8c-0.3,0.3,0.2,0.9,0.5,0.5
								c3.7-3.5,11.4-4.8,16.3-4.6c1.4,0,4.5,0,5.5,1c2,1.8,0.5,1.5-0.8,1.4c-2.1,0-4.3-0.8-6.4-0.9c-3.4-0.1-6.8,0.4-9.8,1.9
								c-1.5,0.7-2.7,1.7-4,2.7c-1.1,0.8-1.2,1.4-1.5,0.3c-0.2-0.7,0.6-3,0.7-3.7C144.6,132.9,143.9,132.7,143.8,133.2L143.8,133.2z
								"/>
						</g>
					</g>
					<g>
						<g>
							<path d="M148,137.4c-0.6,0.8,0,1.6,0.4,2.3c0.7,1,1.5,1.9,2.4,2.6c0.4,0.3,0.9-0.2,0.5-0.5c-0.6-0.5-1.1-1-1.6-1.5
								c-0.2-0.3-1.6-1.9-1.3-2.3C148.9,137.6,148.3,137.1,148,137.4L148,137.4z"/>
						</g>
					</g>
					<g>
						<g>
							<path d="M167.2,136.3c-0.1,1.7-0.6,3.4-1.4,4.9c-0.2,0.4,0.4,0.8,0.6,0.4c0.8-1.7,1.3-3.4,1.5-5.3
								C168,135.8,167.3,135.8,167.2,136.3L167.2,136.3z"/>
						</g>
					</g>
					<g>
						<g>
							<path d="M154,143.9c-0.1,0-0.3,0-0.4,0c0,0.3,0,0.5,0,0.8c2.3-0.2,4.6-0.2,7,0c0.5,0,0.5-0.7,0-0.8c-2.3-0.2-4.6-0.3-7,0
								c-0.5,0-0.5,0.8,0,0.8c0.1,0,0.3,0,0.4,0C154.5,144.6,154.5,143.9,154,143.9L154,143.9z"/>
						</g>
					</g>
					<g>
						<g>
							<path d="M103.8,144.5c-0.6,0.1-1.2,0.1-1.8,0.2c-0.4,0-0.5,0.6-0.1,0.7c3.7,0.9,7.5,1.1,11.3,0.6c0.5-0.1,0.3-0.8-0.2-0.7
								c-3.7,0.5-7.3,0.3-10.9-0.6c0,0.2-0.1,0.5-0.1,0.7c0.6-0.1,1.2-0.1,1.8-0.2C104.3,145.2,104.3,144.5,103.8,144.5L103.8,144.5
								z"/>
						</g>
					</g>
					<g>
						<g>
							<path d="M147.5,130.3c2-1.1,4.1-1.8,6.4-1.9c0.5,0,0.5-0.8,0-0.7c-2.4,0.1-4.7,0.8-6.8,2
								C146.7,129.9,147.1,130.6,147.5,130.3L147.5,130.3z"/>
						</g>
					</g>
					<g>
						<g>
							<path d="M96.5,119.1c5.3,2.3,10.7,4.5,16.6,4.5c0.5,0,0.5-0.7,0-0.8c-5.8,0-11-2.1-16.2-4.4C96.4,118.3,96,119,96.5,119.1
								L96.5,119.1z"/>
						</g>
					</g>
					<g>
						<g>
							<path d="M145.3,125.1c6.8-1.6,13.9-2.7,20-6.3c0.4-0.2,0-0.9-0.4-0.6c-6,3.5-13.1,4.6-19.8,6.2
								C144.6,124.5,144.8,125.2,145.3,125.1L145.3,125.1z"/>
						</g>
					</g>
					<g>
						<g>
							<path d="M107.3,136.7c0,1.8,1.2,6.7,3.9,6.2c1.3-0.2,1.4-1.7,1.4-2.7c0-1.6-0.5-3.1-1.3-4.4c-0.3-0.4-0.9,0-0.6,0.4
								c0.5,0.8,0.9,1.6,1.1,2.5c0.2,0.8,0.6,3.8-1.2,3.4c-1-0.2-1.5-1.8-1.8-2.6c-0.4-0.9-0.6-1.8-0.6-2.8
								C108,136.2,107.3,136.2,107.3,136.7L107.3,136.7z"/>
						</g>
					</g>
					<g>
						<g>
							<path d="M156.9,135.6c0.1,1.2,0.3,2.5,1.1,3.5c0.6,0.8,1.7,1.4,2.7,0.9c1.8-0.8,1.9-4.9,0.8-6.2c-0.1-0.1-0.2-0.2-0.4-0.2
								c0,0-0.1,0-0.1,0c-0.1,0-0.2,0.1-0.3,0.3c0,0,0,0.1,0,0.1c-0.1,0.5,0.6,0.7,0.7,0.2c-0.1,0.1-0.1,0.1-0.2,0.2
								c-0.1-0.1-0.3-0.1-0.4-0.2c0.7,1,0.7,3.5,0.1,4.5c-0.8,1.2-2.1,0.5-2.7-0.5c-0.5-0.8-0.6-1.7-0.7-2.6
								C157.6,135.1,156.9,135.1,156.9,135.6L156.9,135.6z"/>
						</g>
					</g>
				</g>
			</g>
			<path class="st28" d="M121.6,193.6c0,0-1,29.5-4.3,33.5c0,0,5.2-0.4,12.9-6.3c0,0,5.5-3.1,5.1-21
				C135.4,199.9,132.3,201.3,121.6,193.6z"/>
			<path class="st28" d="M171.1,179.2l2.9-2.2l1,16.3c0,0,2.1,21.1-0.9,22.9C174.1,216.2,168.2,207.3,171.1,179.2z"/>
			<path class="st28" d="M198,230l6,3c0,0-6-10-2-38l2-11c0,0-4.5,8-4.3,15.5L198,230z"/>
			<path class="st28" d="M85.8,158.5c0,0,7.5,50.8,1.9,77.2c0,0-4.9,4.5-7.3,4.9C80.4,240.6,89.5,217,85.8,158.5z"/>
		</g>
	</g>
</g>
</svg>
