<?xml version="1.0" encoding="utf-8"?>
<!-- Generator: Adobe Illustrator 21.0.2, SVG Export Plug-In . SVG Version: 6.00 Build 0)  -->
<svg version="1.1" id="圖層_1" xmlns="http://www.w3.org/2000/svg" xmlns:xlink="http://www.w3.org/1999/xlink" x="0px" y="0px"
	 viewBox="0 0 1440 965" style="enable-background:new 0 0 1440 965;" xml:space="preserve">
<style type="text/css">
	.st0{fill:#FFFFFF;}
</style>
<g>
	<g>
		<path class="st0" d="M295,289.5c3.2,0,3.2-5,0-5C291.8,284.5,291.8,289.5,295,289.5L295,289.5z"/>
	</g>
</g>
<g>
	<g>
		<path class="st0" d="M99,97.5c3.2,0,3.2-5,0-5C95.8,92.5,95.8,97.5,99,97.5L99,97.5z"/>
	</g>
</g>
<g>
	<g>
		<path class="st0" d="M147,557.5c3.2,0,3.2-5,0-5C143.8,552.5,143.8,557.5,147,557.5L147,557.5z"/>
	</g>
</g>
<g>
	<g>
		<path class="st0" d="M87,829.5c3.2,0,3.2-5,0-5C83.8,824.5,83.8,829.5,87,829.5L87,829.5z"/>
	</g>
</g>
<g>
	<g>
		<path class="st0" d="M255,949.5c3.2,0,3.2-5,0-5C251.8,944.5,251.8,949.5,255,949.5L255,949.5z"/>
	</g>
</g>
<g>
	<g>
		<path class="st0" d="M1281,41.5c3.2,0,3.2-5,0-5C1277.8,36.5,1277.8,41.5,1281,41.5L1281,41.5z"/>
	</g>
</g>
<g>
	<g>
		<path class="st0" d="M1373,207.5c3.2,0,3.2-5,0-5C1369.8,202.5,1369.8,207.5,1373,207.5L1373,207.5z"/>
	</g>
</g>
<g>
	<g>
		<path class="st0" d="M845,101.5c3.2,0,3.2-5,0-5C841.8,96.5,841.8,101.5,845,101.5L845,101.5z"/>
	</g>
</g>
<g>
	<g>
		<path class="st0" d="M1059,511.5c3.2,0,3.2-5,0-5C1055.8,506.5,1055.8,511.5,1059,511.5L1059,511.5z"/>
	</g>
</g>
<g>
	<g>
		<path class="st0" d="M1399,701.5c3.2,0,3.2-5,0-5C1395.8,696.5,1395.8,701.5,1399,701.5L1399,701.5z"/>
	</g>
</g>
<g>
	<g>
		<path class="st0" d="M1337,955.5c3.2,0,3.2-5,0-5C1333.8,950.5,1333.8,955.5,1337,955.5L1337,955.5z"/>
	</g>
</g>
<g>
	<g>
		<path class="st0" d="M921,823.5c3.2,0,3.2-5,0-5C917.8,818.5,917.8,823.5,921,823.5L921,823.5z"/>
	</g>
</g>
<g>
	<g>
		<path class="st0" d="M567,615.5c3.2,0,3.2-5,0-5C563.8,610.5,563.8,615.5,567,615.5L567,615.5z"/>
	</g>
</g>
<g>
	<g>
		<path class="st0" d="M615,295.5c3.2,0,3.2-5,0-5C611.8,290.5,611.8,295.5,615,295.5L615,295.5z"/>
	</g>
</g>
<g>
	<g>
		<path class="st0" d="M176.1,233.6c0.6,0,3.3-1.2,1.9-1.2C177.3,232.4,174.6,233.6,176.1,233.6L176.1,233.6z"/>
	</g>
</g>
<g>
	<g>
		<path class="st0" d="M54.5,190c1.3,0,3-1.9,1.1-1.9C54.3,188,52.5,190,54.5,190L54.5,190z"/>
	</g>
</g>
<g>
	<g>
		<path class="st0" d="M124.9,456.1c1.7,0,2.2-2.1,0.3-2.1C123.5,453.9,122.9,456.1,124.9,456.1L124.9,456.1z"/>
	</g>
</g>
<g>
	<g>
		<path class="st0" d="M1182.4,277.7c1,0,3.1-1.5,1.2-1.5C1182.6,276.3,1180.5,277.7,1182.4,277.7L1182.4,277.7z"/>
	</g>
</g>
<g>
	<g>
		<path class="st0" d="M252.4,43.8c1,0,3.1-1.5,1.2-1.5C252.6,42.2,250.5,43.8,252.4,43.8L252.4,43.8z"/>
	</g>
</g>
<g>
	<g>
		<path class="st0" d="M296.4,835.7c0.9,0,3.1-1.3,1.2-1.3C296.7,834.3,294.5,835.7,296.4,835.7L296.4,835.7z"/>
	</g>
</g>
<g>
	<g>
		<path class="st0" d="M1100.5,919.9c1.2,0,3-1.8,1.1-1.8C1100.4,918.1,1098.5,919.9,1100.5,919.9L1100.5,919.9z"/>
	</g>
</g>
<g>
	<g>
		<path class="st0" d="M1314.9,818c1.6,0,2.2-2.1,0.3-2.1C1313.5,816,1312.9,818,1314.9,818L1314.9,818z"/>
	</g>
</g>
<g>
	<g>
		<path class="st0" d="M1030.4,669.8c1.1,0,3.1-1.6,1.1-1.6C1030.5,668.2,1028.5,669.8,1030.4,669.8L1030.4,669.8z"/>
	</g>
</g>
<g>
	<g>
		<path class="st0" d="M1424.4,799.7c0.9,0,3.1-1.3,1.2-1.3C1424.7,798.3,1422.5,799.7,1424.4,799.7L1424.4,799.7z"/>
	</g>
</g>
<g>
	<g>
		<path class="st0" d="M1436.4,875.6c0.9,0,3.1-1.3,1.2-1.3C1436.8,874.4,1434.5,875.6,1436.4,875.6L1436.4,875.6z"/>
	</g>
</g>
<g>
	<g>
		<path class="st0" d="M1348.4,461.8c1,0,3.1-1.6,1.1-1.6C1348.5,460.2,1346.5,461.8,1348.4,461.8L1348.4,461.8z"/>
	</g>
</g>
<g>
	<g>
		<path class="st0" d="M1150.4,65.7c0.9,0,3.1-1.4,1.2-1.4C1150.7,64.3,1148.5,65.7,1150.4,65.7L1150.4,65.7z"/>
	</g>
</g>
<g>
	<g>
		<path class="st0" d="M904.5,385.9c1.2,0,3-1.8,1.1-1.8C904.3,384.1,902.5,385.9,904.5,385.9L904.5,385.9z"/>
	</g>
</g>
<g>
	<g>
		<path class="st0" d="M1220.9,610c1.6,0,2.2-2.1,0.3-2.1C1219.5,608,1218.9,610,1220.9,610L1220.9,610z"/>
	</g>
</g>
<g>
	<g>
		<path class="st0" d="M110.5,185.3c0.3,0,1.6-0.6,0.9-0.6C111.1,184.7,109.8,185.3,110.5,185.3L110.5,185.3z"/>
	</g>
</g>
<g>
	<g>
		<path class="st0" d="M118.7,377.3c0.4,0,1.6-0.7,0.6-0.7C118.9,376.7,117.7,377.3,118.7,377.3L118.7,377.3z"/>
	</g>
</g>
<g>
	<g>
		<path class="st0" d="M48.5,619.3c0.3,0,1.6-0.5,1-0.5C49.2,618.7,47.8,619.3,48.5,619.3L48.5,619.3z"/>
	</g>
</g>
<g>
	<g>
		<path class="st0" d="M210.5,755.3c0.3,0,1.6-0.6,0.9-0.6C211.2,754.7,209.8,755.3,210.5,755.3L210.5,755.3z"/>
	</g>
</g>
<g>
	<g>
		<path class="st0" d="M444.9,547.5c0.8,0,1.1-1,0.1-1C444.3,546.5,443.9,547.5,444.9,547.5L444.9,547.5z"/>
	</g>
</g>
<g>
	<g>
		<path class="st0" d="M480.9,633.5c0.8,0,1.1-1,0.1-1C480.3,632.5,479.9,633.5,480.9,633.5L480.9,633.5z"/>
	</g>
</g>
<g>
	<g>
		<path class="st0" d="M450.7,73.4c0.5,0,1.5-0.8,0.6-0.8C450.8,72.6,449.7,73.4,450.7,73.4L450.7,73.4z"/>
	</g>
</g>
<g>
	<g>
		<path class="st0" d="M142.7,19.4c0.5,0,1.6-0.7,0.6-0.7C142.8,18.6,141.7,19.4,142.7,19.4L142.7,19.4z"/>
	</g>
</g>
<g>
	<g>
		<path class="st0" d="M1436.9,29.5c0.8,0,1.1-1,0.1-1C1436.2,28.5,1435.9,29.5,1436.9,29.5L1436.9,29.5z"/>
	</g>
</g>
<g>
	<g>
		<path class="st0" d="M1294.7,155.5c0.6,0,1.5-0.9,0.5-0.9C1294.7,154.5,1293.8,155.5,1294.7,155.5L1294.7,155.5z"/>
	</g>
</g>
<g>
	<g>
		<path class="st0" d="M1420.7,521.4c0.5,0,1.6-0.8,0.6-0.8C1420.8,520.6,1419.7,521.4,1420.7,521.4L1420.7,521.4z"/>
	</g>
</g>
<g>
	<g>
		<path class="st0" d="M1416.5,415.3c0.3,0,1.6-0.6,0.9-0.6C1417.2,414.7,1415.8,415.3,1416.5,415.3L1416.5,415.3z"/>
	</g>
</g>
<g>
	<g>
		<path class="st0" d="M1232.7,853.4c0.5,0,1.6-0.7,0.6-0.7C1232.8,852.6,1231.7,853.4,1232.7,853.4L1232.7,853.4z"/>
	</g>
</g>
</svg>
