<?xml version="1.0" encoding="utf-8"?>
<!-- Generator: Adobe Illustrator 21.1.0, SVG Export Plug-In . SVG Version: 6.00 Build 0)  -->
<svg version="1.1" id="图层_1" xmlns="http://www.w3.org/2000/svg" xmlns:xlink="http://www.w3.org/1999/xlink" x="0px" y="0px"
	 viewBox="0 0 843 776" style="enable-background:new 0 0 843 776;" xml:space="preserve">
<style type="text/css">
	.st0{fill:#FFFFFF;}
	.st1{fill:none;}
	.st2{fill:none;stroke:#999999;stroke-miterlimit:10;}
	.st3{fill:#CCCCCC;}
	.st4{clip-path:url(#SVGID_2_);}
	.st5{fill:#242F43;}
	.st6{fill:#FFE1CC;}
	.st7{fill:#49709E;}
	.st8{fill:#42210B;}
	.st9{fill:#2B456B;}
	.st10{opacity:0.69;fill:#FFFFFF;}
	.st11{opacity:0.66;fill:#FFFFFF;}
	.st12{fill:#FFE98C;}
	.st13{opacity:0.55;fill:#D8C9BF;}
	.st14{fill:#A59B95;}
	.st15{opacity:0.55;clip-path:url(#SVGID_2_);fill:#D8C9BF;}
	.st16{clip-path:url(#SVGID_4_);}
	.st17{clip-path:url(#SVGID_6_);}
	.st18{fill:#F2F2F2;}
	.st19{clip-path:url(#SVGID_8_);}
	.st20{clip-path:url(#SVGID_10_);}
	.st21{opacity:0.1091;}
	.st22{opacity:0.41;}
	.st23{fill:#B3B3B3;}
	.st24{clip-path:url(#SVGID_12_);}
	.st25{clip-path:url(#SVGID_14_);}
	.st26{clip-path:url(#SVGID_16_);}
	.st27{fill:#FCE2CB;}
	.st28{fill:#C4C3C2;}
	.st29{fill:#C67989;}
	.st30{fill:#B7A99E;}
	.st31{fill:#6D6660;}
	.st32{fill:#723522;}
	.st33{fill:#633B1F;stroke:#000000;stroke-miterlimit:10;}
</style>
<g>
	<g>
		<defs>
			<path id="SVGID_3_" d="M-120,775h-194c-20.9,0-38-17.1-38-38V38c0-20.9,17.1-38,38-38h194c20.9,0,38,17.1,38,38v699
				C-82,757.9-99.1,775-120,775z"/>
		</defs>
		<clipPath id="SVGID_2_">
			<use xlink:href="#SVGID_3_"  style="overflow:visible;"/>
		</clipPath>
		<g class="st4">
			<defs>
				<rect id="SVGID_5_" x="-388" y="-1" width="408" height="777"/>
			</defs>
			<clipPath id="SVGID_4_">
				<use xlink:href="#SVGID_5_"  style="overflow:visible;"/>
			</clipPath>
		</g>
	</g>
</g>
<g>
	<path class="st0" d="M797.5,772.4h-751c-19.5,0-35.5-16-35.5-35.5V39.5C11,20,27,4,46.5,4h751C817,4,833,20,833,39.5v697.4
		C833,756.5,817,772.4,797.5,772.4z"/>
	<rect x="285.7" y="11.9" class="st1" width="410.5" height="768.4"/>
	<rect x="59.6" y="49.1" class="st2" width="511.1" height="680.2"/>
	<rect x="59.6" y="75.4" class="st3" width="521.5" height="108.1"/>
</g>
<g>
	<defs>
		<path id="SVGID_13_" d="M730,772.4H451c-20.9,0-38-17.1-38-38V42c0-20.9,17.1-38,38-38h279c20.9,0,38,17.1,38,38v692.4
			C768,755.3,750.9,772.4,730,772.4z"/>
	</defs>
	<clipPath id="SVGID_6_">
		<use xlink:href="#SVGID_13_"  style="overflow:visible;"/>
	</clipPath>
	<g class="st17">
		<defs>
			<rect id="SVGID_15_" x="397.7" y="3" width="404.5" height="759.5"/>
		</defs>
		<clipPath id="SVGID_8_">
			<use xlink:href="#SVGID_15_"  style="display:none;overflow:visible;"/>
		</clipPath>
		<g class="st19">
			<path class="st3" d="M532.6,850.2l-8-50.5c0,0-17.3-39.9-12-51.9c0,0-29.3-6.6-26.6-30.6c0,0,8-41.2,8-53.2v-16l-14.6-1.3
				c0,0-13.3-13.3-13.3-22.6l-2.7-6.6c0,0,6.6-38.6,4-50.5v-10.6c0,0-8-33.2-5.3-41.2l4-9.3c0,0,4-62.5,13.3-81.1l6.6-14.6
				c0,0-8-30.6-2.7-67.8c0,0,1.3-57.2,4-70.5l5.3-17.3l55.8-33.2l4-2.7c0,0,6.6-9.3,13.3-9.3c0,0,5.3-16,5.3-27.9
				c0,0-14.6-16-17.3-19.9c0,0-19.9-9.3-16-23.9c0,0-6.6-13.3-6.6-17.3l-6.6,6.6c0,0,2.7-18.6,1.3-19.9c0,0-4,0-2.7,9.3
				c0,0-5.3-27.9,0-37.2c0,0-5.3,8-5.3,12c0,0,0-17.3,6.6-22.6c0,0,6.6-13.3,10.6-16c0,0,2.7-9.3,10.6-10.6c0,0,0-8,5.3-12
				c0,0-2.7,9.3-2.7,10.6c0,0,8-8,25.3-12l-2.7,2.7c0,0,23.9-4,33.2,0l17.3,9.3c0,0,16,8,16,12l8,1.3l-5.3,2.7
				c0,0,17.3,21.3,14.6,38.6c0,0,2.7,12,5.3,13.3c0,0-9.3-1.3-13.3-8c0,0,1.3,8,6.6,10.6h4l-4,2.7c0,0,2.7,2.7,6.6,2.7l-8,2.7
				l5.3,5.3c0,0-6.6,0-6.6-1.3c0,0,2.7,6.6,0,12c0,0-4-13.3-6.6-12l-1.3,5.3c0,0,9.3,17.3-12,30.6c0,0-5.3,13.3-10.6,18.6
				c0,0-1.3,26.6,13.3,33.2c0,0,9.3-2.7,14.6,2.7c0,0,16,12,35.9,17.3c0,0,22.6,1.3,29.3,16c0,0,13.3,29.3,14.6,73.1
				c0,0,9.3,23.9,13.3,59.8c0,0,14.6,37.2,9.3,53.2c0,0,10.6,12-10.6,39.9c0,0-12,19.9-10.6,43.9c0,0,0,16-8,25.3
				c0,0-5.3,9.3-6.6,13.3c0,0-2.7,2.7-5.3,4c0,0-2.7,8-6.6,10.6l-5.3,17.3l6.6,5.3c0,0,5.3,8,0,23.9c0,0-4,38.6,5.3,51.9l5.3,31.9
				c0,0,6.6,0,0,12s-16,21.3-21.3,25.3c0,0,2.7,33.2,5.3,38.6c0,0,1.3,21.3-2.7,25.3l4,41.2l-55.8,8c0,0-8-41.2-5.3-51.9
				c0,0-13.3-25.3-13.3-61.2c0,0-14.6-10.6-14.6-19.9c0,0-6.6-74.5-14.6-83.8c0,0,0,47.9,5.3,63.8c0,0,10.6,4-2.7,35.9
				c0,0-13.3,12-21.3,13.3c0,0,0,38.6,4,50.5c0,0,16,53.2,12,74.5L532.6,850.2z"/>
			<path class="st0" d="M503.3,850.2l-8-50.5c0,0-17.3-39.9-12-51.9c0,0-29.3-6.6-26.6-30.6c0,0,8-41.2,8-53.2v-16l-14.6-1.3
				c0,0-13.3-13.3-13.3-22.6l-2.7-6.6c0,0,6.6-38.6,4-50.5v-10.6c0,0-8-33.2-5.3-41.2l4-9.3c0,0,4-62.5,13.3-81.1l6.6-14.6
				c0,0-8-30.6-2.7-67.8c0,0,1.3-57.2,4-70.5l5.3-17.3l55.8-33.2l4-2.7c0,0,6.6-9.3,13.3-9.3c0,0,5.3-16,5.3-27.9
				c0,0-14.6-16-17.3-19.9c0,0-19.9-9.3-16-23.9c0,0-6.6-13.3-6.6-17.3l-6.6,6.6c0,0,2.7-18.6,1.3-19.9c0,0-4,0-2.7,9.3
				c0,0-5.3-27.9,0-37.2c0,0-5.3,8-5.3,12c0,0,0-17.3,6.6-22.6c0,0,6.6-13.3,10.6-16c0,0,2.7-9.3,10.6-10.6c0,0,0-8,5.3-12
				c0,0-2.7,9.3-2.7,10.6c0,0,8-8,25.3-12l-2.7,2.7c0,0,23.9-4,33.2,0l17.3,9.3c0,0,16,8,16,12l8,1.3l-5.3,2.7
				c0,0,17.3,21.3,14.6,38.6c0,0,2.7,12,5.3,13.3c0,0-9.3-1.3-13.3-8c0,0,1.3,8,6.6,10.6h4l-4,2.7c0,0,2.7,2.7,6.6,2.7l-8,2.7
				l5.3,5.3c0,0-6.6,0-6.6-1.3c0,0,2.7,6.6,0,12c0,0-4-13.3-6.6-12l-1.3,5.3c0,0,9.3,17.3-12,30.6c0,0-5.3,13.3-10.6,18.6
				c0,0-1.3,26.6,13.3,33.2c0,0,9.3-2.7,14.6,2.7c0,0,16,12,35.9,17.3c0,0,22.6,1.3,29.3,16c0,0,13.3,29.3,14.6,73.1
				c0,0,9.3,23.9,13.3,59.8c0,0,14.6,37.2,9.3,53.2c0,0,10.6,12-10.6,39.9c0,0-12,19.9-10.6,43.9c0,0,0,16-8,25.3
				c0,0-5.3,9.3-6.6,13.3c0,0-2.7,2.7-5.3,4c0,0-2.7,8-6.6,10.6l-5.3,17.3l6.6,5.3c0,0,5.3,8,0,23.9c0,0-4,38.6,5.3,51.9l5.3,31.9
				c0,0,6.6,0,0,12s-16,21.3-21.3,25.3c0,0,2.7,33.2,5.3,38.6c0,0,1.3,21.3-2.7,25.3l4,41.2l-55.8,8c0,0-8-41.2-5.3-51.9
				c0,0-13.3-25.3-13.3-61.2c0,0-14.6-10.6-14.6-19.9c0,0-6.6-74.5-14.6-83.8c0,0,0,47.9,5.3,63.8c0,0,10.6,4-2.7,35.9
				c0,0-13.3,12-21.3,13.3c0,0,0,38.6,4,50.5c0,0,16,53.2,12,74.5L503.3,850.2z"/>
			<path class="st27" d="M541.4,181.2c0,0,1.1,13.2-3.9,28.1c0,0-7.9,20.8-7.9,22.8l4,3c0,0,11.9,13.9,34.7,11.9
				c0,0,15.9-1,34.7-19.8l2-1l3-13.9c0,0-10.9,0-15.9-19.8c0,0-2-18.8,0-20.8L541.4,181.2z"/>
			<path class="st29" d="M540.5,177.5c0,0,1,5.9,1,8.9c0,0,12.9,15.9,23.8,15.9c0,0,8.7-0.2,26.2-16.5l-0.4-14.3L540.5,177.5z"/>
			<path class="st27" d="M438.4,567.2c0,0,2,28.8-4,49.6c0,0-1,4,4,8.9c0,0-2,0,5,12.9l5.9,7.9l15.9,1l1-14.9c0,0-4-30.7-3-40.7
				v-19.8c0,0-2,3-8.9,2C454.2,574.1,441.3,572.1,438.4,567.2z"/>
			<path class="st30" d="M463.1,563.2c0,0,0,26.8,0,31.7c0,0,1,30.7,3,41.6c0,0-2,46.6-5,55.5l-4,22.8c0,0-7.9,19.8,21.8,31.7
				c0,0,25.8,9.9,50.6,4c0,0,9.9-1,18.8-4c0,0,23.8-6.9,25.8-24.8c0,0,5.9-20.8-2-24.8c0,0-6.9-34.7-5-53.5v-9.9c0,0,3,2,6.9,20.8
				c0,0,5.9,32.7,6.9,47.6v8.9c0,0-3,12.9,11.9,23.8c0,0,15.1,17.1,37.3,15.5c0,0,20.2,0.4,36.1-14.5c0,0,12.9-8.9,20.8-29.7
				c0,0,3-5.9-1-5.9l-1-3l-2-11.9l-2-8.9l-3-12.9l-3-13.9l-1-12.9c0,0-1-13.9,1-22.8l2-8.9c0,0,1-4-1-7.9c0,0-1-2-1-4l-4-3
				c0,0-13.2-7.6-15-15.7c0,0-4.8-17-5.8-23C649.5,545.4,463.1,563.2,463.1,563.2z"/>
			<path class="st0" d="M544.4,576.1c0,0,8.9,2,16.9,2c0,0,13.9-1,13.9-2L592,469l-35.7-25.8l-24.8,41.6L544.4,576.1z"/>
			<path class="st31" d="M536.5,210.2c0,0-7.9-1-12.9,8.9c-5,9.9,0,0,0,0l-19.8,11.9l-30.7,17.8c0,0-12.9,4-11.9,11.9l-3,12.9
				c0,0-3,15.9-3,21.8l-1,40.7c0,0-1,22.8-2,26.8c0,0-1,21.8,1,27.8l3,18.8l-6.9,16.9c0,0-6.9,25.8-8.9,33.7c0,0-4,35.7-3,46.6
				c0,0-7.9,9.9-4,23.8l3,18.8c0,0,0,5,2,6.9v8.9c0,0,0,4,5.9,5.9c0,0,12.1,5.5,16.5,2.7l2.4-1.7v-9.9c0,0,5.9,5.9,22.8,10.9
				c0,0,15.9,5,22.8,5l5,1c0,0,11.9,12.9,15.9,14.9c0,0,12.9,8.9,16.9-2c0,0,2-20.8,2-25.8c0,0-1-59.5,0-63.5c1-4,1-4,1-4l-1,4
				c0,0,6.9-35.7,12.9-38.7c0,0,19.8,46.6,14.9,71.4c0,0-2,19.8-4,23.8c0,0-3,6.9-2,11.9l1,3l7.9,15.9c0,0,5,9.9,5.9,9.9
				c0,0,3,1,7.9-4l13.9-14.9l1,1h1c0,0,2,0,3,1c0,0,7.9,4,8.9,3c0,0,4-1,11.9-9.9c0,0,16.9-15.9,17.8-19.8l1-2v-4
				c0,0,19,16.7,20.9,17.8c0,0,3.9,2.1,4.9-1.9l2-6.9c0,0,5-2,5.9-4l1-1c0,0,2-7.9,5.9-12.9l5-9.9c0,0,3-7.9,3-12.9
				c0,0,0-18.8,2-21.8c0,0,4-16.9,8.9-24.8l9.9-16.9c0,0,7.9-14.9,0-22.8c0,0,5.9-11.9-3-33.7c0,0-5-16.9-5.9-19.8
				c0,0-5.9-36.7-6.9-37.7c0,0-4-17.8-6.9-22.8c0,0-3-33.7-4-38.7c0,0-5-29.7-15.9-40.7c0,0-3-5-24.8-8.9c0,0-19.8-5.9-29.7-13.9
				c0,0-12.9-9.9-18.8-5l4,2l-3.5,12.4l-6.9,33.7c0,0-11.9,46.6-14.9,49.6c0,0-9.9,27.8-10.9,27.8l-9.9,21.8l-1,2l-4-7.9L543,323.8
				c0,0-6.9-19.8-6.9-28.8c0,0-1-23.8-2-25.8l-5-21.8c0,0-2-9.9,1-17.8C530.1,229.6,537,210.7,536.5,210.2z"/>
			<path class="st27" d="M509.7,136.9c0,0-7.9,5,5.9,18.8l8.9,5.9c0,0,14.9,18.8,26.8,28.8c0,0,5,5,12.9,6.9c0,0,2,3,12.9-6.9
				l11.9-10.9c0,0,11.9-14.9,13.9-21.8c0,0,8.9-5.9,12.9-16.9c0,0,1-13.9-4-13.9l-7.9-25.8l-77.3-27.8L509.7,136.9z"/>
			<path class="st29" d="M534,86.8c0,0-8.9,20.8-1,42.6c0,0-9.9-8.9-9.9-25.8V82.8L534,86.8z"/>
			<path class="st29" d="M539.5,98.2c0,0,10.9,28.8,22.8,31.7c0,0-11.9-10.9-10.9-16.9c0,0,9.9,16.9,23.8,18.8c13.9,2,2,0,2,0
				s-18.8-13.9-23.8-24.8L539.5,98.2z"/>
			<path class="st27" d="M597,737.7c0,0,1,39.7,12.9,62.5c0,0,2,49.6,7.9,66.4c0,0,10.9,52.6,13.9,65.4c0,0,8.9,40.7,11.9,58.5
				l2,20.8c0,0,1,10.9,18.8,12.9h7.9v-1l1-1c0,0,14.9,0,15.9,0l-2-16.9l-5.9-54.5l-5-55.5l-4-41.6l-5-54.5c0,0,5-5.9,0-32.7
				c0,0-4-26.8-2-29.7c0,0-9.9,9.9-20.8,10.9C644.6,747.7,616.8,758.6,597,737.7z"/>
			<path class="st33" d="M509.2,118.5c0,0,7.9,16.9,10.9,22.8l-3-17.8c0,0,5,13.9,11.9,22.8c0,0-6.9-23.8-6.9-35.7
				c0,0,4,11.9,6.9,14.9c0,0-6.9-19.8,0-37.7c0,0,20.8,39.7,29.7,40.7c0,0-8.9-8.9-12.9-20.8c0,0,8.9,15.9,28.8,21.8
				c0,0-15.9-15.9-16.9-19.8c0,0,14.9,12.9,30.7,13.9l-10.9-12.9c0,0,4,1,12.9,5.9c0,0,5,3,14.9,2c0,0,2,12.9-2,23.8
				c0,0,9.9-7.9,11.9-18.8c0,0,5.9,5,5.9,10.9c0,0,2,0,1-11.9c0,0,3,2,5.9,2l-5.9-5c0,0,3-1,6.9-3l-5-2l4-4h-4c0,0-6.9-5-7.9-11.9
				c0,0,5.9,8.9,14.9,9.9c0,0-4-5-5-11.9c0,0-1-15.9-3-17.8c0,0-4-14.9-12.9-23.8c0,0,3,1,5.9-2c0,0-5,2-9.9-3c0,0-7.9-7.9-12.9-7.9
				l-17.8-10.9c0,0-13.9-5.9-35.7,1l5-4c0,0-17.8,3-25.8,11.9c0,0,1-8.9,3-9.9c0,0-5,1-5,11.9c0,0-7.9,1-10.9,9.9
				c0,0-7.9,6.9-9.9,15.9c0,0-9.9,9.9-6.9,21.8l4-7.9c0,0-3,20.8,0,34.7l3-8.9c0,0,1,13.9-1,17.8c0,0,3,1,5.9-6.9l1,3
				c0,0,2,10.9,7.9,18.8l2-12.9L509.2,118.5z"/>
			<path class="st27" d="M484,748.6c0,0-5,10.9,6.9,38.7l4,11.9c0,0,6.9,28.8,7.9,43.6c0,0,5,28.8,6.9,46.6l5,62.5l1,60.5l2,2l1,9.9
				c0,0,13.9-3,17.8,0c0,0,3,0,4,5c0,0,10.9-4,11.9-15.9l1-5.9l2-2c0,0-3-2-1-12.9l3-38.7l4-39.7c0,0,4-35.7,3-50.6
				c0,0-1-32.7-8.9-57.5c0,0-5.9-24.8-5.9-32.7c0,0-2-18.8,0-27.8c0,0-18.8,8.9-45.6,5.9C503.8,751.6,485.9,750.6,484,748.6z"/>
			<path class="st27" d="M651.5,550.3c0,0,21.8,18.8,22.8,18.8c0,0-5.9,15.9-5.9,18.8c0,0-9.9-5-12.9-16.9l-1-2l-3-13.9V550.3"/>
			<g>
				<path class="st18" d="M521.6,126c0,0,2.6,3.9,5.8,5.8c0,0,9,3.2,18,0c0,0,2.6-1.3,1.9-5.1c0,0-4.5-3.2-16.7-3.2L521.6,126z"/>
				<path class="st18" d="M576.3,126c0,0-0.6,4.5,5.1,5.8c0,0,9,1.9,14.8,0c0,0,3.9-1.9,5.1-5.8l-2.6-2.6c0,0-7.7-1.3-11.6,0
					L576.3,126z"/>
				<g>
					<g>
						<path d="M529.2,87.2c-0.3-0.4-0.5-0.8-0.8-1.2c-0.3-0.4-0.9,0-0.6,0.4c4.5,7.7,9,15.4,13.6,23c3.7,6.3,7.7,12.3,13.3,17.1
							c0.4,0.3,0.9-0.2,0.5-0.5c-6-5.1-10.1-11.6-14-18.3c-2-3.3-3.9-6.6-5.9-10c-1-1.7-2-3.3-2.9-5c-0.7-1.1-1.3-2.2-2-3.3
							c-0.2-1.3-0.8-1.9-1.8-1.7C528.8,88,529.4,87.6,529.2,87.2L529.2,87.2z"/>
					</g>
				</g>
				<g>
					<g>
						<path d="M543.7,104.1c4.3,8.2,7.9,18.5,15.3,24.5c0.4,0.3,0.9-0.2,0.5-0.5c-7.3-5.9-10.9-16.2-15.2-24.3
							C544.1,103.2,543.4,103.6,543.7,104.1L543.7,104.1z"/>
					</g>
				</g>
				<g>
					<g>
						<path d="M545.5,107.9c7.7,9.9,16.2,20.1,29.4,21.7c0.5,0.1,0.5-0.7,0-0.8c-13-1.5-21.3-11.8-28.8-21.4
							C545.7,107,545.2,107.5,545.5,107.9L545.5,107.9z"/>
					</g>
				</g>
				<g>
					<g>
						<path d="M557.4,109.2c1.2,1.5,2.1,3.8,3.3,5.4c1.1,1.6,2.4,3.2,3.7,4.7c3.1,3.7,6.6,7,10.4,9.9c0.4,0.3,0.9-0.2,0.5-0.5
							c-4-3.1-7.6-6.6-10.8-10.4c-1.8-2.2-3.4-4.4-4.9-6.8c-0.6-1-1-2.4-2.1-2.9c-0.1-0.1-0.3-0.1-0.5,0.1c-0.1,0.1-0.2,0.2-0.2,0.3
							c-0.1,0.2-0.1,0.4,0,0.5c0.1,0.1,0.1,0.2,0.2,0.2C557.1,110.1,557.7,109.6,557.4,109.2L557.4,109.2z"/>
					</g>
				</g>
				<g>
					<g>
						<path d="M556.6,109.2c10.1,8.9,22.4,14.2,35.7,15.5c0.5,0,0.5-0.7,0-0.8c-13.1-1.3-25.3-6.5-35.2-15.3
							C556.8,108.3,556.2,108.8,556.6,109.2L556.6,109.2z"/>
					</g>
				</g>
				<g>
					<g>
						<path d="M556.8,82.9c7.5,5.7,12.6,15.9,17.9,23.5c4.7,6.8,9.6,13.3,15.4,19.2c0.3,0.3,0.9-0.2,0.5-0.5
							c-6.9-7.1-12.6-15.1-18.2-23.3c-4.5-6.6-8.8-14.7-15.3-19.6C556.8,81.9,556.4,82.6,556.8,82.9L556.8,82.9z"/>
					</g>
				</g>
				<g>
					<g>
						<path d="M576.3,110.3c5.5,2,10.5,5.1,16,7.2c2.4,0.9,4.8,1.7,7.3,1.9c2.3,0.3,7.1-0.9,9,0.4c0.4,0.3,0.8-0.4,0.4-0.6
							c-1.2-0.7-2-0.7-3.4-0.7c-4.1,0.2-7.5,0.3-11.6-1.1c-6.1-2.1-11.5-5.7-17.6-7.8C576,109.4,575.8,110.1,576.3,110.3
							L576.3,110.3z"/>
					</g>
				</g>
				<g>
					<g>
						<path d="M585.5,96.4c5.5,6,11.4,11.7,19,14.9c0.2,0.1,8.3,2.9,8.5,2.2c-0.2,0.6-11.7,2.4-13.2,2.7c-0.5,0.1-0.3,0.8,0.2,0.7
							c5-1.1,9.9-2.2,14.9-3.4c0.4-0.1,0.3-0.7-0.1-0.7c-12-0.8-21-8.5-28.8-17C585.7,95.5,585.2,96,585.5,96.4L585.5,96.4z"/>
					</g>
				</g>
				<g>
					<g>
						<path d="M605.6,105.9c5.5,3.4,11.7,5.4,18.2,5.5c2.3,0,4.7,0,1,2.1c-1.3,0.7-2.9,1.1-4.3,1.5c-4.5,1.1-9.1,1.4-13.7,1.6
							c-0.5,0-0.5,0.8,0,0.8c6.7-0.3,17.5-0.1,21.7-6.4c0.1-0.2,0-0.6-0.3-0.6c-7.9,0.8-15.4-0.9-22.2-5.1
							C605.5,105,605.2,105.7,605.6,105.9L605.6,105.9z"/>
					</g>
				</g>
				<g>
					<g>
						<path d="M623.2,114.4c1.4,0.6,3.7,0.8,4.8,1.7c1.1,0.8,0.6-0.1,0.7,0.2c0.1,0.2-3.9,1.6-4.2,1.6c-5.4,1.6-10.9,1.6-16.3,0.4
							c-0.5-0.1-0.7,0.6-0.2,0.7c7.7,1.7,15.4,0.7,22.5-2.8c0.4-0.2,0.1-0.7-0.2-0.7c-2.6-0.3-4.4-0.8-6.7-1.9
							C623.2,113.6,622.8,114.3,623.2,114.4L623.2,114.4z"/>
					</g>
				</g>
				<g>
					<g>
						<path d="M616.8,125.9c2.6,2.7,4.2,6,4.5,9.8c0,0.5,0.8,0.5,0.8,0c-0.3-3.9-2-7.5-4.7-10.3C617,125,616.4,125.6,616.8,125.9
							L616.8,125.9z"/>
					</g>
				</g>
				<g>
					<g>
						<path d="M621.2,119.1c1.7,5.3,1.7,10.6,0.2,16c-0.1,0.5,0.6,0.7,0.7,0.2c1.6-5.5,1.5-10.9-0.2-16.4
							C621.8,118.4,621.1,118.6,621.2,119.1L621.2,119.1z"/>
					</g>
				</g>
				<g>
					<g>
						<path d="M621.4,122.6c2,1.6,4.3,2.3,6.8,2c0.3,0,0.5-0.4,0.3-0.6c-2-1.9-4.1-3.7-6.4-5.2c-0.4-0.3-0.8,0.4-0.4,0.6
							c2.2,1.5,4.3,3.2,6.2,5.1c0.1-0.2,0.2-0.4,0.3-0.6c-2.3,0.3-4.5-0.3-6.3-1.8C621.6,121.8,621,122.3,621.4,122.6L621.4,122.6z"
							/>
					</g>
				</g>
				<g>
					<g>
						<path d="M597.8,62.6c6.6,8.9,12.8,18,15.9,28.8c2.2,7.8,4.1,16.1,11.6,20.5c0.4,0.2,0.8-0.4,0.4-0.6
							c-9.4-5.6-9.7-17.4-13.4-26.6c-3.3-8.2-8.5-15.4-13.7-22.4C598.1,61.8,597.5,62.2,597.8,62.6L597.8,62.6z"/>
					</g>
				</g>
				<g>
					<g>
						<path d="M575.5,45.1c5.8,4.7,11.5,9.7,17.7,13.9c2.6,1.8,5.4,3.3,8.4,4.5c1.4,0.6,3.6,0.8,4.8,1.7c1.8-0.1,2.2,0.5,1,1.8
							c-1.6,0.9-3.3,1.2-5,0.9c-0.5,0-0.5,0.7,0,0.8c3.2,0.2,5.3-0.7,7.7-2.7c0.2-0.2,0.1-0.6-0.2-0.6
							c-13.5-3.1-23.3-12.3-33.9-20.8C575.7,44.3,575.2,44.8,575.5,45.1L575.5,45.1z"/>
					</g>
				</g>
				<g>
					<g>
						<path d="M577.3,35.5c6.1,5.8,14.7,5.4,21.9,9.1c4,2,5.8,6.2,9.6,8.1c1.2,0.6,2.6,1,4,1.1c0.4,0,1-0.1,1.4,0
							c1.5-0.4,1.7-0.3,0.8,0.2c-1.2,0.9-2.6,1.3-4.3,1.1c-0.4,0-0.5,0.4-0.3,0.6c4.2,5.2,8,10.2,10.1,16.6c0.2,0.5,0.9,0.3,0.7-0.2
							c-1.6-4.7-4-8.8-7-12.7c-1.2-1.6-2.9-2.5-1.5-3.7c1.2-1,2.9-1.2,4.1-2.5c0.3-0.3,0-0.7-0.4-0.6c-8.6,2.5-11.9-6.6-18.9-9.4
							c-6.7-2.7-14.4-2.9-19.9-8.1C577.5,34.6,576.9,35.2,577.3,35.5L577.3,35.5z"/>
					</g>
				</g>
				<g>
					<g>
						<path d="M617.1,99.8c2.2,3.7,5,5.7,8.9,7.4c0.4,0.2,0.8-0.5,0.4-0.6c-3.8-1.6-6.5-3.5-8.6-7.2
							C617.5,99.1,616.9,99.4,617.1,99.8L617.1,99.8z"/>
					</g>
				</g>
				<g>
					<g>
						<path d="M521.7,51.3c-2.7-5.2-7.2-15.1-1.2-19.9c0.9-0.7,0.7-1.2,0.1,0.7c-0.3,0.9-0.7,1.8-0.9,2.8c-0.6,2.4-0.8,4.8-0.8,7.2
							c0,0.5,0.8,0.5,0.8,0c0-4.4,0.8-8.3,2.8-12.2c0.2-0.3-0.2-0.7-0.5-0.5c-8.2,5.3-4.4,15.4-0.9,22.4
							C521.3,52.1,522,51.7,521.7,51.3L521.7,51.3z"/>
					</g>
				</g>
				<g>
					<g>
						<path d="M518.5,43.4c2.5-6.3,9.5-9.2,15.4-11.5c2.2-0.8,4.4-1.6,6.7-2.2c4.2-1.2,3.8-0.9,0.8,2c-0.3,0.3,0.2,0.9,0.5,0.5
							c1.3-1.3,2.6-2.6,4-3.8c0.3-0.3,0-0.7-0.4-0.6c-9.4,2-23.8,5.5-27.8,15.5C517.6,43.7,518.3,43.9,518.5,43.4L518.5,43.4z"/>
					</g>
				</g>
				<g>
					<g>
						<path d="M539.8,33.2c7-3.6,15.7-4,23.4-3.8c3.3,0.1,7,0.2,10.2,1.1c0.6,0.2,6.1,2.7,5.8,2.8c-0.1,0.1-3.2-1.5-3.5-1.7
							c-0.4-0.2-0.8,0.5-0.4,0.6c1.6,0.7,3.2,1.4,4.8,2.1c0.4,0.2,0.7-0.3,0.5-0.6c-4.1-4.8-11.6-4.9-17.4-5
							c-7.8-0.2-16.8,0.2-23.8,3.9C539,32.8,539.4,33.4,539.8,33.2L539.8,33.2z"/>
					</g>
				</g>
				<g>
					<g>
						<path d="M579.4,33.6c4.8,2.6,9.5,5.5,14,8.6c0.4,0.3,0.8-0.4,0.4-0.6c-4.5-3.1-9.2-5.9-14-8.6C579.4,32.8,579,33.4,579.4,33.6
							L579.4,33.6z"/>
					</g>
				</g>
				<g>
					<g>
						<path d="M517.1,41.8c-6.1,0.3-9.1,5.4-11.4,10.3c-0.2,0.4,0.4,0.8,0.6,0.4c2.2-4.7,5-9.7,10.8-10
							C517.5,42.6,517.5,41.8,517.1,41.8L517.1,41.8z"/>
					</g>
				</g>
				<g>
					<g>
						<path d="M505.9,52.5c-2.3,1.7-4.3,3.7-5.9,6c-2,2.9-2.8,6.3-4.7,9.3c-0.3,0.4,0.4,0.8,0.6,0.4c1.5-2.4,2.2-5.2,3.7-7.7
							c1.7-2.9,4-5.3,6.7-7.4C506.7,52.9,506.3,52.2,505.9,52.5L505.9,52.5z"/>
					</g>
				</g>
				<g>
					<g>
						<path d="M503.5,61.7c-10.4,5.9-16.3,17.4-14.8,29.2c0.1,0.5,0.7,0.5,0.8,0c1.1-8,5.5-14.5,10-20.9c0.3-0.4-0.4-0.8-0.6-0.4
							c-2.8,3.9-5.6,7.9-7.6,12.3c-0.8,1.7-1.7,3.7-2,5.6c-0.3,2.6-0.1,2.1-0.1-0.2c-0.1-10.4,5.8-20,14.7-25
							C504.3,62.1,503.9,61.5,503.5,61.7L503.5,61.7z"/>
					</g>
				</g>
				<g>
					<g>
						<path d="M493.2,78.5c-2.1,12.8-2,25.5,0.1,38.3c0.1,0.4,0.7,0.3,0.7-0.1c1-9.6,3.7-18.7,8.1-27.3c0.2-0.4-0.4-0.8-0.6-0.4
							c-2.1,4.1-3.8,8.2-5.2,12.6c-0.4,1.4-3.8,12.6-2.7,13.2c-0.8-0.4-0.8-7.2-0.9-8.6c-0.2-2.8-0.4-5.7-0.4-8.5
							c0-6.4,0.6-12.7,1.6-19C494,78.3,493.3,78.1,493.2,78.5L493.2,78.5z"/>
					</g>
				</g>
				<g>
					<g>
						<path d="M506.7,101.6c0.7,1,0.3,5.4,0.4,6.8c0.1,1.5,0.3,3.1,0.5,4.6c0.5,3.4,1.5,6.7,2.8,10c2.5,6.5,6.2,12.5,9.8,18.4
							c0.2,0.4,0.8,0.1,0.7-0.3c-1.2-5.8-2.4-11.5-3.6-17.3c-0.1-0.5-0.8-0.3-0.7,0.2c0.5,2.6,1.1,5.1,1.6,7.7
							c0.2,1,2.2,7.1,1.6,7.7c0.2-0.2-5.5-9.8-6.2-11.2c-2.4-4.9-4.3-10-5.1-15.4c-0.5-3.4,0.2-8.6-1.6-11.6
							c-0.1-0.2-0.4-0.2-0.6-0.1c-0.1,0.1-0.2,0.1-0.2,0.2c-0.1,0.1-0.1,0.3-0.1,0.5c0,0.1,0.1,0.1,0.1,0.2
							C506.3,102.4,506.9,102,506.7,101.6L506.7,101.6z"/>
					</g>
				</g>
				<g>
					<g>
						<path d="M518.5,75.9c0.8-1-1,2-1.2,2.4c-0.5,1.4-1,2.9-1.4,4.3c-0.9,3-1.5,6-1.9,9c-0.9,6.6-1,13.2-0.1,19.8
							c1.7,12.8,6.9,24.7,15,34.7c0.2,0.3,0.7,0,0.6-0.4c-3.8-11.7-6.2-23.7-7-36c0-0.6,0.2-3.3-0.2-3.7c-1.2-1.3-0.5,2-0.5,2.3
							c0.3,2,0.7,3.9,1.3,5.8c1.4,4.4,3.6,8.3,6.5,11.8c0.2,0.3,0.8,0,0.6-0.4c-4.7-12.5-4.9-25.9-0.5-38.5c0.2-0.5-0.6-0.7-0.7-0.2
							c-2.9,8.5-4,17.5-2.7,26.4c0.3,2.3,0.8,4.5,1.4,6.7c0.1,0.4,1.1,4.1,1.3,4.1c-0.1,0-1.5-2.5-1.7-2.8c-3.1-5.4-4.8-11.1-5-17.3
							c0-0.5-0.8-0.5-0.8,0c0.3,9.9,1.5,19.7,3.7,29.3c0.6,2.4,1.2,4.8,1.9,7.1c0.1,0.3,1.1,3.5,1.1,3.5c-0.1,0-1.8-2.5-2-2.8
							c-2.5-3.5-4.6-7.3-6.3-11.3c-7.8-17.7-7.9-38.2-0.2-55.9c0.2-0.4-0.3-0.8-0.6-0.5c-0.4,0.5-0.8,1-1.2,1.5
							C517.7,75.7,518.2,76.3,518.5,75.9L518.5,75.9z"/>
					</g>
				</g>
				<g>
					<g>
						<path d="M526.4,60.8c-4.2-0.1-5.8,1.4-4.9,5.6c1.3,5.8,2.8,11.1,5.8,16.3c0.2,0.4,0.9,0,0.6-0.4c-1.9-3.2-3.3-6.6-4.3-10.2
							c-0.4-1.5-0.8-3.1-1.1-4.6c-0.4-1.8-0.5-1.9,0.3-3.9c0.9-2.2,1.3-2.1,3.5-2.1C526.9,61.6,526.9,60.8,526.4,60.8L526.4,60.8z"
							/>
					</g>
				</g>
				<g>
					<g>
						<path d="M526.3,61.3c-1.2,20.5,14.7,35.3,33,41.2c0.5,0.1,0.7-0.6,0.2-0.7c-17.9-5.8-33.6-20.3-32.4-40.4
							C527.1,60.8,526.3,60.8,526.3,61.3L526.3,61.3z"/>
					</g>
				</g>
				<g>
					<g>
						<path d="M527.4,82.7c3.2,5.6,5.9,10.4,11.8,13.6c5.9,3.2,13.5,6.1,20.2,6.3c0.5,0,0.5-0.7,0-0.8c-6.4-0.1-14.2-3.1-19.9-6.2
							c-5.7-3.1-8.4-7.9-11.5-13.3C527.8,81.9,527.1,82.3,527.4,82.7L527.4,82.7z"/>
					</g>
				</g>
				<g>
					<g>
						<path d="M523.6,56.6c-1.9,1.3-4.2,1.5-6.2,2.6c-1.7,1-3,2.5-3.9,4.2c-0.2,0.4,0.4,0.8,0.6,0.4c1.1-2.2,2.8-3.8,5.1-4.6
							c1.6-0.6,3.3-0.9,4.7-1.9C524.4,56.9,524,56.3,523.6,56.6L523.6,56.6z"/>
					</g>
				</g>
				<g>
					<g>
						<path d="M517.9,51.4c-3.6,0.5-7.3,0.8-11,1c-0.5,0-0.5,0.8,0,0.8c3.7-0.1,7.5-0.5,11.2-1C518.6,52.1,518.4,51.3,517.9,51.4
							L517.9,51.4z"/>
					</g>
				</g>
				<g>
					<g>
						<path d="M527.9,54.8c3-17.9,35.1,0.7,42.8,6.3c11.4,8.3,20.5,19.2,26.6,31.9c0.2,0.4,0.9,0.1,0.6-0.4
							c-7.2-15-18.8-27.7-33.1-36.3c-7.9-4.7-34.8-18.5-37.6-1.7C527.1,55.1,527.8,55.3,527.9,54.8L527.9,54.8z"/>
					</g>
				</g>
				<g>
					<g>
						<path d="M559.7,45.8c10.1,4.5,20.4,9.3,27,18.6c5.9,8.3,8.5,18.5,11,28.2c0.1,0.5,0.8,0.3,0.7-0.2c-2.6-10.3-5.4-21-12-29.6
							c-6.6-8.7-16.6-13.3-26.4-17.6C559.6,45,559.3,45.6,559.7,45.8L559.7,45.8z"/>
					</g>
				</g>
				<g>
					<g>
						<path d="M536.6,56.6c12.4,2.7,19.8,15.8,29.2,23.4c8.2,6.6,17.6,11.4,28.3,11.9c0.5,0,0.5-0.7,0-0.8
							c-13.3-0.7-24.5-8.1-33.8-17.1c-7.1-6.9-13.2-15.9-23.5-18.2C536.3,55.8,536.1,56.5,536.6,56.6L536.6,56.6z"/>
					</g>
				</g>
				<g>
					<g>
						<path d="M561,87.1c9.3,6.6,20.9,8.1,31.6,4.3c0.5-0.2,0.3-0.9-0.2-0.7c-10.5,3.8-21.9,2.2-31-4.2
							C561,86.2,560.6,86.9,561,87.1L561,87.1z"/>
					</g>
				</g>
				<g>
					<g>
						<path d="M495.6,107.3c1.3,6.7,0.8,13.3-1.5,19.7c-0.1,0.3,0.3,0.6,0.6,0.4c2-1.5,3.9-3.1,5.4-5.1c2.1-2.7,1.2-2.9,1.8,0.2
							c1.3,6.6,5.3,13.2,8,19.3c0.1,0.3,0.6,0.2,0.7-0.1c0.8-4.5,1.5-9,2.2-13.6c0.1-0.5-0.6-0.7-0.7-0.2c-0.5,2.9-0.9,5.8-1.4,8.7
							c-0.7,4.1-0.9,3-2.4-0.4c-2.5-5.6-6.5-11.8-5.8-18c0-0.4-0.5-0.5-0.7-0.2c-1.2,2.3-2.7,4.7-4.7,6.4c-1.9,1.6-1.1,1.1-1.2-0.5
							c0-1.3,0.7-2.8,0.9-4.1c0.7-4.3,0.4-8.5-0.4-12.8C496.3,106.7,495.5,106.9,495.6,107.3L495.6,107.3z"/>
					</g>
				</g>
				<g>
					<g>
						<path d="M612.3,119.6c2,1.8,3.5,4,4.4,6.5c0.2,0.4,0.9,0.3,0.7-0.2c-1-2.6-2.5-4.9-4.6-6.8C612.5,118.7,612,119.2,612.3,119.6
							L612.3,119.6z"/>
					</g>
				</g>
				<g>
					<g>
						<path d="M604.8,119.4c1.5,8,0.8,15.8-2.1,23.4c-0.1,0.4,0.4,0.6,0.6,0.4c6.1-5.2,10.3-11.8,12.4-19.5c0.1-0.5-0.6-0.7-0.7-0.2
							c-1.2,4.2-2.9,8.2-5.4,11.8c-1.1,1.6-2.3,3.1-3.6,4.4c-0.7,0.7-1.4,1.4-2.1,2c0.2-0.6,0.4-1.1,0.6-1.7
							c0.3-3.2,1.5-6.3,1.8-9.5c0.3-3.8-0.1-7.5-0.8-11.2C605.5,118.7,604.7,118.9,604.8,119.4L604.8,119.4z"/>
					</g>
				</g>
				<g>
					<g>
						<path d="M522.2,115c4.9,0.4,9.6-0.4,14.5,0.3c4.9,0.7,9.7,2.2,14.4,3.8c0.5,0.1,0.7-0.6,0.2-0.7c-4.7-1.5-9.5-3.1-14.5-3.8
							c-4.9-0.7-9.7,0.2-14.6-0.2C521.7,114.2,521.7,114.9,522.2,115L522.2,115z"/>
					</g>
				</g>
				<g>
					<g>
						<path d="M621,72.6c2.7,6,4.3,12.3,4.4,18.9c0,1.1,0,2.3-0.1,3.4c-0.1,2.1,0.3,3-0.6,0.7c-1-2.8-1.7-5.7-2.6-8.5
							c-0.2-0.5-0.9-0.3-0.7,0.2c1.4,3.9,2.5,7.9,3.5,12c0.1,0.3,0.7,0.4,0.7,0c1.4-9.4,0.1-18.5-3.9-27.1
							C621.4,71.8,620.8,72.1,621,72.6L621,72.6z"/>
					</g>
				</g>
				<g>
					<g>
						<path d="M625.4,95.7c0.7,5,2.7,9.6,6,13.4c0.1-0.2,0.2-0.4,0.4-0.6c-1.7-0.6-3.5-1.3-5.2-1.9c-0.5-0.2-0.6,0.6-0.2,0.7
							c1.7,0.6,3.5,1.3,5.2,1.9c0.4,0.1,0.6-0.4,0.4-0.6c-3.2-3.8-5.2-8.2-5.8-13.1C626.1,95.1,625.3,95.3,625.4,95.7L625.4,95.7z"
							/>
					</g>
				</g>
				<g>
					<g>
						<path d="M513.3,134.1c2.6,15,10.3,28.2,20.3,39.5c5.4,6.2,11.5,11.7,17.7,17.1c4.5,3.8,9.3,8.7,15.7,7.3
							c0.5-0.1,0.3-0.8-0.2-0.7c-7.8,1.7-15.6-7.5-20.9-12.3c-5-4.5-9.7-9.3-14.1-14.5c-8.8-10.6-15.4-22.8-17.8-36.5
							C514,133.4,513.3,133.6,513.3,134.1L513.3,134.1z"/>
					</g>
				</g>
				<g>
					<g>
						<path d="M606.3,140.8c-1.6,5.6-1.9,11.4-3.9,16.8c-2.1,6-5.4,11.4-9.4,16.3c-7.3,9-16.3,16.6-25.5,23.4
							c-0.4,0.3,0,0.9,0.4,0.6c9.7-7.2,19.3-15.3,26.7-24.9c3.1-4,5.7-8.3,7.7-13c2.5-6.2,2.9-12.8,4.8-19.1
							C607.1,140.6,606.4,140.4,606.3,140.8L606.3,140.8z"/>
					</g>
				</g>
				<g>
					<g>
						<path d="M508.1,137.3c-3.1,4.3,0.2,9.8,2.8,13.5c3.5,4.9,8.1,7.9,13.4,10.6c0.4,0.2,0.8-0.4,0.4-0.6
							c-3.9-1.9-7.4-3.9-10.4-7.1c-3.4-3.6-9-11-5.5-16C509,137.3,508.4,136.9,508.1,137.3L508.1,137.3z"/>
					</g>
				</g>
				<g>
					<g>
						<path d="M614.3,129.2c4.2,11.4-2.9,22.6-12.1,28.9c-0.4,0.3,0,0.9,0.4,0.6c9.4-6.6,16.8-18.1,12.4-29.8
							C614.8,128.5,614.1,128.7,614.3,129.2L614.3,129.2z"/>
					</g>
				</g>
				<g>
					<g>
						<path d="M559.4,138.3c-0.4,5.5-2.1,11.2-1.9,16.6c0.1,2.5,1.2,4.5,3.5,5.4c0.4,0.2,0.6-0.5,0.2-0.7c-4.7-1.9-2.6-8.1-2.1-11.7
							c0.5-3.2,0.7-6.4,1-9.6C560.2,137.9,559.4,137.9,559.4,138.3L559.4,138.3z"/>
					</g>
				</g>
				<g>
					<g>
						<path d="M553.4,171.2c3.9,0.4,7.8,1,11.7,1.1c3.6,0.1,6.9-1,10.3-2.1c0.5-0.2,0.3-0.9-0.2-0.7c-7.5,2.6-14,1.8-21.7,1
							C552.9,170.4,552.9,171.2,553.4,171.2L553.4,171.2z"/>
					</g>
				</g>
				<g>
					<g>
						<path d="M562.5,177.1c1-0.4,2-0.4,3,0c0.4,0.2,0.8-0.5,0.4-0.6c-1.1-0.5-2.4-0.6-3.5-0.1C561.9,176.5,562.1,177.3,562.5,177.1
							L562.5,177.1z"/>
					</g>
				</g>
				<g>
					<g>
						<path d="M540.2,179.9c2.5,0.6-0.4,17.2-0.7,18.5c-0.9,5.1-2.2,10.1-3.8,15.1c-0.1,0.5,0.6,0.7,0.7,0.2
							c2.2-6.7,3.8-13.6,4.7-20.6c0.4-3,2.3-11.2-0.9-13.4c-0.2-0.1-0.5,0-0.6,0.2c0,0.1,0,0.1,0,0.2c0,0.2,0.1,0.4,0.3,0.5
							c0.1,0,0.1,0,0.2,0C540.4,180.7,540.6,180,540.2,179.9L540.2,179.9z"/>
					</g>
				</g>
				<g>
					<g>
						<path d="M591.3,176.2c-0.7,8.9,0.4,18.2,4.1,26.4c2.8,6.2,7.7,8.6,14,10.6c0.5,0.1,0.7-0.6,0.2-0.7
							c-8.3-2.6-12.6-6.4-15.3-14.8c-2.2-7-2.9-14.2-2.3-21.5C592.1,175.7,591.3,175.7,591.3,176.2L591.3,176.2z"/>
					</g>
				</g>
				<g>
					<g>
						<path d="M584.2,196.6c-1.7,9.4-3.5,18.8-5.2,28.1c-0.4,2.4-1.2,8.1,3,6.3c0.4-0.2,0.1-0.8-0.4-0.6c-3.3,1.4-1.1-10-0.9-11
							c0.5-2.5,0.9-5,1.4-7.5c0.9-5,1.9-10,2.8-15C585,196.3,584.2,196.1,584.2,196.6L584.2,196.6z"/>
					</g>
				</g>
				<g>
					<g>
						<path d="M472.9,285c-1.3,15.4-2.6,30.8-1.2,46.2c1.3,14.8,4.6,29.3,5.1,44.2c1.2,30.8-3.3,61.6-1.6,92.4c0,0.5,0.8,0.5,0.8,0
							c-1.8-30.8,2.7-61.6,1.6-92.4c-0.6-14.9-3.8-29.4-5.1-44.2c-1.4-15.4-0.1-30.9,1.2-46.2C473.7,284.6,472.9,284.6,472.9,285
							L472.9,285z"/>
					</g>
				</g>
				<g>
					<g>
						<path d="M474.5,461.4c-3.4,8.2-7,16.5-10.3,24.8c-2.3,5.7-4.1,11.7-0.9,17.4c0.2,0.4,0.9,0,0.6-0.4c-4-7.1,0.2-15.1,3-21.8
							c2.7-6.6,5.5-13.2,8.2-19.7C475.4,461.2,474.7,461,474.5,461.4L474.5,461.4z"/>
					</g>
				</g>
				<g>
					<g>
						<path d="M461.8,503.1c-1.4,2.7-2.9,5.6-2.7,8.8c0.3,4.8,1.4,9.3,1.3,14.2c-0.1,11-0.3,22-0.5,33c0,0.5,0.7,0.5,0.8,0
							c0.1-9.7,0.3-19.4,0.4-29.1c0.1-4,0.4-8.2-0.1-12.2c-0.7-5.5-1.2-9.1,1.5-14.3C462.6,503.1,462,502.7,461.8,503.1L461.8,503.1
							z"/>
					</g>
				</g>
				<g>
					<g>
						<path d="M532.3,234.3c8.9,9.1,21.5,13.9,34.2,13.3c15.1-0.8,26.1-9.9,36.7-19.8c0.4-0.3-0.2-0.9-0.5-0.5
							c-10.4,9.7-21.3,18.8-36.2,19.6c-12.5,0.6-24.9-4.1-33.7-13.1C532.5,233.4,532,233.9,532.3,234.3L532.3,234.3z"/>
					</g>
				</g>
				<g>
					<g>
						<path d="M531.9,243.1c5.5,3.9,9.8,9.7,15.9,12.9c5.6,2.9,12.8,2.7,19,2.3c7.1-0.5,12.9-3.8,18.9-7.4
							c7.6-4.6,15.1-9.4,22.5-14.4c0.4-0.3,0-0.9-0.4-0.6c-6.3,4.3-12.7,8.4-19.2,12.4c-6.8,4.2-13.6,8.7-21.8,9.3
							c-7.1,0.5-15,0.4-21.1-3.7c-4.9-3.3-8.6-8-13.4-11.4C531.9,242.2,531.5,242.9,531.9,243.1L531.9,243.1z"/>
					</g>
				</g>
				<g>
					<g>
						<path d="M523.6,218.7c-15.9,9.5-31.8,19-47.9,28.1c-3.3,1.9-6.6,3.5-9.9,5.3c-4.5,2.5-4.6,6-5.5,10.5c-0.8,4.4-2.3,8.6-3.1,13
							c-2.1,11.2-2.6,22.7-2.9,34c-0.4,12,0.1,24-0.7,35.9c-0.7,9.3-2.3,18.5-2.3,27.9c0,0.5,0.8,0.5,0.8,0c0-7.9,1.1-15.6,1.9-23.4
							c1-10.1,0.7-20.1,0.9-30.2c0.2-13.5,0.5-27.1,2.5-40.4c0.7-5,2-9.7,3.3-14.6c0.9-3.5,0.7-7.6,3.1-10.4
							c2.1-2.5,7.3-4.2,10.1-5.7c16.9-9.5,33.5-19.5,50.2-29.4C524.4,219.1,524.1,218.4,523.6,218.7L523.6,218.7z"/>
					</g>
				</g>
				<g>
					<g>
						<path d="M451.6,373.8c-0.2,8.5,1.4,16.7,2.8,25.1c0.8,4.7,1.5,9.4,1.7,14.2c0.1,2.1-0.9,5.3,0.7,7c0.1,0.1,0.3,0.1,0.5,0.1
							c0.5-0.3,0.5-0.3,0.5-1c0-0.2-0.2-0.4-0.4-0.4c-0.1,0-0.2,0-0.3,0c-0.5,0-0.5,0.7,0,0.8c0.3,0-1.7-18.9-2-20.8
							c-1.4-8.3-2.9-16.5-2.7-24.9C452.4,373.3,451.6,373.3,451.6,373.8L451.6,373.8z"/>
					</g>
				</g>
				<g>
					<g>
						<path d="M455.8,409.4c-7,16-12.2,32.8-15.3,50c-3.2,17.7-3.7,35.5-3.6,53.5c0,0.5,0.8,0.5,0.8,0c-0.1-17.9,0.3-35.6,3.5-53.3
							c3.1-17.2,8.3-33.8,15.3-49.8C456.6,409.3,456,408.9,455.8,409.4L455.8,409.4z"/>
					</g>
				</g>
				<g>
					<g>
						<path d="M437.3,505.9c-3.8,6.5-6.3,12-5.3,19.7c1.1,8.4,2.8,16.7,4.2,25c0.4,2.5,0.5,4.6,2.3,6.4c2.3,2.4,5.7,4.2,8.5,6
							c6.4,4.2,5.5-1.6,11.1-3.8c0.4-0.2,0.3-0.9-0.2-0.7c-1.1,0.5-1.8,1-2.7,1.9c-0.6,0.7-1,1.6-1.7,2.1c-2.7,2.1-4.7,0.4-6.8-0.7
							c-2.7-1.3-7.8-4.9-9-7.6c-1-2.4-1-5.9-1.4-8.5c-1-5.9-2-11.7-2.9-17.6c-1.4-8.6,0.4-14.5,4.7-21.9
							C438.2,505.8,437.5,505.5,437.3,505.9L437.3,505.9z"/>
					</g>
				</g>
				<g>
					<g>
						<path d="M453.9,563.4c3.1,1.1,5.8,2.8,8.2,5.1c0.3,0.3,0.9-0.2,0.5-0.5c-2.4-2.4-5.3-4.2-8.5-5.3
							C453.7,562.5,453.5,563.2,453.9,563.4L453.9,563.4z"/>
					</g>
				</g>
				<g>
					<g>
						<path d="M438.2,556.6c0,2.9-1.2,8.4,0.3,11.1c1.4,2.5,5.9,3.7,8.5,4.6c2.9,1.1,13.6,5.8,15.1,0.5c0.1-0.5-0.6-0.7-0.7-0.2
							c-0.5,1.8-4.3,1.7-5.7,1.4c-1.1-0.2-2.1-0.4-3.1-0.7c-2.6-0.7-5.1-1.6-7.6-2.7c-3.1-1.4-5.5-2.5-6.1-6.2
							c-0.4-2.4,0.1-5.4,0.1-7.9C439,556.1,438.2,556.1,438.2,556.6L438.2,556.6z"/>
					</g>
				</g>
				<g>
					<g>
						<path d="M536.4,209.6c-6.8,0-12.7,5.5-13.1,12.3c0,0.5,0.7,0.5,0.8,0c0.4-6.4,6-11.5,12.4-11.5
							C536.9,210.3,536.9,209.6,536.4,209.6L536.4,209.6z"/>
					</g>
				</g>
				<g>
					<g>
						<path d="M605,211.4c8.2-4.9,16.5,4.5,23.1,8.5c5.9,3.6,12.3,6.3,18.8,8.6c7,2.4,14.2,3.6,21.3,5.5c7.8,2.1,12.8,7.5,16.1,14.6
							c6.9,14.6,9.7,32.1,11.5,48c1.9,16.3,1.9,32.7,0.3,48.9c0,0.5,0.7,0.5,0.8,0c1.9-18.2,1.6-36.5-1-54.7
							c-1.3-9.3-3.3-18.6-5.8-27.7c-1.9-6.8-3.9-13.9-7.9-19.9c-3.4-5.1-7.9-8.4-13.8-10c-8.3-2.2-16.5-3.6-24.6-6.6
							c-8.7-3.2-16.3-7.7-23.8-13.1c-4.7-3.3-10-5.9-15.5-2.7C604.3,211,604.6,211.7,605,211.4L605,211.4z"/>
					</g>
				</g>
				<g>
					<g>
						<path d="M698,319.3c8.3,18.8,9.8,39.4,14.1,59.3c4,18.9,17.3,41.6,5.6,60.1c-0.3,0.4,0.4,0.8,0.6,0.4
							c11.3-17.9-0.5-39-4.7-57.2c-4.9-21-6.1-42.9-14.9-62.9C698.5,318.4,697.8,318.8,698,319.3L698,319.3z"/>
					</g>
				</g>
				<g>
					<g>
						<path d="M722.1,433.5c6,12.8-3.3,24.6-9.6,35.1c-5.4,9-9.2,18.9-11.1,29.2c-2,10.5,0,22.1-4,32.1
							c-3.6,9.2-10.5,16.7-12.2,26.6c-0.1,0.5,0.6,0.7,0.7,0.2c1.9-10.4,9.4-18.2,12.8-28c1.8-5.2,1.8-10.5,1.9-15.9
							c0.2-6.7,1-13.3,2.6-19.8c3.1-12.3,9.3-22.3,15.6-33.1c4.8-8.2,8.2-17.6,3.9-26.7C722.6,432.7,721.9,433.1,722.1,433.5
							L722.1,433.5z"/>
					</g>
				</g>
				<g>
					<g>
						<path d="M685,555c-3.6,6.2-11.6,3.7-15.5-0.6c-3.4-3.8-5.7-8.6-8.3-12.9c-0.2-0.4-0.9,0-0.6,0.4c3.4,5.8,6.9,14.2,13.7,16.9
							c4.2,1.7,9.1,0.6,11.4-3.4C685.8,554.9,685.2,554.5,685,555L685,555z"/>
					</g>
				</g>
				<g>
					<g>
						<path d="M664.5,551.3c-3-0.7-10-1.1-12-3.5c-2-2.4-0.9-9.2-0.9-12.4c0-3.9-1.1-9.2,1.4-12.5c2.2-2.8,6.6-5.2,9.4-7.4
							c0.4-0.3-0.2-0.8-0.5-0.5c-3.6,2.8-10.2,5.9-11,10.8c-0.6,3.3,0,7.2,0,10.6c0,4.1,0.1,8.3,0.1,12.4c0,0.2,0.1,0.3,0.3,0.4
							c4.3,1,8.7,2,13,3C664.8,552.1,665,551.4,664.5,551.3L664.5,551.3z"/>
					</g>
				</g>
				<g>
					<g>
						<path d="M679.4,557.8c-0.8,2.5-1.2,6-2.6,8.2c0,2-1,2.4-3,1.3c-1.6,0.2-2.9-0.3-3.9-1.6c-1.3-0.8-2.4-2.1-3.5-3.1
							c-5-4.3-9.9-8.6-14.9-12.9c-0.4-0.3-0.9,0.2-0.5,0.5c4,3.5,8,6.9,12.1,10.4c3,2.6,6.6,7.2,10.3,8.8c1.4,0.6,2.2,0.6,3.2-0.6
							c2-2.2,2.7-8.1,3.5-10.9C680.3,557.5,679.6,557.3,679.4,557.8L679.4,557.8z"/>
					</g>
				</g>
				<g>
					<g>
						<path d="M673.9,570c-2.5,5.4-4.5,11-5.9,16.8c-0.1,0.5,0.6,0.7,0.7,0.2c1.4-5.7,3.3-11.3,5.8-16.6
							C674.7,569.9,674.1,569.5,673.9,570L673.9,570z"/>
					</g>
				</g>
				<g>
					<g>
						<path d="M640.3,298c1.7,4.9,0.9,9.5,0.5,14.5c-0.3,4.1-0.3,8.1,0.2,12.1c1.1,8.7,4.1,16.8,8.7,24.2c0.3,0.4,0.9,0,0.6-0.4
							c-5.2-8.3-8.3-17.6-9-27.4c-0.5-7.7,2.2-15.9-0.4-23.3C640.9,297.4,640.2,297.6,640.3,298L640.3,298z"/>
					</g>
				</g>
				<g>
					<g>
						<path d="M655.2,289.2c-3.5,14.6-7.4,29.1-11.6,43.4c-0.1,0.5,0.6,0.7,0.7,0.2c4.2-14.4,8.1-28.9,11.6-43.4
							C656,288.9,655.3,288.7,655.2,289.2L655.2,289.2z"/>
					</g>
				</g>
				<g>
					<g>
						<path d="M678.9,309.4c-3.1,13.1-8.4,25.6-15.8,36.9c-2.1,3.1-4.3,6.1-6.7,9c-1.8,2.2-4,5.6-6.5,7.2c-1.7,1.1-1.4,1.7-1.7-1.1
							c-0.2-1.5,0.1-3.1,0.3-4.6c0.5-4.6,1.5-8.9,2.9-13.3c0.2-0.5-0.6-0.7-0.7-0.2c-2.3,7.1-3.4,14.3-3.2,21.7
							c0,0.3,0.4,0.5,0.6,0.3c15.6-15.3,26.5-34.6,31.5-55.8C679.7,309.1,679,308.9,678.9,309.4L678.9,309.4z"/>
					</g>
				</g>
				<g>
					<g>
						<path d="M648.6,363.5c1.1,7-0.3,14.1,0.6,21.1c0.7,5.1,2.9,9.8,5,14.4c5.8,12.7,9.7,26.1,11.8,40c0.1,0.5,0.8,0.3,0.7-0.2
							c-1.9-12.7-5.3-25-10.3-36.8c-3-6.9-6.3-13.3-6.7-20.9c-0.3-6,0.6-11.8-0.4-17.8C649.3,362.9,648.6,363.1,648.6,363.5
							L648.6,363.5z"/>
					</g>
				</g>
				<g>
					<g>
						<path d="M664.2,430.3c-8,11.3-7.8,25.4-7.6,38.7c0.2,18.3-1,36.6-3.7,54.7c-0.1,0.5,0.7,0.7,0.7,0.2c2.5-16.4,3.8-33,3.8-49.6
							c0-14.8-1.5-30.8,7.5-43.6C665.1,430.3,664.5,429.9,664.2,430.3L664.2,430.3z"/>
					</g>
				</g>
				<g>
					<g>
						<path d="M536.8,212.1c0.5-3.6-1.2,0.6-1.4,1.3c-0.5,1.4-1.1,2.9-1.6,4.3c-1.1,3-2.3,6.1-3.2,9.2c-1.7,5.4-2.9,11.1-2.4,16.8
							c0.5,6.1,2.4,12,3.9,17.9c1.9,7.5,3,14.7,3.1,22.4c0.2,12.5,1.6,24.3,6.1,36c5.1,13.1,13.1,24.8,18.3,37.9
							c0.1,0.2,0.3,0.4,0.6,0.2c0.2-0.2,0.4-0.3,0.6-0.5c0.2-0.1,0.3-0.3,0.1-0.5c-0.3-0.5-0.6-1-0.9-1.4c-0.2-0.4-0.9,0-0.6,0.4
							c1.4,2.3-0.2-1.2-0.4-1.7c-0.4-1.1-1-2.2-1.5-3.3c-1.5-3.2-3.1-6.3-4.7-9.3c-3-5.7-6.1-11.3-8.7-17.1
							c-5.7-12.8-7.9-25.8-8.1-39.8c-0.1-6.3-0.5-12.3-1.9-18.5c-1.4-6.3-3.4-12.4-4.6-18.8c-2.4-13.4,3.8-25.7,8.2-38
							c0.1-0.4-0.5-0.7-0.7-0.3c-0.8,1.6-0.6,0.9-0.8,2.6C536.1,212.3,536.8,212.5,536.8,212.1L536.8,212.1z"/>
					</g>
				</g>
				<g>
					<g>
						<path d="M608.3,210.9c-9.1,44-18.5,88.2-37.5,129.1c-4.4,9.5-9.1,18.9-12.1,29c-3.1,10.1-4.3,20.7-4.7,31.2
							c-0.8,21.6,0.8,43.4,7.1,64.1c7.2,23.7,19.2,47.3,15.3,72.7c-0.1,0.5,0.6,0.7,0.7,0.2c3.1-20.1-3.7-39.2-10.2-57.9
							c-3.5-10.2-7-20.4-9-31c-2.2-11.6-3-23.3-3.2-35.1c-0.2-11.7,0.2-23.6,2.5-35.1c2.3-11.5,7-22.2,12-32.7
							c9.2-19.6,16.8-39.6,22.8-60.4c7-24.3,12.1-49.1,17.2-73.9C609.1,210.6,608.4,210.4,608.3,210.9L608.3,210.9z"/>
					</g>
				</g>
				<g>
					<g>
						<path d="M630.6,223.6c0.5,14,0,28-1.7,41.9c-0.3,2.5-0.1,5.3-2.2,7.2c-0.9,0.8-2.6,1.3-3.7,1.9c-2.7,1.5-5.3,3.1-7.8,4.8
							c-4.6,3.2-8.9,6.9-12.8,10.9c-0.3,0.3,0.2,0.9,0.5,0.5c5.1-5.2,10.7-9.8,16.9-13.6c2.4-1.5,6-2.5,8.1-4.4
							c1.5-1.3,1.2-2.1,1.5-4.5c2-14.9,2.6-29.8,2.1-44.8C631.3,223.1,630.6,223.1,630.6,223.6L630.6,223.6z"/>
					</g>
				</g>
				<g>
					<g>
						<path d="M610.5,283.4c0,5.6,0,11.3-0.1,16.9c0,6.8,1,13.8-4.6,18.9c-7.3,6.6-14.3,13.1-20.5,20.7
							c-12.2,14.9-22,31.6-31.7,48.2c-0.2,0.4,0.4,0.8,0.6,0.4c10.8-18.5,21.7-37.1,36-53.2c3.4-3.8,6.9-7.4,10.6-10.8
							c3-2.7,7.1-5.2,9-8.9c2-4,1.4-9.1,1.4-13.4c0-6.3,0-12.6,0.1-18.9C611.2,282.9,610.5,282.9,610.5,283.4L610.5,283.4z"/>
					</g>
				</g>
				<g>
					<g>
						<path d="M519.4,220.9c1.7-0.8,1.9-0.2,0.7,1.6c-0.5,1.2-0.9,2.5-1.4,3.7c-0.7,1.9-1.4,3.7-2.1,5.6c-1.6,4.3-3.2,8.7-4.8,13
							c-1.6,4.3-3.2,8.7-4.8,13c-1.2,3.3-3.1,6.9-3.7,10.4c-1,6,4.2,12.1,7,17c2.2,3.9,4.4,7.9,6.6,11.8c0.9,1.7,1.9,3.4,2.8,5.1
							c0.5,0.9,4,5.4,1.7,2.3c-0.3-0.4-0.9,0-0.6,0.4c0.6,0.8,1.2,1.6,1.8,2.4c0.3,0.4,0.9,0.1,0.6-0.4c-3.8-6.7-7.6-13.5-11.3-20.2
							c-1.9-3.4-3.9-6.7-5.7-10.1c-1.1-2.1-2.3-4.2-2.3-6.7c0-2,1.1-4.3,1.8-6.2c5.5-14.9,11-29.8,16.6-44.7
							c0.1-0.3-0.2-0.5-0.5-0.5c-1.3,0.4-2,0.8-2.8,1.9C518.6,220.8,519.1,221.3,519.4,220.9L519.4,220.9z"/>
					</g>
				</g>
				<g>
					<g>
						<path d="M513.8,292.1c0.3,4.4,0.3,8.9-0.2,13.3c-0.4,3.7-1.8,7.6-1.7,11.3c0,6.3,6.4,10.8,10.3,15
							c11.7,12.8,22.8,26.2,33.2,40c0.3,0.4,0.9,0,0.6-0.4c-9-11.9-18.4-23.4-28.3-34.5c-5.4-6-15.5-13.4-14.8-22
							c0.6-7.8,2.1-14.8,1.6-22.7C514.5,291.6,513.8,291.6,513.8,292.1L513.8,292.1z"/>
					</g>
				</g>
				<g>
					<g>
						<path d="M559.7,389c-1,1.4-0.8,3.5,0.4,4.8c1.3,1.5,3.5,1.4,4.9,0.1c1.4-1.3,1.7-3.5,0.3-5c-1.3-1.3-3.4-1.6-4.9-0.5
							c-0.4,0.3,0,0.9,0.4,0.6c1.2-0.8,2.7-0.7,3.8,0.2c1.3,1.1,1.1,3-0.1,4.1c-2.6,2.4-6-1.3-4.1-3.9
							C560.6,389,560,388.6,559.7,389L559.7,389z"/>
					</g>
				</g>
				<g>
					<g>
						<path d="M561.8,388.7c0.7-2.5,2.9-4.4,5.6-4.5c0.5,0,0.5-0.8,0-0.8c-3,0.2-5.5,2.2-6.3,5.1C560.9,389,561.7,389.2,561.8,388.7
							L561.8,388.7z"/>
					</g>
				</g>
				<g>
					<g>
						<path d="M564.7,396c1.6-0.7,3.2-1.3,4.8-2c0.4-0.2,0.2-0.9-0.2-0.7c-1.6,0.7-3.2,1.3-4.8,2C564,395.5,564.2,396.2,564.7,396
							L564.7,396z"/>
					</g>
				</g>
				<g>
					<g>
						<path d="M652.8,397.2c-9.4,26.8-18.3,53.8-26.7,80.9c-0.1,0.5,0.6,0.7,0.7,0.2c8.4-27.1,17.3-54.1,26.7-80.9
							C653.7,396.9,652.9,396.7,652.8,397.2L652.8,397.2z"/>
					</g>
				</g>
				<g>
					<g>
						<path d="M647.2,421.4c2.4,25.8,4.9,51.6,7.3,77.4c0,0.5,0.8,0.5,0.8,0c-2.4-25.8-4.9-51.6-7.3-77.4
							C647.9,420.9,647.2,420.9,647.2,421.4L647.2,421.4z"/>
					</g>
				</g>
				<g>
					<g>
						<path d="M559.3,465.6c-15,28.6-11.8,61.4-11.4,92.5c0.1,8.7,0,17.4-0.9,26.1c-0.6,6.2-1.6,14.8-10.7,12.4
							c-4.2-1.1-8.1-3.9-11.4-6.6c-5.6-4.7-10.2-10.5-14.8-16.2c-5.8-7.1-11.5-14.2-17.3-21.3c-0.3-0.4-0.8,0.2-0.5,0.5
							c6.5,8,13,16.1,19.5,24.1c4.7,5.8,9.6,11.6,15.8,15.9c4.1,2.8,11.1,7.1,16.1,3.5c4.6-3.4,4.2-12.2,4.5-17.1
							c2.8-37.8-6.7-78.2,11.8-113.4C560.2,465.5,559.6,465.1,559.3,465.6L559.3,465.6z"/>
					</g>
				</g>
				<g>
					<g>
						<path d="M461.1,552.9c-3.9,9.4,8.4,14.2,14.9,16.9c12.2,5.1,25.1,8.2,38.3,9.4c0.5,0,0.5-0.7,0-0.8
							c-10.1-0.9-19.9-2.9-29.5-6.1c-7.3-2.4-27.6-8.1-23-19.3C462,552.6,461.3,552.5,461.1,552.9L461.1,552.9z"/>
					</g>
				</g>
				<g>
					<g>
						<path d="M575.7,529.7c0.1,6.3-0.4,12.6-1.4,18.8c-0.9,5.8-2.8,11.1-4.2,16.8c-1.1,4.5,0,7.5,2.1,11.5c2.8,5.5,5.6,11,8.4,16.5
							c1.2,2.4,2.2,7,5.3,7.3c2.5,0.3,5.5-2.6,7.1-4.2c9-8.9,17.3-18.6,25.9-27.8c0.3-0.4-0.2-0.9-0.5-0.5
							c-6.7,7.3-13.5,14.5-20.2,21.8c-3,3.2-9.5,12.9-14.2,8.4c-1.2-1.1-1.9-3.8-2.7-5.2c-1.2-2.3-2.4-4.6-3.6-7
							c-2-4-4.4-7.9-6.1-12c-2.7-6.5,0.7-12.6,2.2-19c1.9-8.3,2.7-16.8,2.7-25.3C576.4,529.2,575.7,529.2,575.7,529.7L575.7,529.7z"
							/>
					</g>
				</g>
				<g>
					<g>
						<path d="M607.9,582.1c4.8,0.1,8.9,5.4,13.8,4.1c2.2-0.6,3.9-2.5,5.4-4c2.8-2.6,5.6-5.2,8.3-7.9c4.8-4.7,9.5-9.7,13.6-15
							c0.7-0.9,4.6-5.3,1.4-5.9c-0.5-0.1-0.7,0.6-0.2,0.7c1.9,0.4-3.7,7.1-4,7.5c-1.5,1.8-3,3.6-4.6,5.3c-3.4,3.7-6.9,7.2-10.5,10.6
							c-4.5,4.3-8.8,10-15.5,6.6c-2.6-1.3-4.7-2.7-7.7-2.7C607.4,581.4,607.4,582.1,607.9,582.1L607.9,582.1z"/>
					</g>
				</g>
				<g>
					<g>
						<path d="M545.9,576.8c8.8,2,17.5,2.2,26.4,0.6c0.5-0.1,0.3-0.8-0.2-0.7c-8.7,1.6-17.3,1.4-26-0.6
							C545.7,575.9,545.5,576.7,545.9,576.8L545.9,576.8z"/>
					</g>
				</g>
				<g>
					<g>
						<path d="M478.4,521.9c15,4.2,33.6,28.9,50.1,14.8c0.4-0.3-0.2-0.8-0.5-0.5c-16.1,13.7-34.6-10.8-49.4-15
							C478.1,521,477.9,521.8,478.4,521.9L478.4,521.9z"/>
					</g>
				</g>
				<g>
					<g>
						<path d="M642.3,483.2c-0.9,4.9-1.8,9.8-2.7,14.8c-0.4,2-0.4,4.8-1.2,6.6c-1.6,3.5-5.6,3.9-8.7,4.9
							c-8.6,2.6-16.8,6.2-24.6,10.5c-0.4,0.2,0,0.9,0.4,0.6c5.4-2.9,10.9-5.5,16.6-7.7c4.6-1.8,10-2.5,14.3-4.7
							c2.9-1.5,3-4.3,3.5-7.3c1.1-5.8,2.1-11.7,3.2-17.5C643.1,482.9,642.4,482.7,642.3,483.2L642.3,483.2z"/>
					</g>
				</g>
				<g>
					<g>
						<path d="M589.9,426.4c-2.2,5.1-4.6,10.2-7.1,15.2c-0.1,0.3,0.2,0.8,0.5,0.5c15.8-12.2,28.4-27.7,37.1-45.7
							c0.2-0.4-0.4-0.8-0.6-0.4c-5.2,10.9-11.9,20.9-20,29.9c-3.7,4.1-7.6,7.9-11.8,11.4c-0.3,0.3-3.2,3-3.7,2.9
							c0.2,0,1.9-3.9,2-4.2c1.5-3.1,2.9-6.2,4.2-9.3C590.7,426.3,590.1,425.9,589.9,426.4L589.9,426.4z"/>
					</g>
				</g>
				<g>
					<g>
						<path d="M463.1,559.6c-0.9,17.9-0.8,35.9,0.5,53.9c0.6,8.8,1.5,17.6,2.7,26.3c0.5,3.9,1.1,7.8,1.7,11.7
							c0.4,2.4,0.6,4.6,2.5,6.4c0.4,0.3,0.9-0.2,0.5-0.5c-2.7-2.5-2.7-8.4-3.2-11.8c-0.7-4.5-1.3-9-1.8-13.5
							c-0.9-8.1-1.6-16.2-2.1-24.4c-0.9-16-0.9-32-0.1-48C463.9,559.1,463.1,559.1,463.1,559.6L463.1,559.6z"/>
					</g>
				</g>
				<g>
					<g>
						<path d="M465.4,635.9c-0.1,20.1-1.7,40.2-4.9,60.1c-1.3,8.4-4,17-4.3,25.5c-0.2,6.6,2.6,11.8,7.4,16.1
							c21.3,19.1,57.2,17.5,82.9,9.8c14.5-4.4,29.2-14.9,29.2-31.5c0-0.5-0.7-0.5-0.8,0c-0.1,32.5-47.9,36.9-71.7,35.5
							c-14-0.9-28.5-4.8-39.2-14.4c-7.4-6.7-7.9-14.5-6.1-23.9c1.5-7.9,3-15.8,4.1-23.8c2.5-17.8,3.8-35.6,3.9-53.6
							C466.1,635.4,465.4,635.4,465.4,635.9L465.4,635.9z"/>
					</g>
				</g>
				<g>
					<g>
						<path d="M570,696.3c10.6,4.1,3.6,18.7,3.8,26.6c0,0.5,0.8,0.5,0.8,0c-0.2-8.2,6.8-23-4.3-27.3
							C569.7,695.4,569.5,696.1,570,696.3L570,696.3z"/>
					</g>
				</g>
				<g>
					<g>
						<path d="M569.7,621.4c0.1-0.9,0.2-1.7,0.3-2.6c0-0.4-0.7-0.5-0.7-0.1c-4.1,26.2-3.2,52.9,2.7,78.7c0.1,0.4,0.8,0.3,0.7-0.1
							c-0.1-1.2-0.1-2.4-0.2-3.6c0-0.5-0.8-0.5-0.8,0c0.1,2.4,0.5,2.3,0.1-0.2c-0.2-1.2-0.5-2.5-0.8-3.7c-0.7-3.7-1.3-7.4-1.8-11.1
							c-0.9-6.8-1.5-13.7-1.8-20.6c-0.2-6.3-0.1-12.6,0.2-18.8c0.2-3.4,0.5-6.9,0.9-10.3c0.2-2,0.9-4.5,0.8-6.4
							c0-0.7-0.1-4.5-0.5-1.3C568.9,621.8,569.6,621.8,569.7,621.4L569.7,621.4z"/>
					</g>
				</g>
				<g>
					<g>
						<path d="M569.1,635.9c5.3,19.2,8.9,38.8,10.8,58.7c0.8,8.4,0.1,17.5,1.7,25.8c1.4,7.3,8.8,12.6,14.1,17.2
							c11.6,10,25.2,14.9,40.6,12.6c14.8-2.3,28.4-10.2,38.3-21.3c2.7-3.1,20.7-29.1,11.1-29.4c-0.5,0-0.5,0.7,0,0.8
							c6.5,0.3-7.6,23.2-9.3,25.3c-4.9,6.2-10.8,11.4-17.5,15.5c-16.6,10.1-38.1,12.8-55,1.9c-4.1-2.6-7.8-5.8-11.3-9.1
							c-3-2.8-7.1-6-9.1-9.7c-2.5-4.9-1.7-11.7-2-17.1c-0.3-5.1-0.7-10.1-1.2-15.1c-1.9-18.9-5.5-37.7-10.5-56
							C569.7,635.3,569,635.5,569.1,635.9L569.1,635.9z"/>
					</g>
				</g>
				<g>
					<g>
						<path d="M651.8,559.1c1.3,6.5,2.7,13.1,5.9,19c1.3,2.4,2.9,4.6,4.9,6.5c1,0.9,2.1,1.8,3.3,2.5c0.8,0.5,1.6,0.9,2.5,1.3
							c2.4,0.8,2.8,2.8,1,6c-0.4-0.3-0.8,0.4-0.4,0.6c1.5,1,3.2,0.2,3.9-1.5c1-2.6-1.6-4.4-3.6-5.4c-11.3-6.1-14.5-17.1-16.9-29.1
							C652.4,558.4,651.7,558.6,651.8,559.1L651.8,559.1z"/>
					</g>
				</g>
				<g>
					<g>
						<path d="M674.8,592.9c-0.1,1.6-0.1,1,0.4,2.5c0.6,1.2,1.2,2.4,1.7,3.7c0.5,2,0.5,4.1,0,6.1c-0.7,4-2,7.9-2.6,12
							c-1.3,8.9-0.9,18,0.2,26.9c1.2,9.7,3.4,19.3,5.5,28.8c1.1,4.8,2.1,9.6,3,14.5c0.4,2.2,3.6,14.5,2,15.5c0.4-0.2,0-0.9-0.4-0.6
							c-0.1,0.1-0.2,0.1-0.3,0.2c-0.1,0.1-0.2,0.3-0.2,0.4c0.2,0.7,0.2,0.7,0.9,0.9c0.2,0.1,0.3,0,0.4-0.2c1.5-2,0.1-5.9-0.3-8.2
							c-0.7-4.9-1.7-9.7-2.7-14.5c-2.1-10.2-4.6-20.4-6.4-30.7c-1.7-10.3-2.6-20.8-1.3-31.2c0.6-5.1,2.5-10.1,3-15.2
							c0.1-1.4,0.2-2.8-0.1-4.2c-0.5-2.2-2.3-4.5-2.2-6.8C675.6,592.5,674.8,592.5,674.8,592.9L674.8,592.9z"/>
					</g>
				</g>
				<g>
					<g>
						<path d="M457.6,720.6c17.1,10.8,39.6,19.3,60.2,17.2c9.9-1,18.7-6,27.3-10.7c10.3-5.7,20.1-12.1,29.5-19.2
							c0.4-0.3,0-0.9-0.4-0.6c-8.2,6.1-16.7,11.8-25.5,16.9c-9.5,5.5-19.7,11.7-30.8,12.8c-20.4,2.1-42.8-6.3-59.8-17.1
							C457.6,719.6,457.2,720.3,457.6,720.6L457.6,720.6z"/>
					</g>
				</g>
				<g>
					<g>
						<path d="M510.4,588.4c3.9-0.6,7.7,0,11.2,1.8c0.4,0.2,0.8-0.4,0.4-0.6c-3.7-1.9-7.7-2.5-11.8-1.8
							C509.8,587.8,510,588.5,510.4,588.4L510.4,588.4z"/>
					</g>
				</g>
				<g>
					<g>
						<path d="M546.2,594.6c5.7,0.6,11.1,0.1,16.6-1.7c0.5-0.1,0.3-0.9-0.2-0.7c-5.3,1.8-10.8,2.3-16.4,1.7
							C545.7,593.8,545.7,594.6,546.2,594.6L546.2,594.6z"/>
					</g>
				</g>
				<g>
					<g>
						<path d="M619.1,584.6c-1.3,6.1-2.1,12.2-2.3,18.5c0,0.5,0.7,0.5,0.8,0c0.2-6.2,1-12.2,2.3-18.3
							C620,584.3,619.2,584.1,619.1,584.6L619.1,584.6z"/>
					</g>
				</g>
				<g>
					<g>
						<path d="M438.4,567.5c0,9.5-0.4,19-1.4,28.5c-0.5,5-1.2,10-1.9,15c-0.4,2.8-1.7,6.1-0.9,8.9c0.9,3.2,4.1,6.5,5.9,9.3
							c2.3,3.5,4.3,7.3,7,10.5c4.1,4.9,12.5,4.8,18.3,6c0.5,0.1,0.7-0.6,0.2-0.7c-3.6-0.8-7.2-1.5-10.8-2.3c-5-1.1-7.1-3.4-9.9-7.7
							c-2-3.1-4.1-6.2-6.1-9.3c-1-1.5-2.4-3-3.1-4.7c-1.4-3.3-0.5-5.8,0-8.9c2.4-14.8,3.5-29.7,3.5-44.7
							C439.2,567,438.4,567,438.4,567.5L438.4,567.5z"/>
					</g>
				</g>
				<g>
					<g>
						<path d="M437,624.9c1.4,7.1,5.9,14.5,10.1,20.2c1,1.4,1.5,2,3.2,2.4c1.5,0.3,3.7-0.2,5.2-0.2c2.8,0.1,5.9,0,8.6,0.3
							c-0.5,0-0.5,0.7,0,0.8c0,0,0.1,0,0.1,0c0.2,0,0.4-0.2,0.4-0.4c0,0,0-0.1,0-0.1c0-0.2-0.1-0.3-0.3-0.4
							c-6.1-1.1-14.5,0.6-18-5.2c-3.4-5.6-7.4-11.2-8.6-17.7C437.6,624.2,436.9,624.4,437,624.9L437,624.9z"/>
					</g>
				</g>
				<g>
					<g>
						<path d="M445.8,616.6c0.8,5.7,5,11.4,7.9,16.3c0.9,1.5,1.2,2.2,2.7,3c1,0.6,2.4,0.8,3.5,1.2c0.4,0.2,6.6,2.2,6.8,2.8
							c-0.2-0.4-0.9-0.3-0.7,0.2c0,0,0,0.1,0.1,0.1c0.1,0.2,0.3,0.3,0.5,0.3c0.1,0,0.1,0,0.2-0.1c0.2-0.1,0.4-0.3,0.2-0.6
							c-2.6-3.7-9.2-3.1-12.2-6.6c-1.7-2-2.9-5.2-4.1-7.5c-1.7-3-3.6-5.9-4.1-9.4C446.5,615.9,445.7,616.1,445.8,616.6L445.8,616.6z
							"/>
					</g>
				</g>
				<g>
					<g>
						<path d="M449.1,622.6c0,0.3,0,0.6,0,0.9c0,0.4,0.7,0.5,0.7,0.1c0.6-3.8,1.4-7.5,2.4-11.1c0.1-0.5-0.6-0.7-0.7-0.2
							c-1,3.7-1.8,7.4-2.4,11.1c0.2,0,0.5,0.1,0.7,0.1c0-0.3,0-0.6,0-0.9C449.9,622.1,449.1,622.1,449.1,622.6L449.1,622.6z"/>
					</g>
				</g>
				<g>
					<g>
						<path d="M449.3,610.8c6.9,2.6,8,11.5,10.4,17.6c1.1,2.9,2.5,5.2,5.8,5.4c0.4,0,0.5-0.6,0.1-0.7c-0.3-0.1-0.5-0.2-0.8-0.3
							c-0.5-0.2-0.7,0.6-0.2,0.7c-4.8-1.7-6.3-11.9-8.1-16.2c-1.5-3.4-3.5-5.9-6.9-7.2C449.1,609.9,448.9,610.6,449.3,610.8
							L449.3,610.8z"/>
					</g>
				</g>
				<g>
					<g>
						<path d="M450.2,619.4c2-0.3,4.6,4.6,5.5,6c1.2,1.9,2.3,3.9,3.3,6c1.6,3.1,3.1,5.6,6.3,7.2c0.4,0.2,0.8-0.4,0.4-0.6
							c-5.1-2.6-6.7-8.9-9.6-13.4c-1.2-1.8-3.5-6.2-6-5.8C449.5,618.8,449.7,619.5,450.2,619.4L450.2,619.4z"/>
					</g>
				</g>
				<g>
					<g>
						<path d="M484,746.5c-2.5,7.9-1.5,15.9,0.7,23.7c2.7,9.8,6.6,19.4,9.9,28.9c0.2,0.5,0.9,0.3,0.7-0.2c-3-8.5-6.2-16.9-8.9-25.5
							c-2.7-8.7-4.5-17.9-1.7-26.8C484.9,746.2,484.1,746,484,746.5L484,746.5z"/>
					</g>
				</g>
				<g>
					<g>
						<path d="M549.2,747.1c-4.8,35.2,10.9,68.3,14.4,102.9c1.9,19.5-0.7,39.2-2.4,58.6c-1.7,19.3-3.4,38.7-5.1,58
							c-0.9,10.7-2.6,21.7-2.9,32.4c-0.1,3.2,0.8,8.6,5.1,7.7c0.5-0.1,0.3-0.8-0.2-0.7c-0.7,0.1-3.5-2.7-3.8-3.2
							c-0.4-0.7-0.4-1.9-0.4-2.7c-0.1-2,0.3-4,0.5-6c0.4-4.6,0.8-9.2,1.2-13.8c0.8-8.5,1.5-17,2.3-25.6c1.6-17.7,3.1-35.4,4.7-53.1
							c1.5-17.2,3.5-34.5,1.8-51.7c-1.5-15.4-5.5-30.4-9-45.4c-4.4-18.8-8-37.9-5.4-57.3C549.9,746.8,549.2,746.6,549.2,747.1
							L549.2,747.1z"/>
					</g>
				</g>
				<g>
					<g>
						<path d="M596.2,737.8c1.3,20.6,4.8,41.8,12.3,61.1c0.2,0.4,0.9,0.3,0.7-0.2c-7.4-19.3-11-40.4-12.2-60.9
							C596.9,737.3,596.2,737.3,596.2,737.8L596.2,737.8z"/>
					</g>
				</g>
				<g>
					<g>
						<path d="M664.4,737.8c-0.5,10.4,1.7,20.7,3.2,31.1c0.8,5.4,1.6,10.9,1.8,16.3c0.1,3,0,6-0.6,8.9c-0.2,1.1-3,10.5-4.2,9.7
							c0.4,0.3,0.8-0.4,0.4-0.6c-0.1-0.1-0.2-0.1-0.3-0.2c-0.1-0.1-0.4-0.1-0.5,0.1c-0.4,0.5-0.5,0.5-0.3,1.1
							c0.1,0.2,0.2,0.3,0.5,0.3c2.9-0.5,4.2-6.2,4.7-8.5c1.4-5.7,1.1-11.7,0.5-17.4c-1.5-13.5-5.2-27.1-4.4-40.7
							C665.2,737.3,664.5,737.3,664.4,737.8L664.4,737.8z"/>
					</g>
				</g>
				<g>
					<g>
						<path d="M582.9,713.6c26.4,31.5,73.4,13.8,99.1-8.8c0.4-0.3-0.2-0.8-0.5-0.5c-25.4,22.4-71.9,40-98.1,8.8
							C583.1,712.7,582.6,713.3,582.9,713.6L582.9,713.6z"/>
					</g>
				</g>
				<g>
					<g>
						<path d="M602.6,109.5c-5.3,1.2-10.8,1.4-16.1,2.7c-5.4,1.4-10.7,3.4-15.9,5.4c-0.4,0.2-0.3,0.9,0.2,0.7c5.2-2,10.5-4,15.9-5.4
							c5.3-1.4,10.8-1.5,16.1-2.7C603.3,110.1,603.1,109.4,602.6,109.5L602.6,109.5z"/>
					</g>
				</g>
				<g>
					<g>
						<path d="M611.4,136c1.9,1.1-0.8,4.3-1.7,5.3c-0.3,0.4,0.2,0.9,0.5,0.5c1.2-1.4,4.1-5,1.5-6.5C611.4,135.1,611,135.8,611.4,136
							L611.4,136z"/>
					</g>
				</g>
				<g>
					<g>
						<path d="M611.4,139.5c-3.9-1.1-2.8,5-3.8,6.8c-0.2,0.4,0.4,0.8,0.6,0.4c0.5-0.9,0.6-1.7,0.6-2.7c0-1.4,0.1-4.3,2.3-3.7
							C611.7,140.4,611.9,139.7,611.4,139.5L611.4,139.5z"/>
					</g>
				</g>
				<g>
					<g>
						<path d="M511.5,140.7c0.2,1.9,0.2,3.9,0.6,5.7c0.2,0.9,0.8,1.6,1.8,1.3c0.2-0.1,0.3-0.2,0.3-0.4c0-0.2,0-0.4,0-0.5
							c0-0.5-0.7-0.5-0.8,0c0,0.2,0,0.4,0,0.5c0.1-0.1,0.2-0.2,0.3-0.4c-1,0.3-1.1-3-1.2-3.4c-0.1-1-0.2-1.9-0.3-2.9
							C512.2,140.2,511.5,140.2,511.5,140.7L511.5,140.7z"/>
					</g>
				</g>
				<g>
					<g>
						<path d="M512.7,144.8c0.7-0.6,1.4,0.8,1.5,1.3c0.2,0.6,0.4,1.2,0.9,1.7c0.3,0.3,0.9-0.2,0.5-0.5c-0.7-0.7-0.7-1.9-1.4-2.6
							c-0.6-0.6-1.4-0.8-2.1-0.3C511.8,144.6,512.3,145.1,512.7,144.8L512.7,144.8z"/>
					</g>
				</g>
				<g>
					<path d="M519.9,126.3c1.3,0.8,2.5,1.7,3.6,2.7c0.5-0.9,0.4-2-0.1-2.8c3.9-2.2,8.9-1.7,13.4-1.2c4.6,0.5,9.3,1.1,13.3,3.1
						c-1.3-0.2-1.4-1.8-2.4-2.5c-0.4-0.2-0.8-0.3-1.2-0.4c-4.4-1.1-8.9-2.1-13.5-2.2c-4.6-0.1-9.4,0.7-13,3.2"/>
					<g>
						<path d="M519.7,126.6c1.3,0.7,2.4,1.6,3.5,2.6c0.2,0.2,0.6,0.1,0.6-0.2c1.8-8.2,20.9-3,26.1-0.7c0.4,0.2,0.8-0.4,0.4-0.6
							c-1.7-0.9-1.9-2.3-3.7-3c-3-1.2-6.9-1.6-10.1-2c-5.8-0.7-11.6-0.1-16.6,3c-0.4,0.3,0,0.9,0.4,0.6c6-3.6,12.8-3.5,19.5-2.4
							c2.6,0.5,5.6,0.7,7.7,2.3c0.9,0.6,1.1,0.8,1.6,1.6c0.3,0.4,0-0.8-0.4-0.9c-7.6-2.4-18-4.7-25.6-1.1c-0.1,0.1-0.2,0.3-0.2,0.4
							c1,3.2-2.5,0-2.9-0.3C519.6,125.7,519.3,126.4,519.7,126.6L519.7,126.6z"/>
					</g>
				</g>
				<g>
					<g>
						<path d="M527.1,132.3c6.2,2,12.6,1.9,18.7-0.4c0.4-0.2,0.3-0.9-0.2-0.7c-6,2.2-12.2,2.3-18.3,0.4
							C526.8,131.4,526.6,132.1,527.1,132.3L527.1,132.3z"/>
					</g>
				</g>
				<g>
					<g>
						<path d="M526.8,125.5c0.7,3.7,3.3,6.6,6.6,8.3c0.4,0.2,0.8-0.4,0.4-0.6c-3.1-1.6-5.5-4.3-6.3-7.8
							C527.5,124.8,526.7,125,526.8,125.5L526.8,125.5z"/>
					</g>
				</g>
				<g>
					<g>
						<path d="M544.1,126.4c0.8,2,0.4,4-1.1,5.5c-0.3,0.3,0.2,0.9,0.5,0.5c1.6-1.7,2.2-4,1.3-6.2C544.6,125.8,543.9,126,544.1,126.4
							L544.1,126.4z"/>
					</g>
				</g>
				<g>
					<g>
						<path d="M535.2,126.8c-1.1,1.9,0.7,3.8,2.7,3.8c2.8-0.1,1.3-4,0.6-5.4c-0.2-0.4-0.9-0.1-0.6,0.4c0.3,0.6,0.6,1.3,0.8,2
							c0.1,0.6,0.4,1.9-0.3,2.2c-0.6,0.3-1.8-0.1-2.2-0.5c-0.6-0.6-0.7-1.3-0.3-2C536.1,126.8,535.4,126.4,535.2,126.8L535.2,126.8z
							"/>
					</g>
				</g>
				<g>
					<g>
						<path d="M530.2,129.6c1.4,0,2.7,0,4.1,0c0.5,0,0.5-0.8,0-0.8c-1.4,0-2.7,0-4.1,0C529.7,128.9,529.7,129.6,530.2,129.6
							L530.2,129.6z"/>
					</g>
				</g>
				<g>
					<g>
						<path d="M539,129.3c1.6-0.1,3.2-0.1,4.7,0.1c0.5,0,0.5-0.7,0-0.8c-1.6-0.2-3.1-0.2-4.7-0.1C538.5,128.5,538.5,129.3,539,129.3
							L539,129.3z"/>
					</g>
				</g>
				<g>
					<path d="M578.2,124.7c-0.4,0.1-1.1,0.2-1.8,0.7c-0.6,0.4-1,1-1.2,1.4c1.9,0.3,3.8-0.6,5.6-1.3c5.4-2.1,11.6-2.5,17.2-1.2
						c0.6,0.1,1.2,0.3,1.6,0.8c0.4,0.4,0.3,1.2-0.3,1.4c1-0.3,2.1-0.6,3.1-0.9c-0.4-1.5-2-2.6-3.8-3.1s-3.6-0.4-5.4-0.3
						c-1.9,0.1-3.4,0.1-5.7,0.3c-2.2,0.2-3.7,0.4-5.7,0.9C579.8,124,579.9,124.3,578.2,124.7z"/>
					<g>
						<path d="M578.1,124.3c-1.5,0.4-2.3,1-3.2,2.3c-0.2,0.2,0,0.6,0.3,0.6c3.2,0.1,5.9-1.6,9-2.3c2.2-0.5,4.6-0.8,6.9-0.9
							c0.4,0,9.3,0.7,8.1,2.3c-0.2,0.3,0,0.7,0.4,0.6c1-0.3,2.1-0.6,3.1-0.9c0.2-0.1,0.3-0.3,0.2-0.6c-2-4.1-6.9-3.7-10.9-3.6
							C587,122,582.9,123.1,578.1,124.3c-0.5,0.1-0.3,0.8,0.2,0.7c4.6-1.2,8.9-2.3,13.7-2.5c1.8-0.1,5.3-0.5,6.7,0.3
							c0.2,0.1,3.2,3.9,1.5,3.3c0.3,0.1-0.5-1.4-0.2-1.2c-2.4-1.5-5.3-1.7-8.1-1.7c-2.4-0.1-4.8,0.2-7.1,0.7
							c-1.4,0.3-2.8,0.8-4.2,1.2c-0.5,0.2-0.9,0.4-1.4,0.5c-1.4,0.9-1.8,0.7-1.1-0.6C578.8,124.9,578.6,124.2,578.1,124.3z"/>
					</g>
				</g>
				<g>
					<g>
						<path d="M577.7,126.6c0.2,1.6,1.3,2.8,2.6,3.6c0.4,0.2,0.8-0.4,0.4-0.6c-1.2-0.7-2.1-1.8-2.3-3.2
							C578.4,125.9,577.7,126.1,577.7,126.6L577.7,126.6z"/>
					</g>
				</g>
				<g>
					<g>
						<path d="M597.5,124.8c0.3,2.7-1.2,5-3.5,6.2c-0.4,0.2,0,0.9,0.4,0.6c2.5-1.4,4.2-3.9,3.9-6.9
							C598.2,124.3,597.5,124.3,597.5,124.8L597.5,124.8z"/>
					</g>
				</g>
				<g>
					<g>
						<path d="M578.8,131.6c6,1.7,12.2,1.8,18.3,0.3c0.5-0.1,0.3-0.8-0.2-0.7c-6,1.4-11.9,1.3-17.9-0.3
							C578.5,130.7,578.3,131.5,578.8,131.6L578.8,131.6z"/>
					</g>
				</g>
				<g>
					<g>
						<path d="M585,125.2c-0.9,0.8-1,2.1-0.5,3.1c0.7,1.3,2.3,1.8,3.7,1.6c1.4-0.2,2.6-1.2,2.8-2.7c0.1-0.5,0.1-1.2-0.3-1.6
							c-0.3-0.3-0.7-0.2-0.9,0.2c-0.1,0.2,0,0.3,0.1,0.5c0,0,0,0.1,0.1,0.1c0.3,0.4,0.8-0.2,0.5-0.5c0,0,0-0.1-0.1-0.1
							c0,0.2,0,0.3,0.1,0.5c-0.2,0.4-0.1,1-0.3,1.5c-0.2,0.4-0.4,0.7-0.8,1c-0.8,0.6-1.8,0.7-2.7,0.5c-1.4-0.4-2.4-2.2-1.1-3.4
							C585.9,125.4,585.3,124.9,585,125.2L585,125.2z"/>
					</g>
				</g>
				<g>
					<g>
						<path d="M580.9,128.7c1.3-0.3,2.6-0.4,4-0.3c0.5,0,0.5-0.7,0-0.8c-1.4-0.1-2.8,0.1-4.2,0.4C580.2,128,580.4,128.8,580.9,128.7
							L580.9,128.7z"/>
					</g>
				</g>
				<g>
					<g>
						<path d="M590.2,128.5c2,0.5,4,0.7,6.1,0.6c0.5,0,0.5-0.8,0-0.8c-2,0.2-4,0-5.9-0.5C589.9,127.6,589.7,128.3,590.2,128.5
							L590.2,128.5z"/>
					</g>
				</g>
			</g>
		</g>
	</g>
</g>
</svg>
