<?xml version="1.0" encoding="utf-8"?>
<!-- Generator: Adobe Illustrator 21.1.0, SVG Export Plug-In . SVG Version: 6.00 Build 0)  -->
<svg version="1.1" id="图层_1" xmlns="http://www.w3.org/2000/svg" xmlns:xlink="http://www.w3.org/1999/xlink" x="0px" y="0px"
	 viewBox="0 0 300 776" style="enable-background:new 0 0 300 776;" xml:space="preserve">
<style type="text/css">
	.st0{fill:#FFFFFF;}
	.st1{opacity:0.7;}
	.st2{clip-path:url(#SVGID_2_);}
	.st3{clip-path:url(#SVGID_4_);}
	.st4{fill:#CCCCCC;}
	.st5{fill:#FCE2CB;}
	.st6{fill:#C4C3C2;}
	.st7{fill:#C67989;}
	.st8{fill:#B7A99E;}
	.st9{fill:#6D6660;}
	.st10{fill:#723522;}
	.st11{fill:#633B1F;stroke:#000000;stroke-miterlimit:10;}
	.st12{fill:#F2F2F2;}
	.st13{display:none;fill:#FFFFFF;}
	.st14{display:none;opacity:0.7;}
	.st15{display:inline;}
	.st16{display:inline;clip-path:url(#SVGID_6_);}
	.st17{clip-path:url(#SVGID_8_);}
	.st18{fill:#FBDEFC;}
	.st19{fill:#DDAAE2;}
	.st20{fill:#42210B;}
	.st21{fill:#FFE1CC;}
	.st22{opacity:0.55;fill:#D8C9BF;}
	.st23{fill:#FF7FB1;}
	.st24{fill:#F95F9D;}
	.st25{opacity:0.1091;}
	.st26{opacity:0.41;}
	.st27{fill:#B3B3B3;}
	.st28{fill:#66442B;}
	.st29{opacity:0.26;fill:#FFFFFF;}
	.st30{display:inline;clip-path:url(#SVGID_10_);}
	.st31{clip-path:url(#SVGID_12_);}
	.st32{fill:#242F43;}
	.st33{fill:#49709E;}
	.st34{fill:#2B456B;}
	.st35{opacity:0.69;fill:#FFFFFF;}
	.st36{opacity:0.66;fill:#FFFFFF;}
	.st37{fill:#FFE98C;}
	.st38{fill:#A59B95;}
</style>
<path class="st0" d="M258.5,774.4h-214C25,774.4,9,758.5,9,738.9V41.5C9,22,25,6,44.5,6h214C278,6,294,22,294,41.5v697.4
	C294,758.5,278,774.4,258.5,774.4z"/>
<g class="st1">
	<defs>
		<path id="SVGID_1_" class="st1" d="M258.5,774.4h-214C25,774.4,9,758.5,9,738.9V41.5C9,22,25,6,44.5,6h214C278,6,294,22,294,41.5
			v697.4C294,758.5,278,774.4,258.5,774.4z"/>
	</defs>
	<clipPath id="SVGID_2_">
		<use xlink:href="#SVGID_1_"  style="overflow:visible;"/>
	</clipPath>
	<g class="st2">
		<defs>
			<rect id="SVGID_3_" x="-21.3" y="5" width="404.5" height="759.5"/>
		</defs>
		<clipPath id="SVGID_4_">
			<use xlink:href="#SVGID_3_"  style="display:none;overflow:visible;"/>
		</clipPath>
		<g class="st3">
			<path class="st4" d="M109.6,852.2l-8-50.5c0,0-17.3-39.9-12-51.9c0,0-29.3-6.6-26.6-30.6c0,0,8-41.2,8-53.2v-16l-14.6-1.3
				c0,0-13.3-13.3-13.3-22.6l-2.7-6.6c0,0,6.6-38.6,4-50.5v-10.6c0,0-8-33.2-5.3-41.2l4-9.3c0,0,4-62.5,13.3-81.1l6.6-14.6
				c0,0-8-30.6-2.7-67.8c0,0,1.3-57.2,4-70.5l5.3-17.3l55.8-33.2l4-2.7c0,0,6.6-9.3,13.3-9.3c0,0,5.3-16,5.3-27.9
				c0,0-14.6-16-17.3-19.9c0,0-19.9-9.3-16-23.9c0,0-6.6-13.3-6.6-17.3l-6.6,6.6c0,0,2.7-18.6,1.3-19.9c0,0-4,0-2.7,9.3
				c0,0-5.3-27.9,0-37.2c0,0-5.3,8-5.3,12c0,0,0-17.3,6.6-22.6c0,0,6.6-13.3,10.6-16c0,0,2.7-9.3,10.6-10.6c0,0,0-8,5.3-12
				c0,0-2.7,9.3-2.7,10.6c0,0,8-8,25.3-12l-2.7,2.7c0,0,23.9-4,33.2,0l17.3,9.3c0,0,16,8,16,12l8,1.3l-5.3,2.7
				c0,0,17.3,21.3,14.6,38.6c0,0,2.7,12,5.3,13.3c0,0-9.3-1.3-13.3-8c0,0,1.3,8,6.6,10.6h4l-4,2.7c0,0,2.7,2.7,6.6,2.7l-8,2.7
				l5.3,5.3c0,0-6.6,0-6.6-1.3c0,0,2.7,6.6,0,12c0,0-4-13.3-6.6-12l-1.3,5.3c0,0,9.3,17.3-12,30.6c0,0-5.3,13.3-10.6,18.6
				c0,0-1.3,26.6,13.3,33.2c0,0,9.3-2.7,14.6,2.7c0,0,16,12,35.9,17.3c0,0,22.6,1.3,29.3,16c0,0,13.3,29.3,14.6,73.1
				c0,0,9.3,23.9,13.3,59.8c0,0,14.6,37.2,9.3,53.2c0,0,10.6,12-10.6,39.9c0,0-12,19.9-10.6,43.9c0,0,0,16-8,25.3
				c0,0-5.3,9.3-6.6,13.3c0,0-2.7,2.7-5.3,4c0,0-2.7,8-6.6,10.6l-5.3,17.3l6.6,5.3c0,0,5.3,8,0,23.9c0,0-4,38.6,5.3,51.9l5.3,31.9
				c0,0,6.6,0,0,12c-6.6,12-16,21.3-21.3,25.3c0,0,2.7,33.2,5.3,38.6c0,0,1.3,21.3-2.7,25.3l4,41.2l-55.8,8c0,0-8-41.2-5.3-51.9
				c0,0-13.3-25.3-13.3-61.2c0,0-14.6-10.6-14.6-19.9c0,0-6.6-74.5-14.6-83.8c0,0,0,47.9,5.3,63.8c0,0,10.6,4-2.7,35.9
				c0,0-13.3,12-21.3,13.3c0,0,0,38.6,4,50.5c0,0,16,53.2,12,74.5L109.6,852.2z"/>
			<path class="st0" d="M80.3,852.2l-8-50.5c0,0-17.3-39.9-12-51.9c0,0-29.3-6.6-26.6-30.6c0,0,8-41.2,8-53.2v-16l-14.6-1.3
				c0,0-13.3-13.3-13.3-22.6l-2.7-6.6c0,0,6.6-38.6,4-50.5v-10.6c0,0-8-33.2-5.3-41.2l4-9.3c0,0,4-62.5,13.3-81.1l6.6-14.6
				c0,0-8-30.6-2.7-67.8c0,0,1.3-57.2,4-70.5l5.3-17.3l55.8-33.2l4-2.7c0,0,6.6-9.3,13.3-9.3c0,0,5.3-16,5.3-27.9
				c0,0-14.6-16-17.3-19.9c0,0-19.9-9.3-16-23.9c0,0-6.6-13.3-6.6-17.3l-6.6,6.6c0,0,2.7-18.6,1.3-19.9c0,0-4,0-2.7,9.3
				c0,0-5.3-27.9,0-37.2c0,0-5.3,8-5.3,12c0,0,0-17.3,6.6-22.6c0,0,6.6-13.3,10.6-16c0,0,2.7-9.3,10.6-10.6c0,0,0-8,5.3-12
				c0,0-2.7,9.3-2.7,10.6c0,0,8-8,25.3-12l-2.7,2.7c0,0,23.9-4,33.2,0l17.3,9.3c0,0,16,8,16,12l8,1.3l-5.3,2.7
				c0,0,17.3,21.3,14.6,38.6c0,0,2.7,12,5.3,13.3c0,0-9.3-1.3-13.3-8c0,0,1.3,8,6.6,10.6h4l-4,2.7c0,0,2.7,2.7,6.6,2.7l-8,2.7
				l5.3,5.3c0,0-6.6,0-6.6-1.3c0,0,2.7,6.6,0,12c0,0-4-13.3-6.6-12l-1.3,5.3c0,0,9.3,17.3-12,30.6c0,0-5.3,13.3-10.6,18.6
				c0,0-1.3,26.6,13.3,33.2c0,0,9.3-2.7,14.6,2.7c0,0,16,12,35.9,17.3c0,0,22.6,1.3,29.3,16c0,0,13.3,29.3,14.6,73.1
				c0,0,9.3,23.9,13.3,59.8c0,0,14.6,37.2,9.3,53.2c0,0,10.6,12-10.6,39.9c0,0-12,19.9-10.6,43.9c0,0,0,16-8,25.3
				c0,0-5.3,9.3-6.6,13.3c0,0-2.7,2.7-5.3,4c0,0-2.7,8-6.6,10.6l-5.3,17.3l6.6,5.3c0,0,5.3,8,0,23.9c0,0-4,38.6,5.3,51.9l5.3,31.9
				c0,0,6.6,0,0,12s-16,21.3-21.3,25.3c0,0,2.7,33.2,5.3,38.6c0,0,1.3,21.3-2.7,25.3l4,41.2l-55.8,8c0,0-8-41.2-5.3-51.9
				c0,0-13.3-25.3-13.3-61.2c0,0-14.6-10.6-14.6-19.9c0,0-6.6-74.5-14.6-83.8c0,0,0,47.9,5.3,63.8c0,0,10.6,4-2.7,35.9
				c0,0-13.3,12-21.3,13.3c0,0,0,38.6,4,50.5c0,0,16,53.2,12,74.5L80.3,852.2z"/>
			<path class="st5" d="M118.4,183.2c0,0,1.1,13.2-3.9,28.1c0,0-7.9,20.8-7.9,22.8l4,3c0,0,11.9,13.9,34.7,11.9
				c0,0,15.9-1,34.7-19.8l2-1l3-13.9c0,0-10.9,0-15.9-19.8c0,0-2-18.8,0-20.8L118.4,183.2z"/>
			<path class="st7" d="M117.5,179.5c0,0,1,5.9,1,8.9c0,0,12.9,15.9,23.8,15.9c0,0,8.7-0.2,26.2-16.5l-0.4-14.3L117.5,179.5z"/>
			<path class="st5" d="M15.4,569.2c0,0,2,28.8-4,49.6c0,0-1,4,4,8.9c0,0-2,0,5,12.9l5.9,7.9l15.9,1l1-14.9c0,0-4-30.7-3-40.7v-19.8
				c0,0-2,3-8.9,2C31.2,576.1,18.3,574.1,15.4,569.2z"/>
			<path class="st8" d="M40.1,565.2c0,0,0,26.8,0,31.7c0,0,1,30.7,3,41.6c0,0-2,46.6-5,55.5l-4,22.8c0,0-7.9,19.8,21.8,31.7
				c0,0,25.8,9.9,50.6,4c0,0,9.9-1,18.8-4c0,0,23.8-6.9,25.8-24.8c0,0,5.9-20.8-2-24.8c0,0-6.9-34.7-5-53.5v-9.9c0,0,3,2,6.9,20.8
				c0,0,5.9,32.7,6.9,47.6v8.9c0,0-3,12.9,11.9,23.8c0,0,15.1,17.1,37.3,15.5c0,0,20.2,0.4,36.1-14.5c0,0,12.9-8.9,20.8-29.7
				c0,0,3-5.9-1-5.9l-1-3l-2-11.9l-2-8.9l-3-12.9l-3-13.9l-1-12.9c0,0-1-13.9,1-22.8l2-8.9c0,0,1-4-1-7.9c0,0-1-2-1-4l-4-3
				c0,0-13.2-7.6-15-15.7c0,0-4.8-17-5.8-23C226.5,547.4,40.1,565.2,40.1,565.2z"/>
			<path class="st0" d="M121.4,578.1c0,0,8.9,2,16.9,2c0,0,13.9-1,13.9-2L169,471l-35.7-25.8l-24.8,41.6L121.4,578.1z"/>
			<path class="st9" d="M113.5,212.2c0,0-7.9-1-12.9,8.9s0,0,0,0l-19.8,11.9l-30.7,17.8c0,0-12.9,4-11.9,11.9l-3,12.9
				c0,0-3,15.9-3,21.8l-1,40.7c0,0-1,22.8-2,26.8c0,0-1,21.8,1,27.8l3,18.8l-6.9,16.9c0,0-6.9,25.8-8.9,33.7c0,0-4,35.7-3,46.6
				c0,0-7.9,9.9-4,23.8l3,18.8c0,0,0,5,2,6.9v8.9c0,0,0,4,5.9,5.9c0,0,12.1,5.5,16.5,2.7l2.4-1.7v-9.9c0,0,5.9,5.9,22.8,10.9
				c0,0,15.9,5,22.8,5l5,1c0,0,11.9,12.9,15.9,14.9c0,0,12.9,8.9,16.9-2c0,0,2-20.8,2-25.8c0,0-1-59.5,0-63.5c1-4,1-4,1-4l-1,4
				c0,0,6.9-35.7,12.9-38.7c0,0,19.8,46.6,14.9,71.4c0,0-2,19.8-4,23.8c0,0-3,6.9-2,11.9l1,3l7.9,15.9c0,0,5,9.9,5.9,9.9
				c0,0,3,1,7.9-4l13.9-14.9l1,1h1c0,0,2,0,3,1c0,0,7.9,4,8.9,3c0,0,4-1,11.9-9.9c0,0,16.9-15.9,17.8-19.8l1-2v-4
				c0,0,19,16.7,20.9,17.8c0,0,3.9,2.1,4.9-1.9l2-6.9c0,0,5-2,5.9-4l1-1c0,0,2-7.9,5.9-12.9l5-9.9c0,0,3-7.9,3-12.9
				c0,0,0-18.8,2-21.8c0,0,4-16.9,8.9-24.8l9.9-16.9c0,0,7.9-14.9,0-22.8c0,0,5.9-11.9-3-33.7c0,0-5-16.9-5.9-19.8
				c0,0-5.9-36.7-6.9-37.7c0,0-4-17.8-6.9-22.8c0,0-3-33.7-4-38.7c0,0-5-29.7-15.9-40.7c0,0-3-5-24.8-8.9c0,0-19.8-5.9-29.7-13.9
				c0,0-12.9-9.9-18.8-5l4,2l-3.5,12.4l-6.9,33.7c0,0-11.9,46.6-14.9,49.6c0,0-9.9,27.8-10.9,27.8l-9.9,21.8l-1,2l-4-7.9L120,325.8
				c0,0-6.9-19.8-6.9-28.8c0,0-1-23.8-2-25.8l-5-21.8c0,0-2-9.9,1-17.8C107.1,231.6,114,212.7,113.5,212.2z"/>
			<path class="st5" d="M86.7,138.9c0,0-7.9,5,5.9,18.8l8.9,5.9c0,0,14.9,18.8,26.8,28.8c0,0,5,5,12.9,6.9c0,0,2,3,12.9-6.9
				l11.9-10.9c0,0,11.9-14.9,13.9-21.8c0,0,8.9-5.9,12.9-16.9c0,0,1-13.9-4-13.9l-7.9-25.8l-77.3-27.8L86.7,138.9z"/>
			<path class="st7" d="M111,88.8c0,0-8.9,20.8-1,42.6c0,0-9.9-8.9-9.9-25.8V84.8L111,88.8z"/>
			<path class="st7" d="M116.5,100.2c0,0,10.9,28.8,22.8,31.7c0,0-11.9-10.9-10.9-16.9c0,0,9.9,16.9,23.8,18.8c13.9,2,2,0,2,0
				s-18.8-13.9-23.8-24.8L116.5,100.2z"/>
			<path class="st5" d="M174,739.7c0,0,1,39.7,12.9,62.5c0,0,2,49.6,7.9,66.4c0,0,10.9,52.6,13.9,65.4c0,0,8.9,40.7,11.9,58.5
				l2,20.8c0,0,1,10.9,18.8,12.9h7.9v-1l1-1c0,0,14.9,0,15.9,0l-2-16.9l-5.9-54.5l-5-55.5l-4-41.6l-5-54.5c0,0,5-5.9,0-32.7
				c0,0-4-26.8-2-29.7c0,0-9.9,9.9-20.8,10.9C221.6,749.7,193.8,760.6,174,739.7z"/>
			<path class="st11" d="M86.2,120.5c0,0,7.9,16.9,10.9,22.8l-3-17.8c0,0,5,13.9,11.9,22.8c0,0-6.9-23.8-6.9-35.7
				c0,0,4,11.9,6.9,14.9c0,0-6.9-19.8,0-37.7c0,0,20.8,39.7,29.7,40.7c0,0-8.9-8.9-12.9-20.8c0,0,8.9,15.9,28.8,21.8
				c0,0-15.9-15.9-16.9-19.8c0,0,14.9,12.9,30.7,13.9l-10.9-12.9c0,0,4,1,12.9,5.9c0,0,5,3,14.9,2c0,0,2,12.9-2,23.8
				c0,0,9.9-7.9,11.9-18.8c0,0,5.9,5,5.9,10.9c0,0,2,0,1-11.9c0,0,3,2,5.9,2l-5.9-5c0,0,3-1,6.9-3l-5-2l4-4h-4c0,0-6.9-5-7.9-11.9
				c0,0,5.9,8.9,14.9,9.9c0,0-4-5-5-11.9c0,0-1-15.9-3-17.8c0,0-4-14.9-12.9-23.8c0,0,3,1,5.9-2c0,0-5,2-9.9-3c0,0-7.9-7.9-12.9-7.9
				l-17.8-10.9c0,0-13.9-5.9-35.7,1l5-4c0,0-17.8,3-25.8,11.9c0,0,1-8.9,3-9.9c0,0-5,1-5,11.9c0,0-7.9,1-10.9,9.9
				c0,0-7.9,6.9-9.9,15.9c0,0-9.9,9.9-6.9,21.8l4-7.9c0,0-3,20.8,0,34.7l3-8.9c0,0,1,13.9-1,17.8c0,0,3,1,5.9-6.9l1,3
				c0,0,2,10.9,7.9,18.8l2-12.9L86.2,120.5z"/>
			<path class="st5" d="M61,750.6c0,0-5,10.9,6.9,38.7l4,11.9c0,0,6.9,28.8,7.9,43.6c0,0,5,28.8,6.9,46.6l5,62.5l1,60.5l2,2l1,9.9
				c0,0,13.9-3,17.8,0c0,0,3,0,4,5c0,0,10.9-4,11.9-15.9l1-5.9l2-2c0,0-3-2-1-12.9l3-38.7l4-39.7c0,0,4-35.7,3-50.6
				c0,0-1-32.7-8.9-57.5c0,0-5.9-24.8-5.9-32.7c0,0-2-18.8,0-27.8c0,0-18.8,8.9-45.6,5.9C80.8,753.6,62.9,752.6,61,750.6z"/>
			<path class="st5" d="M228.5,552.3c0,0,21.8,18.8,22.8,18.8c0,0-5.9,15.9-5.9,18.8c0,0-9.9-5-12.9-16.9l-1-2l-3-13.9V552.3"/>
			<g>
				<path class="st12" d="M98.6,128c0,0,2.6,3.9,5.8,5.8c0,0,9,3.2,18,0c0,0,2.6-1.3,1.9-5.1c0,0-4.5-3.2-16.7-3.2L98.6,128z"/>
				<path class="st12" d="M153.3,128c0,0-0.6,4.5,5.1,5.8c0,0,9,1.9,14.8,0c0,0,3.9-1.9,5.1-5.8l-2.6-2.6c0,0-7.7-1.3-11.6,0
					L153.3,128z"/>
				<g>
					<g>
						<path d="M106.2,89.2c-0.3-0.4-0.5-0.8-0.8-1.2c-0.3-0.4-0.9,0-0.6,0.4c4.5,7.7,9,15.4,13.6,23c3.7,6.3,7.7,12.3,13.3,17.1
							c0.4,0.3,0.9-0.2,0.5-0.5c-6-5.1-10.1-11.6-14-18.3c-2-3.3-3.9-6.6-5.9-10c-1-1.7-2-3.3-2.9-5c-0.7-1.1-1.3-2.2-2-3.3
							c-0.2-1.3-0.8-1.9-1.8-1.7C105.8,90,106.4,89.6,106.2,89.2L106.2,89.2z"/>
					</g>
				</g>
				<g>
					<g>
						<path d="M120.7,106.1c4.3,8.2,7.9,18.5,15.3,24.5c0.4,0.3,0.9-0.2,0.5-0.5c-7.3-5.9-10.9-16.2-15.2-24.3
							C121.1,105.2,120.4,105.6,120.7,106.1L120.7,106.1z"/>
					</g>
				</g>
				<g>
					<g>
						<path d="M122.5,109.9c7.7,9.9,16.2,20.1,29.4,21.7c0.5,0.1,0.5-0.7,0-0.8c-13-1.5-21.3-11.8-28.8-21.4
							C122.7,109,122.2,109.5,122.5,109.9L122.5,109.9z"/>
					</g>
				</g>
				<g>
					<g>
						<path d="M134.4,111.2c1.2,1.5,2.1,3.8,3.3,5.4c1.1,1.6,2.4,3.2,3.7,4.7c3.1,3.7,6.6,7,10.4,9.9c0.4,0.3,0.9-0.2,0.5-0.5
							c-4-3.1-7.6-6.6-10.8-10.4c-1.8-2.2-3.4-4.4-4.9-6.8c-0.6-1-1-2.4-2.1-2.9c-0.1-0.1-0.3-0.1-0.5,0.1c-0.1,0.1-0.2,0.2-0.2,0.3
							c-0.1,0.2-0.1,0.4,0,0.5c0.1,0.1,0.1,0.2,0.2,0.2C134.1,112.1,134.7,111.6,134.4,111.2L134.4,111.2z"/>
					</g>
				</g>
				<g>
					<g>
						<path d="M133.6,111.2c10.1,8.9,22.4,14.2,35.7,15.5c0.5,0,0.5-0.7,0-0.8c-13.1-1.3-25.3-6.5-35.2-15.3
							C133.8,110.3,133.2,110.8,133.6,111.2L133.6,111.2z"/>
					</g>
				</g>
				<g>
					<g>
						<path d="M133.8,84.9c7.5,5.7,12.6,15.9,17.9,23.5c4.7,6.8,9.6,13.3,15.4,19.2c0.3,0.3,0.9-0.2,0.5-0.5
							c-6.9-7.1-12.6-15.1-18.2-23.3c-4.5-6.6-8.8-14.7-15.3-19.6C133.8,83.9,133.4,84.6,133.8,84.9L133.8,84.9z"/>
					</g>
				</g>
				<g>
					<g>
						<path d="M153.3,112.3c5.5,2,10.5,5.1,16,7.2c2.4,0.9,4.8,1.7,7.3,1.9c2.3,0.3,7.1-0.9,9,0.4c0.4,0.3,0.8-0.4,0.4-0.6
							c-1.2-0.7-2-0.7-3.4-0.7c-4.1,0.2-7.5,0.3-11.6-1.1c-6.1-2.1-11.5-5.7-17.6-7.8C153,111.4,152.8,112.1,153.3,112.3
							L153.3,112.3z"/>
					</g>
				</g>
				<g>
					<g>
						<path d="M162.5,98.4c5.5,6,11.4,11.7,19,14.9c0.2,0.1,8.3,2.9,8.5,2.2c-0.2,0.6-11.7,2.4-13.2,2.7c-0.5,0.1-0.3,0.8,0.2,0.7
							c5-1.1,9.9-2.2,14.9-3.4c0.4-0.1,0.3-0.7-0.1-0.7c-12-0.8-21-8.5-28.8-17C162.7,97.5,162.2,98,162.5,98.4L162.5,98.4z"/>
					</g>
				</g>
				<g>
					<g>
						<path d="M182.6,107.9c5.5,3.4,11.7,5.4,18.2,5.5c2.3,0,4.7,0,1,2.1c-1.3,0.7-2.9,1.1-4.3,1.5c-4.5,1.1-9.1,1.4-13.7,1.6
							c-0.5,0-0.5,0.8,0,0.8c6.7-0.3,17.5-0.1,21.7-6.4c0.1-0.2,0-0.6-0.3-0.6c-7.9,0.8-15.4-0.9-22.2-5.1
							C182.5,107,182.2,107.7,182.6,107.9L182.6,107.9z"/>
					</g>
				</g>
				<g>
					<g>
						<path d="M200.2,116.4c1.4,0.6,3.7,0.8,4.8,1.7c1.1,0.8,0.6-0.1,0.7,0.2c0.1,0.2-3.9,1.6-4.2,1.6c-5.4,1.6-10.9,1.6-16.3,0.4
							c-0.5-0.1-0.7,0.6-0.2,0.7c7.7,1.7,15.4,0.7,22.5-2.8c0.4-0.2,0.1-0.7-0.2-0.7c-2.6-0.3-4.4-0.8-6.7-1.9
							C200.2,115.6,199.8,116.3,200.2,116.4L200.2,116.4z"/>
					</g>
				</g>
				<g>
					<g>
						<path d="M193.8,127.9c2.6,2.7,4.2,6,4.5,9.8c0,0.5,0.8,0.5,0.8,0c-0.3-3.9-2-7.5-4.7-10.3C194,127,193.4,127.6,193.8,127.9
							L193.8,127.9z"/>
					</g>
				</g>
				<g>
					<g>
						<path d="M198.2,121.1c1.7,5.3,1.7,10.6,0.2,16c-0.1,0.5,0.6,0.7,0.7,0.2c1.6-5.5,1.5-10.9-0.2-16.4
							C198.8,120.4,198.1,120.6,198.2,121.1L198.2,121.1z"/>
					</g>
				</g>
				<g>
					<g>
						<path d="M198.4,124.6c2,1.6,4.3,2.3,6.8,2c0.3,0,0.5-0.4,0.3-0.6c-2-1.9-4.1-3.7-6.4-5.2c-0.4-0.3-0.8,0.4-0.4,0.6
							c2.2,1.5,4.3,3.2,6.2,5.1c0.1-0.2,0.2-0.4,0.3-0.6c-2.3,0.3-4.5-0.3-6.3-1.8C198.6,123.8,198,124.3,198.4,124.6L198.4,124.6z"
							/>
					</g>
				</g>
				<g>
					<g>
						<path d="M174.8,64.6c6.6,8.9,12.8,18,15.9,28.8c2.2,7.8,4.1,16.1,11.6,20.5c0.4,0.2,0.8-0.4,0.4-0.6
							c-9.4-5.6-9.7-17.4-13.4-26.6c-3.3-8.2-8.5-15.4-13.7-22.4C175.1,63.8,174.5,64.2,174.8,64.6L174.8,64.6z"/>
					</g>
				</g>
				<g>
					<g>
						<path d="M152.5,47.1c5.8,4.7,11.5,9.7,17.7,13.9c2.6,1.8,5.4,3.3,8.4,4.5c1.4,0.6,3.6,0.8,4.8,1.7c1.8-0.1,2.2,0.5,1,1.8
							c-1.6,0.9-3.3,1.2-5,0.9c-0.5,0-0.5,0.7,0,0.8c3.2,0.2,5.3-0.7,7.7-2.7c0.2-0.2,0.1-0.6-0.2-0.6
							c-13.5-3.1-23.3-12.3-33.9-20.8C152.7,46.3,152.2,46.8,152.5,47.1L152.5,47.1z"/>
					</g>
				</g>
				<g>
					<g>
						<path d="M154.3,37.5c6.1,5.8,14.7,5.4,21.9,9.1c4,2,5.8,6.2,9.6,8.1c1.2,0.6,2.6,1,4,1.1c0.4,0,1-0.1,1.4,0
							c1.5-0.4,1.7-0.3,0.8,0.2c-1.2,0.9-2.6,1.3-4.3,1.1c-0.4,0-0.5,0.4-0.3,0.6c4.2,5.2,8,10.2,10.1,16.6c0.2,0.5,0.9,0.3,0.7-0.2
							c-1.6-4.7-4-8.8-7-12.7c-1.2-1.6-2.9-2.5-1.5-3.7c1.2-1,2.9-1.2,4.1-2.5c0.3-0.3,0-0.7-0.4-0.6c-8.6,2.5-11.9-6.6-18.9-9.4
							c-6.7-2.7-14.4-2.9-19.9-8.1C154.5,36.6,153.9,37.2,154.3,37.5L154.3,37.5z"/>
					</g>
				</g>
				<g>
					<g>
						<path d="M194.1,101.8c2.2,3.7,5,5.7,8.9,7.4c0.4,0.2,0.8-0.5,0.4-0.6c-3.8-1.6-6.5-3.5-8.6-7.2
							C194.5,101.1,193.9,101.4,194.1,101.8L194.1,101.8z"/>
					</g>
				</g>
				<g>
					<g>
						<path d="M98.7,53.3c-2.7-5.2-7.2-15.1-1.2-19.9c0.9-0.7,0.7-1.2,0.1,0.7c-0.3,0.9-0.7,1.8-0.9,2.8c-0.6,2.4-0.8,4.8-0.8,7.2
							c0,0.5,0.8,0.5,0.8,0c0-4.4,0.8-8.3,2.8-12.2c0.2-0.3-0.2-0.7-0.5-0.5c-8.2,5.3-4.4,15.4-0.9,22.4
							C98.3,54.1,99,53.7,98.7,53.3L98.7,53.3z"/>
					</g>
				</g>
				<g>
					<g>
						<path d="M95.5,45.4c2.5-6.3,9.5-9.2,15.4-11.5c2.2-0.8,4.4-1.6,6.7-2.2c4.2-1.2,3.8-0.9,0.8,2c-0.3,0.3,0.2,0.9,0.5,0.5
							c1.3-1.3,2.6-2.6,4-3.8c0.3-0.3,0-0.7-0.4-0.6c-9.4,2-23.8,5.5-27.8,15.5C94.6,45.7,95.3,45.9,95.5,45.4L95.5,45.4z"/>
					</g>
				</g>
				<g>
					<g>
						<path d="M116.8,35.2c7-3.6,15.7-4,23.4-3.8c3.3,0.1,7,0.2,10.2,1.1c0.6,0.2,6.1,2.7,5.8,2.8c-0.1,0.1-3.2-1.5-3.5-1.7
							c-0.4-0.2-0.8,0.5-0.4,0.6c1.6,0.7,3.2,1.4,4.8,2.1c0.4,0.2,0.7-0.3,0.5-0.6c-4.1-4.8-11.6-4.9-17.4-5
							c-7.8-0.2-16.8,0.2-23.8,3.9C116,34.8,116.4,35.4,116.8,35.2L116.8,35.2z"/>
					</g>
				</g>
				<g>
					<g>
						<path d="M156.4,35.6c4.8,2.6,9.5,5.5,14,8.6c0.4,0.3,0.8-0.4,0.4-0.6c-4.5-3.1-9.2-5.9-14-8.6C156.4,34.8,156,35.4,156.4,35.6
							L156.4,35.6z"/>
					</g>
				</g>
				<g>
					<g>
						<path d="M94.1,43.8c-6.1,0.3-9.1,5.4-11.4,10.3c-0.2,0.4,0.4,0.8,0.6,0.4c2.2-4.7,5-9.7,10.8-10
							C94.5,44.6,94.5,43.8,94.1,43.8L94.1,43.8z"/>
					</g>
				</g>
				<g>
					<g>
						<path d="M82.9,54.5c-2.3,1.7-4.3,3.7-5.9,6c-2,2.9-2.8,6.3-4.7,9.3c-0.3,0.4,0.4,0.8,0.6,0.4c1.5-2.4,2.2-5.2,3.7-7.7
							c1.7-2.9,4-5.3,6.7-7.4C83.7,54.9,83.3,54.2,82.9,54.5L82.9,54.5z"/>
					</g>
				</g>
				<g>
					<g>
						<path d="M80.5,63.7C70.1,69.6,64.2,81.1,65.7,93c0.1,0.5,0.7,0.5,0.8,0c1.1-8,5.5-14.5,10-20.9c0.3-0.4-0.4-0.8-0.6-0.4
							c-2.8,3.9-5.6,7.9-7.6,12.3c-0.8,1.7-1.7,3.7-2,5.6c-0.3,2.6-0.1,2.1-0.1-0.2c-0.1-10.4,5.8-20,14.7-25
							C81.3,64.1,80.9,63.5,80.5,63.7L80.5,63.7z"/>
					</g>
				</g>
				<g>
					<g>
						<path d="M70.2,80.5c-2.1,12.8-2,25.5,0.1,38.3c0.1,0.4,0.7,0.3,0.7-0.1c1-9.6,3.7-18.7,8.1-27.3c0.2-0.4-0.4-0.8-0.6-0.4
							c-2.1,4.1-3.8,8.2-5.2,12.6c-0.4,1.4-3.8,12.6-2.7,13.2c-0.8-0.4-0.8-7.2-0.9-8.6c-0.2-2.8-0.4-5.7-0.4-8.5
							c0-6.4,0.6-12.7,1.6-19C71,80.3,70.3,80.1,70.2,80.5L70.2,80.5z"/>
					</g>
				</g>
				<g>
					<g>
						<path d="M83.7,103.6c0.7,1,0.3,5.4,0.4,6.8c0.1,1.5,0.3,3.1,0.5,4.6c0.5,3.4,1.5,6.7,2.8,10c2.5,6.5,6.2,12.5,9.8,18.4
							c0.2,0.4,0.8,0.1,0.7-0.3c-1.2-5.8-2.4-11.5-3.6-17.3c-0.1-0.5-0.8-0.3-0.7,0.2c0.5,2.6,1.1,5.1,1.6,7.7
							c0.2,1,2.2,7.1,1.6,7.7c0.2-0.2-5.5-9.8-6.2-11.2c-2.4-4.9-4.3-10-5.1-15.4c-0.5-3.4,0.2-8.6-1.6-11.6
							c-0.1-0.2-0.4-0.2-0.6-0.1c-0.1,0.1-0.2,0.1-0.2,0.2c-0.1,0.1-0.1,0.3-0.1,0.5c0,0.1,0.1,0.1,0.1,0.2
							C83.3,104.4,83.9,104,83.7,103.6L83.7,103.6z"/>
					</g>
				</g>
				<g>
					<g>
						<path d="M95.5,77.9c0.8-1-1,2-1.2,2.4c-0.5,1.4-1,2.9-1.4,4.3c-0.9,3-1.5,6-1.9,9c-0.9,6.6-1,13.2-0.1,19.8
							c1.7,12.8,6.9,24.7,15,34.7c0.2,0.3,0.7,0,0.6-0.4c-3.8-11.7-6.2-23.7-7-36c0-0.6,0.2-3.3-0.2-3.7c-1.2-1.3-0.5,2-0.5,2.3
							c0.3,2,0.7,3.9,1.3,5.8c1.4,4.4,3.6,8.3,6.5,11.8c0.2,0.3,0.8,0,0.6-0.4c-4.7-12.5-4.9-25.9-0.5-38.5c0.2-0.5-0.6-0.7-0.7-0.2
							c-2.9,8.5-4,17.5-2.7,26.4c0.3,2.3,0.8,4.5,1.4,6.7c0.1,0.4,1.1,4.1,1.3,4.1c-0.1,0-1.5-2.5-1.7-2.8c-3.1-5.4-4.8-11.1-5-17.3
							c0-0.5-0.8-0.5-0.8,0c0.3,9.9,1.5,19.7,3.7,29.3c0.6,2.4,1.2,4.8,1.9,7.1c0.1,0.3,1.1,3.5,1.1,3.5c-0.1,0-1.8-2.5-2-2.8
							c-2.5-3.5-4.6-7.3-6.3-11.3C89.2,114.6,89,94,96.7,76.3c0.2-0.4-0.3-0.8-0.6-0.5c-0.4,0.5-0.8,1-1.2,1.5
							C94.7,77.7,95.2,78.3,95.5,77.9L95.5,77.9z"/>
					</g>
				</g>
				<g>
					<g>
						<path d="M103.4,62.8c-4.2-0.1-5.8,1.4-4.9,5.6c1.3,5.8,2.8,11.1,5.8,16.3c0.2,0.4,0.9,0,0.6-0.4c-1.9-3.2-3.3-6.6-4.3-10.2
							c-0.4-1.5-0.8-3.1-1.1-4.6c-0.4-1.8-0.5-1.9,0.3-3.9c0.9-2.2,1.3-2.1,3.5-2.1C103.9,63.6,103.9,62.8,103.4,62.8L103.4,62.8z"
							/>
					</g>
				</g>
				<g>
					<g>
						<path d="M103.3,63.3c-1.2,20.5,14.7,35.3,33,41.2c0.5,0.1,0.7-0.6,0.2-0.7c-17.9-5.8-33.6-20.3-32.4-40.4
							C104.1,62.8,103.3,62.8,103.3,63.3L103.3,63.3z"/>
					</g>
				</g>
				<g>
					<g>
						<path d="M104.4,84.7c3.2,5.6,5.9,10.4,11.8,13.6c5.9,3.2,13.5,6.1,20.2,6.3c0.5,0,0.5-0.7,0-0.8c-6.4-0.1-14.2-3.1-19.9-6.2
							c-5.7-3.1-8.4-7.9-11.5-13.3C104.8,83.9,104.1,84.3,104.4,84.7L104.4,84.7z"/>
					</g>
				</g>
				<g>
					<g>
						<path d="M100.6,58.6c-1.9,1.3-4.2,1.5-6.2,2.6c-1.7,1-3,2.5-3.9,4.2c-0.2,0.4,0.4,0.8,0.6,0.4c1.1-2.2,2.8-3.8,5.1-4.6
							c1.6-0.6,3.3-0.9,4.7-1.9C101.4,58.9,101,58.3,100.6,58.6L100.6,58.6z"/>
					</g>
				</g>
				<g>
					<g>
						<path d="M94.9,53.4c-3.6,0.5-7.3,0.8-11,1c-0.5,0-0.5,0.8,0,0.8c3.7-0.1,7.5-0.5,11.2-1C95.6,54.1,95.4,53.3,94.9,53.4
							L94.9,53.4z"/>
					</g>
				</g>
				<g>
					<g>
						<path d="M104.9,56.8c3-17.9,35.1,0.7,42.8,6.3c11.4,8.3,20.5,19.2,26.6,31.9c0.2,0.4,0.9,0.1,0.6-0.4
							c-7.2-15-18.8-27.7-33.1-36.3c-7.9-4.7-34.8-18.5-37.6-1.7C104.1,57.1,104.8,57.3,104.9,56.8L104.9,56.8z"/>
					</g>
				</g>
				<g>
					<g>
						<path d="M136.7,47.8c10.1,4.5,20.4,9.3,27,18.6c5.9,8.3,8.5,18.5,11,28.2c0.1,0.5,0.8,0.3,0.7-0.2c-2.6-10.3-5.4-21-12-29.6
							c-6.6-8.7-16.6-13.3-26.4-17.6C136.6,47,136.3,47.6,136.7,47.8L136.7,47.8z"/>
					</g>
				</g>
				<g>
					<g>
						<path d="M113.6,58.6c12.4,2.7,19.8,15.8,29.2,23.4c8.2,6.6,17.6,11.4,28.3,11.9c0.5,0,0.5-0.7,0-0.8
							c-13.3-0.7-24.5-8.1-33.8-17.1c-7.1-6.9-13.2-15.9-23.5-18.2C113.3,57.8,113.1,58.5,113.6,58.6L113.6,58.6z"/>
					</g>
				</g>
				<g>
					<g>
						<path d="M138,89.1c9.3,6.6,20.9,8.1,31.6,4.3c0.5-0.2,0.3-0.9-0.2-0.7c-10.5,3.8-21.9,2.2-31-4.2
							C138,88.2,137.6,88.9,138,89.1L138,89.1z"/>
					</g>
				</g>
				<g>
					<g>
						<path d="M72.6,109.3c1.3,6.7,0.8,13.3-1.5,19.7c-0.1,0.3,0.3,0.6,0.6,0.4c2-1.5,3.9-3.1,5.4-5.1c2.1-2.7,1.2-2.9,1.8,0.2
							c1.3,6.6,5.3,13.2,8,19.3c0.1,0.3,0.6,0.2,0.7-0.1c0.8-4.5,1.5-9,2.2-13.6c0.1-0.5-0.6-0.7-0.7-0.2c-0.5,2.9-0.9,5.8-1.4,8.7
							c-0.7,4.1-0.9,3-2.4-0.4c-2.5-5.6-6.5-11.8-5.8-18c0-0.4-0.5-0.5-0.7-0.2c-1.2,2.3-2.7,4.7-4.7,6.4c-1.9,1.6-1.1,1.1-1.2-0.5
							c0-1.3,0.7-2.8,0.9-4.1c0.7-4.3,0.4-8.5-0.4-12.8C73.3,108.7,72.5,108.9,72.6,109.3L72.6,109.3z"/>
					</g>
				</g>
				<g>
					<g>
						<path d="M189.3,121.6c2,1.8,3.5,4,4.4,6.5c0.2,0.4,0.9,0.3,0.7-0.2c-1-2.6-2.5-4.9-4.6-6.8C189.5,120.7,189,121.2,189.3,121.6
							L189.3,121.6z"/>
					</g>
				</g>
				<g>
					<g>
						<path d="M181.8,121.4c1.5,8,0.8,15.8-2.1,23.4c-0.1,0.4,0.4,0.6,0.6,0.4c6.1-5.2,10.3-11.8,12.4-19.5c0.1-0.5-0.6-0.7-0.7-0.2
							c-1.2,4.2-2.9,8.2-5.4,11.8c-1.1,1.6-2.3,3.1-3.6,4.4c-0.7,0.7-1.4,1.4-2.1,2c0.2-0.6,0.4-1.1,0.6-1.7
							c0.3-3.2,1.5-6.3,1.8-9.5c0.3-3.8-0.1-7.5-0.8-11.2C182.5,120.7,181.7,120.9,181.8,121.4L181.8,121.4z"/>
					</g>
				</g>
				<g>
					<g>
						<path d="M99.2,117c4.9,0.4,9.6-0.4,14.5,0.3c4.9,0.7,9.7,2.2,14.4,3.8c0.5,0.1,0.7-0.6,0.2-0.7c-4.7-1.5-9.5-3.1-14.5-3.8
							c-4.9-0.7-9.7,0.2-14.6-0.2C98.7,116.2,98.7,116.9,99.2,117L99.2,117z"/>
					</g>
				</g>
				<g>
					<g>
						<path d="M198,74.6c2.7,6,4.3,12.3,4.4,18.9c0,1.1,0,2.3-0.1,3.4c-0.1,2.1,0.3,3-0.6,0.7c-1-2.8-1.7-5.7-2.6-8.5
							c-0.2-0.5-0.9-0.3-0.7,0.2c1.4,3.9,2.5,7.9,3.5,12c0.1,0.3,0.7,0.4,0.7,0c1.4-9.4,0.1-18.5-3.9-27.1
							C198.4,73.8,197.8,74.1,198,74.6L198,74.6z"/>
					</g>
				</g>
				<g>
					<g>
						<path d="M202.4,97.7c0.7,5,2.7,9.6,6,13.4c0.1-0.2,0.2-0.4,0.4-0.6c-1.7-0.6-3.5-1.3-5.2-1.9c-0.5-0.2-0.6,0.6-0.2,0.7
							c1.7,0.6,3.5,1.3,5.2,1.9c0.4,0.1,0.6-0.4,0.4-0.6c-3.2-3.8-5.2-8.2-5.8-13.1C203.1,97.1,202.3,97.3,202.4,97.7L202.4,97.7z"
							/>
					</g>
				</g>
				<g>
					<g>
						<path d="M90.3,136.1c2.6,15,10.3,28.2,20.3,39.5c5.4,6.2,11.5,11.7,17.7,17.1c4.5,3.8,9.3,8.7,15.7,7.3
							c0.5-0.1,0.3-0.8-0.2-0.7c-7.8,1.7-15.6-7.5-20.9-12.3c-5-4.5-9.7-9.3-14.1-14.5c-8.8-10.6-15.4-22.8-17.8-36.5
							C91,135.4,90.3,135.6,90.3,136.1L90.3,136.1z"/>
					</g>
				</g>
				<g>
					<g>
						<path d="M183.3,142.8c-1.6,5.6-1.9,11.4-3.9,16.8c-2.1,6-5.4,11.4-9.4,16.3c-7.3,9-16.3,16.6-25.5,23.4
							c-0.4,0.3,0,0.9,0.4,0.6c9.7-7.2,19.3-15.3,26.7-24.9c3.1-4,5.7-8.3,7.7-13c2.5-6.2,2.9-12.8,4.8-19.1
							C184.1,142.6,183.4,142.4,183.3,142.8L183.3,142.8z"/>
					</g>
				</g>
				<g>
					<g>
						<path d="M85.1,139.3c-3.1,4.3,0.2,9.8,2.8,13.5c3.5,4.9,8.1,7.9,13.4,10.6c0.4,0.2,0.8-0.4,0.4-0.6c-3.9-1.9-7.4-3.9-10.4-7.1
							c-3.4-3.6-9-11-5.5-16C86,139.3,85.4,138.9,85.1,139.3L85.1,139.3z"/>
					</g>
				</g>
				<g>
					<g>
						<path d="M191.3,131.2c4.2,11.4-2.9,22.6-12.1,28.9c-0.4,0.3,0,0.9,0.4,0.6c9.4-6.6,16.8-18.1,12.4-29.8
							C191.8,130.5,191.1,130.7,191.3,131.2L191.3,131.2z"/>
					</g>
				</g>
				<g>
					<g>
						<path d="M136.4,140.3c-0.4,5.5-2.1,11.2-1.9,16.6c0.1,2.5,1.2,4.5,3.5,5.4c0.4,0.2,0.6-0.5,0.2-0.7c-4.7-1.9-2.6-8.1-2.1-11.7
							c0.5-3.2,0.7-6.4,1-9.6C137.2,139.9,136.4,139.9,136.4,140.3L136.4,140.3z"/>
					</g>
				</g>
				<g>
					<g>
						<path d="M130.4,173.2c3.9,0.4,7.8,1,11.7,1.1c3.6,0.1,6.9-1,10.3-2.1c0.5-0.2,0.3-0.9-0.2-0.7c-7.5,2.6-14,1.8-21.7,1
							C129.9,172.4,129.9,173.2,130.4,173.2L130.4,173.2z"/>
					</g>
				</g>
				<g>
					<g>
						<path d="M139.5,179.1c1-0.4,2-0.4,3,0c0.4,0.2,0.8-0.5,0.4-0.6c-1.1-0.5-2.4-0.6-3.5-0.1C138.9,178.5,139.1,179.3,139.5,179.1
							L139.5,179.1z"/>
					</g>
				</g>
				<g>
					<g>
						<path d="M117.2,181.9c2.5,0.6-0.4,17.2-0.7,18.5c-0.9,5.1-2.2,10.1-3.8,15.1c-0.1,0.5,0.6,0.7,0.7,0.2
							c2.2-6.7,3.8-13.6,4.7-20.6c0.4-3,2.3-11.2-0.9-13.4c-0.2-0.1-0.5,0-0.6,0.2c0,0.1,0,0.1,0,0.2c0,0.2,0.1,0.4,0.3,0.5
							c0.1,0,0.1,0,0.2,0C117.4,182.7,117.6,182,117.2,181.9L117.2,181.9z"/>
					</g>
				</g>
				<g>
					<g>
						<path d="M168.3,178.2c-0.7,8.9,0.4,18.2,4.1,26.4c2.8,6.2,7.7,8.6,14,10.6c0.5,0.1,0.7-0.6,0.2-0.7
							c-8.3-2.6-12.6-6.4-15.3-14.8c-2.2-7-2.9-14.2-2.3-21.5C169.1,177.7,168.3,177.7,168.3,178.2L168.3,178.2z"/>
					</g>
				</g>
				<g>
					<g>
						<path d="M161.2,198.6c-1.7,9.4-3.5,18.8-5.2,28.1c-0.4,2.4-1.2,8.1,3,6.3c0.4-0.2,0.1-0.8-0.4-0.6c-3.3,1.4-1.1-10-0.9-11
							c0.5-2.5,0.9-5,1.4-7.5c0.9-5,1.9-10,2.8-15C162,198.3,161.2,198.1,161.2,198.6L161.2,198.6z"/>
					</g>
				</g>
				<g>
					<g>
						<path d="M49.9,287c-1.3,15.4-2.6,30.8-1.2,46.2c1.3,14.8,4.6,29.3,5.1,44.2c1.2,30.8-3.3,61.6-1.6,92.4c0,0.5,0.8,0.5,0.8,0
							c-1.8-30.8,2.7-61.6,1.6-92.4c-0.6-14.9-3.8-29.4-5.1-44.2c-1.4-15.4-0.1-30.9,1.2-46.2C50.7,286.6,49.9,286.6,49.9,287
							L49.9,287z"/>
					</g>
				</g>
				<g>
					<g>
						<path d="M51.5,463.4c-3.4,8.2-7,16.5-10.3,24.8c-2.3,5.7-4.1,11.7-0.9,17.4c0.2,0.4,0.9,0,0.6-0.4c-4-7.1,0.2-15.1,3-21.8
							c2.7-6.6,5.5-13.2,8.2-19.7C52.4,463.2,51.7,463,51.5,463.4L51.5,463.4z"/>
					</g>
				</g>
				<g>
					<g>
						<path d="M38.8,505.1c-1.4,2.7-2.9,5.6-2.7,8.8c0.3,4.8,1.4,9.3,1.3,14.2c-0.1,11-0.3,22-0.5,33c0,0.5,0.7,0.5,0.8,0
							c0.1-9.7,0.3-19.4,0.4-29.1c0.1-4,0.4-8.2-0.1-12.2c-0.7-5.5-1.2-9.1,1.5-14.3C39.6,505.1,39,504.7,38.8,505.1L38.8,505.1z"/>
					</g>
				</g>
				<g>
					<g>
						<path d="M109.3,236.3c8.9,9.1,21.5,13.9,34.2,13.3c15.1-0.8,26.1-9.9,36.7-19.8c0.4-0.3-0.2-0.9-0.5-0.5
							c-10.4,9.7-21.3,18.8-36.2,19.6c-12.5,0.6-24.9-4.1-33.7-13.1C109.5,235.4,109,235.9,109.3,236.3L109.3,236.3z"/>
					</g>
				</g>
				<g>
					<g>
						<path d="M108.9,245.1c5.5,3.9,9.8,9.7,15.9,12.9c5.6,2.9,12.8,2.7,19,2.3c7.1-0.5,12.9-3.8,18.9-7.4
							c7.6-4.6,15.1-9.4,22.5-14.4c0.4-0.3,0-0.9-0.4-0.6c-6.3,4.3-12.7,8.4-19.2,12.4c-6.8,4.2-13.6,8.7-21.8,9.3
							c-7.1,0.5-15,0.4-21.1-3.7c-4.9-3.3-8.6-8-13.4-11.4C108.9,244.2,108.5,244.9,108.9,245.1L108.9,245.1z"/>
					</g>
				</g>
				<g>
					<g>
						<path d="M100.6,220.7c-15.9,9.5-31.8,19-47.9,28.1c-3.3,1.9-6.6,3.5-9.9,5.3c-4.5,2.5-4.6,6-5.5,10.5c-0.8,4.4-2.3,8.6-3.1,13
							c-2.1,11.2-2.6,22.7-2.9,34c-0.4,12,0.1,24-0.7,35.9c-0.7,9.3-2.3,18.5-2.3,27.9c0,0.5,0.8,0.5,0.8,0c0-7.9,1.1-15.6,1.9-23.4
							c1-10.1,0.7-20.1,0.9-30.2c0.2-13.5,0.5-27.1,2.5-40.4c0.7-5,2-9.7,3.3-14.6c0.9-3.5,0.7-7.6,3.1-10.4
							c2.1-2.5,7.3-4.2,10.1-5.7c16.9-9.5,33.5-19.5,50.2-29.4C101.4,221.1,101.1,220.4,100.6,220.7L100.6,220.7z"/>
					</g>
				</g>
				<g>
					<g>
						<path d="M28.6,375.8c-0.2,8.5,1.4,16.7,2.8,25.1c0.8,4.7,1.5,9.4,1.7,14.2c0.1,2.1-0.9,5.3,0.7,7c0.1,0.1,0.3,0.1,0.5,0.1
							c0.5-0.3,0.5-0.3,0.5-1c0-0.2-0.2-0.4-0.4-0.4c-0.1,0-0.2,0-0.3,0c-0.5,0-0.5,0.7,0,0.8c0.3,0-1.7-18.9-2-20.8
							c-1.4-8.3-2.9-16.5-2.7-24.9C29.4,375.3,28.6,375.3,28.6,375.8L28.6,375.8z"/>
					</g>
				</g>
				<g>
					<g>
						<path d="M32.8,411.4c-7,16-12.2,32.8-15.3,50c-3.2,17.7-3.7,35.5-3.6,53.5c0,0.5,0.8,0.5,0.8,0c-0.1-17.9,0.3-35.6,3.5-53.3
							c3.1-17.2,8.3-33.8,15.3-49.8C33.6,411.3,33,410.9,32.8,411.4L32.8,411.4z"/>
					</g>
				</g>
				<g>
					<g>
						<path d="M14.3,507.9c-3.8,6.5-6.3,12-5.3,19.7c1.1,8.4,2.8,16.7,4.2,25c0.4,2.5,0.5,4.6,2.3,6.4c2.3,2.4,5.7,4.2,8.5,6
							c6.4,4.2,5.5-1.6,11.1-3.8c0.4-0.2,0.3-0.9-0.2-0.7c-1.1,0.5-1.8,1-2.7,1.9c-0.6,0.7-1,1.6-1.7,2.1c-2.7,2.1-4.7,0.4-6.8-0.7
							c-2.7-1.3-7.8-4.9-9-7.6c-1-2.4-1-5.9-1.4-8.5c-1-5.9-2-11.7-2.9-17.6c-1.4-8.6,0.4-14.5,4.7-21.9
							C15.2,507.8,14.5,507.5,14.3,507.9L14.3,507.9z"/>
					</g>
				</g>
				<g>
					<g>
						<path d="M30.9,565.4c3.1,1.1,5.8,2.8,8.2,5.1c0.3,0.3,0.9-0.2,0.5-0.5c-2.4-2.4-5.3-4.2-8.5-5.3
							C30.7,564.5,30.5,565.2,30.9,565.4L30.9,565.4z"/>
					</g>
				</g>
				<g>
					<g>
						<path d="M15.2,558.6c0,2.9-1.2,8.4,0.3,11.1c1.4,2.5,5.9,3.7,8.5,4.6c2.9,1.1,13.6,5.8,15.1,0.5c0.1-0.5-0.6-0.7-0.7-0.2
							c-0.5,1.8-4.3,1.7-5.7,1.4c-1.1-0.2-2.1-0.4-3.1-0.7c-2.6-0.7-5.1-1.6-7.6-2.7c-3.1-1.4-5.5-2.5-6.1-6.2
							c-0.4-2.4,0.1-5.4,0.1-7.9C16,558.1,15.2,558.1,15.2,558.6L15.2,558.6z"/>
					</g>
				</g>
				<g>
					<g>
						<path d="M113.4,211.6c-6.8,0-12.7,5.5-13.1,12.3c0,0.5,0.7,0.5,0.8,0c0.4-6.4,6-11.5,12.4-11.5
							C113.9,212.3,113.9,211.6,113.4,211.6L113.4,211.6z"/>
					</g>
				</g>
				<g>
					<g>
						<path d="M182,213.4c8.2-4.9,16.5,4.5,23.1,8.5c5.9,3.6,12.3,6.3,18.8,8.6c7,2.4,14.2,3.6,21.3,5.5c7.8,2.1,12.8,7.5,16.1,14.6
							c6.9,14.6,9.7,32.1,11.5,48c1.9,16.3,1.9,32.7,0.3,48.9c0,0.5,0.7,0.5,0.8,0c1.9-18.2,1.6-36.5-1-54.7
							c-1.3-9.3-3.3-18.6-5.8-27.7c-1.9-6.8-3.9-13.9-7.9-19.9c-3.4-5.1-7.9-8.4-13.8-10c-8.3-2.2-16.5-3.6-24.6-6.6
							c-8.7-3.2-16.3-7.7-23.8-13.1c-4.7-3.3-10-5.9-15.5-2.7C181.3,213,181.6,213.7,182,213.4L182,213.4z"/>
					</g>
				</g>
				<g>
					<g>
						<path d="M275,321.3c8.3,18.8,9.8,39.4,14.1,59.3c4,18.9,17.3,41.6,5.6,60.1c-0.3,0.4,0.4,0.8,0.6,0.4
							c11.3-17.9-0.5-39-4.7-57.2c-4.9-21-6.1-42.9-14.9-62.9C275.5,320.4,274.8,320.8,275,321.3L275,321.3z"/>
					</g>
				</g>
				<g>
					<g>
						<path d="M299.1,435.5c6,12.8-3.3,24.6-9.6,35.1c-5.4,9-9.2,18.9-11.1,29.2c-2,10.5,0,22.1-4,32.1
							c-3.6,9.2-10.5,16.7-12.2,26.6c-0.1,0.5,0.6,0.7,0.7,0.2c1.9-10.4,9.4-18.2,12.8-28c1.8-5.2,1.8-10.5,1.9-15.9
							c0.2-6.7,1-13.3,2.6-19.8c3.1-12.3,9.3-22.3,15.6-33.1c4.8-8.2,8.2-17.6,3.9-26.7C299.6,434.7,298.9,435.1,299.1,435.5
							L299.1,435.5z"/>
					</g>
				</g>
				<g>
					<g>
						<path d="M262,557c-3.6,6.2-11.6,3.7-15.5-0.6c-3.4-3.8-5.7-8.6-8.3-12.9c-0.2-0.4-0.9,0-0.6,0.4c3.4,5.8,6.9,14.2,13.7,16.9
							c4.2,1.7,9.1,0.6,11.4-3.4C262.8,556.9,262.2,556.5,262,557L262,557z"/>
					</g>
				</g>
				<g>
					<g>
						<path d="M241.5,553.3c-3-0.7-10-1.1-12-3.5c-2-2.4-0.9-9.2-0.9-12.4c0-3.9-1.1-9.2,1.4-12.5c2.2-2.8,6.6-5.2,9.4-7.4
							c0.4-0.3-0.2-0.8-0.5-0.5c-3.6,2.8-10.2,5.9-11,10.8c-0.6,3.3,0,7.2,0,10.6c0,4.1,0.1,8.3,0.1,12.4c0,0.2,0.1,0.3,0.3,0.4
							c4.3,1,8.7,2,13,3C241.8,554.1,242,553.4,241.5,553.3L241.5,553.3z"/>
					</g>
				</g>
				<g>
					<g>
						<path d="M256.4,559.8c-0.8,2.5-1.2,6-2.6,8.2c0,2-1,2.4-3,1.3c-1.6,0.2-2.9-0.3-3.9-1.6c-1.3-0.8-2.4-2.1-3.5-3.1
							c-5-4.3-9.9-8.6-14.9-12.9c-0.4-0.3-0.9,0.2-0.5,0.5c4,3.5,8,6.9,12.1,10.4c3,2.6,6.6,7.2,10.3,8.8c1.4,0.6,2.2,0.6,3.2-0.6
							c2-2.2,2.7-8.1,3.5-10.9C257.3,559.5,256.6,559.3,256.4,559.8L256.4,559.8z"/>
					</g>
				</g>
				<g>
					<g>
						<path d="M250.9,572c-2.5,5.4-4.5,11-5.9,16.8c-0.1,0.5,0.6,0.7,0.7,0.2c1.4-5.7,3.3-11.3,5.8-16.6
							C251.7,571.9,251.1,571.5,250.9,572L250.9,572z"/>
					</g>
				</g>
				<g>
					<g>
						<path d="M217.3,300c1.7,4.9,0.9,9.5,0.5,14.5c-0.3,4.1-0.3,8.1,0.2,12.1c1.1,8.7,4.1,16.8,8.7,24.2c0.3,0.4,0.9,0,0.6-0.4
							c-5.2-8.3-8.3-17.6-9-27.4c-0.5-7.7,2.2-15.9-0.4-23.3C217.9,299.4,217.2,299.6,217.3,300L217.3,300z"/>
					</g>
				</g>
				<g>
					<g>
						<path d="M232.2,291.2c-3.5,14.6-7.4,29.1-11.6,43.4c-0.1,0.5,0.6,0.7,0.7,0.2c4.2-14.4,8.1-28.9,11.6-43.4
							C233,290.9,232.3,290.7,232.2,291.2L232.2,291.2z"/>
					</g>
				</g>
				<g>
					<g>
						<path d="M255.9,311.4c-3.1,13.1-8.4,25.6-15.8,36.9c-2.1,3.1-4.3,6.1-6.7,9c-1.8,2.2-4,5.6-6.5,7.2c-1.7,1.1-1.4,1.7-1.7-1.1
							c-0.2-1.5,0.1-3.1,0.3-4.6c0.5-4.6,1.5-8.9,2.9-13.3c0.2-0.5-0.6-0.7-0.7-0.2c-2.3,7.1-3.4,14.3-3.2,21.7
							c0,0.3,0.4,0.5,0.6,0.3c15.6-15.3,26.5-34.6,31.5-55.8C256.7,311.1,256,310.9,255.9,311.4L255.9,311.4z"/>
					</g>
				</g>
				<g>
					<g>
						<path d="M225.6,365.5c1.1,7-0.3,14.1,0.6,21.1c0.7,5.1,2.9,9.8,5,14.4c5.8,12.7,9.7,26.1,11.8,40c0.1,0.5,0.8,0.3,0.7-0.2
							c-1.9-12.7-5.3-25-10.3-36.8c-3-6.9-6.3-13.3-6.7-20.9c-0.3-6,0.6-11.8-0.4-17.8C226.3,364.9,225.6,365.1,225.6,365.5
							L225.6,365.5z"/>
					</g>
				</g>
				<g>
					<g>
						<path d="M241.2,432.3c-8,11.3-7.8,25.4-7.6,38.7c0.2,18.3-1,36.6-3.7,54.7c-0.1,0.5,0.7,0.7,0.7,0.2c2.5-16.4,3.8-33,3.8-49.6
							c0-14.8-1.5-30.8,7.5-43.6C242.1,432.3,241.5,431.9,241.2,432.3L241.2,432.3z"/>
					</g>
				</g>
				<g>
					<g>
						<path d="M113.8,214.1c0.5-3.6-1.2,0.6-1.4,1.3c-0.5,1.4-1.1,2.9-1.6,4.3c-1.1,3-2.3,6.1-3.2,9.2c-1.7,5.4-2.9,11.1-2.4,16.8
							c0.5,6.1,2.4,12,3.9,17.9c1.9,7.5,3,14.7,3.1,22.4c0.2,12.5,1.6,24.3,6.1,36c5.1,13.1,13.1,24.8,18.3,37.9
							c0.1,0.2,0.3,0.4,0.6,0.2c0.2-0.2,0.4-0.3,0.6-0.5c0.2-0.1,0.3-0.3,0.1-0.5c-0.3-0.5-0.6-1-0.9-1.4c-0.2-0.4-0.9,0-0.6,0.4
							c1.4,2.3-0.2-1.2-0.4-1.7c-0.4-1.1-1-2.2-1.5-3.3c-1.5-3.2-3.1-6.3-4.7-9.3c-3-5.7-6.1-11.3-8.7-17.1
							c-5.7-12.8-7.9-25.8-8.1-39.8c-0.1-6.3-0.5-12.3-1.9-18.5c-1.4-6.3-3.4-12.4-4.6-18.8c-2.4-13.4,3.8-25.7,8.2-38
							c0.1-0.4-0.5-0.7-0.7-0.3c-0.8,1.6-0.6,0.9-0.8,2.6C113.1,214.3,113.8,214.5,113.8,214.1L113.8,214.1z"/>
					</g>
				</g>
				<g>
					<g>
						<path d="M185.3,212.9c-9.1,44-18.5,88.2-37.5,129.1c-4.4,9.5-9.1,18.9-12.1,29c-3.1,10.1-4.3,20.7-4.7,31.2
							c-0.8,21.6,0.8,43.4,7.1,64.1c7.2,23.7,19.2,47.3,15.3,72.7c-0.1,0.5,0.6,0.7,0.7,0.2c3.1-20.1-3.7-39.2-10.2-57.9
							c-3.5-10.2-7-20.4-9-31c-2.2-11.6-3-23.3-3.2-35.1c-0.2-11.7,0.2-23.6,2.5-35.1c2.3-11.5,7-22.2,12-32.7
							c9.2-19.6,16.8-39.6,22.8-60.4c7-24.3,12.1-49.1,17.2-73.9C186.1,212.6,185.4,212.4,185.3,212.9L185.3,212.9z"/>
					</g>
				</g>
				<g>
					<g>
						<path d="M207.6,225.6c0.5,14,0,28-1.7,41.9c-0.3,2.5-0.1,5.3-2.2,7.2c-0.9,0.8-2.6,1.3-3.7,1.9c-2.7,1.5-5.3,3.1-7.8,4.8
							c-4.6,3.2-8.9,6.9-12.8,10.9c-0.3,0.3,0.2,0.9,0.5,0.5c5.1-5.2,10.7-9.8,16.9-13.6c2.4-1.5,6-2.5,8.1-4.4
							c1.5-1.3,1.2-2.1,1.5-4.5c2-14.9,2.6-29.8,2.1-44.8C208.3,225.1,207.6,225.1,207.6,225.6L207.6,225.6z"/>
					</g>
				</g>
				<g>
					<g>
						<path d="M187.5,285.4c0,5.6,0,11.3-0.1,16.9c0,6.8,1,13.8-4.6,18.9c-7.3,6.6-14.3,13.1-20.5,20.7
							c-12.2,14.9-22,31.6-31.7,48.2c-0.2,0.4,0.4,0.8,0.6,0.4c10.8-18.5,21.7-37.1,36-53.2c3.4-3.8,6.9-7.4,10.6-10.8
							c3-2.7,7.1-5.2,9-8.9c2-4,1.4-9.1,1.4-13.4c0-6.3,0-12.6,0.1-18.9C188.2,284.9,187.5,284.9,187.5,285.4L187.5,285.4z"/>
					</g>
				</g>
				<g>
					<g>
						<path d="M96.4,222.9c1.7-0.8,1.9-0.2,0.7,1.6c-0.5,1.2-0.9,2.5-1.4,3.7c-0.7,1.9-1.4,3.7-2.1,5.6c-1.6,4.3-3.2,8.7-4.8,13
							c-1.6,4.3-3.2,8.7-4.8,13c-1.2,3.3-3.1,6.9-3.7,10.4c-1,6,4.2,12.1,7,17c2.2,3.9,4.4,7.9,6.6,11.8c0.9,1.7,1.9,3.4,2.8,5.1
							c0.5,0.9,4,5.4,1.7,2.3c-0.3-0.4-0.9,0-0.6,0.4c0.6,0.8,1.2,1.6,1.8,2.4c0.3,0.4,0.9,0.1,0.6-0.4c-3.8-6.7-7.6-13.5-11.3-20.2
							c-1.9-3.4-3.9-6.7-5.7-10.1c-1.1-2.1-2.3-4.2-2.3-6.7c0-2,1.1-4.3,1.8-6.2c5.5-14.9,11-29.8,16.6-44.7
							c0.1-0.3-0.2-0.5-0.5-0.5c-1.3,0.4-2,0.8-2.8,1.9C95.6,222.8,96.1,223.3,96.4,222.9L96.4,222.9z"/>
					</g>
				</g>
				<g>
					<g>
						<path d="M90.8,294.1c0.3,4.4,0.3,8.9-0.2,13.3c-0.4,3.7-1.8,7.6-1.7,11.3c0,6.3,6.4,10.8,10.3,15c11.7,12.8,22.8,26.2,33.2,40
							c0.3,0.4,0.9,0,0.6-0.4c-9-11.9-18.4-23.4-28.3-34.5c-5.4-6-15.5-13.4-14.8-22c0.6-7.8,2.1-14.8,1.6-22.7
							C91.5,293.6,90.8,293.6,90.8,294.1L90.8,294.1z"/>
					</g>
				</g>
				<g>
					<g>
						<path d="M136.7,391c-1,1.4-0.8,3.5,0.4,4.8c1.3,1.5,3.5,1.4,4.9,0.1c1.4-1.3,1.7-3.5,0.3-5c-1.3-1.3-3.4-1.6-4.9-0.5
							c-0.4,0.3,0,0.9,0.4,0.6c1.2-0.8,2.7-0.7,3.8,0.2c1.3,1.1,1.1,3-0.1,4.1c-2.6,2.4-6-1.3-4.1-3.9
							C137.6,391,137,390.6,136.7,391L136.7,391z"/>
					</g>
				</g>
				<g>
					<g>
						<path d="M138.8,390.7c0.7-2.5,2.9-4.4,5.6-4.5c0.5,0,0.5-0.8,0-0.8c-3,0.2-5.5,2.2-6.3,5.1C137.9,391,138.7,391.2,138.8,390.7
							L138.8,390.7z"/>
					</g>
				</g>
				<g>
					<g>
						<path d="M141.7,398c1.6-0.7,3.2-1.3,4.8-2c0.4-0.2,0.2-0.9-0.2-0.7c-1.6,0.7-3.2,1.3-4.8,2C141,397.5,141.2,398.2,141.7,398
							L141.7,398z"/>
					</g>
				</g>
				<g>
					<g>
						<path d="M229.8,399.2c-9.4,26.8-18.3,53.8-26.7,80.9c-0.1,0.5,0.6,0.7,0.7,0.2c8.4-27.1,17.3-54.1,26.7-80.9
							C230.7,398.9,229.9,398.7,229.8,399.2L229.8,399.2z"/>
					</g>
				</g>
				<g>
					<g>
						<path d="M224.2,423.4c2.4,25.8,4.9,51.6,7.3,77.4c0,0.5,0.8,0.5,0.8,0c-2.4-25.8-4.9-51.6-7.3-77.4
							C224.9,422.9,224.2,422.9,224.2,423.4L224.2,423.4z"/>
					</g>
				</g>
				<g>
					<g>
						<path d="M136.3,467.6c-15,28.6-11.8,61.4-11.4,92.5c0.1,8.7,0,17.4-0.9,26.1c-0.6,6.2-1.6,14.8-10.7,12.4
							c-4.2-1.1-8.1-3.9-11.4-6.6c-5.6-4.7-10.2-10.5-14.8-16.2c-5.8-7.1-11.5-14.2-17.3-21.3c-0.3-0.4-0.8,0.2-0.5,0.5
							c6.5,8,13,16.1,19.5,24.1c4.7,5.8,9.6,11.6,15.8,15.9c4.1,2.8,11.1,7.1,16.1,3.5c4.6-3.4,4.2-12.2,4.5-17.1
							c2.8-37.8-6.7-78.2,11.8-113.4C137.2,467.5,136.6,467.1,136.3,467.6L136.3,467.6z"/>
					</g>
				</g>
				<g>
					<g>
						<path d="M38.1,554.9c-3.9,9.4,8.4,14.2,14.9,16.9c12.2,5.1,25.1,8.2,38.3,9.4c0.5,0,0.5-0.7,0-0.8
							c-10.1-0.9-19.9-2.9-29.5-6.1c-7.3-2.4-27.6-8.1-23-19.3C39,554.6,38.3,554.5,38.1,554.9L38.1,554.9z"/>
					</g>
				</g>
				<g>
					<g>
						<path d="M152.7,531.7c0.1,6.3-0.4,12.6-1.4,18.8c-0.9,5.8-2.8,11.1-4.2,16.8c-1.1,4.5,0,7.5,2.1,11.5c2.8,5.5,5.6,11,8.4,16.5
							c1.2,2.4,2.2,7,5.3,7.3c2.5,0.3,5.5-2.6,7.1-4.2c9-8.9,17.3-18.6,25.9-27.8c0.3-0.4-0.2-0.9-0.5-0.5
							c-6.7,7.3-13.5,14.5-20.2,21.8c-3,3.2-9.5,12.9-14.2,8.4c-1.2-1.1-1.9-3.8-2.7-5.2c-1.2-2.3-2.4-4.6-3.6-7
							c-2-4-4.4-7.9-6.1-12c-2.7-6.5,0.7-12.6,2.2-19c1.9-8.3,2.7-16.8,2.7-25.3C153.4,531.2,152.7,531.2,152.7,531.7L152.7,531.7z"
							/>
					</g>
				</g>
				<g>
					<g>
						<path d="M184.9,584.1c4.8,0.1,8.9,5.4,13.8,4.1c2.2-0.6,3.9-2.5,5.4-4c2.8-2.6,5.6-5.2,8.3-7.9c4.8-4.7,9.5-9.7,13.6-15
							c0.7-0.9,4.6-5.3,1.4-5.9c-0.5-0.1-0.7,0.6-0.2,0.7c1.9,0.4-3.7,7.1-4,7.5c-1.5,1.8-3,3.6-4.6,5.3c-3.4,3.7-6.9,7.2-10.5,10.6
							c-4.5,4.3-8.8,10-15.5,6.6c-2.6-1.3-4.7-2.7-7.7-2.7C184.4,583.4,184.4,584.1,184.9,584.1L184.9,584.1z"/>
					</g>
				</g>
				<g>
					<g>
						<path d="M122.9,578.8c8.8,2,17.5,2.2,26.4,0.6c0.5-0.1,0.3-0.8-0.2-0.7c-8.7,1.6-17.3,1.4-26-0.6
							C122.7,577.9,122.5,578.7,122.9,578.8L122.9,578.8z"/>
					</g>
				</g>
				<g>
					<g>
						<path d="M55.4,523.9c15,4.2,33.6,28.9,50.1,14.8c0.4-0.3-0.2-0.8-0.5-0.5c-16.1,13.7-34.6-10.8-49.4-15
							C55.1,523,54.9,523.8,55.4,523.9L55.4,523.9z"/>
					</g>
				</g>
				<g>
					<g>
						<path d="M219.3,485.2c-0.9,4.9-1.8,9.8-2.7,14.8c-0.4,2-0.4,4.8-1.2,6.6c-1.6,3.5-5.6,3.9-8.7,4.9
							c-8.6,2.6-16.8,6.2-24.6,10.5c-0.4,0.2,0,0.9,0.4,0.6c5.4-2.9,10.9-5.5,16.6-7.7c4.6-1.8,10-2.5,14.3-4.7
							c2.9-1.5,3-4.3,3.5-7.3c1.1-5.8,2.1-11.7,3.2-17.5C220.1,484.9,219.4,484.7,219.3,485.2L219.3,485.2z"/>
					</g>
				</g>
				<g>
					<g>
						<path d="M166.9,428.4c-2.2,5.1-4.6,10.2-7.1,15.2c-0.1,0.3,0.2,0.8,0.5,0.5c15.8-12.2,28.4-27.7,37.1-45.7
							c0.2-0.4-0.4-0.8-0.6-0.4c-5.2,10.9-11.9,20.9-20,29.9c-3.7,4.1-7.6,7.9-11.8,11.4c-0.3,0.3-3.2,3-3.7,2.9
							c0.2,0,1.9-3.9,2-4.2c1.5-3.1,2.9-6.2,4.2-9.3C167.7,428.3,167.1,427.9,166.9,428.4L166.9,428.4z"/>
					</g>
				</g>
				<g>
					<g>
						<path d="M40.1,561.6c-0.9,17.9-0.8,35.9,0.5,53.9c0.6,8.8,1.5,17.6,2.7,26.3c0.5,3.9,1.1,7.8,1.7,11.7
							c0.4,2.4,0.6,4.6,2.5,6.4c0.4,0.3,0.9-0.2,0.5-0.5c-2.7-2.5-2.7-8.4-3.2-11.8c-0.7-4.5-1.3-9-1.8-13.5
							c-0.9-8.1-1.6-16.2-2.1-24.4c-0.9-16-0.9-32-0.1-48C40.9,561.1,40.1,561.1,40.1,561.6L40.1,561.6z"/>
					</g>
				</g>
				<g>
					<g>
						<path d="M42.4,637.9c-0.1,20.1-1.7,40.2-4.9,60.1c-1.3,8.4-4,17-4.3,25.5c-0.2,6.6,2.6,11.8,7.4,16.1
							c21.3,19.1,57.2,17.5,82.9,9.8c14.5-4.4,29.2-14.9,29.2-31.5c0-0.5-0.7-0.5-0.8,0c-0.1,32.5-47.9,36.9-71.7,35.5
							c-14-0.9-28.5-4.8-39.2-14.4c-7.4-6.7-7.9-14.5-6.1-23.9c1.5-7.9,3-15.8,4.1-23.8c2.5-17.8,3.8-35.6,3.9-53.6
							C43.1,637.4,42.4,637.4,42.4,637.9L42.4,637.9z"/>
					</g>
				</g>
				<g>
					<g>
						<path d="M147,698.3c10.6,4.1,3.6,18.7,3.8,26.6c0,0.5,0.8,0.5,0.8,0c-0.2-8.2,6.8-23-4.3-27.3
							C146.7,697.4,146.5,698.1,147,698.3L147,698.3z"/>
					</g>
				</g>
				<g>
					<g>
						<path d="M146.7,623.4c0.1-0.9,0.2-1.7,0.3-2.6c0-0.4-0.7-0.5-0.7-0.1c-4.1,26.2-3.2,52.9,2.7,78.7c0.1,0.4,0.8,0.3,0.7-0.1
							c-0.1-1.2-0.1-2.4-0.2-3.6c0-0.5-0.8-0.5-0.8,0c0.1,2.4,0.5,2.3,0.1-0.2c-0.2-1.2-0.5-2.5-0.8-3.7c-0.7-3.7-1.3-7.4-1.8-11.1
							c-0.9-6.8-1.5-13.7-1.8-20.6c-0.2-6.3-0.1-12.6,0.2-18.8c0.2-3.4,0.5-6.9,0.9-10.3c0.2-2,0.9-4.5,0.8-6.4
							c0-0.7-0.1-4.5-0.5-1.3C145.9,623.8,146.6,623.8,146.7,623.4L146.7,623.4z"/>
					</g>
				</g>
				<g>
					<g>
						<path d="M146.1,637.9c5.3,19.2,8.9,38.8,10.8,58.7c0.8,8.4,0.1,17.5,1.7,25.8c1.4,7.3,8.8,12.6,14.1,17.2
							c11.6,10,25.2,14.9,40.6,12.6c14.8-2.3,28.4-10.2,38.3-21.3c2.7-3.1,20.7-29.1,11.1-29.4c-0.5,0-0.5,0.7,0,0.8
							c6.5,0.3-7.6,23.2-9.3,25.3c-4.9,6.2-10.8,11.4-17.5,15.5c-16.6,10.1-38.1,12.8-55,1.9c-4.1-2.6-7.8-5.8-11.3-9.1
							c-3-2.8-7.1-6-9.1-9.7c-2.5-4.9-1.7-11.7-2-17.1c-0.3-5.1-0.7-10.1-1.2-15.1c-1.9-18.9-5.5-37.7-10.5-56
							C146.7,637.3,146,637.5,146.1,637.9L146.1,637.9z"/>
					</g>
				</g>
				<g>
					<g>
						<path d="M228.8,561.1c1.3,6.5,2.7,13.1,5.9,19c1.3,2.4,2.9,4.6,4.9,6.5c1,0.9,2.1,1.8,3.3,2.5c0.8,0.5,1.6,0.9,2.5,1.3
							c2.4,0.8,2.8,2.8,1,6c-0.4-0.3-0.8,0.4-0.4,0.6c1.5,1,3.2,0.2,3.9-1.5c1-2.6-1.6-4.4-3.6-5.4c-11.3-6.1-14.5-17.1-16.9-29.1
							C229.4,560.4,228.7,560.6,228.8,561.1L228.8,561.1z"/>
					</g>
				</g>
				<g>
					<g>
						<path d="M251.8,594.9c-0.1,1.6-0.1,1,0.4,2.5c0.6,1.2,1.2,2.4,1.7,3.7c0.5,2,0.5,4.1,0,6.1c-0.7,4-2,7.9-2.6,12
							c-1.3,8.9-0.9,18,0.2,26.9c1.2,9.7,3.4,19.3,5.5,28.8c1.1,4.8,2.1,9.6,3,14.5c0.4,2.2,3.6,14.5,2,15.5c0.4-0.2,0-0.9-0.4-0.6
							c-0.1,0.1-0.2,0.1-0.3,0.2c-0.1,0.1-0.2,0.3-0.2,0.4c0.2,0.7,0.2,0.7,0.9,0.9c0.2,0.1,0.3,0,0.4-0.2c1.5-2,0.1-5.9-0.3-8.2
							c-0.7-4.9-1.7-9.7-2.7-14.5c-2.1-10.2-4.6-20.4-6.4-30.7c-1.7-10.3-2.6-20.8-1.3-31.2c0.6-5.1,2.5-10.1,3-15.2
							c0.1-1.4,0.2-2.8-0.1-4.2c-0.5-2.2-2.3-4.5-2.2-6.8C252.6,594.5,251.8,594.5,251.8,594.9L251.8,594.9z"/>
					</g>
				</g>
				<g>
					<g>
						<path d="M34.6,722.6c17.1,10.8,39.6,19.3,60.2,17.2c9.9-1,18.7-6,27.3-10.7c10.3-5.7,20.1-12.1,29.5-19.2
							c0.4-0.3,0-0.9-0.4-0.6c-8.2,6.1-16.7,11.8-25.5,16.9c-9.5,5.5-19.7,11.7-30.8,12.8c-20.4,2.1-42.8-6.3-59.8-17.1
							C34.6,721.6,34.2,722.3,34.6,722.6L34.6,722.6z"/>
					</g>
				</g>
				<g>
					<g>
						<path d="M87.4,590.4c3.9-0.6,7.7,0,11.2,1.8c0.4,0.2,0.8-0.4,0.4-0.6c-3.7-1.9-7.7-2.5-11.8-1.8
							C86.8,589.8,87,590.5,87.4,590.4L87.4,590.4z"/>
					</g>
				</g>
				<g>
					<g>
						<path d="M123.2,596.6c5.7,0.6,11.1,0.1,16.6-1.7c0.5-0.1,0.3-0.9-0.2-0.7c-5.3,1.8-10.8,2.3-16.4,1.7
							C122.7,595.8,122.7,596.6,123.2,596.6L123.2,596.6z"/>
					</g>
				</g>
				<g>
					<g>
						<path d="M196.1,586.6c-1.3,6.1-2.1,12.2-2.3,18.5c0,0.5,0.7,0.5,0.8,0c0.2-6.2,1-12.2,2.3-18.3
							C197,586.3,196.2,586.1,196.1,586.6L196.1,586.6z"/>
					</g>
				</g>
				<g>
					<g>
						<path d="M15.4,569.5c0,9.5-0.4,19-1.4,28.5c-0.5,5-1.2,10-1.9,15c-0.4,2.8-1.7,6.1-0.9,8.9c0.9,3.2,4.1,6.5,5.9,9.3
							c2.3,3.5,4.3,7.3,7,10.5c4.1,4.9,12.5,4.8,18.3,6c0.5,0.1,0.7-0.6,0.2-0.7c-3.6-0.8-7.2-1.5-10.8-2.3c-5-1.1-7.1-3.4-9.9-7.7
							c-2-3.1-4.1-6.2-6.1-9.3c-1-1.5-2.4-3-3.1-4.7c-1.4-3.3-0.5-5.8,0-8.9c2.4-14.8,3.5-29.7,3.5-44.7
							C16.2,569,15.4,569,15.4,569.5L15.4,569.5z"/>
					</g>
				</g>
				<g>
					<g>
						<path d="M14,626.9c1.4,7.1,5.9,14.5,10.1,20.2c1,1.4,1.5,2,3.2,2.4c1.5,0.3,3.7-0.2,5.2-0.2c2.8,0.1,5.9,0,8.6,0.3
							c-0.5,0-0.5,0.7,0,0.8c0,0,0.1,0,0.1,0c0.2,0,0.4-0.2,0.4-0.4c0,0,0-0.1,0-0.1c0-0.2-0.1-0.3-0.3-0.4
							c-6.1-1.1-14.5,0.6-18-5.2c-3.4-5.6-7.4-11.2-8.6-17.7C14.6,626.2,13.9,626.4,14,626.9L14,626.9z"/>
					</g>
				</g>
				<g>
					<g>
						<path d="M22.8,618.6c0.8,5.7,5,11.4,7.9,16.3c0.9,1.5,1.2,2.2,2.7,3c1,0.6,2.4,0.8,3.5,1.2c0.4,0.2,6.6,2.2,6.8,2.8
							c-0.2-0.4-0.9-0.3-0.7,0.2c0,0,0,0.1,0.1,0.1c0.1,0.2,0.3,0.3,0.5,0.3c0.1,0,0.1,0,0.2-0.1c0.2-0.1,0.4-0.3,0.2-0.6
							c-2.6-3.7-9.2-3.1-12.2-6.6c-1.7-2-2.9-5.2-4.1-7.5c-1.7-3-3.6-5.9-4.1-9.4C23.5,617.9,22.7,618.1,22.8,618.6L22.8,618.6z"/>
					</g>
				</g>
				<g>
					<g>
						<path d="M26.1,624.6c0,0.3,0,0.6,0,0.9c0,0.4,0.7,0.5,0.7,0.1c0.6-3.8,1.4-7.5,2.4-11.1c0.1-0.5-0.6-0.7-0.7-0.2
							c-1,3.7-1.8,7.4-2.4,11.1c0.2,0,0.5,0.1,0.7,0.1c0-0.3,0-0.6,0-0.9C26.9,624.1,26.1,624.1,26.1,624.6L26.1,624.6z"/>
					</g>
				</g>
				<g>
					<g>
						<path d="M26.3,612.8c6.9,2.6,8,11.5,10.4,17.6c1.1,2.9,2.5,5.2,5.8,5.4c0.4,0,0.5-0.6,0.1-0.7c-0.3-0.1-0.5-0.2-0.8-0.3
							c-0.5-0.2-0.7,0.6-0.2,0.7c-4.8-1.7-6.3-11.9-8.1-16.2c-1.5-3.4-3.5-5.9-6.9-7.2C26.1,611.9,25.9,612.6,26.3,612.8L26.3,612.8
							z"/>
					</g>
				</g>
				<g>
					<g>
						<path d="M27.2,621.4c2-0.3,4.6,4.6,5.5,6c1.2,1.9,2.3,3.9,3.3,6c1.6,3.1,3.1,5.6,6.3,7.2c0.4,0.2,0.8-0.4,0.4-0.6
							c-5.1-2.6-6.7-8.9-9.6-13.4c-1.2-1.8-3.5-6.2-6-5.8C26.5,620.8,26.7,621.5,27.2,621.4L27.2,621.4z"/>
					</g>
				</g>
				<g>
					<g>
						<path d="M61,748.5c-2.5,7.9-1.5,15.9,0.7,23.7c2.7,9.8,6.6,19.4,9.9,28.9c0.2,0.5,0.9,0.3,0.7-0.2c-3-8.5-6.2-16.9-8.9-25.5
							c-2.7-8.7-4.5-17.9-1.7-26.8C61.9,748.2,61.1,748,61,748.5L61,748.5z"/>
					</g>
				</g>
				<g>
					<g>
						<path d="M126.2,749.1c-4.8,35.2,10.9,68.3,14.4,102.9c1.9,19.5-0.7,39.2-2.4,58.6c-1.7,19.3-3.4,38.7-5.1,58
							c-0.9,10.7-2.6,21.7-2.9,32.4c-0.1,3.2,0.8,8.6,5.1,7.7c0.5-0.1,0.3-0.8-0.2-0.7c-0.7,0.1-3.5-2.7-3.8-3.2
							c-0.4-0.7-0.4-1.9-0.4-2.7c-0.1-2,0.3-4,0.5-6c0.4-4.6,0.8-9.2,1.2-13.8c0.8-8.5,1.5-17,2.3-25.6c1.6-17.7,3.1-35.4,4.7-53.1
							c1.5-17.2,3.5-34.5,1.8-51.7c-1.5-15.4-5.5-30.4-9-45.4c-4.4-18.8-8-37.9-5.4-57.3C126.9,748.8,126.2,748.6,126.2,749.1
							L126.2,749.1z"/>
					</g>
				</g>
				<g>
					<g>
						<path d="M173.2,739.8c1.3,20.6,4.8,41.8,12.3,61.1c0.2,0.4,0.9,0.3,0.7-0.2c-7.4-19.3-11-40.4-12.2-60.9
							C173.9,739.3,173.2,739.3,173.2,739.8L173.2,739.8z"/>
					</g>
				</g>
				<g>
					<g>
						<path d="M241.4,739.8c-0.5,10.4,1.7,20.7,3.2,31.1c0.8,5.4,1.6,10.9,1.8,16.3c0.1,3,0,6-0.6,8.9c-0.2,1.1-3,10.5-4.2,9.7
							c0.4,0.3,0.8-0.4,0.4-0.6c-0.1-0.1-0.2-0.1-0.3-0.2c-0.1-0.1-0.4-0.1-0.5,0.1c-0.4,0.5-0.5,0.5-0.3,1.1
							c0.1,0.2,0.2,0.3,0.5,0.3c2.9-0.5,4.2-6.2,4.7-8.5c1.4-5.7,1.1-11.7,0.5-17.4c-1.5-13.5-5.2-27.1-4.4-40.7
							C242.2,739.3,241.5,739.3,241.4,739.8L241.4,739.8z"/>
					</g>
				</g>
				<g>
					<g>
						<path d="M159.9,715.6c26.4,31.5,73.4,13.8,99.1-8.8c0.4-0.3-0.2-0.8-0.5-0.5c-25.4,22.4-71.9,40-98.1,8.8
							C160.1,714.7,159.6,715.3,159.9,715.6L159.9,715.6z"/>
					</g>
				</g>
				<g>
					<g>
						<path d="M179.6,111.5c-5.3,1.2-10.8,1.4-16.1,2.7c-5.4,1.4-10.7,3.4-15.9,5.4c-0.4,0.2-0.3,0.9,0.2,0.7c5.2-2,10.5-4,15.9-5.4
							c5.3-1.4,10.8-1.5,16.1-2.7C180.3,112.1,180.1,111.4,179.6,111.5L179.6,111.5z"/>
					</g>
				</g>
				<g>
					<g>
						<path d="M188.4,138c1.9,1.1-0.8,4.3-1.7,5.3c-0.3,0.4,0.2,0.9,0.5,0.5c1.2-1.4,4.1-5,1.5-6.5C188.4,137.1,188,137.8,188.4,138
							L188.4,138z"/>
					</g>
				</g>
				<g>
					<g>
						<path d="M188.4,141.5c-3.9-1.1-2.8,5-3.8,6.8c-0.2,0.4,0.4,0.8,0.6,0.4c0.5-0.9,0.6-1.7,0.6-2.7c0-1.4,0.1-4.3,2.3-3.7
							C188.7,142.4,188.9,141.7,188.4,141.5L188.4,141.5z"/>
					</g>
				</g>
				<g>
					<g>
						<path d="M88.5,142.7c0.2,1.9,0.2,3.9,0.6,5.7c0.2,0.9,0.8,1.6,1.8,1.3c0.2-0.1,0.3-0.2,0.3-0.4c0-0.2,0-0.4,0-0.5
							c0-0.5-0.7-0.5-0.8,0c0,0.2,0,0.4,0,0.5c0.1-0.1,0.2-0.2,0.3-0.4c-1,0.3-1.1-3-1.2-3.4c-0.1-1-0.2-1.9-0.3-2.9
							C89.2,142.2,88.5,142.2,88.5,142.7L88.5,142.7z"/>
					</g>
				</g>
				<g>
					<g>
						<path d="M89.7,146.8c0.7-0.6,1.4,0.8,1.5,1.3c0.2,0.6,0.4,1.2,0.9,1.7c0.3,0.3,0.9-0.2,0.5-0.5c-0.7-0.7-0.7-1.9-1.4-2.6
							c-0.6-0.6-1.4-0.8-2.1-0.3C88.8,146.6,89.3,147.1,89.7,146.8L89.7,146.8z"/>
					</g>
				</g>
				<g>
					<path d="M96.9,128.3c1.3,0.8,2.5,1.7,3.6,2.7c0.5-0.9,0.4-2-0.1-2.8c3.9-2.2,8.9-1.7,13.4-1.2c4.6,0.5,9.3,1.1,13.3,3.1
						c-1.3-0.2-1.4-1.8-2.4-2.5c-0.4-0.2-0.8-0.3-1.2-0.4c-4.4-1.1-8.9-2.1-13.5-2.2c-4.6-0.1-9.4,0.7-13,3.2"/>
					<g>
						<path d="M96.7,128.6c1.3,0.7,2.4,1.6,3.5,2.6c0.2,0.2,0.6,0.1,0.6-0.2c1.8-8.2,20.9-3,26.1-0.7c0.4,0.2,0.8-0.4,0.4-0.6
							c-1.7-0.9-1.9-2.3-3.7-3c-3-1.2-6.9-1.6-10.1-2c-5.8-0.7-11.6-0.1-16.6,3c-0.4,0.3,0,0.9,0.4,0.6c6-3.6,12.8-3.5,19.5-2.4
							c2.6,0.5,5.6,0.7,7.7,2.3c0.9,0.6,1.1,0.8,1.6,1.6c0.3,0.4,0-0.8-0.4-0.9c-7.6-2.4-18-4.7-25.6-1.1c-0.1,0.1-0.2,0.3-0.2,0.4
							c1,3.2-2.5,0-2.9-0.3C96.6,127.7,96.3,128.4,96.7,128.6L96.7,128.6z"/>
					</g>
				</g>
				<g>
					<g>
						<path d="M104.1,134.3c6.2,2,12.6,1.9,18.7-0.4c0.4-0.2,0.3-0.9-0.2-0.7c-6,2.2-12.2,2.3-18.3,0.4
							C103.8,133.4,103.6,134.1,104.1,134.3L104.1,134.3z"/>
					</g>
				</g>
				<g>
					<g>
						<path d="M103.8,127.5c0.7,3.7,3.3,6.6,6.6,8.3c0.4,0.2,0.8-0.4,0.4-0.6c-3.1-1.6-5.5-4.3-6.3-7.8
							C104.5,126.8,103.7,127,103.8,127.5L103.8,127.5z"/>
					</g>
				</g>
				<g>
					<g>
						<path d="M121.1,128.4c0.8,2,0.4,4-1.1,5.5c-0.3,0.3,0.2,0.9,0.5,0.5c1.6-1.7,2.2-4,1.3-6.2C121.6,127.8,120.9,128,121.1,128.4
							L121.1,128.4z"/>
					</g>
				</g>
				<g>
					<g>
						<path d="M112.2,128.8c-1.1,1.9,0.7,3.8,2.7,3.8c2.8-0.1,1.3-4,0.6-5.4c-0.2-0.4-0.9-0.1-0.6,0.4c0.3,0.6,0.6,1.3,0.8,2
							c0.1,0.6,0.4,1.9-0.3,2.2c-0.6,0.3-1.8-0.1-2.2-0.5c-0.6-0.6-0.7-1.3-0.3-2C113.1,128.8,112.4,128.4,112.2,128.8L112.2,128.8z
							"/>
					</g>
				</g>
				<g>
					<g>
						<path d="M107.2,131.6c1.4,0,2.7,0,4.1,0c0.5,0,0.5-0.8,0-0.8c-1.4,0-2.7,0-4.1,0C106.7,130.9,106.7,131.6,107.2,131.6
							L107.2,131.6z"/>
					</g>
				</g>
				<g>
					<g>
						<path d="M116,131.3c1.6-0.1,3.2-0.1,4.7,0.1c0.5,0,0.5-0.7,0-0.8c-1.6-0.2-3.1-0.2-4.7-0.1C115.5,130.5,115.5,131.3,116,131.3
							L116,131.3z"/>
					</g>
				</g>
				<g>
					<path d="M155.2,126.7c-0.4,0.1-1.1,0.2-1.8,0.7c-0.6,0.4-1,1-1.2,1.4c1.9,0.3,3.8-0.6,5.6-1.3c5.4-2.1,11.6-2.5,17.2-1.2
						c0.6,0.1,1.2,0.3,1.6,0.8c0.4,0.4,0.3,1.2-0.3,1.4c1-0.3,2.1-0.6,3.1-0.9c-0.4-1.5-2-2.6-3.8-3.1c-1.7-0.5-3.6-0.4-5.4-0.3
						c-1.9,0.1-3.4,0.1-5.7,0.3c-2.2,0.2-3.7,0.4-5.7,0.9C156.8,126,156.9,126.3,155.2,126.7z"/>
					<g>
						<path d="M155.1,126.3c-1.5,0.4-2.3,1-3.2,2.3c-0.2,0.2,0,0.6,0.3,0.6c3.2,0.1,5.9-1.6,9-2.3c2.2-0.5,4.6-0.8,6.9-0.9
							c0.4,0,9.3,0.7,8.1,2.3c-0.2,0.3,0,0.7,0.4,0.6c1-0.3,2.1-0.6,3.1-0.9c0.2-0.1,0.3-0.3,0.2-0.6c-2-4.1-6.9-3.7-10.9-3.6
							C164,124,159.9,125.1,155.1,126.3c-0.5,0.1-0.3,0.8,0.2,0.7c4.6-1.2,8.9-2.3,13.7-2.5c1.8-0.1,5.3-0.5,6.7,0.3
							c0.2,0.1,3.2,3.9,1.5,3.3c0.3,0.1-0.5-1.4-0.2-1.2c-2.4-1.5-5.3-1.7-8.1-1.7c-2.4-0.1-4.8,0.2-7.1,0.7
							c-1.4,0.3-2.8,0.8-4.2,1.2c-0.5,0.2-0.9,0.4-1.4,0.5c-1.4,0.9-1.8,0.7-1.1-0.6C155.8,126.9,155.6,126.2,155.1,126.3z"/>
					</g>
				</g>
				<g>
					<g>
						<path d="M154.7,128.6c0.2,1.6,1.3,2.8,2.6,3.6c0.4,0.2,0.8-0.4,0.4-0.6c-1.2-0.7-2.1-1.8-2.3-3.2
							C155.4,127.9,154.7,128.1,154.7,128.6L154.7,128.6z"/>
					</g>
				</g>
				<g>
					<g>
						<path d="M174.5,126.8c0.3,2.7-1.2,5-3.5,6.2c-0.4,0.2,0,0.9,0.4,0.6c2.5-1.4,4.2-3.9,3.9-6.9
							C175.2,126.3,174.5,126.3,174.5,126.8L174.5,126.8z"/>
					</g>
				</g>
				<g>
					<g>
						<path d="M155.8,133.6c6,1.7,12.2,1.8,18.3,0.3c0.5-0.1,0.3-0.8-0.2-0.7c-6,1.4-11.9,1.3-17.9-0.3
							C155.5,132.7,155.3,133.5,155.8,133.6L155.8,133.6z"/>
					</g>
				</g>
				<g>
					<g>
						<path d="M162,127.2c-0.9,0.8-1,2.1-0.5,3.1c0.7,1.3,2.3,1.8,3.7,1.6c1.4-0.2,2.6-1.2,2.8-2.7c0.1-0.5,0.1-1.2-0.3-1.6
							c-0.3-0.3-0.7-0.2-0.9,0.2c-0.1,0.2,0,0.3,0.1,0.5c0,0,0,0.1,0.1,0.1c0.3,0.4,0.8-0.2,0.5-0.5c0,0,0-0.1-0.1-0.1
							c0,0.2,0,0.3,0.1,0.5c-0.2,0.4-0.1,1-0.3,1.5c-0.2,0.4-0.4,0.7-0.8,1c-0.8,0.6-1.8,0.7-2.7,0.5c-1.4-0.4-2.4-2.2-1.1-3.4
							C162.9,127.4,162.3,126.9,162,127.2L162,127.2z"/>
					</g>
				</g>
				<g>
					<g>
						<path d="M157.9,130.7c1.3-0.3,2.6-0.4,4-0.3c0.5,0,0.5-0.7,0-0.8c-1.4-0.1-2.8,0.1-4.2,0.4C157.2,130,157.4,130.8,157.9,130.7
							L157.9,130.7z"/>
					</g>
				</g>
				<g>
					<g>
						<path d="M167.2,130.5c2,0.5,4,0.7,6.1,0.6c0.5,0,0.5-0.8,0-0.8c-2,0.2-4,0-5.9-0.5C166.9,129.6,166.7,130.3,167.2,130.5
							L167.2,130.5z"/>
					</g>
				</g>
			</g>
		</g>
	</g>
</g>
</svg>
